<svg width="20" height="20" viewBox="0 0 20 20" fill="none" xmlns="http://www.w3.org/2000/svg">
<path d="M0.47619 0C0.349901 1.26271e-05 0.228787 0.0501866 0.139487 0.139487C0.0501866 0.228787 1.26271e-05 0.349901 0 0.47619V19.5238C1.26271e-05 19.6501 0.0501866 19.7712 0.139487 19.8605C0.228787 19.9498 0.349901 20 0.47619 20H19.5238C19.6501 20 19.7712 19.9498 19.8605 19.8605C19.9498 19.7712 20 19.6501 20 19.5238V0.47619C20 0.349901 19.9498 0.228787 19.8605 0.139487C19.7712 0.0501866 19.6501 1.26271e-05 19.5238 0H0.47619ZM0.952381 0.952381H19.0476V2.85714H0.952381V0.952381ZM0.952381 3.80952H19.0476V19.0476H0.952381V3.80952ZM2.85714 5.2381C2.73085 5.23811 2.60974 5.28828 2.52044 5.37758C2.43114 5.46688 2.38096 5.588 2.38095 5.71429V7.61905C2.38096 7.74534 2.43114 7.86645 2.52044 7.95575C2.60974 8.04505 2.73085 8.09523 2.85714 8.09524H17.1429C17.2691 8.09523 17.3903 8.04505 17.4796 7.95575C17.5689 7.86645 17.619 7.74534 17.619 7.61905V5.71429C17.619 5.588 17.5689 5.46688 17.4796 5.37758C17.3903 5.28828 17.2691 5.23811 17.1429 5.2381H2.85714ZM3.33333 6.19048H16.6667V7.14286H3.33333V6.19048ZM3.33333 9.04762C2.81283 9.04762 2.38095 9.47949 2.38095 10V16.6667C2.38095 17.1872 2.81283 17.619 3.33333 17.619H8.57143C9.09194 17.619 9.52381 17.1872 9.52381 16.6667V10C9.52381 9.47949 9.09194 9.04762 8.57143 9.04762H3.33333ZM11.4286 9.04762C10.9081 9.04762 10.4762 9.47949 10.4762 10V16.6667C10.4762 17.1872 10.9081 17.619 11.4286 17.619H16.6667C17.1872 17.619 17.619 17.1872 17.619 16.6667V10C17.619 9.47949 17.1872 9.04762 16.6667 9.04762H11.4286ZM3.33333 10H8.57143V16.6667H3.33333V10ZM11.4286 10H16.6667V16.6667H11.4286V10Z" fill="#9B51E0"/>
</svg>
