<svg width="290" height="200" viewBox="0 0 290 200" fill="none" xmlns="http://www.w3.org/2000/svg">
<path d="M260.942 184.667H241.732V184.802H260.942V184.667Z" fill="#EBEBEB"/>
<path d="M192.108 186.129H187.068V186.264H192.108V186.129Z" fill="#EBEBEB"/>
<path d="M241.152 179.678H230.022V179.812H241.152V179.678Z" fill="#EBEBEB"/>
<path d="M55.477 180.581H30.4268V180.716H55.477V180.581Z" fill="#EBEBEB"/>
<path d="M64.3162 180.581H60.6448V180.716H64.3162V180.581Z" fill="#EBEBEB"/>
<path d="M130.587 182.85H76.2527V182.984H130.587V182.85Z" fill="#EBEBEB"/>
<path d="M137.46 152.039H25.4679C24.5905 152.038 23.7496 151.713 23.1298 151.138C22.51 150.562 22.1619 149.782 22.1619 148.969V3.04293C22.1695 2.23436 22.521 1.46124 23.14 0.891491C23.759 0.321743 24.5955 0.00138512 25.4679 0H137.46C138.338 0 139.181 0.323426 139.802 0.899127C140.423 1.47483 140.772 2.25565 140.772 3.06981V148.969C140.772 149.783 140.423 150.564 139.802 151.14C139.181 151.716 138.338 152.039 137.46 152.039ZM25.4679 0.107524C24.629 0.108949 23.825 0.418841 23.2323 0.969182C22.6397 1.51952 22.3069 2.26534 22.3069 3.04293V148.969C22.3069 149.747 22.6397 150.493 23.2323 151.043C23.825 151.593 24.629 151.903 25.4679 151.905H137.46C138.299 151.903 139.104 151.593 139.698 151.043C140.291 150.493 140.625 149.747 140.627 148.969V3.04293C140.625 2.26485 140.291 1.51904 139.698 0.968854C139.104 0.418666 138.299 0.108946 137.46 0.107524H25.4679Z" fill="#EBEBEB"/>
<path d="M262.92 152.039H150.922C150.044 152.038 149.203 151.714 148.582 151.138C147.961 150.563 147.612 149.783 147.61 148.969V3.04293C147.619 2.23387 147.972 1.46076 148.592 0.891155C149.212 0.321555 150.049 0.00137001 150.922 0H262.92C263.791 0.00279804 264.626 0.323781 265.244 0.893378C265.862 1.46298 266.212 2.23529 266.22 3.04293V148.969C266.22 149.781 265.873 150.561 265.254 151.136C264.636 151.711 263.796 152.036 262.92 152.039ZM150.922 0.107524C150.082 0.108946 149.278 0.418666 148.684 0.968854C148.091 1.51904 147.757 2.26485 147.755 3.04293V148.969C147.757 149.747 148.091 150.493 148.684 151.043C149.278 151.593 150.082 151.903 150.922 151.905H262.92C263.759 151.903 264.564 151.593 265.157 151.043C265.751 150.493 266.085 149.747 266.087 148.969V3.04293C266.085 2.26485 265.751 1.51904 265.157 0.968854C264.564 0.418666 263.759 0.108946 262.92 0.107524H150.922Z" fill="#EBEBEB"/>
<path d="M290 176.017H0V176.151H290V176.017Z" fill="#EBEBEB"/>
<path d="M79.1293 176.63L78.5377 188.538H77.1225L75.2607 179.436L79.1293 176.63Z" fill="#E0E0E0"/>
<path d="M39.4922 176.63L40.0896 188.538H41.5048L43.3666 179.436L39.4922 176.63Z" fill="#E0E0E0"/>
<path d="M31.9055 128.4L34.9215 181.167H38.3261L38.2391 179.323H80.8053L80.7183 181.167H84.1287L87.0055 128.4H31.9055Z" fill="#F5F5F5"/>
<path d="M38.1116 176.517H80.9388L83.05 131.599H36.012L38.1116 176.517Z" fill="#FAFAFA"/>
<path d="M37.9437 144.561H80.6839L81.1595 133.765H37.4739L37.9437 144.561Z" fill="#EBEBEB"/>
<path d="M39.4457 175.173H79.4541L80.7301 145.899H38.1697L39.4457 175.173Z" fill="#EBEBEB"/>
<path d="M59.4034 140.2C60.4797 140.2 61.3522 139.502 61.3522 138.641C61.3522 137.78 60.4797 137.082 59.4034 137.082C58.3271 137.082 57.4546 137.78 57.4546 138.641C57.4546 139.502 58.3271 140.2 59.4034 140.2Z" fill="white"/>
<path d="M76.0613 162.361C76.41 162.384 76.7541 162.277 77.019 162.066C77.2839 161.855 77.4483 161.555 77.4765 161.232V153.437C77.4483 153.114 77.2839 152.814 77.019 152.603C76.7541 152.391 76.41 152.285 76.0613 152.308C75.7132 152.285 75.3697 152.392 75.1057 152.603C74.8417 152.815 74.6786 153.114 74.6519 153.437V161.232C74.6786 161.555 74.8417 161.854 75.1057 162.066C75.3697 162.277 75.7132 162.383 76.0613 162.361Z" fill="white"/>
<path d="M34.6553 176.517L35.2527 188.425H37.2711L39.1329 179.323L34.6553 176.517Z" fill="#EBEBEB"/>
<path d="M84.1058 176.63L83.5142 188.538H81.49L79.6282 179.436L84.1058 176.63Z" fill="#EBEBEB"/>
<path d="M206.979 81.6322C213.663 82.41 220.426 82.41 227.111 81.6322C227.191 81.833 227.315 82.0162 227.476 82.1698C228.131 82.7773 229.842 82.1698 229.842 82.1698C229.842 82.1698 230.498 80.557 229.842 79.9763C229.703 79.8473 229.454 79.8312 229.373 79.6753C228.682 78.3796 229.918 75.9119 229.924 73.2238C229.929 70.5357 228.7 68.0734 229.39 66.7724C229.668 66.2348 230.353 65.9982 230.353 65.38C230.353 64.7617 229.674 64.5036 229.396 63.9821C228.706 62.6811 229.941 60.2188 229.976 57.5307C230.011 54.8426 228.752 52.3803 229.448 51.0793C229.529 50.9234 229.773 50.9072 229.912 50.7782C230.567 50.1761 229.912 48.5901 229.912 48.5901C229.912 48.5901 228.201 47.9826 227.546 48.5901C227.383 48.7406 227.372 49.0094 227.18 49.1277C225.388 50.0363 221.421 48.5363 217.117 48.5309C212.814 48.5256 208.8 50.0309 207.06 49.117C206.869 49.0202 206.857 48.7514 206.695 48.5793C206.039 47.9718 204.328 48.5793 204.328 48.5793C204.328 48.5793 203.673 50.1922 204.328 50.7728C204.467 50.9019 204.717 50.918 204.798 51.0739C205.488 52.3696 204.253 54.8372 204.218 57.5253C204.183 60.2134 205.442 62.6704 204.752 63.9768C204.473 64.5144 203.789 64.7509 203.789 65.3692C203.789 65.9875 204.467 66.2455 204.746 66.767C205.436 68.0681 204.201 70.5304 204.195 73.2185C204.189 75.9066 205.419 78.3689 204.723 79.6699C204.641 79.8258 204.398 79.8419 204.259 79.971C203.603 80.5731 204.259 82.1591 204.259 82.1591C204.259 82.1591 205.999 82.7666 206.625 82.1591C206.78 82.0076 206.901 81.8283 206.979 81.6322Z" fill="#E0E0E0"/>
<path d="M206.155 81.6322C212.837 82.41 219.599 82.41 226.281 81.6322C226.365 81.8326 226.491 82.0154 226.652 82.1698C227.302 82.7774 229.019 82.1698 229.019 82.1698C229.019 82.1698 229.674 80.557 229.019 79.9764C228.879 79.8473 228.636 79.8312 228.549 79.6753C227.864 78.3796 229.1 75.9119 229.1 73.2238C229.1 70.5357 227.876 68.0734 228.572 66.7724C228.85 66.2348 229.529 65.9982 229.529 65.38C229.529 64.7617 228.85 64.5036 228.578 63.9822C227.888 62.6811 229.123 60.2188 229.123 57.5307C229.123 54.8426 227.899 52.3803 228.595 51.0793C228.676 50.9234 228.926 50.9072 229.065 50.7782C229.72 50.1761 229.065 48.5901 229.065 48.5901C229.065 48.5901 227.36 47.9826 226.704 48.5901C226.536 48.7406 226.525 49.0094 226.333 49.1277C224.541 50.0363 220.574 48.5363 216.27 48.531C211.967 48.5256 207.994 50.0148 206.201 49.1008C206.01 49.0041 205.998 48.7353 205.836 48.5632C205.186 47.9557 203.47 48.5632 203.47 48.5632C203.47 48.5632 202.814 50.1761 203.47 50.7567C203.609 50.8857 203.852 50.9019 203.934 51.0578C204.624 52.3534 203.388 54.8211 203.388 57.5092C203.388 60.1973 204.606 62.6542 203.916 63.9607C203.638 64.4983 202.959 64.7348 202.953 65.3531C202.948 65.9714 203.638 66.2294 203.91 66.7509C204.601 68.0519 203.365 70.5142 203.359 73.2023C203.354 75.8904 204.583 78.3527 203.893 79.6538C203.812 79.8097 203.562 79.8258 203.423 79.9549C202.768 80.557 203.423 82.143 203.423 82.143C203.423 82.143 205.134 82.7505 205.79 82.143C205.947 81.9969 206.071 81.8233 206.155 81.6322Z" fill="#EBEBEB"/>
<path d="M205.442 70.2132V60.536C205.443 59.2203 205.723 57.9177 206.268 56.7027C206.813 55.4877 207.61 54.3841 208.616 53.4553C209.621 52.5265 210.814 51.7905 212.127 51.2896C213.439 50.7888 214.845 50.5328 216.265 50.5363C219.128 50.5406 221.872 51.5986 223.894 53.4778C225.916 55.357 227.05 57.9035 227.047 60.5575V70.2347C227.045 71.5486 226.765 72.8493 226.221 74.0627C225.677 75.276 224.881 76.3782 223.877 77.3062C222.874 78.2343 221.683 78.9701 220.373 79.4716C219.063 79.9731 217.659 80.2305 216.241 80.229C214.823 80.229 213.418 79.9699 212.107 79.4665C210.797 78.9631 209.606 78.2253 208.603 77.2951C207.6 76.365 206.805 75.2608 206.262 74.0457C205.72 72.8305 205.441 71.5282 205.442 70.2132Z" fill="#FAFAFA"/>
<path d="M163.038 39.5151C166.03 39.9134 169.052 40.0932 172.074 40.0527C175.099 40.0961 178.123 39.9163 181.117 39.5151C181.188 39.6903 181.301 39.8484 181.447 39.9774C182.027 40.515 183.57 39.9774 183.57 39.9774C183.57 39.9774 184.15 38.5527 183.57 38.0097C183.448 37.8915 183.222 37.8807 183.152 37.7409C182.532 36.5743 183.64 34.3539 183.645 31.9561C183.651 29.5584 182.549 30.6551 183.17 29.4885C183.419 29.0261 184.028 28.7949 184.028 28.2358C184.028 27.6767 183.419 27.4509 183.176 26.9832C182.555 25.8165 183.663 26.5638 183.669 24.166C183.674 21.7682 182.567 19.5425 183.193 18.3759C183.263 18.2361 183.489 18.2253 183.611 18.107C184.191 17.5694 183.611 16.1394 183.611 16.1394C183.611 16.1394 182.074 15.6017 181.488 16.1394C181.337 16.2738 181.325 16.5157 181.151 16.6017C179.545 17.4135 175.984 16.0641 172.115 16.0641C168.246 16.0641 164.685 17.3974 163.079 16.5748C162.905 16.4888 162.893 16.2469 162.748 16.1125C162.168 15.5749 160.625 16.1125 160.625 16.1125C160.625 16.1125 160.045 17.5372 160.625 18.0855C160.753 18.1984 160.973 18.2146 161.043 18.3544C161.663 19.521 160.556 21.7414 160.55 24.1391C160.544 26.5369 161.652 25.795 161.025 26.9563C160.776 27.424 160.167 27.6552 160.167 28.2089C160.167 28.7627 160.776 28.9992 161.025 29.467C161.64 30.6336 160.532 29.5315 160.532 31.9293C160.532 34.327 161.629 36.5528 161.008 37.714C160.933 37.8538 160.712 37.87 160.585 37.9829C160.005 38.5205 160.585 39.9505 160.585 39.9505C160.585 39.9505 162.122 40.4882 162.713 39.9505C162.848 39.8243 162.958 39.6769 163.038 39.5151Z" fill="#E0E0E0"/>
<path d="M162.551 39.5151C165.543 39.9132 168.564 40.093 171.587 40.0527C174.612 40.0963 177.635 39.9165 180.629 39.5151C180.702 39.6913 180.815 39.8508 180.96 39.9828C181.54 40.5204 183.083 39.9828 183.083 39.9828C183.083 39.9828 183.663 38.5581 183.083 38.0151C182.961 37.8968 182.74 37.8861 182.665 37.7463C182.044 36.5797 183.152 34.3593 183.158 31.9615C183.164 29.5637 182.062 30.6605 182.682 29.4938C182.932 29.0315 183.541 28.8003 183.547 28.2412C183.552 27.6821 182.932 27.4563 182.688 26.9885C182.068 25.8219 183.175 26.5692 183.181 24.1714C183.187 21.7736 182.079 19.5479 182.706 18.3812C182.775 18.2414 183.001 18.2307 183.123 18.1124C183.703 17.5748 183.123 16.1447 183.123 16.1447C183.123 16.1447 181.586 15.6071 181 16.1447C180.85 16.2791 180.838 16.5211 180.67 16.6071C179.057 17.4189 175.496 16.0695 171.628 16.0695C167.759 16.0695 164.198 17.4028 162.591 16.5802C162.417 16.4942 162.406 16.2576 162.261 16.1178C161.681 15.5802 160.138 16.1178 160.138 16.1178C160.138 16.1178 159.558 17.5372 160.138 18.0855C160.265 18.1984 160.486 18.2146 160.561 18.3543C161.176 19.521 160.068 21.7414 160.062 24.1391C160.057 26.5369 161.164 25.795 160.538 26.9563C160.289 27.424 159.68 27.6552 159.68 28.2089C159.68 28.7627 160.289 28.9992 160.538 29.467C161.153 30.6336 160.045 29.5315 160.045 31.9293C160.045 34.327 161.141 36.5528 160.521 37.714C160.445 37.8538 160.225 37.87 160.097 37.9829C159.517 38.5205 160.097 39.9505 160.097 39.9505C160.097 39.9505 161.628 40.4882 162.22 39.9505C162.358 39.8256 162.471 39.6779 162.551 39.5151Z" fill="#EBEBEB"/>
<path d="M181.022 38.2654L181.064 17.895L161.675 17.8605L161.632 38.2309L181.022 38.2654Z" fill="#FAFAFA"/>
<path d="M251.575 126.502H229.918V126.782H251.575V126.502Z" fill="#E0E0E0"/>
<path d="M237.586 124.475H235.028V125.868H237.586V124.475Z" fill="#E0E0E0"/>
<path d="M237.585 124.475V125.868L245.856 125.169V124.475H237.585Z" fill="#E0E0E0"/>
<path d="M246.686 125.868L246.274 126.647L245.856 125.868V123.647H246.686V125.868Z" fill="#E0E0E0"/>
<path d="M236.698 125.868H235.028V127.416H236.698V125.868Z" fill="#E0E0E0"/>
<path d="M242.144 126.502H239.801V127.416H242.144V126.502Z" fill="#E0E0E0"/>
<path d="M252.938 127.416H228.671V134.631H252.938V127.416Z" fill="#EBEBEB"/>
<path d="M224.263 118.438C224.41 118.741 224.649 118.997 224.951 119.177C225.252 119.356 225.604 119.451 225.962 119.448C228.001 117.281 230.681 115.714 233.671 114.943C236.66 114.172 239.828 114.23 242.782 115.11C247.294 116.448 251.192 117.798 252.961 119.583C253.93 120.556 253.796 123.432 252.961 125.308C252.503 126.319 252.068 127.136 251.946 127.416H252.978V127.491C253.338 127.077 258.198 121.4 256.371 118.696C254.324 115.669 247.196 111.669 241.784 108.938C239.741 107.913 237.966 106.485 236.584 104.754C235.202 103.023 234.247 101.033 233.786 98.9221L233.206 96.1479L233.073 96.406C232.973 96.2841 232.841 96.1879 232.69 96.1264C231.634 95.6963 230.283 96.9651 229.877 97.7393C229.592 98.3044 229.488 98.9332 229.577 99.5514C229.665 100.17 229.942 100.752 230.376 101.228C229.508 101.362 228.694 101.706 228.015 102.225C227.337 102.744 226.818 103.42 226.512 104.184C226.206 104.949 226.123 105.774 226.272 106.578C226.421 107.382 226.796 108.134 227.36 108.761C226.623 109.006 225.974 109.436 225.484 110.002C224.995 110.568 224.683 111.249 224.585 111.969C224.487 112.689 224.605 113.42 224.927 114.081C225.248 114.743 225.761 115.309 226.409 115.717C225.743 115.884 225.14 116.219 224.669 116.685C224.442 116.919 224.286 117.204 224.215 117.511C224.143 117.819 224.16 118.138 224.263 118.438Z" fill="#EBEBEB"/>
<path d="M214.385 181.963H246.001V174.667H214.385V181.963Z" fill="#EBEBEB"/>
<path opacity="0.1" d="M214.49 181.995H246.105V174.7H214.49V181.995Z" fill="white"/>
<path opacity="0.6" d="M214.386 181.995H238.653V174.7H214.386V181.995Z" fill="white"/>
<path d="M214.536 181.038L246.001 181.941L245.966 181.205L214.519 180.823L214.536 181.038Z" fill="#E0E0E0"/>
<path d="M246.001 177.662L214.589 176.022V176.27L246.001 178.221V177.662Z" fill="#E0E0E0"/>
<path d="M246.001 175.463L214.589 176.13V176.366L246.001 176.017V175.463Z" fill="#E0E0E0"/>
<path d="M246.094 179.097L214.67 180.517V180.302L246.094 178.608V179.097Z" fill="#E0E0E0"/>
<path d="M214.461 174.764L245.88 174.791V175.028H214.461V174.764Z" fill="#E0E0E0"/>
<path d="M216.653 160.243H248.269V152.948H216.653V160.243Z" fill="#E0E0E0"/>
<path opacity="0.5" d="M216.845 160.533H248.46V153.238H216.845V160.533Z" fill="white"/>
<path opacity="0.6" d="M216.653 160.275H240.92V152.98H216.653V160.275Z" fill="white"/>
<path d="M216.804 159.313L248.269 160.222L248.234 159.48L216.786 159.103L216.804 159.313Z" fill="#E0E0E0"/>
<path d="M248.269 155.942L216.856 154.302V154.55L248.269 156.496V155.942Z" fill="#E0E0E0"/>
<path d="M248.269 153.738L216.856 154.404V154.646L248.269 154.297V153.738Z" fill="#E0E0E0"/>
<path d="M248.362 157.378L216.938 158.797V158.582L248.362 156.888V157.378Z" fill="#E0E0E0"/>
<path d="M216.259 174.571H247.875V167.275H216.259V174.571Z" fill="#E0E0E0"/>
<path opacity="0.5" d="M216.363 174.603H247.979V167.307H216.363V174.603Z" fill="white"/>
<path opacity="0.6" d="M240.596 167.307H216.329V174.603H240.596V167.307Z" fill="white"/>
<path d="M247.741 173.431L216.294 173.807L216.259 174.549L247.724 173.646L247.741 173.431Z" fill="#E0E0E0"/>
<path d="M216.462 167.372L247.88 167.399V167.635H216.462V167.372Z" fill="#E0E0E0"/>
<path d="M216.259 170.823L247.677 168.877V168.63L216.259 170.27V170.823Z" fill="#E0E0E0"/>
<path d="M247.88 168.065L216.462 168.732V168.974L247.88 168.625V168.065Z" fill="#E0E0E0"/>
<path d="M247.968 171.705L216.543 173.124V172.909L247.968 171.216V171.705Z" fill="#E0E0E0"/>
<path d="M246.784 160.404L215.18 160.549L215.134 167.694H246.784V160.404Z" fill="#E0E0E0"/>
<path opacity="0.5" d="M215.169 167.694H246.784V160.399H215.169V167.694Z" fill="white"/>
<path opacity="0.6" d="M239.401 160.404H215.134V167.7H239.401V160.404Z" fill="white"/>
<path d="M240.352 160.549H215.18V161.291H239.813L240.352 160.549Z" fill="#E0E0E0"/>
<path d="M246.599 163.539L215.18 163.808V164.023H246.599V163.539Z" fill="#E0E0E0"/>
<path d="M215.18 166.91L246.599 165.49V165.705L215.18 167.399V166.91Z" fill="#E0E0E0"/>
<path d="M215.18 164.168L246.599 164.748V164.958L215.18 164.657V164.168Z" fill="#E0E0E0"/>
<path d="M254.858 144.539H223.439V148.211H254.858V144.539Z" fill="#E0E0E0"/>
<path opacity="0.5" d="M254.858 144.539H223.439V148.211H254.858V144.539Z" fill="white"/>
<path opacity="0.6" d="M248.478 144.539H223.439V148.211H248.478V144.539Z" fill="white"/>
<path d="M254.875 147.141L223.457 147.286V147.394H254.875V147.141Z" fill="#E0E0E0"/>
<path d="M223.457 145.77L254.875 145.028V145.141L223.457 146.023V145.77Z" fill="#E0E0E0"/>
<path d="M223.352 145.566L254.771 145.867V145.98L223.352 145.819V145.566Z" fill="#E0E0E0"/>
<path d="M250.462 142.921H219.043V144.69H250.462V142.921Z" fill="#E0E0E0"/>
<path opacity="0.5" d="M250.462 142.937H219.043V144.69H250.462V142.937Z" fill="white"/>
<path opacity="0.6" d="M244.082 142.824H219.043V144.69H244.082V142.824Z" fill="white"/>
<path d="M219.06 144.27L250.473 143.528V143.641L219.06 144.518V144.27Z" fill="#E0E0E0"/>
<path d="M219.06 143.378L250.473 143.679V143.792L219.06 143.631V143.378Z" fill="#E0E0E0"/>
<path d="M253.385 141.115H221.966V142.883H253.385V141.115Z" fill="#E0E0E0"/>
<path opacity="0.5" d="M253.385 141.131H221.966V142.883H253.385V141.131Z" fill="white"/>
<path opacity="0.6" d="M247.005 141.018H221.966V142.883H247.005V141.018Z" fill="white"/>
<path d="M221.989 141.91L253.413 142.27L253.407 142.378L221.977 142.163L221.989 141.91Z" fill="#E0E0E0"/>
<path d="M221.983 141.572L253.402 141.873V141.986L221.983 141.824V141.572Z" fill="#E0E0E0"/>
<path d="M252.729 148.211H221.311V152.942H252.729V148.211Z" fill="#E0E0E0"/>
<path opacity="0.5" d="M252.729 148.211H221.311V152.942H252.729V148.211Z" fill="white"/>
<path opacity="0.6" d="M245.555 148.211H221.311V152.942H245.555V148.211Z" fill="white"/>
<path d="M252.532 149.679L221.113 149.512V149.388H252.532V149.679Z" fill="#E0E0E0"/>
<path d="M221.328 150.367L252.746 151.222V151.093L221.328 150.077V150.367Z" fill="#E0E0E0"/>
<path d="M252.746 148.216H223.114L223.77 148.797H252.746V148.216Z" fill="#E0E0E0"/>
<path d="M221.438 152.211L252.857 151.856V151.733L221.438 151.915V152.211Z" fill="#E0E0E0"/>
<path d="M256.499 141.265H224.17V134.556H256.499C256.882 136.778 256.882 139.043 256.499 141.265Z" fill="#E0E0E0"/>
<path d="M227.07 134.76H225.382V140.986H227.07V134.76Z" fill="white"/>
<path d="M47.6293 94.3738H108.866L108.866 16.4673H47.6293L47.6293 94.3738Z" fill="#E0E0E0"/>
<path d="M45.1182 94.3738L109.278 94.3738L109.278 16.4673L45.1182 16.4673L45.1182 94.3738Z" fill="#F0F0F0"/>
<path d="M48.5634 90.6643H105.954L105.954 19.0318H48.5634L48.5634 90.6643Z" fill="white"/>
<path d="M48.5637 90.6643H50.7271L50.7271 19.0318H48.5637L48.5637 90.6643Z" fill="#E0E0E0"/>
<path d="M50.4949 63.9391V65.9445H106.146V63.9391H50.4949Z" fill="#E0E0E0"/>
<path d="M48.5633 63.9392L107.114 63.9392V60.5737L48.5633 60.5737V63.9392Z" fill="#F0F0F0"/>
<path d="M78.352 73.9604C78.5337 73.6283 78.8257 73.3592 79.1849 73.1927C79.5442 73.0263 79.9516 72.9712 80.3472 73.0357C80.7442 73.1283 81.1001 73.3335 81.3652 73.6227C81.6303 73.9118 81.7915 74.2704 81.8262 74.6485C82.0992 74.4642 82.426 74.361 82.7635 74.3523C83.1011 74.3437 83.4335 74.4301 83.717 74.6001C84.0021 74.7896 84.2247 75.0489 84.3599 75.3489C84.4951 75.6489 84.5376 75.9779 84.4826 76.299C84.6388 76.192 84.8175 76.1167 85.0072 76.0778C85.1968 76.039 85.3932 76.0375 85.5835 76.0735C85.7738 76.1095 85.9538 76.1821 86.1118 76.2867C86.2699 76.3913 86.4025 76.5256 86.501 76.6807C86.6872 77.0129 86.7272 77.3991 86.6125 77.758C86.4979 78.117 86.2375 78.4207 85.8862 78.6054C86.1321 78.6353 86.3574 78.7486 86.5185 78.9234C86.6796 79.0982 86.7652 79.3221 86.7587 79.5519C86.7522 79.7817 86.6541 80.0012 86.4834 80.1679C86.3126 80.3346 86.0813 80.4369 85.834 80.4548C86.0844 80.4728 86.3204 80.5704 86.5022 80.731C86.6839 80.8917 86.8003 81.1055 86.8316 81.3365C86.8552 81.5683 86.7935 81.8006 86.6566 81.9958C86.5197 82.191 86.3157 82.3376 86.0776 82.4117C86.1961 82.4752 86.2977 82.5624 86.3751 82.6669C86.4525 82.7715 86.5036 82.8908 86.5248 83.0161C86.5459 83.1414 86.5365 83.2695 86.4973 83.391C86.458 83.5125 86.3899 83.6243 86.298 83.7182C86.1925 83.7941 86.0686 83.8451 85.9371 83.8668C85.8056 83.8885 85.6703 83.8802 85.543 83.8426C85.4157 83.8051 85.3002 83.7394 85.2064 83.6512C85.1126 83.563 85.0433 83.455 85.0046 83.3365C84.9856 83.3709 84.9581 83.4007 84.9244 83.4235C84.8907 83.4463 84.8516 83.4614 84.8105 83.4677C84.7693 83.474 84.7271 83.4712 84.6873 83.4596C84.6475 83.448 84.6111 83.4279 84.5812 83.401C84.5545 83.3698 84.5352 83.3337 84.5247 83.295C84.5142 83.2564 84.5128 83.2161 84.5205 83.1769C84.5282 83.1377 84.5448 83.1005 84.5693 83.0677C84.5938 83.035 84.6255 83.0075 84.6624 82.987C84.6022 83.0507 84.5242 83.0976 84.4369 83.1225C84.3497 83.1475 84.2566 83.1495 84.1682 83.1283C84.0798 83.1071 83.9995 83.0636 83.9362 83.0026C83.8729 82.9415 83.8292 82.8654 83.8098 82.7827C83.978 83.616 82.905 84.3956 82.1452 84.0031C82.185 84.0948 82.2036 84.1933 82.1996 84.2922C82.1957 84.391 82.1693 84.4879 82.1223 84.5767C82.0752 84.6654 82.0085 84.744 81.9265 84.8073C81.8445 84.8706 81.7491 84.9171 81.6464 84.9439C81.2306 85.0077 80.804 84.9293 80.4458 84.7235C80.0948 84.5194 79.698 84.3925 79.2858 84.3526C78.9216 84.3965 78.5661 84.4889 78.2302 84.6267C77.6665 84.7855 77.0663 84.7957 76.4967 84.6561C75.9272 84.5165 75.4108 84.2327 75.0054 83.8364C74.855 84.0052 74.6601 84.135 74.4396 84.2133C74.2191 84.2916 73.9805 84.3157 73.747 84.2832C73.5135 84.2507 73.293 84.1628 73.107 84.028C72.921 83.8932 72.7758 83.7161 72.6854 83.5139C72.641 83.7129 72.5294 83.8937 72.3667 84.03C72.204 84.1663 71.9987 84.251 71.7806 84.2719C71.5622 84.2748 71.3485 84.2126 71.171 84.0945C70.9936 83.9765 70.8616 83.8088 70.7946 83.616C70.7946 83.7988 70.7946 83.9816 70.7946 84.1536C70.5902 84.1695 70.3847 84.1374 70.1972 84.0604C70.0096 83.9834 69.8459 83.8639 69.7212 83.713C69.5964 83.562 69.5146 83.3844 69.4833 83.1965C69.4519 83.0086 69.4721 82.8164 69.5418 82.6376C69.2518 82.6231 68.9766 82.5144 68.7645 82.3305C68.5523 82.1467 68.4168 81.8994 68.3818 81.6322C68.3486 81.3589 68.4182 81.0834 68.5788 80.8523C68.7394 80.6211 68.9813 80.4484 69.2634 80.3634C68.7826 80.2177 68.3633 79.936 68.0643 79.5578C67.7652 79.1796 67.6017 78.7241 67.5966 78.2552C67.5914 77.7864 67.745 77.3279 68.0357 76.9442C68.3264 76.5605 68.7395 76.2709 69.217 76.1162C69.3986 76.0521 69.5947 76.0313 69.7873 76.0557C69.9798 76.0801 70.1627 76.149 70.319 76.256C70.3923 76.317 70.4508 76.3916 70.4909 76.475C70.531 76.5583 70.5517 76.6486 70.5517 76.7399C70.5517 76.8311 70.531 76.9214 70.4909 77.0047C70.4508 77.0881 70.3923 77.1627 70.319 77.2237C70.1844 76.7955 70.2038 76.3383 70.3744 75.9212C70.545 75.5041 70.8574 75.1499 71.2644 74.9119C71.6751 74.7076 72.1507 74.6452 72.6065 74.7358C73.0622 74.8264 73.4684 75.0641 73.7526 75.4066C73.6181 75.2165 73.5465 74.9941 73.5465 74.7668C73.5465 74.5395 73.6181 74.3171 73.7526 74.127C73.8864 73.9466 74.0797 73.8113 74.3035 73.7415C74.5274 73.6717 74.7696 73.6712 74.9938 73.7399C75.0505 73.4541 75.2207 73.1983 75.4709 73.0231C75.7211 72.8479 76.0331 72.7661 76.3452 72.7937C76.6537 72.8567 76.9266 73.0222 77.1125 73.2589C77.2984 73.4956 77.3845 73.7872 77.3544 74.0786C77.3779 73.9623 77.4389 73.8553 77.5293 73.7717C77.6197 73.6881 77.7352 73.6319 77.8608 73.6103C77.9863 73.5888 78.116 73.603 78.2327 73.6511C78.3493 73.6992 78.4476 73.7789 78.5144 73.8797C78.7928 73.7991 78.352 73.9604 78.352 73.9604Z" fill="#EBEBEB"/>
<path d="M78.126 79.4924C78.3734 79.3255 78.6819 79.2559 78.9844 79.2989C79.1326 79.3237 79.2701 79.3876 79.3802 79.4829C79.4902 79.5783 79.5683 79.701 79.605 79.8365C79.6419 79.9741 79.6188 80.1196 79.5406 80.2414C79.4624 80.3633 79.3354 80.4515 79.1874 80.487C78.8336 80.5677 78.4798 80.2935 78.1144 80.3419C77.9868 80.3419 77.865 80.4171 77.7374 80.444C77.4694 80.4686 77.1989 80.4379 76.9453 80.3543C76.6916 80.2706 76.461 80.1361 76.27 79.9602C76.1112 79.8631 75.9719 79.7412 75.8582 79.6C75.8039 79.5275 75.7716 79.443 75.7644 79.3551C75.7573 79.2672 75.7756 79.1791 75.8176 79.1C75.9014 79.0057 76.0125 78.9354 76.1377 78.8973C76.263 78.8593 76.3974 78.855 76.5252 78.8849C77.0533 78.9345 77.5558 79.1208 77.9752 79.4225C77.9752 79.3473 77.9752 79.272 77.9346 79.1914L78.126 79.4924Z" fill="#FAFAFA"/>
<path d="M70.5512 79.0731C70.6883 78.9746 70.8435 78.8999 71.0094 78.8526C71.0922 78.8294 71.1805 78.8287 71.2638 78.8507C71.3471 78.8726 71.4218 78.9162 71.4792 78.9763C71.5404 79.073 71.5601 79.1876 71.5343 79.2972C71.5085 79.4068 71.4391 79.5034 71.34 79.5677C71.1392 79.6865 70.9103 79.7585 70.673 79.7774C70.4352 79.8096 70.1278 79.815 70.0118 79.6214C69.9765 79.5459 69.9683 79.4619 69.9881 79.3816C70.0079 79.3014 70.0548 79.2291 70.122 79.1752C70.2615 79.0719 70.4239 78.9985 70.5976 78.9602L70.5512 79.0731Z" fill="#FAFAFA"/>
<path d="M82.5164 75.4227C82.7582 75.518 82.9721 75.6652 83.1405 75.8521C83.3089 76.0391 83.427 76.2604 83.485 76.4979C83.5198 76.6377 83.514 76.8205 83.3806 76.8958C83.3292 76.9159 83.274 76.9263 83.2182 76.9263C83.1624 76.9263 83.1072 76.9159 83.0558 76.8958L81.6696 76.5947C81.8955 76.6598 82.106 76.7637 82.2902 76.9012C82.3835 76.9696 82.455 77.0603 82.4968 77.1636C82.5387 77.2668 82.5495 77.3787 82.528 77.4872C82.4827 77.6102 82.3954 77.7162 82.2792 77.7889C82.163 77.8617 82.0243 77.8973 81.8842 77.8904C81.6059 77.8682 81.3411 77.769 81.1244 77.6054C80.9948 77.5383 80.8838 77.444 80.8002 77.3302C80.7167 77.2163 80.6629 77.086 80.643 76.9495C80.643 76.67 81.0084 76.4119 81.223 76.5947C80.6937 76.4586 80.1907 76.2464 79.7324 75.9657C79.5627 75.8693 79.4165 75.7411 79.3032 75.5894C79.2451 75.5115 79.2102 75.4208 79.202 75.3263C79.1939 75.2319 79.2128 75.1372 79.2568 75.0518C79.7324 74.2507 80.3298 75.4227 80.6256 75.5302C81.1998 75.7453 81.8146 75.1539 82.5164 75.4227Z" fill="#FAFAFA"/>
<path d="M84.6799 78.8312C84.708 78.9086 84.7115 78.9918 84.6899 79.0709C84.6683 79.1501 84.6226 79.2218 84.5581 79.2774C84.5246 79.3026 84.4855 79.3206 84.4435 79.33C84.4016 79.3394 84.3579 79.34 84.3156 79.3318C84.2734 79.3235 84.2337 79.3066 84.1994 79.2824C84.1651 79.2581 84.137 79.227 84.1173 79.1914C84.436 79.2528 84.7261 79.4051 84.9467 79.6269C84.9973 79.684 85.0336 79.7508 85.053 79.8225C85.0724 79.8942 85.0744 79.969 85.0589 80.0415C85.0433 80.114 85.0107 80.1824 84.9632 80.2418C84.9157 80.3011 84.8546 80.35 84.7843 80.3849C84.684 80.4017 84.5811 80.3999 84.4816 80.3796C84.382 80.3593 84.2878 80.3209 84.2043 80.2666C83.7023 80.0105 83.2233 79.7174 82.7717 79.3903C82.9109 79.686 82.5803 80.0193 82.2323 80.0462C81.8842 80.0379 81.5476 79.9288 81.2695 79.7344C80.9099 79.5301 80.4923 79.1968 80.5851 78.8312C80.6528 78.6722 80.7841 78.5437 80.9517 78.4725C81.1193 78.4014 81.3101 78.3931 81.4841 78.4495C81.83 78.5775 82.131 78.7914 82.3541 79.0678C82.1569 78.8043 82.4353 78.4119 82.7775 78.3688C82.9432 78.3614 83.1083 78.3912 83.2589 78.4558C83.4094 78.5204 83.5407 78.6179 83.6417 78.7398C83.2589 78.5463 83.1719 78.0355 83.6881 77.9764C84.0245 77.9549 84.5929 78.5731 84.6799 78.8312Z" fill="#FAFAFA"/>
<path d="M74.0949 77.6807C74.1722 77.6365 74.2596 77.6097 74.35 77.6025C74.4405 77.5954 74.5315 77.608 74.6157 77.6393C74.7 77.6707 74.7751 77.72 74.835 77.7832C74.895 77.8464 74.9381 77.9217 74.9609 78.0032C74.9837 78.0846 74.9856 78.1699 74.9663 78.2522C74.9471 78.3344 74.9073 78.4113 74.8501 78.4767C74.7929 78.5421 74.72 78.5941 74.6372 78.6286C74.5544 78.6631 74.464 78.6791 74.3733 78.6753C74.599 78.6975 74.8068 78.7996 74.9533 78.9602C74.9975 79.0026 75.0313 79.0534 75.0523 79.1091C75.0734 79.1648 75.0811 79.2241 75.0751 79.2828C75.0526 79.3675 74.9995 79.4425 74.9245 79.4954C74.8496 79.5482 74.7574 79.5756 74.6633 79.5731C74.4736 79.5699 74.2879 79.5218 74.1239 79.4333C74.3112 79.4337 74.4945 79.4841 74.6517 79.5785C74.6898 79.6026 74.7222 79.6336 74.7471 79.6697C74.7719 79.7057 74.7886 79.746 74.7962 79.7882C74.8038 79.8304 74.8021 79.8736 74.7912 79.9152C74.7803 79.9567 74.7605 79.9958 74.7329 80.0301C74.6699 80.0721 74.5964 80.0986 74.5193 80.1071C74.4422 80.1155 74.364 80.1057 74.2921 80.0785C73.9514 79.9895 73.6389 79.8253 73.3815 79.6C73.2914 79.7042 73.1749 79.7863 73.0423 79.8388C72.9098 79.8913 72.7653 79.9127 72.6217 79.901C72.5512 79.8922 72.4834 79.8699 72.4226 79.8355C72.3619 79.8012 72.3094 79.7556 72.2685 79.7016C72.2277 79.6475 72.1993 79.5863 72.1853 79.5216C72.1712 79.4569 72.1717 79.3903 72.1867 79.3258C72.2248 79.2372 72.2891 79.1605 72.3722 79.1043C72.4553 79.0482 72.5539 79.015 72.6565 79.0086C72.8543 78.9977 73.0523 79.027 73.2365 79.0946C73.0214 78.982 72.8508 78.8088 72.7493 78.6C72.6797 78.385 72.8363 78.0946 73.0799 78.1108C73.3235 78.1269 73.4917 78.4764 73.7121 78.6C74.0079 78.3688 73.5091 77.885 74.0949 77.6807Z" fill="#FAFAFA"/>
<path d="M79.0307 76.627C79.1775 76.7375 79.2914 76.8809 79.3614 77.0437C79.4315 77.2066 79.4554 77.3833 79.4309 77.5571C79.4348 77.7493 79.3831 77.9389 79.2811 78.1063C79.1791 78.2736 79.0305 78.4126 78.8509 78.5087C78.7221 78.5466 78.5861 78.5586 78.4518 78.544C78.3176 78.5293 78.1883 78.4883 78.0725 78.4237C77.9567 78.3591 77.8571 78.2724 77.7803 78.1693C77.7035 78.0662 77.6513 77.9491 77.6271 77.8259C77.6013 77.573 77.659 77.3188 77.7926 77.0969C77.9262 76.8751 78.1295 76.6962 78.3753 76.584C78.4804 76.5424 78.5947 76.5246 78.7086 76.5321C78.8226 76.5395 78.933 76.5721 79.0307 76.627Z" fill="#FAFAFA"/>
<path d="M75.5336 76.213L75.4002 76.3421C75.4806 76.2492 75.5902 76.1818 75.7138 76.1491C75.8373 76.1164 75.9688 76.1201 76.09 76.1596C76.2112 76.1992 76.3162 76.2726 76.3905 76.3698C76.4648 76.467 76.5046 76.5832 76.5046 76.7023C76.5046 76.8214 76.4648 76.9376 76.3905 77.0348C76.3162 77.132 76.2112 77.2054 76.09 77.2449C75.9688 77.2844 75.8373 77.2881 75.7138 77.2554C75.5902 77.2228 75.4806 77.1553 75.4002 77.0625C75.2206 77.1433 75.0178 77.1686 74.8216 77.1347C74.6253 77.1008 74.446 77.0096 74.3098 76.8743C74.2475 76.8029 74.2018 76.7204 74.1756 76.6319C74.1494 76.5434 74.1431 76.4508 74.1573 76.3599C74.1714 76.2691 74.2057 76.1819 74.2579 76.1039C74.3101 76.0259 74.3791 75.9587 74.4606 75.9066C74.5473 75.8671 74.6434 75.8483 74.7399 75.852C74.8365 75.8557 74.9306 75.8817 75.0136 75.9276C75.0966 75.9736 75.1658 76.038 75.2151 76.1151C75.2644 76.1921 75.2921 76.2794 75.2958 76.3689L75.4466 76.213H75.5336Z" fill="#FAFAFA"/>
<path d="M71.6703 76.7883C71.9336 76.997 72.1335 77.2657 72.2503 77.5679C72.3037 77.7214 72.2921 77.8879 72.2177 78.0337C72.1434 78.1795 72.012 78.2936 71.8501 78.3528C71.5195 78.4335 71.2005 78.1754 71.0091 77.912C70.9117 77.7984 70.8429 77.6661 70.8078 77.5247C70.7727 77.3833 70.7721 77.2364 70.8061 77.0948C70.9047 76.8206 71.3281 76.6593 71.5427 76.869L71.6703 76.7883Z" fill="#FAFAFA"/>
<path d="M77.2385 74.9119C77.314 74.788 77.4395 74.697 77.5873 74.6587C77.7352 74.6204 77.8934 74.638 78.0273 74.7076C78.1529 74.791 78.245 74.9107 78.2891 75.048C78.3332 75.1852 78.3268 75.3322 78.2709 75.4657C78.2067 75.5968 78.1064 75.71 77.9802 75.794C77.854 75.8779 77.7062 75.9297 77.5517 75.9442C77.1747 75.9818 76.7223 75.6969 76.8093 75.3528C76.721 75.4479 76.6084 75.5209 76.4816 75.5651C76.3549 75.6093 76.2183 75.6231 76.0843 75.6055C75.8152 75.5695 75.5579 75.4796 75.3303 75.342C75.0113 75.17 74.6691 74.9119 74.7039 74.5678C74.7275 74.4369 74.7972 74.3169 74.9021 74.2264C75.007 74.136 75.1412 74.0803 75.2839 74.0679C75.4302 74.0619 75.5764 74.0831 75.7139 74.1302C75.8513 74.1773 75.9772 74.2493 76.0843 74.342C76.2445 74.4952 76.415 74.6388 76.5947 74.7721C76.6841 74.8402 76.7919 74.8842 76.9065 74.8994C77.021 74.9146 77.1379 74.9003 77.2443 74.8582L77.2385 74.9119Z" fill="#FAFAFA"/>
<path d="M72.4826 90.6643H82.0526L82.9922 81.7236H71.5488L72.4826 90.6643Z" fill="#EBEBEB"/>
<path d="M70.8064 82.1859H83.8274L84.0652 80.9978H70.5686L70.8064 82.1859Z" fill="#F5F5F5"/>
<path d="M229.059 37.4237C229.534 34.3348 229.742 31.2156 229.68 28.096C229.755 24.9756 229.561 21.8546 229.1 18.7629C229.316 18.6867 229.513 18.5716 229.68 18.4242C230.33 17.8167 229.68 16.2307 229.68 16.2307C229.68 16.2307 227.969 15.6232 227.314 16.2307C227.174 16.3597 227.163 16.5855 226.995 16.6608C225.591 17.3005 222.935 16.1554 220.035 16.15C217.135 16.1447 214.484 17.2844 213.075 16.6446C212.495 16.3866 212.233 15.7522 211.566 15.7522C210.899 15.7522 210.621 16.3866 210.059 16.6393C208.661 17.279 205.999 16.1339 203.099 16.1016C200.199 16.0694 197.542 17.236 196.139 16.5963C195.97 16.5156 195.959 16.2898 195.82 16.1608C195.164 15.5533 193.453 16.1608 193.453 16.1608C193.453 16.1608 192.798 17.7736 193.453 18.3543C193.621 18.5048 193.906 18.5209 194.033 18.6984C195.013 20.3542 193.395 24.0369 193.389 28.0261C193.384 32.0152 194.99 35.6979 194.004 37.3538C193.9 37.5312 193.616 37.5419 193.424 37.6978C192.769 38.3 193.424 39.886 193.424 39.886C193.424 39.886 195.135 40.4935 195.785 39.886C195.924 39.7569 195.941 39.5258 196.11 39.4505C197.513 38.8107 200.17 39.9558 203.07 39.9612C205.97 39.9666 208.62 38.8268 210.03 39.472C210.61 39.73 210.871 40.3591 211.538 40.3591C212.205 40.3591 212.483 39.73 213.046 39.472C214.443 38.8376 217.106 39.9827 220.006 39.9827C222.906 39.9827 225.556 38.8484 226.966 39.4935C227.128 39.5688 227.145 39.7999 227.285 39.929C227.94 40.5311 229.651 39.929 229.651 39.929C229.651 39.929 230.306 38.343 229.651 37.7409C229.481 37.5966 229.279 37.4884 229.059 37.4237Z" fill="#E0E0E0"/>
<path d="M229.059 38.171C229.533 35.0874 229.741 31.9736 229.68 28.8594C229.755 25.7408 229.561 22.6216 229.1 19.5317C229.317 19.4557 229.515 19.3385 229.68 19.1876C230.33 18.5855 229.68 16.9995 229.68 16.9995C229.68 16.9995 227.969 16.392 227.314 16.9995C227.174 17.1285 227.163 17.3597 226.995 17.435C225.591 18.0747 222.935 16.9296 220.035 16.8973C217.135 16.8651 214.484 18.0317 213.075 17.3866C212.495 17.1339 212.233 16.4995 211.566 16.4995C210.899 16.4995 210.621 17.1285 210.059 17.3866C208.661 18.021 205.999 16.8812 203.099 16.8758C200.199 16.8705 197.542 18.0102 196.139 17.3651C195.97 17.2898 195.959 17.0586 195.82 16.9296C195.164 16.3275 193.453 16.9296 193.453 16.9296C193.453 16.9296 192.798 18.5425 193.453 19.1177C193.621 19.2736 193.906 19.2844 194.033 19.4618C195.013 21.123 193.395 24.8004 193.389 28.7895C193.384 32.7786 194.99 36.4613 194.004 38.1226C193.9 38.3 193.616 38.3108 193.424 38.4613C192.769 39.0688 193.424 40.6548 193.424 40.6548C193.424 40.6548 195.135 41.2623 195.785 40.6548C195.924 40.5257 195.941 40.3 196.11 40.2247C197.513 39.5849 200.17 40.73 203.07 40.7354C205.97 40.7408 208.62 39.601 210.03 40.2408C210.61 40.4989 210.871 41.1333 211.538 41.1333C212.205 41.1333 212.483 40.5042 213.046 40.2462C214.443 39.6064 217.106 40.7515 220.006 40.7569C222.906 40.7623 225.556 39.6225 226.966 40.2623C227.128 40.343 227.145 40.5688 227.285 40.6978C227.94 41.3053 229.651 40.6978 229.651 40.6978C229.651 40.6978 230.306 39.0849 229.651 38.5043C229.481 38.3559 229.28 38.2423 229.059 38.171Z" fill="#EBEBEB"/>
<path d="M227.551 38.8645L195.524 38.8215V18.8113L227.551 18.8543V38.8645Z" fill="#FAFAFA"/>
<path d="M53.2614 116.223C53.2602 116.501 53.1701 116.773 53.0024 117.004C52.8348 117.235 52.597 117.414 52.3193 117.52C52.0415 117.626 51.7362 117.653 51.4418 117.598C51.1474 117.543 50.8771 117.409 50.6652 117.212C50.4533 117.014 50.3091 116.763 50.2509 116.49C50.1928 116.217 50.2232 115.934 50.3384 115.677C50.4536 115.42 50.6483 115.2 50.8981 115.046C51.1479 114.891 51.4415 114.809 51.7418 114.809C51.9418 114.809 52.1399 114.845 52.3246 114.917C52.5094 114.988 52.6771 115.092 52.8183 115.223C52.9595 115.355 53.0713 115.511 53.1474 115.682C53.2234 115.854 53.2621 116.037 53.2614 116.223Z" fill="#EBEBEB"/>
<path d="M40.8726 126.104C36.0586 125.604 34.771 123.54 34.4288 122.341C34.0112 120.879 34.6086 119.54 35.38 119.018C38.6396 116.819 43.1984 120.776 43.3898 120.943L42.5488 121.76C42.514 121.728 38.5352 118.282 36.0992 119.927C35.8207 120.214 35.6285 120.563 35.542 120.941C35.4554 121.318 35.4776 121.71 35.6062 122.077C35.8672 122.986 36.917 124.577 41.0118 124.997L40.8726 126.104Z" fill="#E0E0E0"/>
<path d="M65.1806 119.825C65.3915 121.584 64.9694 123.359 63.98 124.873C62.5764 126.884 60.8364 126.991 60.5 126.991H60.4536C62.3792 126.163 63.5508 125.056 63.5508 123.852C63.535 123.394 63.4144 122.945 63.197 122.534C63.6378 121.668 63.8542 120.718 63.8292 119.76V119.642C63.9014 119.212 64.1416 118.821 64.5042 118.545C64.8667 118.268 65.3262 118.125 65.7954 118.142L65.9984 119.325C65.3372 119.309 65.2038 119.696 65.1806 119.825Z" fill="#E0E0E0"/>
<path d="M51.469 116.223C49.2624 116.248 47.0952 116.768 45.1528 117.739H57.791C55.8463 116.768 53.6774 116.248 51.469 116.223Z" fill="#E0E0E0"/>
<path d="M63.22 122.518C62.4428 120.932 60.4592 119.024 57.7912 117.723H45.153C41.673 119.411 39.353 122.131 39.353 123.835C39.353 126.427 44.7702 128.54 51.4576 128.54C55.0304 128.54 58.2494 127.937 60.465 126.975C62.3906 126.147 63.5622 125.04 63.5622 123.835C63.55 123.379 63.4334 122.93 63.22 122.518Z" fill="#EBEBEB"/>
<path d="M83.7055 127.647H71.9837C71.4836 127.626 71.0023 127.465 70.6033 127.185H85.1033C84.7002 127.469 84.2118 127.631 83.7055 127.647Z" fill="#E0E0E0"/>
<path d="M145 200C207.108 200 257.456 197.275 257.456 193.914C257.456 190.553 207.108 187.828 145 187.828C82.8923 187.828 32.5439 190.553 32.5439 193.914C32.5439 197.275 82.8923 200 145 200Z" fill="#F5F5F5"/>
<path d="M122.96 67.1649C124.497 67.1649 125.744 66.3851 125.744 65.423C125.744 64.461 124.497 63.6812 122.96 63.6812C121.422 63.6812 120.176 64.461 120.176 65.423C120.176 66.3851 121.422 67.1649 122.96 67.1649Z" fill="#BA68C8"/>
<path d="M123.888 164.076H122.009V36.7357C122.008 36.6211 122.032 36.5076 122.079 36.4016C122.126 36.2956 122.195 36.1993 122.282 36.1183C122.37 36.0372 122.474 35.9731 122.588 35.9296C122.702 35.8861 122.825 35.864 122.948 35.8648C123.198 35.8648 123.437 35.9565 123.613 36.1199C123.789 36.2832 123.888 36.5047 123.888 36.7357V164.076Z" fill="#BA68C8"/>
<path d="M123.83 86.5838H122.079L120.6 66.2563H125.309L123.83 86.5838Z" fill="#BA68C8"/>
<path d="M124.828 61.1597H121.087V64.6273H124.828V61.1597Z" fill="#BA68C8"/>
<path d="M129.862 176.038H116.041L116.093 175.926H129.804L129.862 176.038Z" fill="#BA68C8"/>
<path d="M132.507 171.877V175.925H113.518V171.877C114.877 171.877 116.208 171.514 117.351 170.831C118.493 170.149 119.4 169.175 119.961 168.028L122.316 163.227H123.575L125.93 168.028C126.492 169.175 127.398 170.148 128.541 170.831C129.684 171.513 131.014 171.876 132.373 171.877H132.507Z" fill="#BA68C8"/>
<path opacity="0.4" d="M132.507 171.877H132.373C131.014 171.877 129.684 171.513 128.541 170.831C127.398 170.148 126.492 169.175 125.93 168.028L123.888 163.856V85.7668L125.297 66.3587C125.571 66.1119 125.731 65.7768 125.744 65.4232C125.725 65.1544 125.631 64.8947 125.471 64.6695C125.312 64.4443 125.092 64.2613 124.833 64.1383V61.1599H123.888V36.7358C123.888 36.5048 123.789 36.2833 123.613 36.12C123.437 35.9566 123.198 35.8649 122.948 35.8649C122.699 35.8649 122.46 35.9566 122.284 36.12C122.108 36.2833 122.009 36.5048 122.009 36.7358V61.1599H121.087V64.1383C120.828 64.2613 120.608 64.4443 120.449 64.6695C120.289 64.8947 120.195 65.1544 120.176 65.4232C120.188 65.7675 120.342 66.0945 120.605 66.3372L122.009 85.6216V163.861L119.961 168.028C119.4 169.176 118.493 170.149 117.351 170.832C116.208 171.514 114.877 171.877 113.518 171.877V175.926H116.099L116.041 176.039H129.862L129.804 175.926H132.507V171.877Z" fill="white"/>
<path d="M145.824 59.0792C130.639 60.1383 115.391 60.1383 100.207 59.0792L106.221 38.7088C117.296 36.5691 128.728 36.5691 139.803 38.7088L145.824 59.0792Z" fill="#BA68C8"/>
<path opacity="0.7" d="M145.824 59.0792C130.639 60.1383 115.391 60.1383 100.207 59.0792L106.221 38.7088C117.296 36.5691 128.728 36.5691 139.803 38.7088L145.824 59.0792Z" fill="white"/>
<path d="M143.11 165.845H128.076L135.976 96.9491C136.312 94.0352 138.794 91.6697 141.515 91.6697H207.113L197.496 165.861L143.11 165.845Z" fill="#BDBDBD"/>
<path opacity="0.1" d="M143.11 165.845H128.076L135.976 96.9491C136.312 94.0352 138.794 91.6697 141.515 91.6697H207.113L197.496 165.861L143.11 165.845Z" fill="white"/>
<path d="M139.78 159.904H114.944L113.297 139.781L112.949 135.48L112.787 133.497C112.742 132.973 112.66 132.452 112.543 131.937L112.456 131.593C112.443 131.508 112.417 131.425 112.381 131.346C111.604 129.033 110.084 126.996 108.023 125.506C105.962 124.017 103.46 123.147 100.85 123.013H124.195C124.451 123.013 124.706 123.013 124.961 123.013C127.695 123.012 130.358 123.822 132.559 125.324C134.761 126.827 136.387 128.942 137.199 131.362C137.235 131.441 137.261 131.524 137.274 131.609C137.442 132.234 137.552 132.871 137.605 133.513L137.767 135.496L139.78 159.904Z" fill="#BDBDBD"/>
<path d="M139.78 159.904H114.944L113.297 139.781L112.949 135.48L112.787 133.497C112.742 132.973 112.66 132.452 112.543 131.937L112.456 131.593C112.443 131.508 112.417 131.425 112.381 131.346C111.604 129.033 110.084 126.996 108.023 125.506C105.962 124.017 103.46 123.147 100.85 123.013H124.195C124.451 123.013 124.706 123.013 124.961 123.013C127.695 123.012 130.358 123.822 132.559 125.324C134.761 126.827 136.387 128.942 137.199 131.362C137.235 131.441 137.261 131.524 137.274 131.609C137.442 132.234 137.552 132.871 137.605 133.513L137.767 135.496L139.78 159.904Z" fill="#BDBDBD"/>
<path d="M190.785 165.845H205.819L213.719 96.9491C214.055 94.0352 212.118 91.6697 209.392 91.6697H204.224C201.504 91.6697 199.004 94.0352 198.685 96.9491L190.785 165.845Z" fill="#BDBDBD"/>
<path d="M162.742 144.082H171.784C173.983 144.082 175.763 145.991 175.763 148.34V155.668C175.763 158.023 173.983 159.926 171.784 159.926H162.742V144.082Z" fill="#BDBDBD"/>
<g opacity="0.1">
<path opacity="0.1" d="M162.742 144.082H171.784C173.983 144.082 175.763 145.991 175.763 148.34V155.668C175.763 158.023 173.983 159.926 171.784 159.926H162.742V144.082Z" fill="black"/>
</g>
<path d="M118.088 159.91H163.27C165.006 159.91 166.414 158.605 166.414 156.996V146.98C166.414 145.371 165.006 144.066 163.27 144.066H118.088C116.352 144.066 114.944 145.371 114.944 146.98V156.996C114.944 158.605 116.352 159.91 118.088 159.91Z" fill="#BDBDBD"/>
<path d="M219.704 134.867C219.706 137.668 218.64 140.38 216.695 142.523C214.75 144.667 212.05 146.104 209.073 146.582L206.753 175.157C206.55 177.587 204.653 179.458 202.374 179.458H177.544C179.823 179.458 181.72 177.597 181.923 175.157L183.17 159.904L184.255 146.582C186.206 146.27 188.053 145.541 189.65 144.454C191.246 143.368 192.548 141.952 193.453 140.319C193.575 140.114 193.68 139.894 193.784 139.674C194.519 138.152 194.895 136.502 194.886 134.835C194.886 134.022 194.797 133.212 194.619 132.416C194.55 132.093 194.463 131.776 194.37 131.47C193.917 130.073 193.196 128.763 192.241 127.604C191.057 126.179 189.54 125.021 187.804 124.217C186.028 123.389 184.067 122.96 182.08 122.964H206.898C208.886 122.958 210.847 123.387 212.622 124.217C214.358 125.021 215.875 126.179 217.059 127.604C218.786 129.686 219.717 132.241 219.704 134.867Z" fill="#BDBDBD"/>
<path opacity="0.1" d="M219.704 134.867C219.706 137.668 218.64 140.38 216.695 142.523C214.75 144.667 212.05 146.104 209.073 146.582L206.753 175.157C206.55 177.587 204.653 179.458 202.374 179.458H177.544C179.823 179.458 181.72 177.597 181.923 175.157L183.17 159.904L184.255 146.582C186.206 146.27 188.053 145.541 189.65 144.454C191.246 143.368 192.548 141.952 193.453 140.319C193.575 140.114 193.68 139.894 193.784 139.674C194.519 138.152 194.895 136.502 194.886 134.835C194.886 134.022 194.797 133.212 194.619 132.416C194.55 132.093 194.463 131.776 194.37 131.47C193.917 130.073 193.196 128.763 192.241 127.604C191.057 126.179 189.54 125.021 187.804 124.217C186.028 123.389 184.067 122.96 182.08 122.964H206.898C208.886 122.958 210.847 123.387 212.622 124.217C214.358 125.021 215.875 126.179 217.059 127.604C218.786 129.686 219.717 132.241 219.704 134.867Z" fill="black"/>
<path d="M194.88 134.873C194.878 137.673 193.81 140.383 191.864 142.525C189.918 144.667 187.219 146.104 184.243 146.582L181.923 175.157C181.726 177.587 179.823 179.458 177.538 179.458H104.458C102.179 179.458 100.282 177.592 100.073 175.157L97.7533 146.534C95.1224 146.065 92.7162 144.843 90.8732 143.041C89.0302 141.239 87.8431 138.946 87.4789 136.486C87.1146 134.026 87.5915 131.522 88.8425 129.326C90.0936 127.13 92.0558 125.352 94.4531 124.244C96.2303 123.414 98.1933 122.983 100.184 122.986C102.917 122.987 105.579 123.798 107.78 125.301C109.981 126.804 111.605 128.921 112.416 131.341C112.453 131.421 112.478 131.506 112.491 131.593C112.656 132.215 112.766 132.848 112.822 133.486L112.984 135.475L114.974 159.899H167.04L169.192 133.48C169.505 129.755 171.669 126.642 174.667 125.169C176.616 123.886 178.916 123.141 181.302 123.018C181.558 123.018 181.813 122.991 182.068 122.991C184 122.986 185.908 123.395 187.642 124.185C187.694 124.185 187.746 124.228 187.798 124.249C189.536 125.051 191.053 126.209 192.235 127.636C193.956 129.711 194.886 132.256 194.88 134.873Z" fill="#BDBDBD"/>
<path opacity="0.1" d="M158.647 144.082C152.934 145.335 146.995 147.098 143.805 151.571C142.036 154.044 141.41 156.947 141.096 159.926C140.882 161.877 140.801 163.872 140.627 165.807C140.18 170.694 138.428 176.194 133.609 178.21C130.32 179.587 126.515 178.925 122.908 179.092C122.02 179.131 121.139 179.257 120.28 179.468H104.44C102.155 179.468 100.259 177.608 100.056 175.167L97.7355 146.55C95.5119 146.15 93.4423 145.212 91.7376 143.829C90.0328 142.447 88.754 140.67 88.0313 138.68C87.3086 136.69 87.1678 134.559 87.6234 132.502C88.0791 130.445 89.1147 128.538 90.6249 126.973C92.1351 125.408 94.0657 124.242 96.2202 123.594C98.3747 122.947 100.676 122.84 102.89 123.285C105.103 123.73 107.15 124.711 108.821 126.128C110.492 127.545 111.729 129.347 112.404 131.351C112.435 131.432 112.458 131.514 112.473 131.599C112.641 132.223 112.751 132.86 112.804 133.502L112.966 135.486L114.962 159.904H118.215C117.348 159.894 116.52 159.567 115.912 158.995C115.304 158.422 114.964 157.649 114.967 156.845V147.125C114.967 146.723 115.051 146.326 115.216 145.954C115.381 145.583 115.624 145.245 115.93 144.961C116.236 144.676 116.599 144.45 116.999 144.296C117.399 144.141 117.828 144.061 118.262 144.061L158.647 144.082Z" fill="black"/>
<path d="M198.395 188.355H199.242C199.469 188.342 199.684 188.255 199.848 188.11C200.013 187.964 200.116 187.769 200.141 187.559L201.382 179.447H196.249L197.496 187.559C197.52 187.769 197.624 187.964 197.788 188.11C197.953 188.255 198.168 188.342 198.395 188.355Z" fill="#BDBDBD"/>
<path opacity="0.7" d="M198.395 188.355H199.242C199.469 188.342 199.684 188.255 199.848 188.11C200.013 187.964 200.116 187.769 200.141 187.559L201.382 179.447H196.249L197.496 187.559C197.52 187.769 197.624 187.964 197.788 188.11C197.953 188.255 198.168 188.342 198.395 188.355Z" fill="white"/>
<path d="M107.567 188.355H108.414C108.641 188.342 108.856 188.255 109.02 188.11C109.185 187.964 109.289 187.769 109.313 187.559L110.56 179.447H105.427L106.668 187.559C106.692 187.769 106.796 187.964 106.96 188.11C107.125 188.255 107.34 188.342 107.567 188.355Z" fill="#BDBDBD"/>
<path opacity="0.5" d="M107.567 188.355H108.414C108.641 188.342 108.856 188.255 109.02 188.11C109.185 187.964 109.289 187.769 109.313 187.559L110.56 179.447H105.427L106.668 187.559C106.692 187.769 106.796 187.964 106.96 188.11C107.125 188.255 107.34 188.342 107.567 188.355Z" fill="white"/>
<path d="M133.823 188.355H134.664C134.892 188.344 135.109 188.257 135.274 188.111C135.44 187.966 135.545 187.77 135.569 187.559L136.81 179.447H131.66L132.907 187.559C132.932 187.772 133.038 187.969 133.206 188.115C133.374 188.261 133.593 188.346 133.823 188.355Z" fill="#BDBDBD"/>
<path opacity="0.7" d="M133.823 188.355H134.664C134.892 188.344 135.109 188.257 135.274 188.111C135.44 187.966 135.545 187.77 135.569 187.559L136.81 179.447H131.66L132.907 187.559C132.932 187.772 133.038 187.969 133.206 188.115C133.374 188.261 133.593 188.346 133.823 188.355Z" fill="white"/>
<path d="M172.771 188.355H173.617C173.844 188.342 174.059 188.255 174.224 188.11C174.389 187.964 174.492 187.769 174.516 187.559L175.74 179.447H170.607L171.848 187.559C171.873 187.773 171.98 187.97 172.15 188.117C172.319 188.263 172.539 188.347 172.771 188.355Z" fill="#BDBDBD"/>
<path opacity="0.5" d="M172.771 188.355H173.617C173.844 188.342 174.059 188.255 174.224 188.11C174.389 187.964 174.492 187.769 174.516 187.559L175.74 179.447H170.607L171.848 187.559C171.873 187.773 171.98 187.97 172.15 188.117C172.319 188.263 172.539 188.347 172.771 188.355Z" fill="white"/>
<path d="M198.586 89.6267H194.863V90.1643H198.586V89.6267Z" fill="#BDBDBD"/>
<path d="M190.791 89.6267H176.216V90.1643H190.791V89.6267Z" fill="#BDBDBD"/>
<g opacity="0.2">
<path opacity="0.2" d="M184.892 130.325C184.588 129.718 184.235 129.134 183.837 128.577C183.52 128.132 183.142 127.727 182.711 127.373C181.842 126.629 180.754 126.143 179.585 125.975C178.608 125.838 177.608 125.938 176.685 126.265C174.267 127.11 172.567 129.4 172.138 131.814C172.135 131.832 172.135 131.85 172.138 131.868L167.347 179.452H169.087L173.861 132.045C174.319 129.54 176.488 127.206 179.342 127.572C179.966 127.673 180.56 127.894 181.087 128.221C181.613 128.548 182.06 128.973 182.398 129.47C182.686 129.87 182.946 130.286 183.175 130.717L182.92 131.448C182.849 131.652 182.867 131.874 182.972 132.065C183.077 132.256 183.26 132.401 183.48 132.467C183.7 132.533 183.939 132.516 184.145 132.419C184.351 132.321 184.507 132.152 184.579 131.948L184.939 130.911C185.002 130.717 184.985 130.508 184.892 130.325Z" fill="#263238"/>
</g>
<path d="M156.484 192.586C156.415 192.594 156.345 192.594 156.275 192.586C156.164 192.561 156.059 192.516 155.967 192.453C155.874 192.39 155.796 192.311 155.737 192.22C155.678 192.129 155.638 192.028 155.621 191.923C155.604 191.818 155.61 191.711 155.637 191.608L173.113 126.679V126.626C173.471 125.521 174.11 124.513 174.976 123.685C175.842 122.857 176.909 122.234 178.089 121.868C179.504 121.491 181.679 121.427 184.052 123.26L184.098 123.298C184.826 123.944 185.36 124.755 185.646 125.651C185.933 126.546 185.963 127.496 185.734 128.405L184.91 131.717C184.892 131.828 184.849 131.934 184.785 132.029C184.72 132.124 184.635 132.205 184.535 132.268C184.434 132.331 184.321 132.373 184.202 132.394C184.083 132.414 183.961 132.411 183.843 132.385C183.726 132.36 183.615 132.312 183.518 132.244C183.421 132.177 183.341 132.092 183.281 131.994C183.222 131.897 183.185 131.789 183.173 131.677C183.161 131.565 183.173 131.453 183.211 131.346L184.057 128.018C184.216 127.386 184.196 126.727 183.999 126.104C183.802 125.481 183.434 124.917 182.932 124.464C181.529 123.389 180.032 123.018 178.588 123.389C177.688 123.682 176.876 124.168 176.217 124.807C175.557 125.446 175.07 126.22 174.795 127.067L157.325 191.979C157.278 192.153 157.17 192.307 157.018 192.417C156.865 192.527 156.677 192.587 156.484 192.586Z" fill="#263238"/>
<path d="M149.193 142.071L125.744 142.942L117.311 144.174C115.466 156.48 106.697 175.232 105.821 177.092C105.821 177.119 105.821 177.146 105.786 177.162L105.363 178.388L100.056 177.415L100.276 176.302C100.276 176.269 100.276 176.2 100.276 176.092C100.566 173.103 103.582 142.088 107.369 135.297C111.348 128.158 146.079 128.62 146.079 128.62C157.36 131.072 149.193 142.071 149.193 142.071Z" fill="#FFB373"/>
<path d="M104.07 183.517C104.158 184.142 104.201 184.773 104.197 185.404C104.197 186.054 104.058 186.828 103.42 187.108C103.169 187.19 102.899 187.21 102.637 187.167C102.374 187.124 102.129 187.018 101.924 186.861C101.489 186.576 101.141 186.189 100.7 185.909C99.5398 185.178 98.0434 185.285 96.6398 185.189C96.0139 185.146 95.393 185.054 94.7838 184.914C94.4935 184.862 94.2162 184.76 93.966 184.613C93.2758 184.167 93.1888 183.269 93.1714 182.49C94.5123 182.73 95.8905 182.73 97.2314 182.49C97.8809 182.42 98.5105 182.238 99.0874 181.952C99.1164 181.932 99.1475 181.914 99.1802 181.898L100.05 177.436L105.346 178.431L103.855 182.732C103.963 182.984 104.035 183.247 104.07 183.517Z" fill="#FFB373"/>
<path d="M104.07 183.517C104.158 184.142 104.201 184.773 104.197 185.404C104.197 186.054 104.058 186.828 103.42 187.108C103.169 187.19 102.899 187.21 102.637 187.167C102.374 187.124 102.129 187.018 101.924 186.861C101.489 186.576 101.141 186.189 100.7 185.909C99.5398 185.178 98.0434 185.285 96.6398 185.189C96.0139 185.146 95.393 185.054 94.7838 184.914C94.4935 184.862 94.2162 184.76 93.966 184.613C93.2758 184.167 93.1888 183.269 93.1714 182.49C94.5123 182.73 95.8905 182.73 97.2314 182.49C97.8809 182.42 98.5105 182.238 99.0874 181.952C99.1164 181.932 99.1475 181.914 99.1802 181.898L100.05 177.436L105.346 178.431L103.855 182.732C103.963 182.984 104.035 183.247 104.07 183.517Z" fill="#BA68C8"/>
<g opacity="0.8">
<path opacity="0.8" d="M104.07 183.517C104.158 184.142 104.201 184.773 104.197 185.404C104.197 186.054 104.058 186.828 103.42 187.108C103.169 187.19 102.899 187.21 102.637 187.167C102.374 187.124 102.129 187.018 101.924 186.861C101.489 186.576 101.141 186.189 100.7 185.909C99.5398 185.178 98.0434 185.285 96.6398 185.189C96.0139 185.146 95.393 185.054 94.7838 184.914C94.4935 184.862 94.2162 184.76 93.966 184.613C93.2758 184.167 93.1888 183.269 93.1714 182.49C94.5123 182.73 95.8905 182.73 97.2314 182.49C97.8809 182.42 98.5105 182.238 99.0874 181.952C99.1164 181.932 99.1475 181.914 99.1802 181.898L100.05 177.436L105.346 178.431L103.855 182.732C103.963 182.984 104.035 183.247 104.07 183.517Z" fill="#FFB373"/>
<path opacity="0.8" d="M104.07 183.517C104.158 184.142 104.201 184.773 104.197 185.404C104.197 186.054 104.058 186.828 103.42 187.108C103.169 187.19 102.899 187.21 102.637 187.167C102.374 187.124 102.129 187.018 101.924 186.861C101.489 186.576 101.141 186.189 100.7 185.909C99.5398 185.178 98.0434 185.285 96.6398 185.189C96.0139 185.146 95.393 185.054 94.7838 184.914C94.4935 184.862 94.2162 184.76 93.966 184.613C93.2758 184.167 93.1888 183.269 93.1714 182.49C94.5123 182.73 95.8905 182.73 97.2314 182.49C97.8809 182.42 98.5105 182.238 99.0874 181.952C99.1164 181.932 99.1475 181.914 99.1802 181.898L100.05 177.436L105.346 178.431L103.855 182.732C103.963 182.984 104.035 183.247 104.07 183.517Z" fill="#BA68C8"/>
</g>
<g opacity="0.8">
<path opacity="0.8" d="M104.07 183.517C104.158 184.142 104.201 184.773 104.197 185.404C104.197 186.054 104.058 186.828 103.42 187.108C103.169 187.19 102.899 187.21 102.637 187.167C102.374 187.124 102.129 187.018 101.924 186.861C101.489 186.576 101.141 186.189 100.7 185.909C99.5398 185.178 98.0434 185.285 96.6398 185.189C96.0139 185.146 95.393 185.054 94.7838 184.914C94.4935 184.862 94.2162 184.76 93.966 184.613C93.2758 184.167 93.1888 183.269 93.1714 182.49C94.5123 182.73 95.8905 182.73 97.2314 182.49C97.8809 182.42 98.5105 182.238 99.0874 181.952C99.1164 181.932 99.1475 181.914 99.1802 181.898L100.05 177.436L105.346 178.431L103.855 182.732C103.963 182.984 104.035 183.247 104.07 183.517Z" fill="white"/>
<path opacity="0.8" d="M104.07 183.517C104.158 184.142 104.201 184.773 104.197 185.404C104.197 186.054 104.058 186.828 103.42 187.108C103.169 187.19 102.899 187.21 102.637 187.167C102.374 187.124 102.129 187.018 101.924 186.861C101.489 186.576 101.141 186.189 100.7 185.909C99.5398 185.178 98.0434 185.285 96.6398 185.189C96.0139 185.146 95.393 185.054 94.7838 184.914C94.4935 184.862 94.2162 184.76 93.966 184.613C93.2758 184.167 93.1888 183.269 93.1714 182.49C94.5123 182.73 95.8905 182.73 97.2314 182.49C97.8809 182.42 98.5105 182.238 99.0874 181.952C99.1164 181.932 99.1475 181.914 99.1802 181.898L100.05 177.436L105.346 178.431L103.855 182.732C103.963 182.984 104.035 183.247 104.07 183.517Z" fill="white"/>
<g opacity="0.8">
<path opacity="0.8" d="M104.07 183.517C104.158 184.142 104.201 184.773 104.197 185.404C104.197 186.054 104.058 186.828 103.42 187.108C103.169 187.19 102.899 187.21 102.637 187.167C102.374 187.124 102.129 187.018 101.924 186.861C101.489 186.576 101.141 186.189 100.7 185.909C99.5398 185.178 98.0434 185.285 96.6398 185.189C96.0139 185.146 95.393 185.054 94.7838 184.914C94.4935 184.862 94.2162 184.76 93.966 184.613C93.2758 184.167 93.1888 183.269 93.1714 182.49C94.5123 182.73 95.8905 182.73 97.2314 182.49C97.8809 182.42 98.5105 182.238 99.0874 181.952C99.1164 181.932 99.1475 181.914 99.1802 181.898L100.05 177.436L105.346 178.431L103.855 182.732C103.963 182.984 104.035 183.247 104.07 183.517Z" fill="white"/>
<path opacity="0.8" d="M104.07 183.517C104.158 184.142 104.201 184.773 104.197 185.404C104.197 186.054 104.058 186.828 103.42 187.108C103.169 187.19 102.899 187.21 102.637 187.167C102.374 187.124 102.129 187.018 101.924 186.861C101.489 186.576 101.141 186.189 100.7 185.909C99.5398 185.178 98.0434 185.285 96.6398 185.189C96.0139 185.146 95.393 185.054 94.7838 184.914C94.4935 184.862 94.2162 184.76 93.966 184.613C93.2758 184.167 93.1888 183.269 93.1714 182.49C94.5123 182.73 95.8905 182.73 97.2314 182.49C97.8809 182.42 98.5105 182.238 99.0874 181.952C99.1164 181.932 99.1475 181.914 99.1802 181.898L100.05 177.436L105.346 178.431L103.855 182.732C103.963 182.984 104.035 183.247 104.07 183.517Z" fill="white"/>
</g>
</g>
<path d="M106.117 176.2L105.821 177.092L105.809 177.113L105.374 178.42L105.351 178.415L100.056 177.42L99.9456 177.398L100.294 176.076L100.589 174.963L106.117 176.2Z" fill="#BA68C8"/>
<path opacity="0.5" d="M106.117 176.2L105.821 177.092L105.809 177.113L105.374 178.42L105.351 178.415L100.056 177.42L99.9456 177.398L100.294 176.076L100.589 174.963L106.117 176.2Z" fill="white"/>
<path d="M157.139 144.652C156.53 144.749 155.869 144.829 155.167 144.889H154.964L153.926 144.964H153.833C144.431 145.502 129.375 143.663 129.375 143.663C129.375 143.663 129.102 146.071 128.574 150.652C127.498 160.024 125.638 169.304 123.012 178.409C122.879 178.855 122.751 179.307 122.618 179.753L122.391 180.651L121.898 182.576L115.988 181.501V180.834L115.959 179.872V179.533C115.959 178.694 115.913 177.786 115.89 176.845C115.716 169.426 115.617 158.566 116.168 149.776C116.586 143.163 117.369 137.706 118.761 135.744C122.432 130.572 136.335 129.04 146.287 128.626C152.314 128.373 156.89 128.529 156.89 128.529L162.075 126.959C162.075 126.959 165.712 143.287 157.139 144.652Z" fill="#F8B07B"/>
<path d="M122.392 180.673L121.899 182.597L115.988 181.544L115.965 180.877L115.936 179.915L115.925 179.576V179.484L122.392 180.673Z" fill="#BA68C8"/>
<path opacity="0.5" d="M122.392 180.673L121.899 182.597L115.988 181.544L115.965 180.877L115.936 179.915L115.925 179.576V179.484L122.392 180.673Z" fill="white"/>
<path d="M121.707 188.296C121.892 188.772 121.925 189.287 121.8 189.78C120.222 189.619 119.48 189.334 117.276 189.242C116.548 189.282 115.824 189.111 115.205 188.753C114.677 188.283 114.255 187.72 113.964 187.097C114.521 186.874 115.025 186.553 115.449 186.151C115.651 185.906 115.894 185.692 116.168 185.517C116.168 185.259 116.023 181.565 116.023 181.565L121.933 182.64L121.516 184.285V184.328L121.029 186.431C121.302 187.037 121.529 187.66 121.707 188.296Z" fill="#FFB373"/>
<path d="M121.707 188.296C121.892 188.772 121.925 189.287 121.8 189.78C120.222 189.619 119.48 189.334 117.276 189.242C116.548 189.282 115.824 189.111 115.205 188.753C114.677 188.283 114.255 187.72 113.964 187.097C114.521 186.874 115.025 186.553 115.449 186.151C115.651 185.906 115.894 185.692 116.168 185.517C116.168 185.259 116.023 181.565 116.023 181.565L121.933 182.64L121.516 184.285V184.328L121.029 186.431C121.302 187.037 121.529 187.66 121.707 188.296Z" fill="#BA68C8"/>
<path opacity="0.8" d="M121.707 188.296C121.892 188.772 121.925 189.287 121.8 189.78C120.222 189.619 119.48 189.334 117.276 189.242C116.548 189.282 115.824 189.111 115.205 188.753C114.677 188.283 114.255 187.72 113.964 187.097C114.521 186.874 115.025 186.553 115.449 186.151C115.651 185.906 115.894 185.692 116.168 185.517C116.168 185.259 116.023 181.565 116.023 181.565L121.933 182.64L121.516 184.285V184.328L121.029 186.431C121.302 187.037 121.529 187.66 121.707 188.296Z" fill="white"/>
<path d="M143.434 94.4813C142.274 97.6372 141.044 100.702 139.722 103.782C138.4 106.863 137.037 109.906 135.488 112.981L134.862 114.185C134.469 114.933 133.921 115.602 133.249 116.153C132.167 117.013 130.875 117.615 129.485 117.905C127.423 118.334 125.298 118.439 123.198 118.217C119.461 117.859 115.79 117.053 112.276 115.819L113.222 112.309L115.774 112.513C116.632 112.572 117.514 112.583 118.337 112.642C119.999 112.723 121.664 112.723 123.325 112.642C124.771 112.602 126.202 112.37 127.577 111.954C127.921 111.862 128.231 111.686 128.476 111.443C128.476 111.4 128.418 111.443 128.418 111.443L128.859 110.368C130.053 107.384 131.231 104.277 132.402 101.228C133.574 98.1802 134.792 95.0727 136.033 92.0244L143.434 94.4813Z" fill="#FFB373"/>
<path d="M133.116 93.976C130.581 98.2447 131.498 103.605 131.498 103.605L138.458 104.519C138.458 104.519 145.51 96.6264 143.84 93.1373C141.984 89.2449 135.784 89.4492 133.116 93.976Z" fill="#BA68C8"/>
<path opacity="0.6" d="M133.116 93.976C130.581 98.2447 131.498 103.605 131.498 103.605L138.458 104.519C138.458 104.519 145.51 96.6264 143.84 93.1373C141.984 89.2449 135.784 89.4492 133.116 93.976Z" fill="black"/>
<path d="M132.816 102.1L132.727 102.669L134.844 102.956L134.934 102.386L132.816 102.1Z" fill="white"/>
<path opacity="0.2" d="M138.463 104.519L134.032 103.938C134.843 101.07 136.023 98.3028 137.547 95.6964C139.867 91.9761 141.607 90.7987 143.753 91.6911C144.791 96.5888 138.463 104.519 138.463 104.519Z" fill="black"/>
<path d="M107.822 115.621C107.365 115.56 106.925 115.416 106.529 115.196C105.114 114.121 105.74 112.158 106.888 110.847C106.935 110.793 108.234 109.513 108.286 109.46C109.533 108.234 110.374 109.4 111.697 110.535L114.341 112.847L113.071 115.911C111.685 116.002 110.293 115.955 108.918 115.771C108.663 115.734 108.246 115.674 107.822 115.594V115.621Z" fill="#FFB373"/>
<path d="M156.333 88.5891C157.047 88.5891 164.244 89.7235 162.951 96.0459C157.441 120.879 161.049 115.11 165.138 126.341L137.199 127.739C137.199 127.739 139.403 115.303 137.947 112.287C135.482 107.201 135.418 103.384 137.089 98.0082C138.939 92.0944 139.705 90.4493 139.705 90.4493C142.268 89.7342 150.852 87.0945 156.333 88.5891Z" fill="#BA68C8"/>
<path opacity="0.5" d="M156.333 88.5891C157.047 88.5891 164.244 89.7235 162.951 96.0459C157.441 120.879 161.049 115.11 165.138 126.341L137.199 127.739C137.199 127.739 139.403 115.303 137.947 112.287C135.482 107.201 135.418 103.384 137.089 98.0082C138.939 92.0944 139.705 90.4493 139.705 90.4493C142.268 89.7342 150.852 87.0945 156.333 88.5891Z" fill="black"/>
<path d="M149.327 79.7505C149.118 82.7074 149.1 86.9976 151.548 88.6642C148.817 90.5797 146.463 92.9167 144.588 95.5726C144.522 95.6647 144.437 95.7437 144.338 95.8051C144.239 95.8666 144.127 95.9093 144.01 95.9308C143.894 95.9523 143.773 95.9521 143.656 95.9303C143.539 95.9085 143.428 95.8655 143.329 95.8038C143.242 95.7505 143.165 95.6831 143.103 95.6049C140.128 91.8416 141.856 89.8309 141.856 89.8309C143.863 89.2932 143.486 87.6105 142.581 85.4385L149.327 79.7505Z" fill="#FFB373"/>
<path opacity="0.2" d="M147.529 82.1429L143.724 84.4655L142.564 85.4386C143.026 86.3331 143.281 87.3074 143.312 88.2987C145.847 87.4439 148.573 84.0569 147.529 82.1429Z" fill="black"/>
<path d="M148.706 72.8905C149.901 77.643 150.521 79.6483 148.747 82.7074C146.084 87.3686 139.53 87.6911 136.833 83.3687C134.421 79.4763 132.82 72.369 137.176 69.1432C138.129 68.4293 139.263 67.9533 140.47 67.7604C141.678 67.5676 142.918 67.6644 144.074 68.0416C145.23 68.4188 146.262 69.0639 147.073 69.9155C147.884 70.767 148.446 71.7967 148.706 72.9066V72.8905Z" fill="#FFB373"/>
<path d="M140.754 82.315C140.536 82.3516 140.315 82.3696 140.093 82.3688C140.077 82.3703 140.06 82.3686 140.044 82.3639C140.029 82.3593 140.014 82.3517 140.001 82.3416C139.989 82.3315 139.979 82.3192 139.972 82.3054C139.965 82.2916 139.96 82.2766 139.96 82.2612C139.96 82.2285 139.974 82.197 139.999 82.1738C140.024 82.1506 140.058 82.1376 140.093 82.1376C140.649 82.1374 141.198 82.0162 141.695 81.7837C142.191 81.5512 142.622 81.2139 142.953 80.7989C142.972 80.7724 143.001 80.7537 143.034 80.7467C143.068 80.7397 143.103 80.7449 143.132 80.7613C143.161 80.7789 143.181 80.806 143.189 80.8371C143.196 80.8681 143.191 80.9007 143.173 80.928C142.891 81.2975 142.531 81.6107 142.115 81.8489C141.7 82.0872 141.237 82.2457 140.754 82.315Z" fill="#263238"/>
<path opacity="0.2" d="M142.401 76.0195C143.159 75.9741 143.887 75.7298 144.501 75.3152C143.768 75.4552 143.061 75.6924 142.401 76.0195Z" fill="black"/>
<path opacity="0.2" d="M142.454 79.4548C142.923 79.858 143.892 79.9602 144.46 81.1752C143.866 80.531 143.193 79.9536 142.454 79.4548Z" fill="black"/>
<path opacity="0.2" d="M142.245 75.6862C142.896 75.5671 143.484 75.2445 143.909 74.7722C143.301 74.9833 142.737 75.2927 142.245 75.6862Z" fill="black"/>
<path d="M141.079 76.342C141.201 76.7237 141.079 77.0893 140.812 77.1645C140.545 77.2398 140.232 76.9925 140.11 76.6269C139.989 76.2613 140.11 75.885 140.371 75.8044C140.632 75.7237 140.94 75.9764 141.079 76.342Z" fill="#263238"/>
<path d="M136.445 77.6377C136.573 78.0141 136.445 78.3904 136.184 78.4603C135.923 78.5302 135.604 78.2882 135.476 77.9227C135.349 77.5571 135.476 77.1754 135.737 77.1001C135.998 77.0248 136.3 77.256 136.445 77.6377Z" fill="#263238"/>
<path d="M135.865 77.041H134.803C134.803 77.041 135.534 77.627 135.865 77.041Z" fill="#263238"/>
<path d="M138.092 77.9548C138.008 78.9215 137.782 79.873 137.419 80.7827C137.673 80.8626 137.942 80.8906 138.209 80.8646C138.475 80.8386 138.732 80.7593 138.962 80.6322L138.092 77.9548Z" fill="#EA573F"/>
<path d="M151.212 76.24C151.167 76.7057 151.024 77.1586 150.79 77.5728C150.556 77.9871 150.236 78.3544 149.849 78.6539C148.816 79.455 147.738 78.713 147.581 77.541C147.43 76.4658 147.784 74.7992 149.043 74.4551C149.32 74.3868 149.612 74.3833 149.891 74.4448C150.171 74.5063 150.429 74.6311 150.644 74.8078C150.859 74.9846 151.023 75.2078 151.122 75.4577C151.221 75.7076 151.252 75.9764 151.212 76.24Z" fill="#FFB373"/>
<path d="M141.427 73.5358C141.384 73.5642 141.332 73.5795 141.279 73.5795C141.226 73.5795 141.175 73.5642 141.131 73.5358C140.128 72.9981 138.759 73.5358 138.748 73.5358C138.688 73.5614 138.619 73.5638 138.557 73.5427C138.495 73.5215 138.445 73.4784 138.417 73.4229C138.389 73.3665 138.386 73.3022 138.409 73.2439C138.432 73.1855 138.478 73.1378 138.539 73.111C138.608 73.111 140.163 72.4498 141.387 73.111C141.415 73.1265 141.439 73.1471 141.459 73.1714C141.479 73.1957 141.493 73.2234 141.501 73.2529C141.509 73.2824 141.511 73.313 141.506 73.3431C141.501 73.3732 141.49 73.4021 141.474 73.4282C141.467 73.4668 141.451 73.5035 141.427 73.5358Z" fill="#263238"/>
<path opacity="0.8" d="M141.427 73.5358C141.384 73.5642 141.332 73.5795 141.279 73.5795C141.226 73.5795 141.175 73.5642 141.131 73.5358C140.128 72.9981 138.759 73.5358 138.748 73.5358C138.688 73.5614 138.619 73.5638 138.557 73.5427C138.495 73.5215 138.445 73.4784 138.417 73.4229C138.389 73.3665 138.386 73.3022 138.409 73.2439C138.432 73.1855 138.478 73.1378 138.539 73.111C138.608 73.111 140.163 72.4498 141.387 73.111C141.415 73.1265 141.439 73.1471 141.459 73.1714C141.479 73.1957 141.493 73.2234 141.501 73.2529C141.509 73.2824 141.511 73.313 141.506 73.3431C141.501 73.3732 141.49 73.4021 141.474 73.4282C141.467 73.4668 141.451 73.5035 141.427 73.5358Z" fill="white"/>
<path d="M136.027 74.4335C136.066 74.3977 136.091 74.3511 136.098 74.3011C136.105 74.251 136.094 74.2001 136.067 74.1562C136.04 74.1123 135.998 74.0778 135.948 74.058C135.898 74.0382 135.842 74.0341 135.79 74.0464C135.404 74.1289 135.045 74.2953 134.742 74.5318C134.44 74.7683 134.202 75.0682 134.05 75.4066C134.038 75.4355 134.033 75.4663 134.034 75.4971C134.036 75.5279 134.044 75.5582 134.059 75.5859C134.074 75.6136 134.094 75.6382 134.12 75.6582C134.145 75.6783 134.174 75.6932 134.206 75.7023C134.237 75.7125 134.27 75.717 134.303 75.7156C134.335 75.7141 134.367 75.7066 134.397 75.6937C134.427 75.6807 134.453 75.6624 134.475 75.6399C134.497 75.6174 134.514 75.5911 134.525 75.5625C134.651 75.2925 134.845 75.0542 135.09 74.8672C135.335 74.6803 135.625 74.55 135.935 74.4873C135.969 74.4753 136.001 74.457 136.027 74.4335Z" fill="#263238"/>
<path opacity="0.8" d="M136.027 74.4335C136.066 74.3977 136.091 74.3511 136.098 74.3011C136.105 74.251 136.094 74.2001 136.067 74.1562C136.04 74.1123 135.998 74.0778 135.948 74.058C135.898 74.0382 135.842 74.0341 135.79 74.0464C135.404 74.1289 135.045 74.2953 134.742 74.5318C134.44 74.7683 134.202 75.0682 134.05 75.4066C134.038 75.4355 134.033 75.4663 134.034 75.4971C134.036 75.5279 134.044 75.5582 134.059 75.5859C134.074 75.6136 134.094 75.6382 134.12 75.6582C134.145 75.6783 134.174 75.6932 134.206 75.7023C134.237 75.7125 134.27 75.717 134.303 75.7156C134.335 75.7141 134.367 75.7066 134.397 75.6937C134.427 75.6807 134.453 75.6624 134.475 75.6399C134.497 75.6174 134.514 75.5911 134.525 75.5625C134.651 75.2925 134.845 75.0542 135.09 74.8672C135.335 74.6803 135.625 74.55 135.935 74.4873C135.969 74.4753 136.001 74.457 136.027 74.4335Z" fill="white"/>
<path d="M140.499 75.8958H139.438C139.438 75.8958 140.157 76.4818 140.499 75.8958Z" fill="#263238"/>
<path opacity="0.2" d="M156.635 107.481C156.78 104.379 161.385 92.3577 160.184 91.0029C159.303 90.6427 155.127 89.3901 153.149 91.7395C149.06 102.723 156.635 107.481 156.635 107.481Z" fill="black"/>
<path d="M119.341 129.384C115.321 129.921 111.285 131.163 108.321 133.685C104.992 136.512 103.298 140.604 101.941 144.593C98.8852 153.539 96.905 162.77 96.0364 172.119C101.314 172.737 106.656 173.377 111.615 175.157C114.335 176.13 116.934 177.447 119.77 178.076C122.606 178.705 125.854 178.549 128.099 176.818C130.657 174.845 131.225 171.468 131.614 168.404C132.232 163.565 132.851 158.727 133.47 153.888C133.765 151.571 134.183 149.05 136.091 147.507C137.686 146.227 139.931 145.996 142.03 145.819C146.27 145.458 153.967 144.98 158.207 144.62C162.267 144.281 172.37 140.163 166.791 129.878C165.787 128.023 165.329 125.669 163.282 124.83C162 124.292 160.538 124.443 159.146 124.583L143.643 126.195C141.555 126.416 139.38 126.443 137.419 127.152C135.302 127.954 123.36 128.857 119.341 129.384Z" fill="#263238"/>
<path d="M121.933 104.073C121.933 104.073 122.693 101.347 122.954 100.309C123.104 99.7315 123.203 99.1436 123.25 98.5511L138.829 115.217C138.829 115.217 138.144 119.26 137.089 120.325L121.933 104.073Z" fill="#BA68C8"/>
<g opacity="0.8">
<path opacity="0.8" d="M121.933 104.073C121.933 104.073 122.693 101.347 122.954 100.309C123.104 99.7315 123.203 99.1436 123.25 98.5511L138.829 115.217C138.829 115.217 138.144 119.26 137.089 120.325L121.933 104.073Z" fill="white"/>
</g>
<path d="M121.933 104.073C121.933 104.073 124.578 99.8307 125.553 98.1963C126.076 97.342 126.547 96.4607 126.962 95.5566L142.541 112.223C142.541 112.223 139.304 118.314 137.106 120.287L121.933 104.073Z" fill="#BA68C8"/>
<g opacity="0.9">
<path opacity="0.9" d="M121.933 104.073C121.933 104.073 124.578 99.8307 125.553 98.1963C126.076 97.342 126.547 96.4607 126.962 95.5566L142.541 112.223C142.541 112.223 139.304 118.314 137.106 120.287L121.933 104.073Z" fill="white"/>
</g>
<path d="M123.308 102.965L121.931 104.07L137.103 120.318L138.48 119.213L123.308 102.965Z" fill="#BA68C8"/>
<g opacity="0.4">
<path opacity="0.4" d="M123.308 102.965L121.931 104.07L137.103 120.318L138.48 119.213L123.308 102.965Z" fill="black"/>
</g>
<path d="M132.505 95.5938L123.313 102.969L138.486 119.216L147.677 111.841L132.505 95.5938Z" fill="#BA68C8"/>
<path d="M140.94 113.056L141.242 113.207L139.565 116.061C139.258 116.169 138.951 116.26 138.637 116.346C138.371 116.196 138.11 116.04 137.849 115.879L139.589 112.653L140.94 113.056Z" fill="#FFB373"/>
<path d="M156.699 116.75L156.31 116.475L156.258 116.443C156.281 116.391 156.3 116.337 156.316 116.282C156.318 116.277 156.32 116.271 156.32 116.266C156.32 116.26 156.318 116.255 156.316 116.25L156.356 116.083L156.391 115.927L156.571 115.873V115.992L156.699 116.75Z" fill="#FFB373"/>
<path d="M162.678 116.556C162.626 116.803 162.568 117.051 162.499 117.309C162.429 117.567 162.359 117.846 162.255 118.104C161.623 122.9 155.927 121.927 155.927 121.927C155.216 121.981 154.501 121.97 153.793 121.895C151.769 121.689 149.781 121.246 147.877 120.577C144.65 119.474 141.558 118.056 138.655 116.346C138.968 116.26 139.275 116.169 139.583 116.061L141.259 113.207L140.957 113.056L142.117 113.395C142.947 113.637 143.788 113.846 144.611 114.072C146.27 114.508 147.923 114.906 149.547 115.207C151.073 115.518 153.445 116.094 154.993 116.11C155.467 116.114 155.938 116.052 156.391 115.927L156.356 116.083L156.316 116.25C156.318 116.255 156.32 116.26 156.32 116.266C156.32 116.271 156.318 116.277 156.316 116.282C156.3 116.337 156.281 116.391 156.258 116.443L156.31 116.475L156.699 116.75L156.565 115.992V115.873L156.385 115.927C156.385 115.841 156.42 115.755 156.432 115.669C156.443 115.583 156.339 99.6211 156.049 96.4437L164.047 96.3093C164.453 99.7232 163.038 114.755 162.678 116.556Z" fill="#FFB373"/>
<path d="M156.699 116.75L156.31 116.475L156.258 116.443C156.281 116.391 156.3 116.337 156.316 116.282C156.318 116.277 156.32 116.271 156.32 116.266C156.32 116.26 156.318 116.255 156.316 116.25L156.356 116.083L156.391 115.927L156.571 115.873V115.992L156.699 116.75Z" fill="#FFB373"/>
<path d="M141.259 113.207L139.583 116.061C139.275 116.169 138.968 116.26 138.655 116.346C137.749 116.598 136.821 116.778 135.882 116.884C135.305 116.946 134.72 116.87 134.183 116.664C132.507 116.008 130.767 115.271 132.443 112.658C132.443 112.626 132.571 112.282 132.675 111.938C132.779 111.594 132.884 111.255 132.901 111.223C133.731 109.718 135.355 110.357 136.961 111.115L140.946 113.078L141.259 113.207Z" fill="#FFB373"/>
<path d="M152.581 95.105C153.126 100.927 155.162 100.094 156.333 103.336L163.873 102.347C163.873 102.347 166.344 98.0082 165.3 94.0835C165.022 93.115 164.501 92.2209 163.78 91.474C163.06 90.727 162.159 90.1482 161.151 89.7847C160.143 89.4212 159.058 89.2831 157.982 89.3818C156.906 89.4804 155.87 89.813 154.959 90.3525C154.106 90.8435 153.426 91.555 153.003 92.3994C152.581 93.2438 152.434 94.1842 152.581 95.105Z" fill="#BA68C8"/>
<path opacity="0.4" d="M152.581 95.105C153.126 100.927 155.162 100.094 156.333 103.336L163.873 102.347C163.873 102.347 166.344 98.0082 165.3 94.0835C165.022 93.115 164.501 92.2209 163.78 91.474C163.06 90.727 162.159 90.1482 161.151 89.7847C160.143 89.4212 159.058 89.2831 157.982 89.3818C156.906 89.4804 155.87 89.813 154.959 90.3525C154.106 90.8435 153.426 91.555 153.003 92.3994C152.581 93.2438 152.434 94.1842 152.581 95.105Z" fill="black"/>
<path d="M158.949 100.63L156.84 100.97L156.947 101.536L159.055 101.196L158.949 100.63Z" fill="white"/>
<path d="M162.458 100.357L160.156 100.511L160.2 101.085L162.503 100.931L162.458 100.357Z" fill="white"/>
<path d="M156.815 72.8852C157.274 72.2447 157.566 71.5136 157.667 70.75C157.768 69.9864 157.674 69.2116 157.395 68.4874C156.478 66.466 153.955 65.595 151.699 64.9391L148.596 64.0413C147.842 63.8209 146.966 63.6166 146.276 64.0413C145.586 64.466 145.464 65.4714 145.824 66.1918C146.247 66.8897 146.812 67.505 147.488 68.0036C149.261 69.6539 150.745 71.5513 151.885 73.6271C153.48 76.1861 155.44 74.998 156.815 72.8852Z" fill="#263238"/>
<path opacity="0.9" d="M156.815 72.8852C157.274 72.2447 157.566 71.5136 157.667 70.75C157.768 69.9864 157.674 69.2116 157.395 68.4874C156.478 66.466 153.955 65.595 151.699 64.9391L148.596 64.0413C147.842 63.8209 146.966 63.6166 146.276 64.0413C145.586 64.466 145.464 65.4714 145.824 66.1918C146.247 66.8897 146.812 67.505 147.488 68.0036C149.261 69.6539 150.745 71.5513 151.885 73.6271C153.48 76.1861 155.44 74.998 156.815 72.8852Z" fill="white"/>
<path d="M151.803 80.7827C151.084 81.3731 150.175 81.7265 149.216 81.7881C149.676 80.8019 149.89 79.7325 149.843 78.6591C150.23 78.3602 150.55 77.9928 150.783 77.5784C151.016 77.1641 151.158 76.7109 151.2 76.2452C151.236 76.0246 151.222 75.7994 151.159 75.584C151.062 75.2631 150.86 74.9781 150.58 74.7683C150.301 74.5584 149.958 74.4339 149.599 74.412C149.43 74.3977 149.259 74.4105 149.095 74.4496H149.037C147.975 74.7399 147.558 75.9818 147.54 76.9979C146.496 76.2829 146.055 74.8474 145.278 73.7722C144.512 72.7627 143.387 72.0356 142.1 71.7185C141.574 71.5745 141.03 71.4967 140.482 71.4873C138.592 71.5042 136.767 72.1294 135.32 73.2561C135.077 73.4473 134.823 73.6268 134.56 73.7937C134.414 73.8794 134.258 73.9497 134.096 74.0034C133.867 74.0864 133.616 74.0999 133.378 74.0419C133.14 73.9839 132.929 73.8575 132.773 73.6808C132.68 73.4712 132.641 73.2441 132.661 73.018C132.68 72.792 132.756 72.5733 132.884 72.3797C134.298 69.513 136.788 67.2202 139.89 65.9283C140.296 65.7563 140.708 65.6057 141.125 65.4713C141.404 65.3853 141.671 65.31 141.92 65.2563H141.995L142.384 65.1864L142.645 65.1541C146.189 64.7079 150.44 65.9767 152.064 68.6702C154.164 72.1109 155.132 78.2882 151.803 80.7827Z" fill="#263238"/>
<path opacity="0.8" d="M151.803 80.7827C151.084 81.3731 150.175 81.7265 149.216 81.7881C149.676 80.8019 149.89 79.7325 149.843 78.6591C150.23 78.3602 150.55 77.9928 150.783 77.5784C151.016 77.1641 151.158 76.7109 151.2 76.2452C151.236 76.0246 151.222 75.7994 151.159 75.584C151.062 75.2631 150.86 74.9781 150.58 74.7683C150.301 74.5584 149.958 74.4339 149.599 74.412C149.43 74.3977 149.259 74.4105 149.095 74.4496H149.037C147.975 74.7399 147.558 75.9818 147.54 76.9979C146.496 76.2829 146.055 74.8474 145.278 73.7722C144.512 72.7627 143.387 72.0356 142.1 71.7185C141.574 71.5745 141.03 71.4967 140.482 71.4873C138.592 71.5042 136.767 72.1294 135.32 73.2561C135.077 73.4473 134.823 73.6268 134.56 73.7937C134.414 73.8794 134.258 73.9497 134.096 74.0034C133.867 74.0864 133.616 74.0999 133.378 74.0419C133.14 73.9839 132.929 73.8575 132.773 73.6808C132.68 73.4712 132.641 73.2441 132.661 73.018C132.68 72.792 132.756 72.5733 132.884 72.3797C134.298 69.513 136.788 67.2202 139.89 65.9283C140.296 65.7563 140.708 65.6057 141.125 65.4713C141.404 65.3853 141.671 65.31 141.92 65.2563H141.995L142.384 65.1864L142.645 65.1541C146.189 64.7079 150.44 65.9767 152.064 68.6702C154.164 72.1109 155.132 78.2882 151.803 80.7827Z" fill="white"/>
<path d="M135.436 76.6217C135.181 76.5888 134.922 76.6279 134.692 76.734C134.461 76.8401 134.271 77.0082 134.146 77.2163C134.02 77.4243 133.966 77.6626 133.989 77.9C134.012 78.1373 134.112 78.3626 134.276 78.5464C134.503 78.8179 134.768 79.0602 135.065 79.2668C135.396 79.5934 135.852 79.7864 136.335 79.8044C136.508 79.7755 136.671 79.7126 136.816 79.6198C136.96 79.527 137.081 79.4066 137.17 79.2668C137.354 78.9936 137.493 78.6964 137.582 78.3851C137.671 78.1761 137.718 77.9538 137.721 77.7292C137.663 76.9658 136.103 76.6217 135.436 76.6217Z" stroke="#263238" stroke-width="0.5" stroke-linecap="round" stroke-linejoin="round"/>
<path d="M140.743 74.9712C141.439 74.6271 142.367 74.5895 142.767 75.0679C142.872 75.2174 142.94 75.3867 142.965 75.5634C142.99 75.7402 142.972 75.9199 142.912 76.0894C142.794 76.4672 142.622 76.8287 142.402 77.1647C142.18 77.6558 141.785 78.063 141.282 78.3205C141.099 78.3945 140.902 78.4328 140.702 78.4328C140.503 78.4328 140.305 78.3945 140.122 78.3205C139.806 78.1742 139.519 77.9777 139.276 77.7399C139.083 77.5932 138.927 77.4098 138.817 77.2023C138.51 76.4496 140.03 75.3206 140.743 74.9712Z" stroke="#263238" stroke-width="0.5" stroke-linecap="round" stroke-linejoin="round"/>
<path d="M137.663 77.8796C137.636 77.8844 137.608 77.8844 137.582 77.8796C137.55 77.859 137.529 77.828 137.521 77.793C137.513 77.758 137.521 77.7217 137.541 77.6915C137.629 77.5776 137.741 77.4813 137.869 77.4083C137.998 77.3353 138.142 77.287 138.291 77.2664C138.44 77.2459 138.593 77.2534 138.739 77.2885C138.885 77.3237 139.022 77.3858 139.142 77.471C139.168 77.4962 139.183 77.5299 139.183 77.5651C139.183 77.6003 139.168 77.6341 139.142 77.6592C139.129 77.6721 139.113 77.6823 139.096 77.6893C139.078 77.6963 139.059 77.6999 139.04 77.6999C139.021 77.6999 139.002 77.6963 138.985 77.6893C138.968 77.6823 138.952 77.6721 138.939 77.6592C138.851 77.5982 138.751 77.5544 138.644 77.5304C138.537 77.5064 138.426 77.5026 138.318 77.5194C138.208 77.5318 138.102 77.5655 138.008 77.6183C137.913 77.6711 137.831 77.7418 137.767 77.8259C137.755 77.8409 137.739 77.8535 137.721 77.8627C137.703 77.872 137.683 77.8777 137.663 77.8796Z" fill="#263238"/>
<path d="M135.21 87.3256C135.186 87.3239 135.162 87.3166 135.142 87.3044C135.122 87.2921 135.105 87.2754 135.094 87.2558C134.808 86.7196 134.719 86.1121 134.838 85.5246V85.3149C134.879 84.7773 134.838 84.0408 134.287 83.729C134.042 83.6023 133.768 83.5288 133.487 83.5139C133.22 83.4874 132.958 83.4259 132.71 83.3311C131.77 82.9279 131.55 81.7183 131.869 80.8258C132.001 80.4585 132.158 80.0994 132.339 79.7506C132.583 79.3115 132.766 78.8454 132.884 78.3635C132.982 77.4354 132.847 76.4987 132.489 75.627C132.42 75.412 132.356 75.1916 132.292 74.9765C131.991 73.9013 131.828 72.4389 132.768 71.4874C132.959 71.3354 133.186 71.2266 133.431 71.1697C133.675 71.1128 133.931 71.1093 134.177 71.1594C134.597 71.2284 134.991 71.3968 135.32 71.6483C135.65 71.8998 135.903 72.2258 136.056 72.5949C136.072 72.6292 136.074 72.6679 136.059 72.703C136.045 72.738 136.017 72.7667 135.981 72.783C135.943 72.7981 135.901 72.7993 135.862 72.7863C135.823 72.7733 135.791 72.7472 135.772 72.7131C135.641 72.387 135.419 72.0985 135.13 71.8759C134.842 71.6534 134.495 71.5046 134.125 71.4443C133.93 71.3999 133.726 71.3981 133.529 71.4392C133.333 71.4802 133.15 71.563 132.994 71.6809C132.147 72.5357 132.31 73.9013 132.594 74.9066C132.652 75.1217 132.721 75.3367 132.785 75.5571C133.127 76.235 133.29 76.9781 133.261 77.7257C133.233 78.4733 133.014 79.204 132.623 79.8581C132.443 80.2059 132.289 80.5652 132.165 80.9333C131.909 81.7344 132.06 82.7612 132.843 83.0838C133.065 83.1634 133.297 83.2158 133.533 83.2397C133.857 83.265 134.171 83.3529 134.456 83.4978C134.978 83.8096 135.21 84.4333 135.146 85.3418V85.5569C135.04 86.0841 135.113 86.6287 135.355 87.116C135.377 87.1481 135.384 87.187 135.375 87.2242C135.367 87.2614 135.343 87.294 135.308 87.3149C135.277 87.3254 135.243 87.3291 135.21 87.3256Z" fill="#263238"/>
<g opacity="0.9">
<path opacity="0.7" d="M135.21 87.3256C135.186 87.3239 135.162 87.3166 135.142 87.3044C135.122 87.2921 135.105 87.2754 135.094 87.2558C134.808 86.7196 134.719 86.1121 134.838 85.5246V85.3149C134.879 84.7773 134.838 84.0408 134.287 83.729C134.042 83.6023 133.768 83.5288 133.487 83.5139C133.22 83.4874 132.958 83.4259 132.71 83.3311C131.77 82.9279 131.55 81.7183 131.869 80.8258C132.001 80.4585 132.158 80.0994 132.339 79.7506C132.583 79.3115 132.766 78.8454 132.884 78.3635C132.982 77.4354 132.847 76.4987 132.489 75.627C132.42 75.412 132.356 75.1916 132.292 74.9765C131.991 73.9013 131.828 72.4389 132.768 71.4874C132.959 71.3354 133.186 71.2266 133.431 71.1697C133.675 71.1128 133.931 71.1093 134.177 71.1594C134.597 71.2284 134.991 71.3968 135.32 71.6483C135.65 71.8998 135.903 72.2258 136.056 72.5949C136.072 72.6292 136.074 72.6679 136.059 72.703C136.045 72.738 136.017 72.7667 135.981 72.783C135.943 72.7981 135.901 72.7993 135.862 72.7863C135.823 72.7733 135.791 72.7472 135.772 72.7131C135.641 72.387 135.419 72.0985 135.13 71.8759C134.842 71.6534 134.495 71.5046 134.125 71.4443C133.93 71.3999 133.726 71.3981 133.529 71.4392C133.333 71.4802 133.15 71.563 132.994 71.6809C132.147 72.5357 132.31 73.9013 132.594 74.9066C132.652 75.1217 132.721 75.3367 132.785 75.5571C133.127 76.235 133.29 76.9781 133.261 77.7257C133.233 78.4733 133.014 79.204 132.623 79.8581C132.443 80.2059 132.289 80.5652 132.165 80.9333C131.909 81.7344 132.06 82.7612 132.843 83.0838C133.065 83.1634 133.297 83.2158 133.533 83.2397C133.857 83.265 134.171 83.3529 134.456 83.4978C134.978 83.8096 135.21 84.4333 135.146 85.3418V85.5569C135.04 86.0841 135.113 86.6287 135.355 87.116C135.377 87.1481 135.384 87.187 135.375 87.2242C135.367 87.2614 135.343 87.294 135.308 87.3149C135.277 87.3254 135.243 87.3291 135.21 87.3256Z" fill="white"/>
</g>
<path d="M140.052 93.0082C140.261 94.7232 141.294 96.5189 143.08 96.9866C143.725 97.1191 144.394 97.1155 145.038 96.9759C145.681 96.8363 146.283 96.5643 146.798 96.1802C147.82 95.4103 148.713 94.5045 149.448 93.4921L151.768 90.6104C152.412 89.7986 153.091 88.9008 153.056 87.8955C153.036 87.5251 152.921 87.1646 152.719 86.8446C152.517 86.5245 152.235 86.2543 151.896 86.0568C151.223 85.6643 150.382 85.3418 149.657 85.6428C149.774 85.9892 149.806 86.3555 149.749 86.7147C149.693 87.0738 149.551 87.4167 149.332 87.718C148.908 88.2226 148.359 88.6247 147.732 88.89C146.838 89.3201 145.789 89.7126 144.832 89.4277C144.4 89.2836 144.023 89.0276 143.744 88.6902C143.465 88.3527 143.297 87.9481 143.26 87.5245C142.181 86.8363 141.682 88.0621 141.224 88.5997C140.256 89.8832 139.838 91.4548 140.052 93.0082Z" fill="#BA68C8"/>
<path d="M156.698 116.75L156.31 116.475V116.083L156.542 115.991L156.698 116.75Z" fill="#FFB373"/>
<path d="M99.76 108.062L100.009 108.486C100.154 108.717 100.23 108.978 100.23 109.244V111.648C100.23 113.115 101.97 114.336 104.087 114.336H104.667C105.339 114.363 106.008 114.237 106.615 113.968C107.222 113.699 107.748 113.295 108.147 112.793C108.324 112.759 108.49 112.689 108.634 112.588L110.136 111.551C110.24 111.488 110.325 111.403 110.386 111.303C110.447 111.202 110.48 111.09 110.484 110.976V109.674C110.484 109.228 109.951 108.863 109.324 108.863H108.535C108.489 108.777 108.576 108.637 108.698 108.497V108.47C108.822 108.338 108.958 108.216 109.104 108.105H109.139C109.139 108.105 109.069 107.798 108.274 107.954C108.048 107.997 107.834 108.051 107.636 108.105H107.549H107.486C106.823 107.887 106.102 107.876 105.432 108.072C104.814 107.897 104.154 107.897 103.536 108.072C103.586 108.084 103.634 108.1 103.681 108.121H103.391L103.536 108.072C102.882 107.895 102.184 107.912 101.541 108.121H101.268C101.071 108.067 100.845 108.013 100.618 107.97C99.8238 107.777 99.76 108.062 99.76 108.062ZM108.46 112.191C108.46 112.164 108.495 110.266 108.501 109.459C108.501 109.261 108.733 109.105 109.023 109.105H109.353C109.759 109.105 110.096 109.336 110.096 109.642V110.82C110.096 111.212 110.096 111.191 109.672 111.475L108.46 112.191Z" fill="#BA68C8"/>
<path opacity="0.5" d="M99.76 108.062L100.009 108.486C100.154 108.717 100.23 108.978 100.23 109.244V111.648C100.23 113.115 101.97 114.336 104.087 114.336H104.667C105.339 114.363 106.008 114.237 106.615 113.968C107.222 113.699 107.748 113.295 108.147 112.793C108.324 112.759 108.49 112.689 108.634 112.588L110.136 111.551C110.24 111.488 110.325 111.403 110.386 111.303C110.447 111.202 110.48 111.09 110.484 110.976V109.674C110.484 109.228 109.951 108.863 109.324 108.863H108.535C108.489 108.777 108.576 108.637 108.698 108.497V108.47C108.822 108.338 108.958 108.216 109.104 108.105H109.139C109.139 108.105 109.069 107.798 108.274 107.954C108.048 107.997 107.834 108.051 107.636 108.105H107.549H107.486C106.823 107.887 106.102 107.876 105.432 108.072C104.814 107.897 104.154 107.897 103.536 108.072C103.586 108.084 103.634 108.1 103.681 108.121H103.391L103.536 108.072C102.882 107.895 102.184 107.912 101.541 108.121H101.268C101.071 108.067 100.845 108.013 100.618 107.97C99.8238 107.777 99.76 108.062 99.76 108.062ZM108.46 112.191C108.46 112.164 108.495 110.266 108.501 109.459C108.501 109.261 108.733 109.105 109.023 109.105H109.353C109.759 109.105 110.096 109.336 110.096 109.642V110.82C110.096 111.212 110.096 111.191 109.672 111.475L108.46 112.191Z" fill="white"/>
<path d="M99.5628 185.113C98.8919 184.977 98.2837 184.65 97.8228 184.178C97.475 183.624 97.2502 183.012 97.1616 182.377C97.0866 182.053 96.9678 181.738 96.8078 181.441C94.3776 180.775 89.4418 181.511 89.4418 181.511C88.4384 181.689 88.1948 184.226 90.5206 184.828C94.3776 185.828 93.641 185.194 96.9006 186.086C99.673 186.845 101.622 187.511 103.861 188.162C103.919 188.179 103.979 188.188 104.04 188.189C104.158 188.187 104.275 188.163 104.383 188.118C104.491 188.074 104.588 188.01 104.669 187.931C104.75 187.851 104.813 187.757 104.855 187.655C104.896 187.552 104.915 187.443 104.91 187.334V187.135C102.341 186.371 102.115 185.882 99.5628 185.113Z" fill="#263238"/>
<path d="M121.8 189.78C121.737 189.962 121.623 190.125 121.469 190.253C121.238 190.404 120.969 190.498 120.687 190.524C120.406 190.55 120.122 190.509 119.863 190.404C119.329 190.232 118.854 189.93 118.32 189.764C116.922 189.323 115.42 189.839 113.97 190.113C113.318 190.238 112.657 190.311 111.992 190.334C111.678 190.359 111.361 190.33 111.058 190.248C110.217 189.979 109.852 189.086 109.585 188.296C111.025 188.177 112.427 187.803 113.715 187.194L113.947 187.086C114.238 187.709 114.66 188.272 115.188 188.742C115.807 189.1 116.53 189.271 117.259 189.232C119.48 189.323 120.205 189.608 121.8 189.78Z" fill="#FFB373"/>
<path d="M122.768 191.183C122.705 191.191 122.641 191.191 122.577 191.183C120.118 191.119 117.937 190.957 114.857 190.93C111.244 190.898 112.189 191.344 107.944 191.366C105.386 191.366 104.841 188.721 105.809 188.275C105.809 188.275 110.612 186.194 113.297 186.221C113.546 186.472 113.758 186.752 113.929 187.054C114.22 187.677 114.642 188.24 115.17 188.71C115.789 189.068 116.513 189.239 117.241 189.199C119.468 189.275 120.187 189.559 121.765 189.737C122.2 189.785 122.699 189.823 123.314 189.844L123.372 190.043C123.417 190.155 123.437 190.273 123.431 190.392C123.425 190.511 123.393 190.627 123.336 190.734C123.28 190.841 123.2 190.936 123.102 191.013C123.005 191.09 122.891 191.148 122.768 191.183Z" fill="#263238"/>
</svg>
