<svg width="400" height="300" viewBox="0 0 400 300" fill="none" xmlns="http://www.w3.org/2000/svg">
<path d="M156.12 162.567H60.0716C73.5196 113.097 46.6236 63.6517 60.0716 14.1901H156.12C142.672 63.6517 169.6 113.097 156.12 162.567Z" fill="#BB6BD9"/>
<path opacity="0.7" d="M156.12 162.567H60.0716C73.5196 113.097 46.6236 63.6517 60.0716 14.1901H156.12C142.672 63.6517 169.6 113.097 156.12 162.567Z" fill="white"/>
<path d="M144.952 45.2553H101.552C101.439 45.2553 101.332 45.2099 101.252 45.129C101.173 45.0481 101.128 44.9384 101.128 44.8241C101.128 44.7097 101.173 44.6 101.252 44.5191C101.332 44.4383 101.439 44.3928 101.552 44.3928H144.952C145.064 44.3928 145.172 44.4383 145.252 44.5191C145.331 44.6 145.376 44.7097 145.376 44.8241C145.376 44.9384 145.331 45.0481 145.252 45.129C145.172 45.2099 145.064 45.2553 144.952 45.2553Z" fill="#263238"/>
<path d="M145.159 54.026H101.759C101.646 54.0242 101.537 53.9786 101.456 53.8986C101.374 53.8185 101.325 53.71 101.319 53.5948C101.316 53.5394 101.324 53.4838 101.342 53.4316C101.361 53.3794 101.39 53.3316 101.427 53.2912C101.465 53.2508 101.51 53.2187 101.56 53.1967C101.61 53.1748 101.664 53.1635 101.719 53.1636H145.119C145.233 53.1653 145.343 53.2106 145.426 53.2905C145.509 53.3703 145.559 53.4789 145.567 53.5948C145.569 53.6507 145.56 53.7064 145.541 53.7586C145.521 53.8109 145.491 53.8585 145.453 53.8988C145.415 53.9391 145.37 53.9711 145.319 53.993C145.268 54.0148 145.214 54.0261 145.159 54.026Z" fill="#263238"/>
<path d="M145.72 62.8383H64.1204C64.005 62.8352 63.8946 62.7899 63.8093 62.7107C63.7241 62.6315 63.6698 62.5237 63.6564 62.4071C63.6508 62.3525 63.6565 62.2973 63.6733 62.2451C63.6901 62.1929 63.7174 62.1449 63.7537 62.1042C63.7899 62.0635 63.8342 62.0311 63.8836 62.0089C63.933 61.9868 63.9864 61.9755 64.0404 61.9758H145.64C145.755 61.9774 145.866 62.0224 145.95 62.1021C146.034 62.1818 146.086 62.2905 146.096 62.4071C146.102 62.461 146.096 62.5155 146.08 62.5671C146.064 62.6188 146.037 62.6664 146.002 62.7069C145.966 62.7475 145.923 62.7801 145.875 62.8027C145.826 62.8254 145.774 62.8375 145.72 62.8383Z" fill="#263238"/>
<path d="M152.503 138.052H70.8794C70.8242 138.053 70.7692 138.043 70.7181 138.021C70.667 138 70.6208 137.968 70.5825 137.927C70.5441 137.887 70.5145 137.838 70.4954 137.786C70.4762 137.733 70.4681 137.677 70.4714 137.621C70.4795 137.505 70.5303 137.398 70.6134 137.319C70.6966 137.241 70.806 137.197 70.9194 137.197H152.519C152.574 137.196 152.628 137.206 152.678 137.228C152.728 137.249 152.773 137.28 152.811 137.32C152.848 137.36 152.877 137.407 152.896 137.459C152.915 137.51 152.923 137.566 152.919 137.621C152.916 137.732 152.871 137.839 152.794 137.918C152.717 137.998 152.613 138.046 152.503 138.052Z" fill="#263238"/>
<path d="M96.801 153.128H69.249C69.1962 153.13 69.1438 153.119 69.0958 153.097C69.0479 153.074 69.0056 153.041 68.9724 152.999C68.9391 152.957 68.9157 152.908 68.904 152.856C68.8924 152.804 68.8927 152.749 68.905 152.697C68.9282 152.579 68.9897 152.472 69.0796 152.394C69.1696 152.316 69.2827 152.271 69.401 152.266H96.929C96.9817 152.264 97.0341 152.275 97.0821 152.298C97.1301 152.32 97.1723 152.353 97.2056 152.395C97.2388 152.437 97.2622 152.486 97.2739 152.538C97.2856 152.591 97.2853 152.645 97.273 152.697C97.2509 152.811 97.1929 152.915 97.1078 152.993C97.0226 153.071 96.915 153.118 96.801 153.128Z" fill="#263238"/>
<path d="M151.152 153.128H123.624C123.571 153.13 123.519 153.119 123.471 153.097C123.423 153.074 123.381 153.041 123.347 152.999C123.314 152.957 123.291 152.908 123.279 152.856C123.267 152.804 123.268 152.749 123.28 152.697C123.302 152.578 123.363 152.471 123.453 152.393C123.543 152.314 123.657 152.269 123.776 152.266H151.304C151.357 152.264 151.409 152.275 151.457 152.298C151.505 152.32 151.547 152.353 151.581 152.395C151.614 152.437 151.637 152.486 151.649 152.538C151.661 152.591 151.66 152.645 151.648 152.697C151.625 152.815 151.563 152.922 151.473 153C151.383 153.078 151.27 153.123 151.152 153.128Z" fill="#263238"/>
<path d="M85.7675 34.271C85.7675 37.9569 83.0395 40.2513 78.6955 40.2513H75.4155V44.8159H71.6475V28.2582H78.6955C83.0395 28.2582 85.7675 30.5527 85.7675 34.271ZM81.9515 34.271C81.9515 32.4485 80.7835 31.3826 78.4875 31.3826H75.4155V37.1269H78.4875C80.7995 37.1269 81.9515 36.0692 81.9515 34.271Z" fill="#BB6BD9"/>
<path d="M88.3524 54.2788L84.4244 48.5344L80.5604 54.2788H76.2324L82.2564 45.8575L76.5364 37.7211H80.8004L84.5444 43.0911L88.2244 37.7211H92.2964L86.6164 45.7192L92.6884 54.2788H88.3524Z" fill="#BB6BD9"/>
<path d="M69.2636 68.3464C69.2636 69.2577 68.5916 69.8272 67.5116 69.8272H66.7116V70.9582H65.7676V66.89H67.5116C68.5916 66.8167 69.2636 67.3863 69.2636 68.3464ZM68.3196 68.3464C68.3196 67.8989 68.0316 67.6304 67.4636 67.6304H66.6636V69.0543H67.4636C67.9996 69.0136 68.3196 68.7532 68.3196 68.3464Z" fill="#263238"/>
<path d="M71.7844 67.7201V68.5338H71.5764C71.4658 68.5334 71.3562 68.5564 71.2548 68.6013C71.1533 68.6462 71.0621 68.712 70.9869 68.7946C70.9117 68.8772 70.8542 68.9748 70.8179 69.0811C70.7817 69.1875 70.7676 69.3003 70.7764 69.4125V70.9015H69.8564V67.7527H70.7124V68.1676C70.8427 68.011 71.0081 67.8885 71.1947 67.8106C71.3813 67.7327 71.5836 67.7017 71.7844 67.7201Z" fill="#263238"/>
<path d="M75.2961 69.5998H72.9601C73.0025 69.7981 73.1163 69.9732 73.2791 70.0907C73.4419 70.2081 73.642 70.2594 73.8401 70.2344C73.9873 70.243 74.1347 70.2199 74.2725 70.1667C74.4104 70.1134 74.5356 70.0311 74.6401 69.9252L75.1201 70.4541C74.8781 70.6919 74.5755 70.8561 74.2464 70.9278C73.9174 70.9995 73.5752 70.976 73.2586 70.86C72.9421 70.7439 72.6639 70.5399 72.4555 70.2711C72.2472 70.0023 72.1171 69.6796 72.0801 69.3394C72.08 69.1215 72.1229 68.9059 72.2063 68.7052C72.2897 68.5045 72.4119 68.3229 72.5656 68.1711C72.7192 68.0194 72.9013 67.9005 73.101 67.8217C73.3007 67.7428 73.514 67.7056 73.7281 67.7121C73.9406 67.7029 74.1527 67.7387 74.3509 67.8172C74.5491 67.8957 74.7292 68.0153 74.8796 68.1682C75.03 68.3212 75.1475 68.5043 75.2247 68.7059C75.3019 68.9075 75.3371 69.1232 75.3281 69.3394C75.3201 69.4208 75.3041 69.5265 75.2961 69.5998ZM72.9441 69.0628H74.4721C74.4214 68.8969 74.32 68.7519 74.1825 68.649C74.0451 68.546 73.8788 68.4904 73.7081 68.4904C73.5374 68.4904 73.3711 68.546 73.2336 68.649C73.0962 68.7519 72.9947 68.8969 72.9441 69.0628Z" fill="#263238"/>
<path d="M75.6074 70.6245L75.9114 69.9655C76.2338 70.1673 76.6049 70.2743 76.9834 70.2746C77.3994 70.2746 77.5594 70.1607 77.5594 69.9817C77.5594 69.4691 75.6874 69.9817 75.6874 68.7368C75.6874 68.1429 76.2154 67.7198 77.1194 67.7198C77.5331 67.7111 77.9424 67.8061 78.3114 67.9964L78.0074 68.6473C77.7376 68.4891 77.4309 68.4076 77.1194 68.4114C76.7194 68.4114 76.5434 68.5416 76.5434 68.7043C76.5434 69.2413 78.4154 68.7043 78.4154 69.9655C78.4154 70.5432 77.8794 70.9662 76.9514 70.9662C76.4816 70.9753 76.0178 70.8573 75.6074 70.6245Z" fill="#263238"/>
<path d="M78.7355 69.3391C78.7349 69.1147 78.7799 68.8926 78.8677 68.6868C78.9555 68.481 79.0842 68.2958 79.2457 68.143C79.4072 67.9902 79.5981 67.873 79.8063 67.7988C80.0145 67.7246 80.2355 67.6949 80.4555 67.7118C80.7412 67.6881 81.0273 67.7533 81.2758 67.8985C81.5244 68.0438 81.7237 68.2624 81.8475 68.5254L81.1515 68.8997C81.0841 68.771 80.984 68.663 80.8615 68.5872C80.7391 68.5113 80.5988 68.4703 80.4555 68.4685C80.2285 68.4685 80.0107 68.5602 79.8502 68.7235C79.6897 68.8867 79.5995 69.1082 79.5995 69.3391C79.5995 69.57 79.6897 69.7914 79.8502 69.9547C80.0107 70.1179 80.2285 70.2097 80.4555 70.2097C80.6 70.2134 80.7425 70.1747 80.8659 70.0983C80.9893 70.0218 81.0885 69.9107 81.1515 69.7784L81.8475 70.169C81.7211 70.4298 81.5212 70.6465 81.2733 70.7914C81.0254 70.9363 80.7407 71.0029 80.4555 70.9826C80.2341 70.9996 80.0118 70.9695 79.8025 70.8943C79.5932 70.8191 79.4016 70.7005 79.2398 70.5459C79.078 70.3913 78.9496 70.2042 78.8628 69.9964C78.776 69.7887 78.7326 69.5648 78.7355 69.3391Z" fill="#263238"/>
<path d="M84.2794 67.72V68.5336H84.0794C83.9687 68.5333 83.8592 68.5563 83.7577 68.6012C83.6562 68.6461 83.565 68.7119 83.4898 68.7945C83.4147 68.8771 83.3571 68.9746 83.3209 69.081C83.2847 69.1874 83.2706 69.3002 83.2794 69.4124V70.9014H82.3994V67.7525H83.1994V68.1675C83.33 68.0091 83.4966 67.8855 83.6849 67.8076C83.8731 67.7296 84.0772 67.6995 84.2794 67.72Z" fill="#263238"/>
<path d="M84.7041 66.817C84.706 66.7457 84.7223 66.6755 84.7519 66.6109C84.7815 66.5462 84.8239 66.4885 84.8764 66.4412C84.929 66.3939 84.9905 66.358 85.0571 66.3359C85.1238 66.3138 85.1943 66.3058 85.2641 66.3125C85.3329 66.3047 85.4025 66.3113 85.4686 66.332C85.5348 66.3526 85.596 66.3869 85.6485 66.4327C85.7011 66.4785 85.7438 66.5348 85.774 66.5981C85.8042 66.6615 85.8212 66.7304 85.8241 66.8007C85.8241 66.9518 85.7651 67.0967 85.6601 67.2035C85.5551 67.3103 85.4126 67.3703 85.2641 67.3703C85.1156 67.3703 84.9731 67.3103 84.8681 67.2035C84.7631 67.0967 84.7041 66.9518 84.7041 66.8007V66.817ZM84.8161 67.769H85.7121V70.9178H84.8001L84.8161 67.769Z" fill="#263238"/>
<path d="M89.9199 69.3392C89.9322 69.5513 89.901 69.7637 89.8285 69.9629C89.756 70.1622 89.6436 70.344 89.4985 70.4969C89.3535 70.6498 89.1788 70.7705 88.9856 70.8513C88.7924 70.9321 88.5848 70.9713 88.3759 70.9665C88.2022 70.9735 88.029 70.9431 87.8677 70.8771C87.7064 70.8112 87.5606 70.7113 87.4399 70.584V72.0486H86.5439V67.7688H87.3999V68.1268C87.5225 67.9893 87.6738 67.8814 87.8426 67.811C88.0115 67.7406 88.1937 67.7095 88.3759 67.72C88.5841 67.7152 88.791 67.7542 88.9836 67.8345C89.1763 67.9149 89.3505 68.0348 89.4955 68.1868C89.6404 68.3388 89.7529 68.5196 89.826 68.7179C89.899 68.9162 89.931 69.1277 89.9199 69.3392ZM89.0079 69.3392C88.997 69.1811 88.941 69.0298 88.8468 68.9037C88.7525 68.7776 88.6241 68.6822 88.4773 68.6293C88.3305 68.5763 88.1717 68.5681 88.0204 68.6056C87.869 68.6432 87.7318 68.7248 87.6254 68.8406C87.5191 68.9563 87.4483 69.1011 87.4217 69.2572C87.3951 69.4133 87.4138 69.5739 87.4757 69.7192C87.5375 69.8646 87.6398 69.9885 87.7699 70.0756C87.8999 70.1628 88.0522 70.2094 88.2079 70.2098C88.3179 70.21 88.4267 70.1873 88.5276 70.1429C88.6285 70.0985 88.7193 70.0334 88.7944 69.9517C88.8695 69.87 88.9272 69.7734 88.9639 69.668C89.0006 69.5627 89.0156 69.4507 89.0079 69.3392Z" fill="#263238"/>
<path d="M92.5116 70.7876C92.2922 70.9299 92.0355 71.0008 91.7756 70.991C91.6227 71.0129 91.467 70.999 91.3202 70.9505C91.1734 70.9021 91.0394 70.8202 90.9284 70.7112C90.8174 70.6022 90.7322 70.4689 90.6794 70.3214C90.6266 70.1739 90.6075 70.0161 90.6236 69.86V68.5663H90.1436V67.8584H90.6236V67.0936H91.5196V67.8584H92.3196V68.5663H91.5196V69.8437C91.5122 69.8979 91.5169 69.953 91.5333 70.0051C91.5496 70.0571 91.5772 70.1048 91.614 70.1446C91.6509 70.1844 91.696 70.2153 91.7461 70.235C91.7962 70.2548 91.85 70.2629 91.9036 70.2587C92.0325 70.2611 92.1587 70.2211 92.2636 70.1448L92.5116 70.7876Z" fill="#263238"/>
<path d="M92.9043 66.8168C92.9062 66.7455 92.9224 66.6753 92.9521 66.6106C92.9817 66.546 93.0241 66.4882 93.0766 66.4409C93.1292 66.3936 93.1907 66.3578 93.2573 66.3357C93.324 66.3136 93.3945 66.3056 93.4643 66.3123C93.5324 66.3056 93.6012 66.3131 93.6664 66.3343C93.7316 66.3555 93.7918 66.39 93.8435 66.4357C93.8951 66.4814 93.9371 66.5373 93.9668 66.6C93.9965 66.6627 94.0134 66.731 94.0163 66.8005C94 66.9388 93.9344 67.0662 93.8319 67.1586C93.7295 67.2511 93.5972 67.3021 93.4603 67.3021C93.3233 67.3021 93.1911 67.2511 93.0887 67.1586C92.9862 67.0662 92.9206 66.9388 92.9043 66.8005V66.8168ZM93.0083 67.7687H93.9123V70.9176H93.0083V67.7687Z" fill="#263238"/>
<path d="M94.512 69.339C94.4911 68.9925 94.5731 68.6476 94.7472 68.349C94.9213 68.0505 95.1796 67.812 95.4886 67.6644C95.7975 67.5169 96.1429 67.4671 96.48 67.5216C96.8171 67.576 97.1304 67.7322 97.3792 67.9698C97.628 68.2074 97.8009 68.5155 97.8756 68.8543C97.9502 69.193 97.9231 69.5467 97.7977 69.8696C97.6724 70.1925 97.4546 70.4697 97.1726 70.6652C96.8905 70.8607 96.5573 70.9656 96.216 70.9663C95.9973 70.9808 95.778 70.9494 95.5717 70.8741C95.3654 70.7988 95.1765 70.6813 95.0167 70.5287C94.857 70.3761 94.7297 70.1918 94.6429 69.9871C94.5561 69.7825 94.5115 69.5619 94.512 69.339ZM97 69.339C96.9891 69.1809 96.933 69.0296 96.8388 68.9035C96.7445 68.7774 96.6161 68.682 96.4693 68.6291C96.3225 68.5761 96.1637 68.5679 96.0124 68.6054C95.8611 68.643 95.7238 68.7246 95.6174 68.8404C95.5111 68.9561 95.4403 69.1009 95.4137 69.257C95.3871 69.4131 95.4059 69.5737 95.4677 69.719C95.5296 69.8644 95.6318 69.9883 95.7619 70.0754C95.892 70.1626 96.0442 70.2092 96.2 70.2096C96.3099 70.2098 96.4187 70.1871 96.5196 70.1427C96.6205 70.0983 96.7113 70.0332 96.7864 69.9515C96.8615 69.8698 96.9192 69.7732 96.9559 69.6678C96.9927 69.5625 97.0077 69.4505 97 69.339Z" fill="#263238"/>
<path d="M101.672 69.1118V70.9181H100.8V69.2908C100.8 68.7863 100.568 68.5504 100.168 68.5504C99.7683 68.5504 99.4323 68.8189 99.4323 69.364V70.9262H98.5283V67.7774H99.3923V68.1435C99.5248 68.0051 99.6844 67.8966 99.8609 67.8251C100.037 67.7536 100.227 67.7207 100.416 67.7286C100.593 67.72 100.769 67.7508 100.932 67.8188C101.095 67.8868 101.242 67.9904 101.362 68.1222C101.481 68.2541 101.571 68.411 101.625 68.5819C101.679 68.7529 101.695 68.9338 101.672 69.1118Z" fill="#263238"/>
<path d="M102.264 68.2898C102.261 68.2151 102.273 68.1406 102.299 68.0709C102.326 68.0012 102.366 67.9379 102.418 67.8851C102.47 67.8322 102.533 67.791 102.601 67.764C102.67 67.737 102.743 67.7249 102.816 67.7284C102.89 67.725 102.964 67.7371 103.033 67.764C103.101 67.7909 103.164 67.832 103.217 67.8847C103.269 67.9374 103.311 68.0006 103.338 68.0703C103.366 68.14 103.379 68.2147 103.376 68.2898C103.378 68.3652 103.365 68.4403 103.338 68.5104C103.311 68.5805 103.27 68.6442 103.217 68.6975C103.165 68.7509 103.102 68.7927 103.033 68.8206C102.964 68.8484 102.89 68.8616 102.816 68.8593C102.743 68.8605 102.67 68.8464 102.602 68.8181C102.534 68.7898 102.472 68.7477 102.421 68.6945C102.369 68.6413 102.329 68.578 102.302 68.5084C102.275 68.4389 102.262 68.3645 102.264 68.2898ZM102.264 70.389C102.261 70.3143 102.273 70.2398 102.299 70.1701C102.326 70.1004 102.366 70.0371 102.418 69.9843C102.47 69.9314 102.533 69.8902 102.601 69.8632C102.67 69.8362 102.743 69.8241 102.816 69.8276C102.89 69.8242 102.964 69.8363 103.033 69.8632C103.101 69.8901 103.164 69.9312 103.217 69.9839C103.269 70.0366 103.311 70.0998 103.338 70.1695C103.366 70.2392 103.379 70.3139 103.376 70.389C103.378 70.4648 103.365 70.5402 103.338 70.6107C103.311 70.6813 103.27 70.7455 103.218 70.7995C103.165 70.8535 103.103 70.8961 103.034 70.9248C102.965 70.9536 102.891 70.9678 102.816 70.9667C102.742 70.9679 102.668 70.9536 102.6 70.9248C102.531 70.896 102.469 70.8532 102.418 70.7991C102.366 70.745 102.326 70.6807 102.299 70.6101C102.273 70.5396 102.261 70.4644 102.264 70.389Z" fill="#263238"/>
<path d="M359.921 279.48H333.425V279.683H359.921V279.48Z" fill="#EBEBEB"/>
<path d="M264.975 281.693H258.023V281.897H264.975V281.693Z" fill="#EBEBEB"/>
<path d="M332.624 271.929H317.272V272.133H332.624V271.929Z" fill="#EBEBEB"/>
<path d="M76.5198 273.296H41.9678V273.499H76.5198V273.296Z" fill="#EBEBEB"/>
<path d="M88.7115 273.296H83.6475V273.499H88.7115V273.296Z" fill="#EBEBEB"/>
<path d="M180.12 276.73H105.176V276.933H180.12V276.73Z" fill="#EBEBEB"/>
<path d="M189.599 230.1H35.1354C33.9239 230.1 32.762 229.61 31.9053 228.739C31.0487 227.868 30.5674 226.686 30.5674 225.454V4.60525C30.5779 3.38013 31.0639 2.20885 31.9194 1.34635C32.7749 0.483846 33.9308 -4.69686e-05 35.1354 3.41939e-09H189.599C190.811 3.4194e-09 191.973 0.48948 192.829 1.36076C193.686 2.23204 194.167 3.41375 194.167 4.64593V225.454C194.167 226.686 193.686 227.868 192.829 228.739C191.973 229.61 190.811 230.1 189.599 230.1ZM35.1354 0.16273C33.9776 0.164881 32.8678 0.63362 32.0491 1.46629C31.2304 2.29896 30.7695 3.42768 30.7674 4.60525V225.454C30.7695 226.631 31.2304 227.76 32.0491 228.593C32.8678 229.425 33.9776 229.894 35.1354 229.896H189.599C190.757 229.894 191.867 229.425 192.686 228.593C193.504 227.76 193.965 226.631 193.967 225.454V4.60525C193.965 3.42768 193.504 2.29896 192.686 1.46629C191.867 0.63362 190.757 0.164881 189.599 0.16273H35.1354Z" fill="#EBEBEB"/>
<path d="M362.649 230.1H208.169C206.958 230.097 205.797 229.607 204.941 228.736C204.085 227.866 203.603 226.685 203.601 225.454V4.60525C203.613 3.3808 204.1 2.21074 204.955 1.3487C205.81 0.48665 206.965 0.00207341 208.169 0H362.649C363.85 0.00423463 365.002 0.490019 365.854 1.35206C366.706 2.2141 367.19 3.38294 367.201 4.60525V225.454C367.201 226.683 366.722 227.862 365.868 228.733C365.015 229.604 363.857 230.095 362.649 230.1ZM208.169 0.16273C207.011 0.164881 205.901 0.63362 205.082 1.46629C204.264 2.29896 203.803 3.42768 203.801 4.60525V225.454C203.803 226.631 204.264 227.76 205.082 228.593C205.901 229.425 207.011 229.894 208.169 229.896H362.649C363.806 229.894 364.916 229.425 365.735 228.593C366.554 227.76 367.014 226.631 367.017 225.454V4.60525C367.014 3.42768 366.554 2.29896 365.735 1.46629C364.916 0.63362 363.806 0.164881 362.649 0.16273H208.169Z" fill="#EBEBEB"/>
<path d="M400 266.389H0V266.592H400V266.389Z" fill="#EBEBEB"/>
<path d="M198.911 167.083H196.511V137.873C196.551 134.749 195.412 131.73 193.328 129.435C191.245 127.141 188.376 125.746 185.311 125.538C183.763 125.459 182.215 125.691 180.755 126.221C179.295 126.751 177.952 127.568 176.803 128.625C175.654 129.683 174.721 130.961 174.057 132.386C173.393 133.81 173.012 135.354 172.935 136.929C172.929 137.083 172.865 137.229 172.757 137.336C172.648 137.443 172.503 137.504 172.351 137.506H171.119C171.041 137.506 170.963 137.491 170.891 137.46C170.819 137.429 170.753 137.384 170.698 137.327C170.643 137.27 170.599 137.203 170.57 137.129C170.541 137.055 170.526 136.976 170.527 136.896C170.688 133.218 172.219 129.741 174.811 127.171C177.403 124.602 180.86 123.133 184.479 123.064C192.415 122.926 198.879 129.809 198.879 137.889L198.911 167.083Z" fill="#F0F0F0"/>
<path d="M354.153 170.272H337.097V266.355H354.153V170.272Z" fill="#E6E6E6"/>
<path d="M341.752 170.272H156.952V266.355H341.752V170.272Z" fill="#F5F5F5"/>
<path d="M341.752 190.28H156.952V191.907H202.352V266.356H203.952V191.907H248.112V266.356H249.712V191.907H293.88V266.356H295.48V191.907H341.752V190.28Z" fill="#E0E0E0"/>
<path d="M197.752 232.996C197.328 232.996 196.921 232.825 196.621 232.52C196.321 232.214 196.152 231.801 196.152 231.369V224.046C196.152 223.615 196.321 223.201 196.621 222.895C196.921 222.59 197.328 222.419 197.752 222.419C198.177 222.419 198.584 222.59 198.884 222.895C199.184 223.201 199.352 223.615 199.352 224.046V231.369C199.352 231.801 199.184 232.214 198.884 232.52C198.584 232.825 198.177 232.996 197.752 232.996Z" fill="#E6E6E6"/>
<path d="M208.552 232.996C208.128 232.996 207.721 232.825 207.421 232.52C207.121 232.214 206.952 231.801 206.952 231.369V224.046C206.952 223.615 207.121 223.201 207.421 222.895C207.721 222.59 208.128 222.419 208.552 222.419C208.976 222.419 209.383 222.59 209.684 222.895C209.984 223.201 210.152 223.615 210.152 224.046V231.369C210.152 231.801 209.984 232.214 209.684 232.52C209.383 232.825 208.976 232.996 208.552 232.996Z" fill="#E6E6E6"/>
<path d="M289.28 232.996C288.855 232.996 288.448 232.825 288.148 232.52C287.848 232.214 287.68 231.801 287.68 231.369V224.046C287.68 223.615 287.848 223.201 288.148 222.895C288.448 222.59 288.855 222.419 289.28 222.419C289.704 222.419 290.111 222.59 290.411 222.895C290.711 223.201 290.88 223.615 290.88 224.046V231.369C290.88 231.801 290.711 232.214 290.411 232.52C290.111 232.825 289.704 232.996 289.28 232.996Z" fill="#E6E6E6"/>
<path d="M300.08 232.996C299.656 232.996 299.249 232.825 298.949 232.52C298.649 232.214 298.48 231.801 298.48 231.369V224.046C298.48 223.615 298.649 223.201 298.949 222.895C299.249 222.59 299.656 222.419 300.08 222.419C300.505 222.419 300.912 222.59 301.212 222.895C301.512 223.201 301.68 223.615 301.68 224.046V231.369C301.68 231.801 301.512 232.214 301.212 232.52C300.912 232.825 300.505 232.996 300.08 232.996Z" fill="#E6E6E6"/>
<path d="M358.152 168.165H336.952V172.371H358.152V168.165Z" fill="#E0E0E0"/>
<path d="M343.352 168.165H152.952V172.371H343.352V168.165Z" fill="#EBEBEB"/>
<path d="M220.976 168.645H157.864C157.457 168.645 157.066 168.48 156.778 168.187C156.49 167.895 156.328 167.497 156.328 167.083C156.328 166.669 156.49 166.271 156.778 165.978C157.066 165.685 157.457 165.521 157.864 165.521H220.976C221.383 165.521 221.774 165.685 222.062 165.978C222.35 166.271 222.512 166.669 222.512 167.083C222.512 167.497 222.35 167.895 222.062 168.187C221.774 168.48 221.383 168.645 220.976 168.645Z" fill="#E6E6E6"/>
<path d="M204.944 162.892H202.552V165.984H204.944V162.892Z" fill="#E0E0E0"/>
<path d="M205.968 163.665H201.52L202.384 158.254H205.104L205.968 163.665Z" fill="#F0F0F0"/>
<path d="M192.841 162.892H190.449V165.984H192.841V162.892Z" fill="#E0E0E0"/>
<path d="M193.873 163.665H189.417L190.289 158.254H193.001L193.873 163.665Z" fill="#F0F0F0"/>
<path d="M243.577 14.1656H242.137V128.377H243.577V14.1656Z" fill="#E0E0E0"/>
<path d="M333.216 14.1656H331.776V128.377H333.216V14.1656Z" fill="#E0E0E0"/>
<path d="M338.856 21.3503H236.496L234.336 16.2244H341.016L338.856 21.3503Z" fill="#EBEBEB"/>
<path d="M338.856 28.3883H236.496L234.336 23.2623H341.016L338.856 28.3883Z" fill="#EBEBEB"/>
<path d="M338.856 35.4263H236.496L234.336 30.3003H341.016L338.856 35.4263Z" fill="#EBEBEB"/>
<path d="M338.856 42.4642H236.496L234.336 37.3383H341.016L338.856 42.4642Z" fill="#EBEBEB"/>
<path d="M338.856 49.5022H236.496L234.336 44.3762H341.016L338.856 49.5022Z" fill="#EBEBEB"/>
<path d="M338.856 56.5402H236.496L234.336 51.4142H341.016L338.856 56.5402Z" fill="#EBEBEB"/>
<path d="M338.856 63.5781H236.496L234.336 58.4521H341.016L338.856 63.5781Z" fill="#EBEBEB"/>
<path d="M338.856 70.6086H236.496L234.336 65.4907H341.016L338.856 70.6086Z" fill="#EBEBEB"/>
<path d="M338.856 77.6543H236.496L234.336 72.5201H341.016L338.856 77.6543Z" fill="#EBEBEB"/>
<path d="M338.856 84.6841H236.496L234.336 79.5581H341.016L338.856 84.6841Z" fill="#EBEBEB"/>
<path d="M338.856 91.7227H236.496L234.336 86.5967H341.016L338.856 91.7227Z" fill="#EBEBEB"/>
<path d="M338.856 98.7606H236.496L234.336 93.6346H341.016L338.856 98.7606Z" fill="#EBEBEB"/>
<path d="M338.856 105.799H236.496L234.336 100.673H341.016L338.856 105.799Z" fill="#EBEBEB"/>
<path d="M338.856 112.837H236.496L234.336 107.711H341.016L338.856 112.837Z" fill="#EBEBEB"/>
<path d="M338.856 119.875H236.496L234.336 114.749H341.016L338.856 119.875Z" fill="#EBEBEB"/>
<path d="M338.856 126.912H236.496L234.336 121.786H341.016L338.856 126.912Z" fill="#EBEBEB"/>
<path d="M341.016 126.913H234.336V129.842H341.016V126.913Z" fill="#E0E0E0"/>
<path d="M344.736 9.80469H230.616V16.6393H344.736V9.80469Z" fill="#E0E0E0"/>
<path d="M231.792 78.6065C231.484 78.6065 231.189 78.4822 230.972 78.2609C230.754 78.0397 230.632 77.7396 230.632 77.4267V37.558C230.632 37.2451 230.754 36.945 230.972 36.7237C231.189 36.5025 231.484 36.3782 231.792 36.3782C232.099 36.3782 232.395 36.5025 232.612 36.7237C232.83 36.945 232.952 37.2451 232.952 37.558V77.4267C232.952 77.7396 232.83 78.0397 232.612 78.2609C232.395 78.4822 232.099 78.6065 231.792 78.6065Z" fill="#E0E0E0"/>
<path d="M232.208 15.2722H231.368V38.9494H232.208V15.2722Z" fill="#E0E0E0"/>
<path d="M97.617 214.07H131.417V208.782H97.617V214.07Z" fill="#E0E0E0"/>
<path d="M133.416 266.348H96.6162V214.494C96.6162 213.788 96.8919 213.111 97.3825 212.613C97.873 212.114 98.5384 211.833 99.2322 211.833H130.832C131.526 211.833 132.191 212.114 132.682 212.613C133.173 213.111 133.448 213.788 133.448 214.494V266.348H133.416Z" fill="#F0F0F0"/>
<path d="M99.505 210.41H130.529C132.124 210.41 133.417 209.094 133.417 207.472V205.21C133.417 203.588 132.124 202.273 130.529 202.273H99.505C97.91 202.273 96.617 203.588 96.617 205.21V207.472C96.617 209.094 97.91 210.41 99.505 210.41Z" fill="#F0F0F0"/>
<path d="M122.616 266.356H139.816V263.915L122.616 262.288V266.356Z" fill="#E0E0E0"/>
<path d="M326.489 135.977H311.601C310.14 135.979 308.739 136.57 307.706 137.621C306.672 138.672 306.091 140.096 306.089 141.583V143.454H309.057V141.574C309.056 141.234 309.121 140.897 309.248 140.582C309.376 140.267 309.563 139.981 309.799 139.74C310.036 139.499 310.316 139.307 310.625 139.177C310.935 139.046 311.266 138.979 311.601 138.979H326.489C327.164 138.981 327.811 139.255 328.288 139.742C328.765 140.229 329.033 140.887 329.033 141.574V143.446H332.001V141.574C331.999 140.089 331.417 138.665 330.384 137.616C329.35 136.566 327.949 135.977 326.489 135.977Z" fill="#E0E0E0"/>
<path d="M344.127 147.547V164.511C344.127 165.59 343.706 166.625 342.956 167.388C342.206 168.151 341.188 168.58 340.127 168.58H303.903C302.842 168.58 301.825 168.151 301.075 167.388C300.325 166.625 299.903 165.59 299.903 164.511V147.547C299.903 146.468 300.325 145.433 301.075 144.67C301.825 143.907 302.842 143.479 303.903 143.479H340.095C340.623 143.474 341.147 143.576 341.636 143.779C342.125 143.981 342.57 144.28 342.944 144.659C343.319 145.037 343.617 145.487 343.82 145.982C344.023 146.478 344.127 147.01 344.127 147.547Z" fill="#E6E6E6"/>
<path d="M338.489 147.547V164.511C338.489 165.59 338.067 166.625 337.317 167.388C336.567 168.151 335.55 168.58 334.489 168.58H298.265C297.204 168.58 296.186 168.151 295.436 167.388C294.686 166.625 294.265 165.59 294.265 164.511V147.547C294.265 146.468 294.686 145.433 295.436 144.67C296.186 143.907 297.204 143.479 298.265 143.479H334.457C334.985 143.474 335.508 143.576 335.997 143.779C336.486 143.981 336.931 144.28 337.306 144.659C337.681 145.037 337.978 145.487 338.181 145.982C338.384 146.478 338.489 147.01 338.489 147.547Z" fill="#F5F5F5"/>
<path d="M325.944 146.367H307.056V165.577H325.944V146.367Z" fill="white"/>
<path d="M318.111 150.687H314.919V161.859H318.111V150.687Z" fill="#E0E0E0"/>
<path d="M311.024 154.642V157.888H322.008V154.642H311.024Z" fill="#E0E0E0"/>
<path d="M196.145 300C281.811 300 351.257 295.876 351.257 290.789C351.257 285.703 281.811 281.579 196.145 281.579C110.479 281.579 41.0332 285.703 41.0332 290.789C41.0332 295.876 110.479 300 196.145 300Z" fill="#F5F5F5"/>
<path d="M279.297 133.02C279.899 132.948 297.346 134.65 298.46 153.095L295.476 165.878C281.373 160.711 265.824 160.917 251.866 166.454L251.656 166.544L252.87 151.943C252.87 151.943 257.341 135.559 279.297 133.02Z" fill="#263238"/>
<path d="M242.659 222.106L246.163 222.403C247.443 200.452 249.956 178.588 253.692 156.912C254.364 153.409 255.735 150.073 257.724 147.097C259.713 144.12 262.282 141.563 265.281 139.574C266.548 138.672 267.928 137.937 269.387 137.386C272.069 136.253 274.947 135.642 277.864 135.586C279.049 135.586 280.232 135.667 281.405 135.829C284.052 136.23 286.578 137.198 288.806 138.665C289.85 139.453 290.849 140.297 291.799 141.194C292.3 141.706 292.767 142.25 293.195 142.824C294.734 145.002 295.795 147.473 296.31 150.078C296.826 152.684 296.784 155.367 296.188 157.956C292.474 177.771 289.881 197.775 288.422 217.875L291.926 218.109C293.359 198.168 295.915 178.32 299.582 158.659C300.283 155.595 300.326 152.421 299.708 149.341C299.09 146.26 297.826 143.341 295.996 140.771C294.192 138.265 291.851 136.181 289.138 134.669C286.425 133.156 283.408 132.252 280.301 132.021C266.613 131.121 252.368 142.094 250.261 156.174C246.496 177.996 243.959 200.007 242.659 222.106Z" fill="#263238"/>
<path opacity="0.3" d="M242.659 222.106L246.163 222.403C247.443 200.452 249.956 178.588 253.692 156.912C254.364 153.409 255.735 150.073 257.724 147.097C259.713 144.12 262.282 141.563 265.281 139.574C266.548 138.672 267.928 137.937 269.387 137.386C272.069 136.253 274.947 135.642 277.864 135.586C279.049 135.586 280.232 135.667 281.405 135.829C284.052 136.23 286.578 137.198 288.806 138.665C289.85 139.453 290.849 140.297 291.799 141.194C292.3 141.706 292.767 142.25 293.195 142.824C294.734 145.002 295.795 147.473 296.31 150.078C296.826 152.684 296.784 155.367 296.188 157.956C292.474 177.771 289.881 197.775 288.422 217.875L291.926 218.109C293.359 198.168 295.915 178.32 299.582 158.659C300.283 155.595 300.326 152.421 299.708 149.341C299.09 146.26 297.826 143.341 295.996 140.771C294.192 138.265 291.851 136.181 289.138 134.669C286.425 133.156 283.408 132.252 280.301 132.021C266.613 131.121 252.368 142.094 250.261 156.174C246.496 177.996 243.959 200.007 242.659 222.106Z" fill="white"/>
<path d="M291.992 220.017H211.38V218.172C211.38 216.422 212.084 214.743 213.339 213.506C214.593 212.268 216.295 211.573 218.069 211.573H285.294C287.068 211.573 288.77 212.268 290.024 213.506C291.278 214.743 291.983 216.422 291.983 218.172V220.017H291.992Z" fill="#263238"/>
<path d="M289.263 289.487H293.543L290.039 220.026H284.582L289.263 289.487Z" fill="#263238"/>
<path opacity="0.3" d="M289.263 289.487H293.543L290.039 220.026H284.582L289.263 289.487Z" fill="white"/>
<path d="M260.637 289.487H264.917L262.581 220.026H257.133L260.637 289.487Z" fill="#263238"/>
<path opacity="0.3" d="M260.637 289.487H264.917L262.581 220.026H257.133L260.637 289.487Z" fill="white"/>
<path d="M238.444 289.487H242.724L246.228 220.026H240.78L238.444 289.487Z" fill="#263238"/>
<path opacity="0.3" d="M238.444 289.487H242.724L246.228 220.026H240.78L238.444 289.487Z" fill="white"/>
<path d="M209.817 289.487H214.106L218.778 220.026H213.321L209.817 289.487Z" fill="#263238"/>
<path opacity="0.3" d="M209.817 289.487H214.106L218.778 220.026H213.321L209.817 289.487Z" fill="white"/>
<path d="M207.865 223.096H255.764V216.948H207.865V223.096Z" fill="#263238"/>
<path opacity="0.7" d="M207.865 223.096H255.764V216.948H207.865V223.096Z" fill="white"/>
<path d="M255.763 223.096H295.504V216.948H255.763V223.096Z" fill="#263238"/>
<path opacity="0.4" d="M255.763 223.096H295.504V216.948H255.763V223.096Z" fill="white"/>
<path d="M241.365 122.002C232.66 123.694 215.413 131.004 215.303 130.608C215.303 130.608 200.785 127.214 194.817 120.706C194.817 120.706 189.114 120.013 186.13 119.427C188.293 124.46 192.518 130.563 197.208 133.471C203.167 137.162 204.791 138.278 210.686 140.493C218.059 143.265 229.347 140.321 236.656 137.369C239.348 136.279 242.132 134.893 243.692 132.481C245.252 130.068 243.783 123.613 241.365 122.002Z" fill="#BB6BD9"/>
<path opacity="0.7" d="M241.365 122.002C232.66 123.694 215.413 131.004 215.303 130.608C215.303 130.608 200.785 127.214 194.817 120.706C194.817 120.706 189.114 120.013 186.13 119.427C188.293 124.46 192.518 130.563 197.208 133.471C203.167 137.162 204.791 138.278 210.686 140.493C218.059 143.265 229.347 140.321 236.656 137.369C239.348 136.279 242.132 134.893 243.692 132.481C245.252 130.068 243.783 123.613 241.365 122.002Z" fill="white"/>
<path d="M218.24 121.579H196.549C193.52 110.776 199.588 99.9103 196.549 89.0807H218.24C221.279 99.9103 215.201 110.749 218.24 121.579Z" fill="#BB6BD9"/>
<g opacity="0.7">
<path d="M218.242 121.578H196.551C193.522 110.775 199.59 99.9098 196.551 89.0802H218.242C221.281 99.9098 215.203 110.748 218.242 121.578Z" fill="white"/>
</g>
<path d="M199.944 115.817L196.468 117.464C196.082 118.586 195.347 119.559 194.369 120.246C193.394 120.789 192.359 121.221 191.285 121.533C190.515 121.772 189.692 121.786 188.915 121.573C188.138 121.361 187.44 120.931 186.904 120.336C186.671 120.104 186.514 119.809 186.452 119.488C186.39 119.167 186.427 118.835 186.558 118.535L189.888 112.396C190.076 112.05 190.343 111.752 190.668 111.526C190.992 111.299 191.366 111.15 191.759 111.091L197.234 110.235C197.575 110.179 197.926 110.215 198.247 110.34C198.569 110.466 198.85 110.675 199.059 110.947L200.665 113.026C200.831 113.248 200.944 113.503 200.997 113.774C201.051 114.044 201.042 114.323 200.973 114.59C200.905 114.856 200.776 115.105 200.599 115.317C200.421 115.529 200.197 115.7 199.944 115.817Z" fill="#CE7A63"/>
<path d="M272.955 172.809L278.093 191.3L249.878 197.268L232.841 188.365L237.604 172.458L272.955 172.809Z" fill="#BB6BD9"/>
<path opacity="0.1" d="M272.955 172.809L278.093 191.3L249.878 197.268L232.841 188.365L237.604 172.458L272.955 172.809Z" fill="black"/>
<path d="M234.857 132.633C234.343 137.372 234.322 142.15 234.793 146.893C235.057 153.266 236.463 159.964 238.224 170.298C241.755 172.342 259.65 171.496 271.075 170.037C270.381 161.035 271.522 150.665 277.727 130.329C279.169 125.612 275.957 121.083 270.828 120.606C269.46 120.471 268 120.363 266.512 120.3C261.286 119.958 256.043 119.958 250.817 120.3C249.147 120.453 247.34 120.651 245.652 120.858C239.565 121.624 235.979 126.251 234.857 132.633Z" fill="#BB6BD9"/>
<path d="M237.602 172.459C249.142 173.714 260.789 173.69 272.324 172.387C272.43 172.364 272.532 172.32 272.621 172.258C272.711 172.196 272.787 172.117 272.845 172.026C272.904 171.935 272.943 171.833 272.962 171.727C272.98 171.62 272.978 171.511 272.953 171.406V171.298C272.67 170.641 272.378 169.984 272.114 169.327C272.055 169.182 271.951 169.06 271.816 168.978C271.681 168.897 271.523 168.861 271.366 168.876C260.272 170.074 249.079 170.074 237.985 168.876C237.889 168.864 237.791 168.87 237.697 168.895C237.603 168.92 237.515 168.963 237.437 169.021C237.36 169.08 237.296 169.153 237.247 169.236C237.199 169.319 237.167 169.411 237.155 169.507C237.159 169.524 237.159 169.543 237.155 169.561C237.082 170.245 237.018 170.92 236.954 171.604C236.941 171.705 236.949 171.807 236.977 171.904C237.004 172.002 237.051 172.093 237.115 172.173C237.179 172.253 237.258 172.319 237.348 172.368C237.438 172.417 237.536 172.448 237.639 172.459H237.602Z" fill="#BB6BD9"/>
<path d="M250.406 120.022C241.874 130.824 241.281 157.525 243.425 209.972C243.617 214.545 239.173 214.212 234.82 213.329C228.341 212.006 225.768 212.483 225.768 212.483C225.768 212.483 236.107 185.702 234.427 161.684C232.748 137.666 233.916 129.177 237.868 124.775C241.819 120.373 250.406 120.022 250.406 120.022Z" fill="#BB6BD9"/>
<path opacity="0.7" d="M250.406 120.022C241.874 130.824 241.281 157.525 243.425 209.972C243.607 214.545 239.392 214.05 234.811 213.329C231.826 212.793 228.801 212.51 225.768 212.483C225.768 212.483 236.107 185.702 234.427 161.684C232.748 137.666 233.916 129.177 237.868 124.775C241.819 120.373 250.406 120.022 250.406 120.022Z" fill="white"/>
<path d="M265.426 102.854C264.066 107.814 262.387 116.969 265.672 120.3C265.672 120.3 261.338 123.73 252.149 127.034C249.411 126.341 249.986 120.3 249.986 120.3C255.726 118.968 255.89 114.899 255.196 110.983L265.426 102.854Z" fill="#CE7A63"/>
<path opacity="0.2" d="M261.257 106.166L255.188 110.973C255.359 111.864 255.451 112.768 255.462 113.674C257.643 113.368 260.773 111.045 261.175 108.813C261.356 107.942 261.384 107.047 261.257 106.166Z" fill="black"/>
<path d="M256.01 84.6245C250.035 92.5926 247.457 102.551 248.828 112.369C245.945 106.968 243.353 109.912 243.143 103.826C243.052 100.765 244.667 88.3515 246.045 85.6058C247.423 82.8601 250.243 80.6456 253.345 80.7716C254.466 80.7783 255.541 81.2103 256.348 81.9779C257.105 82.7791 256.694 83.7513 256.01 84.6245Z" fill="#263238"/>
<path d="M269.741 92.8522C268.217 100.9 267.733 104.339 263.052 108.156C256.044 113.935 246.426 110.857 245.477 102.692C244.646 95.3008 247.302 83.3819 255.706 80.7263C257.494 80.0816 259.425 79.9225 261.297 80.2656C263.169 80.6088 264.913 81.4416 266.348 82.677C267.782 83.9124 268.853 85.5051 269.45 87.2887C270.047 89.0723 270.147 90.9812 269.741 92.8162V92.8522Z" fill="#CE7A63"/>
<path d="M255.58 94.6978C255.389 95.3549 254.869 95.814 254.449 95.724C254.029 95.634 253.819 95.0219 254.011 94.3647C254.203 93.7075 254.723 93.2394 255.152 93.3295C255.58 93.4195 255.781 94.0316 255.58 94.6978Z" fill="#263238"/>
<path d="M248.645 93.05C248.454 93.7071 247.943 94.1663 247.514 94.0762C247.085 93.9862 246.884 93.3651 247.085 92.7169C247.286 92.0687 247.788 91.5916 248.217 91.6906C248.645 91.7897 248.846 92.4108 248.645 93.05Z" fill="#263238"/>
<path d="M248.398 91.7636L246.938 90.9624C246.938 90.9624 247.394 92.4118 248.398 91.7636Z" fill="#263238"/>
<path d="M252.294 102.539C251.912 102.521 251.533 102.467 251.162 102.377C251.137 102.373 251.113 102.363 251.092 102.349C251.07 102.336 251.052 102.317 251.039 102.296C251.025 102.275 251.016 102.251 251.012 102.226C251.008 102.201 251.009 102.176 251.016 102.152C251.033 102.101 251.069 102.058 251.116 102.031C251.163 102.004 251.219 101.996 251.272 102.008C252.119 102.192 252.997 102.187 253.842 101.992C254.687 101.797 255.477 101.418 256.154 100.882C256.191 100.846 256.242 100.825 256.295 100.825C256.348 100.825 256.399 100.846 256.437 100.882C256.472 100.921 256.491 100.97 256.491 101.022C256.491 101.074 256.472 101.123 256.437 101.162C255.275 102.109 253.8 102.6 252.294 102.539Z" fill="#263238"/>
<path d="M249.85 81.8071C252.405 78.3412 259.349 77.396 263.419 78.3503C277.837 81.7441 271.221 93.564 279.571 100.208C277.143 104.502 274.807 103.592 271.978 105.528C270.327 106.662 265.947 110.2 263.966 110.029C264.067 106.005 265.855 101.378 265.025 97.4259C264.301 93.4933 262.542 89.8175 259.924 86.7673C257.268 83.8866 253.682 81.609 249.85 81.8071Z" fill="#263238"/>
<path opacity="0.2" d="M249.85 81.8071C252.405 78.3412 259.349 77.396 263.419 78.3503C277.837 81.7441 271.221 93.564 279.571 100.208C277.143 104.502 274.807 103.592 271.978 105.528C270.327 106.662 265.947 110.2 263.966 110.029C264.067 106.005 265.855 101.378 265.025 97.4259C264.301 93.4933 262.542 89.8175 259.924 86.7673C257.268 83.8866 253.682 81.609 249.85 81.8071Z" fill="black"/>
<path d="M249.85 81.8071C252.405 78.3412 259.349 77.396 263.419 78.3503C277.837 81.7441 271.221 93.564 279.571 100.208C277.143 104.502 274.807 103.592 271.978 105.528C270.327 106.662 265.947 110.2 263.966 110.029C264.067 106.005 265.855 101.378 265.025 97.4259C264.301 93.4933 262.542 89.8175 259.924 86.7673C257.268 83.8866 253.682 81.609 249.85 81.8071Z" fill="#263238"/>
<path opacity="0.1" d="M249.85 81.8071C252.405 78.3412 259.349 77.396 263.419 78.3503C277.837 81.7441 271.221 93.564 279.571 100.208C277.143 104.502 274.807 103.592 271.978 105.528C270.327 106.662 265.947 110.2 263.966 110.029C264.067 106.005 265.855 101.378 265.025 97.4259C264.301 93.4933 262.542 89.8175 259.924 86.7673C257.268 83.8866 253.682 81.609 249.85 81.8071Z" fill="black"/>
<path d="M269.258 100.999C268.839 101.665 268.283 102.237 267.626 102.678C266.969 103.118 266.225 103.417 265.443 103.556C263.5 103.826 262.934 101.593 263.837 99.5409C264.677 97.7404 266.62 95.3278 268.4 96.012C270.179 96.6962 270.38 99.2438 269.258 100.999Z" fill="#CE7A63"/>
<path d="M258.692 92.0691C258.643 92.0539 258.598 92.0272 258.561 91.9911C258.525 91.955 258.497 91.9107 258.482 91.8621C258.314 91.404 258.033 90.9941 257.666 90.669C257.298 90.3438 256.854 90.1135 256.374 89.9986C256.279 89.9852 256.192 89.9351 256.134 89.8592C256.076 89.7833 256.051 89.6878 256.064 89.5935C256.06 89.5788 256.06 89.5632 256.064 89.5485C256.088 89.4423 256.153 89.3494 256.244 89.2891C256.336 89.2287 256.448 89.2056 256.557 89.2244C257.167 89.3574 257.734 89.6411 258.203 90.0488C258.672 90.4566 259.029 90.9752 259.239 91.556C259.275 91.6563 259.269 91.7663 259.223 91.8622C259.177 91.9582 259.094 92.0325 258.993 92.0691C258.896 92.1067 258.789 92.1067 258.692 92.0691Z" fill="#263238"/>
<path d="M247.112 89.1529C247.062 89.1517 247.012 89.1407 246.967 89.1205C246.921 89.1003 246.88 89.0713 246.846 89.0353C246.812 88.9992 246.786 88.9567 246.769 88.9105C246.752 88.8642 246.744 88.815 246.747 88.7658C246.749 88.7085 246.766 88.6526 246.794 88.6026C246.823 88.5526 246.863 88.5098 246.911 88.4777C247.398 88.0406 247.981 87.7206 248.614 87.5426C249.247 87.3645 249.913 87.3334 250.561 87.4514C250.657 87.4789 250.74 87.5417 250.791 87.6272C250.841 87.7126 250.857 87.814 250.835 87.9106C250.797 88.0116 250.724 88.0958 250.628 88.1472C250.532 88.1986 250.421 88.2137 250.315 88.1896C249.804 88.1049 249.28 88.1363 248.784 88.2814C248.287 88.4265 247.831 88.6814 247.449 89.0268C247.405 89.0703 247.352 89.104 247.294 89.1257C247.236 89.1475 247.174 89.1567 247.112 89.1529Z" fill="#263238"/>
<path d="M255.333 93.4102L253.873 92.609C253.873 92.609 254.329 94.0224 255.333 93.4102Z" fill="#263238"/>
<path d="M251.092 81.4646C250.472 82.1291 249.978 82.8973 249.632 83.7332C249.46 84.1506 249.384 84.6003 249.409 85.0501C249.434 85.4999 249.56 85.9387 249.778 86.3348C250.238 86.9916 250.895 87.4891 251.657 87.7572C252.404 88.0789 253.184 88.3174 253.984 88.4683C253.563 88.1228 253.253 87.6642 253.091 87.148C252.929 86.6318 252.922 86.0804 253.072 85.5606C253.161 86.0706 253.36 86.5558 253.656 86.983C253.952 87.4102 254.338 87.7694 254.787 88.0362C255.609 88.5133 256.53 88.7744 257.379 89.1975C260.053 90.5208 265.035 97.4525 261.348 111.865C264.606 110.677 269.178 99.361 268.421 96.0122C267.663 92.6633 267.508 84.0573 258.83 81.0505C256.485 80.2493 253.473 80.7984 251.092 81.4646Z" fill="#263238"/>
<path d="M208.943 281.8L201.105 282.547L196.46 260.762L205.704 259.708L208.943 281.8Z" fill="#CE7A63"/>
<path d="M197.863 280.746C198.59 280.017 199.566 279.58 200.601 279.522L209.005 278.946C209.195 278.922 209.386 278.972 209.539 279.084C209.692 279.197 209.795 279.363 209.827 279.549L211.451 287.246C211.543 287.668 211.463 288.11 211.227 288.474C210.991 288.838 210.619 289.096 210.192 289.19H210.155C206.979 290.001 204.981 289.343 200.117 289.677C197.124 289.884 190.764 291.054 186.685 290.388C182.606 289.722 183.126 285.734 184.86 285.653C191.12 285.454 196.248 282.358 197.863 280.746Z" fill="#263238"/>
<g opacity="0.2">
<path d="M196.457 260.771L199.158 273.437L207.471 271.726L205.71 259.717L196.457 260.771Z" fill="black"/>
</g>
<path d="M245.589 215.597C245.279 215.597 244.959 215.597 244.631 215.597C244.097 215.59 243.563 215.551 243.034 215.48L201.058 213.266C207.838 219.396 208.951 268.521 208.951 268.521L206.944 268.944L197.818 270.862L196.148 271.213C196.148 271.213 192.343 255.126 187.936 236.671C185.709 227.327 182.826 217.668 181.548 208.396C181.201 205.931 181 203.448 180.946 200.96C180.946 200.195 180.946 199.438 180.946 198.682C180.941 198.604 180.941 198.526 180.946 198.448C180.946 198.124 180.946 197.818 181.019 197.548C181.23 196.05 181.862 194.641 182.844 193.479L183.154 193.128C183.257 193.01 183.366 192.899 183.483 192.795C183.703 192.57 183.934 192.357 184.176 192.156C184.432 191.949 184.687 191.741 184.961 191.543L185.664 191.066C185.956 190.886 186.248 190.715 186.576 190.544C186.729 190.454 186.888 190.373 187.051 190.301C187.525 190.049 188.018 189.815 188.538 189.599L188.985 189.41L189.597 189.185C189.779 189.104 189.962 189.041 190.144 188.978C190.701 188.78 191.276 188.591 191.869 188.438L192.17 188.348H192.252C208.176 183.901 235.259 187.33 235.259 187.33C235.259 187.33 242.413 182.109 250.015 181.119L251.092 181.236L254.477 181.605C254.526 181.601 254.574 181.601 254.623 181.605C265.82 200.843 258.875 215.453 245.589 215.597Z" fill="#BB6BD9"/>
<g opacity="0.1">
<path d="M245.59 215.597C245.28 215.597 244.96 215.597 244.632 215.597C244.098 215.589 243.564 215.55 243.035 215.48L201.059 213.265C207.839 219.396 208.952 268.521 208.952 268.521L206.945 268.944L197.819 270.861L196.149 271.212C196.149 271.212 192.344 255.125 187.937 236.671C185.71 227.327 182.827 217.667 181.549 208.395C181.202 205.93 181.001 203.447 180.947 200.959C180.947 200.194 180.947 199.438 180.947 198.682C180.942 198.604 180.942 198.526 180.947 198.448C180.947 198.124 180.947 197.817 181.02 197.547C181.231 196.05 181.863 194.64 182.845 193.478L183.155 193.127C183.258 193.01 183.367 192.898 183.484 192.794C183.704 192.57 183.935 192.356 184.177 192.155C184.433 191.948 184.688 191.741 184.962 191.543L185.665 191.066C185.957 190.886 186.249 190.715 186.577 190.544C186.73 190.454 186.889 190.373 187.052 190.301C187.526 190.049 188.019 189.815 188.539 189.598L188.986 189.409L189.598 189.184C189.78 189.103 189.963 189.04 190.145 188.977C190.702 188.779 191.277 188.59 191.87 188.437L192.171 188.347H192.253C208.177 183.9 235.26 187.33 235.26 187.33C235.26 187.33 242.414 182.109 250.016 181.118L251.093 181.235L254.478 181.605C254.527 181.6 254.575 181.6 254.624 181.605C265.821 200.842 258.876 215.453 245.59 215.597Z" fill="black"/>
</g>
<path d="M157.048 244.81L154.803 248.204L149.802 255.765L141.435 256.63L147.777 243.487L152.084 234.538L157.048 244.81Z" fill="#CE7A63"/>
<path d="M143.542 250.967L150.468 255.234C150.623 255.32 150.741 255.459 150.8 255.624C150.859 255.79 150.854 255.971 150.787 256.134L147.393 263.948C147.297 264.135 147.165 264.301 147.004 264.438C146.843 264.574 146.656 264.678 146.454 264.743C146.252 264.808 146.04 264.834 145.828 264.818C145.616 264.802 145.41 264.745 145.221 264.65H145.175C141.945 262.715 140.494 261.625 136.397 259.249L126.204 253.416C122.718 251.399 124.598 247.924 126.249 248.455C133.55 250.85 138.505 251.156 141.762 250.652C142.375 250.545 143.005 250.657 143.542 250.967Z" fill="#263238"/>
<g opacity="0.2">
<path d="M157.047 244.81L154.811 248.204H154.802L147.775 243.487L152.083 234.539L157.047 244.81Z" fill="black"/>
</g>
<path d="M248.291 216.354C247.367 216.244 246.452 216.07 245.553 215.831C245.243 215.759 244.924 215.669 244.595 215.57C236.893 213.383 225.806 207.396 215.486 201.5C205.977 196.099 197.153 190.697 192.262 188.501H192.18L191.879 188.591C191.285 188.753 190.711 188.942 190.154 189.14C189.967 189.194 189.784 189.26 189.606 189.338L188.995 189.563L188.548 189.752C188.028 189.968 187.535 190.211 187.06 190.454C186.896 190.526 186.741 190.616 186.586 190.697C186.276 190.868 185.984 191.039 185.673 191.219L184.971 191.706C184.697 191.904 184.442 192.102 184.186 192.309C183.944 192.51 183.713 192.723 183.493 192.948C183.374 193.056 183.264 193.173 183.164 193.281L182.854 193.632C181.872 194.794 181.24 196.203 181.029 197.701C181.029 198.007 180.965 198.322 180.956 198.601C180.956 199.357 180.956 200.114 180.956 200.879C181.001 203.381 181.192 205.879 181.531 208.36V208.549C170.069 228.939 158.152 247.429 158.152 247.429L156.126 246.052L148.826 241.119L147.566 240.218C147.566 240.218 160.287 210.817 169.038 184.621C170.639 179.804 173.75 175.613 177.923 172.655C182.096 169.697 187.114 168.125 192.253 168.165C213.852 168.354 242.213 180.129 242.213 180.129L249.997 180.948L251.074 181.065L254.46 181.434C254.508 181.43 254.557 181.43 254.606 181.434C256.431 181.632 258.475 181.776 260.455 181.92C262.643 182.076 264.728 182.898 266.422 184.274C268.115 185.65 269.334 187.51 269.909 189.599C275.712 210.466 261.906 218.001 248.291 216.354Z" fill="#BB6BD9"/>
<path d="M248.291 216.354C247.367 216.244 246.452 216.07 245.553 215.831C245.243 215.759 244.924 215.669 244.595 215.57C236.893 213.383 225.806 207.396 215.486 201.5C205.977 196.099 197.153 190.697 192.262 188.501H192.18L191.879 188.591C191.285 188.753 190.711 188.942 190.154 189.14C189.967 189.194 189.784 189.26 189.606 189.338L188.995 189.563L188.548 189.752C188.028 189.968 187.535 190.211 187.06 190.454C186.896 190.526 186.741 190.616 186.586 190.697C186.276 190.868 185.984 191.039 185.673 191.219L184.971 191.706C184.697 191.904 184.442 192.102 184.186 192.309C183.944 192.51 183.713 192.723 183.493 192.948C183.374 193.056 183.264 193.173 183.164 193.281L182.854 193.632C181.872 194.794 181.24 196.203 181.029 197.701C181.029 198.007 180.965 198.322 180.956 198.601C180.956 199.357 180.956 200.114 180.956 200.879C181.001 203.381 181.192 205.879 181.531 208.36V208.549C170.069 228.939 158.152 247.429 158.152 247.429L156.126 246.052L148.826 241.119L147.566 240.218C147.566 240.218 160.287 210.817 169.038 184.621C170.639 179.804 173.75 175.613 177.923 172.655C182.096 169.697 187.114 168.125 192.253 168.165C213.852 168.354 242.213 180.129 242.213 180.129L249.997 180.948L251.074 181.065L254.46 181.434C254.508 181.43 254.557 181.43 254.606 181.434C256.431 181.632 258.475 181.776 260.455 181.92C262.643 182.076 264.728 182.898 266.422 184.274C268.115 185.65 269.334 187.51 269.909 189.599C275.712 210.466 261.906 218.001 248.291 216.354Z" fill="#BB6BD9"/>
<path d="M266.029 119.526C266.029 119.526 260.089 124.729 258.318 137.287C255.49 157.533 256.968 196.567 258.026 218.865C258.064 219.626 258.284 220.367 258.668 221.029C259.051 221.69 259.588 222.252 260.234 222.67C260.88 223.088 261.617 223.349 262.384 223.432C263.152 223.516 263.929 223.419 264.651 223.15C271.705 220.557 283.23 222.592 288.377 218.19C288.751 211.474 276.907 177.158 278.056 159.396C279.206 141.635 281.451 126.16 279.124 122.812C276.797 119.463 266.029 119.526 266.029 119.526Z" fill="#BB6BD9"/>
<path opacity="0.7" d="M266.031 119.526C266.031 119.526 260.09 124.729 258.32 137.287C255.491 157.533 257.124 196.567 258.192 218.865C258.229 219.626 258.447 220.367 258.83 221.028C259.212 221.69 259.748 222.252 260.393 222.67C261.039 223.088 261.775 223.35 262.542 223.433C263.31 223.516 264.086 223.419 264.808 223.15C271.862 220.557 283.232 222.592 288.406 218.19C288.78 211.474 276.935 177.158 278.085 159.396C279.235 141.635 281.48 126.16 279.153 122.812C276.826 119.463 266.031 119.526 266.031 119.526Z" fill="white"/>
<path d="M249.998 134.308C249.688 135.559 248.757 136.415 247.954 136.217C247.151 136.018 246.694 134.866 247.041 133.579C247.388 132.292 248.282 131.472 249.085 131.679C249.888 131.886 250.308 133.057 249.998 134.308Z" fill="#263238"/>
<path d="M250.9 134.434C250.69 135.505 249.887 136.234 249.075 136.117C248.646 135.951 248.297 135.632 248.098 135.223C247.898 134.814 247.862 134.346 247.998 133.912C248.199 132.831 249.011 132.111 249.823 132.228C250.251 132.394 250.6 132.714 250.8 133.123C250.999 133.532 251.035 134 250.9 134.434Z" fill="white"/>
<path d="M250.964 134.532C250.681 135.855 249.942 136.828 249.33 136.702C248.719 136.576 248.418 135.387 248.746 134.055C249.075 132.723 249.768 131.759 250.38 131.894C250.991 132.029 251.219 133.2 250.964 134.532Z" fill="#263238"/>
<path d="M227.749 134.406L223.186 134.488C222.738 134.491 222.304 134.331 221.968 134.039C221.631 133.747 221.415 133.342 221.361 132.903L221.015 130.22L228.862 130.076L229.191 132.723C229.228 132.93 229.219 133.143 229.164 133.346C229.109 133.55 229.009 133.738 228.871 133.899C228.733 134.06 228.561 134.189 228.367 134.276C228.174 134.364 227.962 134.408 227.749 134.406Z" fill="#263238"/>
<path opacity="0.7" d="M227.749 134.406L223.186 134.488C222.738 134.491 222.304 134.331 221.968 134.039C221.631 133.747 221.415 133.342 221.361 132.903L221.015 130.22L228.862 130.076L229.191 132.723C229.228 132.93 229.219 133.143 229.164 133.346C229.109 133.55 229.009 133.738 228.871 133.899C228.733 134.06 228.561 134.189 228.367 134.276C228.174 134.364 227.962 134.408 227.749 134.406Z" fill="white"/>
<path d="M235.579 132.066H234.666C235.025 132.068 235.372 132.198 235.643 132.43C235.914 132.663 236.092 132.984 236.144 133.335L239.794 162.079C239.818 162.242 239.806 162.409 239.758 162.568C239.711 162.726 239.629 162.873 239.519 162.997C239.409 163.122 239.274 163.222 239.121 163.29C238.969 163.358 238.803 163.394 238.636 163.393H239.548C239.715 163.394 239.881 163.359 240.033 163.29C240.185 163.222 240.32 163.122 240.429 162.997C240.539 162.872 240.619 162.725 240.665 162.567C240.712 162.408 240.723 162.242 240.698 162.079L237.048 133.335C236.996 132.986 236.819 132.666 236.55 132.433C236.281 132.201 235.936 132.07 235.579 132.066Z" fill="white"/>
<path opacity="0.2" d="M272.583 127.034C272.866 127.646 266.697 151.898 266.697 151.898L271.397 153.941L272.583 127.034Z" fill="black"/>
<path d="M282.703 142.698C281.635 152.213 280.65 155.931 279.965 156.966C276.425 169.866 265.164 163.376 263.54 162.845C260.729 161.944 257.827 160.054 255.145 158.83C249.925 156.498 244.997 154.653 240.115 151.691L242.616 146.371C242.616 146.371 261.35 150.386 263.804 150.872C264.872 151.106 270.192 151.97 270.073 149.152C270.621 148.198 271.105 131.895 272.638 125.387C272.815 124.657 273.141 123.971 273.596 123.37L273.751 123.172C274.773 121.804 275.448 121.813 277.319 121.885C281.398 122.047 283.323 125.153 283.752 129.158C284.154 132.921 283.159 138.989 282.703 142.698Z" fill="#BB6BD9"/>
<g opacity="0.7">
<path d="M282.702 142.697C281.634 152.212 280.649 155.93 279.964 156.966C276.424 169.866 265.163 163.375 263.539 162.844C260.728 161.944 257.826 160.053 255.144 158.829C249.924 156.498 244.996 154.652 240.114 151.69L242.615 146.37C242.615 146.37 261.349 150.385 263.803 150.871C264.871 151.105 270.191 151.969 270.072 149.152C270.62 148.198 271.104 131.895 272.637 125.386C272.814 124.657 273.14 123.971 273.595 123.369L273.75 123.171C274.772 121.803 275.447 121.812 277.318 121.884C281.397 122.046 283.322 125.152 283.751 129.158C284.153 132.921 283.158 138.988 282.702 142.697Z" fill="white"/>
</g>
<path d="M242.833 147C242.98 147.649 242.99 148.32 242.862 148.972C242.735 149.625 242.474 150.244 242.094 150.793C241.714 151.341 241.224 151.807 240.654 152.161C240.084 152.515 239.447 152.75 238.781 152.852C237.289 153.068 235.778 153.126 234.274 153.023L233.927 143.885L241.017 145.254C241.46 145.338 241.867 145.549 242.19 145.859C242.513 146.169 242.736 146.566 242.833 147Z" fill="#CE7A63"/>
<path d="M233.928 143.885L234.302 153.05L230.862 153.248C229.851 153.311 228.851 153.019 228.038 152.424C227.224 151.829 226.651 150.97 226.418 149.998L226.372 149.782C226.239 149.224 226.222 148.646 226.322 148.081C226.422 147.517 226.638 146.978 226.955 146.499C227.272 146.019 227.685 145.608 228.169 145.29C228.652 144.972 229.196 144.755 229.767 144.651L233.928 143.885Z" fill="#CE7A63"/>
<path d="M252.014 98.8939C251.323 99.0011 250.622 99.1592 249.927 99.3649C249.612 99.4748 249.286 99.5214 249.2 99.4224C249.123 99.2515 249.146 99.0477 249.265 98.8379L249.822 97.1943C250.366 95.7774 250.735 94.379 250.924 93.0125C250.204 94.441 249.658 95.86 249.293 97.2554C249.12 97.8272 248.946 98.3708 248.823 98.88C248.688 99.1568 248.702 99.4181 248.863 99.6185C248.927 99.6652 249.015 99.6969 249.119 99.7112C249.222 99.7255 249.34 99.722 249.463 99.7011C249.647 99.668 249.833 99.6201 250.015 99.5587C250.693 99.3861 251.365 99.1626 252.014 98.8939Z" fill="#263238"/>
<path d="M149.106 138.611L146.633 163.349H150.675L149.106 138.611Z" fill="#263238"/>
<path d="M180.282 163.205L151.254 163.322L149.84 138.62L178.858 138.494L180.282 163.205Z" fill="#BB6BD9"/>
<path opacity="0.6" d="M180.282 163.205L151.254 163.322L149.84 138.62L178.858 138.494L180.282 163.205Z" fill="white"/>
<path d="M177.859 138.494L148.841 138.62L148.567 133.993L177.595 133.875L177.859 138.494Z" fill="#263238"/>
<path d="M153.91 132.444C153.897 132.24 153.805 132.049 153.655 131.908C153.504 131.768 153.305 131.689 153.098 131.687C152.998 131.686 152.899 131.705 152.806 131.744C152.714 131.782 152.631 131.839 152.562 131.911C152.493 131.983 152.441 132.068 152.407 132.162C152.374 132.255 152.361 132.354 152.368 132.453C152.368 132.723 152.523 135.234 152.542 135.504C152.555 135.709 152.646 135.901 152.797 136.043C152.947 136.185 153.146 136.266 153.354 136.27C153.454 136.27 153.552 136.25 153.644 136.211C153.736 136.172 153.818 136.115 153.887 136.043C153.955 135.971 154.008 135.886 154.042 135.794C154.076 135.701 154.09 135.603 154.084 135.504C154.075 135.288 153.929 132.66 153.91 132.444Z" fill="#BB6BD9"/>
<path d="M159.495 132.425C159.484 132.22 159.393 132.027 159.243 131.885C159.092 131.742 158.892 131.662 158.683 131.66C158.583 131.66 158.483 131.68 158.391 131.72C158.298 131.759 158.215 131.817 158.147 131.89C158.078 131.963 158.026 132.049 157.992 132.142C157.959 132.236 157.946 132.335 157.953 132.434C157.953 132.705 158.108 135.216 158.127 135.486C158.143 135.691 158.236 135.882 158.388 136.022C158.54 136.162 158.74 136.241 158.948 136.242C159.048 136.243 159.147 136.223 159.238 136.184C159.33 136.145 159.412 136.088 159.481 136.016C159.549 135.944 159.602 135.859 159.636 135.767C159.67 135.674 159.684 135.575 159.678 135.477C159.66 135.261 159.514 132.642 159.495 132.425Z" fill="#BB6BD9"/>
<path d="M165.089 132.399C165.073 132.195 164.979 132.003 164.827 131.863C164.675 131.723 164.475 131.645 164.267 131.643C164.167 131.642 164.068 131.661 163.975 131.699C163.883 131.738 163.8 131.795 163.731 131.867C163.662 131.939 163.61 132.024 163.576 132.117C163.543 132.211 163.53 132.31 163.537 132.408C163.537 132.678 163.702 135.19 163.711 135.46C163.724 135.666 163.817 135.86 163.969 136.002C164.121 136.144 164.322 136.223 164.532 136.225C164.632 136.224 164.731 136.203 164.823 136.163C164.915 136.123 164.997 136.065 165.065 135.993C165.134 135.92 165.186 135.835 165.22 135.742C165.254 135.649 165.268 135.55 165.262 135.451C165.244 135.235 165.098 132.615 165.089 132.399Z" fill="#BB6BD9"/>
<path d="M170.674 132.381C170.66 132.175 170.568 131.981 170.416 131.84C170.264 131.698 170.062 131.618 169.853 131.616C169.754 131.617 169.655 131.638 169.564 131.677C169.473 131.717 169.391 131.774 169.323 131.845C169.255 131.917 169.202 132.001 169.168 132.093C169.133 132.185 169.118 132.283 169.123 132.381C169.123 132.651 169.287 135.172 169.305 135.442C169.319 135.646 169.411 135.837 169.561 135.977C169.712 136.117 169.911 136.196 170.118 136.198C170.218 136.2 170.317 136.181 170.41 136.142C170.502 136.103 170.585 136.046 170.654 135.974C170.722 135.902 170.775 135.817 170.809 135.724C170.842 135.631 170.855 135.531 170.848 135.433C170.839 135.217 170.683 132.597 170.674 132.381Z" fill="#BB6BD9"/>
<path d="M176.259 132.354C176.245 132.15 176.154 131.959 176.003 131.819C175.853 131.678 175.654 131.6 175.447 131.598C175.347 131.596 175.247 131.615 175.155 131.654C175.063 131.692 174.979 131.749 174.911 131.821C174.842 131.893 174.789 131.979 174.756 132.072C174.723 132.165 174.709 132.264 174.717 132.363C174.717 132.633 174.872 135.145 174.89 135.415C174.9 135.62 174.99 135.814 175.141 135.955C175.293 136.096 175.494 136.173 175.702 136.171C175.803 136.172 175.902 136.153 175.994 136.115C176.087 136.076 176.17 136.019 176.239 135.947C176.307 135.875 176.36 135.79 176.393 135.697C176.427 135.603 176.44 135.504 176.432 135.406C176.396 135.19 176.268 132.57 176.259 132.354Z" fill="#BB6BD9"/>
<g opacity="0.7">
<path d="M152.909 132.444C152.896 132.24 152.804 132.049 152.654 131.908C152.503 131.768 152.304 131.689 152.097 131.687C151.997 131.686 151.898 131.705 151.805 131.744C151.713 131.782 151.63 131.839 151.561 131.911C151.492 131.983 151.44 132.068 151.406 132.162C151.373 132.255 151.36 132.354 151.367 132.453C151.367 132.723 151.522 135.234 151.541 135.504C151.554 135.709 151.645 135.901 151.796 136.043C151.946 136.185 152.145 136.266 152.353 136.27C152.453 136.27 152.551 136.25 152.643 136.211C152.735 136.172 152.817 136.115 152.886 136.043C152.954 135.971 153.007 135.886 153.041 135.794C153.075 135.701 153.089 135.603 153.083 135.504C153.074 135.288 152.928 132.66 152.909 132.444Z" fill="white"/>
<path d="M158.493 132.426C158.482 132.22 158.391 132.027 158.241 131.885C158.09 131.743 157.89 131.662 157.681 131.66C157.581 131.66 157.481 131.68 157.389 131.72C157.296 131.759 157.213 131.817 157.145 131.89C157.076 131.963 157.024 132.049 156.99 132.142C156.957 132.236 156.944 132.336 156.951 132.435C156.951 132.705 157.106 135.216 157.125 135.486C157.141 135.691 157.234 135.882 157.386 136.022C157.538 136.162 157.738 136.241 157.946 136.243C158.046 136.243 158.145 136.223 158.236 136.184C158.328 136.145 158.411 136.088 158.479 136.016C158.547 135.944 158.6 135.859 158.634 135.767C158.668 135.674 158.682 135.576 158.676 135.477C158.658 135.261 158.512 132.642 158.493 132.426Z" fill="white"/>
<path d="M164.089 132.399C164.073 132.195 163.979 132.003 163.827 131.863C163.675 131.723 163.475 131.645 163.267 131.643C163.167 131.642 163.068 131.661 162.975 131.699C162.883 131.738 162.8 131.795 162.731 131.867C162.662 131.939 162.61 132.024 162.576 132.117C162.543 132.211 162.53 132.31 162.537 132.408C162.537 132.678 162.702 135.19 162.711 135.46C162.724 135.666 162.817 135.86 162.969 136.002C163.121 136.144 163.322 136.223 163.532 136.225C163.632 136.224 163.731 136.203 163.823 136.163C163.915 136.123 163.997 136.065 164.065 135.993C164.134 135.92 164.186 135.835 164.22 135.742C164.254 135.649 164.268 135.55 164.262 135.451C164.244 135.235 164.098 132.615 164.089 132.399Z" fill="white"/>
<path d="M169.672 132.381C169.659 132.175 169.566 131.982 169.414 131.84C169.262 131.698 169.061 131.618 168.851 131.616C168.752 131.617 168.653 131.638 168.562 131.677C168.471 131.717 168.389 131.774 168.321 131.845C168.253 131.917 168.2 132.001 168.166 132.093C168.131 132.185 168.116 132.283 168.121 132.381C168.121 132.651 168.285 135.172 168.304 135.442C168.317 135.646 168.409 135.837 168.559 135.977C168.71 136.117 168.909 136.196 169.116 136.198C169.216 136.2 169.315 136.181 169.408 136.142C169.5 136.104 169.583 136.047 169.652 135.975C169.721 135.903 169.773 135.817 169.807 135.724C169.84 135.631 169.853 135.532 169.846 135.433C169.837 135.217 169.681 132.597 169.672 132.381Z" fill="white"/>
<path d="M175.256 132.354C175.242 132.15 175.151 131.959 175 131.819C174.85 131.678 174.651 131.599 174.444 131.598C174.344 131.596 174.244 131.615 174.152 131.654C174.06 131.692 173.977 131.749 173.908 131.821C173.839 131.893 173.786 131.979 173.753 132.072C173.72 132.165 173.706 132.264 173.714 132.363C173.714 132.633 173.869 135.144 173.887 135.415C173.897 135.62 173.987 135.814 174.138 135.955C174.29 136.096 174.491 136.173 174.7 136.171C174.8 136.172 174.899 136.153 174.992 136.115C175.084 136.076 175.167 136.019 175.236 135.947C175.304 135.875 175.357 135.79 175.39 135.696C175.424 135.603 175.437 135.504 175.43 135.406C175.393 135.189 175.265 132.57 175.256 132.354Z" fill="white"/>
</g>
<path d="M181.094 162.512L152.066 162.629L149.84 138.62L178.858 138.494L181.094 162.512Z" fill="#BB6BD9"/>
<path opacity="0.8" d="M180.094 162.512L151.066 162.629L148.84 138.62L177.858 138.494L180.094 162.512Z" fill="white"/>
<path d="M172.719 144.426L158.346 144.48L157.954 140.258L172.326 140.195L172.719 144.426Z" fill="#BB6BD9"/>
<path opacity="0.6" d="M172.719 144.426L158.346 144.48L157.954 140.258L172.326 140.195L172.719 144.426Z" fill="white"/>
<path d="M156.438 149.954L152.596 149.972L152.24 146.182L156.082 146.164L156.438 149.954Z" fill="white"/>
<path d="M161.877 149.927L158.044 149.945L157.688 146.164L161.53 146.146L161.877 149.927Z" fill="white"/>
<path d="M156.904 155.057L153.072 155.075L152.716 151.286L156.558 151.268L156.904 155.057Z" fill="#BB6BD9"/>
<path d="M157.378 160.162L153.545 160.18L153.189 156.39L157.031 156.381L157.378 160.162Z" fill="#BB6BD9"/>
<path d="M162.352 155.039L158.519 155.048L158.163 151.267L161.996 151.249L162.352 155.039Z" fill="#BB6BD9"/>
<path opacity="0.2" d="M162.352 155.039L158.519 155.048L158.163 151.267L161.996 151.249L162.352 155.039Z" fill="white"/>
<path d="M167.8 155.012L163.958 155.03L163.611 151.24L167.444 151.222L167.8 155.012Z" fill="#BB6BD9"/>
<path opacity="0.2" d="M167.8 155.012L163.958 155.03L163.611 151.24L167.444 151.222L167.8 155.012Z" fill="white"/>
<path d="M173.239 154.995L169.407 155.004L169.051 151.223L172.893 151.205L173.239 154.995Z" fill="#BB6BD9"/>
<path opacity="0.2" d="M173.239 154.995L169.407 155.004L169.051 151.223L172.893 151.205L173.239 154.995Z" fill="white"/>
<path d="M178.685 154.967L174.843 154.985L174.496 151.196L178.329 151.187L178.685 154.967Z" fill="#BB6BD9"/>
<path opacity="0.2" d="M178.685 154.967L174.843 154.985L174.496 151.196L178.329 151.187L178.685 154.967Z" fill="white"/>
<path d="M162.826 160.144L158.984 160.162L158.638 156.372L162.479 156.354L162.826 160.144Z" fill="#BB6BD9"/>
<path opacity="0.2" d="M162.826 160.144L158.984 160.162L158.638 156.372L162.479 156.354L162.826 160.144Z" fill="white"/>
<path d="M168.267 160.117L164.434 160.135L164.078 156.345L167.92 156.336L168.267 160.117Z" fill="#BB6BD9"/>
<path opacity="0.2" d="M168.267 160.117L164.434 160.135L164.078 156.345L167.92 156.336L168.267 160.117Z" fill="white"/>
<path d="M173.713 160.099L169.88 160.117L169.524 156.327L173.366 156.309L173.713 160.099Z" fill="#BB6BD9"/>
<path opacity="0.2" d="M173.713 160.099L169.88 160.117L169.524 156.327L173.366 156.309L173.713 160.099Z" fill="white"/>
<path d="M167.324 149.909L163.483 149.927L163.136 146.137L166.968 146.119L167.324 149.909Z" fill="#BB6BD9"/>
<path opacity="0.2" d="M167.324 149.909L163.483 149.927L163.136 146.137L166.968 146.119L167.324 149.909Z" fill="white"/>
<path d="M172.764 149.881L168.931 149.899L168.575 146.118L172.417 146.1L172.764 149.881Z" fill="#BB6BD9"/>
<path opacity="0.2" d="M172.764 149.881L168.931 149.899L168.575 146.118L172.417 146.1L172.764 149.881Z" fill="white"/>
<path d="M178.212 149.863L174.37 149.881L174.023 146.091L177.856 146.073L178.212 149.863Z" fill="#BB6BD9"/>
<path opacity="0.2" d="M178.212 149.863L174.37 149.881L174.023 146.091L177.856 146.073L178.212 149.863Z" fill="white"/>
<path d="M179.161 160.072L175.319 160.09L174.973 156.309L178.805 156.291L179.161 160.072Z" fill="white"/>
<path d="M111.952 170.505V175.997H79.2475L75.7161 290.532H72.7139V170.505H111.952Z" fill="#263238"/>
<path opacity="0.7" d="M111.952 170.505V175.997H79.2475L75.7161 290.532H72.7139V170.505H111.952Z" fill="white"/>
<path d="M72.7143 290.532H69.8764L68.9639 170.505H72.7143V290.532Z" fill="#263238"/>
<g opacity="0.3">
<path d="M72.7143 290.532H69.8764L68.9639 170.505H72.7143V290.532Z" fill="white"/>
</g>
<path d="M121.26 170.505V290.532H118.285L115.639 175.997H112.135V170.505H121.26Z" fill="#263238"/>
<path d="M118.623 290.532H115.785L112.135 170.505H115.885L118.623 290.532Z" fill="#263238"/>
<g opacity="0.3">
<path d="M118.624 290.532H115.786L112.136 170.505H115.886L118.624 290.532Z" fill="white"/>
</g>
<path opacity="0.7" d="M121.26 170.505V290.532H118.285L115.639 175.997H112.135V170.505H121.26Z" fill="white"/>
<path d="M299.724 290.532H296.895L293.245 170.505H296.986L299.724 290.532Z" fill="#263238"/>
<path opacity="0.3" d="M293.245 170.505H296.986L299.724 290.532H296.895" fill="white"/>
<path d="M251.105 170.505H72.7334V179.607H251.105V170.505Z" fill="#263238"/>
<path opacity="0.5" d="M251.105 170.505H72.7334V179.607H251.105V170.505Z" fill="white"/>
<path d="M254.005 170.505V290.532H256.998L260.529 175.988H296.748L299.394 290.532H302.369V170.505H254.005Z" fill="#263238"/>
<path opacity="0.7" d="M254.005 170.505V290.532H256.998L260.529 175.988H296.748L299.394 290.532H302.369V170.505H254.005Z" fill="white"/>
<path d="M254.006 290.532H251.168L250.256 170.505H254.006V290.532Z" fill="#263238"/>
<path opacity="0.3" d="M254.006 290.532H251.168L250.256 170.505H254.006V290.532Z" fill="white"/>
<path d="M251.661 163.601H64V170.505H251.661V163.601Z" fill="#263238"/>
<path opacity="0.6" d="M251.661 163.601H64V170.505H251.661V163.601Z" fill="white"/>
<path d="M307.333 163.601H247.308V170.505H307.333V163.601Z" fill="#263238"/>
<path opacity="0.7" d="M307.333 163.601H247.308V170.505H307.333V163.601Z" fill="white"/>
<path d="M176.394 67.5023L162.169 62.8963C159.597 62.0634 156.848 63.5091 156.029 66.1253L140.499 115.737C139.68 118.353 141.101 121.149 143.674 121.982L157.898 126.588C160.47 127.421 163.22 125.975 164.039 123.359L179.569 73.7475C180.388 71.1313 178.966 68.3352 176.394 67.5023Z" fill="black"/>
<path opacity="0.8" d="M179.792 72.4147C179.783 72.8764 179.708 73.3342 179.568 73.7735L164.04 123.406C163.987 123.575 163.926 123.74 163.856 123.902C163.371 125.025 162.495 125.926 161.396 126.431C160.297 126.936 159.053 127.009 157.904 126.636L143.672 122.031C142.459 121.635 141.445 120.774 140.848 119.629C140.25 118.485 140.115 117.148 140.472 115.904L149.432 87.2882L156 66.1252C156.192 65.5014 156.504 64.9222 156.916 64.4208C157.329 63.9194 157.834 63.5057 158.404 63.2034C158.974 62.9011 159.597 62.7161 160.238 62.659C160.878 62.6019 161.523 62.6738 162.136 62.8706L176.4 67.5328C176.711 67.634 177.012 67.7676 177.296 67.9315C178.077 68.3735 178.723 69.0257 179.163 69.8166C179.604 70.6074 179.821 71.5064 179.792 72.4147Z" fill="white"/>
<g opacity="0.6">
<path opacity="0.5" d="M145.375 100.169L151.831 79.5589L170.111 65.4666L177.311 67.9075C178.093 68.3501 178.74 69.0036 179.18 69.796C179.621 70.5885 179.837 71.4891 179.807 72.3988L145.375 100.169Z" fill="white"/>
</g>
<path opacity="0.5" d="M154.399 71.2756L155.999 66.1252C156.192 65.5014 156.503 64.9222 156.915 64.4208C157.328 63.9194 157.834 63.5057 158.404 63.2034C158.974 62.9011 159.597 62.7161 160.237 62.659C160.877 62.6019 161.522 62.6738 162.135 62.8706L164.271 63.5622L154.399 71.2756Z" fill="white"/>
<path d="M164.215 71.0721C164.103 71.4309 163.888 71.7477 163.599 71.9826C163.31 72.2174 162.958 72.3597 162.589 72.3914C162.22 72.4232 161.851 72.3429 161.527 72.1609C161.202 71.9788 160.939 71.7032 160.769 71.3687C160.599 71.0342 160.53 70.6559 160.571 70.2817C160.613 69.9075 160.762 69.5542 161.001 69.2664C161.24 68.9787 161.557 68.7693 161.913 68.665C162.268 68.5606 162.646 68.5658 162.999 68.68C163.234 68.7549 163.452 68.8764 163.641 69.0374C163.829 69.1985 163.984 69.3959 164.097 69.6183C164.21 69.8407 164.279 70.0837 164.299 70.3332C164.32 70.5827 164.291 70.8339 164.215 71.0721Z" fill="#F2C94C"/>
<path d="M160.648 82.4473C160.536 82.8043 160.322 83.1195 160.033 83.3528C159.745 83.5862 159.395 83.7274 159.027 83.7585C158.66 83.7895 158.292 83.7092 157.969 83.5275C157.647 83.3458 157.385 83.0709 157.216 82.7377C157.047 82.4044 156.979 82.0277 157.021 81.6552C157.062 81.2827 157.212 80.9311 157.45 80.6449C157.688 80.3586 158.004 80.1506 158.358 80.0471C158.712 79.9436 159.089 79.9492 159.44 80.0633C159.673 80.1391 159.89 80.2609 160.077 80.4217C160.264 80.5826 160.418 80.7793 160.53 81.0007C160.642 81.2221 160.71 81.4638 160.73 81.712C160.751 81.9602 160.723 82.2101 160.648 82.4473Z" fill="#F2C94C"/>
<path d="M157.088 93.8302C156.977 94.1899 156.763 94.5079 156.474 94.744C156.185 94.9801 155.834 95.1237 155.465 95.1565C155.095 95.1893 154.725 95.1099 154.4 94.9283C154.075 94.7467 153.811 94.4711 153.64 94.1365C153.469 93.8019 153.4 93.4233 153.441 93.0486C153.482 92.674 153.632 92.3202 153.871 92.032C154.11 91.7439 154.428 91.5344 154.784 91.4301C155.14 91.3259 155.519 91.3315 155.872 91.4462C156.106 91.5212 156.323 91.6424 156.511 91.8029C156.699 91.9634 156.853 92.16 156.966 92.3815C157.079 92.603 157.148 92.8449 157.169 93.0935C157.19 93.3422 157.162 93.5925 157.088 93.8302Z" fill="#F2C94C"/>
<path d="M153.527 105.213C153.414 105.572 153.2 105.888 152.911 106.123C152.621 106.358 152.27 106.5 151.901 106.532C151.532 106.564 151.162 106.484 150.838 106.302C150.514 106.119 150.25 105.844 150.08 105.509C149.91 105.175 149.841 104.797 149.883 104.422C149.924 104.048 150.074 103.695 150.312 103.407C150.551 103.119 150.868 102.91 151.224 102.806C151.58 102.701 151.958 102.706 152.311 102.821C152.546 102.896 152.764 103.017 152.952 103.178C153.141 103.339 153.296 103.537 153.409 103.759C153.522 103.981 153.591 104.224 153.611 104.474C153.631 104.723 153.603 104.975 153.527 105.213Z" fill="#F2C94C"/>
<path d="M149.967 116.588C149.856 116.947 149.642 117.265 149.353 117.502C149.064 117.738 148.713 117.881 148.343 117.914C147.974 117.947 147.604 117.867 147.279 117.686C146.954 117.504 146.69 117.229 146.519 116.894C146.348 116.559 146.279 116.181 146.32 115.806C146.361 115.432 146.511 115.078 146.75 114.79C146.989 114.501 147.307 114.292 147.663 114.188C148.019 114.083 148.398 114.089 148.751 114.204C149.221 114.359 149.612 114.696 149.839 115.142C150.067 115.588 150.113 116.108 149.967 116.588Z" fill="#F2C94C"/>
<path d="M173.208 73.9855C173.035 74.4372 172.7 74.8049 172.27 75.0138C171.84 75.2227 171.348 75.2569 170.894 75.1096C170.44 74.9623 170.058 74.6445 169.827 74.2209C169.595 73.7974 169.531 73.3 169.648 72.8301C169.71 72.578 169.823 72.3417 169.979 72.1356C170.134 71.9295 170.33 71.758 170.553 71.6317C170.777 71.5054 171.023 71.427 171.277 71.4012C171.532 71.3755 171.788 71.4029 172.032 71.482C172.275 71.561 172.5 71.6899 172.693 71.8607C172.886 72.0315 173.042 72.2406 173.152 72.4752C173.262 72.7097 173.324 72.9647 173.334 73.2245C173.343 73.4842 173.3 73.7432 173.208 73.9855Z" fill="#F2C94C"/>
<path d="M169.648 85.36C169.536 85.717 169.323 86.0322 169.035 86.2659C168.747 86.4997 168.397 86.6414 168.03 86.6732C167.663 86.705 167.295 86.6255 166.972 86.4446C166.65 86.2638 166.387 85.9898 166.217 85.6572C166.048 85.3246 165.979 84.9484 166.019 84.576C166.06 84.2036 166.208 83.8517 166.445 83.5648C166.682 83.2779 166.997 83.0689 167.35 82.9641C167.704 82.8593 168.08 82.8634 168.432 82.976C168.903 83.1292 169.296 83.466 169.523 83.9128C169.751 84.3595 169.796 84.8798 169.648 85.36Z" fill="#F2C94C"/>
<path d="M166.088 96.7428C165.977 97.1025 165.763 97.4205 165.474 97.6566C165.185 97.8927 164.834 98.0363 164.465 98.0691C164.095 98.1019 163.725 98.0225 163.4 97.8409C163.075 97.6593 162.811 97.3837 162.64 97.0491C162.469 96.7145 162.4 96.3359 162.441 95.9612C162.482 95.5866 162.632 95.2328 162.871 94.9446C163.11 94.6565 163.428 94.447 163.784 94.3427C164.14 94.2384 164.519 94.2441 164.872 94.3588C165.342 94.5139 165.733 94.851 165.961 95.2971C166.188 95.7433 166.234 96.2627 166.088 96.7428Z" fill="#F2C94C"/>
<path d="M162.519 108.126C162.347 108.578 162.011 108.946 161.581 109.154C161.151 109.363 160.659 109.398 160.205 109.25C159.751 109.103 159.37 108.785 159.138 108.362C158.907 107.938 158.843 107.441 158.959 106.971C159.022 106.719 159.134 106.482 159.29 106.276C159.446 106.07 159.641 105.899 159.865 105.772C160.088 105.646 160.335 105.568 160.589 105.542C160.843 105.516 161.1 105.544 161.343 105.623C161.587 105.702 161.812 105.83 162.005 106.001C162.197 106.172 162.353 106.381 162.464 106.616C162.574 106.85 162.635 107.105 162.645 107.365C162.655 107.625 162.612 107.884 162.519 108.126Z" fill="#F2C94C"/>
<path d="M158.959 119.501C158.847 119.858 158.634 120.173 158.346 120.407C158.058 120.64 157.709 120.782 157.342 120.814C156.975 120.846 156.606 120.766 156.284 120.585C155.961 120.404 155.698 120.13 155.529 119.798C155.359 119.465 155.29 119.089 155.331 118.717C155.371 118.344 155.519 117.992 155.756 117.705C155.993 117.419 156.308 117.21 156.662 117.105C157.016 117 157.392 117.004 157.743 117.117C158.215 117.27 158.607 117.607 158.835 118.053C159.063 118.5 159.108 119.02 158.959 119.501Z" fill="#F2C94C"/>
<g opacity="0.4">
<path d="M164.216 71.0724C164.104 71.4311 163.889 71.748 163.6 71.9828C163.311 72.2176 162.959 72.3599 162.59 72.3917C162.221 72.4234 161.852 72.3432 161.527 72.1611C161.203 71.9791 160.94 71.7034 160.77 71.3689C160.6 71.0344 160.531 70.6562 160.572 70.282C160.614 69.9078 160.763 69.5545 161.002 69.2667C161.241 68.9789 161.558 68.7696 161.914 68.6652C162.269 68.5608 162.647 68.566 163 68.6802C163.235 68.7551 163.453 68.8766 163.642 69.0377C163.83 69.1987 163.985 69.3961 164.098 69.6185C164.211 69.841 164.28 70.0839 164.3 70.3335C164.321 70.583 164.292 70.8341 164.216 71.0724Z" fill="white"/>
<path d="M160.649 82.4475C160.537 82.8046 160.323 83.1197 160.034 83.3531C159.746 83.5865 159.396 83.7276 159.028 83.7587C158.661 83.7898 158.293 83.7094 157.97 83.5277C157.648 83.346 157.386 83.0712 157.217 82.7379C157.048 82.4047 156.98 82.028 157.022 81.6555C157.063 81.283 157.213 80.9314 157.451 80.6451C157.689 80.3589 158.005 80.1509 158.359 80.0473C158.713 79.9438 159.09 79.9495 159.441 80.0635C159.674 80.1393 159.891 80.2611 160.078 80.422C160.265 80.5828 160.418 80.7796 160.531 81.001C160.643 81.2224 160.711 81.4641 160.731 81.7123C160.752 81.9605 160.724 82.2103 160.649 82.4475Z" fill="white"/>
<path d="M157.089 93.8305C156.978 94.1901 156.764 94.5082 156.475 94.7443C156.186 94.9804 155.835 95.1239 155.466 95.1567C155.096 95.1895 154.726 95.1101 154.401 94.9285C154.076 94.747 153.812 94.4714 153.641 94.1368C153.47 93.8021 153.401 93.4235 153.442 93.0489C153.483 92.6742 153.633 92.3204 153.872 92.0323C154.111 91.7441 154.429 91.5347 154.785 91.4304C155.141 91.3261 155.52 91.3317 155.873 91.4465C156.107 91.5214 156.324 91.6426 156.512 91.8031C156.699 91.9636 156.854 92.1602 156.967 92.3817C157.08 92.6032 157.149 92.8452 157.17 93.0938C157.191 93.3424 157.163 93.5928 157.089 93.8305Z" fill="white"/>
<path d="M153.529 105.213C153.416 105.572 153.202 105.889 152.913 106.123C152.623 106.358 152.272 106.501 151.903 106.532C151.534 106.564 151.164 106.484 150.84 106.302C150.516 106.12 150.252 105.844 150.082 105.51C149.912 105.175 149.843 104.797 149.885 104.423C149.926 104.048 150.076 103.695 150.314 103.407C150.553 103.12 150.87 102.91 151.226 102.806C151.582 102.701 151.96 102.707 152.313 102.821C152.548 102.896 152.766 103.017 152.954 103.178C153.143 103.339 153.298 103.537 153.411 103.759C153.524 103.982 153.593 104.225 153.613 104.474C153.633 104.724 153.604 104.975 153.529 105.213Z" fill="white"/>
<path d="M149.969 116.588C149.858 116.948 149.644 117.266 149.355 117.502C149.066 117.738 148.715 117.881 148.345 117.914C147.976 117.947 147.606 117.868 147.281 117.686C146.956 117.505 146.692 117.229 146.521 116.894C146.35 116.56 146.281 116.181 146.322 115.806C146.363 115.432 146.513 115.078 146.752 114.79C146.991 114.502 147.309 114.292 147.665 114.188C148.021 114.084 148.399 114.089 148.753 114.204C149.223 114.359 149.614 114.696 149.841 115.142C150.069 115.589 150.115 116.108 149.969 116.588Z" fill="white"/>
</g>
<g opacity="0.4">
<path d="M173.208 73.9855C173.035 74.4372 172.7 74.8049 172.27 75.0138C171.84 75.2227 171.348 75.2569 170.894 75.1096C170.44 74.9623 170.058 74.6445 169.827 74.2209C169.595 73.7974 169.531 73.3 169.648 72.8301C169.71 72.578 169.823 72.3417 169.979 72.1356C170.134 71.9295 170.33 71.758 170.553 71.6317C170.777 71.5054 171.023 71.427 171.277 71.4012C171.532 71.3755 171.788 71.4029 172.032 71.482C172.275 71.561 172.5 71.6899 172.693 71.8607C172.886 72.0315 173.042 72.2406 173.152 72.4752C173.262 72.7097 173.324 72.9647 173.334 73.2245C173.343 73.4842 173.3 73.7432 173.208 73.9855Z" fill="white"/>
<path d="M169.648 85.36C169.536 85.717 169.323 86.0322 169.035 86.2659C168.747 86.4997 168.397 86.6414 168.03 86.6732C167.663 86.705 167.295 86.6255 166.972 86.4446C166.65 86.2638 166.387 85.9898 166.217 85.6572C166.048 85.3246 165.979 84.9484 166.019 84.576C166.06 84.2036 166.208 83.8517 166.445 83.5648C166.682 83.2779 166.997 83.0689 167.35 82.9641C167.704 82.8593 168.08 82.8634 168.432 82.976C168.903 83.1292 169.296 83.466 169.523 83.9128C169.751 84.3595 169.796 84.8798 169.648 85.36Z" fill="white"/>
<path d="M166.088 96.7428C165.977 97.1025 165.763 97.4205 165.474 97.6566C165.185 97.8927 164.834 98.0363 164.465 98.0691C164.095 98.1019 163.725 98.0225 163.4 97.8409C163.075 97.6593 162.811 97.3837 162.64 97.0491C162.469 96.7145 162.4 96.3359 162.441 95.9612C162.482 95.5866 162.632 95.2328 162.871 94.9446C163.11 94.6565 163.428 94.447 163.784 94.3427C164.14 94.2384 164.519 94.2441 164.872 94.3588C165.342 94.5139 165.733 94.851 165.961 95.2971C166.188 95.7433 166.234 96.2627 166.088 96.7428Z" fill="white"/>
<path d="M162.52 108.126C162.348 108.578 162.012 108.946 161.582 109.154C161.152 109.363 160.66 109.398 160.206 109.25C159.752 109.103 159.371 108.785 159.139 108.362C158.908 107.938 158.844 107.441 158.96 106.971C159.023 106.719 159.135 106.482 159.291 106.276C159.447 106.07 159.642 105.899 159.866 105.772C160.089 105.646 160.336 105.568 160.59 105.542C160.844 105.516 161.101 105.544 161.344 105.623C161.588 105.702 161.813 105.83 162.006 106.001C162.198 106.172 162.354 106.381 162.465 106.616C162.575 106.85 162.636 107.105 162.646 107.365C162.656 107.625 162.613 107.884 162.52 108.126Z" fill="white"/>
<path d="M158.96 119.501C158.848 119.858 158.635 120.173 158.347 120.407C158.059 120.64 157.71 120.782 157.343 120.814C156.975 120.846 156.607 120.766 156.285 120.585C155.962 120.404 155.699 120.13 155.53 119.798C155.36 119.465 155.291 119.089 155.332 118.717C155.372 118.344 155.52 117.992 155.757 117.705C155.994 117.419 156.309 117.21 156.663 117.105C157.017 117 157.393 117.004 157.744 117.117C158.216 117.27 158.608 117.607 158.836 118.053C159.064 118.5 159.109 119.02 158.96 119.501Z" fill="white"/>
</g>
<path opacity="0.7" d="M149.472 124.489L124.896 129.647C123.765 129.883 122.589 129.653 121.624 129.008C120.66 128.362 119.987 127.355 119.752 126.205L112.68 91.3324C112.219 89.0852 112.49 86.7467 113.451 84.6699C114.412 82.593 116.012 80.8905 118.008 79.8193C118.876 79.351 119.805 79.0112 120.768 78.8104L133.464 76.1497C134.803 75.8667 136.185 75.8552 137.529 76.1161C138.873 76.3769 140.153 76.905 141.296 77.6699C142.439 78.4348 143.422 79.4216 144.19 80.5737C144.957 81.7258 145.493 83.0206 145.768 84.3838L152.848 119.257C152.965 119.826 152.97 120.413 152.864 120.984C152.757 121.555 152.541 122.099 152.227 122.585C151.914 123.071 151.509 123.49 151.036 123.816C150.563 124.143 150.032 124.371 149.472 124.489Z" fill="white"/>
<path d="M146.09 85.9827L112.995 92.9287L118.247 118.811L151.341 111.865L146.09 85.9827Z" fill="#F2C94C"/>
<path opacity="0.4" d="M146.09 85.9827L112.995 92.9287L118.247 118.811L151.341 111.865L146.09 85.9827Z" fill="white"/>
<path d="M116.858 71.2894L134.878 67.5072C135.17 67.4461 135.47 67.4439 135.762 67.5008C136.054 67.5577 136.332 67.6725 136.58 67.8387C136.829 68.0049 137.042 68.2192 137.209 68.4694C137.376 68.7196 137.493 69.0008 137.553 69.297L138.257 72.7633L115.77 77.4828L115.061 73.9846C115.005 73.6876 115.007 73.3822 115.067 73.086C115.127 72.7898 115.243 72.5086 115.41 72.2583C115.577 72.008 115.791 71.7936 116.039 71.6274C116.288 71.4611 116.566 71.3463 116.858 71.2894Z" fill="#F2C94C"/>
<path opacity="0.7" d="M137.336 76.0761C136.052 75.8568 134.739 75.8816 133.464 76.1494L120.8 78.81C119.838 79.0108 118.908 79.3506 118.04 79.8189L117.496 77.1257L136.76 73.0575L137.336 76.0761Z" fill="white"/>
<path opacity="0.3" d="M117.68 81.7393C117.669 81.6068 117.618 81.4811 117.532 81.3805C117.447 81.2799 117.332 81.2095 117.205 81.1796C117.077 81.1497 116.944 81.1618 116.824 81.2142C116.703 81.2665 116.603 81.3564 116.536 81.4708C115.642 82.9287 115.233 84.6402 115.368 86.3527C115.8 89.2818 121.944 121.218 122.888 126.108C122.97 126.51 123.184 126.872 123.496 127.133C123.704 127.301 123.947 127.419 124.206 127.476C124.465 127.534 124.734 127.531 124.992 127.466L125.928 127.23L117.928 85.4821C117.928 85.4821 117.784 83.4805 117.68 81.7393Z" fill="white"/>
</svg>
