<svg width="245" height="200" viewBox="0 0 245 200" fill="none" xmlns="http://www.w3.org/2000/svg">
<path d="M82.8672 8.1897V48.0919H14.4502L11.9854 8.46883L82.8672 8.1897Z" fill="#E0E0E0"/>
<path d="M11.9854 8.46883L11.9854 48.0077H80.4024V8.46883H11.9854Z" fill="white"/>
<path d="M80.7145 48.278H11.6628V8.19421H80.7145V48.278ZM12.3081 47.7375H80.0798V8.74804H12.3081V47.7375Z" fill="#E0E0E0"/>
<path d="M72.9921 13.3781H19.3957V43.0942H72.9921V13.3781Z" fill="white"/>
<path d="M72.9922 13.378H72.7278H71.9661H69.0253L57.9706 13.4444L19.3853 13.5109L19.5386 13.378C19.5386 22.4563 19.5386 32.5183 19.5386 43.0897L19.3694 42.9479L72.9922 43.0055L72.86 43.1163C72.8917 34.0734 72.9129 26.661 72.9288 21.4949C72.9288 18.9162 72.9552 16.9003 72.9658 15.518C72.9658 14.8356 72.9658 14.3128 72.9658 13.9451C72.9658 13.5773 72.9658 13.4001 72.9658 13.4001C72.9658 13.4001 72.9658 13.5729 72.9658 13.9229C72.9658 14.273 72.9658 14.8091 72.9658 15.4737C72.9658 16.8471 72.9658 18.8586 72.9975 21.4284C72.9975 26.6078 73.0398 34.0424 73.0716 43.1384V43.2536H72.934L19.3377 43.2802H19.1684V43.1384C19.1684 32.567 19.1684 22.505 19.1684 13.4267V13.2982H19.3218L58.0077 13.3602L69.0147 13.3957H71.9291H72.6749L72.9922 13.378Z" fill="#E0E0E0"/>
<path d="M11.9855 8.35803C12.407 8.52911 12.8014 8.74342 13.1597 8.99604C13.8632 9.41695 14.8153 10.0195 15.8414 10.7063C16.8675 11.393 17.7773 12.0354 18.4173 12.5405C18.7836 12.7846 19.1123 13.0659 19.3958 13.3779C19.3588 13.44 17.6873 12.3013 15.6563 10.9278C13.6252 9.5543 11.9538 8.42006 11.9855 8.35803Z" fill="#E0E0E0"/>
<path d="M80.4025 8.4688C80.4607 8.5264 78.8527 9.67836 76.8058 11.0341C74.7588 12.3899 73.0504 13.44 72.9922 13.3779C72.934 13.3159 74.5472 12.1684 76.5942 10.8126C78.6412 9.45683 80.3443 8.40677 80.4025 8.4688Z" fill="#E0E0E0"/>
<path d="M80.3496 48.012L72.7224 42.8326L80.3496 48.012Z" fill="white"/>
<path d="M72.7224 42.8328C72.7806 42.7752 74.5367 43.8829 76.6418 45.314C78.7469 46.7451 80.4078 47.9724 80.3443 48.0122C80.2808 48.0521 78.5301 46.9622 76.4249 45.5355C74.3198 44.1089 72.6643 42.8949 72.7224 42.8328Z" fill="#E0E0E0"/>
<path d="M11.9855 48.0078C11.9273 47.9458 13.5247 46.8071 15.5452 45.469C17.5657 44.131 19.2477 43.0854 19.3217 43.1474C19.3958 43.2094 17.772 44.3348 15.7568 45.6906C13.7415 47.0463 12.0437 48.0698 11.9855 48.0078Z" fill="#E0E0E0"/>
<path d="M30.2811 22.6335V32.5847H64.0056V22.6335H30.2811Z" fill="#EBEBEB"/>
<path d="M158.806 139.234V144.764H130.434C129.559 144.764 128.719 144.472 128.1 143.954C127.481 143.435 127.133 142.732 127.133 141.999C127.133 141.266 127.481 140.562 128.1 140.044C128.719 139.526 129.559 139.234 130.434 139.234" fill="#E0E0E0"/>
<path d="M149.269 140.395H158.79V143.607H149.269C148.809 143.607 148.367 143.454 148.042 143.182C147.717 142.909 147.534 142.539 147.534 142.154V141.844C147.535 141.459 147.719 141.091 148.044 140.819C148.369 140.548 148.81 140.395 149.269 140.395Z" fill="#FAFAFA"/>
<path d="M158.806 133.705V139.234H130.434C129.559 139.234 128.719 138.943 128.1 138.424C127.481 137.906 127.133 137.203 127.133 136.47C127.133 135.736 127.481 135.033 128.1 134.515C128.719 133.996 129.559 133.705 130.434 133.705H158.806Z" fill="#F5F5F5"/>
<path d="M149.269 134.861H158.79V138.074H149.269C148.809 138.074 148.367 137.92 148.042 137.648C147.717 137.375 147.534 137.006 147.534 136.62V136.31C147.535 135.925 147.719 135.557 148.044 135.285C148.369 135.014 148.81 134.861 149.269 134.861Z" fill="#E0E0E0"/>
<path d="M104.744 136.049L100.232 144.919H103.136L105.141 140.182L104.744 136.049Z" fill="#E0E0E0"/>
<path d="M118.591 128.016L120.331 144.919H105.595L103.977 128.016H118.591Z" fill="#EBEBEB"/>
<path d="M117.152 129.358L118.676 143.514L107.611 143.638L106.119 129.274L117.152 129.358Z" fill="#FAFAFA"/>
<path d="M114.804 131.317L115.671 141.06H109.768L108.727 131.317H114.804Z" fill="#E0E0E0"/>
<path d="M170.59 144.764H90.8383V150.944H170.59V144.764Z" fill="#F5F5F5"/>
<path d="M167.411 199.212L95.6938 199.46V150.944H167.411V199.212Z" fill="#F5F5F5"/>
<path d="M170.59 150.944C170.59 151.011 152.734 151.064 130.714 151.064C108.695 151.064 90.8383 151.011 90.8383 150.944C90.8383 150.878 108.69 150.825 130.714 150.825C152.739 150.825 170.59 150.878 170.59 150.944Z" fill="#E0E0E0"/>
<path d="M161.498 171.423C161.498 171.423 161.498 171.321 161.498 171.13C161.498 170.94 161.498 170.647 161.498 170.275C161.498 169.522 161.498 168.419 161.471 166.988C161.471 164.13 161.471 159.974 161.418 154.759L161.514 154.839L101.628 154.879L101.771 154.759C101.771 160.55 101.771 166.163 101.771 171.423L101.634 171.307L144.477 171.361L156.991 171.396H160.355H161.228H161.53H161.244H160.392H157.055L144.572 171.427L101.639 171.485H101.501V171.365C101.501 166.106 101.501 160.492 101.501 154.701V154.657H101.649L161.535 154.697H161.63V154.777C161.63 160.009 161.593 164.183 161.577 167.054C161.577 168.476 161.577 169.571 161.577 170.324C161.577 170.687 161.577 170.966 161.577 171.161C161.577 171.356 161.498 171.423 161.498 171.423Z" fill="#E0E0E0"/>
<path d="M103.987 169.238C103.711 169.656 103.354 170.032 102.929 170.35C102.581 170.722 102.158 171.041 101.681 171.294C101.957 170.878 102.315 170.503 102.739 170.187C103.088 169.814 103.51 169.493 103.987 169.238Z" fill="#E0E0E0"/>
<path d="M103.987 156.943C103.059 156.33 102.257 155.594 101.613 154.763C102.538 155.38 103.339 156.115 103.987 156.943Z" fill="#E0E0E0"/>
<path d="M161.604 154.812C161.259 155.262 160.818 155.654 160.302 155.969C159.853 156.342 159.352 156.669 158.811 156.944C159.155 156.494 159.596 156.102 160.112 155.787C160.562 155.414 161.062 155.087 161.604 154.812Z" fill="#E0E0E0"/>
<path d="M161.503 171.427C160.477 170.817 159.569 170.079 158.811 169.238C159.349 169.512 159.835 169.851 160.255 170.244C160.739 170.584 161.16 170.983 161.503 171.427Z" fill="#E0E0E0"/>
<path d="M158.811 169.238C158.811 169.238 158.811 169.163 158.811 169.021C158.811 168.88 158.811 168.667 158.811 168.397C158.811 167.843 158.811 167.032 158.811 165.986C158.811 163.882 158.784 160.816 158.763 156.943L158.853 157.019L104.024 157.063L104.173 156.943C104.173 161.17 104.173 165.291 104.173 169.238L104.03 169.119L143.17 169.176L154.685 169.207H157.79H158.599H158.88H158.615H157.827H154.754L143.271 169.238L104.046 169.292H103.908V169.172C103.908 165.224 103.908 161.104 103.908 156.877V156.757H103.987L158.816 156.802H158.901V156.873C158.901 160.763 158.864 163.842 158.853 165.96C158.853 167.001 158.853 167.803 158.853 168.352C158.853 168.618 158.853 168.822 158.853 168.964C158.853 169.105 158.811 169.238 158.811 169.238Z" fill="#E0E0E0"/>
<path d="M136.829 161.946C136.37 161.702 135.873 161.513 135.353 161.383C134.882 161.259 134.392 161.196 133.898 161.197H129.863C128.671 161.184 127.519 161.557 126.647 162.238C126.459 162.38 126.297 162.545 126.165 162.725C125.977 162.979 125.89 163.276 125.919 163.574C125.947 163.871 126.089 164.153 126.324 164.378C126.853 164.786 127.911 164.586 127.99 163.993C128.002 164.186 128.06 164.375 128.16 164.55C128.26 164.724 128.401 164.88 128.574 165.009C128.746 165.137 128.948 165.236 129.166 165.299C129.385 165.362 129.616 165.388 129.847 165.375C130.311 165.327 130.748 165.164 131.102 164.908C131.456 164.651 131.711 164.313 131.836 163.935C131.862 164.253 132.024 164.553 132.293 164.78C132.561 165.006 132.918 165.144 133.298 165.169C133.678 165.193 134.056 165.102 134.362 164.912C134.669 164.722 134.883 164.446 134.967 164.134C135.469 164.679 136.204 165.184 137.056 164.954C137.292 164.885 137.503 164.768 137.671 164.613C137.839 164.458 137.959 164.271 138.019 164.068C138.107 163.654 138.04 163.228 137.827 162.848C137.613 162.468 137.265 162.153 136.829 161.946Z" fill="#E0E0E0"/>
<path d="M130.582 161.179C129.934 161.506 129.371 161.939 128.926 162.451C128.481 162.963 128.163 163.544 127.99 164.161C127.928 163.972 127.928 163.773 127.99 163.585C128.108 163.124 128.34 162.689 128.672 162.309C129 161.926 129.422 161.608 129.91 161.374C130.307 161.201 130.571 161.152 130.582 161.179Z" fill="#F5F5F5"/>
<path d="M132.126 161.303C132.209 162.199 132.096 163.1 131.793 163.962C131.708 163.521 131.717 163.071 131.82 162.632C131.827 162.178 131.931 161.728 132.126 161.303Z" fill="#F5F5F5"/>
<path d="M134.073 161.303C134.073 161.281 134.306 161.347 134.544 161.573C134.842 161.869 135.038 162.228 135.109 162.61C135.176 162.985 135.176 163.365 135.109 163.74C135.062 164.023 135.004 164.183 134.967 164.183C134.93 164.183 134.908 164.001 134.903 163.74C134.91 163.38 134.882 163.02 134.819 162.663C134.748 162.316 134.597 161.983 134.374 161.684C134.205 161.427 134.046 161.303 134.073 161.303Z" fill="#F5F5F5"/>
<path d="M161.498 193.695C161.498 193.695 161.498 193.593 161.498 193.399C161.498 193.204 161.498 192.92 161.498 192.548C161.498 191.795 161.498 190.691 161.471 189.26C161.471 186.398 161.471 182.242 161.418 177.032L161.514 177.107L101.628 177.151L101.771 177.032C101.771 182.818 101.771 188.436 101.771 193.695L101.634 193.58L144.477 193.633L156.991 193.664H160.355H161.228H161.53H161.244H160.392H157.055L144.572 193.695L101.639 193.749H101.501V193.633C101.501 188.374 101.501 182.756 101.501 176.97V176.846H101.649L161.535 176.89H161.63V176.97C161.63 182.202 161.593 186.376 161.577 189.247C161.577 190.665 161.577 191.764 161.577 192.517C161.577 192.88 161.577 193.159 161.577 193.354C161.577 193.549 161.498 193.695 161.498 193.695Z" fill="#E0E0E0"/>
<path d="M103.987 191.511C103.366 192.299 102.592 192.993 101.697 193.567C101.974 193.15 102.331 192.774 102.755 192.455C103.099 192.084 103.515 191.765 103.987 191.511Z" fill="#E0E0E0"/>
<path d="M103.987 179.216C103.494 178.94 103.056 178.599 102.692 178.206C102.265 177.866 101.907 177.469 101.634 177.032C102.557 177.651 103.358 178.388 104.009 179.216H103.987Z" fill="#E0E0E0"/>
<path d="M161.604 177.081C161.261 177.531 160.819 177.924 160.302 178.237C159.85 178.609 159.35 178.937 158.811 179.216C159.155 178.766 159.596 178.374 160.112 178.06C160.564 177.688 161.064 177.359 161.604 177.081Z" fill="#E0E0E0"/>
<path d="M161.503 193.696C160.962 193.424 160.473 193.085 160.054 192.69C159.571 192.351 159.152 191.954 158.811 191.511C159.35 191.783 159.837 192.123 160.255 192.517C160.738 192.856 161.159 193.253 161.503 193.696Z" fill="#E0E0E0"/>
<path d="M158.811 191.511C158.811 191.511 158.811 191.436 158.811 191.294C158.811 191.152 158.811 190.94 158.811 190.669C158.811 190.111 158.811 189.305 158.811 188.259C158.811 186.15 158.785 183.088 158.763 179.216L158.853 179.287L103.987 179.336L104.136 179.216C104.136 183.443 104.136 187.563 104.136 191.511L103.993 191.391L143.134 191.445L154.648 191.48H157.753H158.562H158.843H158.578H157.79H154.717L143.234 191.511L104.009 191.564H103.871V191.449C103.871 187.501 103.871 183.381 103.871 179.154V179.034H103.987L158.816 179.079H158.901V179.154C158.901 183.044 158.864 186.123 158.853 188.237C158.853 189.278 158.853 190.08 158.853 190.634C158.853 190.9 158.853 191.099 158.853 191.245C158.853 191.391 158.811 191.511 158.811 191.511Z" fill="#E0E0E0"/>
<path d="M136.829 184.218C136.37 183.975 135.873 183.786 135.353 183.656C134.883 183.528 134.392 183.464 133.898 183.465H129.863C128.671 183.455 127.52 183.827 126.647 184.506C126.462 184.65 126.3 184.814 126.165 184.994C125.977 185.247 125.89 185.544 125.919 185.842C125.947 186.14 126.089 186.422 126.324 186.646C126.853 187.054 127.911 186.859 127.99 186.265C128.003 186.458 128.061 186.647 128.162 186.822C128.262 186.996 128.403 187.151 128.575 187.28C128.748 187.408 128.949 187.507 129.167 187.57C129.385 187.633 129.616 187.66 129.847 187.648C130.311 187.599 130.748 187.437 131.102 187.18C131.456 186.924 131.711 186.586 131.836 186.208C131.862 186.526 132.024 186.826 132.293 187.053C132.561 187.279 132.918 187.417 133.298 187.441C133.678 187.465 134.056 187.374 134.362 187.184C134.669 186.994 134.883 186.719 134.967 186.407C135.469 186.948 136.204 187.457 137.056 187.227C137.291 187.157 137.502 187.04 137.67 186.885C137.838 186.73 137.958 186.543 138.019 186.341C138.108 185.927 138.041 185.501 137.828 185.12C137.614 184.74 137.265 184.425 136.829 184.218Z" fill="#E0E0E0"/>
<path d="M130.582 183.456C129.934 183.783 129.371 184.216 128.926 184.728C128.481 185.24 128.163 185.821 127.99 186.438C127.928 186.25 127.928 186.05 127.99 185.862C128.107 185.401 128.339 184.966 128.672 184.586C129 184.204 129.422 183.885 129.91 183.651C130.307 183.456 130.571 183.425 130.582 183.456Z" fill="#F5F5F5"/>
<path d="M132.126 183.594C132.209 184.489 132.096 185.39 131.793 186.252C131.708 185.811 131.717 185.361 131.82 184.923C131.827 184.468 131.931 184.018 132.126 183.594Z" fill="#F5F5F5"/>
<path d="M134.073 183.554C134.073 183.527 134.306 183.598 134.544 183.82C134.841 184.117 135.037 184.477 135.109 184.861C135.176 185.235 135.176 185.616 135.109 185.991C135.062 186.274 135.004 186.434 134.967 186.434C134.93 186.434 134.908 186.252 134.903 185.991C134.91 185.63 134.882 185.27 134.819 184.914C134.749 184.566 134.598 184.233 134.374 183.935C134.205 183.7 134.046 183.585 134.073 183.554Z" fill="#F5F5F5"/>
<path d="M216.015 4.14453H180.777V34.9108H216.015V4.14453Z" fill="#E0E0E0"/>
<path d="M213.629 4.14453H178.392V34.9108H213.629V4.14453Z" fill="#EBEBEB"/>
<path d="M208.89 8.28271H183.126V30.777H208.89V8.28271Z" fill="white"/>
<path d="M183.126 30.9277C182.936 31.1492 182.72 31.354 182.481 31.5392C182.068 31.898 181.491 32.3898 180.841 32.9259C180.19 33.4621 179.598 33.9361 179.164 34.2551C178.941 34.4529 178.693 34.6297 178.424 34.7824C178.615 34.563 178.831 34.3597 179.069 34.1754C179.482 33.8121 180.063 33.3203 180.709 32.7842C181.354 32.2481 181.957 31.7696 182.396 31.4284C182.617 31.2404 182.862 31.0726 183.126 30.9277Z" fill="#E0E0E0"/>
<path d="M208.89 30.8701C209.152 31.0311 209.397 31.212 209.62 31.4107C210.053 31.7562 210.635 32.2436 211.275 32.7841C211.915 33.3247 212.487 33.8253 212.888 34.1931C213.124 34.3792 213.335 34.5857 213.518 34.8089C213.256 34.6501 213.014 34.4706 212.793 34.2728C212.36 33.9272 211.772 33.4399 211.132 32.8949C210.492 32.3499 209.921 31.8493 209.514 31.486C209.283 31.298 209.074 31.0917 208.89 30.8701Z" fill="#E0E0E0"/>
<path d="M208.821 8.34033C209.008 8.11815 209.223 7.91319 209.461 7.7289C209.874 7.37002 210.456 6.87823 211.106 6.34212C211.757 5.80602 212.349 5.32751 212.783 5.01293C213.005 4.80796 213.251 4.6224 213.518 4.45911C213.33 4.67922 213.116 4.88262 212.878 5.0661C212.465 5.42941 211.884 5.92121 211.233 6.45732C210.582 6.99342 209.99 7.47193 209.551 7.81309C209.331 8.01036 209.086 8.18713 208.821 8.34033Z" fill="#E0E0E0"/>
<path d="M183.057 8.39793C182.793 8.23843 182.548 8.05736 182.327 7.85739C181.893 7.5118 181.306 7.02444 180.672 6.4839C180.037 5.94336 179.46 5.4427 179.053 5.07496C178.823 4.88468 178.613 4.67868 178.424 4.45911C178.689 4.6157 178.934 4.7954 179.154 4.99521C179.587 5.3408 180.174 5.82817 180.814 6.37313C181.454 6.9181 182.026 7.41433 182.428 7.78207C182.663 7.96821 182.874 8.17464 183.057 8.39793Z" fill="#E0E0E0"/>
<path d="M208.821 30.7771C208.821 30.7771 208.821 30.7372 208.821 30.6663C208.821 30.5954 208.821 30.4891 208.821 30.3561C208.821 30.077 208.821 29.6694 208.821 29.1421C208.821 28.0788 208.821 26.5281 208.821 24.5565C208.821 20.6176 208.795 15.004 208.779 8.28279L208.863 8.35368H183.173L183.269 8.27393C183.269 16.5282 183.269 24.2552 183.269 30.7682L183.184 30.6973L201.792 30.7327H207.018H208.398H207.033H201.829L183.168 30.7682H183.083V30.7771C183.083 24.264 183.083 16.537 183.083 8.28279V8.19861H183.184H208.874H208.959V8.2695C208.959 15.0085 208.922 20.6398 208.911 24.5919C208.911 26.5547 208.911 28.0965 208.911 29.1599C208.911 29.6783 208.911 30.0814 208.911 30.3561V30.7638L208.821 30.7771Z" fill="#E0E0E0"/>
<path d="M189.928 17.6802C189.928 17.6802 189.372 23.2495 196.576 23.2495C196.576 20.2765 193.646 17.9283 189.928 17.6802Z" fill="#EBEBEB"/>
<path d="M203.103 17.6844C203.103 17.6844 196.455 17.2192 196.455 23.2537C200.004 23.2537 202.802 20.7992 203.103 17.6844Z" fill="#EBEBEB"/>
<path d="M196.254 14.6495C196.254 14.6495 190.822 18.7346 196.555 23.2627C199.195 20.8834 198.994 17.175 196.254 14.6495Z" fill="#E0E0E0"/>
<path d="M0 199.46C0 199.393 54.85 199.344 122.495 199.344C190.139 199.344 245 199.393 245 199.46C245 199.526 190.161 199.575 122.495 199.575C54.8288 199.575 0 199.522 0 199.46Z" fill="#263238"/>
<path d="M197.74 38.9603H43.0231V119.261H197.74V38.9603Z" fill="white"/>
<path d="M197.74 30.0016H43.0231V39.9129H197.74V30.0016Z" fill="#BB6BD9"/>
<path d="M47.1646 45.8188V113.271H192.176V59.5892H97.3917V45.8188H47.1646Z" fill="#FAFAFA"/>
<path d="M72.1724 49.3723V54.6359H70.7178V50.3515H69.459V49.3723H72.1724Z" fill="#263238"/>
<path d="M144.17 46.869H101.814V56.036H144.17V46.869Z" fill="#EBEBEB"/>
<path d="M125.541 53.2402V54.1263H121.31V53.4219L123.479 51.7072C123.976 51.3085 124.066 51.0692 124.066 50.8211C124.066 50.4534 123.759 50.2363 123.166 50.2363C122.941 50.2287 122.718 50.2676 122.515 50.3495C122.312 50.4314 122.136 50.5538 122.003 50.7059L121.051 50.1964C121.309 49.907 121.648 49.675 122.038 49.5206C122.428 49.3661 122.857 49.2939 123.288 49.3103C124.536 49.3103 125.372 49.8508 125.372 50.7059C125.372 51.149 125.219 51.592 124.436 52.1902L123.14 53.2136L125.541 53.2402Z" fill="#263238"/>
<path d="M191.192 46.869H148.835V56.036H191.192V46.869Z" fill="#EBEBEB"/>
<path d="M172.933 52.6908C172.933 53.4839 172.204 54.2105 170.606 54.2105C169.848 54.2227 169.103 54.047 168.464 53.7054L168.993 52.8725C169.458 53.1459 170.012 53.2928 170.58 53.2934C171.23 53.2934 171.638 53.0718 171.638 52.6908C171.638 52.3098 171.325 52.1104 170.58 52.1104H169.987V51.3926L171.14 50.2938H168.75V49.4077H172.685V50.1122L171.415 51.3217C171.833 51.3367 172.226 51.4889 172.51 51.7451C172.794 52.0014 172.946 52.3412 172.933 52.6908Z" fill="#263238"/>
<path d="M88.7228 67.7371C88.7228 67.7992 81.5769 67.8523 72.7703 67.8523C63.9636 67.8523 56.8177 67.7992 56.8177 67.7371C56.8177 67.6751 63.9583 67.6219 72.7703 67.6219C81.5822 67.6219 88.7228 67.6707 88.7228 67.7371Z" fill="#263238"/>
<path d="M182.528 74.4984C182.528 74.5648 154.384 74.6136 119.676 74.6136C84.9674 74.6136 56.8177 74.5648 56.8177 74.4984C56.8177 74.4319 84.9515 74.3832 119.676 74.3832C154.4 74.3832 182.528 74.4363 182.528 74.4984Z" fill="#263238"/>
<path d="M182.528 79.5891C182.528 79.6511 154.384 79.7043 119.676 79.7043C84.9674 79.7043 56.8177 79.6511 56.8177 79.5891C56.8177 79.527 84.9515 79.4739 119.676 79.4739C154.4 79.4739 182.528 79.5226 182.528 79.5891Z" fill="#263238"/>
<path d="M182.528 84.6755C182.528 84.7375 154.384 84.7907 119.676 84.7907C84.9674 84.7907 56.8177 84.7375 56.8177 84.6755C56.8177 84.6135 84.9515 84.5603 119.676 84.5603C154.4 84.5603 182.528 84.6135 182.528 84.6755Z" fill="#263238"/>
<path d="M112.064 90.4841C112.064 90.5506 99.8618 90.5993 84.8138 90.5993C69.7658 90.5993 57.5687 90.5506 57.5687 90.4841C57.5687 90.4176 69.7658 90.3689 84.8138 90.3689C99.8618 90.3689 112.064 90.4132 112.064 90.4841Z" fill="#263238"/>
<path d="M177.35 94.9899H147.582C143.256 94.9899 139.748 97.9277 139.748 101.552C139.748 105.176 143.256 108.113 147.582 108.113H177.35C181.676 108.113 185.183 105.176 185.183 101.552C185.183 97.9277 181.676 94.9899 177.35 94.9899Z" fill="#BB6BD9"/>
<path d="M155.32 98.8047V103.514H154.262L151.459 100.657V103.514H150.174V98.8047H151.232L154.03 101.667V98.8047H155.32Z" fill="white"/>
<path d="M160.779 101.999H157.51C157.577 102.225 157.74 102.423 157.967 102.556C158.194 102.69 158.471 102.75 158.748 102.726C158.943 102.731 159.137 102.702 159.319 102.643C159.5 102.584 159.666 102.494 159.806 102.38L160.477 102.983C160.249 103.184 159.97 103.341 159.661 103.442C159.352 103.543 159.02 103.586 158.689 103.568C157.198 103.568 156.225 102.783 156.225 101.707C156.221 101.455 156.278 101.206 156.394 100.973C156.509 100.741 156.68 100.531 156.896 100.357C157.112 100.182 157.369 100.046 157.65 99.9574C157.931 99.8688 158.231 99.8293 158.531 99.8415C158.831 99.8252 159.131 99.8627 159.412 99.9513C159.693 100.04 159.949 100.178 160.161 100.355C160.374 100.533 160.539 100.747 160.646 100.982C160.752 101.217 160.797 101.469 160.779 101.72C160.8 101.8 160.784 101.933 160.779 101.999ZM157.494 101.388H159.61C159.61 101.153 159.498 100.927 159.3 100.761C159.102 100.595 158.833 100.502 158.552 100.502C158.271 100.502 158.002 100.595 157.804 100.761C157.606 100.927 157.494 101.153 157.494 101.388Z" fill="white"/>
<path d="M164.285 103.514L163.339 102.407L162.355 103.514H160.99L162.651 101.693L161.064 99.8947H162.471L163.386 100.954L164.285 99.8947H165.618L164.032 101.667L165.698 103.514H164.285Z" fill="white"/>
<path d="M169.083 103.342C168.777 103.501 168.422 103.58 168.062 103.568C167.041 103.568 166.449 103.125 166.449 102.269V100.785H165.782V99.9744H166.449V99.0883H167.702V99.9744H168.76V100.785H167.702V102.256C167.696 102.317 167.706 102.379 167.73 102.437C167.754 102.495 167.792 102.548 167.841 102.593C167.891 102.638 167.951 102.673 168.018 102.698C168.086 102.722 168.158 102.735 168.231 102.735C168.411 102.735 168.587 102.688 168.734 102.602L169.083 103.342Z" fill="white"/>
<path d="M47.1648 45.8189L97.413 45.7435H97.4977V45.8189C97.4977 50.0767 97.4977 54.6801 97.4977 59.5892L97.4025 59.5095L192.181 59.4785H192.319V59.5892C192.319 76.3458 192.319 94.4848 192.319 113.262V113.386H192.181L47.1701 113.359H47.0643V113.271C47.1277 71.8222 47.1648 46.5233 47.1648 45.8189C47.1648 46.5233 47.2071 71.8222 47.2706 113.271L47.1648 113.182L192.176 113.155L192.038 113.271C192.038 94.4937 192.038 76.3547 192.038 59.5981L192.171 59.7088L97.3919 59.6823H97.2914V59.5981C97.2914 54.7244 97.2914 50.0855 97.2914 45.8277L97.3813 45.8986L47.1648 45.8189Z" fill="#263238"/>
<path d="M52.0043 34.9551C52.0106 35.2254 51.9202 35.4911 51.7448 35.7181C51.5694 35.9451 51.317 36.123 51.02 36.2289C50.723 36.3347 50.3949 36.3638 50.0781 36.3124C49.7612 36.2609 49.4699 36.1312 49.2416 35.9401C49.0134 35.7489 48.8586 35.5049 48.7972 35.2394C48.7357 34.974 48.7705 34.6992 48.8969 34.4504C49.0233 34.2016 49.2356 33.9902 49.5066 33.8432C49.7776 33.6963 50.0948 33.6206 50.4175 33.6259C50.8363 33.6316 51.2359 33.7734 51.532 34.0215C51.8281 34.2695 51.9975 34.6043 52.0043 34.9551Z" fill="white"/>
<path d="M57.045 34.9549C57.0513 35.2241 56.9618 35.4888 56.7878 35.7152C56.6138 35.9417 56.3633 36.1196 56.0682 36.2263C55.7731 36.333 55.4467 36.3637 55.1306 36.3144C54.8146 36.2651 54.5233 36.1381 54.2937 35.9496C54.0642 35.7611 53.9069 35.5196 53.8418 35.2559C53.7767 34.9922 53.8069 34.7183 53.9284 34.469C54.0499 34.2197 54.2573 34.0064 54.5241 33.8562C54.7909 33.706 55.1051 33.6258 55.4265 33.6257C55.8503 33.6257 56.2573 33.7648 56.5599 34.0134C56.8625 34.2619 57.0367 34.6 57.045 34.9549Z" fill="white"/>
<path d="M62.0805 34.9549C62.0868 35.2243 61.9971 35.4892 61.8229 35.7157C61.6487 35.9422 61.3979 36.1201 61.1024 36.2267C60.807 36.3333 60.4803 36.3637 60.1642 36.3141C59.848 36.2644 59.5566 36.137 59.3273 35.9481C59.098 35.7591 58.9411 35.5172 58.8766 35.2532C58.8121 34.9892 58.843 34.7151 58.9654 34.4659C59.0877 34.2167 59.2959 34.0037 59.5634 33.854C59.8309 33.7044 60.1456 33.6249 60.4672 33.6257C60.8902 33.6268 61.2957 33.7665 61.5972 34.0149C61.8987 34.2633 62.0722 34.6007 62.0805 34.9549Z" fill="white"/>
<path d="M197.746 119.261C197.746 118.499 197.698 84.2989 197.634 30.0016L197.746 30.0947H43.0391L43.1766 29.9795C43.1766 61.8533 43.1766 92.1322 43.1766 119.239L43.0496 119.132L197.772 119.239L43.0496 119.345H42.928V119.239C42.928 92.1322 42.928 61.8533 42.928 29.9795V29.8643H43.0814H197.788H197.899V29.9573C197.788 84.2989 197.746 118.499 197.746 119.261Z" fill="#263238"/>
<path d="M70.6332 103.825C64.6828 106.408 60.1234 110.852 56.844 115.743C53.5647 120.634 51.4489 126.009 49.3544 131.339L47.5243 158.831C54.4427 148.968 60.0017 137.369 61.5039 126L56.8969 125.654C59.9859 125.26 62.5776 123.386 64.2226 121.162C65.8676 118.937 66.7244 116.377 67.5548 113.856L61.9323 114.556C66.3697 112.047 69.4851 108.205 70.6332 103.825Z" fill="#455A64"/>
<g opacity="0.3">
<path opacity="0.3" d="M70.6332 103.825C64.6828 106.408 60.1234 110.852 56.844 115.743C53.5647 120.634 51.4489 126.009 49.3544 131.339L47.5243 158.831C54.4427 148.968 60.0017 137.369 61.5039 126L56.8969 125.654C59.9859 125.26 62.5776 123.386 64.2226 121.162C65.8676 118.937 66.7244 116.377 67.5548 113.856L61.9323 114.556C66.3697 112.047 69.4851 108.205 70.6332 103.825Z" fill="black"/>
</g>
<path d="M46.4981 165.291C46.4981 165.291 31.4765 150.227 31.6458 135.845H37.7179C37.7179 135.845 31.1222 132.216 31.6458 130.182C32.1694 128.149 32.344 120.435 32.344 120.435L37.8713 121.596C37.8713 121.596 33.7086 119.85 33.185 117.09C32.6613 114.33 34.4015 101.552 34.4015 101.552C34.4015 101.552 41.1612 107.507 43.2452 113.607C45.3292 119.708 50.7877 126.824 49.1851 145.415C47.5824 164.006 46.4981 165.291 46.4981 165.291Z" fill="#455A64"/>
<path d="M54.1147 166.695C54.1147 166.695 70.3899 157.612 74.0077 146.017L69.131 144.91C69.131 144.91 75.3777 143.2 75.4782 141.467C75.5787 139.735 77.4616 133.519 77.4616 133.519L72.7013 133.434C72.7013 133.434 76.5043 132.796 77.6415 130.674C78.7787 128.552 80.7146 117.949 80.7146 117.949C80.7146 117.949 73.7221 121.494 70.4586 126.022C67.1951 130.55 60.9379 135.269 57.3729 150.51C53.8079 165.751 54.1147 166.695 54.1147 166.695Z" fill="#455A64"/>
<path d="M38.5272 114.684C38.5498 114.734 38.5675 114.786 38.5801 114.839C38.6118 114.954 38.6541 115.109 38.7123 115.304C38.8234 115.725 38.982 116.323 39.1883 117.077C39.3946 117.83 39.6379 118.805 39.8971 119.912C40.1563 121.02 40.4789 122.283 40.7804 123.678C41.4257 126.474 42.1027 129.81 42.8009 133.528C43.4991 137.245 44.155 141.365 44.7474 145.663C45.3398 149.961 45.8052 154.081 46.149 157.847C46.4928 161.613 46.7256 164.976 46.8631 167.821C46.9477 169.238 46.9847 170.528 47.0271 171.653C47.0694 172.778 47.0958 173.758 47.1064 174.551C47.117 175.344 47.1064 175.951 47.1064 176.385V176.859C47.1143 176.913 47.1143 176.968 47.1064 177.023C47.0997 176.968 47.0997 176.913 47.1064 176.859C47.1064 176.739 47.1064 176.584 47.1064 176.385C47.1064 175.942 47.0641 175.339 47.0323 174.555C47.0006 173.771 46.9636 172.783 46.9054 171.657C46.8472 170.532 46.7943 169.247 46.6991 167.825C46.5404 164.989 46.2707 161.622 45.9269 157.86C45.5831 154.099 45.0965 150.001 44.5041 145.69C43.9117 141.379 43.2346 137.271 42.5735 133.572C41.9123 129.872 41.23 126.518 40.6111 123.723C40.3202 122.322 40.024 121.064 39.7701 119.952C39.5163 118.84 39.2941 117.887 39.1037 117.108C38.9133 116.328 38.7758 115.739 38.6753 115.313L38.5748 114.844C38.553 114.792 38.5371 114.738 38.5272 114.684Z" fill="#263238"/>
<path d="M44.4143 174.497C44.4143 174.497 30.6621 161.427 26.3989 153.527L29.6201 152.375C27.2823 152.699 24.8915 151.857 23.0773 150.581C21.263 149.305 19.9354 147.626 18.6343 145.969L22.8657 145.366C18.9663 144.434 15.6456 142.279 13.5936 139.349C18.6025 140.041 23.1143 142.344 26.8697 145.224C29.8359 147.613 32.5293 150.228 34.9147 153.036C36.1167 154.384 37.1634 155.824 38.0407 157.338C40.3574 161.339 44.4248 169.721 44.4143 174.497Z" fill="#455A64"/>
<path d="M74.2246 125.557C74.2097 125.603 74.1884 125.648 74.1611 125.69C74.1082 125.787 74.0342 125.911 73.9496 126.071C73.7486 126.416 73.4682 126.899 73.1139 127.52C72.3734 128.774 71.3314 130.599 70.0672 132.863C68.8031 135.127 67.3379 137.839 65.7723 140.874C64.2067 143.909 62.5617 147.267 60.9168 150.825C59.2718 154.383 57.8066 157.803 56.5161 160.927C55.2255 164.05 54.1359 166.886 53.2579 169.274C52.3798 171.662 51.6711 173.598 51.2215 174.945C50.9887 175.601 50.8036 176.119 50.6925 176.487L50.5444 176.886C50.5074 176.979 50.4863 177.023 50.4863 177.023C50.4898 176.975 50.5004 176.927 50.518 176.881C50.5497 176.779 50.5868 176.642 50.6397 176.474L51.1316 174.918C51.5653 173.567 52.2264 171.622 53.0886 169.225C53.9508 166.828 55.0245 163.993 56.2886 160.86C57.5528 157.728 59.0338 154.303 60.6734 150.741C62.3131 147.178 63.9845 143.824 65.5555 140.789C67.1264 137.754 68.6127 135.03 69.9033 132.792C71.1938 130.555 72.2623 128.72 73.0292 127.475C73.4101 126.864 73.7063 126.385 73.9125 126.044L74.1506 125.677C74.1695 125.634 74.1943 125.594 74.2246 125.557Z" fill="#263238"/>
<path d="M45.5831 180.093C45.547 180.017 45.5239 179.936 45.5144 179.854C45.4773 179.673 45.435 179.442 45.3821 179.163C45.3292 178.884 45.2605 178.49 45.1653 178.064C45.0701 177.639 44.9854 177.151 44.8479 176.62C44.5993 175.552 44.2449 174.285 43.7901 172.898C43.3352 171.511 42.7322 170 42.0605 168.445C41.3887 166.89 40.59 165.446 39.8495 164.148C39.109 162.849 38.3579 161.711 37.6968 160.771C37.3847 160.297 37.0621 159.885 36.7976 159.509C36.5331 159.132 36.2687 158.826 36.0941 158.569L35.6498 157.976C35.5932 157.908 35.5453 157.835 35.507 157.759C35.5777 157.816 35.6398 157.88 35.6921 157.949L36.184 158.521C36.3956 158.769 36.6495 159.075 36.9298 159.442C37.2102 159.81 37.5381 160.218 37.866 160.687C38.5484 161.622 39.2994 162.761 40.077 164.055C40.8545 165.348 41.6109 166.806 42.3196 168.366C43.0284 169.925 43.5838 171.467 44.0386 172.841C44.4935 174.214 44.8109 175.499 45.033 176.589C45.16 177.125 45.234 177.617 45.3134 178.046C45.3927 178.476 45.4456 178.844 45.4826 179.15C45.5196 179.455 45.5408 179.664 45.5673 179.85C45.5819 179.93 45.5872 180.012 45.5831 180.093Z" fill="#263238"/>
<path d="M63.72 177.023H33.6293V182.162H63.72V177.023Z" fill="#BB6BD9"/>
<path d="M36.5013 182.162L39.7543 199.459H57.9388L60.9696 182.162H36.5013Z" fill="#BB6BD9"/>
<path d="M61.8741 182.162C61.8741 182.229 56.1828 182.278 49.1798 182.278C42.1768 182.278 36.4855 182.229 36.4855 182.162C36.4855 182.096 42.1768 182.047 49.1798 182.047C56.1828 182.047 61.8741 182.1 61.8741 182.162Z" fill="#263238"/>
<path d="M201.601 183.797L202.834 193.735C202.834 193.735 191.197 198.121 191.197 199.978L214.285 198.649L213.127 183.097L201.601 183.797Z" fill="#455A64"/>
<g opacity="0.3">
<path opacity="0.3" d="M201.601 183.797L202.834 193.735C202.834 193.735 191.197 198.121 191.197 199.978L214.285 198.649L213.127 183.097L201.601 183.797Z" fill="black"/>
</g>
<g opacity="0.6">
<path opacity="0.6" d="M209.906 192.49C210.136 192.536 210.339 192.652 210.473 192.816C210.607 192.98 210.663 193.179 210.63 193.376C210.585 193.567 210.455 193.736 210.266 193.849C210.077 193.961 209.844 194.01 209.615 193.983C209.375 193.937 209.164 193.817 209.023 193.647C208.882 193.478 208.822 193.271 208.853 193.066C208.923 192.87 209.082 192.704 209.295 192.604C209.508 192.504 209.759 192.478 209.996 192.53" fill="white"/>
</g>
<g opacity="0.6">
<path opacity="0.6" d="M214.29 198.666L214.1 197.102L192.033 198.963C192.033 198.963 191.033 199.406 191.203 200L214.29 198.666Z" fill="white"/>
</g>
<path d="M202.453 193.647C202.453 193.744 203.029 193.753 203.611 194.028C204.193 194.302 204.516 194.679 204.616 194.635C204.717 194.59 204.505 194.054 203.796 193.748C203.088 193.443 202.421 193.571 202.453 193.647Z" fill="#263238"/>
<path d="M200.099 194.635C200.099 194.728 200.581 194.861 200.993 195.237C201.406 195.614 201.554 196.03 201.665 196.021C201.776 196.012 201.808 195.472 201.279 195.011C200.75 194.55 200.094 194.533 200.099 194.635Z" fill="#263238"/>
<path d="M198.92 197.138C199.02 197.138 199.142 196.673 198.809 196.172C198.475 195.671 197.936 195.494 197.894 195.578C197.851 195.662 198.2 195.915 198.465 196.332C198.729 196.748 198.803 197.138 198.92 197.138Z" fill="#263238"/>
<path d="M202.469 191.365C202.527 191.449 203.029 191.289 203.669 191.289C204.309 191.289 204.823 191.431 204.875 191.347C204.928 191.263 204.421 190.953 203.669 190.961C202.918 190.97 202.411 191.294 202.469 191.365Z" fill="#263238"/>
<path d="M202.268 189.358C202.653 189.422 203.051 189.398 203.421 189.287C203.833 189.202 204.232 189.074 204.606 188.906C204.828 188.808 205.042 188.697 205.246 188.573C205.372 188.506 205.485 188.423 205.579 188.325C205.646 188.253 205.682 188.164 205.682 188.073C205.682 187.981 205.646 187.892 205.579 187.82C205.516 187.755 205.434 187.705 205.342 187.672C205.25 187.64 205.15 187.627 205.05 187.634C204.903 187.64 204.759 187.666 204.622 187.709C204.379 187.774 204.144 187.855 203.918 187.953C203.542 188.124 203.2 188.342 202.903 188.6C202.4 189.043 202.241 189.411 202.284 189.429C202.326 189.446 202.575 189.145 203.093 188.773C203.394 188.556 203.726 188.371 204.082 188.223C204.292 188.14 204.51 188.07 204.733 188.015C204.976 187.949 205.182 187.935 205.262 188.015C205.341 188.095 205.293 188.059 205.262 188.126C205.191 188.194 205.109 188.254 205.018 188.303C204.831 188.423 204.635 188.533 204.431 188.631C204.085 188.806 203.72 188.954 203.342 189.074C202.975 189.144 202.616 189.239 202.268 189.358Z" fill="#263238"/>
<path d="M202.421 189.486C202.618 189.196 202.699 188.861 202.654 188.529C202.644 188.17 202.562 187.815 202.411 187.479C202.319 187.279 202.204 187.088 202.067 186.908C201.994 186.784 201.884 186.678 201.748 186.6C201.612 186.522 201.454 186.476 201.289 186.464C201.186 186.471 201.088 186.503 201.006 186.555C200.924 186.608 200.863 186.68 200.829 186.761C200.779 186.878 200.749 187.001 200.739 187.125C200.716 187.343 200.734 187.562 200.792 187.776C200.885 188.136 201.083 188.471 201.369 188.751C201.855 189.225 202.337 189.313 202.342 189.278C202.347 189.242 201.972 189.07 201.585 188.609C201.364 188.344 201.215 188.041 201.146 187.723C201.114 187.536 201.114 187.347 201.146 187.16C201.146 186.952 201.242 186.783 201.337 186.797C201.432 186.81 201.659 186.934 201.765 187.094C201.895 187.254 202.005 187.424 202.093 187.603C202.249 187.906 202.351 188.228 202.395 188.556C202.453 189.114 202.368 189.473 202.421 189.486Z" fill="#263238"/>
<path d="M199.195 112.841C199.195 112.841 187.833 149.695 187.521 153.159C187.209 156.624 201.718 186.876 201.718 186.876L212.899 185.104C212.899 185.104 212.185 140.825 211.841 139.956C211.498 139.088 214.698 117.325 214.698 117.325L199.195 112.841Z" fill="#263238"/>
<path d="M206.743 184.258L206.864 194.249C206.864 194.249 194.783 197.709 194.593 199.566L217.723 199.77L218.3 184.488L206.743 184.258Z" fill="#455A64"/>
<g opacity="0.6">
<path opacity="0.6" d="M214.047 193.562C214.267 193.625 214.453 193.752 214.568 193.921C214.683 194.091 214.72 194.289 214.671 194.48C214.606 194.663 214.461 194.818 214.265 194.916C214.069 195.013 213.836 195.046 213.613 195.007C213.379 194.942 213.182 194.806 213.061 194.625C212.94 194.445 212.903 194.234 212.957 194.032C213.049 193.843 213.225 193.691 213.448 193.608C213.671 193.526 213.924 193.519 214.153 193.589" fill="white"/>
</g>
<g opacity="0.6">
<path opacity="0.6" d="M217.707 199.761V198.485L195.529 198.596C195.529 198.596 194.471 198.95 194.588 199.557L217.707 199.761Z" fill="white"/>
</g>
<path d="M206.494 194.143C206.494 194.24 207.06 194.293 207.605 194.608C208.149 194.923 208.435 195.33 208.541 195.295C208.647 195.259 208.493 194.71 207.827 194.338C207.16 193.966 206.473 194.054 206.494 194.143Z" fill="#263238"/>
<path d="M204.04 194.931C204.013 195.024 204.5 195.193 204.87 195.605C205.24 196.017 205.341 196.438 205.452 196.438C205.563 196.438 205.653 195.902 205.177 195.401C204.701 194.9 204.045 194.843 204.04 194.931Z" fill="#263238"/>
<path d="M202.591 197.337C202.691 197.359 202.866 196.894 202.591 196.363C202.315 195.831 201.792 195.623 201.744 195.698C201.697 195.773 202.009 196.061 202.226 196.496C202.442 196.93 202.479 197.324 202.591 197.337Z" fill="#263238"/>
<path d="M206.769 191.874C206.811 191.958 207.335 191.839 207.97 191.874C208.604 191.91 209.102 192.1 209.165 192.02C209.229 191.941 208.758 191.577 208.007 191.542C207.256 191.507 206.716 191.79 206.769 191.874Z" fill="#263238"/>
<g opacity="0.3">
<path opacity="0.3" d="M206.769 186.239L206.79 188.02L218.162 188.175L218.226 186.571L206.769 186.239Z" fill="black"/>
</g>
<path d="M206.785 189.85C207.166 189.935 207.567 189.935 207.949 189.85C208.368 189.796 208.779 189.699 209.17 189.562C209.401 189.481 209.626 189.388 209.842 189.282C209.975 189.224 210.096 189.15 210.202 189.061C210.278 188.995 210.325 188.911 210.337 188.82C210.348 188.729 210.323 188.638 210.265 188.56C210.211 188.492 210.138 188.435 210.052 188.395C209.967 188.355 209.871 188.333 209.773 188.33C209.625 188.327 209.478 188.342 209.334 188.374C209.086 188.417 208.843 188.481 208.61 188.565C208.215 188.703 207.849 188.893 207.525 189.127C206.996 189.535 206.78 189.885 206.817 189.903C206.854 189.92 207.139 189.646 207.695 189.313C208.02 189.119 208.376 188.962 208.753 188.848C208.971 188.78 209.196 188.727 209.424 188.689C209.673 188.64 209.879 188.644 209.953 188.737C210.027 188.831 209.98 188.786 209.927 188.844C209.849 188.908 209.76 188.962 209.662 189.003C209.464 189.11 209.257 189.204 209.043 189.287C208.68 189.429 208.301 189.541 207.912 189.619C207.529 189.671 207.153 189.748 206.785 189.85Z" fill="#263238"/>
<path d="M206.928 189.987C207.157 189.715 207.276 189.389 207.266 189.056C207.295 188.697 207.252 188.336 207.139 187.989C207.071 187.783 206.977 187.584 206.859 187.395C206.802 187.265 206.706 187.151 206.58 187.062C206.454 186.973 206.302 186.914 206.14 186.89C206.037 186.888 205.935 186.911 205.848 186.957C205.76 187.003 205.691 187.069 205.648 187.147C205.583 187.259 205.538 187.378 205.515 187.501C205.476 187.719 205.476 187.94 205.515 188.157C205.568 188.521 205.728 188.868 205.981 189.167C206.415 189.681 206.885 189.805 206.896 189.77C206.907 189.734 206.547 189.535 206.214 189.043C206.023 188.76 205.907 188.446 205.875 188.122C205.859 187.935 205.871 187.747 205.912 187.563C205.96 187.36 206.055 187.196 206.145 187.218C206.235 187.24 206.452 187.377 206.542 187.546C206.65 187.716 206.74 187.894 206.811 188.077C206.934 188.391 207 188.718 207.007 189.048C207.002 189.619 206.869 189.969 206.928 189.987Z" fill="#263238"/>
<path d="M227.725 112.841L225.609 110.457L199.613 111.055L203.331 149.783L205.648 187.129L219.13 187.523C219.818 180.315 219.574 165.517 219.574 165.517L220.542 159.15L223.97 136.735C224.229 135.783 225.186 131.029 226.17 127.223C226.731 125.056 228.857 119.363 227.725 112.841Z" fill="#263238"/>
<path d="M201.115 119.974C201.122 120.032 201.122 120.089 201.115 120.147C201.115 120.271 201.115 120.439 201.115 120.656C201.115 121.1 201.067 121.773 201.025 122.61C200.982 123.448 200.93 124.502 200.887 125.712C200.845 126.921 200.771 128.29 200.739 129.81C200.639 132.85 200.586 136.456 200.602 140.488C200.618 144.52 200.755 148.906 201.025 153.554C201.295 158.202 201.728 162.592 202.204 166.593C202.463 168.587 202.696 170.488 202.982 172.26C203.119 173.146 203.241 174.001 203.379 174.825C203.516 175.649 203.659 176.434 203.791 177.182C204.04 178.689 204.32 180.044 204.558 181.236C204.796 182.428 205.008 183.452 205.193 184.285C205.378 185.118 205.51 185.76 205.611 186.212C205.653 186.425 205.685 186.589 205.711 186.713C205.717 186.77 205.717 186.828 205.711 186.885C205.686 186.831 205.669 186.775 205.658 186.717C205.626 186.597 205.584 186.433 205.531 186.221C205.42 185.778 205.267 185.126 205.066 184.302C204.865 183.478 204.627 182.446 204.389 181.254C204.151 180.062 203.86 178.711 203.58 177.209C203.442 176.456 203.299 175.668 203.151 174.847C203.003 174.028 202.881 173.168 202.739 172.282C202.442 170.51 202.21 168.613 201.935 166.611C201.443 162.623 201.02 158.193 200.734 153.567C200.448 148.942 200.353 144.511 200.332 140.488C200.311 136.465 200.401 132.845 200.522 129.806C200.57 128.286 200.655 126.912 200.713 125.707C200.771 124.502 200.834 123.461 200.898 122.606C200.961 121.751 201.004 121.113 201.035 120.652C201.035 120.439 201.067 120.271 201.078 120.147C201.081 120.088 201.094 120.03 201.115 119.974Z" fill="#455A64"/>
<path d="M205.468 61.9508C205.531 60.7457 204.997 59.5849 204.547 58.4418C204.098 57.2987 203.717 56.0625 204.103 54.8973C204.584 53.4396 206.155 52.425 206.996 51.0825C207.837 49.7401 207.901 48.1583 208.054 46.6519C208.208 45.1455 208.509 43.5505 209.71 42.3897C211.228 40.9453 215.2 40.6839 217.078 41.7959C217.369 50.4179 219.802 59.1463 217.607 67.5733C212.556 67.7448 207.547 66.7419 203.135 64.6757C204.532 64.4276 205.399 63.1515 205.468 61.9508Z" fill="#585858"/>
<path d="M227.403 70.2847L228.815 46.4834C228.842 46.0219 228.662 45.5686 228.309 45.2133C227.957 44.858 227.457 44.6266 226.911 44.565L215.311 41.8136C211.577 41.3705 208.964 45.1941 208.615 48.331C208.234 51.8223 207.933 56.0934 208.34 58.7119C209.155 63.9799 213.931 64.7597 213.931 64.7597C213.931 69.948 213.799 70.3335 213.799 70.3335L216.163 74.4141L227.403 70.2847Z" fill="#FFBE9D"/>
<path d="M210.017 52.6863C210.008 52.8616 210.082 53.0327 210.222 53.1628C210.363 53.2929 210.559 53.3716 210.768 53.3819C210.869 53.3911 210.972 53.3831 211.07 53.3585C211.168 53.3339 211.259 53.2932 211.338 53.2387C211.417 53.1842 211.482 53.1171 211.529 53.0413C211.577 52.9654 211.605 52.8824 211.614 52.7971C211.623 52.6218 211.549 52.4507 211.408 52.3206C211.268 52.1905 211.072 52.1118 210.863 52.1015C210.761 52.0923 210.658 52.1003 210.561 52.1248C210.463 52.1494 210.372 52.1902 210.293 52.2447C210.214 52.2991 210.149 52.3663 210.101 52.4421C210.054 52.518 210.025 52.601 210.017 52.6863Z" fill="#263238"/>
<path d="M209.652 50.5818C209.747 50.6748 210.371 50.3115 211.238 50.3337C212.106 50.3558 212.725 50.7324 212.825 50.6482C212.926 50.564 212.778 50.4488 212.508 50.2716C212.14 50.0468 211.699 49.9216 211.244 49.9127C210.795 49.9018 210.355 50.0104 209.985 50.2229C209.699 50.3868 209.604 50.5375 209.652 50.5818Z" fill="#263238"/>
<path d="M217.342 52.8902C217.335 53.0652 217.409 53.2356 217.55 53.3655C217.69 53.4954 217.885 53.5744 218.093 53.5858C218.195 53.5949 218.298 53.587 218.396 53.5624C218.494 53.5378 218.585 53.4971 218.664 53.4426C218.742 53.3881 218.807 53.321 218.855 53.2451C218.902 53.1693 218.931 53.0863 218.94 53.0009C218.949 52.8259 218.876 52.6549 218.736 52.5242C218.597 52.3935 218.403 52.3134 218.194 52.3009C218.092 52.2917 217.988 52.2998 217.89 52.3246C217.791 52.3494 217.699 52.3905 217.62 52.4454C217.541 52.5003 217.475 52.5679 217.428 52.6443C217.38 52.7207 217.351 52.8043 217.342 52.8902Z" fill="#263238"/>
<path d="M218.141 50.9186C218.236 51.0116 218.86 50.6483 219.728 50.6705C220.595 50.6926 221.214 51.0692 221.314 50.985C221.415 50.9008 221.267 50.7856 220.992 50.6084C220.626 50.3837 220.187 50.2584 219.733 50.2495C219.283 50.2376 218.84 50.3463 218.469 50.5597C218.189 50.7236 218.093 50.8787 218.141 50.9186Z" fill="#263238"/>
<path d="M214.825 56.2131C214.373 56.0824 213.904 55.9991 213.428 55.965C213.206 55.9428 213 55.9029 212.968 55.7744C212.954 55.5829 213.011 55.3924 213.132 55.2295L213.83 53.8383C214.803 51.8578 215.518 50.2229 215.417 50.1919C215.317 50.1608 214.454 51.7426 213.481 53.7364C213.243 54.2237 213.021 54.6889 212.809 55.1364C212.661 55.3554 212.611 55.6113 212.667 55.8586C212.697 55.9243 212.745 55.9834 212.806 56.0317C212.867 56.08 212.941 56.1162 213.021 56.1377C213.143 56.1684 213.269 56.1862 213.397 56.1909C213.87 56.2466 214.349 56.254 214.825 56.2131Z" fill="#263238"/>
<path d="M213.936 64.7597C216.887 64.8703 219.817 64.292 222.399 63.0894C222.399 63.0894 220.167 66.7756 213.936 66.1332V64.7597Z" fill="#EB996E"/>
<path d="M214.893 57.9367C215.091 57.7011 215.354 57.5094 215.66 57.3781C215.966 57.2469 216.306 57.1801 216.65 57.1835C216.875 57.19 217.095 57.2432 217.289 57.3383C217.484 57.4334 217.648 57.5675 217.766 57.7284C217.885 57.9091 217.943 58.1138 217.932 58.3201C217.922 58.5264 217.844 58.7264 217.707 58.8981C217.545 59.0743 217.323 59.2053 217.07 59.2741C216.817 59.3428 216.545 59.3462 216.29 59.2836C215.814 59.1424 215.385 58.9067 215.042 58.5968C214.93 58.5215 214.839 58.4261 214.777 58.3177C214.745 58.2591 214.733 58.1945 214.742 58.1306C214.75 58.0667 214.779 58.0058 214.825 57.9544" fill="#EB996E"/>
<path d="M217.348 56.7714C217.21 56.7714 217.178 57.5467 216.359 58.1005C215.539 58.6544 214.539 58.5436 214.528 58.6366C214.518 58.7297 214.745 58.7961 215.169 58.8139C215.717 58.8335 216.256 58.6908 216.692 58.4107C217.112 58.1417 217.389 57.7457 217.464 57.3075C217.512 56.9663 217.411 56.7714 217.348 56.7714Z" fill="#263238"/>
<path d="M217.861 47.9322C217.94 48.1316 218.802 48.0563 219.812 48.1848C220.823 48.3132 221.637 48.5614 221.775 48.3886C221.838 48.3044 221.701 48.1183 221.378 47.9189C220.946 47.6768 220.451 47.5249 219.934 47.4759C219.418 47.4104 218.89 47.4484 218.395 47.5866C218.019 47.6885 217.824 47.8392 217.861 47.9322Z" fill="#E0E0E0"/>
<path d="M213.931 41.5167C214.989 39.359 217.332 39.1685 219.823 38.947C222.314 38.7254 226.017 39.585 228.074 40.7192C229.79 41.5939 231.332 42.6882 232.644 43.9624C233.75 45.1587 234.231 46.5233 234.929 47.9012C235.987 50.0457 235.929 52.4205 236.077 54.72C236.27 57.6166 236.823 60.4884 237.727 63.2888C238.055 64.2945 238.388 65.5041 236.669 66.0756C236.351 66.1773 236.019 66.2444 235.68 66.275C233.036 66.5409 230.491 67.2586 227.561 67.4137H225.747C223.457 67.4137 222.282 66.182 222.362 64.6091C222.595 59.8728 225.356 52.097 225.657 50.6039C225.678 50.5951 226.63 40.1122 213.931 41.5167Z" fill="#585858"/>
<path d="M214.761 41.7295C215.144 41.996 215.459 42.3251 215.685 42.6969C215.912 43.0686 216.046 43.4751 216.078 43.8916C216.21 44.7201 216.152 45.5619 216.337 46.3816C216.532 47.2022 216.958 47.9716 217.582 48.6254C218.205 49.2792 219.006 49.7982 219.918 50.1388C220.5 50.347 221.304 50.4312 221.664 49.997C221.64 50.5774 221.828 51.15 222.201 51.6396C222.574 52.1291 223.115 52.5126 223.753 52.7395C224.684 53.0497 225.72 53.001 226.699 53.1826C227.678 53.3643 228.698 53.9269 228.746 54.7643L229.158 48.9425L227.228 43.7941L221.198 40.7902L214.761 41.7295Z" fill="#585858"/>
<path d="M225.408 51.3262C225.204 51.2094 225.011 51.079 224.832 50.9363C224.381 50.5181 224.056 50.0151 223.885 49.4698C223.644 48.657 223.504 47.8255 223.467 46.9886C223.42 45.9591 223.278 44.9341 223.044 43.9226C222.799 42.8999 222.233 41.9503 221.404 41.1712C221.034 40.8377 220.588 40.5696 220.093 40.3826C219.66 40.2208 219.196 40.1248 218.723 40.099C218.038 40.0543 217.353 40.1907 216.766 40.4889C216.675 40.5371 216.589 40.5904 216.507 40.6484C216.444 40.6883 216.385 40.7328 216.332 40.7813C216.286 40.8186 216.244 40.8586 216.205 40.9009C216.389 40.7635 216.586 40.6376 216.792 40.5243C217.374 40.2417 218.047 40.1178 218.717 40.1699C219.717 40.2358 220.649 40.6175 221.325 41.2377C222.129 42.0077 222.676 42.9414 222.912 43.9448C223.143 44.9523 223.286 45.9726 223.34 46.9975C223.382 47.8387 223.532 48.6737 223.79 49.4875C223.969 50.0413 224.311 50.5486 224.784 50.9629C224.966 51.1135 225.177 51.2364 225.408 51.3262Z" fill="white"/>
<path d="M230.624 50.6217C230.31 50.5942 230.002 50.53 229.709 50.4311C228.927 50.1155 228.263 49.6267 227.789 49.0178C227.444 48.6112 227.15 48.1762 226.911 47.7196C226.647 47.1898 226.481 46.6296 226.419 46.0581C226.329 45.46 226.302 44.8176 226.218 44.1574C226.177 43.8209 226.113 43.4866 226.027 43.1561C225.93 42.8147 225.798 42.4811 225.631 42.1592C224.954 40.9368 223.756 39.9709 222.272 39.4521C221.06 39.0358 219.721 38.9596 218.453 39.235C217.604 39.4126 216.808 39.7355 216.115 40.1831C215.861 40.3446 215.627 40.5272 215.417 40.7281C215.417 40.7281 215.417 40.7281 215.47 40.6971L215.602 40.5907L215.824 40.4268C215.919 40.3648 216.02 40.285 216.147 40.2141C216.84 39.7802 217.632 39.4696 218.474 39.3014C219.724 39.0434 221.039 39.1257 222.23 39.5363C223.15 39.8502 223.967 40.345 224.611 40.9788C225.256 41.6127 225.709 42.367 225.932 43.1782C226.018 43.5057 226.082 43.8371 226.123 44.1707C226.207 44.8264 226.239 45.4644 226.329 46.0714C226.404 46.6502 226.582 47.2163 226.858 47.7506C227.103 48.2178 227.405 48.6631 227.757 49.0798C228.245 49.6932 228.928 50.1798 229.73 50.4843C229.95 50.5587 230.181 50.6079 230.417 50.6305H230.603L230.624 50.6217Z" fill="#455A64"/>
<path d="M221.664 49.9968C221.664 49.9968 221.664 49.9968 221.664 50.0456V50.1874C221.664 50.2538 221.664 50.3336 221.701 50.4266C221.738 50.5197 221.748 50.626 221.78 50.7456C221.866 51.0359 221.999 51.3147 222.177 51.5741C222.416 51.9212 222.738 52.2229 223.123 52.4603C224.19 53.0443 225.462 53.3068 226.731 53.2046C227.485 53.1752 228.233 53.0786 228.963 52.9166C229.76 52.7482 230.527 52.4903 231.242 52.1501L231.385 52.0792L231.221 52.0571C230.312 51.9475 229.428 51.7188 228.603 51.3792H228.561L228.524 51.4722C230.386 51.7223 232.294 51.4348 233.935 50.657L234.046 50.6083L233.924 50.5773C232.767 50.2831 231.68 49.8213 230.714 49.2126C229.962 48.7309 229.382 48.0858 229.037 47.3473C228.841 46.8579 228.748 46.3437 228.762 45.8276C228.762 45.6504 228.794 45.5131 228.799 45.4156V45.3092V45.2738C228.799 45.2738 228.799 45.2738 228.799 45.3092C228.799 45.3447 228.799 45.3713 228.799 45.4156C228.799 45.4599 228.767 45.6504 228.746 45.8232C228.713 46.3453 228.795 46.868 228.989 47.3651C229.33 48.119 229.912 48.7797 230.671 49.2747C231.644 49.8932 232.74 50.3627 233.908 50.6614V50.5773C232.286 51.34 230.403 51.621 228.566 51.3748L228.164 51.3172L228.529 51.4678H228.577C229.41 51.8118 230.302 52.0436 231.221 52.1546V52.0659C230.518 52.4019 229.764 52.6568 228.979 52.8236C228.256 52.9883 227.515 53.0878 226.768 53.1204C225.521 53.2261 224.268 52.9746 223.213 52.4071C222.827 52.1715 222.506 51.8694 222.272 51.521C222.095 51.2644 221.956 50.9906 221.859 50.7057C221.828 50.5861 221.796 50.4798 221.775 50.3912C221.753 50.3026 221.743 50.2184 221.727 50.1563L221.701 50.0146C221.689 50.008 221.676 50.0021 221.664 49.9968Z" fill="#455A64"/>
<path d="M234.511 64.3255C234.543 64.3255 234.162 61.5209 233.665 58.0651C233.168 54.6092 232.729 51.8134 232.697 51.8179C232.665 51.8223 233.041 54.6225 233.543 58.0783C234.046 61.5342 234.48 64.3299 234.511 64.3255Z" fill="#455A64"/>
<path d="M230.968 65.008C230.973 64.9683 230.973 64.9281 230.968 64.8884C230.968 64.8042 230.968 64.689 231.005 64.5516C231.036 64.2548 231.073 63.8294 231.105 63.3022C231.179 62.2477 231.243 60.7856 231.237 59.1729C231.232 57.5601 231.158 56.1024 231.079 55.0479C231.036 54.5207 230.999 54.0909 230.968 53.7985C230.968 53.6567 230.936 53.546 230.925 53.4574C230.931 53.4191 230.931 53.3804 230.925 53.3422C230.918 53.3818 230.918 53.4221 230.925 53.4618C230.925 53.546 230.925 53.6612 230.925 53.7985C230.925 54.1087 230.968 54.5296 230.999 55.0479C231.057 56.1024 231.116 57.5645 231.121 59.1729C231.126 60.7812 231.079 62.2433 231.026 63.2978C231.026 63.8162 230.978 64.2415 230.962 64.5472V64.8884C230.958 64.9283 230.96 64.9684 230.968 65.008Z" fill="white"/>
<path d="M221.679 52.3098C221.711 52.3674 221.515 52.4959 221.24 52.5978C220.965 52.6997 220.711 52.7307 220.711 52.6731C220.711 52.6155 220.875 52.487 221.151 52.3851C221.426 52.2832 221.648 52.2301 221.679 52.3098Z" fill="#EB996E"/>
<path d="M219.178 57.0416C219.098 57.0416 219.04 56.7625 218.792 56.501C218.543 56.2396 218.263 56.1156 218.263 56.058C218.263 56.0004 218.707 56.0358 219.008 56.3681C219.31 56.7004 219.252 57.0549 219.178 57.0416Z" fill="#EB996E"/>
<path d="M209.176 52.7751C209.133 52.8282 209.028 52.8371 208.922 52.8238C208.816 52.8105 208.715 52.7751 208.7 52.713C208.684 52.651 208.8 52.5757 208.964 52.5978C209.128 52.62 209.213 52.7219 209.176 52.7751Z" fill="#EB996E"/>
<path d="M209.318 53.196C209.328 53.2094 209.335 53.2245 209.337 53.2401C209.34 53.2558 209.338 53.2717 209.333 53.2868C209.327 53.3019 209.318 53.3159 209.305 53.3277C209.293 53.3395 209.277 53.349 209.26 53.3555C209.244 53.3642 209.227 53.3701 209.208 53.3728C209.189 53.3755 209.17 53.375 209.152 53.3713C209.134 53.3675 209.116 53.3606 209.101 53.3511C209.086 53.3415 209.074 53.3294 209.065 53.3156C209.048 53.2879 209.044 53.2558 209.055 53.226C209.066 53.1962 209.09 53.1711 209.123 53.1561C209.138 53.1474 209.156 53.1415 209.175 53.1388C209.193 53.1361 209.213 53.1366 209.231 53.1403C209.249 53.1441 209.267 53.151 209.282 53.1605C209.297 53.1701 209.309 53.1822 209.318 53.196Z" fill="#EB996E"/>
<path d="M221.336 67.5378C221.304 67.5378 221.198 67.4448 221.172 67.2321C221.16 67.1074 221.18 66.9821 221.23 66.8644C221.299 66.7226 221.368 66.6384 221.315 66.5719C221.206 66.4706 221.108 66.3608 221.024 66.2441C220.958 66.1266 220.936 65.9955 220.96 65.8675C220.997 65.6504 221.135 65.5618 221.161 65.5795C221.188 65.5972 221.161 65.708 221.161 65.8763C221.171 65.9714 221.205 66.0636 221.262 66.1466C221.315 66.2396 221.447 66.2972 221.569 66.47C221.594 66.5165 221.608 66.5672 221.608 66.6185C221.608 66.6698 221.594 66.7204 221.569 66.7669C221.531 66.8466 221.484 66.8998 221.457 66.9485C221.405 67.0389 221.373 67.1365 221.362 67.2365C221.341 67.4093 221.373 67.5245 221.336 67.5378Z" fill="#EB996E"/>
<path d="M227.794 67.5822L213.825 69.5892C213.825 69.5892 204.484 78.1846 201.728 85.9471C200.099 90.5283 195.979 110.98 194.641 117.697C194.521 118.301 194.657 118.921 195.025 119.45C195.393 119.979 195.97 120.384 196.656 120.595L229.381 121.086L229.809 118.379C230.539 113.714 225.842 105.903 225.842 105.903L231.988 80.5373C233.729 74.1838 227.794 67.5822 227.794 67.5822Z" fill="#BB6BD9"/>
<g opacity="0.3">
<path opacity="0.3" d="M217.432 101.184C214.195 102.655 197.989 104.201 197.989 104.201C197.989 104.201 205.24 107.05 211.91 106.416C218.58 105.783 220.955 104.467 222.446 101.618C223.938 98.7692 226.736 88.8269 226.736 88.8269C226.736 88.8269 220.669 99.7174 217.432 101.184Z" fill="black"/>
</g>
<path d="M179.677 106.31L180.376 106.39C180.452 106.408 180.534 106.4 180.603 106.368C180.639 106.34 180.665 106.305 180.68 106.266C180.695 106.227 180.698 106.186 180.688 106.146C180.663 106.002 180.604 105.865 180.513 105.741C180.422 105.618 180.301 105.511 180.159 105.428C179.878 105.262 179.553 105.156 179.212 105.118C179.135 105.101 179.055 105.096 178.976 105.104C178.897 105.112 178.821 105.134 178.752 105.167C178.636 105.257 178.564 105.381 178.551 105.513C178.508 105.687 178.476 105.863 178.456 106.04C178.444 106.082 178.444 106.126 178.455 106.168C178.466 106.21 178.488 106.249 178.519 106.284C178.58 106.326 178.656 106.35 178.736 106.35C179.037 106.377 179.365 106.284 179.661 106.31" fill="#EB996E"/>
<path d="M178.117 98.1268C177.456 98.4547 174.356 99.7617 174.356 99.7617L170.654 103.001C170.654 103.001 171.659 103.958 172.484 103.359C173.309 102.761 174.282 102.19 174.282 102.19L176.001 101.499C176.001 101.499 174.748 103.922 174.912 104.183C175.043 104.364 175.225 104.516 175.44 104.627C175.553 105.17 175.897 105.661 176.408 106.009L177.81 107.706L180.82 107.79C180.792 107.406 180.605 107.042 180.291 106.762C179.762 106.35 178.752 106.496 178.752 106.496L178.683 105.513L179.249 104.901C179.249 104.901 184.908 103.448 185.971 102.783L187.5 102.978L187.966 97.3337C187.966 97.3337 178.778 97.8034 178.117 98.1268Z" fill="#FFBE9D"/>
<path d="M178.038 103.333C178.09 103.373 177.641 103.909 177.228 104.631C176.816 105.353 176.583 105.982 176.514 105.96C176.543 105.458 176.714 104.97 177.011 104.533C177.238 104.072 177.589 103.661 178.038 103.333Z" fill="#EB996E"/>
<path d="M177.345 101.773C177.085 102.258 176.79 102.728 176.461 103.182C176.209 103.669 175.919 104.141 175.594 104.596C175.875 103.543 176.478 102.571 177.345 101.773Z" fill="#EB996E"/>
<path d="M177.334 99.004C177.18 99.4598 176.982 99.9043 176.742 100.333C176.576 100.792 176.309 101.22 175.953 101.596C176.088 101.138 176.277 100.692 176.519 100.267C176.682 99.8025 176.959 99.3722 177.334 99.004Z" fill="#EB996E"/>
<path d="M218.622 70.2272C219.834 68.9822 220.447 69.3411 223.642 68.8315C224.699 68.7409 225.761 68.9601 226.646 69.4518C228.104 70.1641 229.336 71.1609 230.235 72.3573C231.135 73.5537 231.677 74.9144 231.814 76.3237L231.581 79.7309L221.563 99.2256C221.563 99.2256 219.733 103.563 211.238 103.656C209.652 103.656 203.659 104.073 198.015 104.21C192.504 104.343 187.299 104.21 187.299 104.21L187.029 96.5141L209.154 92.9297L218.622 70.2272Z" fill="#BB6BD9"/>
<path d="M217.432 73.209C217.432 73.209 217.432 73.2444 217.4 73.3109L217.295 73.5989L216.856 74.6932L215.205 78.7118C213.777 82.1145 211.82 86.7844 209.652 91.9416L209.292 92.7923V92.8499H209.223L193.498 95.4241L188.77 96.1773L187.484 96.3678L187.146 96.4121H187.029C187.064 96.398 187.102 96.389 187.14 96.3856L187.474 96.3191L188.748 96.0843L193.466 95.269L209.17 92.6107L209.075 92.6816C209.186 92.4113 209.308 92.1189 209.435 91.8265C211.625 86.6781 213.608 82.0171 215.057 78.6188L216.787 74.6312C216.993 74.1882 217.152 73.8115 217.274 73.5457L217.406 73.2666C217.413 73.2469 217.422 73.2276 217.432 73.209Z" fill="#263238"/>
<path d="M229.1 84.3964C229.093 84.4357 229.08 84.4743 229.063 84.5116C229.021 84.6002 228.974 84.7065 228.915 84.8439C228.778 85.1496 228.582 85.5705 228.339 86.1066C227.81 87.2009 227.075 88.765 226.128 90.7233C225.181 92.6816 224.049 94.9855 222.7 97.5243C222.362 98.181 221.981 98.8215 221.558 99.4428C221.104 100.093 220.547 100.69 219.902 101.215C219.222 101.747 218.454 102.194 217.623 102.544C217.21 102.73 216.782 102.894 216.343 103.054L215.687 103.284L214.978 103.448C214.046 103.606 213.102 103.716 212.154 103.776C211.223 103.851 210.302 103.9 209.403 103.944C207.6 104.028 205.859 104.082 204.204 104.117C200.887 104.188 197.899 104.21 195.392 104.215C192.885 104.219 190.854 104.215 189.452 104.184L187.839 104.153H187.416C187.368 104.158 187.32 104.158 187.273 104.153H187.416H187.839H189.452L195.392 104.113C197.894 104.086 200.882 104.051 204.193 103.966C205.849 103.927 207.589 103.865 209.387 103.78C210.286 103.732 211.202 103.687 212.127 103.612C213.061 103.549 213.991 103.44 214.909 103.284L215.581 103.133L216.237 102.903C216.665 102.748 217.089 102.584 217.496 102.402C218.306 102.061 219.054 101.626 219.717 101.109C220.346 100.598 220.89 100.02 221.336 99.3896C221.753 98.7763 222.131 98.1447 222.468 97.4977C223.832 94.9723 224.975 92.6595 225.948 90.7233C226.921 88.7871 227.688 87.2364 228.238 86.1332L228.868 84.8882C228.937 84.7552 228.989 84.6489 229.037 84.5647C229.044 84.5056 229.066 84.4483 229.1 84.3964Z" fill="#263238"/>
</svg>
