<svg width="280" height="200" viewBox="0 0 280 200" fill="none" xmlns="http://www.w3.org/2000/svg">
<path d="M280 175.757H0V175.891H280V175.757Z" fill="#EBEBEB"/>
<path d="M251.944 184.395H233.397V184.529H251.944V184.395Z" fill="#EBEBEB"/>
<path d="M185.483 185.855H180.617V185.989H185.483V185.855Z" fill="#EBEBEB"/>
<path d="M232.837 179.413H222.09V179.547H232.837V179.413Z" fill="#EBEBEB"/>
<path d="M53.5639 180.315H29.3775V180.449H53.5639V180.315Z" fill="#EBEBEB"/>
<path d="M62.0983 180.315H58.5535V180.449H62.0983V180.315Z" fill="#EBEBEB"/>
<path d="M126.084 182.58H73.623V182.714H126.084V182.58Z" fill="#EBEBEB"/>
<path d="M132.72 151.814H24.5896C23.7425 151.813 22.9306 151.489 22.3321 150.915C21.7337 150.34 21.3976 149.561 21.3976 148.749V3.03844C21.4049 2.23106 21.7443 1.45908 22.342 0.890175C22.9396 0.321268 23.7473 0.00138307 24.5896 0H132.72C133.568 0 134.381 0.322948 134.981 0.897799C135.581 1.47265 135.918 2.25232 135.918 3.06528V148.749C135.918 149.562 135.581 150.342 134.981 150.917C134.381 151.492 133.568 151.814 132.72 151.814ZM24.5896 0.107366C23.7796 0.108788 23.0033 0.418223 22.4311 0.967751C21.8589 1.51728 21.5376 2.262 21.5376 3.03844V148.749C21.5376 149.526 21.8589 150.27 22.4311 150.82C23.0033 151.369 23.7796 151.679 24.5896 151.68H132.72C133.53 151.679 134.307 151.37 134.88 150.82C135.453 150.271 135.776 149.526 135.778 148.749V3.03844C135.776 2.2615 135.453 1.5168 134.88 0.967423C134.307 0.418048 133.53 0.108785 132.72 0.107366H24.5896Z" fill="#EBEBEB"/>
<path d="M253.853 151.814H145.717C144.87 151.813 144.057 151.49 143.458 150.915C142.859 150.341 142.521 149.562 142.52 148.749V3.03844C142.529 2.23057 142.869 1.4586 143.468 0.889839C144.066 0.32108 144.875 0.00136799 145.717 0H253.853C254.695 0.00279391 255.501 0.323303 256.097 0.892059C256.694 1.46082 257.032 2.23199 257.04 3.03844V148.749C257.04 149.56 256.704 150.338 256.107 150.913C255.51 151.487 254.7 151.812 253.853 151.814ZM145.717 0.107366C144.907 0.108785 144.13 0.418048 143.557 0.967423C142.984 1.5168 142.661 2.2615 142.66 3.03844V148.749C142.661 149.526 142.984 150.271 143.557 150.82C144.13 151.37 144.907 151.679 145.717 151.68H253.853C254.664 151.679 255.441 151.37 256.014 150.82C256.587 150.271 256.91 149.526 256.911 148.749V3.03844C256.91 2.2615 256.587 1.5168 256.014 0.967423C255.441 0.418048 254.664 0.108785 253.853 0.107366H145.717Z" fill="#EBEBEB"/>
<path d="M110.449 52.6627H37.4024V56.2595H110.449V52.6627Z" fill="#E0E0E0"/>
<path d="M43.9825 39.3977H40.7625V52.6573H43.9825V39.3977Z" fill="#EBEBEB"/>
<path d="M59.5449 39.3977H56.3249V52.6573H59.5449V39.3977Z" fill="#EBEBEB"/>
<path d="M77.2089 39.0678L74.0357 39.5922L76.3853 52.6591L79.5585 52.1347L77.2089 39.0678Z" fill="#EBEBEB"/>
<path d="M47.9695 41.1477H44.7495V52.6626H47.9695V41.1477Z" fill="#EBEBEB"/>
<path d="M55.3672 41.1477H52.1472V52.6626H55.3672V41.1477Z" fill="#EBEBEB"/>
<path d="M74.0376 41.1477H70.8176V52.6626H74.0376V41.1477Z" fill="#EBEBEB"/>
<path d="M63.774 40.7443L60.6306 41.4139L63.2367 52.6546L66.38 51.9849L63.774 40.7443Z" fill="#EBEBEB"/>
<path d="M50.7474 38.7428H49.1402V52.6627H50.7474V38.7428Z" fill="#EBEBEB"/>
<path d="M69.888 38.7428H68.2808V52.6627H69.888V38.7428Z" fill="#EBEBEB"/>
<path d="M103.438 42.1677H87.7577V52.5446H103.438V42.1677Z" fill="#EBEBEB"/>
<path d="M37.3967 83.1168L110.443 83.1168V79.5201L37.3967 79.5201V83.1168Z" fill="#E0E0E0"/>
<path d="M103.863 79.5201H107.083V66.2605H103.863V79.5201Z" fill="#EBEBEB"/>
<path d="M88.3008 79.5201H91.5208V66.2605H88.3008V79.5201Z" fill="#EBEBEB"/>
<path d="M68.2932 78.9931L71.4664 79.5175L73.816 66.4505L70.6428 65.9262L68.2932 78.9931Z" fill="#EBEBEB"/>
<path d="M99.876 79.5201H103.096V68.0052H99.876V79.5201Z" fill="#EBEBEB"/>
<path d="M92.4785 79.5201H95.6985V68.0052H92.4785V79.5201Z" fill="#EBEBEB"/>
<path d="M73.8081 79.5201H77.0281V68.0052H73.8081V79.5201Z" fill="#EBEBEB"/>
<path d="M81.4752 78.8471L84.6185 79.5167L87.2245 68.2761L84.0812 67.6064L81.4752 78.8471Z" fill="#EBEBEB"/>
<path d="M97.0984 79.5201H98.7056V65.6002H97.0984V79.5201Z" fill="#EBEBEB"/>
<path d="M77.952 79.5201H79.5592V65.6002H77.952V79.5201Z" fill="#EBEBEB"/>
<path d="M44.4135 79.402H60.0935V69.0251H44.4135V79.402Z" fill="#EBEBEB"/>
<path d="M240.789 21.8489H151.57C150.914 21.8489 150.382 22.3584 150.382 22.987V24.2055C150.382 24.8341 150.914 25.3436 151.57 25.3436H240.789C241.444 25.3436 241.976 24.8341 241.976 24.2055V22.987C241.976 22.3584 241.444 21.8489 240.789 21.8489Z" fill="#E0E0E0"/>
<path d="M236.533 24.6295H155.82V93.2896H236.533V24.6295Z" fill="#E6E6E6"/>
<path d="M234.41 26.5138H157.842V91.4429H234.41V26.5138Z" fill="#F0F0F0"/>
<path d="M175.812 26.5138L157.842 91.298V60.8546L167.328 26.5138H175.812Z" fill="white"/>
<path d="M182.173 26.5138L164.046 91.4429H161.157L179.284 26.5138H182.173Z" fill="white"/>
<path d="M234.411 67.4845V77.856L230.743 91.4431H227.847L234.411 67.4845Z" fill="white"/>
<path d="M184.548 25.3436H183.26V92.8925H184.548V25.3436Z" fill="#E6E6E6"/>
<path d="M209.541 25.3436H208.253V92.8925H209.541V25.3436Z" fill="#E6E6E6"/>
<path d="M223.378 22.9653C223.378 22.9653 225.238 46.1938 235.917 58.0308C235.917 58.0308 228.138 87.9267 228.144 98.3519L242.598 95.7912L237.39 58.2133L239.882 22.9707L223.378 22.9653Z" fill="#E0E0E0"/>
<path d="M168.974 22.9653C168.974 22.9653 167.121 46.1938 156.442 58.0308C156.442 58.0308 164.22 87.9267 164.214 98.3519L149.755 95.7912L154.969 58.2133L152.477 22.9707L168.974 22.9653Z" fill="#E0E0E0"/>
<path d="M76.7791 26.8896C83.4555 25.379 87.5904 18.9662 86.0146 12.5661C84.4388 6.16596 77.7491 2.2022 71.0728 3.71276C64.3964 5.22333 60.2615 11.6362 61.8373 18.0363C63.4131 24.4364 70.1027 28.4001 76.7791 26.8896Z" fill="#E0E0E0"/>
<path d="M75.6198 25.2878C81.3774 24.3918 85.2873 19.1912 84.3527 13.6718C83.4181 8.15241 77.9929 4.40435 72.2353 5.30027C66.4776 6.1962 62.5678 11.3968 63.5024 16.9162C64.437 22.4356 69.8621 26.1837 75.6198 25.2878Z" fill="#F0F0F0"/>
<path d="M74.424 8.35303V15.4284L79.3128 12.7765" fill="#F0F0F0"/>
<path d="M74.424 8.35303V15.4284L79.3128 12.7765" stroke="#E0E0E0" stroke-width="2" stroke-linecap="round" stroke-linejoin="round"/>
<path d="M143.627 200C213.119 200 269.454 197.279 269.454 193.923C269.454 190.567 213.119 187.846 143.627 187.846C74.134 187.846 17.7991 190.567 17.7991 193.923C17.7991 197.279 74.134 200 143.627 200Z" fill="#F5F5F5"/>
<path d="M34.0554 177.072C33.958 176.535 31.6867 163.56 36.2359 159.083C36.6886 158.611 37.2622 158.228 37.9153 157.962C38.5684 157.695 39.2848 157.552 40.0129 157.542C49.2022 157.365 50.4547 163.447 50.4677 163.528L49.3839 163.667C49.345 163.447 48.2547 158.299 40.0388 158.449C39.466 158.457 38.9025 158.571 38.3894 158.781C37.8763 158.992 37.4266 159.295 37.0731 159.668C32.8418 163.834 35.1262 176.809 35.1262 176.938L34.0554 177.072Z" fill="#BB6BD9"/>
<path d="M33.5039 176.481L32.4071 176.455C32.4071 176.331 32.7705 164.51 25.7293 162.062C18.8243 159.673 15.7158 164.591 15.5925 164.8L14.6125 164.392C14.6125 164.333 18.2921 158.487 26.1511 161.23C33.8868 163.914 33.5233 175.966 33.5039 176.481Z" fill="#BB6BD9"/>
<path d="M33.5363 177.41C33.5363 177.222 33.4649 158.519 29.0585 153.049C24.8272 147.799 18.0261 150.268 17.7081 150.365L17.2603 149.543C17.3382 149.511 25.2166 146.634 29.9735 152.534C34.5617 158.24 34.6006 176.616 34.6006 177.41H33.5363Z" fill="#BB6BD9"/>
<path d="M41.3304 157.993C41.3304 157.993 37.3198 159.217 38.4944 162.121C39.669 165.026 52.3822 169.744 52.3822 169.744C52.3822 169.744 57.6972 165.713 52.817 159.169C47.9368 152.625 41.4407 155.926 41.3304 157.993Z" fill="#BB6BD9"/>
<path d="M28.8638 152.061C28.8638 152.061 31.7062 151.809 31.4596 150.376C31.213 148.942 20.3883 145.249 13.996 151.219C13.996 151.219 18.091 157.038 24.0095 157.124C29.9281 157.21 28.8638 152.061 28.8638 152.061Z" fill="#BB6BD9"/>
<path d="M25.937 161.649C25.937 161.649 27.8839 160.334 25.7812 159.695C23.6786 159.056 13.2562 159.233 13.1524 167.747C13.1524 167.747 25.2685 169.411 26.7806 166.164C28.2927 162.916 25.937 161.649 25.937 161.649Z" fill="#BB6BD9"/>
<path opacity="0.2" d="M41.3304 157.993C41.3304 157.993 37.3198 159.217 38.4944 162.121C39.669 165.026 52.3822 169.744 52.3822 169.744C52.3822 169.744 57.6972 165.713 52.817 159.169C47.9368 152.625 41.4407 155.926 41.3304 157.993Z" fill="white"/>
<path opacity="0.2" d="M28.8638 152.061C28.8638 152.061 31.7062 151.809 31.4596 150.376C31.213 148.942 20.3883 145.249 13.996 151.219C13.996 151.219 18.091 157.038 24.0095 157.124C29.9281 157.21 28.8638 152.061 28.8638 152.061Z" fill="white"/>
<path opacity="0.2" d="M25.937 161.649C25.937 161.649 27.8839 160.334 25.7812 159.695C23.6786 159.056 13.2562 159.233 13.1524 167.747C13.1524 167.747 25.2685 169.411 26.7806 166.164C28.2927 162.916 25.937 161.649 25.937 161.649Z" fill="white"/>
<path d="M43.4849 194.438H24.6779L22.6532 177.41H45.5097L43.4849 194.438Z" fill="#BB6BD9"/>
<path opacity="0.5" d="M43.4849 194.438H24.6779L22.6532 177.41H45.5097L43.4849 194.438Z" fill="white"/>
<path d="M46.5156 175.531H21.6473V179.289H46.5156V175.531Z" fill="#BB6BD9"/>
<path opacity="0.2" d="M46.5156 175.531H21.6473V179.289H46.5156V175.531Z" fill="white"/>
<path d="M236.143 110.586H172.246C171.493 110.585 170.747 110.708 170.051 110.945C169.355 111.183 168.723 111.532 168.19 111.973C167.657 112.413 167.234 112.936 166.946 113.511C166.658 114.087 166.509 114.703 166.509 115.326L158.722 156.377H234.079L241.867 115.326C241.867 114.07 241.264 112.865 240.191 111.976C239.118 111.088 237.662 110.588 236.143 110.586Z" fill="#BB6BD9"/>
<path opacity="0.4" d="M236.143 110.586H172.246C171.493 110.585 170.747 110.708 170.051 110.945C169.355 111.183 168.723 111.532 168.19 111.973C167.657 112.413 167.234 112.936 166.946 113.511C166.658 114.087 166.509 114.703 166.509 115.326L158.722 156.377H234.079L241.867 115.326C241.867 114.07 241.264 112.865 240.191 111.976C239.118 111.088 237.662 110.588 236.143 110.586Z" fill="white"/>
<path opacity="0.2" d="M222.618 157H234.079L241.867 115.342C241.867 114.085 241.263 112.88 240.188 111.991C239.114 111.102 237.656 110.602 236.136 110.602C234.617 110.602 233.159 111.102 232.084 111.991C231.01 112.88 230.406 114.085 230.406 115.342L222.618 157Z" fill="black"/>
<path d="M156.333 137.213H129.168H128.876C127.021 137.213 125.243 137.822 123.931 138.906C122.619 139.99 121.882 141.461 121.88 142.995V194.439H162.914V142.984C162.939 141.503 162.266 140.072 161.038 138.995C159.809 137.918 158.122 137.278 156.333 137.213Z" fill="#BB6BD9"/>
<path opacity="0.5" d="M156.333 137.213H129.168H128.876C127.021 137.213 125.243 137.822 123.931 138.906C122.619 139.99 121.882 141.461 121.88 142.995V194.439H162.914V142.984C162.939 141.503 162.266 140.072 161.038 138.995C159.809 137.918 158.122 137.278 156.333 137.213Z" fill="white"/>
<path opacity="0.6" d="M128.876 137.202C127.021 137.202 125.243 137.811 123.931 138.895C122.619 139.979 121.882 141.45 121.88 142.984V194.439H135.872V142.984C135.87 141.45 135.132 139.979 133.82 138.895C132.508 137.811 130.73 137.202 128.876 137.202Z" fill="white"/>
<path d="M193.921 151.761H140.44V194.439H193.921V151.761Z" fill="#BB6BD9"/>
<path opacity="0.4" d="M193.921 151.761H140.44V194.439H193.921V151.761Z" fill="white"/>
<path d="M144.34 148.164H205.343V160.35H144.34C142.385 160.35 140.51 159.708 139.127 158.564C137.745 157.42 136.968 155.869 136.968 154.252C136.972 152.636 137.75 151.088 139.132 149.946C140.514 148.805 142.387 148.164 144.34 148.164Z" fill="#BB6BD9"/>
<path opacity="0.6" d="M144.34 148.164H205.343V160.35H144.34C142.385 160.35 140.51 159.708 139.127 158.564C137.745 157.42 136.968 155.869 136.968 154.252C136.972 152.636 137.75 151.088 139.132 149.946C140.514 148.805 142.387 148.164 144.34 148.164Z" fill="white"/>
<path d="M228.368 137.213H201.203H200.911C199.056 137.213 197.278 137.822 195.966 138.906C194.654 139.99 193.917 141.461 193.915 142.995V194.439H234.949V142.984C234.974 141.503 234.301 140.072 233.073 138.995C231.844 137.918 230.157 137.278 228.368 137.213Z" fill="#BB6BD9"/>
<path opacity="0.5" d="M228.368 137.213H201.203H200.911C199.056 137.213 197.278 137.822 195.966 138.906C194.654 139.99 193.917 141.461 193.915 142.995V194.439H234.949V142.984C234.974 141.503 234.301 140.072 233.073 138.995C231.844 137.918 230.157 137.278 228.368 137.213Z" fill="white"/>
<path opacity="0.6" d="M200.911 137.202C199.056 137.202 197.278 137.811 195.966 138.895C194.654 139.979 193.917 141.45 193.915 142.984V194.438H207.907V142.984C207.905 141.45 207.167 139.979 205.855 138.895C204.543 137.811 202.765 137.202 200.911 137.202Z" fill="white"/>
<path d="M266.002 139.161H217.784V194.439H266.002V139.161Z" fill="#BB6BD9"/>
<path opacity="0.2" d="M266.008 139.162H251.212V194.439H266.008V139.162Z" fill="black"/>
<path opacity="0.2" d="M247.915 141.137H220.185V149.764H247.915V141.137Z" fill="white"/>
<path opacity="0.2" d="M247.915 151.874H220.185V160.5H247.915V151.874Z" fill="white"/>
<path opacity="0.2" d="M247.915 162.61H220.185V185.549H247.915V162.61Z" fill="white"/>
<path opacity="0.2" d="M233.339 143.709C233.945 143.709 234.436 143.302 234.436 142.801C234.436 142.3 233.945 141.894 233.339 141.894C232.734 141.894 232.243 142.3 232.243 142.801C232.243 143.302 232.734 143.709 233.339 143.709Z" fill="black"/>
<path opacity="0.2" d="M233.339 154.064C233.945 154.064 234.436 153.658 234.436 153.157C234.436 152.656 233.945 152.249 233.339 152.249C232.734 152.249 232.243 152.656 232.243 153.157C232.243 153.658 232.734 154.064 233.339 154.064Z" fill="black"/>
<path opacity="0.2" d="M222.618 174.077C222.63 174.201 222.61 174.327 222.561 174.445C222.511 174.563 222.432 174.671 222.33 174.763C222.227 174.855 222.103 174.928 221.964 174.978C221.826 175.028 221.676 175.054 221.525 175.054C221.374 175.054 221.224 175.028 221.086 174.978C220.947 174.928 220.823 174.855 220.72 174.763C220.617 174.671 220.539 174.563 220.489 174.445C220.439 174.327 220.42 174.201 220.431 174.077C220.453 173.849 220.577 173.636 220.78 173.481C220.983 173.326 221.249 173.239 221.525 173.239C221.801 173.239 222.067 173.326 222.27 173.481C222.473 173.636 222.597 173.849 222.618 174.077Z" fill="black"/>
<path d="M248.772 104.767H245.657V139.156H248.772V104.767Z" fill="#263238"/>
<path d="M230.575 116.588H263.86L261.167 97.1012H233.268L230.575 116.588Z" fill="#BB6BD9"/>
<g opacity="0.6">
<path opacity="0.6" d="M230.575 116.588H263.86L261.167 97.1012H233.268L230.575 116.588Z" fill="white"/>
</g>
<path opacity="0.2" d="M245.657 124.431V139.162H248.778V122.821L245.657 124.431Z" fill="white"/>
<path d="M252.672 137.648H241.763L239.816 139.162H254.619L252.672 137.648Z" fill="#BB6BD9"/>
<path opacity="0.2" d="M252.672 137.648H241.763L239.816 139.162H254.619L252.672 137.648Z" fill="white"/>
<path d="M71.5916 50.2709C70.7431 49.8143 69.729 49.6509 68.7492 49.813C65.9716 50.2709 65.3097 52.6396 65.6796 54.3978C65.8396 55.1106 66.2169 55.7728 66.7718 56.3149C67.3267 56.8569 68.0388 57.259 68.8335 57.4788C71.0205 57.9593 72.948 56.1955 73.5126 54.8727C73.8708 54.0318 73.8742 53.1073 73.5224 52.2644C73.1705 51.4215 72.4862 50.715 71.5916 50.2709Z" fill="#263238"/>
<path d="M120.556 76.2645L131.53 73.5849C131.53 73.5849 131.53 73.0195 133.237 71.9624C134.943 70.9052 139.512 70.0742 139.512 70.0742C139.512 70.0742 141.615 75.3713 140.933 75.5183C140.252 75.6652 134.093 77.4573 133.749 76.8637L122.068 79.7412L120.556 76.2645Z" fill="#B97964"/>
<path d="M87.1214 65.2181C93.5266 67.0215 103.501 76.8638 105.448 77.4573C107.395 78.0509 126.033 74.5403 126.033 74.5403L128.629 78.718C128.629 78.718 111.522 84.1112 105.429 83.6928C99.3349 83.2745 91.3851 75.4052 85.6872 74.2689L87.1214 65.2181Z" fill="#BB6BD9"/>
<path opacity="0.5" d="M128.649 78.718C128.649 78.718 111.542 84.1112 105.448 83.6928C101.509 83.4215 96.8039 80.0465 92.4688 77.3838C90.0611 75.9253 87.7573 74.676 85.739 74.2689L86.4788 69.5315L87.1278 65.2181C93.5331 67.0215 103.508 76.8581 105.455 77.4573C107.401 78.0566 126.04 74.5403 126.04 74.5403L128.649 78.718Z" fill="white"/>
<path opacity="0.2" d="M92.4365 77.3838C90.0288 75.9253 87.725 74.6759 85.7067 74.2689L86.4465 69.5315C88.2831 71.0861 91.1126 73.9127 92.4365 77.3838Z" fill="black"/>
<path d="M96.5572 186.609L92.2286 187.271L90.4569 182.138L88.841 177.429L93.825 175.914L95.2722 181.572L96.5572 186.609Z" fill="#E4897B"/>
<path d="M91.2551 187.175C91.1837 186.757 97.0958 186.186 97.0958 186.186C97.0958 186.186 101.346 188.82 104.994 189.012C108.641 189.204 107.051 191.319 103.138 191.924L93.4681 193.41C90.6905 193.823 92.0144 191.5 91.2551 187.175Z" fill="#263238"/>
<path d="M100.016 187.045C99.2976 187.016 98.5853 186.913 97.8941 186.739C97.877 186.743 97.8593 186.743 97.8422 186.739C97.8241 186.731 97.8103 186.717 97.8033 186.7C97.8033 186.7 97.8033 186.7 97.8033 186.666C97.8001 186.645 97.8001 186.624 97.8033 186.604C97.8033 186.547 98.0693 185.281 98.8027 184.874C98.9132 184.81 99.0386 184.768 99.1699 184.751C99.3012 184.735 99.4351 184.744 99.562 184.778C99.854 184.846 100.01 184.97 100.036 185.145C100.075 185.417 99.7112 185.75 99.2764 186.044C99.7048 185.909 100.168 185.882 100.613 185.965C100.697 185.989 100.774 186.029 100.84 186.08C100.906 186.132 100.959 186.195 100.996 186.265C101.06 186.348 101.095 186.447 101.095 186.547C101.095 186.648 101.06 186.746 100.996 186.83C100.859 186.923 100.701 186.99 100.532 187.027C100.363 187.064 100.188 187.07 100.016 187.045ZM98.4133 186.575C99.3348 186.762 100.464 186.875 100.704 186.638C100.704 186.638 100.789 186.553 100.704 186.361C100.686 186.324 100.659 186.291 100.624 186.264C100.589 186.238 100.548 186.219 100.503 186.208C100.023 186.061 99.0428 186.344 98.4133 186.575ZM99.2764 184.998C99.158 184.998 99.0423 185.029 98.9455 185.089C98.536 185.421 98.2606 185.859 98.1602 186.338C98.9714 185.92 99.7307 185.394 99.6983 185.162C99.6983 185.089 99.5425 185.043 99.4516 185.021C99.3943 185.008 99.3356 185 99.2764 184.998Z" fill="#BB6BD9"/>
<path opacity="0.2" d="M95.2982 181.691L90.4764 182.245L88.854 177.479L93.8316 175.936L95.2982 181.691Z" fill="black"/>
<path d="M67.6978 188.221H63.3043L62.584 182.901L61.935 178.011L67.1462 177.276L67.4382 183.071L67.6978 188.221Z" fill="#E4897B"/>
<path d="M62.3632 187.977C62.3632 187.553 68.3207 187.887 68.3207 187.887C68.3207 187.887 71.9808 191.126 75.5307 191.844C79.0805 192.562 77.1012 194.428 73.1295 194.428H63.3042C60.4812 194.439 62.2464 192.347 62.3632 187.977Z" fill="#263238"/>
<path d="M71.4489 189.238C70.5914 189.146 69.759 188.924 68.9893 188.582C68.9663 188.577 68.9459 188.565 68.9309 188.549V188.52C68.9146 188.486 68.9146 188.447 68.9309 188.413C68.9309 188.362 69.45 187.152 70.2288 186.864C70.3486 186.815 70.4794 186.79 70.6117 186.79C70.744 186.79 70.8748 186.815 70.9946 186.864C71.2671 186.977 71.3969 187.124 71.384 187.299C71.384 187.571 70.9427 187.864 70.4624 188.068C70.9006 188.008 71.3492 188.053 71.7604 188.198C71.8394 188.233 71.9088 188.282 71.9637 188.343C72.0186 188.403 72.0577 188.473 72.0784 188.549C72.1273 188.644 72.1398 188.75 72.1141 188.852C72.0884 188.953 72.0258 189.045 71.9356 189.114C71.793 189.2 71.6222 189.244 71.4489 189.238ZM69.502 188.498C70.3781 188.82 71.4489 189.108 71.7474 188.905C71.7474 188.905 71.8512 188.837 71.7863 188.633C71.7763 188.594 71.7558 188.557 71.7265 188.525C71.6972 188.494 71.6599 188.469 71.6176 188.452C71.2152 188.209 70.1964 188.339 69.5279 188.469L69.502 188.498ZM70.5663 187.073C70.4841 187.073 70.4026 187.086 70.3262 187.113C69.8569 187.385 69.5 187.781 69.3073 188.243C70.1899 187.955 71.04 187.548 71.053 187.316C71.053 187.248 70.9232 187.18 70.8388 187.146C70.7667 187.096 70.6823 187.062 70.5922 187.045L70.5663 187.073Z" fill="#BB6BD9"/>
<path opacity="0.2" d="M67.4382 183.189L62.584 183.003L61.935 178.068L67.1462 177.299L67.4382 183.189Z" fill="black"/>
<path d="M95.7006 178.701L88.562 179.792C81.4234 164.228 76.2901 151.237 72.6883 140.457C70.7414 134.64 69.2358 129.467 68.0742 124.876L68.3987 141.836V180.306H61.2081C43.6537 107.38 56.0943 90.7141 56.0943 90.7141L77.0948 87.5879C77.9258 90.9652 78.5132 94.3846 78.8535 97.8259L79.801 103.875L88.0104 140.802L95.7006 178.701Z" fill="#BB6BD9"/>
<path opacity="0.5" d="M95.7006 178.701L88.562 179.792C81.4234 164.228 76.2901 151.237 72.6883 140.457C70.7414 134.64 69.2358 129.467 68.0742 124.876L68.3987 141.836V180.306H61.2081C43.6537 107.38 56.0943 90.7141 56.0943 90.7141L77.0948 87.5879C77.9258 90.9652 78.5132 94.3846 78.8535 97.8259L79.801 103.875L88.0104 140.802L95.7006 178.701Z" fill="white"/>
<path d="M87.4847 179.029L96.2976 176.485L96.1743 179.747L88.8864 181.776L87.4847 179.029Z" fill="#BB6BD9"/>
<path d="M60.2737 179.385L69.4631 178.214L68.6908 181.409L61.1109 182.302L60.2737 179.385Z" fill="#BB6BD9"/>
<path opacity="0.2" d="M72.7208 140.457C70.7739 134.639 69.2683 129.467 68.1066 124.876C68.2053 119.443 68.6581 114.018 69.463 108.629C69.463 108.629 72.5391 129.585 72.7208 140.457Z" fill="black"/>
<path d="M80.5601 101.613L71.5914 104.259L69.9301 99.5049L68.113 103.886L51.8305 100.585C53.2257 91.8787 58.8003 84.9309 59.6764 82.2965C60.8835 78.6558 61.831 71.6911 61.0068 67.1855V67.1289C60.9247 66.6743 60.9511 66.2098 61.0844 65.7645C61.2177 65.3192 61.4549 64.9026 61.7814 64.5407C62.1078 64.1789 62.5164 63.8796 62.9817 63.6615C63.4469 63.4435 63.9588 63.3114 64.4853 63.2734C66.0558 63.166 67.6392 63.1151 69.2227 63.1095C72.362 63.0774 75.4999 63.2379 78.6132 63.59C82.6109 64.1553 87.1341 65.1955 87.1341 65.1955C87.1341 65.1955 87.7831 65.4273 87.4716 69.1528C87.2055 72.426 86.4852 82.5961 78.8014 91.2003L80.5601 101.613Z" fill="#BB6BD9"/>
<path opacity="0.6" d="M80.5601 101.613L71.5914 104.259L69.9301 99.5049L68.113 103.886L51.8305 100.585C53.2257 91.8787 58.8003 84.9309 59.6764 82.2965C60.8835 78.6558 61.831 71.6911 61.0068 67.1855V67.1289C60.9247 66.6743 60.9511 66.2098 61.0844 65.7645C61.2177 65.3192 61.4549 64.9026 61.7814 64.5407C62.1078 64.1789 62.5164 63.8796 62.9817 63.6615C63.4469 63.4435 63.9588 63.3114 64.4853 63.2734C66.0558 63.166 67.6392 63.1151 69.2227 63.1095C72.362 63.0774 75.4999 63.2379 78.6132 63.59C82.6109 64.1553 87.1341 65.1955 87.1341 65.1955C87.1341 65.1955 87.7831 65.4273 87.4716 69.1528C87.2055 72.426 86.4852 82.5961 78.8014 91.2003L80.5601 101.613Z" fill="white"/>
<path d="M71.4294 70.0742C71.4294 70.0742 75.0116 72.7821 76.0565 79.7412L80.0995 70.0121L82.8771 70.7526C82.8771 70.7526 80.7355 61.928 73.7916 61.764C66.8477 61.6001 67.3668 70.7526 67.3668 70.7526L71.4294 70.0742Z" fill="#BB6BD9"/>
<path opacity="0.5" d="M71.4294 70.0742C71.4294 70.0742 75.0116 72.7821 76.0565 79.7412L80.0995 70.0121L82.8771 70.7526C82.8771 70.7526 80.7355 61.928 73.7916 61.764C66.8477 61.6001 67.3668 70.7526 67.3668 70.7526L71.4294 70.0742Z" fill="white"/>
<path d="M81.5013 60.1527C81.5013 60.1527 78.9573 61.583 78.516 62.5327C78.4886 62.5913 78.4669 62.6519 78.4512 62.7136C78.3297 63.2534 78.2451 63.7989 78.198 64.3474C80.1449 67.9937 76.4134 74.2688 76.4134 74.2688C74.8945 70.5612 72.744 67.0737 70.0341 63.9234C74.1161 62.5327 74.8948 55.715 74.8948 55.715L76.8417 57.0435L81.5013 60.1527Z" fill="#B97964"/>
<path opacity="0.2" d="M81.5013 60.1528C81.5013 60.1528 78.9574 61.5831 78.5161 62.5328C78.4887 62.5914 78.467 62.6519 78.4512 62.7137C77.3735 61.9971 76.5141 61.061 75.9483 59.9877C75.3826 58.9143 75.1278 57.7365 75.2064 56.5574L76.8612 57.0435L81.5013 60.1528Z" fill="black"/>
<path d="M84.3242 44.1711C84.3242 44.1711 89.4705 42.9161 91.9625 46.5342C94.4545 50.1522 92.4622 52.894 90.7295 54.1999" stroke="#263238" stroke-width="0.488465" stroke-linecap="round" stroke-linejoin="round"/>
<path d="M86.3751 43.9507C86.3751 43.9507 90.5674 44.0637 91.729 47.1504C92.8907 50.237 92.0275 53.7024 85.804 57.4336C82.7603 59.2596 75.1999 55.6924 75.1999 55.6924L74.5964 57.2866C73.586 56.6491 72.6686 55.9068 71.8642 55.0762C69.4176 52.5775 70.0471 44.3012 76.8353 42.6787C83.922 41.011 86.3751 43.9507 86.3751 43.9507Z" fill="#263238"/>
<path d="M82.3773 45.0079C87.7053 45.6354 89.0357 48.3263 88.6788 53.1598C88.231 59.1918 86.044 63.2621 79.5933 61.193C70.7998 58.3834 73.5384 43.9507 82.3773 45.0079Z" fill="#B97964"/>
<path d="M85.2717 52.4871C85.5911 53.231 86.0116 53.9389 86.5242 54.5957C86.3381 54.7703 86.1001 54.8965 85.8366 54.9604C85.5731 55.0243 85.2945 55.0233 85.0316 54.9575L85.2717 52.4871Z" fill="#A24E3F"/>
<path d="M82.0724 51.7239C82.0205 52.1026 81.7414 52.391 81.4234 52.3627C81.1054 52.3344 80.9367 52.0009 80.9821 51.6165C81.0276 51.2321 81.3131 50.9494 81.6311 50.9777C81.9491 51.0059 82.1178 51.3395 82.0724 51.7239Z" fill="#263238"/>
<path d="M81.5077 50.9834L82.5006 50.7516C82.5006 50.7516 81.936 51.4074 81.5077 50.9834Z" fill="#263238"/>
<path d="M87.5367 52.1761C87.4913 52.5606 87.2122 52.8489 86.9202 52.8206C86.6282 52.7923 86.427 52.4588 86.4789 52.0744C86.5308 51.69 86.8034 51.4017 87.1279 51.4356C87.4524 51.4695 87.5886 51.7974 87.5367 52.1761Z" fill="#263238"/>
<path d="M86.9721 51.4413L87.9715 51.2095C87.9715 51.2095 87.4069 51.8652 86.9721 51.4413Z" fill="#263238"/>
<path d="M82.5202 48.5129C82.1064 48.4171 81.6729 48.4055 81.2531 48.479C80.8334 48.5525 80.4387 48.7092 80.0996 48.9369" stroke="#263238" stroke-width="0.707962" stroke-linecap="round" stroke-linejoin="round"/>
<path d="M86.4204 48.7729C86.797 48.7356 87.1783 48.7732 87.5358 48.8828C87.8933 48.9925 88.2175 49.1714 88.4841 49.4061" stroke="#263238" stroke-width="0.707962" stroke-linecap="round" stroke-linejoin="round"/>
<path d="M75.3296 52.1365C75.3296 52.1365 78.4186 48.6202 78.503 45.6297C78.503 45.6297 89.6522 43.1253 88.7112 52.5266C88.7112 52.5266 91.041 44.3577 81.9101 43.0858C72.7791 41.8138 70.67 52.7697 74.8364 56.8117C74.8364 56.8117 73.4151 54.3413 75.3296 52.1365Z" fill="#263238"/>
<path d="M76.05 53.2219C76.0801 52.6792 75.8633 52.148 75.4465 51.7436C75.0298 51.3393 74.4467 51.0945 73.824 51.0624C72.1497 51.0228 70.8972 53.889 74.8948 55.0819C75.4854 55.2571 75.8812 54.7879 76.05 53.2219Z" fill="#B97964"/>
<path d="M84.7461 56.3426C84.5224 56.896 84.3445 57.4628 84.214 58.0385H83.857C82.2476 57.9707 81.5273 57.4732 81.2158 56.9531C81.0672 56.6936 80.9937 56.4063 81.0016 56.1164C81.0003 55.9523 81.0243 55.7888 81.073 55.6302C82.047 56.0533 83.1134 56.2904 84.201 56.3256C84.5709 56.3426 84.7461 56.3426 84.7461 56.3426Z" fill="#263238"/>
<path d="M84.2011 56.3142L84.0258 56.8117C82.5138 56.7439 81.43 56.5234 81.0017 56.1051C81.0004 55.941 81.0244 55.7774 81.0731 55.6189C82.047 56.042 83.1135 56.2791 84.2011 56.3142Z" fill="white"/>
<path d="M83.857 58.0272C82.2476 57.9593 81.5272 57.4619 81.2157 56.9418C81.8253 56.9757 82.423 57.1039 82.9809 57.3205C83.3507 57.4703 83.6571 57.7175 83.857 58.0272Z" fill="#DE5753"/>
<path d="M95.6034 96.062L102.742 97.4979C104.524 97.5905 106.288 97.8521 108.005 98.2781C110.705 98.9678 113.625 99.974 113.197 100.585C112.768 101.195 108.096 104.468 106.603 104.259C105.111 104.05 100.912 101.998 101.412 100.98L94.4417 99.5048L95.6034 96.062Z" fill="#B97964"/>
<path d="M62.9604 63.6804C65.5174 63.0303 70.4819 84.032 74.1421 87.5879C77.8022 91.1437 99.867 96.3786 99.867 96.3786L98.7508 100.585C98.7508 100.585 71.702 97.7184 68.1067 93.2354C64.5115 88.7524 59.5079 76.7393 58.872 70.7526C58.236 64.7658 61.4548 64.0705 62.9604 63.6804Z" fill="#BB6BD9"/>
<path opacity="0.5" d="M62.9604 63.6804C65.5174 63.0303 70.4819 84.032 74.1421 87.5879C77.8022 91.1437 99.867 96.3786 99.867 96.3786L98.7508 100.585C98.7508 100.585 71.702 97.7184 68.1067 93.2354C64.5115 88.7524 59.5079 76.7393 58.872 70.7526C58.236 64.7658 61.4548 64.0705 62.9604 63.6804Z" fill="white"/>
<path d="M86.1026 81.4315L78.977 81.0131L79.4832 77.5477L86.6153 77.9661L86.1026 81.4315Z" fill="#BB6BD9"/>
<path opacity="0.5" d="M85.726 81.1601L79.5868 80.7983L80.0281 77.8191L86.1608 78.1809L85.726 81.1601Z" fill="white"/>
<path d="M83.2599 76.6036L82.572 78.277H83.7207V76.6036H83.2599Z" fill="#263238"/>
<path d="M104.844 101.887L98.199 102.968C98.199 102.968 91.2486 101.658 90.0416 101.887C88.8345 102.117 85.7065 107.407 85.7065 107.407C85.7065 107.407 96.3819 109.416 97.7448 109.025C99.1076 108.633 100.237 107.104 100.237 107.104L105.429 106.276L104.844 101.887Z" fill="#E4897B"/>
<path d="M118.408 74.7538C115.267 78.8235 119.829 95.332 120.115 96.3788C120.4 97.4256 101.399 101.859 101.399 101.859L104.137 109.086C104.137 109.086 127.818 106.729 130.446 104.294C133.075 101.859 130.115 81.8408 130.115 81.8408L118.434 74.7538H118.408Z" fill="#BB6BD9"/>
<path opacity="0.4" d="M130.446 104.294C128.207 106.371 110.659 108.392 105.539 108.941L104.137 109.086L101.399 101.859L102.645 101.562C106.869 100.555 120.355 97.2633 120.115 96.3788C119.829 95.332 115.267 78.8235 118.408 74.7538L120.439 75.4927L127.163 79.9039L130.115 81.8408C130.115 81.8408 131.296 89.6444 131.491 96.0653C131.627 99.9671 131.433 103.376 130.446 104.294Z" fill="black"/>
<path opacity="0.1" d="M105.539 108.941L104.137 109.086L101.399 101.859L102.645 101.562L105.539 108.941Z" fill="black"/>
<path opacity="0.2" d="M131.491 96.0653C127.597 90.6856 127.214 84.791 127.162 79.9039L130.115 81.8408C130.115 81.8408 131.296 89.6444 131.491 96.0653Z" fill="black"/>
<path d="M75.7905 194.427L80.3332 130.538H117.11L121.653 194.427H124.898L119.018 112.299C118.876 110.432 117.924 108.679 116.35 107.391C114.777 106.102 112.699 105.372 110.53 105.347H87.037C84.8492 105.351 82.7449 106.072 81.1498 107.364C79.5547 108.656 78.5879 110.422 78.4447 112.305L72.6041 194.427H75.7905ZM81.6312 112.479C81.7201 111.305 82.3225 110.205 83.3166 109.4C84.3107 108.596 85.622 108.147 86.9851 108.146H110.53C111.89 108.149 113.199 108.597 114.192 109.4C115.184 110.203 115.787 111.302 115.877 112.473L116.967 127.739H80.5604L81.6312 112.479Z" fill="#BB6BD9"/>
<path d="M143.692 190.19L138.617 191.466L135.625 181.989L140.7 180.707L143.692 190.19Z" fill="#B97964"/>
<path d="M138.065 189.434H144.276C144.377 189.434 144.475 189.464 144.554 189.519C144.633 189.574 144.688 189.651 144.711 189.736L145.716 193.655C145.757 193.823 145.719 193.999 145.611 194.143C145.503 194.288 145.333 194.39 145.139 194.427C145.083 194.433 145.026 194.433 144.97 194.427C142.965 194.399 141.511 194.293 138.993 194.293C137.442 194.293 132.77 194.433 130.628 194.433C128.486 194.433 128.207 192.614 129.083 192.446C133.016 191.707 135.969 190.682 137.228 189.708C137.457 189.529 137.756 189.431 138.065 189.434Z" fill="#263238"/>
<path opacity="0.2" d="M140.7 180.707L135.625 181.989L137.17 186.876L142.251 185.599L140.7 180.707Z" fill="black"/>
<path d="M160.195 99.48C161.58 105.512 162.157 111.662 161.914 117.808C161.46 127.666 135.631 139.903 135.138 143.346C134.645 146.788 143.088 182.789 143.088 182.789L134.178 185.521C134.178 185.521 116.571 152.929 116.37 144.952C116.169 136.975 135.631 117.808 140.94 112.523C143.004 110.469 140.972 102.201 140.972 102.201L160.195 99.48Z" fill="#263238"/>
<path opacity="0.3" d="M161.914 117.808C161.752 121.374 158.267 125.247 153.861 128.909C146.871 134.742 137.481 140.026 135.508 142.612C135.322 142.83 135.196 143.08 135.138 143.346C134.651 146.794 143.088 182.789 143.088 182.789L134.178 185.515C134.178 185.515 116.571 152.929 116.37 144.952C116.169 136.975 135.631 117.808 140.94 112.523C143.004 110.469 140.972 102.201 140.972 102.201L160.201 99.4744C161.584 105.509 162.159 111.66 161.914 117.808Z" fill="white"/>
<path d="M133.626 186.865L144.477 183.69L143.581 181.082L132.25 184.205L133.626 186.865Z" fill="#BB6BD9"/>
<path opacity="0.6" d="M133.626 186.865L144.477 183.69L143.581 181.082L132.25 184.205L133.626 186.865Z" fill="white"/>
<path opacity="0.2" d="M153.861 128.909C146.871 134.742 137.481 140.026 135.508 142.612C135.885 131.019 152.109 118.681 152.109 118.681L153.861 128.909Z" fill="black"/>
<path d="M168.268 190.19L163.193 191.466L160.195 181.989L165.276 180.707L168.268 190.19Z" fill="#B97964"/>
<path d="M162.641 189.434H168.832C168.934 189.434 169.032 189.465 169.111 189.519C169.19 189.574 169.245 189.651 169.267 189.736L170.273 193.655C170.313 193.824 170.275 194 170.165 194.145C170.056 194.289 169.885 194.391 169.689 194.427C169.635 194.433 169.581 194.433 169.527 194.427C167.521 194.399 166.061 194.293 163.55 194.293C161.999 194.293 157.32 194.433 155.185 194.433C153.049 194.433 152.764 192.614 153.64 192.446C157.566 191.707 160.526 190.682 161.785 189.708C162.018 189.525 162.325 189.427 162.641 189.434Z" fill="#263238"/>
<path opacity="0.2" d="M165.276 180.707L160.195 181.989L161.746 186.876L166.821 185.599L165.276 180.707Z" fill="black"/>
<path d="M170.286 97.4816C173.168 103.14 174.567 109.278 174.381 115.457C173.927 125.309 160.208 139.897 159.715 143.34C159.221 146.783 167.638 182.789 167.638 182.789L158.722 185.521C158.722 185.521 141.115 152.93 140.908 144.952C140.7 136.975 152.083 118.681 152.083 118.681L149.714 100.544L170.286 97.4816Z" fill="#263238"/>
<path opacity="0.3" d="M170.286 97.4816C173.168 103.14 174.567 109.278 174.381 115.457C173.927 125.309 160.208 139.897 159.715 143.34C159.221 146.783 167.638 182.789 167.638 182.789L158.722 185.521C158.722 185.521 141.115 152.93 140.908 144.952C140.7 136.975 152.083 118.681 152.083 118.681L149.714 100.544L170.286 97.4816Z" fill="white"/>
<path d="M158.196 186.865L169.053 183.69L168.151 181.082L156.827 184.205L158.196 186.865Z" fill="#BB6BD9"/>
<path opacity="0.6" d="M158.196 186.865L169.053 183.69L168.151 181.082L156.827 184.205L158.196 186.865Z" fill="white"/>
<path d="M174.414 109.075C174.414 109.075 143.445 113.105 140.369 110.961C135.826 107.804 130.81 81.3929 118.408 74.7537C119.684 72.9896 121.234 71.3848 123.016 69.9843C126.86 66.8547 131.508 64.553 136.579 63.2667C140.437 62.3038 144.447 61.8675 148.462 61.9736C148.462 61.9736 172.772 76.8754 174.414 109.075Z" fill="#BB6BD9"/>
<path opacity="0.3" d="M174.414 109.075C174.414 109.075 143.445 113.105 140.369 110.961C140.035 110.715 139.746 110.426 139.512 110.105C135.177 104.58 130.037 80.9954 118.408 74.7537C119.684 72.9895 121.234 71.3847 123.016 69.9842L123.535 69.5699C127.28 66.6558 131.739 64.507 136.579 63.2834C136.832 63.2162 137.092 63.1547 137.351 63.0987C140.972 62.2599 144.715 61.8827 148.462 61.9791C148.462 61.9791 153.88 65.2987 159.773 72.1898C163.303 76.3286 166.238 80.821 168.515 85.569C171.7 92.2621 173.63 99.3502 174.232 106.567C174.31 107.401 174.368 108.23 174.414 109.075Z" fill="black"/>
<path opacity="0.1" d="M137.351 63.0988C136.372 67.4231 134.894 71.652 132.938 75.7222C132.938 75.7222 126.585 73.6957 123.535 69.5644C127.28 66.6502 131.738 64.5015 136.579 63.2779C136.832 63.2163 137.092 63.1547 137.351 63.0988Z" fill="black"/>
<path opacity="0.1" d="M174.414 109.075C174.414 109.075 143.445 113.105 140.369 110.961C140.035 110.715 139.746 110.426 139.512 110.105C151.221 110.36 162.912 109.173 174.232 106.578C174.31 107.401 174.368 108.23 174.414 109.075Z" fill="black"/>
<path opacity="0.2" d="M168.515 85.5802C157.657 83.1115 152.011 72.5761 152.011 72.5761L159.799 72.201C163.319 76.341 166.246 80.8334 168.515 85.5802Z" fill="black"/>
<path d="M135.839 63.6754C133.957 69.5981 131.225 70.6169 129.083 70.2698C127.815 69.9948 126.664 69.412 125.767 68.5904C125.989 68.2374 126.092 67.8381 126.066 67.4372C126.023 66.999 125.868 66.5746 125.611 66.1949C125.354 65.8152 125.001 65.4899 124.58 65.2428C124.168 64.9686 123.734 64.7198 123.282 64.4983L123.418 62.9756L124.067 55.7487C125.26 57.323 126.585 58.8198 128.032 60.227C128.519 60.6861 129.032 61.1339 129.557 61.5426C131.524 63.0932 133.717 64.1288 135.839 63.6754Z" fill="#E4897B"/>
<path opacity="0.2" d="M129.077 70.2698C127.808 69.9948 126.657 69.412 125.761 68.5904C125.982 68.2374 126.086 67.8381 126.059 67.4372C126.017 66.9991 125.861 66.5746 125.604 66.1949C125.347 65.8152 124.995 65.4899 124.573 65.2428C124.161 64.9686 123.728 64.7199 123.275 64.4983L123.411 62.9757L129.557 61.5314C129.557 61.5314 131.095 66.8383 129.077 70.2698Z" fill="black"/>
<path d="M113.722 55.4575C113.722 55.4575 111.886 55.2896 111.587 57.3496C111.289 59.4097 112.1 59.4489 112.1 59.4489C112.1 59.4489 111.451 61.1731 112.256 61.6601C113.06 62.1471 113.722 64.2072 113.722 64.2072L115.54 61.3298L113.722 55.4575Z" fill="#263238"/>
<path opacity="0.6" d="M113.722 55.4575C113.722 55.4575 111.886 55.2896 111.587 57.3496C111.289 59.4097 112.1 59.4489 112.1 59.4489C112.1 59.4489 111.451 61.1731 112.256 61.6601C113.06 62.1471 113.722 64.2072 113.722 64.2072L115.54 61.3298L113.722 55.4575Z" fill="white"/>
<path d="M127.909 66.0377C127.78 66.2692 127.635 66.4935 127.474 66.7094C126.702 67.8366 125.52 68.7128 124.113 69.2026C122.705 69.6924 121.149 69.7684 119.686 69.4188C117.782 69.0043 116.133 67.9768 115.079 66.5471C114.925 66.3517 114.786 66.1478 114.663 65.9369C114.423 65.5114 114.183 65.0468 113.969 64.5486C112.23 60.5348 110.426 55.032 116.052 52.1323C119.596 50.2906 125.547 50.061 127.669 53.1343C128.446 54.2553 128.947 55.5023 129.141 56.7976C129.336 58.093 129.219 59.4089 128.798 60.6636C129.122 62.2422 129.44 63.3842 127.909 66.0377Z" fill="#E4897B"/>
<path d="M130.239 56.9019C130.239 56.9019 131.18 56.8627 130.797 55.7823C130.414 54.7019 128.804 53.9965 128.804 53.9965C128.804 53.9965 130.102 53.2576 128.402 52.5579C127.533 52.215 126.548 52.1632 125.637 52.4123C125.073 52.0037 120.115 48.5721 116.747 50.6154C116.717 50.6379 116.697 50.6691 116.692 50.7031C116.687 50.737 116.697 50.7714 116.719 50.7997C116.742 50.828 116.775 50.8482 116.814 50.8565C116.852 50.8648 116.893 50.8607 116.928 50.8449C119.868 49.0647 124.301 51.8581 125.274 52.5243L125.027 52.625C124.015 52.2332 116.558 49.4734 114.053 52.7146C114.041 52.73 114.033 52.7473 114.029 52.7655C114.024 52.7838 114.024 52.8025 114.028 52.8208C114.033 52.839 114.041 52.8564 114.053 52.8718C114.065 52.8872 114.081 52.9004 114.099 52.9105C114.116 52.9209 114.136 52.9281 114.156 52.9317C114.177 52.9353 114.198 52.9353 114.219 52.9316C114.239 52.928 114.259 52.9207 114.276 52.9104C114.294 52.9 114.308 52.8867 114.319 52.8713C116.519 50.0276 123.132 52.2332 124.67 52.7986C124.503 52.8879 124.345 52.989 124.197 53.1009C122.652 52.737 117.759 51.7405 114.826 53.1009C114.326 53.3256 113.887 53.6387 113.537 54.0197C113.187 54.4007 112.934 54.8411 112.794 55.3121C112.789 55.3293 112.787 55.3475 112.789 55.3653C112.792 55.3832 112.798 55.4005 112.808 55.4162C112.819 55.4319 112.832 55.4456 112.849 55.4565C112.866 55.4675 112.885 55.4755 112.905 55.48H112.95C112.985 55.48 113.019 55.4702 113.048 55.452C113.076 55.4338 113.096 55.4083 113.106 55.3792C113.236 54.9454 113.47 54.54 113.793 54.189C114.116 53.838 114.521 53.5494 114.981 53.3416C117.662 52.082 122.237 52.9273 123.924 53.308C123.653 53.5725 123.434 53.8731 123.275 54.1981C122.386 56.0454 123.827 56.7451 124.768 57.6744C125.709 58.6037 125.274 60.1375 125.261 60.1879C124.814 61.0911 124.135 61.895 123.275 62.539C122.674 62.3278 122.001 62.3278 121.4 62.539C120.585 62.8601 119.932 63.4249 119.563 64.1289C116.714 63.8714 116.253 65.881 116.253 65.881C115.006 65.0943 114.012 64.0461 113.365 62.8357C113.08 65.0749 114.014 67.4149 114.929 68.3721C115.845 69.3294 116.299 68.3721 116.299 68.3721C116.299 68.3721 116.513 70.253 117.733 70.9584C118.953 71.6637 119.381 70.8073 119.381 70.8073C119.381 70.8073 120.03 71.9884 122.334 72.4866C124.638 72.9849 125.371 70.1243 125.371 70.1243C127.896 71.8037 127.682 67.8347 127.682 67.8347C127.682 67.8347 128.921 68.1314 128.804 66.1945C128.707 64.6831 127.149 61.7609 126.462 60.535C127.487 60.395 129.057 62.4159 129.057 62.4159C133.49 62.7742 130.239 56.9019 130.239 56.9019Z" fill="#263238"/>
<path opacity="0.6" d="M130.239 56.9019C130.239 56.9019 131.18 56.8627 130.797 55.7823C130.414 54.7019 128.804 53.9965 128.804 53.9965C128.804 53.9965 130.102 53.2576 128.402 52.5579C127.533 52.215 126.548 52.1632 125.637 52.4123C125.073 52.0037 120.115 48.5721 116.747 50.6154C116.717 50.6379 116.697 50.6691 116.692 50.7031C116.687 50.737 116.697 50.7714 116.719 50.7997C116.742 50.828 116.775 50.8482 116.814 50.8565C116.852 50.8648 116.893 50.8607 116.928 50.8449C119.868 49.0647 124.301 51.8581 125.274 52.5243L125.027 52.625C124.015 52.2332 116.558 49.4734 114.053 52.7146C114.041 52.73 114.033 52.7473 114.029 52.7655C114.024 52.7838 114.024 52.8025 114.028 52.8208C114.033 52.839 114.041 52.8564 114.053 52.8718C114.065 52.8872 114.081 52.9004 114.099 52.9105C114.116 52.9209 114.136 52.9281 114.156 52.9317C114.177 52.9353 114.198 52.9353 114.219 52.9316C114.239 52.928 114.259 52.9207 114.276 52.9104C114.294 52.9 114.308 52.8867 114.319 52.8713C116.519 50.0276 123.132 52.2332 124.67 52.7986C124.503 52.8879 124.345 52.989 124.197 53.1009C122.652 52.737 117.759 51.7405 114.826 53.1009C114.326 53.3256 113.887 53.6387 113.537 54.0197C113.187 54.4007 112.934 54.8411 112.794 55.3121C112.789 55.3293 112.787 55.3475 112.789 55.3653C112.792 55.3832 112.798 55.4005 112.808 55.4162C112.819 55.4319 112.832 55.4456 112.849 55.4565C112.866 55.4675 112.885 55.4755 112.905 55.48H112.95C112.985 55.48 113.019 55.4702 113.048 55.452C113.076 55.4338 113.096 55.4083 113.106 55.3792C113.236 54.9454 113.47 54.54 113.793 54.189C114.116 53.838 114.521 53.5494 114.981 53.3416C117.662 52.082 122.237 52.9273 123.924 53.308C123.653 53.5725 123.434 53.8731 123.275 54.1981C122.386 56.0454 123.827 56.7451 124.768 57.6744C125.709 58.6037 125.274 60.1375 125.261 60.1879C124.814 61.0911 124.135 61.895 123.275 62.539C122.674 62.3278 122.001 62.3278 121.4 62.539C120.585 62.8601 119.932 63.4249 119.563 64.1289C116.714 63.8714 116.253 65.881 116.253 65.881C115.006 65.0943 114.012 64.0461 113.365 62.8357C113.08 65.0749 114.014 67.4149 114.929 68.3721C115.845 69.3294 116.299 68.3721 116.299 68.3721C116.299 68.3721 116.513 70.253 117.733 70.9584C118.953 71.6637 119.381 70.8073 119.381 70.8073C119.381 70.8073 120.03 71.9884 122.334 72.4866C124.638 72.9849 125.371 70.1243 125.371 70.1243C127.896 71.8037 127.682 67.8347 127.682 67.8347C127.682 67.8347 128.921 68.1314 128.804 66.1945C128.707 64.6831 127.149 61.7609 126.462 60.535C127.487 60.395 129.057 62.4159 129.057 62.4159C133.49 62.7742 130.239 56.9019 130.239 56.9019Z" fill="white"/>
<path d="M120.069 59.3481C120.199 59.712 120.024 60.0703 119.738 60.1262C119.453 60.1822 119.141 59.9247 119.037 59.5664C118.934 59.2082 119.089 58.8387 119.375 58.7827C119.66 58.7267 119.965 58.9675 120.069 59.3481Z" fill="#263238"/>
<path d="M115.15 60.3277C115.221 60.4699 115.226 60.6303 115.163 60.7754C115.1 60.9205 114.975 61.0389 114.813 61.1058C114.527 61.1618 114.216 60.9043 114.112 60.546C114.008 60.1877 114.164 59.8183 114.449 59.7623C114.735 59.7063 115.072 59.975 115.15 60.3277Z" fill="#263238"/>
<path d="M116.76 60.199C116.55 61.4511 116.139 62.672 115.539 63.8265C115.889 63.9516 116.265 64.0094 116.643 63.9958C117.021 63.9823 117.391 63.8978 117.726 63.7481L116.76 60.199Z" fill="#DE5753"/>
<path d="M121.231 57.6688C121.185 57.6832 121.136 57.6872 121.089 57.6803C121.041 57.6734 120.996 57.656 120.958 57.6296C120.711 57.4423 120.416 57.3073 120.097 57.2354C119.778 57.1635 119.444 57.1567 119.122 57.2153C119.056 57.2329 118.986 57.2275 118.925 57.2002C118.864 57.173 118.818 57.1261 118.797 57.0698C118.779 57.0126 118.787 56.9516 118.82 56.8994C118.852 56.8472 118.907 56.808 118.973 56.7899C119.378 56.706 119.8 56.7075 120.205 56.7942C120.609 56.8809 120.983 57.0503 121.296 57.2881C121.349 57.3254 121.383 57.3792 121.39 57.4379C121.397 57.4966 121.377 57.5555 121.335 57.6016C121.305 57.6288 121.27 57.6515 121.231 57.6688Z" fill="#263238"/>
<path d="M112.639 59.2809C112.596 59.3097 112.543 59.3237 112.489 59.3201C112.423 59.3066 112.365 59.2719 112.328 59.223C112.291 59.1741 112.276 59.1147 112.288 59.057C112.371 58.7046 112.551 58.3746 112.813 58.0949C113.075 57.8153 113.412 57.5942 113.794 57.4503C113.826 57.4397 113.861 57.4347 113.895 57.4357C113.93 57.4367 113.964 57.4436 113.995 57.4562C114.027 57.4687 114.055 57.4865 114.078 57.5086C114.102 57.5306 114.12 57.5565 114.131 57.5847C114.151 57.6412 114.146 57.7022 114.118 57.7559C114.089 57.8095 114.038 57.8522 113.975 57.8758C113.677 57.9966 113.415 58.1759 113.211 58.3994C113.007 58.623 112.867 58.8846 112.801 59.1633C112.786 59.1921 112.763 59.2176 112.735 59.2379C112.707 59.2582 112.674 59.2729 112.639 59.2809Z" fill="#263238"/>
<path opacity="0.6" d="M121.231 57.6688C121.185 57.6832 121.136 57.6872 121.089 57.6803C121.041 57.6734 120.996 57.656 120.958 57.6296C120.711 57.4423 120.416 57.3073 120.097 57.2354C119.778 57.1635 119.444 57.1567 119.122 57.2153C119.056 57.2329 118.986 57.2275 118.925 57.2002C118.864 57.173 118.818 57.1261 118.797 57.0698C118.779 57.0126 118.787 56.9516 118.82 56.8994C118.852 56.8472 118.907 56.808 118.973 56.7899C119.378 56.706 119.8 56.7075 120.205 56.7942C120.609 56.8809 120.983 57.0503 121.296 57.2881C121.349 57.3254 121.383 57.3792 121.39 57.4379C121.397 57.4966 121.377 57.5555 121.335 57.6016C121.305 57.6288 121.27 57.6515 121.231 57.6688Z" fill="white"/>
<path opacity="0.6" d="M112.639 59.2809C112.596 59.3097 112.543 59.3237 112.489 59.3201C112.423 59.3066 112.365 59.2719 112.328 59.223C112.291 59.1741 112.276 59.1147 112.288 59.057C112.371 58.7046 112.551 58.3746 112.813 58.0949C113.075 57.8153 113.412 57.5942 113.794 57.4503C113.826 57.4397 113.861 57.4347 113.895 57.4357C113.93 57.4367 113.964 57.4436 113.995 57.4562C114.027 57.4687 114.055 57.4865 114.078 57.5086C114.102 57.5306 114.12 57.5565 114.131 57.5847C114.151 57.6412 114.146 57.7022 114.118 57.7559C114.089 57.8095 114.038 57.8522 113.975 57.8758C113.677 57.9966 113.415 58.1759 113.211 58.3994C113.007 58.623 112.867 58.8846 112.801 59.1633C112.786 59.1921 112.763 59.2176 112.735 59.2379C112.707 59.2582 112.674 59.2729 112.639 59.2809Z" fill="white"/>
<path opacity="0.2" d="M116.805 66.5303C116.805 66.5303 117.279 66.9389 117.915 66.312C117.915 66.312 118.817 67.5267 119.758 64.8341C119.758 64.8341 122.276 65.2707 122.964 64.8341C123.437 64.5374 122.964 64 122.964 64C122.964 64 123.995 63.9104 124.262 63.2499C124.262 63.2499 125.079 65.8865 120.368 65.3883C120.355 65.3883 118.843 68.2321 116.805 66.5303Z" fill="black"/>
<path d="M131.193 59.7568C131.038 60.3325 130.754 60.8762 130.355 61.3565C129.956 61.8369 129.451 62.2445 128.869 62.5558C127.312 63.3843 126.027 62.2815 126.033 60.7868C126.033 59.4545 126.877 57.3777 128.629 57.1761C130.381 56.9746 131.556 58.3293 131.193 59.7568Z" fill="#E4897B"/>
<path opacity="0.2" d="M119.005 59.9751C119.005 59.9751 119.252 61.0499 120.744 60.714" stroke="black" stroke-width="0.5" stroke-linecap="round" stroke-linejoin="round"/>
<path opacity="0.2" d="M115.377 60.8036C115.377 60.8036 115.345 62.0799 114.319 61.9792" stroke="black" stroke-width="0.5" stroke-linecap="round" stroke-linejoin="round"/>
<path opacity="0.2" d="M113.528 56.7226C115.015 56.0084 116.709 55.678 118.408 55.771" stroke="black" stroke-width="0.5" stroke-linecap="round" stroke-linejoin="round"/>
<path opacity="0.2" d="M113.528 56.0564C114.171 55.539 114.959 55.1749 115.815 55.0002C116.671 54.8255 117.564 54.8461 118.408 55.06" stroke="black" stroke-width="0.5" stroke-linecap="round" stroke-linejoin="round"/>
<path opacity="0.2" d="M114.151 54.8698C114.78 54.4635 115.515 54.1969 116.291 54.0934C117.067 53.9899 117.861 54.0527 118.603 54.2764" stroke="black" stroke-width="0.5" stroke-linecap="round" stroke-linejoin="round"/>
<path d="M176.386 93.2831L173.142 96.3788C173.142 96.3788 170.844 97.5767 170.708 98.2597C170.572 98.9426 173.563 107.804 173.563 107.804C173.563 107.804 177.632 105.106 177.503 104.294C177.373 103.483 175.452 99.4744 175.452 99.4744L179.028 96.6027L176.386 93.2831Z" fill="#E4897B"/>
<path d="M148.461 61.9905C148.461 61.9905 176.964 63.6699 187.49 74.1661C198.016 84.6623 177.477 99.4745 177.477 99.4745L173.771 94.0389C173.771 94.0389 182.104 86.7615 179.021 81.8409C175.939 76.9203 160.201 77.3345 160.201 77.3345C160.201 77.3345 144.866 71.8821 148.461 61.9905Z" fill="#BB6BD9"/>
<path opacity="0.4" d="M179.002 98.2878C178.067 99.0491 177.477 99.4745 177.477 99.4745L173.771 94.0389C173.771 94.0389 174.089 93.7646 174.576 93.2832C176.581 91.3015 181.507 85.8211 179.021 81.8409C175.939 76.9035 160.201 77.3345 160.201 77.3345C160.201 77.3345 144.873 71.8821 148.468 61.9905C148.468 61.9905 176.971 63.6699 187.497 74.1605C196.232 82.8765 183.551 94.5707 179.002 98.2878Z" fill="black"/>
<path opacity="0.1" d="M179.002 98.2877C178.067 99.049 177.477 99.4744 177.477 99.4744L173.771 94.0388C173.771 94.0388 174.089 93.7645 174.576 93.2831L179.002 98.2877Z" fill="black"/>
<path d="M117.759 118.989H80.411C79.9808 118.989 79.5681 118.841 79.2638 118.579C78.9596 118.317 78.7886 117.961 78.7886 117.589C78.7886 117.218 78.9596 116.862 79.2638 116.6C79.5681 116.337 79.9808 116.19 80.411 116.19H117.759C118.189 116.19 118.602 116.337 118.906 116.6C119.21 116.862 119.381 117.218 119.381 117.589C119.381 117.961 119.21 118.317 118.906 118.579C118.602 118.841 118.189 118.989 117.759 118.989Z" fill="#BB6BD9"/>
<g opacity="0.2">
<path opacity="0.2" d="M117.759 118.989H80.411C79.9808 118.989 79.5681 118.841 79.2638 118.579C78.9596 118.317 78.7886 117.961 78.7886 117.589C78.7886 117.218 78.9596 116.862 79.2638 116.6C79.5681 116.337 79.9808 116.19 80.411 116.19H117.759C118.189 116.19 118.602 116.337 118.906 116.6C119.21 116.862 119.381 117.218 119.381 117.589C119.381 117.961 119.21 118.317 118.906 118.579C118.602 118.841 118.189 118.989 117.759 118.989Z" fill="white"/>
</g>
<path d="M114.514 161.506H77.1662C76.7359 161.506 76.3232 161.358 76.019 161.096C75.7147 160.833 75.5438 160.477 75.5438 160.106C75.5438 159.735 75.7147 159.379 76.019 159.117C76.3232 158.854 76.7359 158.707 77.1662 158.707H114.514C114.944 158.707 115.357 158.854 115.661 159.117C115.966 159.379 116.136 159.735 116.136 160.106C116.136 160.477 115.966 160.833 115.661 161.096C115.357 161.358 114.944 161.506 114.514 161.506Z" fill="#BB6BD9"/>
<g opacity="0.2">
<path opacity="0.2" d="M114.514 161.506H77.1662C76.7359 161.506 76.3232 161.358 76.019 161.096C75.7147 160.833 75.5438 160.477 75.5438 160.106C75.5438 159.735 75.7147 159.379 76.019 159.117C76.3232 158.854 76.7359 158.707 77.1662 158.707H114.514C114.944 158.707 115.357 158.854 115.661 159.117C115.966 159.379 116.136 159.735 116.136 160.106C116.136 160.477 115.966 160.833 115.661 161.096C115.357 161.358 114.944 161.506 114.514 161.506Z" fill="white"/>
</g>
<path d="M114.079 194.427L118.622 130.538H155.399L159.974 194.427H163.219L157.339 112.299C157.197 110.427 156.24 108.671 154.66 107.381C153.08 106.092 150.993 105.365 148.818 105.347H125.326C123.138 105.351 121.034 106.072 119.439 107.364C117.844 108.656 116.877 110.422 116.734 112.305L110.893 194.427H114.079ZM119.92 112.479C120.009 111.305 120.611 110.205 121.606 109.4C122.6 108.596 123.911 108.147 125.274 108.146H148.818C150.179 108.149 151.488 108.597 152.481 109.4C153.473 110.203 154.076 111.302 154.166 112.473L155.256 127.739H118.849L119.92 112.479Z" fill="#BB6BD9"/>
<path opacity="0.2" d="M114.079 194.427L118.622 130.538H155.399L159.974 194.427H163.219L157.339 112.299C157.197 110.427 156.24 108.671 154.66 107.381C153.08 106.092 150.993 105.365 148.818 105.347H125.326C123.138 105.351 121.034 106.072 119.439 107.364C117.844 108.656 116.877 110.422 116.734 112.305L110.893 194.427H114.079ZM119.92 112.479C120.009 111.305 120.611 110.205 121.606 109.4C122.6 108.596 123.911 108.147 125.274 108.146H148.818C150.179 108.149 151.488 108.597 152.481 109.4C153.473 110.203 154.076 111.302 154.166 112.473L155.256 127.739H118.849L119.92 112.479Z" fill="white"/>
</svg>
