<svg width="597" height="411" viewBox="0 0 597 411" fill="none" xmlns="http://www.w3.org/2000/svg">
<path d="M597 360.8H0V361.075H597V360.8Z" fill="#EBEBEB"/>
<path d="M537.18 378.531H497.635V378.806H537.18V378.531Z" fill="#EBEBEB"/>
<path d="M395.477 381.528H385.102V381.804H395.477V381.528Z" fill="#EBEBEB"/>
<path d="M496.442 368.304H473.529V368.58H496.442V368.304Z" fill="#EBEBEB"/>
<path d="M114.207 370.155H62.6377V370.431H114.207V370.155Z" fill="#EBEBEB"/>
<path d="M132.402 370.155H124.844V370.431H132.402V370.155Z" fill="#EBEBEB"/>
<path d="M268.829 374.806H156.976V375.081H268.829V374.806Z" fill="#EBEBEB"/>
<path d="M282.978 311.649H52.4288C50.6227 311.647 48.8917 310.982 47.6157 309.803C46.3397 308.623 45.623 307.024 45.623 305.357V6.2374C45.6388 4.58 46.3624 2.99525 47.6367 1.82738C48.911 0.659509 50.633 0.00283921 52.4288 0H282.978C284.786 0 286.521 0.662958 287.799 1.84303C289.078 3.0231 289.796 4.62362 289.796 6.2925V305.357C289.796 307.026 289.078 308.626 287.799 309.806C286.521 310.987 284.786 311.649 282.978 311.649ZM52.4288 0.220404C50.7019 0.223323 49.0468 0.85854 47.8268 1.98663C46.6068 3.11472 45.9215 4.6435 45.9215 6.2374V305.357C45.9215 306.951 46.6068 308.48 47.8268 309.608C49.0468 310.736 50.7019 311.371 52.4288 311.374H282.978C284.706 311.371 286.363 310.736 287.585 309.608C288.807 308.481 289.494 306.952 289.498 305.357V6.2374C289.494 4.64249 288.807 3.11373 287.585 1.98596C286.363 0.858182 284.706 0.223317 282.978 0.220404H52.4288Z" fill="#EBEBEB"/>
<path d="M541.252 311.649H310.691C308.884 311.647 307.151 310.983 305.873 309.803C304.596 308.624 303.876 307.025 303.873 305.357V6.2374C303.892 4.57899 304.618 2.99426 305.894 1.82669C307.171 0.659124 308.894 0.00280825 310.691 0H541.252C543.046 0.00573543 544.765 0.663687 546.037 1.83125C547.308 2.99881 548.03 4.5819 548.046 6.2374V305.357C548.046 307.022 547.331 308.619 546.058 309.799C544.784 310.978 543.056 311.644 541.252 311.649ZM310.691 0.220404C308.963 0.223317 307.306 0.858182 306.084 1.98596C304.863 3.11373 304.175 4.64249 304.172 6.2374V305.357C304.175 306.952 304.863 308.481 306.084 309.608C307.306 310.736 308.963 311.371 310.691 311.374H541.252C542.98 311.371 544.637 310.736 545.859 309.608C547.08 308.481 547.768 306.952 547.771 305.357V6.2374C547.768 4.64249 547.08 3.11373 545.859 1.98596C544.637 0.858182 542.98 0.223317 541.252 0.220404H310.691Z" fill="#EBEBEB"/>
<path d="M228.794 49.855H115.758V284.881H228.794V49.855Z" fill="#F5F5F5"/>
<path d="M224.532 280.474L224.532 54.2632L120.021 54.2632L120.021 280.474H224.532Z" fill="#FAFAFA"/>
<path d="M173.476 53.1282H171.076V282.678H173.476V53.1282Z" fill="#F5F5F5"/>
<path d="M231.396 46.7915H113.143V57.8557H231.396V46.7915Z" fill="#F5F5F5"/>
<path d="M231.396 59.079H113.143V60.3904H231.396V59.079Z" fill="#F5F5F5"/>
<path d="M231.396 62.0544H113.143V63.3658H231.396V62.0544Z" fill="#F5F5F5"/>
<path d="M231.396 65.0297H113.143V66.3411H231.396V65.0297Z" fill="#F5F5F5"/>
<path d="M231.396 68.0054H113.143V69.3168H231.396V68.0054Z" fill="#F5F5F5"/>
<path d="M231.396 70.9807H113.143V72.2921H231.396V70.9807Z" fill="#F5F5F5"/>
<path d="M231.396 73.9561H113.143V75.2675H231.396V73.9561Z" fill="#F5F5F5"/>
<path d="M231.396 76.9316H113.143V78.243H231.396V76.9316Z" fill="#F5F5F5"/>
<path d="M231.396 79.9071H113.143V81.2185H231.396V79.9071Z" fill="#F5F5F5"/>
<path d="M231.396 82.8823H113.143V84.1937H231.396V82.8823Z" fill="#F5F5F5"/>
<path d="M231.396 85.8579H113.143V87.1693H231.396V85.8579Z" fill="#F5F5F5"/>
<path d="M231.396 88.8334H113.143V90.1448H231.396V88.8334Z" fill="#F5F5F5"/>
<path d="M231.396 91.8086H113.143V93.12H231.396V91.8086Z" fill="#F5F5F5"/>
<path d="M231.396 94.7843H113.143V96.0957H231.396V94.7843Z" fill="#F5F5F5"/>
<path d="M231.396 97.7598H113.143V99.0711H231.396V97.7598Z" fill="#F5F5F5"/>
<path d="M231.396 100.735H113.143V102.046H231.396V100.735Z" fill="#F5F5F5"/>
<path d="M231.396 103.721H113.143V105.033H231.396V103.721Z" fill="#F5F5F5"/>
<path d="M231.396 106.697H113.143V108.009H231.396V106.697Z" fill="#F5F5F5"/>
<path d="M231.396 109.672H113.143V110.984H231.396V109.672Z" fill="#F5F5F5"/>
<path d="M362.618 49.855H249.582V284.881H362.618V49.855Z" fill="#F5F5F5"/>
<path d="M358.367 280.474V54.2632L253.856 54.2632V280.474H358.367Z" fill="#FAFAFA"/>
<path d="M307.3 53.1282H304.9V282.678H307.3V53.1282Z" fill="#F5F5F5"/>
<path d="M365.232 46.7915H246.979V57.8557H365.232V46.7915Z" fill="#F5F5F5"/>
<path d="M365.232 59.079H246.979V60.3904H365.232V59.079Z" fill="#F5F5F5"/>
<path d="M365.232 62.0544H246.979V63.3658H365.232V62.0544Z" fill="#F5F5F5"/>
<path d="M365.232 65.0297H246.979V66.3411H365.232V65.0297Z" fill="#F5F5F5"/>
<path d="M365.232 68.0054H246.979V69.3168H365.232V68.0054Z" fill="#F5F5F5"/>
<path d="M365.232 70.9807H246.979V72.2921H365.232V70.9807Z" fill="#F5F5F5"/>
<path d="M365.232 73.9561H246.979V75.2675H365.232V73.9561Z" fill="#F5F5F5"/>
<path d="M365.232 76.9316H246.979V78.243H365.232V76.9316Z" fill="#F5F5F5"/>
<path d="M365.232 79.9071H246.979V81.2185H365.232V79.9071Z" fill="#F5F5F5"/>
<path d="M365.232 82.8823H246.979V84.1937H365.232V82.8823Z" fill="#F5F5F5"/>
<path d="M365.232 85.8579H246.979V87.1693H365.232V85.8579Z" fill="#F5F5F5"/>
<path d="M365.232 88.8334H246.979V90.1448H365.232V88.8334Z" fill="#F5F5F5"/>
<path d="M365.232 91.8086H246.979V93.12H365.232V91.8086Z" fill="#F5F5F5"/>
<path d="M365.232 94.7843H246.979V96.0957H365.232V94.7843Z" fill="#F5F5F5"/>
<path d="M365.232 97.7598H246.979V99.0711H365.232V97.7598Z" fill="#F5F5F5"/>
<path d="M365.232 100.735H246.979V102.046H365.232V100.735Z" fill="#F5F5F5"/>
<path d="M365.232 103.721H246.979V105.033H365.232V103.721Z" fill="#F5F5F5"/>
<path d="M365.232 106.697H246.979V108.009H365.232V106.697Z" fill="#F5F5F5"/>
<path d="M365.232 109.672H246.979V110.984H365.232V109.672Z" fill="#F5F5F5"/>
<path d="M496.453 49.855H383.417V284.881H496.453V49.855Z" fill="#F5F5F5"/>
<path d="M492.191 280.474V54.2632L387.681 54.2632V280.474H492.191Z" fill="#FAFAFA"/>
<path d="M441.136 53.1282H438.736V282.678H441.136V53.1282Z" fill="#F5F5F5"/>
<path d="M499.056 46.7915H380.802V57.8557H499.056V46.7915Z" fill="#F5F5F5"/>
<path d="M499.056 59.079H380.802V60.3904H499.056V59.079Z" fill="#F5F5F5"/>
<path d="M499.056 62.0544H380.802V63.3658H499.056V62.0544Z" fill="#F5F5F5"/>
<path d="M499.056 65.0297H380.802V66.3411H499.056V65.0297Z" fill="#F5F5F5"/>
<path d="M499.056 68.0054H380.802V69.3168H499.056V68.0054Z" fill="#F5F5F5"/>
<path d="M499.056 70.9807H380.802V72.2921H499.056V70.9807Z" fill="#F5F5F5"/>
<path d="M499.056 73.9561H380.802V75.2675H499.056V73.9561Z" fill="#F5F5F5"/>
<path d="M499.056 76.9316H380.802V78.243H499.056V76.9316Z" fill="#F5F5F5"/>
<path d="M499.056 79.9071H380.802V81.2185H499.056V79.9071Z" fill="#F5F5F5"/>
<path d="M499.056 82.8823H380.802V84.1937H499.056V82.8823Z" fill="#F5F5F5"/>
<path d="M499.056 85.8579H380.802V87.1693H499.056V85.8579Z" fill="#F5F5F5"/>
<path d="M499.056 88.8334H380.802V90.1448H499.056V88.8334Z" fill="#F5F5F5"/>
<path d="M499.056 91.8086H380.802V93.12H499.056V91.8086Z" fill="#F5F5F5"/>
<path d="M499.056 94.7843H380.802V96.0957H499.056V94.7843Z" fill="#F5F5F5"/>
<path d="M499.056 97.7598H380.802V99.0711H499.056V97.7598Z" fill="#F5F5F5"/>
<path d="M499.056 100.735H380.802V102.046H499.056V100.735Z" fill="#F5F5F5"/>
<path d="M499.056 103.721H380.802V105.033H499.056V103.721Z" fill="#F5F5F5"/>
<path d="M499.056 106.697H380.802V108.009H499.056V106.697Z" fill="#F5F5F5"/>
<path d="M499.056 109.672H380.802V110.984H499.056V109.672Z" fill="#F5F5F5"/>
<path d="M491.749 331.783C491.749 331.783 497.79 319.606 490.889 307.605C483.988 295.604 481.97 292.783 486.376 290.315C490.782 287.846 492.799 299.924 492.799 299.924C494.982 294.474 495.208 288.52 493.444 282.942C490.387 274.258 488.465 260.108 492.644 258.599C496.823 257.089 493.444 276.231 497.086 282.777C498.945 278.191 500.149 273.401 500.668 268.528C501.169 261.552 500.381 250.411 503.689 247.589C506.996 244.768 509.109 246.708 505.862 262.103C503.91 271.3 502.831 280.636 502.638 290.006C502.638 290.006 509.802 269.817 514.638 269.222C519.473 268.627 519.414 275.173 515.318 280.848C511.223 286.524 503.247 296.673 501.945 301.908C501.945 301.908 509.826 286.711 516.906 291.372C523.987 296.034 510.733 305.203 504.835 308.52C498.937 311.837 494.829 332.621 494.829 332.621L491.749 331.783Z" fill="#E0E0E0"/>
<path d="M496.526 336.775C496.526 336.775 490.639 324.521 497.72 312.619C504.8 300.718 506.83 297.907 502.496 295.395C498.161 292.882 495.953 304.905 495.953 304.905C495.953 304.905 492.371 296.552 495.523 287.912C498.675 279.272 500.812 265.156 496.645 263.58C492.478 262.004 495.618 281.212 491.869 287.692C490.078 283.071 488.946 278.256 488.502 273.366C488.096 266.39 489.027 255.259 485.756 252.361C482.484 249.463 480.347 251.402 483.368 266.842C485.198 276.063 486.157 285.414 486.233 294.789C486.233 294.789 479.32 274.501 474.508 273.85C469.697 273.2 469.625 279.735 473.673 285.466C477.72 291.196 485.541 301.467 486.807 306.713C486.807 306.713 479.129 291.406 471.989 295.968C464.849 300.53 477.959 309.886 483.833 313.281C489.708 316.675 493.529 337.525 493.529 337.525L496.526 336.775Z" fill="#EBEBEB"/>
<path d="M469.361 328.047H518.005L514.065 360.16H473.302L469.361 328.047Z" fill="#EBEBEB"/>
<path d="M104.785 325.755C104.606 324.653 100.582 298.988 108.654 290.116C109.46 289.183 110.479 288.426 111.639 287.898C112.799 287.37 114.071 287.086 115.364 287.064C131.674 286.711 133.907 298.811 133.93 298.932L131.996 299.208C131.925 298.767 129.99 288.54 115.412 288.86C114.394 288.873 113.393 289.097 112.482 289.515C111.571 289.933 110.772 290.533 110.146 291.273C102.624 299.527 106.671 325.226 106.707 325.491L104.785 325.755Z" fill="#EBEBEB"/>
<path d="M103.806 324.587L101.86 324.532C101.86 324.29 102.505 300.861 89.9917 296.023C77.7413 291.284 72.225 301.026 71.9981 301.445L70.2549 300.64C70.3265 300.519 76.7861 288.97 90.7439 294.37C104.487 299.682 103.878 323.573 103.806 324.587Z" fill="#EBEBEB"/>
<path d="M103.878 326.428C103.878 326.053 103.759 288.959 95.9381 278.159C88.4278 267.756 76.2968 272.649 75.7834 272.87L74.9834 271.239C75.1267 271.173 89.1084 265.475 97.5619 277.168C105.705 288.452 105.824 324.874 105.824 326.428H103.878Z" fill="#EBEBEB"/>
<path d="M117.705 287.956C117.705 287.956 110.541 290.381 112.702 296.1C114.863 301.82 137.311 311.231 137.311 311.231C137.311 311.231 146.731 303.252 138.075 290.293C129.418 277.333 117.896 283.868 117.705 287.956Z" fill="#E0E0E0"/>
<path d="M95.5202 276.209C95.5202 276.209 100.583 275.713 100.177 272.903C99.7709 270.092 80.5236 262.742 69.1328 274.578C69.1328 274.578 76.4043 286.105 86.9115 286.248C97.4187 286.391 95.5202 276.209 95.5202 276.209Z" fill="#E0E0E0"/>
<path d="M90.3739 295.196C90.3739 295.196 93.8604 292.596 90.0993 291.328C86.3382 290.061 67.8551 290.425 67.6641 307.307C67.6641 307.307 89.1561 310.613 91.8426 304.178C94.5291 297.742 90.3739 295.196 90.3739 295.196Z" fill="#E0E0E0"/>
<path d="M121.525 360.16H88.1291L84.5352 326.427H125.131L121.525 360.16Z" fill="#EBEBEB"/>
<path d="M126.91 322.703H82.7441V330.152H126.91V322.703Z" fill="#E0E0E0"/>
<path d="M298.5 410.566C426.356 410.566 530.004 404.981 530.004 398.091C530.004 391.201 426.356 385.616 298.5 385.616C170.643 385.616 66.9951 391.201 66.9951 398.091C66.9951 404.981 170.643 410.566 298.5 410.566Z" fill="#F5F5F5"/>
<path d="M380.754 156.177C380.754 156.177 380.754 166.735 377.172 170.834C373.59 174.934 354.82 183.474 354.82 183.474C354.82 183.474 343.645 183.474 342.618 183.474C341.591 183.474 338.737 188.18 338.737 188.18L343.513 193.381C343.513 193.381 357.376 190.902 356.11 187.188C356.11 187.188 374.533 180.576 379.727 177.215C384.921 173.854 388.861 158.965 388.861 158.965L380.754 156.177Z" fill="#E4897B"/>
<path d="M386.855 126.082C381.291 124.219 378.127 159.406 378.127 159.406L392.455 164.024C392.455 164.024 397.601 129.707 386.855 126.082Z" fill="#BB6BD9"/>
<path opacity="0.4" d="M393.22 156.574C392.862 160.982 392.408 164.024 392.408 164.024L378.08 159.406C378.08 159.406 381.232 124.208 386.796 126.081C390.545 127.349 392.36 132.33 393.136 138.292C393.779 144.37 393.807 150.491 393.22 156.574Z" fill="white"/>
<path opacity="0.2" d="M393.22 156.574C386.569 149.356 390.832 136.595 390.832 136.595C391.698 137.036 392.477 137.61 393.136 138.292C393.778 144.37 393.806 150.491 393.22 156.574Z" fill="black"/>
<path d="M447.977 387.909H460.084C460.281 387.911 460.471 387.974 460.625 388.088C460.778 388.202 460.886 388.36 460.932 388.537L462.89 396.725C462.93 396.899 462.933 397.079 462.897 397.255C462.862 397.43 462.79 397.597 462.684 397.747C462.579 397.896 462.443 398.025 462.283 398.126C462.124 398.226 461.945 398.297 461.756 398.334H461.433C457.517 398.334 454.663 398.047 449.756 398.047C446.723 398.047 437.589 398.345 433.41 398.345C429.231 398.345 428.634 394.532 430.389 394.179C438.067 392.636 443.846 390.499 446.305 388.46C446.765 388.085 447.364 387.887 447.977 387.909Z" fill="#263238"/>
<path d="M396.658 387.589H408.753C408.951 387.588 409.144 387.65 409.298 387.764C409.453 387.879 409.56 388.039 409.601 388.218L411.571 396.405C411.621 396.605 411.62 396.811 411.569 397.01C411.518 397.209 411.419 397.394 411.278 397.552C411.137 397.71 410.959 397.835 410.757 397.919C410.555 398.003 410.336 398.043 410.114 398.036C406.198 397.981 403.344 397.761 398.425 397.761C395.404 397.761 386.27 398.048 382.079 398.048C377.888 398.048 377.303 394.235 379.07 393.893C386.748 392.35 392.527 390.201 394.986 388.173C395.441 387.786 396.04 387.577 396.658 387.589Z" fill="#263238"/>
<path opacity="0.1" d="M447.977 387.909H460.084C460.281 387.911 460.471 387.974 460.625 388.088C460.778 388.202 460.886 388.36 460.932 388.537L462.89 396.725C462.93 396.899 462.933 397.079 462.897 397.255C462.862 397.43 462.79 397.597 462.684 397.747C462.579 397.896 462.443 398.025 462.283 398.126C462.124 398.226 461.945 398.297 461.756 398.334H461.433C457.517 398.334 454.663 398.047 449.756 398.047C446.723 398.047 437.589 398.345 433.41 398.345C429.231 398.345 428.634 394.532 430.389 394.179C438.067 392.636 443.846 390.499 446.305 388.46C446.765 388.085 447.364 387.887 447.977 387.909Z" fill="white"/>
<path opacity="0.1" d="M396.658 387.589H408.753C408.951 387.588 409.144 387.65 409.298 387.764C409.453 387.879 409.56 388.039 409.601 388.218L411.571 396.405C411.621 396.605 411.62 396.811 411.569 397.01C411.518 397.209 411.419 397.394 411.278 397.552C411.137 397.71 410.959 397.835 410.757 397.919C410.555 398.003 410.336 398.043 410.114 398.036C406.198 397.981 403.344 397.761 398.425 397.761C395.404 397.761 386.27 398.048 382.079 398.048C377.888 398.048 377.303 394.235 379.07 393.893C386.748 392.35 392.527 390.201 394.986 388.173C395.441 387.786 396.04 387.577 396.658 387.589Z" fill="white"/>
<path d="M454.4 180.829H401.518C396.491 206.176 380.754 309.049 392.049 388.934H409.959C409.959 388.934 408.347 267.613 424.096 228.403C425.911 249.342 444.394 388.857 444.394 388.857H462.615C462.615 388.857 459.892 336.39 457.158 286.832C455.451 255.667 454.471 187.243 454.4 180.829Z" fill="#BB6BD9"/>
<path opacity="0.2" d="M454.4 180.829H401.518C396.491 206.176 380.754 309.049 392.049 388.934H409.959C409.959 388.934 408.347 267.613 424.096 228.403C425.911 249.342 444.394 388.857 444.394 388.857H462.615C462.615 388.857 459.892 336.39 457.158 286.832C455.451 255.667 454.471 187.243 454.4 180.829Z" fill="white"/>
<path opacity="0.2" d="M424.085 228.414C421.488 235.286 419.515 242.345 418.186 249.518C416.706 230.85 422.676 211.047 422.676 211.047L424.085 228.414Z" fill="black"/>
<path d="M454.543 182.361L400.395 183.673C401.9 155.02 387.261 136.936 385.399 128.142C385.264 127.533 385.393 126.9 385.76 126.378C386.126 125.857 386.7 125.489 387.357 125.354C390.044 124.814 392.802 124.351 395.596 123.955C408.188 122.307 420.895 121.518 433.613 121.596C439.248 121.596 438.006 121.751 438.006 121.751C447.558 128.671 455.093 166.514 454.543 182.361Z" fill="#BB6BD9"/>
<path opacity="0.4" d="M454.543 182.361L400.395 183.673C401.9 155.02 387.261 136.936 385.399 128.142C385.264 127.533 385.393 126.9 385.76 126.378C386.126 125.857 386.7 125.489 387.357 125.354C390.044 124.814 392.802 124.351 395.596 123.955C408.188 122.307 420.895 121.518 433.613 121.596C439.248 121.596 438.006 121.751 438.006 121.751C447.558 128.671 455.093 166.514 454.543 182.361Z" fill="white"/>
<path d="M421.279 123.271C420.085 129.828 408.897 136.396 408.897 136.396C408.897 136.396 403.154 130.544 402.688 126.081C403.403 125.435 404.007 124.692 404.479 123.877C404.836 123.284 405.021 122.616 405.016 121.938C404.883 120.662 404.429 119.432 403.691 118.345C403.301 117.703 402.866 117.084 402.39 116.494L410.186 107.567L411.977 105.507C412.061 106.124 412.168 106.807 412.3 107.523C412.611 109.124 413.009 110.709 413.494 112.273C414.855 116.879 417.279 121.618 421.279 123.271Z" fill="#E4897B"/>
<path opacity="0.2" d="M413.446 112.284C413.052 116.692 411.261 122.786 404.479 123.888C404.836 123.295 405.021 122.627 405.016 121.949C404.883 120.673 404.429 119.443 403.691 118.356C403.301 117.714 402.866 117.096 402.39 116.505L410.186 107.579C410.867 107.579 411.583 107.579 412.3 107.579C412.597 109.164 412.979 110.734 413.446 112.284Z" fill="black"/>
<path d="M381.901 89.3404C381.901 89.3404 381.722 101.793 389.435 105.595C397.148 109.397 393.757 86.6846 393.757 86.6846L381.901 89.3404Z" fill="#263238"/>
<path d="M388.825 112.879C389.075 113.259 389.346 113.627 389.637 113.981C390.648 115.224 391.909 116.275 393.351 117.078C394.811 117.912 396.433 118.477 398.127 118.742C401.169 119.246 404.305 118.689 406.926 117.177C408.788 116.076 410.288 114.525 411.261 112.692C414.413 107.039 412.598 102.091 410.246 93.506C409.73 91.4934 408.665 89.6361 407.152 88.1107C405.64 86.5852 403.729 85.4423 401.603 84.7906C399.476 84.139 397.204 84.0003 395.003 84.3877C392.803 84.7751 390.746 85.6758 389.028 87.0041C381.219 92.977 384.264 105.871 388.825 112.879Z" fill="#E4897B"/>
<path d="M397.171 99.9196C397.446 100.581 397.171 101.275 396.705 101.418C396.24 101.562 395.643 101.11 395.392 100.427C395.141 99.7433 395.392 99.0711 395.858 98.9278C396.323 98.7845 396.92 99.1812 397.171 99.9196Z" fill="#263238"/>
<path d="M388.754 102.377C388.83 102.504 388.878 102.643 388.896 102.787C388.914 102.931 388.901 103.076 388.858 103.216C388.814 103.355 388.742 103.485 388.644 103.598C388.546 103.711 388.425 103.806 388.288 103.876C387.811 104.019 387.226 103.567 386.987 102.884C386.748 102.201 386.987 101.529 387.44 101.385C387.894 101.242 388.527 101.727 388.754 102.377Z" fill="#263238"/>
<path d="M384.468 99.9637C384.55 99.9791 384.634 99.975 384.713 99.9519C384.793 99.9287 384.865 99.8873 384.922 99.8314C385.285 99.4198 385.747 99.092 386.271 98.8739C386.796 98.6558 387.368 98.5535 387.943 98.5751C388.063 98.5898 388.185 98.5597 388.281 98.4915C388.377 98.4233 388.44 98.3225 388.456 98.2115C388.472 98.1004 388.439 97.9881 388.365 97.8992C388.291 97.8104 388.182 97.7522 388.062 97.7376C387.336 97.6941 386.609 97.8114 385.943 98.0798C385.276 98.3482 384.688 98.7598 384.229 99.2804C384.187 99.3184 384.153 99.3638 384.13 99.414C384.108 99.4642 384.096 99.518 384.096 99.5725C384.096 99.6269 384.108 99.6808 384.13 99.731C384.153 99.7811 384.187 99.8265 384.229 99.8645C384.295 99.9203 384.379 99.9551 384.468 99.9637Z" fill="#263238"/>
<path d="M397.769 96.327C397.855 96.2959 397.93 96.2423 397.984 96.1727C398.007 96.1221 398.02 96.0676 398.021 96.0125C398.021 95.9574 398.01 95.9026 397.988 95.8514C397.966 95.8002 397.933 95.7536 397.891 95.7142C397.849 95.6747 397.8 95.6433 397.745 95.6217C397.079 95.3444 396.351 95.2186 395.622 95.2551C394.892 95.2915 394.183 95.4891 393.554 95.8311C393.504 95.8621 393.462 95.9018 393.429 95.948C393.396 95.9942 393.373 96.0459 393.362 96.1002C393.351 96.1545 393.352 96.2103 393.364 96.2643C393.377 96.3184 393.4 96.3696 393.434 96.4152C393.468 96.4609 393.511 96.5001 393.561 96.5304C393.611 96.5607 393.667 96.5816 393.726 96.5918C393.785 96.6021 393.845 96.6015 393.904 96.5901C393.962 96.5787 394.018 96.5567 394.067 96.5254C394.573 96.2703 395.136 96.1267 395.711 96.1056C396.287 96.0846 396.861 96.1868 397.387 96.4041C397.452 96.4192 397.521 96.4201 397.587 96.4067C397.654 96.3933 397.716 96.3661 397.769 96.327Z" fill="#263238"/>
<path d="M399.918 84.9432L400.503 88.8333C401.279 88.9702 401.972 89.3713 402.443 89.9571C402.914 90.5429 403.129 91.2706 403.046 91.9961C402.64 95.4895 405.995 99.9306 409.195 101.253C409.195 101.253 408.885 99.8535 410.234 99.8755C411.583 99.8976 413.291 107.138 411.822 111.149C411.822 111.149 414.64 107.16 414.58 99.1372C414.521 91.7096 413.1 85.8579 410.783 83.5547L399.918 84.9432Z" fill="#263238"/>
<path d="M416.598 99.2582C416.239 101.459 414.951 103.44 413.016 104.768C410.437 106.498 408.025 104.614 407.798 101.826C407.619 99.3354 408.717 95.3681 411.774 94.762C414.831 94.1559 417.004 96.5473 416.598 99.2582Z" fill="#E4897B"/>
<path d="M396.408 112.549C396.336 112.549 396.266 112.524 396.213 112.479C396.16 112.434 396.127 112.372 396.121 112.306C396.115 112.27 396.116 112.234 396.126 112.198C396.136 112.163 396.154 112.13 396.179 112.102C396.204 112.074 396.235 112.051 396.27 112.035C396.306 112.019 396.345 112.01 396.384 112.009C397.242 111.92 398.028 111.524 398.573 110.905C399.118 110.287 399.378 109.496 399.297 108.703C399.294 108.666 399.299 108.63 399.311 108.595C399.323 108.561 399.342 108.529 399.368 108.501C399.393 108.473 399.424 108.451 399.459 108.434C399.495 108.418 399.533 108.408 399.572 108.405C399.651 108.402 399.728 108.426 399.787 108.473C399.847 108.52 399.885 108.586 399.894 108.659C399.894 108.659 400.097 112.218 396.444 112.56L396.408 112.549Z" fill="#263238"/>
<path d="M411.93 85.1196C411.93 85.1196 411.464 79.9291 401.9 78.2099C392.336 76.4908 384.42 83.2351 377.805 81.3507C371.19 79.4662 375.071 93.1532 387.548 91.6325C395.946 90.4426 404.141 88.2534 411.93 85.1196Z" fill="#263238"/>
<path opacity="0.2" d="M432.347 133.542C432.347 133.542 427.798 152.651 426.174 158.536C422.914 170.449 407.249 182.857 407.249 182.857C407.249 182.857 417.016 180.752 427.284 179.143C440 177.16 451.917 160.982 444.788 139.471L432.347 133.542Z" fill="black"/>
<path d="M431.965 151.846C431.965 151.846 431.965 162.404 428.383 166.503C424.801 170.603 405.959 179.143 405.959 179.143H393.793C392.766 179.143 389.912 183.849 389.912 183.849L394.688 189.05C394.688 189.05 408.55 186.571 407.285 182.857C407.285 182.857 425.708 176.245 430.902 172.884C436.096 169.523 440.036 154.635 440.036 154.635L431.965 151.846Z" fill="#E4897B"/>
<path d="M438.005 121.751C432.441 119.877 429.289 155.076 429.289 155.076L443.617 159.693C443.617 159.693 448.775 125.365 438.005 121.751Z" fill="#BB6BD9"/>
<path opacity="0.4" d="M438.005 121.751C432.441 119.877 429.289 155.076 429.289 155.076L443.617 159.693C443.617 159.693 448.775 125.365 438.005 121.751Z" fill="white"/>
<path d="M394.329 107.638C393.786 107.704 393.239 107.819 392.701 107.979C392.458 108.067 392.202 108.094 392.126 107.996C392.052 107.83 392.055 107.638 392.135 107.445L392.458 105.913C392.787 104.596 392.978 103.287 393.028 102C392.559 103.319 392.229 104.638 392.041 105.944C391.944 106.478 391.846 106.985 391.786 107.462C391.698 107.718 391.729 107.967 391.872 108.165C391.926 108.213 391.998 108.247 392.082 108.266C392.166 108.285 392.26 108.288 392.356 108.274C392.5 108.252 392.644 108.216 392.785 108.167C393.312 108.038 393.831 107.86 394.329 107.638Z" fill="#263238"/>
<path d="M292.53 398.345C267.002 398.345 246.238 374.861 246.238 345.988C246.238 317.115 267.002 293.642 292.53 293.642C318.057 293.642 338.809 317.126 338.809 345.988C338.809 374.85 317.998 398.345 292.53 398.345ZM292.53 299.163C270.297 299.163 252.208 320.179 252.208 345.999C252.208 371.819 270.297 392.846 292.53 392.846C314.762 392.846 332.791 371.819 332.791 346.032C332.791 320.245 314.714 299.152 292.53 299.152V299.163Z" fill="#2E353A"/>
<path d="M292.531 298.646C269.964 298.646 251.612 319.903 251.612 346.032C251.612 372.161 269.964 393.419 292.531 393.419C315.097 393.419 333.437 372.161 333.437 346.032C333.437 319.903 315.038 298.646 292.531 298.646ZM300.889 337.822L317.33 318.482C319.983 322 322.055 325.863 323.479 329.943L302.154 340.158C301.813 339.345 301.389 338.562 300.889 337.822ZM293.725 333.105V305.258C297.61 305.435 301.407 306.39 304.853 308.057L295.707 333.601C295.07 333.364 294.404 333.198 293.725 333.105ZM291.337 333.105C290.707 333.186 290.09 333.334 289.498 333.546L280.591 307.814C283.939 306.277 287.6 305.406 291.337 305.258V333.105ZM282.919 339.938L261.725 329.359C263.151 325.478 265.161 321.802 267.695 318.438L284.113 337.822C283.637 338.495 283.222 339.202 282.871 339.938H282.919ZM282.167 342.076C281.923 342.998 281.771 343.938 281.713 344.886H258.752C258.836 340.353 259.57 335.851 260.937 331.497L282.167 342.076ZM281.665 347.134C281.725 348.024 281.861 348.909 282.071 349.779L260.758 359.995C259.506 355.803 258.832 351.482 258.752 347.134H281.665ZM282.8 351.917C283.121 352.713 283.521 353.48 283.994 354.209L267.624 373.582C264.976 370.061 262.904 366.2 261.475 362.122L282.8 351.917ZM291.289 358.926V386.785C287.4 386.608 283.598 385.653 280.149 383.985L289.295 358.441C289.954 358.663 290.639 358.811 291.337 358.882L291.289 358.926ZM293.677 358.926C294.301 358.839 294.913 358.691 295.504 358.485L304.339 384.206C301.016 385.735 297.386 386.613 293.677 386.785V358.926ZM302.035 352.082L323.24 362.673C321.814 366.553 319.805 370.229 317.27 373.593L300.889 354.165C301.351 353.488 301.75 352.777 302.083 352.038L302.035 352.082ZM302.787 349.955C303.038 349.03 303.202 348.086 303.277 347.134H326.202C326.119 351.671 325.384 356.177 324.016 360.535L302.787 349.955ZM303.277 344.93C303.206 344.044 303.066 343.164 302.859 342.296L324.172 332.081C325.431 336.268 326.113 340.585 326.202 344.93H303.277ZM315.826 316.652L299.384 336.059C298.893 335.565 298.349 335.119 297.76 334.725L306.906 309.192C310.322 311.177 313.346 313.685 315.85 316.608L315.826 316.652ZM278.453 308.938L287.277 334.626C286.64 335.046 286.051 335.526 285.522 336.059L269.104 316.608C271.708 313.544 274.882 310.932 278.477 308.894L278.453 308.938ZM269.081 375.423L285.546 355.95C286.037 356.444 286.581 356.891 287.17 357.284L278.024 382.817C274.615 380.823 271.598 378.308 269.104 375.379L269.081 375.423ZM306.453 383.137L297.629 357.46C298.266 357.04 298.855 356.56 299.384 356.027L315.826 375.434C313.227 378.476 310.061 381.066 306.477 383.082L306.453 383.137Z" fill="#BB6BD9"/>
<g opacity="0.2">
<path d="M292.531 298.646C269.964 298.646 251.612 319.903 251.612 346.032C251.612 372.161 269.964 393.419 292.531 393.419C315.097 393.419 333.437 372.161 333.437 346.032C333.437 319.903 315.038 298.646 292.531 298.646ZM300.889 337.822L317.33 318.482C319.983 322 322.055 325.863 323.479 329.943L302.154 340.158C301.813 339.345 301.389 338.562 300.889 337.822ZM293.725 333.105V305.258C297.61 305.435 301.407 306.39 304.853 308.057L295.707 333.601C295.07 333.364 294.404 333.198 293.725 333.105ZM291.337 333.105C290.707 333.186 290.09 333.334 289.498 333.546L280.591 307.814C283.939 306.277 287.6 305.406 291.337 305.258V333.105ZM282.919 339.938L261.725 329.359C263.151 325.478 265.161 321.802 267.695 318.438L284.113 337.822C283.637 338.495 283.222 339.202 282.871 339.938H282.919ZM282.167 342.076C281.923 342.998 281.771 343.938 281.713 344.886H258.752C258.836 340.353 259.57 335.851 260.937 331.497L282.167 342.076ZM281.665 347.134C281.725 348.024 281.861 348.909 282.071 349.779L260.758 359.995C259.506 355.803 258.832 351.482 258.752 347.134H281.665ZM282.8 351.917C283.121 352.713 283.521 353.48 283.994 354.209L267.624 373.582C264.976 370.061 262.904 366.2 261.475 362.122L282.8 351.917ZM291.289 358.926V386.785C287.4 386.608 283.598 385.653 280.149 383.985L289.295 358.441C289.954 358.663 290.639 358.811 291.337 358.882L291.289 358.926ZM293.677 358.926C294.301 358.839 294.913 358.691 295.504 358.485L304.339 384.206C301.016 385.735 297.386 386.613 293.677 386.785V358.926ZM302.035 352.082L323.24 362.673C321.814 366.553 319.805 370.229 317.27 373.593L300.889 354.165C301.351 353.488 301.75 352.777 302.083 352.038L302.035 352.082ZM302.787 349.955C303.038 349.03 303.202 348.086 303.277 347.134H326.202C326.119 351.671 325.384 356.177 324.016 360.535L302.787 349.955ZM303.277 344.93C303.206 344.044 303.066 343.164 302.859 342.296L324.172 332.081C325.431 336.268 326.113 340.585 326.202 344.93H303.277ZM315.826 316.652L299.384 336.059C298.893 335.565 298.349 335.119 297.76 334.725L306.906 309.192C310.322 311.177 313.346 313.685 315.85 316.608L315.826 316.652ZM278.453 308.938L287.277 334.626C286.64 335.046 286.051 335.526 285.522 336.059L269.104 316.608C271.708 313.544 274.882 310.932 278.477 308.894L278.453 308.938ZM269.081 375.423L285.546 355.95C286.037 356.444 286.581 356.891 287.17 357.284L278.024 382.817C274.615 380.823 271.598 378.308 269.104 375.379L269.081 375.423ZM306.453 383.137L297.629 357.46C298.266 357.04 298.855 356.56 299.384 356.027L315.826 375.434C313.227 378.476 310.061 381.066 306.477 383.082L306.453 383.137Z" fill="black"/>
</g>
<path d="M323.575 294.326H277.164C274.549 294.329 272.043 295.289 270.194 296.995C268.345 298.701 267.305 301.015 267.302 303.428V374.596C267.302 375.678 266.836 376.715 266.008 377.48C265.179 378.244 264.055 378.674 262.884 378.674H248.353C247.72 378.674 247.112 378.906 246.664 379.319C246.216 379.733 245.965 380.293 245.965 380.878C245.965 381.462 246.216 382.023 246.664 382.436C247.112 382.85 247.72 383.082 248.353 383.082H262.836C265.272 383.076 267.607 382.18 269.33 380.59C271.053 379 272.024 376.845 272.03 374.596V348.236H323.575C324.208 348.236 324.816 348.004 325.263 347.591C325.711 347.177 325.963 346.617 325.963 346.032V296.53C325.963 295.945 325.711 295.385 325.263 294.971C324.816 294.558 324.208 294.326 323.575 294.326ZM321.187 343.828H272.078V303.428C272.078 302.183 272.614 300.989 273.567 300.109C274.521 299.228 275.815 298.734 277.164 298.734H321.187V343.828Z" fill="#2E353A"/>
<path opacity="0.3" d="M323.575 294.326H277.164C274.549 294.329 272.043 295.289 270.194 296.995C268.345 298.701 267.305 301.015 267.302 303.428V374.596C267.302 375.678 266.836 376.715 266.008 377.48C265.179 378.244 264.055 378.674 262.884 378.674H248.353C247.72 378.674 247.112 378.906 246.664 379.319C246.216 379.733 245.965 380.293 245.965 380.878C245.965 381.462 246.216 382.023 246.664 382.436C247.112 382.85 247.72 383.082 248.353 383.082H262.836C265.272 383.076 267.607 382.18 269.33 380.59C271.053 379 272.024 376.845 272.03 374.596V348.236H323.575C324.208 348.236 324.816 348.004 325.263 347.591C325.711 347.177 325.963 346.617 325.963 346.032V296.53C325.963 295.945 325.711 295.385 325.263 294.971C324.816 294.558 324.208 294.326 323.575 294.326ZM321.187 343.828H272.078V303.428C272.078 302.183 272.614 300.989 273.567 300.109C274.521 299.228 275.815 298.734 277.164 298.734H321.187V343.828Z" fill="white"/>
<path d="M329.103 198.715V269.707H273.057C270.679 269.707 268.398 270.579 266.716 272.131C265.035 273.683 264.09 275.788 264.09 277.983V314.823H324.315C327.195 314.82 329.955 313.762 331.991 311.882C334.026 310.002 335.169 307.453 335.169 304.795V198.715H329.103Z" fill="#2E353A"/>
<path opacity="0.3" d="M329.103 198.715V269.707H273.057C270.679 269.707 268.398 270.579 266.716 272.131C265.035 273.683 264.09 275.788 264.09 277.983V314.823H324.315C327.195 314.82 329.955 313.762 331.991 311.882C334.026 310.002 335.169 307.453 335.169 304.795V198.715H329.103Z" fill="white"/>
<path d="M271.993 296.441H363.119V312.575H262.931V304.861C262.923 303.758 263.152 302.664 263.603 301.643C264.055 300.622 264.722 299.693 265.564 298.911C266.406 298.128 267.408 297.507 268.511 297.083C269.615 296.66 270.798 296.441 271.993 296.441Z" fill="#2E353A"/>
<path d="M372.11 310.228H262.776C262.449 310.228 262.126 310.287 261.825 310.402C261.524 310.517 261.25 310.686 261.019 310.899C260.789 311.112 260.606 311.365 260.481 311.643C260.356 311.921 260.292 312.219 260.292 312.52C260.292 313.129 260.553 313.713 261.019 314.145C261.484 314.576 262.116 314.82 262.776 314.823H372.11C372.753 314.824 373.37 314.594 373.833 314.183C374.296 313.772 374.569 313.212 374.594 312.619C374.608 312.31 374.555 312.001 374.436 311.711C374.318 311.422 374.137 311.157 373.905 310.934C373.673 310.71 373.395 310.533 373.086 310.411C372.777 310.29 372.445 310.227 372.11 310.228Z" fill="#2E353A"/>
<path opacity="0.3" d="M372.11 310.228H262.776C262.449 310.228 262.126 310.287 261.825 310.402C261.524 310.517 261.25 310.686 261.019 310.899C260.789 311.112 260.606 311.365 260.481 311.643C260.356 311.921 260.292 312.219 260.292 312.52C260.292 313.129 260.553 313.713 261.019 314.145C261.484 314.576 262.116 314.82 262.776 314.823H372.11C372.753 314.824 373.37 314.594 373.833 314.183C374.296 313.772 374.569 313.212 374.594 312.619C374.608 312.31 374.555 312.001 374.436 311.711C374.318 311.422 374.137 311.157 373.905 310.934C373.673 310.71 373.395 310.533 373.086 310.411C372.777 310.29 372.445 310.227 372.11 310.228Z" fill="white"/>
<path d="M331.239 200.82H382.151V295.692C382.151 299.55 380.491 303.25 377.535 305.978C374.579 308.706 370.571 310.239 366.391 310.239H331.239V200.82Z" fill="#2E353A"/>
<path d="M275.289 374.949H245.845C244.21 374.949 242.884 376.172 242.884 377.682V379.225C242.884 380.734 244.21 381.958 245.845 381.958H275.289C276.924 381.958 278.25 380.734 278.25 379.225V377.682C278.25 376.172 276.924 374.949 275.289 374.949Z" fill="#2E353A"/>
<path opacity="0.2" d="M275.289 374.949H245.845C244.21 374.949 242.884 376.172 242.884 377.682V379.225C242.884 380.734 244.21 381.958 245.845 381.958H275.289C276.924 381.958 278.25 380.734 278.25 379.225V377.682C278.25 376.172 276.924 374.949 275.289 374.949Z" fill="white"/>
<path d="M371.884 344.434L325.664 329.26L371.884 314.074C372.106 314.001 372.31 313.889 372.485 313.744C372.66 313.599 372.802 313.423 372.904 313.227C373.005 313.031 373.064 312.819 373.076 312.602C373.089 312.385 373.055 312.168 372.976 311.963C372.898 311.759 372.776 311.57 372.619 311.409C372.462 311.247 372.272 311.116 372.059 311.022C371.847 310.929 371.617 310.874 371.382 310.863C371.147 310.851 370.912 310.883 370.69 310.955L320.339 327.485L269.976 310.955C269.754 310.883 269.519 310.851 269.284 310.863C269.049 310.874 268.819 310.929 268.606 311.022C268.394 311.116 268.204 311.247 268.046 311.409C267.889 311.57 267.768 311.759 267.689 311.963C267.611 312.168 267.577 312.385 267.589 312.602C267.602 312.819 267.661 313.031 267.762 313.227C267.863 313.423 268.006 313.599 268.181 313.744C268.356 313.889 268.56 314.001 268.782 314.074L314.99 329.249L268.782 344.423C268.56 344.496 268.355 344.609 268.18 344.754C268.006 344.9 267.864 345.076 267.763 345.273C267.662 345.47 267.604 345.683 267.592 345.9C267.581 346.117 267.616 346.334 267.695 346.539C267.815 346.862 268.043 347.143 268.345 347.341C268.647 347.538 269.008 347.643 269.379 347.641C269.582 347.645 269.784 347.615 269.976 347.553L320.339 331.023L370.69 347.553C370.912 347.625 371.147 347.657 371.382 347.645C371.617 347.634 371.847 347.58 372.059 347.486C372.272 347.392 372.462 347.261 372.619 347.099C372.776 346.938 372.898 346.749 372.976 346.545C373.055 346.34 373.089 346.123 373.076 345.906C373.064 345.689 373.005 345.477 372.904 345.281C372.802 345.085 372.66 344.909 372.485 344.764C372.31 344.619 372.106 344.507 371.884 344.434Z" fill="#2E353A"/>
<path opacity="0.3" d="M371.884 344.434L325.664 329.26L371.884 314.074C372.106 314.001 372.31 313.889 372.485 313.744C372.66 313.599 372.802 313.423 372.904 313.227C373.005 313.031 373.064 312.819 373.076 312.602C373.089 312.385 373.055 312.168 372.976 311.963C372.898 311.759 372.776 311.57 372.619 311.409C372.462 311.247 372.272 311.116 372.059 311.022C371.847 310.929 371.617 310.874 371.382 310.863C371.147 310.851 370.912 310.883 370.69 310.955L320.339 327.485L269.976 310.955C269.754 310.883 269.519 310.851 269.284 310.863C269.049 310.874 268.819 310.929 268.606 311.022C268.394 311.116 268.204 311.247 268.046 311.409C267.889 311.57 267.768 311.759 267.689 311.963C267.611 312.168 267.577 312.385 267.589 312.602C267.602 312.819 267.661 313.031 267.762 313.227C267.863 313.423 268.006 313.599 268.181 313.744C268.356 313.889 268.56 314.001 268.782 314.074L314.99 329.249L268.782 344.423C268.56 344.496 268.355 344.609 268.18 344.754C268.006 344.9 267.864 345.076 267.763 345.273C267.662 345.47 267.604 345.683 267.592 345.9C267.581 346.117 267.616 346.334 267.695 346.539C267.815 346.862 268.043 347.143 268.345 347.341C268.647 347.538 269.008 347.643 269.379 347.641C269.582 347.645 269.784 347.615 269.976 347.553L320.339 331.023L370.69 347.553C370.912 347.625 371.147 347.657 371.382 347.645C371.617 347.634 371.847 347.58 372.059 347.486C372.272 347.392 372.462 347.261 372.619 347.099C372.776 346.938 372.898 346.749 372.976 346.545C373.055 346.34 373.089 346.123 373.076 345.906C373.064 345.689 373.005 345.477 372.904 345.281C372.802 345.085 372.66 344.909 372.485 344.764C372.31 344.619 372.106 344.507 371.884 344.434Z" fill="white"/>
<path d="M331.992 209.195C331.517 209.195 331.062 209.021 330.726 208.711C330.39 208.401 330.201 207.98 330.201 207.542V194.88C330.201 192.454 331.214 190.122 333.028 188.368C334.842 186.613 337.319 185.571 339.944 185.458L351.502 184.94C351.977 184.919 352.442 185.074 352.793 185.369C353.145 185.665 353.355 186.077 353.377 186.516C353.399 186.954 353.231 187.383 352.911 187.707C352.591 188.031 352.144 188.225 351.669 188.246L340.111 188.764C338.405 188.837 336.795 189.515 335.617 190.656C334.438 191.798 333.781 193.314 333.783 194.891V207.553C333.78 207.989 333.59 208.407 333.254 208.715C332.919 209.022 332.465 209.195 331.992 209.195Z" fill="#263238"/>
<path d="M273.414 370.585L284.888 367.268L283.408 356.821L282.035 347.233L267.934 349.801L270.823 360.81L273.414 370.585Z" fill="#EBB376"/>
<path opacity="0.2" d="M270.907 361.03L283.468 357.008L282.059 347.332L267.958 349.845L270.907 361.03Z" fill="black"/>
<path d="M285.867 364.844C285.867 364.017 271.85 365.119 271.85 365.119C271.85 365.119 263.492 371.731 255.134 373.417C246.776 375.103 251.647 378.575 260.984 378.266L284.088 377.506C290.775 377.285 286.476 373.34 285.867 364.844Z" fill="#2E353A"/>
<path d="M251.612 277.597C259.97 264.373 304.351 261.882 333.747 260.02L343.776 283.923C343.776 283.923 299.897 281.719 287.229 294.877C277.163 305.368 284.017 352.49 284.017 352.49L265.14 353.746C265.14 353.746 236.842 301.048 251.612 277.597Z" fill="#2E353A"/>
<path opacity="0.2" d="M251.612 277.597C259.97 264.373 304.351 261.882 333.747 260.02L343.776 283.923C343.776 283.923 299.897 281.719 287.229 294.877C277.163 305.368 284.017 352.49 284.017 352.49L265.14 353.746C265.14 353.746 236.842 301.048 251.612 277.597Z" fill="black"/>
<path d="M297.295 370.585L308.769 367.268L307.289 356.821L305.904 347.233L291.814 349.801L294.704 360.81L297.295 370.585Z" fill="#EBB376"/>
<path opacity="0.2" d="M294.787 361.03L307.36 357.008L305.939 347.332L291.838 349.845L294.787 361.03Z" fill="black"/>
<path d="M335.658 191.993C341.628 189.348 357.508 191.64 361.34 195.001C365.173 198.362 349.532 208.225 341.138 206.815C332.744 205.404 330.989 194.053 335.658 191.993Z" fill="#BB6BD9"/>
<path opacity="0.2" d="M335.658 191.993C341.628 189.348 357.508 191.64 361.34 195.001C365.173 198.362 349.532 208.225 341.138 206.815C332.744 205.404 330.989 194.053 335.658 191.993Z" fill="black"/>
<path d="M305.485 259.789C305.485 259.789 315.885 241.231 316.422 239.787C319.192 232.315 369.483 239.049 369.483 239.049C369.483 239.049 383.346 277.939 366.081 289.102C351.072 298.811 314.739 294.436 308.566 296.188C302.858 297.808 300.064 303.461 308.745 356.149L290.035 356.799C290.035 356.799 262.644 293.984 262.943 282.655C263.241 271.327 261.092 266.169 305.485 259.789Z" fill="#2E353A"/>
<path d="M306.106 257.055C306.106 257.055 320.757 209.382 325.963 197.062C327.885 192.5 373.985 196.919 373.985 196.919V254.62C373.985 254.62 339.503 265.883 329.425 261.232C326.225 259.744 322.81 249.529 322.81 249.529C322.81 249.529 316.363 260.615 312.375 260.703C310.094 260.736 306.106 257.055 306.106 257.055Z" fill="#BB6BD9"/>
<path opacity="0.6" d="M373.973 196.919V254.62C373.973 254.62 339.491 265.883 329.413 261.232C326.213 259.744 322.799 249.529 322.799 249.529C322.799 249.529 316.363 260.615 312.363 260.703C310.094 260.758 306.106 257.078 306.106 257.078C306.106 257.078 306.297 256.438 306.668 255.281C308.65 248.857 315.611 226.464 320.996 210.672C322.966 204.897 324.721 200.004 325.951 197.084C327.873 192.5 373.973 196.919 373.973 196.919Z" fill="white"/>
<path opacity="0.2" d="M334.393 220.017C335.092 220.017 335.658 219.494 335.658 218.849C335.658 218.204 335.092 217.681 334.393 217.681C333.694 217.681 333.127 218.204 333.127 218.849C333.127 219.494 333.694 220.017 334.393 220.017Z" fill="black"/>
<path opacity="0.2" d="M330.046 231.632C330.745 231.632 331.312 231.109 331.312 230.464C331.312 229.819 330.745 229.296 330.046 229.296C329.347 229.296 328.78 229.819 328.78 230.464C328.78 231.109 329.347 231.632 330.046 231.632Z" fill="black"/>
<path opacity="0.2" d="M325.162 244.57C325.861 244.57 326.428 244.047 326.428 243.402C326.428 242.757 325.861 242.234 325.162 242.234C324.463 242.234 323.896 242.757 323.896 243.402C323.896 244.047 324.463 244.57 325.162 244.57Z" fill="black"/>
<path opacity="0.2" d="M373.973 221.56V253.849C337.281 265.31 327.097 255.391 327.097 255.391C327.097 255.391 347.204 244.856 355.55 240.933C363.896 237.01 365.508 216.512 365.508 216.512C368.423 218.057 371.249 219.742 373.973 221.56Z" fill="black"/>
<path opacity="0.2" d="M316.029 239.335C316.16 246.068 317.318 248.261 317.653 251.248C317.939 253.959 317.08 260.152 306.668 255.259C308.65 248.834 315.611 226.442 320.996 210.65C321.443 210.825 321.849 211.08 322.19 211.399C322.19 211.399 315.874 231.015 316.029 239.335Z" fill="black"/>
<path d="M360.266 197.117C360.266 197.117 354.595 201.47 349.281 201.69C343.968 201.911 338.917 209.107 338.917 209.107C338.917 209.107 337.604 201.911 337.95 201.26C337.84 200.381 337.574 199.525 337.162 198.726C336.541 196.985 336.064 195.023 337.95 195.023C341.138 195.023 338.917 189.061 338.917 189.061L356.935 184.488C356.427 186.044 356.087 187.642 355.92 189.26C355.598 192.566 356.135 196.5 360.266 197.117Z" fill="#EBB376"/>
<path opacity="0.2" d="M356.935 184.477C356.427 186.033 356.087 187.631 355.92 189.249C352.338 193.183 346.034 198.208 337.162 198.715C336.541 196.974 336.064 195.012 337.95 195.012C341.138 195.012 338.917 189.05 338.917 189.05L356.935 184.477Z" fill="black"/>
<path d="M358.201 198.098C358.201 198.098 348.828 213.35 346.834 226.001C350.062 225.701 353.314 225.701 356.541 226.001C360.207 226.541 357.568 209.206 366.225 196.797L358.201 198.098Z" fill="#BB6BD9"/>
<path opacity="0.2" d="M358.201 198.098C358.201 198.098 348.828 213.35 346.834 226.001C350.062 225.701 353.314 225.701 356.541 226.001C360.207 226.541 357.568 209.206 366.225 196.797L358.201 198.098Z" fill="black"/>
<path d="M335.658 198.759C335.658 203.729 342.105 207.796 351.777 200.39C361.448 192.984 364.027 191.265 366.415 193.866C366.415 193.866 369.651 194.086 370.164 196.577C367.304 197.616 364.674 199.128 362.403 201.04C359.394 203.872 346.332 214.33 337.902 213.46C329.473 212.589 327.419 201.338 332.219 196.797C332.219 196.797 332.398 189.734 339.693 192.533C339.741 192.533 335.658 193.084 335.658 198.759Z" fill="#BB6BD9"/>
<path d="M346.786 226.001C346.786 226.001 345.592 230.761 345.866 230.971C346.141 231.18 346.595 226.254 347.526 226.618C348.457 226.982 346.75 231.136 347.526 231.026C348.302 230.916 347.466 226.805 348.433 226.728C349.4 226.651 348.302 230.971 349.018 231.026C349.735 231.081 349.018 226.728 349.95 226.728C350.881 226.728 349.651 231.136 350.427 231.026C351.203 230.916 350.594 226.519 351.454 226.519C352.314 226.519 350.988 230.828 351.848 231.037C352.708 231.246 351.777 226.728 352.875 226.728C353.973 226.728 352.636 231.136 353.185 231.037C353.735 230.938 352.875 226.519 353.973 226.728C355.072 226.937 353.902 231.202 354.523 231.037C355.144 230.872 353.973 226.728 355.072 226.948C356.17 227.169 355.788 231.356 356.099 231.048C356.409 230.739 356.278 227.312 356.935 227.235C357.591 227.158 356.935 230.288 357.914 230.541C358.893 230.794 356.935 226.045 356.935 226.045C356.935 226.045 350.714 224.811 346.786 226.001Z" fill="#BB6BD9"/>
<path d="M349.663 161.379C339.61 159.913 335.526 164.409 333.162 173.864C333.09 174.107 332.983 174.592 332.983 174.592C326.726 179.705 330.392 193.866 344.624 193.866C362.319 193.866 366.367 163.803 349.663 161.379Z" fill="#EBB376"/>
<path d="M346.033 174.427C345.878 175.187 346.2 175.881 346.75 175.969C347.299 176.058 347.86 175.518 348.015 174.757C348.17 173.997 347.836 173.313 347.287 173.214C346.738 173.115 346.176 173.666 346.033 174.427Z" fill="#263238"/>
<path d="M347.514 173.291L345.854 172.344C345.854 172.344 346.475 173.887 347.514 173.291Z" fill="#263238"/>
<path d="M335.837 172.553C335.682 173.314 336.004 174.008 336.553 174.096C337.102 174.184 337.664 173.644 337.819 172.884C337.974 172.123 337.64 171.44 337.091 171.341C336.541 171.242 335.98 171.793 335.837 172.553Z" fill="#263238"/>
<path d="M337.318 171.418L335.658 170.47C335.658 170.47 336.267 172.013 337.318 171.418Z" fill="#263238"/>
<path d="M351.346 170.47C351.27 170.474 351.195 170.457 351.129 170.421C351.064 170.386 351.011 170.334 350.976 170.272C350.54 169.724 349.975 169.273 349.324 168.955C348.672 168.636 347.952 168.457 347.215 168.432C347.101 168.432 346.992 168.39 346.911 168.315C346.83 168.241 346.785 168.14 346.785 168.035C346.785 167.93 346.83 167.829 346.911 167.754C346.992 167.68 347.101 167.638 347.215 167.638C348.096 167.658 348.959 167.868 349.736 168.251C350.514 168.634 351.184 169.178 351.692 169.842C351.749 169.933 351.764 170.04 351.735 170.142C351.706 170.243 351.635 170.329 351.537 170.382C351.481 170.424 351.416 170.454 351.346 170.47Z" fill="#263238"/>
<path d="M335.848 167.153C335.765 167.155 335.683 167.134 335.613 167.093C335.542 167.052 335.487 166.992 335.454 166.922C335.409 166.825 335.406 166.716 335.446 166.617C335.486 166.519 335.566 166.438 335.669 166.393C336.361 166.052 337.127 165.86 337.911 165.831C338.695 165.802 339.475 165.938 340.194 166.227C340.296 166.279 340.371 166.365 340.403 166.467C340.436 166.569 340.423 166.679 340.367 166.773C340.312 166.866 340.218 166.936 340.108 166.966C339.997 166.996 339.878 166.984 339.776 166.933C339.177 166.699 338.528 166.594 337.878 166.626C337.228 166.659 336.595 166.828 336.027 167.12L335.848 167.153Z" fill="#263238"/>
<path d="M375.968 171.33C374.141 169.853 370.666 170.691 368.159 171.616C368.159 171.517 368.159 171.429 368.159 171.33C368.223 169.629 367.841 167.939 367.045 166.404C366.248 164.869 365.062 163.534 363.586 162.514C363.586 158.811 360.482 157.18 357.067 156.199C353.652 155.218 350.679 157.07 346.667 155.329C346.014 154.98 345.291 154.757 344.542 154.673C343.793 154.588 343.033 154.645 342.308 154.838C341.583 155.032 340.908 155.358 340.324 155.799C339.739 156.239 339.257 156.784 338.906 157.4C337.867 159.142 338.321 161.665 334.978 161.753C331.635 161.841 332.447 164.729 333.091 166.272C333.736 167.814 333.557 167.374 332.494 169.082C331.766 170.25 332.853 170.988 333.629 171.286C333.497 172.101 333.473 172.608 333.473 172.608C333.569 172.167 333.676 171.749 333.796 171.352C338.572 154.568 356.291 164.497 356.291 164.497C354.571 170.283 357.962 178.592 357.962 178.592C359.455 182.284 357.258 186.009 355.873 187.849C355.57 188.261 355.239 188.655 354.882 189.028C355.497 188.686 356.077 188.291 356.613 187.849C363.777 187.618 363.443 184.025 363.431 182.835C363.579 182.278 363.851 181.757 364.231 181.303C365.425 183.441 367.944 186.262 372.422 185.347C379.395 183.959 379.036 173.82 375.968 171.33Z" fill="#263238"/>
<path d="M341.222 184.246C340.362 184.238 339.514 184.058 338.738 183.717C338.635 183.671 338.555 183.591 338.515 183.492C338.475 183.393 338.478 183.284 338.523 183.188C338.545 183.139 338.578 183.094 338.619 183.057C338.66 183.02 338.709 182.992 338.763 182.973C338.817 182.955 338.874 182.946 338.932 182.949C338.989 182.952 339.045 182.966 339.096 182.989C340.07 183.451 341.193 183.569 342.255 183.321C343.316 183.074 344.244 182.478 344.863 181.645C344.895 181.601 344.935 181.564 344.982 181.535C345.029 181.506 345.082 181.486 345.137 181.475C345.193 181.465 345.25 181.465 345.305 181.475C345.361 181.485 345.413 181.506 345.46 181.535C345.508 181.564 345.548 181.601 345.58 181.644C345.611 181.687 345.633 181.736 345.644 181.787C345.655 181.838 345.655 181.891 345.644 181.942C345.633 181.994 345.611 182.042 345.58 182.086C345.082 182.73 344.43 183.26 343.674 183.635C342.918 184.01 342.079 184.218 341.222 184.246Z" fill="#263238"/>
<path d="M347.728 178.306C347.43 178.318 347.131 178.276 346.851 178.182C346.57 178.087 346.312 177.942 346.093 177.755C345.799 177.426 345.583 177.045 345.46 176.635C345.336 176.225 345.308 175.795 345.376 175.374C345.388 175.302 345.429 175.237 345.491 175.192C345.553 175.147 345.632 175.125 345.71 175.132C345.791 175.143 345.863 175.182 345.913 175.242C345.962 175.302 345.983 175.377 345.973 175.451C345.87 176.131 346.063 176.821 346.51 177.369C346.764 177.555 347.062 177.683 347.38 177.74C347.698 177.798 348.026 177.784 348.337 177.699C348.377 177.693 348.417 177.694 348.456 177.702C348.494 177.711 348.531 177.726 348.563 177.748C348.596 177.769 348.623 177.797 348.643 177.828C348.664 177.86 348.678 177.894 348.684 177.931C348.697 178.002 348.68 178.076 348.635 178.136C348.591 178.196 348.522 178.237 348.445 178.25C348.208 178.284 347.968 178.303 347.728 178.306Z" fill="#D58745"/>
<path d="M335.729 176.035C335.18 176.017 334.643 175.889 334.153 175.661C334.083 175.626 334.031 175.567 334.006 175.498C333.982 175.428 333.987 175.352 334.021 175.286C334.057 175.223 334.118 175.174 334.192 175.152C334.265 175.129 334.346 175.134 334.415 175.165C334.686 175.346 335.001 175.462 335.332 175.502C335.664 175.543 336.001 175.507 336.313 175.398C336.626 175.288 336.904 175.109 337.123 174.876C337.342 174.643 337.495 174.364 337.568 174.063C337.594 173.999 337.645 173.947 337.711 173.916C337.777 173.886 337.853 173.878 337.924 173.896C337.995 173.914 338.057 173.956 338.097 174.013C338.137 174.07 338.153 174.139 338.141 174.206C338.033 174.56 337.85 174.891 337.602 175.178C337.354 175.466 337.046 175.705 336.696 175.881C336.389 175.994 336.059 176.046 335.729 176.035Z" fill="#D58745"/>
<path d="M347.514 184.124C347.448 184.123 347.384 184.103 347.332 184.065C347.28 184.027 347.243 183.974 347.227 183.915C346.439 180.719 342.607 179.419 342.571 179.407C342.496 179.383 342.436 179.332 342.402 179.265C342.369 179.199 342.365 179.124 342.392 179.055C342.404 179.02 342.423 178.988 342.449 178.96C342.476 178.933 342.508 178.91 342.543 178.895C342.579 178.879 342.618 178.871 342.658 178.87C342.698 178.869 342.737 178.876 342.774 178.89C342.941 178.89 346.953 180.311 347.801 183.793C347.819 183.864 347.806 183.937 347.766 183.999C347.726 184.061 347.661 184.106 347.586 184.124H347.514Z" fill="#D58745"/>
<path opacity="0.4" d="M375.968 171.33C374.141 169.853 370.666 170.691 368.159 171.616C368.159 171.517 368.159 171.429 368.159 171.33C368.223 169.629 367.841 167.939 367.045 166.404C366.248 164.869 365.062 163.534 363.586 162.514C363.586 158.811 360.482 157.18 357.067 156.199C353.652 155.218 350.679 157.07 346.667 155.329C346.014 154.98 345.291 154.757 344.542 154.673C343.793 154.588 343.033 154.645 342.308 154.838C341.583 155.032 340.908 155.358 340.324 155.799C339.739 156.239 339.257 156.784 338.906 157.4C337.867 159.142 338.321 161.665 334.978 161.753C331.635 161.841 332.447 164.729 333.091 166.272C333.736 167.814 333.557 167.374 332.494 169.082C331.766 170.25 332.853 170.988 333.629 171.286C333.497 172.101 333.473 172.608 333.473 172.608C333.569 172.167 333.676 171.749 333.796 171.352C338.572 154.568 356.291 164.497 356.291 164.497C354.571 170.283 357.962 178.592 357.962 178.592C359.455 182.284 357.258 186.009 355.873 187.849C355.57 188.261 355.239 188.655 354.882 189.028C355.497 188.686 356.077 188.291 356.613 187.849C363.777 187.618 363.443 184.025 363.431 182.835C363.579 182.278 363.851 181.757 364.231 181.303C365.425 183.441 367.944 186.262 372.422 185.347C379.395 183.959 379.036 173.82 375.968 171.33Z" fill="white"/>
<path d="M356.004 180.333C356.284 179.273 357.008 178.359 358.017 177.791C359.027 177.222 360.239 177.047 361.389 177.303C364.445 178.074 364.971 184.19 356.935 184.477C355.813 184.521 355.335 183.43 356.004 180.333Z" fill="#EBB376"/>
<g opacity="0.2">
<path d="M351.346 170.47C351.27 170.474 351.195 170.457 351.129 170.421C351.064 170.386 351.011 170.334 350.976 170.272C350.54 169.724 349.975 169.273 349.324 168.955C348.672 168.636 347.952 168.457 347.215 168.432C347.101 168.432 346.992 168.39 346.911 168.315C346.83 168.241 346.785 168.14 346.785 168.035C346.785 167.93 346.83 167.829 346.911 167.754C346.992 167.68 347.101 167.638 347.215 167.638C348.096 167.658 348.959 167.868 349.736 168.251C350.514 168.634 351.184 169.178 351.692 169.842C351.749 169.933 351.764 170.04 351.735 170.142C351.706 170.243 351.635 170.329 351.537 170.382C351.481 170.424 351.416 170.454 351.346 170.47Z" fill="white"/>
</g>
<g opacity="0.2">
<path d="M335.849 167.153C335.766 167.155 335.684 167.134 335.614 167.093C335.543 167.052 335.488 166.992 335.455 166.922C335.41 166.825 335.407 166.716 335.447 166.617C335.487 166.519 335.567 166.438 335.67 166.393C336.362 166.052 337.128 165.86 337.912 165.831C338.696 165.802 339.476 165.938 340.195 166.227C340.296 166.279 340.372 166.365 340.404 166.467C340.437 166.569 340.424 166.679 340.368 166.773C340.313 166.866 340.219 166.936 340.109 166.966C339.998 166.996 339.879 166.984 339.777 166.933C339.178 166.699 338.529 166.594 337.879 166.626C337.229 166.659 336.596 166.828 336.028 167.12L335.849 167.153Z" fill="white"/>
</g>
<path d="M241.726 315.694C241.726 315.694 241.952 282.347 250.931 273.817C259.91 265.288 293.247 260.075 293.247 260.075C293.247 260.075 324.291 257.089 335.586 262.334C346.881 267.58 347.024 294.789 347.024 294.789C347.024 294.789 316.828 291.648 312.828 304.156C310.314 312.161 308.47 320.333 307.312 328.598L241.726 315.694Z" fill="#BB6BD9"/>
<path opacity="0.2" d="M285.867 364.844C285.867 364.017 271.85 365.119 271.85 365.119C271.85 365.119 263.492 371.731 255.134 373.417C246.776 375.103 251.647 378.575 260.984 378.266L284.088 377.506C290.775 377.285 286.476 373.34 285.867 364.844Z" fill="black"/>
<path d="M309.748 364.844C309.689 364.017 295.731 365.119 295.731 365.119C295.731 365.119 287.373 371.731 279.015 373.417C270.657 375.103 275.528 378.575 284.865 378.266L307.969 377.506C314.656 377.285 310.357 373.34 309.748 364.844Z" fill="#2E353A"/>
<path d="M344.326 249.055L334.392 253.816C332.534 253.46 330.613 253.509 328.78 253.959C326.093 254.719 320.947 258.94 321.21 260.802C321.473 262.665 329.269 261.397 330.654 261.728C332.039 262.059 334.893 260.406 335.657 260.075C336.421 259.744 336.613 257.551 336.613 257.551L344.326 255.105V249.055Z" fill="#EBB376"/>
<path d="M373.973 196.918C381.137 198.715 385.221 233.23 378.057 243.401C370.893 253.573 340.553 257.496 340.553 257.496L337.568 250.509C337.568 250.509 360.947 241.561 363.442 237.197C365.938 232.833 367.12 224.127 364.995 213.515C362.869 202.902 373.973 196.918 373.973 196.918Z" fill="#BB6BD9"/>
<path opacity="0.6" d="M373.973 196.918C381.137 198.715 385.221 233.23 378.057 243.401C370.893 253.573 340.553 257.496 340.553 257.496L337.568 250.509C337.568 250.509 360.947 241.561 363.442 237.197C365.938 232.833 367.12 224.127 364.995 213.515C362.869 202.902 373.973 196.918 373.973 196.918Z" fill="white"/>
<path d="M313.043 246.928L315.216 253.904C316.332 254.909 317.182 256.138 317.7 257.496C318.201 259.127 317.449 260.802 316.506 261.078C314.118 261.783 308.984 262.819 308.625 261.629C308.267 260.439 307.563 255.292 309.688 255.524L308.028 249.87L313.043 246.928Z" fill="#EBB376"/>
<path d="M325.963 197.062C317.772 199.079 301.044 223.929 303.623 237.66C306.202 251.391 308.805 253.904 308.805 253.904L315.527 250.598C315.527 250.598 311.861 236.58 314.118 231.599C325.163 207.178 325.963 197.062 325.963 197.062Z" fill="#BB6BD9"/>
<path opacity="0.6" d="M325.963 197.062C317.772 199.079 301.044 223.929 303.623 237.66C306.202 251.391 308.805 253.904 308.805 253.904L315.527 250.598C315.527 250.598 311.861 236.58 314.118 231.599C325.163 207.178 325.963 197.062 325.963 197.062Z" fill="white"/>
<path d="M382.141 209.195C381.666 209.195 381.21 209.021 380.874 208.711C380.538 208.401 380.35 207.98 380.35 207.542V194.88C380.35 192.454 381.362 190.122 383.177 188.368C384.991 186.613 387.468 185.571 390.093 185.458L401.651 184.94C402.126 184.919 402.59 185.074 402.941 185.369C403.293 185.665 403.503 186.077 403.525 186.516C403.547 186.954 403.38 187.383 403.06 187.707C402.739 188.031 402.293 188.225 401.818 188.246L390.26 188.764C388.554 188.837 386.944 189.515 385.765 190.656C384.586 191.798 383.93 193.314 383.932 194.891V207.553C383.928 207.989 383.738 208.407 383.403 208.715C383.067 209.022 382.614 209.195 382.141 209.195Z" fill="#263238"/>
<path d="M379.251 201.514V269.707H323.204C320.826 269.707 318.545 270.579 316.864 272.131C315.182 273.683 314.237 275.788 314.237 277.983V314.823H374.463C377.342 314.82 380.103 313.762 382.138 311.882C384.173 310.002 385.316 307.453 385.316 304.795V201.514C385.316 200.772 384.997 200.06 384.428 199.535C383.859 199.01 383.088 198.715 382.283 198.715C381.479 198.715 380.708 199.01 380.139 199.535C379.57 200.06 379.251 200.772 379.251 201.514Z" fill="#2E353A"/>
<path opacity="0.4" d="M379.251 201.514V269.707H323.204C320.826 269.707 318.545 270.579 316.864 272.131C315.182 273.683 314.237 275.788 314.237 277.983V314.823H374.463C377.342 314.82 380.103 313.762 382.138 311.882C384.173 310.002 385.316 307.453 385.316 304.795V201.514C385.316 200.772 384.997 200.06 384.428 199.535C383.859 199.01 383.088 198.715 382.283 198.715C381.479 198.715 380.708 199.01 380.139 199.535C379.57 200.06 379.251 200.772 379.251 201.514Z" fill="white"/>
<path d="M371.334 294.326H324.923C322.309 294.329 319.802 295.289 317.953 296.995C316.104 298.701 315.064 301.015 315.061 303.428V374.596C315.061 375.678 314.596 376.715 313.767 377.48C312.939 378.244 311.815 378.674 310.643 378.674H287.754C287.121 378.674 286.513 378.906 286.066 379.319C285.618 379.733 285.366 380.293 285.366 380.878C285.366 381.462 285.618 382.023 286.066 382.436C286.513 382.85 287.121 383.082 287.754 383.082H310.595C313.032 383.076 315.367 382.18 317.089 380.59C318.812 379 319.783 376.845 319.789 374.596V348.236H371.334C371.968 348.236 372.575 348.004 373.023 347.591C373.471 347.177 373.722 346.617 373.722 346.032V296.53C373.722 295.945 373.471 295.385 373.023 294.971C372.575 294.558 371.968 294.326 371.334 294.326ZM368.946 343.828H319.837V303.428C319.837 302.183 320.373 300.989 321.327 300.109C322.281 299.228 323.574 298.734 324.923 298.734H368.946V343.828Z" fill="#2E353A"/>
<path opacity="0.6" d="M371.334 294.326H324.923C322.309 294.329 319.802 295.289 317.953 296.995C316.104 298.701 315.064 301.015 315.061 303.428V374.596C315.061 375.678 314.596 376.715 313.767 377.48C312.939 378.244 311.815 378.674 310.643 378.674H287.754C287.121 378.674 286.513 378.906 286.066 379.319C285.618 379.733 285.366 380.293 285.366 380.878C285.366 381.462 285.618 382.023 286.066 382.436C286.513 382.85 287.121 383.082 287.754 383.082H310.595C313.032 383.076 315.367 382.18 317.089 380.59C318.812 379 319.783 376.845 319.789 374.596V348.236H371.334C371.968 348.236 372.575 348.004 373.023 347.591C373.471 347.177 373.722 346.617 373.722 346.032V296.53C373.722 295.945 373.471 295.385 373.023 294.971C372.575 294.558 371.968 294.326 371.334 294.326ZM368.946 343.828H319.837V303.428C319.837 302.183 320.373 300.989 321.327 300.109C322.281 299.228 323.574 298.734 324.923 298.734H368.946V343.828Z" fill="white"/>
<path d="M308.721 374.949H270.919C269.284 374.949 267.958 376.172 267.958 377.682V379.225C267.958 380.734 269.284 381.958 270.919 381.958H308.721C310.357 381.958 311.682 380.734 311.682 379.225V377.682C311.682 376.172 310.357 374.949 308.721 374.949Z" fill="#2E353A"/>
<path opacity="0.4" d="M308.721 374.949H270.919C269.284 374.949 267.958 376.172 267.958 377.682V379.225C267.958 380.734 269.284 381.958 270.919 381.958H308.721C310.357 381.958 311.682 380.734 311.682 379.225V377.682C311.682 376.172 310.357 374.949 308.721 374.949Z" fill="white"/>
<path d="M371.334 398.345C345.807 398.345 325.043 374.861 325.043 345.988C325.043 317.115 345.807 293.642 371.334 293.642C396.862 293.642 417.614 317.126 417.614 345.988C417.614 374.85 396.802 398.345 371.334 398.345ZM371.334 299.163C349.102 299.163 331.013 320.179 331.013 345.999C331.013 371.819 349.102 392.846 371.334 392.846C393.567 392.846 411.596 371.819 411.596 346.032C411.596 320.245 393.519 299.152 371.334 299.152V299.163Z" fill="#2E353A"/>
<path d="M371.334 393.419C348.768 393.419 330.416 372.161 330.416 346.032C330.416 319.903 348.768 298.646 371.334 298.646C393.901 298.646 412.241 319.903 412.241 346.032C412.241 372.161 393.841 393.419 371.334 393.419ZM371.334 305.258C352.72 305.258 337.58 323.551 337.58 346.032C337.58 368.513 352.72 386.807 371.334 386.807C389.949 386.807 405.077 368.513 405.077 346.032C405.077 323.551 389.889 305.258 371.334 305.258Z" fill="#BB6BD9"/>
<path d="M371.286 358.959C377.287 358.959 382.152 353.151 382.152 345.988C382.152 338.824 377.287 333.017 371.286 333.017C365.286 333.017 360.421 338.824 360.421 345.988C360.421 353.151 365.286 358.959 371.286 358.959Z" fill="#BB6BD9"/>
<path d="M372.482 301.907H370.094V390.079H372.482V301.907Z" fill="#BB6BD9"/>
<path d="M408.623 344.886H333.95V347.09H408.623V344.886Z" fill="#BB6BD9"/>
<path d="M345.822 314.145L343.94 315.502L396.74 377.853L398.621 376.496L345.822 314.145Z" fill="#BB6BD9"/>
<path d="M396.745 314.113L343.934 376.455L345.815 377.813L398.626 315.47L396.745 314.113Z" fill="#BB6BD9"/>
<path d="M384.674 305.043L355.62 386.27L357.888 386.961L386.942 305.734L384.674 305.043Z" fill="#BB6BD9"/>
<path d="M337.462 327.856L336.326 329.795L405.104 364.132L406.24 362.194L337.462 327.856Z" fill="#BB6BD9"/>
<path d="M358.37 304.83L356.094 305.496L384.159 387.203L386.436 386.536L358.37 304.83Z" fill="#BB6BD9"/>
<path d="M405.322 328.438L336.137 361.594L337.237 363.55L406.423 330.394L405.322 328.438Z" fill="#BB6BD9"/>
<path d="M342.096 178.471C341.319 178.423 340.517 178.419 339.708 178.459C339.337 178.492 338.971 178.466 338.907 178.359C338.874 178.191 338.959 178.014 339.148 177.852L340.227 176.501C341.227 175.35 342.032 174.18 342.634 173C341.441 174.125 340.439 175.277 339.639 176.446C339.285 176.92 338.94 177.369 338.659 177.798C338.432 178.017 338.371 178.252 338.487 178.465C338.543 178.52 338.628 178.566 338.735 178.6C338.843 178.635 338.971 178.656 339.11 178.663C339.318 178.671 339.532 178.667 339.747 178.65C340.527 178.636 341.317 178.576 342.096 178.471Z" fill="#263238"/>
<path d="M222.445 182.462L233.191 177.514C233.191 177.514 235.746 174.318 236.439 174.208C237.132 174.098 250.039 175.663 250.039 175.663C250.039 175.663 248.63 179.443 247.364 180.6C246.098 181.757 237.812 180.313 237.812 180.313L227.257 185.107L222.445 182.462Z" fill="#B97964"/>
<path d="M213.275 138.151C210.398 140.719 207.699 142.691 211.878 146.251C216.057 149.81 215.269 155.684 209.932 158.307C204.595 160.93 177.849 169.889 167.951 159.563C158.053 149.237 165.42 142.173 170.339 140.245C175.258 138.316 170.518 133.247 170.064 129.566C169.611 125.886 187.879 110.832 196.404 109.873C204.929 108.914 210.732 115.692 210.577 122.568C210.421 129.445 217.979 133.963 213.275 138.151Z" fill="#263238"/>
<path d="M202.911 156.841C202.326 156.841 206.195 180.479 207.233 184.016C208.272 187.554 229.681 178.044 229.681 178.044L233.143 182.925C233.143 182.925 214.397 197.505 206.278 195.874C198.159 194.243 192.105 168.412 192.105 168.412L202.911 156.841Z" fill="#BB6BD9"/>
<path opacity="0.7" d="M233.143 182.926C233.143 182.926 214.397 197.505 206.278 195.863C203.031 195.202 200.105 190.64 197.765 185.405C195.475 180.03 193.623 174.505 192.225 168.875C192.153 168.533 192.105 168.357 192.105 168.357L193.299 167.101L197.658 162.428L202.911 156.819C202.505 157.734 206.242 180.501 207.257 183.961C208.272 187.422 229.705 177.989 229.705 177.989L233.143 182.926Z" fill="white"/>
<path opacity="0.2" d="M197.765 185.405C195.475 180.03 193.623 174.505 192.225 168.875C192.559 168.258 192.905 167.663 193.275 167.101C194.381 165.294 195.862 163.706 197.633 162.428L197.801 162.318C197.801 162.318 202.457 174.693 197.765 185.405Z" fill="black"/>
<path d="M148.441 237.023L181.288 241.31L187.151 163.1L154.256 166.715L148.441 237.023Z" fill="#BB6BD9"/>
<path opacity="0.4" d="M148.441 237.023L181.288 241.31L187.151 163.1L154.256 166.715L148.441 237.023Z" fill="white"/>
<path d="M164.668 385.421H156.775L159.199 375.349L161.432 366.103L171.318 364.703L167.808 375.668L164.668 385.421Z" fill="#B97964"/>
<path opacity="0.2" d="M167.725 375.888L159.128 375.546L161.397 366.201L171.307 364.747L167.725 375.888Z" fill="black"/>
<path d="M148.322 385.421H140.43L142.854 375.349L145.086 366.103L154.973 364.703L151.462 375.668L148.322 385.421Z" fill="#B97964"/>
<path opacity="0.2" d="M151.378 375.888L142.781 375.546L145.05 366.201L154.96 364.747L151.378 375.888Z" fill="black"/>
<path d="M134.041 192.876C134.041 192.876 133.635 193.659 133.003 195.08C130.03 201.858 121.886 223.27 124.931 248.087C126.734 262.766 144.31 289.181 146.925 303.574C149.969 320.335 141.993 349.858 144.047 371.535L156.596 372.549L160.381 370.345L171.127 368.857C171.127 368.857 199.138 310.054 198.589 289.721C198.195 273.753 171.127 216.515 171.127 216.515L173.706 195.345" fill="#263238"/>
<path opacity="0.2" d="M162.363 370.113L160.381 370.389L157.169 372.262C159.223 365.65 176.918 308.478 177.229 295.893C177.587 282.514 156.931 235.062 156.931 235.062L162.22 226.246L161.42 239.668C161.42 239.668 180.93 276.564 182.47 295.871C183.987 314.407 163.987 365.948 162.363 370.113Z" fill="black"/>
<path d="M154.555 385.101C154.555 384.296 165.301 384.924 165.301 384.924C165.301 384.924 171.892 391.107 178.279 392.495C184.667 393.884 181.097 397.421 173.957 397.421H156.25C151.176 397.421 154.34 393.432 154.555 385.101Z" fill="#263238"/>
<path d="M166.459 386.203C166.425 386.187 166.397 386.165 166.375 386.137V386.07C166.368 386.041 166.368 386.011 166.375 385.982C166.369 385.949 166.369 385.916 166.375 385.883C166.375 385.762 167.318 383.481 168.763 382.919C168.981 382.829 169.217 382.782 169.456 382.782C169.694 382.782 169.93 382.829 170.148 382.919C170.638 383.139 170.877 383.415 170.853 383.756C170.853 384.274 170.065 384.792 169.193 385.222C169.998 385.1 170.824 385.184 171.581 385.464C171.721 385.533 171.844 385.628 171.941 385.744C172.037 385.86 172.106 385.994 172.142 386.137C172.222 386.314 172.24 386.509 172.195 386.696C172.15 386.884 172.044 387.054 171.891 387.183C171.614 387.358 171.283 387.443 170.948 387.426C169.387 387.259 167.868 386.845 166.459 386.203ZM167.438 386.037C169.014 386.655 171.02 387.195 171.486 386.82C171.486 386.82 171.665 386.677 171.557 386.291C171.533 386.218 171.493 386.15 171.439 386.091C171.386 386.032 171.321 385.984 171.247 385.949C170.85 385.783 170.416 385.708 169.981 385.729C169.124 385.751 168.272 385.854 167.438 386.037ZM168.93 383.404C168.084 383.905 167.439 384.648 167.092 385.519C168.68 384.968 170.208 384.197 170.232 383.756C170.232 383.624 169.993 383.492 169.85 383.426C169.696 383.359 169.53 383.322 169.36 383.315C169.212 383.318 169.066 383.348 168.93 383.404Z" fill="#BB6BD9"/>
<path d="M156.597 368.724L174.328 366.487L172.847 372.581L158.209 374.279L156.597 368.724Z" fill="#BB6BD9"/>
<path d="M138.209 385.101C138.209 384.296 148.955 384.924 148.955 384.924C148.955 384.924 155.534 391.107 161.922 392.495C168.309 393.884 164.739 397.421 157.599 397.421H139.928C134.83 397.421 137.982 393.432 138.209 385.101Z" fill="#263238"/>
<path d="M150.124 386.203C150.086 386.191 150.052 386.167 150.029 386.137V386.07C150.022 386.041 150.022 386.011 150.029 385.982C150.018 385.95 150.018 385.915 150.029 385.883C150.029 385.762 150.972 383.481 152.417 382.919C152.635 382.829 152.871 382.782 153.109 382.782C153.348 382.782 153.584 382.829 153.802 382.919C154.291 383.139 154.53 383.415 154.506 383.756C154.506 384.274 153.718 384.792 152.847 385.222C153.652 385.1 154.478 385.184 155.235 385.464C155.374 385.535 155.496 385.632 155.595 385.747C155.693 385.862 155.766 385.995 155.808 386.137C155.884 386.315 155.9 386.511 155.853 386.698C155.806 386.885 155.699 387.054 155.545 387.183C155.269 387.359 154.937 387.444 154.602 387.426C153.044 387.261 151.528 386.847 150.124 386.203ZM151.103 386.037C152.679 386.655 154.685 387.195 155.139 386.82C155.139 386.82 155.318 386.677 155.211 386.291C155.186 386.218 155.146 386.15 155.093 386.091C155.04 386.032 154.974 385.984 154.9 385.949C154.526 385.792 154.117 385.716 153.706 385.729C152.833 385.747 151.965 385.85 151.115 386.037H151.103ZM152.584 383.404C151.738 383.905 151.092 384.648 150.745 385.519C152.333 384.968 153.862 384.197 153.885 383.756C153.885 383.624 153.647 383.492 153.503 383.426C153.35 383.357 153.184 383.32 153.014 383.315C152.866 383.318 152.719 383.348 152.584 383.404Z" fill="#BB6BD9"/>
<path d="M141.456 368.724L160.381 366.487L158.805 372.581L143.175 374.279L141.456 368.724Z" fill="#BB6BD9"/>
<path d="M136.334 188.116L134.483 193.042L171.832 202.155L174.029 196.337L136.334 188.116Z" fill="black"/>
<path d="M149.15 189.901L147.316 189.408L144.588 198.04L146.422 198.534L149.15 189.901Z" fill="#263238"/>
<path d="M164.964 194.754L156.764 192.857L155.205 198.597L163.405 200.494L164.964 194.754Z" fill="white"/>
<path d="M172.216 194.802L170.382 194.308L167.652 202.94L169.486 203.434L172.216 194.802Z" fill="#263238"/>
<path d="M202.326 156.841C200.734 158.795 199.226 160.632 197.801 162.351C192.356 169.073 188.488 173.845 185.515 177.691C182.184 181.833 179.293 186.262 176.882 190.915C175.915 192.811 174.96 194.871 173.897 197.296L136.334 188.05C143.402 163.806 149.468 151.11 152.489 144.774L152.584 144.576C153.517 142.678 155.147 141.147 157.186 140.253C159.226 139.359 161.542 139.161 163.724 139.694C166.423 140.366 169.575 141.214 172.5 142.129C177.951 143.987 183.254 146.196 188.368 148.741C193.226 151.129 197.89 153.836 202.326 156.841Z" fill="#F2C94C"/>
<path d="M163.724 139.76C158.781 138.559 166.053 154.604 177.288 157.734C188.524 160.863 195.282 157.017 195.294 154.042C195.306 151.067 178.637 143.441 163.724 139.76Z" fill="#B97964"/>
<path d="M167.02 139.462C167.02 139.462 170.793 155.177 167.02 166.715C163.247 178.253 132.394 248.077 132.394 248.077H116C116 248.077 121.074 213.617 136.298 184.017C136.298 184.017 149.981 144.245 150.292 142.493C150.602 140.741 157.886 137.93 167.02 139.462Z" fill="#BB6BD9"/>
<path d="M188.523 147.849C188.523 147.849 189.013 163.949 182.553 178.22L181.275 239.051C181.275 239.051 186.577 207.798 188.917 184.017L202.899 156.841L188.523 147.849Z" fill="#BB6BD9"/>
<path opacity="0.8" d="M167.02 166.715C163.235 178.242 132.394 248.076 132.394 248.076H116C116 248.076 120.645 216.57 134.388 187.94C135.02 186.628 135.665 185.317 136.334 184.016C136.334 184.016 137.635 180.236 139.438 174.947C143.498 163.1 150.113 143.705 150.327 142.493C150.638 140.751 157.886 137.875 167.043 139.462C167.02 139.462 170.793 155.177 167.02 166.715Z" fill="white"/>
<path opacity="0.8" d="M188.523 147.849C188.523 147.849 189.013 163.949 182.553 178.22L181.275 239.051C181.275 239.051 186.577 207.798 188.917 184.017L202.899 156.841L188.523 147.849Z" fill="white"/>
<path d="M188.93 146.493C188.93 146.493 193.897 150.195 197.169 160.003L190.518 164.378L192.13 168.39L182.578 182.44C182.164 178.794 182.423 175.109 183.342 171.541C184.846 166.329 189.384 150.934 188.93 146.493Z" fill="#BB6BD9"/>
<path d="M168.702 139.462C172.201 152.561 170.011 166.404 162.601 178.033C162.601 178.033 162.231 163.376 160.082 158.031L165.204 156.147L155.091 150.053C155.091 150.053 163.294 137.655 168.702 139.462Z" fill="#BB6BD9"/>
<path opacity="0.7" d="M188.93 146.493C188.93 146.493 193.897 150.195 197.169 160.003L190.518 164.378L192.13 168.39L182.578 182.44C182.164 178.794 182.423 175.109 183.342 171.541C184.846 166.329 189.384 150.934 188.93 146.493Z" fill="white"/>
<path opacity="0.7" d="M168.702 139.462C172.201 152.561 170.011 166.404 162.601 178.033C162.601 178.033 162.231 163.376 160.082 158.031L165.204 156.147L155.091 150.053C155.091 150.053 163.294 137.655 168.702 139.462Z" fill="white"/>
<path opacity="0.2" d="M150.017 193.45C146.172 193.78 139.462 190.673 134.388 187.94C135.021 186.628 135.665 185.317 136.334 184.016C136.334 184.016 137.635 180.236 139.438 174.947C145.564 181.878 154.698 193.031 150.017 193.45Z" fill="black"/>
<path d="M150.327 142.493C154.733 144.697 155.103 153.447 155.103 153.447C155.103 153.447 144.99 171.553 144.357 174.385C143.724 177.217 163.055 200.205 163.055 200.205L158.518 204.106C158.518 204.106 135.211 181.052 132.692 175.454C130.172 169.856 150.327 142.493 150.327 142.493Z" fill="#BB6BD9"/>
<path d="M178.077 155.562C171.749 148.95 172.298 144.377 172.298 144.377C180.573 144.123 183.331 134.238 183.331 134.238L190.495 142.691C189.243 143.633 188.066 144.657 186.972 145.754C182.328 150.504 184.584 152.466 184.584 152.466C183.653 156.334 178.077 155.562 178.077 155.562Z" fill="#B97964"/>
<path opacity="0.2" d="M190.518 142.735C189.266 143.678 188.089 144.702 186.995 145.799C183.712 141.556 183.354 134.283 183.354 134.283L190.518 142.735Z" fill="black"/>
<path d="M198.302 111.548C207.962 113.752 209.825 119.196 208.105 128.552C205.956 140.244 201.037 147.793 189.598 142.625C174.052 135.594 182.243 107.944 198.302 111.548Z" fill="#B97964"/>
<path d="M196.261 124.596C196.082 125.334 195.509 125.841 194.971 125.698C194.434 125.555 194.148 124.905 194.327 124.166C194.506 123.428 195.079 122.921 195.604 123.064C196.13 123.208 196.488 123.858 196.261 124.596Z" fill="#263238"/>
<path d="M195.377 123.053L197.263 122.777C197.263 122.777 196.081 123.945 195.377 123.053Z" fill="#263238"/>
<path d="M206.219 126.447C206.052 127.186 205.479 127.692 204.941 127.549C204.404 127.406 204.117 126.756 204.296 126.017C204.476 125.279 205.049 124.772 205.574 124.915C206.099 125.059 206.398 125.709 206.219 126.447Z" fill="#263238"/>
<path d="M205.348 124.904L207.234 124.629C207.234 124.629 206.04 125.808 205.348 124.904Z" fill="#263238"/>
<path d="M193.24 119.196C193.172 119.197 193.105 119.182 193.045 119.153C192.985 119.124 192.933 119.082 192.894 119.031C192.826 118.946 192.797 118.839 192.813 118.734C192.828 118.629 192.887 118.534 192.978 118.469C193.71 118.042 194.541 117.778 195.403 117.7C196.266 117.622 197.136 117.73 197.945 118.017C198.044 118.059 198.123 118.135 198.164 118.229C198.205 118.322 198.206 118.427 198.166 118.521C198.126 118.615 198.049 118.692 197.951 118.735C197.852 118.779 197.739 118.786 197.634 118.755C196.961 118.524 196.24 118.435 195.525 118.496C194.81 118.557 194.119 118.766 193.503 119.108C193.427 119.161 193.336 119.192 193.24 119.196Z" fill="#263238"/>
<path d="M208.571 121.61C208.512 121.61 208.454 121.598 208.4 121.575C208.346 121.552 208.299 121.519 208.261 121.477C207.866 121.02 207.365 120.651 206.794 120.397C206.224 120.144 205.598 120.012 204.965 120.012C204.852 120.019 204.741 119.986 204.652 119.921C204.564 119.856 204.505 119.762 204.487 119.659C204.474 119.555 204.505 119.451 204.574 119.369C204.644 119.286 204.745 119.232 204.858 119.218C205.628 119.2 206.393 119.346 207.093 119.644C207.792 119.942 208.408 120.385 208.893 120.937C208.971 121.013 209.015 121.114 209.015 121.218C209.015 121.323 208.971 121.424 208.893 121.499C208.851 121.538 208.801 121.568 208.745 121.587C208.689 121.606 208.63 121.613 208.571 121.61Z" fill="#263238"/>
<path d="M183.76 124.21C183.76 124.21 190.219 117.895 191.031 112.088C191.031 112.088 212.093 109.167 208.308 127.329C208.308 127.329 214.386 111.812 197.849 107.724C181.312 103.635 175.473 126.083 182.327 134.701C182.291 134.701 179.772 128.166 183.76 124.21Z" fill="#263238"/>
<path d="M184.846 126.458C185.026 125.41 184.75 124.338 184.08 123.476C183.409 122.614 182.398 122.03 181.264 121.852C178.183 121.477 175.294 126.833 182.35 129.874C183.353 130.315 184.189 129.478 184.846 126.458Z" fill="#B97964"/>
<path d="M214.123 131.318C211.615 129.114 211.997 125.367 213.967 121.565C215.938 117.763 210.839 114.953 210.839 114.953C210.839 114.953 210.433 110.171 206.445 108.253C205.729 107.9 202.41 108.253 202.41 108.253C198.063 103.845 191.078 100.219 185.598 105.961C182.362 109.355 179.15 105.884 174.028 112.937C170.327 118.039 172.906 122.524 171.831 124.166C166.864 131.704 173.324 133.743 174.876 136.365C174.876 136.365 178.291 134.867 178.004 133.963C175.616 126.745 179.735 122.061 182.888 123.207C186.04 124.353 188.284 124.056 190.565 121.4C192.846 118.744 191.258 115.89 196.535 115.229C201.813 114.568 202.35 111.779 202.35 111.779C202.434 113.019 202.882 114.214 203.646 115.237C204.409 116.26 205.459 117.072 206.684 117.587C211.09 119.714 209.359 122.282 208.738 125.907C208.117 129.533 210.063 130.932 213.514 133.555C216.964 136.178 213.323 138.096 213.323 138.096C213.977 137.79 214.539 137.338 214.957 136.781C215.375 136.225 215.635 135.58 215.714 134.907C215.794 134.234 215.69 133.553 215.412 132.926C215.134 132.3 214.691 131.747 214.123 131.318Z" fill="#263238"/>
<path d="M200.273 135.461C199.418 136.175 198.62 136.945 197.885 137.765L197.36 137.478C194.972 136.167 194.375 134.844 194.387 133.764C194.417 133.242 194.576 132.733 194.853 132.277C195.004 132.012 195.193 131.768 195.414 131.549C196.484 132.957 197.868 134.137 199.473 135.01L200.273 135.461Z" fill="#263238"/>
<path d="M199.472 135.01L198.756 135.671C196.535 134.426 195.174 133.279 194.852 132.277C195.003 132.012 195.192 131.768 195.413 131.549C196.483 132.957 197.867 134.137 199.472 135.01Z" fill="white"/>
<path d="M197.36 137.478C194.972 136.167 194.375 134.845 194.387 133.765C195.277 134.28 196.061 134.936 196.703 135.704C197.119 136.217 197.349 136.838 197.36 137.478Z" fill="#DE5753"/>
<path d="M159.474 197.362L164.357 203.39C164.357 203.39 169.133 204.26 170.327 205.418C172.534 207.723 174.497 210.217 176.19 212.867C176.655 214.024 169.623 217.22 168.727 216.79C167.832 216.361 162.817 209.815 162.184 208.646C162.001 208.276 161.907 207.874 161.907 207.467C161.907 207.06 162.001 206.658 162.184 206.288L157.002 200.778L159.474 197.362Z" fill="#B97964"/>
<path opacity="0.7" d="M150.327 142.493C154.733 144.697 155.103 153.447 155.103 153.447C155.103 153.447 144.99 171.553 144.357 174.385C143.724 177.217 163.055 200.205 163.055 200.205L158.518 204.106C158.518 204.106 135.211 181.052 132.692 175.454C130.172 169.856 150.327 142.493 150.327 142.493Z" fill="white"/>
<path d="M199.299 130.681C199.803 130.747 200.311 130.857 200.812 131.007C201.038 131.089 201.275 131.117 201.345 131.03C201.41 130.883 201.405 130.711 201.329 130.537L201.009 129.164C200.686 127.982 200.492 126.809 200.428 125.658C200.88 126.843 201.204 128.027 201.395 129.197C201.492 129.676 201.59 130.13 201.652 130.557C201.737 130.787 201.712 131.009 201.582 131.185C201.532 131.227 201.466 131.257 201.388 131.272C201.311 131.288 201.224 131.289 201.135 131.276C201.001 131.254 200.867 131.22 200.736 131.174C200.246 131.052 199.763 130.886 199.299 130.681Z" fill="#263238"/>
<path d="M172.963 203.708L181.735 185.067C182.029 184.445 182.482 183.922 183.044 183.557C183.606 183.191 184.254 182.998 184.915 183H206.966C207.152 182.999 207.334 183.048 207.496 183.144C207.659 183.239 207.794 183.377 207.89 183.545C207.986 183.712 208.04 183.902 208.045 184.098C208.05 184.293 208.006 184.486 207.919 184.659L192.977 213.706C192.77 214.106 192.464 214.439 192.092 214.672C191.719 214.904 191.294 215.027 190.861 215.026H168L172.963 203.708Z" fill="#E0E0E0"/>
<path d="M174.614 203.358C174.637 203.326 174.655 203.292 174.67 203.256L174.827 202.949C174.969 202.662 175.164 202.261 175.41 201.75C175.919 200.693 176.636 199.184 177.526 197.325C178.415 195.466 179.469 193.222 180.639 190.75L182.47 186.863C182.631 186.529 182.788 186.179 182.952 185.853C183.218 185.355 183.602 184.937 184.067 184.642C184.533 184.346 185.063 184.183 185.606 184.167L201.142 184.136L205.851 184.1H207.133L205.851 184.081L201.142 184.049L185.602 184.022C185.025 184.036 184.461 184.209 183.966 184.523C183.472 184.838 183.064 185.283 182.784 185.814C182.612 186.16 182.463 186.498 182.302 186.836C181.667 188.184 181.057 189.485 180.478 190.727C179.323 193.206 178.281 195.443 177.402 197.317L175.343 201.723C175.108 202.238 174.924 202.647 174.794 202.937C174.734 203.067 174.689 203.173 174.655 203.256C174.638 203.288 174.624 203.322 174.614 203.358Z" fill="#263238"/>
<path d="M194.004 189.308C194.121 189.567 194.14 189.863 194.059 190.136C193.977 190.409 193.8 190.64 193.563 190.782C193.407 190.927 193.208 191.011 193 191.021C192.791 191.031 192.586 190.965 192.419 190.835C192.251 190.705 192.13 190.518 192.078 190.306C192.025 190.094 192.042 189.87 192.128 189.67C192.27 189.296 192.913 188.699 193.376 188.833C193.376 188.833 193.866 189.006 194.004 189.308Z" fill="white"/>
<rect x="168" y="210" width="8" height="6" fill="#B97964"/>
</svg>
