<svg width="245" height="200" viewBox="0 0 245 200" fill="none" xmlns="http://www.w3.org/2000/svg">
<path d="M134.108 178.004V175.688L200.989 140.954L243.348 162.95V165.266L176.467 200L134.108 178.004Z" fill="#BA68C8"/>
<path d="M134.108 175.688L176.467 197.684L243.348 162.95L200.989 140.954L134.108 175.688Z" fill="#BA68C8"/>
<path opacity="0.15" d="M134.108 175.688L176.467 197.684V200L134.108 178.004V175.688Z" fill="black"/>
<path opacity="0.1" d="M176.467 197.684L243.348 162.95V165.266L176.467 200V197.684Z" fill="black"/>
<path d="M188.723 167.003L196.527 171.057V143.605L169.771 129.711L169.777 157.163L188.723 167.003Z" fill="#EBEBEB"/>
<path d="M194.299 143.343L223.283 149.663V148.503L194.299 142.188V143.343Z" fill="#37474F"/>
<path d="M167.548 128.284L194.299 142.188L223.283 148.503L196.532 134.604L167.548 128.284Z" fill="#455A64"/>
<path opacity="0.5" d="M167.548 128.284L194.299 142.188L223.283 148.503L196.532 134.604L167.548 128.284Z" fill="#37474F"/>
<path d="M167.548 128.284L194.299 142.188V143.343L167.548 129.445V128.284Z" fill="#263238"/>
<path d="M196.527 171.057L221.054 158.319V149.175L196.527 143.832V171.057Z" fill="#EBEBEB"/>
<path d="M196.527 145.185L221.054 150.532V149.175L196.527 143.832V145.185Z" fill="#E0E0E0"/>
<path d="M200.983 168.741V158.319L216.598 150.216V160.634L200.983 168.741Z" fill="#455A64"/>
<path opacity="0.5" d="M200.983 168.741V158.319L216.598 150.216V160.634L200.983 168.741Z" fill="#37474F"/>
<path d="M216.598 150.216L216.384 150.325V160.526L216.598 160.629V150.216Z" fill="#263238"/>
<path d="M216.378 160.531L200.983 168.524V168.741L216.598 160.634L216.378 160.531Z" fill="#37474F"/>
<path d="M176.467 190.742V149.056L147.483 134.002V175.688L176.467 190.742Z" fill="#EBEBEB"/>
<path d="M147.483 134.002V139.794L176.467 154.848V149.056L147.483 134.002Z" fill="#E0E0E0"/>
<path d="M154.173 145.541L149.711 143.23V173.333L154.173 175.649V145.541Z" fill="#455A64"/>
<path d="M150.068 173.15V143.413L154.173 145.541V175.279L150.068 173.15Z" fill="#FAFAFA"/>
<path d="M150.068 143.413L154.173 145.541V146.642L150.068 144.524V143.413Z" fill="#E0E0E0"/>
<path d="M149.711 173.333L150.068 173.151L154.173 175.279V175.649L149.711 173.333Z" fill="#37474F"/>
<path d="M169.777 154.848L160.858 150.211V159.479L169.777 164.11V154.848Z" fill="#455A64"/>
<path d="M161.215 159.296V150.399L169.777 154.848V163.74L161.215 159.296Z" fill="#FAFAFA"/>
<path d="M161.215 150.399V151.816L169.777 156.265V154.848L161.215 150.399Z" fill="#E0E0E0"/>
<path d="M160.858 159.479L161.215 159.296L169.777 163.74V164.11L160.858 159.479Z" fill="#37474F"/>
<path d="M164.958 152.344L165.315 152.527V161.795L164.958 161.612V152.344Z" fill="#455A64"/>
<path d="M165.315 152.527V161.794L165.677 161.607V152.715L165.315 152.527Z" fill="#37474F"/>
<path d="M169.777 171.057L160.858 166.426V175.688L169.777 180.32V171.057Z" fill="#455A64"/>
<path d="M161.215 175.506V166.609L169.777 171.057V179.949L161.215 175.506Z" fill="#FAFAFA"/>
<path d="M161.215 166.609V168.026L169.777 172.474V171.057L161.215 166.609Z" fill="#E0E0E0"/>
<path d="M160.858 175.688L161.215 175.506L169.777 179.949V180.32L160.858 175.688Z" fill="#37474F"/>
<path d="M164.958 168.554L165.315 168.741V178.004L164.958 177.821V168.554Z" fill="#455A64"/>
<path d="M165.315 168.741V178.004L165.677 177.821V168.924L165.315 168.741Z" fill="#37474F"/>
<path d="M176.467 149.056L198.761 128.215V179.164L176.467 190.742V149.056Z" fill="#FAFAFA"/>
<path d="M198.761 162.95L176.467 174.528V168.741L198.761 157.069V162.95Z" fill="#E0E0E0"/>
<path d="M176.467 152.038L198.761 131.272V128.215L176.467 149.056V152.038Z" fill="#F0F0F0"/>
<path d="M183.152 151.317L192.07 146.686V159.479L183.152 164.11V151.317Z" fill="#455A64"/>
<path d="M191.714 159.296V146.874L183.152 151.317V163.74L191.714 159.296Z" fill="#E6E6E6"/>
<path d="M191.714 146.874V148.291L183.152 152.734V151.317L191.714 146.874Z" fill="#E0E0E0"/>
<path d="M192.07 159.479L191.714 159.296L183.152 163.74V164.11L192.07 159.479Z" fill="#37474F"/>
<path d="M187.971 148.819L187.614 149.002V161.795L187.971 161.612V148.819Z" fill="#455A64"/>
<path d="M187.614 149.002V161.794L187.252 161.607V149.189L187.614 149.002Z" fill="#37474F"/>
<path d="M184.266 186.694V173.921L190.956 170.45V183.218L184.266 186.694Z" fill="#37474F"/>
<path d="M190.742 183.075V170.558L184.266 173.921V186.437L190.742 183.075Z" fill="#455A64"/>
<path d="M190.956 170.45L190.742 170.558V183.075L190.956 183.218V170.45Z" fill="#263238"/>
<path d="M176.467 167.581L198.761 156.003L203.217 158.319L180.924 169.897L176.467 167.581Z" fill="#E0E0E0"/>
<path d="M176.467 167.581V168.741L180.924 171.057V169.897L176.467 167.581Z" fill="#EBEBEB"/>
<path d="M180.923 169.897L203.217 158.319V159.479L180.923 171.057V169.897Z" fill="#F5F5F5"/>
<path d="M181.083 162.372V169.255C181.083 169.268 181.078 169.28 181.071 169.291C181.063 169.301 181.052 169.309 181.039 169.314C181.003 169.331 180.964 169.34 180.923 169.34C180.883 169.34 180.844 169.331 180.808 169.314C180.795 169.309 180.784 169.301 180.776 169.291C180.768 169.28 180.764 169.268 180.764 169.255V162.372H181.083Z" fill="#37474F"/>
<path d="M183.009 161.37V168.253C183.01 168.265 183.006 168.278 182.998 168.289C182.99 168.3 182.979 168.308 182.965 168.312C182.93 168.329 182.89 168.338 182.85 168.338C182.81 168.338 182.77 168.329 182.735 168.312C182.721 168.308 182.71 168.3 182.702 168.289C182.694 168.278 182.69 168.265 182.691 168.253V161.37H183.009Z" fill="#37474F"/>
<path d="M184.941 160.373V167.255C184.941 167.255 184.941 167.295 184.892 167.315C184.855 167.329 184.816 167.337 184.776 167.337C184.737 167.337 184.697 167.329 184.661 167.315C184.649 167.308 184.639 167.3 184.632 167.289C184.624 167.279 184.619 167.267 184.617 167.255V160.373H184.941Z" fill="#37474F"/>
<path d="M186.867 159.37V166.253C186.866 166.266 186.86 166.278 186.852 166.289C186.843 166.299 186.831 166.307 186.818 166.312C186.782 166.329 186.743 166.338 186.703 166.338C186.663 166.338 186.623 166.329 186.587 166.312C186.575 166.306 186.565 166.298 186.557 166.288C186.549 166.277 186.545 166.265 186.544 166.253V159.37H186.867Z" fill="#37474F"/>
<path d="M188.794 158.368V165.251C188.792 165.264 188.787 165.276 188.778 165.286C188.769 165.297 188.758 165.305 188.744 165.31C188.71 165.327 188.671 165.336 188.632 165.336C188.593 165.336 188.554 165.327 188.519 165.31C188.506 165.305 188.495 165.297 188.486 165.286C188.477 165.276 188.472 165.264 188.47 165.251V158.368H188.794Z" fill="#37474F"/>
<path d="M190.72 157.366V164.248C190.719 164.262 190.714 164.274 190.705 164.285C190.696 164.295 190.684 164.303 190.671 164.308C190.636 164.325 190.598 164.333 190.558 164.333C190.519 164.333 190.48 164.325 190.446 164.308C190.432 164.303 190.42 164.295 190.412 164.285C190.403 164.274 190.398 164.262 190.396 164.248V157.366H190.72Z" fill="#37474F"/>
<path d="M192.647 156.368V163.251C192.647 163.251 192.647 163.291 192.597 163.31C192.562 163.325 192.523 163.333 192.485 163.333C192.446 163.333 192.407 163.325 192.372 163.31C192.339 163.291 192.323 163.271 192.323 163.251V156.368H192.647Z" fill="#37474F"/>
<path d="M194.573 155.366V162.249C194.572 162.261 194.567 162.273 194.56 162.283C194.552 162.294 194.541 162.302 194.529 162.308C194.494 162.325 194.454 162.334 194.414 162.334C194.374 162.334 194.334 162.325 194.299 162.308C194.285 162.303 194.274 162.295 194.265 162.284C194.256 162.274 194.251 162.262 194.249 162.249V155.366H194.573Z" fill="#37474F"/>
<path d="M196.499 154.364V161.246C196.499 161.259 196.494 161.271 196.487 161.281C196.479 161.292 196.468 161.3 196.456 161.306C196.42 161.322 196.38 161.331 196.34 161.331C196.3 161.331 196.261 161.322 196.225 161.306C196.211 161.301 196.2 161.293 196.191 161.282C196.182 161.272 196.177 161.259 196.176 161.246V154.364H196.499Z" fill="#37474F"/>
<path d="M198.426 153.366V160.249C198.425 160.262 198.421 160.274 198.413 160.284C198.405 160.295 198.395 160.303 198.382 160.308C198.346 160.323 198.306 160.331 198.267 160.331C198.227 160.331 198.188 160.323 198.151 160.308C198.119 160.289 198.102 160.269 198.102 160.249V153.366H198.426Z" fill="#37474F"/>
<path d="M200.352 152.364V159.247C200.352 159.26 200.348 159.272 200.34 159.282C200.332 159.293 200.321 159.301 200.308 159.306C200.273 159.323 200.233 159.332 200.193 159.332C200.153 159.332 200.113 159.323 200.078 159.306C200.065 159.301 200.054 159.293 200.046 159.282C200.038 159.272 200.034 159.26 200.034 159.247V152.364H200.352Z" fill="#37474F"/>
<path d="M202.284 151.362V158.245C202.283 158.258 202.278 158.27 202.269 158.281C202.26 158.291 202.248 158.299 202.235 158.304C202.199 158.321 202.16 158.329 202.119 158.329C202.079 158.329 202.04 158.321 202.004 158.304C201.992 158.298 201.981 158.29 201.973 158.28C201.965 158.269 201.961 158.257 201.96 158.245V151.362H202.284Z" fill="#37474F"/>
<path d="M180.923 162.619C180.875 162.62 180.827 162.608 180.786 162.585L177.202 160.758C177.143 160.724 177.101 160.671 177.084 160.609C177.067 160.548 177.076 160.483 177.111 160.428C177.145 160.373 177.202 160.332 177.269 160.314C177.336 160.295 177.408 160.3 177.471 160.328L180.923 162.086L202.663 150.794L197.586 148.197C197.555 148.181 197.527 148.159 197.505 148.133C197.483 148.108 197.467 148.078 197.457 148.047C197.448 148.015 197.446 147.983 197.45 147.95C197.455 147.918 197.466 147.887 197.485 147.859C197.503 147.831 197.527 147.806 197.555 147.786C197.584 147.766 197.617 147.752 197.651 147.743C197.686 147.735 197.723 147.732 197.759 147.737C197.795 147.741 197.829 147.751 197.86 147.767L203.349 150.577C203.39 150.6 203.425 150.631 203.449 150.669C203.473 150.707 203.486 150.75 203.486 150.794C203.486 150.837 203.473 150.879 203.449 150.917C203.425 150.954 203.39 150.985 203.349 151.006L181.055 162.585C181.016 162.607 180.97 162.619 180.923 162.619Z" fill="#455A64"/>
<path d="M174.639 150.68L199.557 127.47V126.309L174.639 149.52V150.68Z" fill="#37474F"/>
<path d="M174.639 150.68L144.859 135.212V134.051L174.639 149.52V150.68Z" fill="#263238"/>
<path d="M169.777 110.846L199.556 126.309L174.639 149.52L144.859 134.051L169.777 110.846Z" fill="#455A64"/>
<path d="M216.598 160.634L232.201 168.741L216.598 176.849L200.983 168.741L216.598 160.634Z" fill="#F0F0F0"/>
<path d="M190.956 183.218L184.266 186.694L190.951 190.165L197.641 186.689L190.956 183.218Z" fill="#F0F0F0"/>
<path d="M198.217 180.359L199.167 179.865C199.428 178.477 199.465 177.062 199.276 175.664C198.799 172.933 196.735 171.995 195.983 172.267C195.232 172.538 195.056 173.343 196.412 174.923C197.641 176.516 198.274 178.42 198.217 180.359Z" fill="#BA68C8"/>
<g opacity="0.2">
<path opacity="0.2" d="M198.217 180.359L199.167 179.865C199.428 178.477 199.465 177.062 199.276 175.664C198.799 172.933 196.735 171.995 195.983 172.267C195.232 172.538 195.056 173.343 196.412 174.923C197.641 176.516 198.274 178.42 198.217 180.359Z" fill="black"/>
</g>
<path d="M198.563 179.273C198.554 179.272 198.545 179.27 198.537 179.266C198.529 179.262 198.521 179.257 198.516 179.25C198.51 179.244 198.506 179.236 198.504 179.228C198.501 179.22 198.501 179.212 198.503 179.204C198.898 176.651 197.751 173.851 196.472 172.721C196.466 172.715 196.461 172.709 196.458 172.702C196.454 172.694 196.453 172.687 196.453 172.679C196.453 172.671 196.454 172.663 196.458 172.656C196.461 172.649 196.466 172.642 196.472 172.637C196.486 172.626 196.503 172.621 196.521 172.621C196.539 172.621 196.557 172.626 196.571 172.637C197.877 173.787 199.04 176.631 198.64 179.228C198.639 179.236 198.636 179.243 198.631 179.25C198.626 179.257 198.62 179.262 198.613 179.266C198.605 179.271 198.597 179.273 198.589 179.274C198.58 179.276 198.571 179.275 198.563 179.273Z" fill="white"/>
<path d="M195.577 181.727C195.429 181.806 195.122 181.633 195.001 181.564C194.798 181.439 194.633 181.269 194.524 181.07C194.401 180.847 194.36 180.594 194.408 180.349C194.43 180.217 194.463 180.087 194.507 179.959C194.545 179.836 194.589 179.712 194.628 179.589C194.675 179.467 194.696 179.338 194.688 179.209C194.609 178.959 194.423 178.748 194.172 178.621C194.03 178.548 193.909 178.446 193.819 178.323C193.728 178.201 193.671 178.061 193.651 177.915C193.674 177.676 193.779 177.45 193.953 177.268C194.117 177.081 194.315 176.918 194.463 176.72C194.581 176.578 194.642 176.404 194.633 176.226C194.617 176.122 194.578 176.021 194.518 175.93C194.379 175.739 194.258 175.537 194.156 175.328C194.105 175.223 194.088 175.107 194.109 174.994C194.129 174.881 194.185 174.776 194.271 174.691C194.354 174.635 194.449 174.594 194.55 174.571C194.651 174.548 194.756 174.544 194.858 174.558C195.053 174.579 195.24 174.638 195.407 174.73C195.956 175.002 196.263 175.585 196.84 175.792C197.068 175.856 197.301 175.907 197.537 175.945C197.655 175.965 197.767 176.007 197.866 176.069C197.965 176.13 198.049 176.209 198.113 176.301C198.327 176.681 197.932 177.15 198.08 177.555C198.228 177.959 198.596 178.048 198.815 178.369C198.902 178.512 198.937 178.677 198.914 178.838C198.898 179.112 198.823 179.38 198.695 179.628C198.556 179.877 198.396 180.117 198.217 180.344L195.577 181.727Z" fill="#BA68C8"/>
<g opacity="0.1">
<path opacity="0.1" d="M195.577 181.727C195.429 181.806 195.122 181.633 195.001 181.564C194.798 181.439 194.633 181.269 194.524 181.07C194.401 180.847 194.36 180.594 194.408 180.349C194.43 180.217 194.463 180.087 194.507 179.959C194.545 179.836 194.589 179.712 194.628 179.589C194.675 179.467 194.696 179.338 194.688 179.209C194.609 178.959 194.423 178.748 194.172 178.621C194.03 178.548 193.909 178.446 193.819 178.323C193.728 178.201 193.671 178.061 193.651 177.915C193.674 177.676 193.779 177.45 193.953 177.268C194.117 177.081 194.315 176.918 194.463 176.72C194.581 176.578 194.642 176.404 194.633 176.226C194.617 176.122 194.578 176.021 194.518 175.93C194.379 175.739 194.258 175.537 194.156 175.328C194.105 175.223 194.088 175.107 194.109 174.994C194.129 174.881 194.185 174.776 194.271 174.691C194.354 174.635 194.449 174.594 194.55 174.571C194.651 174.548 194.756 174.544 194.858 174.558C195.053 174.579 195.24 174.638 195.407 174.73C195.956 175.002 196.263 175.585 196.84 175.792C197.068 175.856 197.301 175.907 197.537 175.945C197.655 175.965 197.767 176.007 197.866 176.069C197.965 176.13 198.049 176.209 198.113 176.301C198.327 176.681 197.932 177.15 198.08 177.555C198.228 177.959 198.596 178.048 198.815 178.369C198.902 178.512 198.937 178.677 198.914 178.838C198.898 179.112 198.823 179.38 198.695 179.628C198.556 179.877 198.396 180.117 198.217 180.344L195.577 181.727Z" fill="black"/>
</g>
<path d="M197.12 180.986C197.102 180.986 197.085 180.98 197.073 180.969C197.061 180.958 197.054 180.943 197.054 180.927C197.163 178.508 195.901 175.836 194.979 175.061C194.973 175.056 194.967 175.049 194.964 175.042C194.96 175.034 194.958 175.027 194.958 175.019C194.958 175.011 194.959 175.003 194.962 174.995C194.965 174.988 194.97 174.981 194.976 174.975C194.982 174.969 194.99 174.964 194.998 174.961C195.006 174.958 195.015 174.956 195.024 174.956C195.033 174.955 195.042 174.957 195.05 174.96C195.058 174.963 195.066 174.967 195.072 174.972C196.011 175.762 197.301 178.478 197.191 180.932C197.188 180.947 197.18 180.961 197.166 180.971C197.153 180.981 197.137 180.986 197.12 180.986Z" fill="white"/>
<path d="M196.719 178.132C196.082 177.976 195.429 177.882 194.77 177.851C194.761 177.851 194.752 177.849 194.744 177.846C194.736 177.843 194.728 177.838 194.722 177.832C194.716 177.826 194.711 177.819 194.708 177.811C194.705 177.803 194.704 177.795 194.705 177.787C194.705 177.778 194.706 177.77 194.71 177.763C194.714 177.755 194.719 177.748 194.726 177.743C194.732 177.737 194.74 177.733 194.749 177.73C194.758 177.728 194.767 177.727 194.776 177.727C195.448 177.759 196.114 177.857 196.763 178.019C196.771 178.021 196.779 178.025 196.785 178.03C196.792 178.035 196.798 178.041 196.802 178.048C196.806 178.054 196.808 178.062 196.809 178.07C196.81 178.077 196.809 178.085 196.807 178.093C196.799 178.108 196.787 178.12 196.771 178.127C196.755 178.134 196.736 178.136 196.719 178.132Z" fill="white"/>
<path d="M240.222 156.084L238.53 159.082L238.804 159.207L240.496 156.209L240.222 156.084Z" fill="#455A64"/>
<path d="M237.093 155.85L236.831 155.995L238.481 158.392L238.742 158.247L237.093 155.85Z" fill="#455A64"/>
<path d="M238.93 155.583V162.812C238.926 162.832 238.917 162.85 238.904 162.867C238.891 162.883 238.873 162.896 238.853 162.905C238.797 162.93 238.735 162.943 238.672 162.943C238.609 162.943 238.547 162.93 238.491 162.905C238.471 162.896 238.455 162.883 238.442 162.866C238.43 162.85 238.422 162.831 238.419 162.812V155.583H238.93Z" fill="#455A64"/>
<path d="M245 153.332C245 153.996 244.781 154.645 244.371 155.198C243.96 155.75 243.377 156.18 242.695 156.434C242.013 156.688 241.262 156.754 240.538 156.624C239.814 156.494 239.149 156.174 238.627 155.704C238.105 155.234 237.75 154.635 237.607 153.984C237.463 153.332 237.538 152.657 237.821 152.044C238.105 151.43 238.584 150.906 239.198 150.538C239.813 150.169 240.535 149.973 241.273 149.974C241.763 149.974 242.248 150.061 242.701 150.23C243.153 150.399 243.564 150.646 243.91 150.958C244.256 151.27 244.531 151.64 244.718 152.047C244.905 152.455 245.001 152.891 245 153.332Z" fill="#BA68C8"/>
<path opacity="0.2" d="M242.47 152.473C242.947 151.11 243.463 150.577 243.139 150.409C242.521 150.094 241.816 149.944 241.107 149.978C240.398 150.011 239.714 150.225 239.135 150.596C238.557 150.967 238.108 151.478 237.841 152.07C237.575 152.663 237.501 153.311 237.63 153.939C237.759 154.568 238.084 155.15 238.568 155.618C239.052 156.085 239.674 156.419 240.362 156.58C241.049 156.741 241.773 156.722 242.449 156.525C243.125 156.328 243.724 155.962 244.177 155.47C243.046 155.761 241.817 154.24 242.47 152.473Z" fill="black"/>
<path d="M238.013 154.285C238.013 154.752 237.859 155.208 237.571 155.596C237.282 155.985 236.872 156.287 236.392 156.466C235.913 156.644 235.385 156.691 234.876 156.599C234.367 156.508 233.899 156.282 233.533 155.952C233.166 155.621 232.917 155.2 232.816 154.742C232.715 154.284 232.768 153.809 232.968 153.378C233.167 152.947 233.504 152.579 233.936 152.32C234.368 152.061 234.876 151.924 235.395 151.925C235.74 151.925 236.08 151.986 236.398 152.104C236.716 152.223 237.005 152.397 237.248 152.616C237.492 152.835 237.684 153.096 237.816 153.382C237.947 153.668 238.014 153.975 238.013 154.285Z" fill="#BA68C8"/>
<path opacity="0.2" d="M235.395 151.925C234.844 151.923 234.306 152.078 233.858 152.369C233.793 153.811 235.148 155.213 234.77 155.687C234.391 156.161 233.452 155.87 233.123 155.47C233.355 155.826 233.686 156.121 234.085 156.325C234.483 156.53 234.934 156.636 235.392 156.635C235.851 156.633 236.301 156.523 236.697 156.316C237.094 156.109 237.423 155.812 237.652 155.454C237.88 155.096 238 154.691 238 154.279C238 153.866 237.879 153.461 237.65 153.103C237.421 152.746 237.092 152.449 236.695 152.242C236.298 152.035 235.848 151.926 235.39 151.925H235.395Z" fill="black"/>
<path d="M238.672 156.067C241.33 156.067 243.485 154.129 243.485 151.737C243.485 149.346 241.33 147.407 238.672 147.407C236.013 147.407 233.859 149.346 233.859 151.737C233.859 154.129 236.013 156.067 238.672 156.067Z" fill="#BA68C8"/>
<path opacity="0.1" d="M243.353 152.729C243.17 153.428 242.795 154.075 242.264 154.611C241.733 155.148 241.062 155.556 240.311 155.801C239.56 156.045 238.754 156.118 237.964 156.011C237.174 155.905 236.427 155.624 235.788 155.193C235.15 154.761 234.641 154.194 234.307 153.541C233.973 152.889 233.826 152.172 233.877 151.455C233.928 150.738 234.177 150.045 234.602 149.436C235.026 148.828 235.612 148.324 236.306 147.97C235.9 148.186 235.53 148.453 235.209 148.765C234.971 149.689 235.079 150.658 235.514 151.523C235.95 152.387 236.689 153.098 237.618 153.548C238.547 153.997 239.615 154.158 240.656 154.008C241.697 153.857 242.655 153.403 243.381 152.715L243.353 152.729Z" fill="black"/>
<path d="M141.006 169.024L139.314 172.022L139.589 172.147L141.28 169.149L141.006 169.024Z" fill="#455A64"/>
<path d="M138.627 168.233L138.365 168.379L140.026 170.776L140.288 170.629L138.627 168.233Z" fill="#455A64"/>
<path d="M139.711 168.514V175.752C139.71 175.773 139.702 175.793 139.688 175.809C139.674 175.826 139.656 175.839 139.635 175.846C139.58 175.873 139.518 175.887 139.456 175.887C139.394 175.887 139.333 175.873 139.278 175.846C139.256 175.839 139.238 175.826 139.224 175.809C139.211 175.793 139.203 175.773 139.201 175.752V168.514H139.711Z" fill="#455A64"/>
<path d="M145.787 166.263C145.789 166.926 145.573 167.576 145.165 168.129C144.757 168.682 144.176 169.114 143.496 169.37C142.815 169.626 142.066 169.695 141.342 169.568C140.618 169.441 139.952 169.124 139.428 168.657C138.904 168.19 138.545 167.594 138.398 166.943C138.251 166.293 138.321 165.618 138.6 165.004C138.878 164.389 139.353 163.863 139.964 163.491C140.576 163.12 141.295 162.919 142.033 162.915C142.524 162.913 143.011 162.997 143.465 163.164C143.92 163.331 144.334 163.577 144.682 163.888C145.031 164.199 145.308 164.569 145.498 164.976C145.687 165.384 145.786 165.821 145.787 166.263Z" fill="#BA68C8"/>
<path opacity="0.2" d="M143.224 165.409C143.707 164.046 144.217 163.513 143.894 163.345C143.276 163.029 142.57 162.879 141.861 162.912C141.151 162.944 140.466 163.159 139.887 163.529C139.308 163.9 138.859 164.412 138.592 165.004C138.326 165.597 138.252 166.246 138.381 166.874C138.51 167.503 138.836 168.085 139.32 168.553C139.805 169.021 140.427 169.355 141.115 169.515C141.803 169.675 142.528 169.656 143.204 169.458C143.88 169.261 144.479 168.894 144.931 168.401C143.828 168.692 142.582 167.176 143.224 165.409Z" fill="black"/>
<path d="M138.8 167.216C138.8 167.683 138.646 168.139 138.358 168.527C138.07 168.915 137.66 169.218 137.181 169.396C136.701 169.575 136.174 169.622 135.665 169.531C135.156 169.439 134.689 169.215 134.322 168.885C133.955 168.555 133.705 168.134 133.604 167.676C133.503 167.218 133.555 166.744 133.753 166.313C133.952 165.881 134.288 165.513 134.719 165.253C135.151 164.994 135.658 164.856 136.177 164.856C136.873 164.856 137.54 165.104 138.032 165.547C138.524 165.99 138.8 166.59 138.8 167.216Z" fill="#BA68C8"/>
<path opacity="0.2" d="M136.177 164.856C135.627 164.856 135.092 165.012 134.646 165.3C134.574 166.742 135.935 168.149 135.551 168.618C135.167 169.087 134.234 168.801 133.905 168.401C134.136 168.759 134.468 169.056 134.867 169.262C135.266 169.469 135.719 169.577 136.179 169.576C136.639 169.575 137.091 169.465 137.489 169.258C137.888 169.05 138.218 168.752 138.448 168.393C138.677 168.034 138.798 167.627 138.797 167.212C138.796 166.798 138.675 166.392 138.444 166.033C138.213 165.675 137.882 165.377 137.483 165.171C137.084 164.964 136.632 164.855 136.171 164.856H136.177Z" fill="black"/>
<path d="M139.459 169.003C142.117 169.003 144.272 167.064 144.272 164.673C144.272 162.282 142.117 160.343 139.459 160.343C136.801 160.343 134.646 162.282 134.646 164.673C134.646 167.064 136.801 169.003 139.459 169.003Z" fill="#BA68C8"/>
<path opacity="0.1" d="M144.141 165.66C143.959 166.362 143.586 167.012 143.055 167.551C142.525 168.09 141.853 168.502 141.1 168.749C140.348 168.995 139.539 169.069 138.747 168.964C137.955 168.858 137.205 168.577 136.564 168.144C135.924 167.712 135.413 167.143 135.079 166.489C134.744 165.834 134.597 165.115 134.649 164.396C134.702 163.677 134.953 162.982 135.38 162.372C135.806 161.763 136.396 161.259 137.094 160.906C136.677 161.118 136.298 161.384 135.968 161.696C135.885 162.02 135.843 162.351 135.842 162.683C135.844 163.549 136.134 164.394 136.675 165.109C137.216 165.825 137.983 166.378 138.878 166.697C139.772 167.016 140.752 167.087 141.691 166.899C142.631 166.712 143.486 166.275 144.146 165.646L144.141 165.66Z" fill="black"/>
<path d="M0 161.306V158.99L86.9465 113.813L135.996 139.305V141.62L49.0439 186.807L0 161.306Z" fill="#BA68C8"/>
<path d="M0 158.99L49.0439 184.487L135.996 139.305L86.9465 113.813L0 158.99Z" fill="#BA68C8"/>
<path d="M104.778 134.673L84.7127 145.096L104.8 155.519L124.844 145.027L104.778 134.673Z" fill="#F0F0F0"/>
<path opacity="0.15" d="M0 158.99L49.0439 184.487V186.807L0 161.306V158.99Z" fill="black"/>
<path opacity="0.1" d="M49.0439 184.487L135.996 139.305V141.62L49.0439 186.807V184.487Z" fill="black"/>
<path d="M68.083 103.943L99.2953 87.7336L113.697 112.672L82.4844 128.887L68.083 103.943Z" fill="#455A64"/>
<path opacity="0.5" d="M68.083 103.943L99.2953 87.7336L113.697 112.672L82.4844 128.887L68.083 103.943Z" fill="#37474F"/>
<path d="M82.4845 146.252L109.24 132.358V116.148L82.4845 130.042V146.252Z" fill="#F0F0F0"/>
<path d="M84.7128 145.096V131.202L104.778 120.78V134.673L84.7128 145.096Z" fill="#455A64"/>
<path opacity="0.5" d="M84.7128 145.096V131.202L104.778 120.78V134.673L84.7128 145.096Z" fill="#37474F"/>
<path d="M104.778 120.78L104.57 120.888V134.565L104.778 134.668V120.78Z" fill="#263238"/>
<path d="M104.564 134.565L84.7128 144.884V145.096L104.778 134.673L104.564 134.565Z" fill="#37474F"/>
<path d="M101.535 111.996V104.491L96.7323 101.998L91.9464 109.453V116.983L101.535 111.996Z" fill="#F0F0F0"/>
<path d="M96.7322 101.998L102.66 105.074L103.417 104.684L96.7322 101.208V101.998Z" fill="#263238"/>
<path d="M91.9464 116.983L87.1551 109.508L84.7128 105.686L91.9464 109.453V116.983Z" fill="#E0E0E0"/>
<path opacity="0.4" d="M102.66 105.074H101.535V104.491L102.66 105.074Z" fill="black"/>
<path d="M90.8048 111.231L96.7322 101.998V101.208L90.0638 111.616L90.8048 111.231Z" fill="#BA68C8"/>
<path d="M90.8048 111.231L96.7322 101.998V101.208L90.0638 111.616L90.8048 111.231Z" fill="#37474F"/>
<path d="M90.0639 111.616L96.7323 101.208L89.8389 97.6232L83.1705 108.031L90.0639 111.616Z" fill="#BA68C8"/>
<path d="M90.0639 111.616L96.7323 101.208L89.8389 97.6232L83.1705 108.031L90.0639 111.616Z" fill="#263238"/>
<path d="M94.3448 108.248L99.1362 105.755V110.732L94.3448 113.225V108.248Z" fill="#455A64"/>
<path d="M98.6477 110.475V106.012L94.3448 108.248V112.712L98.6477 110.475Z" fill="#E0E0E0"/>
<path d="M99.1362 110.732L98.6477 110.475L94.3448 112.712V113.225L99.1362 110.732Z" fill="#37474F"/>
<path d="M113.697 112.672L82.4845 128.887V130.042L113.697 113.833V112.672Z" fill="#37474F"/>
<path d="M40.1253 140.465L26.7502 117.304L13.3751 126.571V158.99L40.1253 172.884V140.465Z" fill="#F0F0F0"/>
<path d="M22.2937 135.834L17.8317 133.518V140.46L22.2937 142.781V135.834Z" fill="#455A64"/>
<path d="M18.1884 140.277V133.701L22.2937 135.834V142.41L18.1884 140.277Z" fill="#FAFAFA"/>
<path d="M18.1884 133.701L22.2937 135.848V136.535L18.1884 134.402V133.701Z" fill="#E0E0E0"/>
<path d="M17.8317 140.46L18.1884 140.277L22.2937 142.41V142.78L17.8317 140.46Z" fill="#37474F"/>
<path d="M22.2937 139.492L17.8317 137.177V136.801L22.2937 139.122V139.492Z" fill="#455A64"/>
<path d="M35.6688 142.781L31.2068 140.465V147.412L35.6688 149.728V142.781Z" fill="#455A64"/>
<path d="M31.5635 147.224V140.648L35.6688 142.781V149.357L31.5635 147.224Z" fill="#FAFAFA"/>
<path d="M31.5635 140.648L35.6688 142.781V143.467L31.5635 141.349V140.648Z" fill="#E0E0E0"/>
<path d="M31.2068 147.412L31.5635 147.224L35.6688 149.357V149.727L31.2068 147.412Z" fill="#37474F"/>
<path d="M35.6688 146.34L31.2068 144.04V143.664L35.6688 145.965V146.34Z" fill="#455A64"/>
<path d="M22.2937 149.728L17.8317 147.412V154.359L22.2937 156.674V149.728Z" fill="#455A64"/>
<path d="M18.1884 154.171V147.599L22.2937 149.728V156.304L18.1884 154.171Z" fill="#FAFAFA"/>
<path d="M18.1884 147.599L22.2937 149.742V150.434L18.1884 148.301V147.599Z" fill="#E0E0E0"/>
<path d="M17.8317 154.359L18.1884 154.171L22.2937 156.304V156.674L17.8317 154.359Z" fill="#37474F"/>
<path d="M22.2937 153.391L17.8317 151.07V150.7L22.2937 153.016V153.391Z" fill="#455A64"/>
<path d="M35.6688 156.674L31.2068 154.359V161.306L35.6688 163.621V156.674Z" fill="#455A64"/>
<path d="M31.5635 161.123V154.546L35.6688 156.674V163.251L31.5635 161.123Z" fill="#FAFAFA"/>
<path d="M31.5635 154.546L35.6688 156.674V157.361L31.5635 155.248V154.546Z" fill="#E0E0E0"/>
<path d="M31.2068 161.306L31.5635 161.123L35.6688 163.251V163.621L31.2068 161.306Z" fill="#37474F"/>
<path d="M35.6688 160.234L31.2068 157.933V157.563L35.6688 159.859V160.234Z" fill="#455A64"/>
<path d="M82.4845 150.888L40.1254 172.884V140.465L82.4845 118.464V150.888Z" fill="#FAFAFA"/>
<path d="M58.7034 162.066V150.483L65.3882 147.012V158.59L58.7034 162.066Z" fill="#37474F"/>
<path d="M65.1796 158.447V147.121L58.7034 150.483V161.809L65.1796 158.447Z" fill="#455A64"/>
<path d="M65.3882 147.012L65.1797 147.12V158.447L65.3882 158.59V147.012Z" fill="#263238"/>
<path d="M67.9952 144.193L78.0279 138.984V148.567L67.9952 153.781V144.193Z" fill="#263238"/>
<path d="M77.4078 148.246V139.305L67.9952 144.193V153.139L77.4078 148.246Z" fill="#E6E6E6"/>
<path d="M77.4078 139.305V141.388L67.9952 146.281V144.193L77.4078 139.305Z" fill="#E0E0E0"/>
<path d="M78.0279 148.567L77.4078 148.246L67.9952 153.139V153.781L78.0279 148.567Z" fill="#37474F"/>
<path d="M78.0279 143.778L77.4078 143.452L67.9952 148.345V148.987L78.0279 143.778Z" fill="#37474F"/>
<path d="M73.2202 151.065L72.6 151.386V141.798L73.2202 141.477V151.065Z" fill="#37474F"/>
<path d="M44.5874 156.349L54.6146 151.14V160.728L44.5874 165.937V156.349Z" fill="#263238"/>
<path d="M53.9999 160.407V151.461L44.5874 156.349V165.295L53.9999 160.407Z" fill="#E6E6E6"/>
<path d="M53.9999 151.461V153.544L44.5874 158.437V156.349L53.9999 151.461Z" fill="#E0E0E0"/>
<path d="M54.6146 160.728L53.9999 160.407L44.5874 165.295V165.937L54.6146 160.728Z" fill="#37474F"/>
<path d="M54.6146 155.934L53.9999 155.613L44.5874 160.506V161.143L54.6146 155.934Z" fill="#37474F"/>
<path d="M49.8068 163.226L49.1921 163.547V153.959L49.8068 153.638V163.226Z" fill="#37474F"/>
<path d="M56.8209 133.795L66.8536 128.586V138.174L56.8209 143.383V133.795Z" fill="#263238"/>
<path d="M66.2389 137.853V128.906L56.8209 133.795V142.741L66.2389 137.853Z" fill="#E6E6E6"/>
<path d="M66.2389 128.906V129.825L56.8209 134.713V133.795L66.2389 128.906Z" fill="#E0E0E0"/>
<path d="M66.8536 138.174L66.2389 137.853L56.8209 142.741V143.383L66.8536 138.174Z" fill="#37474F"/>
<path d="M66.8536 133.38L66.2389 133.059L56.8209 137.952V138.589L66.8536 133.38Z" fill="#37474F"/>
<path d="M62.0458 140.672L61.4312 140.993V131.405L62.0458 131.084V140.672Z" fill="#37474F"/>
<path d="M46.8157 142.252L51.0088 140.09V145.644L46.8157 147.807V142.252Z" fill="#455A64"/>
<path d="M50.652 145.462V140.272L46.8157 142.252V147.436L50.652 145.462Z" fill="#E0E0E0"/>
<path d="M51.0088 145.644L50.652 145.462L46.8157 147.437V147.807L51.0088 145.644Z" fill="#37474F"/>
<path d="M46.8157 145.027L51.0088 142.864V142.494L46.8157 144.657V145.027Z" fill="#455A64"/>
<path d="M71.6066 129.361L75.7942 127.198V132.758L71.6066 134.92V129.361Z" fill="#455A64"/>
<path d="M75.4374 132.57V127.386L71.6066 129.361V134.545L75.4374 132.57Z" fill="#E0E0E0"/>
<path d="M75.7942 132.758L75.4374 132.57L71.6066 134.545V134.92L75.7942 132.758Z" fill="#37474F"/>
<path d="M71.6066 132.14L75.7942 129.978V129.603L71.6066 131.765V132.14Z" fill="#455A64"/>
<path d="M24.522 119.851L38.9618 144.77L84.7127 121.012L70.3113 96.0679L24.522 119.851Z" fill="#455A64"/>
<path d="M24.522 118.464L38.9618 143.383L84.7127 119.619L70.3113 94.6805L24.522 118.464Z" fill="#455A64"/>
<path d="M24.522 118.464V119.851L38.9618 144.77V143.383L24.522 118.464Z" fill="#263238"/>
<path d="M38.9618 143.383L84.7127 119.619V121.012L38.9618 144.77V143.383Z" fill="#37474F"/>
<path d="M11.1469 129.119L24.522 119.851V118.464L11.1469 127.727V129.119Z" fill="#263238"/>
<path d="M24.522 119.851L11.1469 129.119L13.3751 127.884L24.522 120.167L24.6537 120.078L24.522 119.851Z" fill="black"/>
<path d="M50.3776 138.841L72.6712 127.262L61.5244 123.786L50.3776 138.841Z" fill="#FAFAFA"/>
<path d="M50.3776 137.448L43.6927 113.132L61.5244 122.399L50.3776 137.448Z" fill="#263238"/>
<path d="M61.5244 123.786V122.399L50.3776 137.448V138.841L61.5244 123.786Z" fill="#37474F"/>
<path d="M72.6713 127.262V125.87L61.5244 122.399V123.786L72.6713 127.262Z" fill="#263238"/>
<path d="M72.6712 125.87L43.6927 113.132L61.5244 122.399L72.6712 125.87Z" fill="#37474F"/>
<path d="M40.1254 171.729L49.0439 176.36L91.403 154.359L82.4845 149.728L40.1254 171.729Z" fill="#E6E6E6"/>
<path d="M40.1254 171.729V172.884L49.0439 177.52V176.36L40.1254 171.729Z" fill="#F0F0F0"/>
<path d="M91.403 154.359V155.519L49.0439 177.52V176.36L91.403 154.359Z" fill="#FAFAFA"/>
<path d="M49.6586 157.415V174.735C49.6536 174.784 49.6341 174.831 49.6023 174.871C49.5705 174.911 49.5274 174.942 49.4775 174.962C49.3429 175.023 49.1945 175.055 49.0439 175.055C48.8933 175.055 48.7449 175.023 48.6103 174.962C48.5604 174.942 48.5173 174.911 48.4855 174.871C48.4537 174.831 48.4342 174.784 48.4292 174.735V157.415H49.6586Z" fill="#37474F"/>
<path d="M89.1747 136.9V154.225C89.1693 154.274 89.1496 154.32 89.1178 154.359C89.0859 154.398 89.0431 154.428 88.9936 154.448C88.859 154.508 88.7106 154.54 88.56 154.54C88.4095 154.54 88.261 154.508 88.1264 154.448C88.077 154.428 88.0341 154.398 88.0022 154.359C87.9704 154.32 87.9507 154.274 87.9453 154.225V136.9H89.1747Z" fill="#37474F"/>
<path d="M40.1254 154.359L49.0439 158.99L91.403 136.989L82.4845 132.358L40.1254 154.359Z" fill="#455A64"/>
<path d="M40.1254 154.359V155.519L49.0439 160.15V158.99L40.1254 154.359Z" fill="#37474F"/>
<path d="M91.403 136.989V138.149L49.0439 160.15V158.99L91.403 136.989Z" fill="#263238"/>
<path d="M130.638 131.272L128.947 134.27L129.221 134.395L130.912 131.397L130.638 131.272Z" fill="#455A64"/>
<path d="M127.513 131.034L127.252 131.179L128.902 133.576L129.163 133.431L127.513 131.034Z" fill="#455A64"/>
<path d="M129.344 130.763V137.991C129.342 138.012 129.333 138.031 129.32 138.048C129.306 138.064 129.288 138.077 129.267 138.085C129.211 138.112 129.149 138.126 129.086 138.126C129.023 138.126 128.961 138.112 128.905 138.085C128.884 138.077 128.867 138.064 128.854 138.047C128.842 138.031 128.835 138.011 128.833 137.991V130.763H129.344Z" fill="#455A64"/>
<path d="M135.447 128.516C135.447 129.18 135.228 129.83 134.818 130.382C134.408 130.934 133.825 131.364 133.143 131.618C132.461 131.872 131.711 131.939 130.987 131.809C130.263 131.68 129.598 131.36 129.076 130.89C128.554 130.421 128.199 129.823 128.055 129.171C127.91 128.52 127.984 127.845 128.267 127.232C128.549 126.618 129.028 126.094 129.641 125.725C130.255 125.356 130.977 125.159 131.715 125.159C132.705 125.159 133.654 125.513 134.354 126.142C135.054 126.772 135.447 127.626 135.447 128.516Z" fill="#BA68C8"/>
<path opacity="0.2" d="M132.857 127.657C133.34 126.295 133.85 125.761 133.526 125.594C132.908 125.278 132.203 125.128 131.493 125.16C130.783 125.193 130.099 125.407 129.52 125.778C128.941 126.149 128.492 126.66 128.225 127.253C127.958 127.845 127.885 128.494 128.014 129.123C128.143 129.751 128.469 130.334 128.953 130.802C129.437 131.27 130.06 131.603 130.748 131.764C131.436 131.924 132.16 131.904 132.836 131.707C133.512 131.509 134.111 131.143 134.563 130.649C133.46 130.941 132.231 129.425 132.857 127.657Z" fill="black"/>
<path d="M128.433 129.464C128.433 129.931 128.279 130.388 127.991 130.776C127.703 131.164 127.293 131.466 126.813 131.645C126.334 131.823 125.807 131.87 125.298 131.779C124.789 131.688 124.321 131.463 123.954 131.133C123.588 130.803 123.338 130.383 123.236 129.925C123.135 129.467 123.187 128.993 123.386 128.561C123.584 128.13 123.921 127.761 124.352 127.502C124.783 127.243 125.291 127.104 125.809 127.104C126.505 127.104 127.173 127.353 127.665 127.796C128.157 128.238 128.433 128.839 128.433 129.464Z" fill="#BA68C8"/>
<path opacity="0.2" d="M125.809 127.104C125.26 127.105 124.724 127.26 124.278 127.549C124.207 128.99 125.568 130.398 125.184 130.872C124.8 131.346 123.867 131.049 123.537 130.649C123.768 131.008 124.1 131.305 124.499 131.511C124.898 131.717 125.351 131.825 125.811 131.825C126.272 131.824 126.724 131.714 127.122 131.506C127.52 131.298 127.851 131 128.08 130.641C128.31 130.282 128.43 129.875 128.429 129.461C128.429 129.047 128.307 128.64 128.076 128.282C127.846 127.924 127.514 127.626 127.115 127.419C126.717 127.213 126.264 127.104 125.804 127.104H125.809Z" fill="black"/>
<path d="M129.086 131.252C131.744 131.252 133.899 129.313 133.899 126.922C133.899 124.53 131.744 122.592 129.086 122.592C126.428 122.592 124.273 124.53 124.273 126.922C124.273 129.313 126.428 131.252 129.086 131.252Z" fill="#BA68C8"/>
<path opacity="0.1" d="M133.8 127.909C133.619 128.61 133.246 129.259 132.715 129.798C132.184 130.337 131.512 130.748 130.76 130.994C130.008 131.241 129.2 131.315 128.408 131.209C127.617 131.104 126.867 130.823 126.226 130.391C125.586 129.959 125.075 129.391 124.741 128.737C124.406 128.083 124.258 127.364 124.31 126.646C124.362 125.927 124.612 125.232 125.037 124.622C125.463 124.013 126.051 123.508 126.748 123.154C126.33 123.367 125.951 123.635 125.623 123.949C125.384 124.875 125.49 125.846 125.925 126.711C126.361 127.577 127.101 128.29 128.031 128.74C128.962 129.189 130.031 129.35 131.074 129.199C132.117 129.047 133.075 128.59 133.8 127.899V127.909Z" fill="black"/>
<path d="M9.79931 150.643L8.10773 153.641L8.38179 153.766L10.0734 150.768L9.79931 150.643Z" fill="#455A64"/>
<path d="M7.36818 150.296L7.10693 150.443L8.76787 152.839L9.02912 152.693L7.36818 150.296Z" fill="#455A64"/>
<path d="M8.49588 150.132V157.361C8.49369 157.381 8.48539 157.401 8.47186 157.417C8.45833 157.434 8.44008 157.447 8.41905 157.454C8.36333 157.481 8.30112 157.495 8.23793 157.495C8.17475 157.495 8.11254 157.481 8.05682 157.454C8.03578 157.447 8.01753 157.434 8.004 157.417C7.99048 157.401 7.98217 157.381 7.97998 157.361V150.132H8.49588Z" fill="#455A64"/>
<path d="M14.566 147.886C14.566 148.55 14.3471 149.199 13.9371 149.751C13.527 150.303 12.9441 150.734 12.2622 150.988C11.5802 151.242 10.8298 151.308 10.1059 151.179C9.3819 151.049 8.71691 150.729 8.19497 150.26C7.67303 149.79 7.31758 149.192 7.17358 148.541C7.02958 147.89 7.10348 147.215 7.38596 146.601C7.66843 145.988 8.14678 145.463 8.76052 145.094C9.37425 144.725 10.0958 144.528 10.8339 144.528C11.8238 144.528 12.773 144.882 13.4729 145.512C14.1728 146.141 14.566 146.995 14.566 147.886Z" fill="#BA68C8"/>
<path opacity="0.2" d="M12.0084 147.027C12.4859 145.664 13.0018 145.131 12.6725 144.963C12.1745 144.71 11.6184 144.563 11.0473 144.534C10.4762 144.505 9.90524 144.594 9.37863 144.795C8.85203 144.996 8.38384 145.303 8.01024 145.693C7.63664 146.083 7.36762 146.545 7.22396 147.043C7.08031 147.541 7.06587 148.062 7.18175 148.566C7.29764 149.07 7.54075 149.543 7.8923 149.949C8.24386 150.355 8.69445 150.683 9.20926 150.907C9.72408 151.132 10.2893 151.247 10.8614 151.243C11.4118 151.243 11.9554 151.134 12.4534 150.923C12.9515 150.712 13.3917 150.405 13.7428 150.024C12.6067 150.31 11.4102 148.794 12.0084 147.027Z" fill="black"/>
<path d="M7.5684 148.834C7.5684 149.301 7.41454 149.757 7.12627 150.145C6.838 150.533 6.42828 150.836 5.94891 151.014C5.46954 151.193 4.94206 151.24 4.43316 151.149C3.92426 151.057 3.45681 150.833 3.08992 150.503C2.72303 150.173 2.47317 149.752 2.37194 149.294C2.27072 148.836 2.32267 148.362 2.52123 147.931C2.71979 147.499 3.05604 147.131 3.48746 146.871C3.91889 146.612 4.4261 146.474 4.94497 146.474C5.64074 146.474 6.30802 146.722 6.80001 147.165C7.292 147.608 7.5684 148.208 7.5684 148.834Z" fill="#BA68C8"/>
<path opacity="0.2" d="M4.9559 146.474C4.40556 146.474 3.86955 146.632 3.42465 146.923C3.3533 148.365 4.71441 149.767 4.33571 150.241C3.95702 150.715 3.01851 150.424 2.68921 150.024C2.92121 150.381 3.25366 150.678 3.65319 150.883C4.05271 151.088 4.50526 151.196 4.96541 151.194C5.42556 151.192 5.87713 151.082 6.2748 150.873C6.67246 150.665 7.00223 150.366 7.23101 150.007C7.45979 149.648 7.57953 149.241 7.57821 148.827C7.5769 148.413 7.45457 148.007 7.22351 147.649C6.99246 147.291 6.66079 146.994 6.26181 146.787C5.86283 146.581 5.41056 146.473 4.95041 146.474H4.9559Z" fill="black"/>
<path d="M8.23797 150.621C10.8963 150.621 13.0513 148.682 13.0513 146.291C13.0513 143.9 10.8963 141.961 8.23797 141.961C5.57966 141.961 3.42468 143.9 3.42468 146.291C3.42468 148.682 5.57966 150.621 8.23797 150.621Z" fill="#BA68C8"/>
<path opacity="0.1" d="M12.9195 147.278C12.7383 147.98 12.3653 148.63 11.8345 149.169C11.3036 149.708 10.6316 150.12 9.87929 150.367C9.127 150.613 8.31819 150.687 7.52613 150.582C6.73407 150.476 5.98378 150.195 5.34322 149.762C4.70266 149.33 4.19207 148.761 3.8577 148.107C3.52333 147.452 3.37573 146.733 3.42829 146.014C3.48084 145.295 3.73188 144.6 4.15868 143.99C4.58547 143.381 5.17453 142.877 5.8725 142.524C5.45436 142.738 5.07342 143.005 4.7419 143.319C4.50263 144.244 4.60889 145.215 5.04423 146.081C5.47957 146.947 6.21978 147.659 7.15045 148.109C8.08113 148.559 9.15047 148.72 10.1932 148.568C11.236 148.416 12.1941 147.959 12.9195 147.269V147.278Z" fill="black"/>
<path d="M110.53 132.486L111.485 131.992C111.746 130.605 111.783 129.192 111.595 127.795C111.117 125.065 109.054 124.122 108.302 124.394C107.55 124.665 107.374 125.475 108.73 127.05C109.959 128.643 110.589 130.548 110.53 132.486Z" fill="#BA68C8"/>
<g opacity="0.2">
<path opacity="0.2" d="M110.53 132.486L111.485 131.992C111.746 130.605 111.783 129.192 111.595 127.795C111.117 125.065 109.054 124.122 108.302 124.394C107.55 124.665 107.374 125.475 108.73 127.05C109.959 128.643 110.589 130.548 110.53 132.486Z" fill="black"/>
</g>
<path d="M110.876 131.405C110.867 131.404 110.859 131.401 110.851 131.397C110.844 131.393 110.837 131.387 110.832 131.381C110.827 131.374 110.823 131.367 110.821 131.359C110.819 131.351 110.819 131.343 110.821 131.336C111.211 128.778 110.069 125.979 108.785 124.853C108.774 124.84 108.768 124.824 108.768 124.808C108.768 124.792 108.774 124.777 108.785 124.764C108.798 124.752 108.816 124.746 108.834 124.746C108.852 124.746 108.87 124.752 108.883 124.764C110.19 125.914 111.353 128.758 110.953 131.35C110.952 131.359 110.949 131.367 110.945 131.374C110.941 131.381 110.935 131.388 110.928 131.393C110.92 131.398 110.912 131.402 110.903 131.404C110.894 131.406 110.885 131.406 110.876 131.405Z" fill="white"/>
<path d="M107.896 133.859C107.747 133.933 107.44 133.765 107.319 133.696C107.116 133.571 106.951 133.401 106.842 133.202C106.719 132.977 106.679 132.723 106.726 132.476C106.749 132.346 106.782 132.217 106.825 132.091L106.946 131.716C106.993 131.595 107.013 131.468 107.006 131.341C106.925 131.091 106.741 130.879 106.49 130.748C106.342 130.679 106.215 130.579 106.119 130.456C106.024 130.333 105.963 130.191 105.942 130.042C105.962 129.804 106.068 129.579 106.244 129.4C106.408 129.213 106.606 129.05 106.754 128.852C106.871 128.71 106.931 128.536 106.924 128.358C106.908 128.252 106.869 128.15 106.809 128.057C106.671 127.867 106.55 127.667 106.447 127.46C106.394 127.354 106.377 127.237 106.398 127.123C106.418 127.009 106.475 126.903 106.562 126.818C106.645 126.762 106.74 126.723 106.841 126.7C106.942 126.678 107.047 126.675 107.149 126.69C107.344 126.71 107.531 126.769 107.698 126.862C108.247 127.134 108.554 127.712 109.13 127.924C109.359 127.988 109.592 128.039 109.827 128.077C109.941 128.1 110.047 128.144 110.142 128.205C110.236 128.266 110.316 128.343 110.376 128.432C110.585 128.813 110.195 129.282 110.343 129.687C110.491 130.091 110.859 130.18 111.079 130.501C111.166 130.644 111.2 130.808 111.178 130.97C111.16 131.244 111.086 131.512 110.958 131.76C110.818 132.008 110.657 132.246 110.475 132.471C110.475 132.471 107.923 133.844 107.896 133.859Z" fill="#BA68C8"/>
<g opacity="0.1">
<path opacity="0.1" d="M107.896 133.859C107.747 133.933 107.44 133.765 107.319 133.696C107.116 133.571 106.951 133.401 106.842 133.202C106.719 132.977 106.679 132.723 106.726 132.476C106.749 132.346 106.782 132.217 106.825 132.091L106.946 131.716C106.993 131.595 107.013 131.468 107.006 131.341C106.925 131.091 106.741 130.879 106.49 130.748C106.342 130.679 106.215 130.579 106.119 130.456C106.024 130.333 105.963 130.191 105.942 130.042C105.962 129.804 106.068 129.579 106.244 129.4C106.408 129.213 106.606 129.05 106.754 128.852C106.871 128.71 106.931 128.536 106.924 128.358C106.908 128.252 106.869 128.15 106.809 128.057C106.671 127.867 106.55 127.667 106.447 127.46C106.394 127.354 106.377 127.237 106.398 127.123C106.418 127.009 106.475 126.903 106.562 126.818C106.645 126.762 106.74 126.723 106.841 126.7C106.942 126.678 107.047 126.675 107.149 126.69C107.344 126.71 107.531 126.769 107.698 126.862C108.247 127.134 108.554 127.712 109.13 127.924C109.359 127.988 109.592 128.039 109.827 128.077C109.941 128.1 110.047 128.144 110.142 128.205C110.236 128.266 110.316 128.343 110.376 128.432C110.585 128.813 110.195 129.282 110.343 129.687C110.491 130.091 110.859 130.18 111.079 130.501C111.166 130.644 111.2 130.808 111.178 130.97C111.16 131.244 111.086 131.512 110.958 131.76C110.818 132.008 110.657 132.246 110.475 132.471C110.475 132.471 107.923 133.844 107.896 133.859Z" fill="black"/>
</g>
<path d="M109.438 133.118C109.429 133.118 109.419 133.116 109.411 133.113C109.403 133.11 109.395 133.105 109.389 133.099C109.383 133.093 109.378 133.086 109.375 133.078C109.372 133.07 109.371 133.062 109.372 133.054C109.482 130.635 108.214 127.968 107.297 127.188C107.291 127.183 107.286 127.176 107.283 127.169C107.28 127.162 107.278 127.154 107.278 127.146C107.278 127.138 107.28 127.131 107.283 127.124C107.286 127.116 107.291 127.11 107.297 127.104C107.311 127.094 107.329 127.088 107.347 127.088C107.365 127.088 107.382 127.094 107.396 127.104C108.335 127.899 109.624 130.61 109.515 133.064C109.512 133.08 109.502 133.095 109.488 133.105C109.474 133.115 109.456 133.119 109.438 133.118Z" fill="white"/>
<path d="M109.037 130.259C108.401 130.103 107.747 130.007 107.089 129.973C107.08 129.973 107.071 129.971 107.063 129.968C107.055 129.965 107.048 129.961 107.042 129.956C107.036 129.95 107.031 129.944 107.028 129.936C107.025 129.929 107.023 129.922 107.023 129.914C107.022 129.905 107.023 129.897 107.026 129.889C107.03 129.881 107.035 129.874 107.042 129.868C107.049 129.862 107.057 129.858 107.066 129.856C107.075 129.853 107.085 129.853 107.094 129.854C107.764 129.886 108.428 129.982 109.075 130.141C109.094 130.145 109.109 130.156 109.118 130.171C109.128 130.186 109.13 130.203 109.125 130.22C109.119 130.235 109.106 130.248 109.09 130.255C109.073 130.263 109.055 130.264 109.037 130.259Z" fill="white"/>
<path d="M129.481 80.0017V77.686L187.438 47.5828L234.265 71.8994V74.215L176.297 104.318L129.481 80.0017Z" fill="#BA68C8"/>
<path d="M129.481 77.686L176.297 102.003L234.265 71.8994L187.438 47.5828L129.481 77.686Z" fill="#BA68C8"/>
<path opacity="0.15" d="M129.481 77.686L176.297 102.003V104.318L129.481 80.0017V77.686Z" fill="black"/>
<path opacity="0.1" d="M176.297 102.003L234.265 71.8994V74.2151L176.297 104.318V102.003Z" fill="black"/>
<path d="M169.607 59.161L156.231 36.0046L142.856 45.2672L142.851 77.6762L169.607 91.57V59.161Z" fill="#EBEBEB"/>
<path d="M151.769 54.5297L147.313 52.2141V59.161L151.769 61.4767V54.5297Z" fill="#455A64"/>
<path d="M147.67 58.9733V52.3967L151.769 54.5297V61.1063L147.67 58.9733Z" fill="#FAFAFA"/>
<path d="M147.67 52.3967L151.769 54.5445V55.2357L147.67 53.1028V52.3967Z" fill="#E0E0E0"/>
<path d="M147.313 59.161L147.67 58.9734L151.769 61.1063V61.4766L147.313 59.161Z" fill="#37474F"/>
<path d="M151.769 58.1932L147.313 55.8727V55.4974L151.769 57.818V58.1932Z" fill="#455A64"/>
<path d="M165.15 61.4766L160.688 59.161V66.1079L165.15 68.4235V61.4766Z" fill="#455A64"/>
<path d="M161.045 65.9252V59.3486L165.15 61.4766V68.0532L161.045 65.9252Z" fill="#FAFAFA"/>
<path d="M161.045 59.3486L165.15 61.4766V62.1629L161.045 60.0497V59.3486Z" fill="#E0E0E0"/>
<path d="M160.688 66.108L161.045 65.9253L165.15 68.0533V68.4236L160.688 66.108Z" fill="#37474F"/>
<path d="M165.15 65.0365L160.688 62.7357V62.3605L165.15 64.6613V65.0365Z" fill="#455A64"/>
<path d="M151.769 68.4285L147.313 66.1079V73.0548L151.769 75.3705V68.4285Z" fill="#455A64"/>
<path d="M147.67 72.8672V66.2955L151.769 68.4285V75.0002L147.67 72.8672Z" fill="#FAFAFA"/>
<path d="M147.67 66.2955L151.769 68.4433V69.1296L147.67 66.9966V66.2955Z" fill="#E0E0E0"/>
<path d="M147.313 73.0548L147.67 72.8672L151.769 75.0001V75.3704L147.313 73.0548Z" fill="#37474F"/>
<path d="M151.769 72.0871L147.313 69.7665V69.3962L151.769 71.7119V72.0871Z" fill="#455A64"/>
<path d="M165.15 75.3704L160.688 73.0548V80.0017L165.15 82.3173V75.3704Z" fill="#455A64"/>
<path d="M161.045 79.819V73.2424L165.15 75.3704V81.947L161.045 79.819Z" fill="#FAFAFA"/>
<path d="M161.045 73.2424L165.15 75.3704V76.0617L161.045 73.9435V73.2424Z" fill="#E0E0E0"/>
<path d="M160.688 80.0018L161.045 79.8191L165.15 81.9471V82.3174L160.688 80.0018Z" fill="#37474F"/>
<path d="M165.15 78.9303L160.688 76.6295V76.2592L165.15 78.56V78.9303Z" fill="#455A64"/>
<path d="M211.966 69.569L169.607 91.5701V59.161L211.966 37.16V69.569Z" fill="#FAFAFA"/>
<path d="M169.607 65.0365L211.966 42.9516V37.16L169.607 59.161V65.0365Z" fill="#F0F0F0"/>
<path d="M175.177 76.437L185.21 71.2231V78.8366L175.177 84.0455V76.437Z" fill="#263238"/>
<path d="M184.595 78.5155V71.5439L175.177 76.4369V83.4036L184.595 78.5155Z" fill="#E6E6E6"/>
<path d="M184.595 71.5439V73.198L175.177 78.086V76.4369L184.595 71.5439Z" fill="#E0E0E0"/>
<path d="M185.21 78.8366L184.595 78.5156L175.177 83.4036V84.0455L185.21 78.8366Z" fill="#37474F"/>
<path d="M185.21 75.0298L184.595 74.7089L175.177 79.6018V80.2437L185.21 75.0298Z" fill="#37474F"/>
<path d="M180.402 81.3349L179.787 81.6558V74.0424L180.402 73.7214V81.3349Z" fill="#37474F"/>
<path d="M175.177 64.8341L185.21 59.6251V67.2336L175.177 72.4475V64.8341Z" fill="#263238"/>
<path d="M184.595 66.9127V59.946L175.177 64.8341V71.8057L184.595 66.9127Z" fill="#E6E6E6"/>
<path d="M184.595 59.946V61.5951L175.177 66.4881V64.8341L184.595 59.946Z" fill="#E0E0E0"/>
<path d="M185.21 67.2337L184.595 66.9127L175.177 71.8057V72.4475L185.21 67.2337Z" fill="#37474F"/>
<path d="M185.21 63.4319L184.595 63.111L175.177 67.999V68.6408L185.21 63.4319Z" fill="#37474F"/>
<path d="M180.402 69.7319L179.787 70.0529V62.4394L180.402 62.1234V69.7319Z" fill="#37474F"/>
<path d="M154.003 38.5473L168.443 63.4712L214.194 39.7076L199.792 14.7639L154.003 38.5473Z" fill="#455A64"/>
<path d="M154.003 37.16L168.443 62.0839L214.194 38.3203L199.792 13.3766L154.003 37.16Z" fill="#455A64"/>
<path d="M154.003 37.16V38.5474L168.443 63.4714V62.084L154.003 37.16Z" fill="#263238"/>
<path d="M168.443 62.084L214.194 38.3203V39.7077L168.443 63.4714V62.084Z" fill="#37474F"/>
<path d="M140.623 47.8149L154.003 38.5474V37.16L140.623 46.4226V47.8149Z" fill="#263238"/>
<path d="M154.003 38.5474L140.623 47.8148L142.851 46.5805L154.003 38.8634L154.129 38.7745L154.003 38.5474Z" fill="black"/>
<path d="M191.9 79.9918L198.591 83.4628V61.7136L191.9 58.2377V79.9918Z" fill="#E0E0E0"/>
<path d="M198.591 83.4628L220.884 71.8847V49.4442L198.591 61.0224V83.4628Z" fill="#FAFAFA"/>
<path d="M198.591 61.7433L220.884 50.3775L209.737 46.9065L198.591 61.7433Z" fill="#FAFAFA"/>
<path d="M209.737 46.9065V45.5142L197.723 61.5113V62.8938L209.737 46.9065Z" fill="#263238"/>
<path d="M209.737 45.5142L203.909 42.4875L191.9 58.4847L197.723 61.5113L209.737 45.5142Z" fill="#37474F"/>
<path d="M197.723 61.5111L191.9 58.4845V59.8719L197.723 62.8936V61.5111Z" fill="#263238"/>
<path d="M223.113 51.0737V49.6813L209.737 45.5142V46.9065L223.113 51.0737Z" fill="#37474F"/>
<path d="M223.112 49.6813L213.382 45.4944L203.909 42.4875L209.737 45.5142L223.112 49.6813Z" fill="#37474F"/>
<path d="M223.112 49.6813L213.382 45.4944L203.909 42.4875L209.737 45.5142L223.112 49.6813Z" fill="#263238"/>
<path d="M202.251 81.562V68.789L208.942 65.318V78.0861L202.251 81.562Z" fill="#37474F"/>
<path d="M208.727 77.9429V65.4266L202.251 68.789V81.3102L208.727 77.9429Z" fill="#455A64"/>
<path d="M208.942 65.318L208.728 65.4266V77.9429L208.942 78.0861V65.318Z" fill="#263238"/>
<path d="M213.667 64.0589L217.855 61.8964V67.4559L213.667 69.6184V64.0589Z" fill="#455A64"/>
<path d="M217.498 67.2681V62.0839L213.667 64.0588V69.248L217.498 67.2681Z" fill="#E0E0E0"/>
<path d="M217.855 67.4558L217.498 67.2682L213.667 69.2481V69.6184L217.855 67.4558Z" fill="#37474F"/>
<path d="M213.667 66.8385L217.855 64.676V64.3057L213.667 66.4682V66.8385Z" fill="#455A64"/>
<path d="M204.721 56.4702L214.754 51.2612V58.8697L204.721 64.0787V56.4702Z" fill="#263238"/>
<path d="M214.133 58.5487V51.5771L204.721 56.4701V63.4417L214.133 58.5487Z" fill="#E6E6E6"/>
<path d="M214.133 51.5771V53.2312L204.721 58.1241V56.4701L214.133 51.5771Z" fill="#E0E0E0"/>
<path d="M214.754 58.8698L214.133 58.5488L204.721 63.4418V64.0787L214.754 58.8698Z" fill="#37474F"/>
<path d="M214.754 55.063L214.133 54.7421L204.721 59.635V60.2769L214.754 55.063Z" fill="#37474F"/>
<path d="M209.946 61.3681L209.326 61.689V54.0756L209.946 53.7546V61.3681Z" fill="#37474F"/>
<path d="M202.235 81.552L208.925 78.0811L215.643 81.552L208.925 85.0428L202.235 81.552Z" fill="#F0F0F0"/>
<path d="M166.341 91.0861L165.391 90.5924C165.13 89.2056 165.091 87.7923 165.276 86.3956C165.754 83.6652 167.817 82.7222 168.569 82.9937C169.321 83.2653 169.497 84.075 168.141 85.65C166.912 87.2431 166.281 89.1478 166.341 91.0861Z" fill="#BA68C8"/>
<g opacity="0.2">
<path opacity="0.2" d="M166.341 91.0861L165.391 90.5924C165.13 89.2056 165.091 87.7923 165.276 86.3956C165.754 83.6652 167.817 82.7222 168.569 82.9937C169.321 83.2653 169.497 84.075 168.141 85.65C166.912 87.2431 166.281 89.1478 166.341 91.0861Z" fill="black"/>
</g>
<path d="M165.995 90.005C166.012 90.0014 166.027 89.9925 166.037 89.9797C166.047 89.967 166.052 89.9514 166.05 89.9358C165.66 87.3783 166.802 84.5788 168.086 83.4531C168.097 83.4402 168.103 83.4246 168.103 83.4086C168.103 83.3926 168.097 83.377 168.086 83.3642C168.073 83.3527 168.055 83.3463 168.037 83.3463C168.018 83.3463 168.001 83.3527 167.988 83.3642C166.681 84.5146 165.518 87.3585 165.918 89.9507C165.921 89.9668 165.931 89.9814 165.945 89.9915C165.959 90.0016 165.977 90.0064 165.995 90.005Z" fill="white"/>
<path d="M168.975 92.4588C169.123 92.5329 169.431 92.365 169.552 92.2909C169.757 92.1675 169.921 91.997 170.029 91.7972C170.151 91.5721 170.193 91.3188 170.15 91.0714C170.123 90.9413 170.089 90.8127 170.046 90.6863L169.925 90.311C169.878 90.2196 169.853 90.1203 169.851 90.0196C169.849 89.9188 169.87 89.8188 169.914 89.726C169.957 89.6331 170.021 89.5493 170.103 89.48C170.184 89.4108 170.28 89.3575 170.386 89.3236C170.527 89.2501 170.647 89.148 170.737 89.0254C170.826 88.9029 170.883 88.7632 170.902 88.6175C170.882 88.3796 170.776 88.154 170.6 87.9757C170.435 87.788 170.238 87.6202 170.089 87.4276C169.972 87.2852 169.912 87.1111 169.919 86.9339C169.935 86.8276 169.974 86.7252 170.035 86.6327C170.173 86.4412 170.295 86.2397 170.397 86.0303C170.449 85.9256 170.466 85.8095 170.445 85.6964C170.425 85.5832 170.368 85.4779 170.282 85.3934C170.198 85.3379 170.103 85.298 170.002 85.2759C169.901 85.2539 169.797 85.2502 169.694 85.265C169.499 85.2859 169.312 85.3449 169.145 85.4378C168.597 85.7094 168.295 86.2871 167.713 86.4994C167.493 86.5784 167.246 86.5932 167.016 86.6524C166.902 86.6748 166.795 86.7179 166.701 86.779C166.606 86.8402 166.527 86.9181 166.467 87.0079C166.259 87.3881 166.648 87.8572 166.5 88.2571C166.352 88.657 165.984 88.7508 165.765 89.0767C165.677 89.2195 165.642 89.3839 165.666 89.5457C165.683 89.8191 165.758 90.0871 165.885 90.3357C166.025 90.5838 166.187 90.8215 166.368 91.0467C166.368 91.0467 168.953 92.444 168.975 92.4588Z" fill="#BA68C8"/>
<g opacity="0.1">
<path opacity="0.1" d="M168.975 92.4588C169.123 92.5329 169.431 92.365 169.552 92.2909C169.757 92.1675 169.921 91.997 170.029 91.7972C170.151 91.5721 170.193 91.3188 170.15 91.0714C170.123 90.9413 170.089 90.8127 170.046 90.6863L169.925 90.311C169.878 90.2196 169.853 90.1203 169.851 90.0196C169.849 89.9188 169.87 89.8188 169.914 89.726C169.957 89.6331 170.021 89.5493 170.103 89.48C170.184 89.4108 170.28 89.3575 170.386 89.3236C170.527 89.2501 170.647 89.148 170.737 89.0254C170.826 88.9029 170.883 88.7632 170.902 88.6175C170.882 88.3796 170.776 88.154 170.6 87.9757C170.435 87.788 170.238 87.6202 170.089 87.4276C169.972 87.2852 169.912 87.1111 169.919 86.9339C169.935 86.8276 169.974 86.7252 170.035 86.6327C170.173 86.4412 170.295 86.2397 170.397 86.0303C170.449 85.9256 170.466 85.8095 170.445 85.6964C170.425 85.5832 170.368 85.4779 170.282 85.3934C170.198 85.3379 170.103 85.298 170.002 85.2759C169.901 85.2539 169.797 85.2502 169.694 85.265C169.499 85.2859 169.312 85.3449 169.145 85.4378C168.597 85.7094 168.295 86.2871 167.713 86.4994C167.493 86.5784 167.246 86.5932 167.016 86.6524C166.902 86.6748 166.795 86.7179 166.701 86.779C166.606 86.8402 166.527 86.9181 166.467 87.0079C166.259 87.3881 166.648 87.8572 166.5 88.2571C166.352 88.657 165.984 88.7508 165.765 89.0767C165.677 89.2195 165.642 89.3839 165.666 89.5457C165.683 89.8191 165.758 90.0871 165.885 90.3357C166.025 90.5838 166.187 90.8215 166.368 91.0467C166.368 91.0467 168.953 92.444 168.975 92.4588Z" fill="black"/>
</g>
<path d="M167.433 91.7182C167.442 91.7182 167.451 91.7165 167.46 91.7132C167.468 91.71 167.476 91.7052 167.482 91.6991C167.488 91.6931 167.493 91.686 167.496 91.6782C167.499 91.6704 167.5 91.6622 167.499 91.654C167.389 89.2347 168.657 86.5635 169.574 85.7884C169.58 85.7829 169.585 85.7763 169.588 85.7691C169.591 85.7619 169.593 85.7542 169.593 85.7464C169.593 85.7386 169.591 85.7309 169.588 85.7237C169.585 85.7165 169.58 85.7099 169.574 85.7044C169.567 85.6989 169.56 85.6945 169.552 85.6915C169.544 85.6886 169.536 85.687 169.527 85.687C169.518 85.687 169.51 85.6886 169.502 85.6915C169.494 85.6945 169.486 85.6989 169.48 85.7044C168.536 86.4994 167.247 89.21 167.356 91.6639C167.359 91.68 167.368 91.6946 167.383 91.7047C167.397 91.7148 167.415 91.7196 167.433 91.7182Z" fill="white"/>
<path d="M167.828 88.8545C168.464 88.6952 169.118 88.5992 169.777 88.5681C169.786 88.5682 169.795 88.5665 169.803 88.5632C169.812 88.5599 169.819 88.5551 169.825 88.5491C169.832 88.543 169.836 88.5359 169.839 88.5281C169.842 88.5204 169.843 88.5121 169.843 88.5039C169.843 88.4959 169.841 88.4879 169.837 88.4806C169.833 88.4733 169.828 88.4668 169.821 88.4616C169.814 88.4564 169.806 88.4526 169.798 88.4506C169.789 88.4485 169.78 88.4482 169.771 88.4496C169.101 88.478 168.436 88.5741 167.79 88.736C167.781 88.7377 167.773 88.741 167.766 88.7458C167.758 88.7505 167.752 88.7565 167.747 88.7634C167.743 88.7704 167.74 88.7781 167.739 88.7861C167.737 88.7941 167.738 88.8023 167.741 88.8101C167.746 88.8264 167.758 88.8403 167.774 88.8486C167.791 88.8569 167.81 88.8591 167.828 88.8545Z" fill="white"/>
<path d="M231.757 65.2197L230.065 68.218L230.339 68.3432L232.031 65.3449L231.757 65.2197Z" fill="#455A64"/>
<path d="M228.933 64.1533L228.672 64.2998L230.333 66.6962L230.594 66.5496L228.933 64.1533Z" fill="#455A64"/>
<path d="M230.472 64.7106V71.9389C230.47 71.9585 230.462 71.9773 230.449 71.9936C230.437 72.01 230.42 72.0234 230.401 72.0327C230.344 72.0572 230.283 72.0699 230.22 72.0699C230.157 72.0699 230.095 72.0572 230.039 72.0327C230.019 72.0236 230.001 72.0104 229.988 71.9941C229.974 71.9778 229.966 71.9589 229.962 71.9389V64.7106H230.472Z" fill="#455A64"/>
<path d="M236.548 62.4592C236.548 63.1233 236.329 63.7724 235.919 64.3245C235.509 64.8766 234.926 65.307 234.244 65.5611C233.562 65.8152 232.812 65.8817 232.088 65.7521C231.364 65.6226 230.699 65.3028 230.177 64.8333C229.655 64.3637 229.299 63.7655 229.155 63.1142C229.011 62.4629 229.085 61.7879 229.368 61.1744C229.65 60.5609 230.129 60.0365 230.742 59.6676C231.356 59.2987 232.078 59.1018 232.816 59.1018C233.806 59.1018 234.755 59.4555 235.455 60.0852C236.155 60.7148 236.548 61.5688 236.548 62.4592Z" fill="#BA68C8"/>
<path opacity="0.2" d="M233.985 61.6001C234.468 60.2374 234.978 59.7042 234.655 59.5363C234.036 59.2221 233.331 59.0732 232.622 59.107C231.913 59.1408 231.229 59.3559 230.651 59.7272C230.073 60.0984 229.625 60.6102 229.359 61.2027C229.093 61.7951 229.02 62.4435 229.15 63.0716C229.279 63.6998 229.605 64.2818 230.089 64.7491C230.574 65.2164 231.196 65.5497 231.884 65.7099C232.571 65.8701 233.295 65.8505 233.971 65.6534C234.646 65.4563 235.245 65.0898 235.697 64.5971C234.589 64.8835 233.365 63.3677 233.985 61.6001Z" fill="black"/>
<path d="M229.561 63.4073C229.562 63.8742 229.409 64.331 229.122 64.7198C228.834 65.1085 228.425 65.4118 227.946 65.5912C227.466 65.7706 226.939 65.818 226.429 65.7275C225.92 65.637 225.452 65.4126 225.085 65.0828C224.717 64.7529 224.467 64.3324 224.365 63.8744C224.264 63.4165 224.315 62.9417 224.514 62.5102C224.712 62.0786 225.048 61.7098 225.48 61.4502C225.911 61.1907 226.419 61.0521 226.938 61.0521C227.633 61.0521 228.299 61.3001 228.791 61.7416C229.283 62.1832 229.56 62.7822 229.561 63.4073Z" fill="#BA68C8"/>
<path opacity="0.2" d="M226.938 61.0521C226.388 61.051 225.852 61.2065 225.407 61.4965C225.335 62.9382 226.696 64.3404 226.318 64.8144C225.939 65.2884 225 64.9971 224.671 64.5972C224.902 64.9553 225.234 65.2524 225.633 65.4587C226.032 65.665 226.485 65.7731 226.945 65.7723C227.406 65.7714 227.858 65.6617 228.256 65.4539C228.654 65.2462 228.984 64.9479 229.214 64.589C229.444 64.23 229.564 63.823 229.563 63.4089C229.563 62.9948 229.441 62.5881 229.21 62.2297C228.98 61.8713 228.648 61.5738 228.249 61.3671C227.85 61.1604 227.398 61.0518 226.938 61.0521Z" fill="black"/>
<path d="M230.22 65.1945C232.878 65.1945 235.033 63.2558 235.033 60.8644C235.033 58.473 232.878 56.5343 230.22 56.5343C227.562 56.5343 225.407 58.473 225.407 60.8644C225.407 63.2558 227.562 65.1945 230.22 65.1945Z" fill="#BA68C8"/>
<path opacity="0.1" d="M234.901 61.8568C234.719 62.5574 234.345 63.2059 233.814 63.7439C233.282 64.2818 232.61 64.6921 231.858 64.9378C231.107 65.1834 230.299 65.2566 229.507 65.1507C228.716 65.0449 227.967 64.7633 227.327 64.3315C226.687 63.8997 226.177 63.3312 225.843 62.6775C225.508 62.0238 225.36 61.3054 225.412 60.5873C225.464 59.8692 225.714 59.1741 226.139 58.5647C226.565 57.9553 227.152 57.451 227.849 57.0972C227.432 57.311 227.053 57.5788 226.724 57.8921C226.489 58.8166 226.599 59.7848 227.035 60.648C227.472 61.5112 228.211 62.2216 229.14 62.6702C230.068 63.1188 231.135 63.2807 232.176 63.1311C233.217 62.9815 234.174 62.5286 234.901 61.842V61.8568Z" fill="black"/>
<path d="M136.341 71.2058L134.649 74.2041L134.923 74.3292L136.615 71.331L136.341 71.2058Z" fill="#455A64"/>
<path d="M133.214 70.9699L132.953 71.1155L134.602 73.5126L134.864 73.367L133.214 70.9699Z" fill="#455A64"/>
<path d="M135.052 70.6948V77.9232C135.05 77.9436 135.041 77.9631 135.028 77.9796C135.014 77.9961 134.996 78.009 134.975 78.017C134.919 78.0438 134.857 78.0578 134.794 78.0578C134.731 78.0578 134.668 78.0438 134.613 78.017C134.592 78.009 134.573 77.9961 134.56 77.9796C134.546 77.9631 134.538 77.9436 134.536 77.9232V70.6948H135.052Z" fill="#455A64"/>
<path d="M141.122 68.4481C141.122 69.1122 140.903 69.7613 140.493 70.3134C140.083 70.8655 139.5 71.2959 138.818 71.55C138.136 71.8041 137.386 71.8706 136.662 71.741C135.938 71.6115 135.273 71.2917 134.751 70.8222C134.229 70.3526 133.874 69.7544 133.73 69.1031C133.586 68.4519 133.659 67.7768 133.942 67.1633C134.224 66.5498 134.703 66.0255 135.316 65.6565C135.93 65.2876 136.652 65.0907 137.39 65.0907C137.88 65.0901 138.366 65.1765 138.819 65.3449C139.272 65.5134 139.684 65.7607 140.031 66.0726C140.377 66.3845 140.652 66.7549 140.839 67.1625C141.027 67.5702 141.123 68.007 141.122 68.4481Z" fill="#BA68C8"/>
<path opacity="0.2" d="M138.559 67.5891C139.042 66.2264 139.558 65.6932 139.228 65.5253C138.611 65.2121 137.907 65.0639 137.199 65.0981C136.491 65.1322 135.809 65.3473 135.232 65.7182C134.655 66.089 134.208 66.6001 133.942 67.1916C133.677 67.783 133.605 68.4303 133.734 69.0573C133.864 69.6844 134.189 70.2653 134.673 70.7318C135.156 71.1983 135.777 71.5311 136.464 71.691C137.15 71.851 137.873 71.8316 138.547 71.635C139.222 71.4384 139.82 71.0729 140.271 70.5812C139.163 70.8725 137.939 69.3567 138.559 67.5891Z" fill="black"/>
<path d="M134.135 69.3962C134.135 69.863 133.981 70.3193 133.693 70.7074C133.405 71.0955 132.995 71.398 132.516 71.5766C132.036 71.7553 131.509 71.802 131 71.7109C130.491 71.6199 130.024 71.3951 129.657 71.065C129.29 70.735 129.04 70.3144 128.939 69.8566C128.838 69.3988 128.89 68.9243 129.088 68.493C129.287 68.0618 129.623 67.6932 130.054 67.4339C130.486 67.1745 130.993 67.0361 131.512 67.0361C132.208 67.0361 132.875 67.2848 133.367 67.7274C133.859 68.17 134.135 68.7703 134.135 69.3962Z" fill="#BA68C8"/>
<path opacity="0.2" d="M131.512 67.0361C130.962 67.0373 130.427 67.1927 129.981 67.4805C129.909 68.9222 131.27 70.3294 130.892 70.7984C130.513 71.2675 129.574 70.9811 129.245 70.5812C129.476 70.9393 129.808 71.2364 130.207 71.4427C130.606 71.649 131.059 71.7571 131.519 71.7563C131.98 71.7554 132.431 71.6457 132.83 71.4379C133.228 71.2302 133.558 70.9319 133.788 70.573C134.017 70.214 134.138 69.807 134.137 69.3929C134.137 68.9788 134.015 68.5721 133.784 68.2137C133.554 67.8553 133.222 67.5578 132.823 67.3511C132.424 67.1444 131.972 67.0358 131.512 67.0361Z" fill="black"/>
<path d="M134.794 71.1835C137.452 71.1835 139.607 69.2449 139.607 66.8534C139.607 64.462 137.452 62.5233 134.794 62.5233C132.136 62.5233 129.981 64.462 129.981 66.8534C129.981 69.2449 132.136 71.1835 134.794 71.1835Z" fill="#BA68C8"/>
<path opacity="0.1" d="M139.476 67.841C139.294 68.5426 138.921 69.1925 138.39 69.7317C137.86 70.271 137.188 70.6826 136.435 70.9292C135.683 71.1758 134.874 71.2497 134.082 71.1442C133.29 71.0387 132.54 70.7571 131.899 70.3249C131.259 69.8927 130.748 69.3236 130.414 68.6691C130.079 68.0146 129.932 67.2954 129.984 66.5766C130.037 65.8579 130.288 65.1623 130.715 64.5528C131.141 63.9433 131.731 63.4393 132.428 63.0863C132.008 63.2972 131.627 63.5653 131.298 63.8812C131.059 64.8068 131.165 65.7775 131.6 66.6434C132.036 67.5092 132.776 68.222 133.706 68.6715C134.637 69.121 135.706 69.2823 136.749 69.1304C137.792 68.9785 138.75 68.5219 139.476 67.8311V67.841Z" fill="black"/>
<path d="M14.8679 62.0593V59.7436L72.8249 29.6404L119.652 53.9521V56.2677L61.6836 86.3759L14.8679 62.0593Z" fill="#BA68C8"/>
<path d="M14.8679 59.7436L61.6836 84.0603L119.652 53.9521L72.8249 29.6404L14.8679 59.7436Z" fill="#BA68C8"/>
<path opacity="0.15" d="M14.8679 59.7437L61.6836 84.0603V86.3759L14.8679 62.0593V59.7437Z" fill="black"/>
<path opacity="0.1" d="M61.6836 84.0602L119.652 53.952V56.2677L61.6836 86.3759V84.0602Z" fill="black"/>
<path d="M62.7977 61.4766L70.6022 65.5302V28.48L43.8519 14.5813V51.6364L62.7977 61.4766Z" fill="#EBEBEB"/>
<path d="M70.6022 31.951L43.8519 18.0572V14.5813L70.6022 28.48V31.951Z" fill="#E0E0E0"/>
<path d="M53.6596 26.6236L48.3085 23.8439V28.016L53.6596 30.7957V26.6236Z" fill="#455A64"/>
<path d="M48.6652 27.8282V24.0314L53.6596 26.6235V30.4204L48.6652 27.8282Z" fill="#FAFAFA"/>
<path d="M48.3085 28.016L48.6652 27.8284L53.6596 30.4205V30.7957L48.3085 28.016Z" fill="#37474F"/>
<path d="M63.9118 31.951L58.5662 29.1713V33.3384L63.9118 36.1182V31.951Z" fill="#455A64"/>
<path d="M58.923 33.1507V29.3539L63.9119 31.9509V35.7478L58.923 33.1507Z" fill="#FAFAFA"/>
<path d="M58.5662 33.3385L58.9229 33.1509L63.9118 35.7479V36.1183L58.5662 33.3385Z" fill="#37474F"/>
<path d="M68.3739 28.2184L101.814 32.2177V31.0623L68.3739 27.0581V28.2184Z" fill="#37474F"/>
<path d="M41.6237 13.1593L68.3739 27.058L101.814 31.0623L75.0642 17.1586L41.6237 13.1593Z" fill="#455A64"/>
<path d="M41.6237 13.1593L68.3739 27.058V28.2183L41.6237 14.3146V13.1593Z" fill="#263238"/>
<path d="M70.6022 65.5301L99.5862 50.481V31.951L70.6022 28.48V65.5301Z" fill="#FAFAFA"/>
<path d="M75.0642 63.2146V51.6364L81.749 48.1605V59.7436L75.0642 63.2146Z" fill="#37474F"/>
<path d="M81.5405 59.6003V48.2739L75.0642 51.6363V62.9627L81.5405 59.6003Z" fill="#455A64"/>
<path d="M81.749 48.1605L81.5404 48.2741V59.6005L81.749 59.7436V48.1605Z" fill="#263238"/>
<path d="M88.4393 44.6894L95.1241 41.2135V48.1604L88.4393 51.6363V44.6894Z" fill="#455A64"/>
<path d="M94.7674 47.9779V41.4012L88.4393 44.6895V51.2661L94.7674 47.9779Z" fill="#E0E0E0"/>
<path d="M95.1241 48.1605L94.7674 47.9778L88.4393 51.2661V51.6364L95.1241 48.1605Z" fill="#37474F"/>
<path d="M91.9628 42.8578L91.6061 43.0454V49.9923L91.9628 49.8096V42.8578Z" fill="#455A64"/>
<path d="M91.606 43.0453V49.9922L91.2493 49.8095V43.228L91.606 43.0453Z" fill="#37474F"/>
<path d="M83.9772 42.3738V32.6175L75.0587 31.551V47.0051L83.9772 42.3738Z" fill="#E0E0E0"/>
<path d="M83.9772 42.3738V32.6175L75.0587 31.551V47.0051L83.9772 42.3738Z" fill="#37474F"/>
<path d="M83.5711 32.5681L75.0587 31.551V46.5804L83.5711 42.1565V32.5681Z" fill="#E0E0E0"/>
<path d="M83.5711 32.5682L83.9772 32.6176V42.3739L83.5711 42.1566V32.5682Z" fill="#455A64"/>
<path d="M79.9268 44.4772V32.1337L79.5207 32.0844V44.6895L79.9268 44.4772Z" fill="#455A64"/>
<path d="M79.5207 32.0843V44.6894L79.1091 44.4771V32.0349L79.5207 32.0843Z" fill="#37474F"/>
<path d="M88.4393 40.0583V33.1509L95.1241 33.9507V36.5824L88.4393 40.0583Z" fill="#455A64"/>
<path d="M94.7674 36.3997V33.9112L88.4393 33.1509V39.688L94.7674 36.3997Z" fill="#E0E0E0"/>
<path d="M91.9628 38.2265L91.6061 38.0438V33.531L91.9628 33.5705V38.2265Z" fill="#37474F"/>
<path d="M91.9628 33.5706V38.2265L92.2866 38.0438V33.615L91.9628 33.5706Z" fill="#455A64"/>
<path d="M95.1241 36.5822L94.7674 36.3995L88.4393 39.6878V40.0581L95.1241 36.5822Z" fill="#37474F"/>
<path d="M47.1943 69.5838L28.243 59.7436V45.8448L47.1943 55.69V69.5838Z" fill="#F0F0F0"/>
<path d="M47.1943 55.69V59.161L28.243 49.3208V45.8448L47.1943 55.69Z" fill="#E0E0E0"/>
<path d="M35.8225 54.8803L30.4713 52.1006V56.2727L35.8225 59.0475V54.8803Z" fill="#455A64"/>
<path d="M30.8336 56.0849V52.2881L35.8225 54.8802V58.6771L30.8336 56.0849Z" fill="#FAFAFA"/>
<path d="M30.8336 52.3029V53.4681L35.8225 56.0602V54.8999L30.8336 52.3029Z" fill="#E0E0E0"/>
<path d="M30.4713 56.2726L30.8335 56.085L35.8225 58.6771V59.0474L30.4713 56.2726Z" fill="#37474F"/>
<path d="M45.3008 59.8028L39.9497 57.0231V61.1902L45.3008 63.97V59.8028Z" fill="#455A64"/>
<path d="M40.3065 61.0026V57.2107L45.3009 59.8028V63.5997L40.3065 61.0026Z" fill="#FAFAFA"/>
<path d="M40.3065 57.2107V58.371L45.3009 60.9631V59.8028L40.3065 57.2107Z" fill="#E0E0E0"/>
<path d="M39.9497 61.1903L40.3065 61.0027L45.3008 63.5998V63.9701L39.9497 61.1903Z" fill="#37474F"/>
<path d="M47.1943 69.5838L62.7977 61.4766V40.6359L47.1943 55.69V69.5838Z" fill="#FAFAFA"/>
<path d="M49.4226 68.4284V60.3212L60.5695 54.5297V62.6369L49.4226 68.4284Z" fill="#455A64"/>
<path d="M60.5694 54.5297L60.3608 54.6383V62.5282L60.5694 62.6319V54.5297Z" fill="#263238"/>
<path d="M60.3554 62.5282L49.4226 68.2111V68.4284L60.5695 62.6368L60.3554 62.5282Z" fill="#37474F"/>
<path d="M46.7498 57.7736L63.9118 41.2136V40.0582L46.7498 56.6133V57.7736Z" fill="#37474F"/>
<path d="M46.7497 57.7736L26.6843 47.3508V46.1954L46.7497 56.6133V57.7736Z" fill="#263238"/>
<path d="M43.8519 29.6354L63.9118 40.0582L46.7497 56.6133L26.6843 46.1954L43.8519 29.6354Z" fill="#455A64"/>
<path d="M81.749 59.7437L95.1241 66.6906L88.4393 70.1615L75.0642 63.2146L81.749 59.7437Z" fill="#F0F0F0"/>
<path d="M112.82 45.9716L111.128 48.9698L111.402 49.095L113.094 46.0967L112.82 45.9716Z" fill="#455A64"/>
<path d="M109.678 45.7306L109.417 45.8761L111.066 48.2732L111.328 48.1277L109.678 45.7306Z" fill="#455A64"/>
<path d="M111.523 45.4548V52.6832C111.523 52.7177 111.523 52.7473 111.447 52.777C111.39 52.8015 111.328 52.8142 111.265 52.8142C111.203 52.8142 111.141 52.8015 111.084 52.777C111.064 52.7684 111.047 52.7551 111.035 52.7387C111.022 52.7222 111.015 52.7031 111.013 52.6832V45.4548H111.523Z" fill="#455A64"/>
<path d="M117.593 43.2034C117.593 43.8676 117.374 44.5169 116.964 45.0692C116.554 45.6214 115.971 46.0517 115.288 46.3057C114.606 46.5597 113.855 46.6259 113.131 46.4959C112.407 46.366 111.742 46.0457 111.22 45.5757C110.699 45.1056 110.344 44.5069 110.2 43.8553C110.057 43.2037 110.132 42.5285 110.415 41.9151C110.698 41.3017 111.177 40.7777 111.792 40.4094C112.406 40.0411 113.128 39.845 113.867 39.846C114.357 39.846 114.842 39.9328 115.294 40.1016C115.747 40.2704 116.158 40.5178 116.504 40.8296C116.85 41.1414 117.124 41.5116 117.311 41.9189C117.498 42.3262 117.594 42.7627 117.593 43.2034Z" fill="#BA68C8"/>
<path opacity="0.2" d="M115.036 42.3443C115.513 40.9816 116.029 40.4483 115.7 40.2854C115.143 39.9959 114.51 39.8443 113.867 39.846C113.238 39.8457 112.619 39.9884 112.068 40.2608C111.517 40.5331 111.051 40.9264 110.714 41.404C110.377 41.8816 110.18 42.4281 110.14 42.9927C110.101 43.5573 110.221 44.1217 110.489 44.6335C110.756 45.1453 111.164 45.5879 111.673 45.9203C112.181 46.2527 112.775 46.4639 113.399 46.5345C114.023 46.6052 114.657 46.5328 115.241 46.3242C115.826 46.1156 116.342 45.7775 116.743 45.3413C115.64 45.6326 114.41 44.1119 115.036 42.3443Z" fill="black"/>
<path d="M110.607 44.1563C110.607 44.6233 110.453 45.0798 110.164 45.468C109.876 45.8563 109.466 46.1588 108.986 46.3372C108.506 46.5157 107.979 46.5622 107.469 46.4707C106.96 46.3792 106.493 46.154 106.126 45.8234C105.76 45.4929 105.51 45.0719 105.41 44.6137C105.309 44.1556 105.362 43.6809 105.561 43.2498C105.761 42.8186 106.098 42.4503 106.53 42.1916C106.962 41.9329 107.47 41.7953 107.989 41.7963C108.684 41.7976 109.349 42.0468 109.84 42.4893C110.331 42.9317 110.607 43.5313 110.607 44.1563Z" fill="#BA68C8"/>
<path opacity="0.2" d="M108.005 41.7962C107.454 41.7943 106.916 41.9499 106.469 42.2405C106.397 43.6822 107.758 45.0845 107.38 45.5584C107.001 46.0324 106.062 45.7411 105.733 45.3412C105.965 45.6972 106.296 45.9922 106.695 46.1967C107.093 46.4012 107.544 46.508 108.002 46.5064C108.461 46.5048 108.911 46.3949 109.308 46.1877C109.704 45.9804 110.033 45.6832 110.262 45.3256C110.49 44.968 110.611 44.5626 110.61 44.1501C110.61 43.7376 110.489 43.3324 110.26 42.975C110.031 42.6176 109.702 42.3206 109.305 42.1137C108.909 41.9068 108.458 41.7973 108 41.7962H108.005Z" fill="black"/>
<path d="M111.265 45.9386C113.924 45.9386 116.079 44 116.079 41.6085C116.079 39.2171 113.924 37.2784 111.265 37.2784C108.607 37.2784 106.452 39.2171 106.452 41.6085C106.452 44 108.607 45.9386 111.265 45.9386Z" fill="#BA68C8"/>
<path opacity="0.1" d="M115.947 42.601C115.763 43.2999 115.389 43.9467 114.858 44.4829C114.326 45.0191 113.655 45.4278 112.904 45.6723C112.154 45.9167 111.347 45.9891 110.558 45.8829C109.768 45.7767 109.02 45.4953 108.382 45.0641C107.743 44.6329 107.234 44.0654 106.9 43.4129C106.567 42.7604 106.419 42.0434 106.47 41.3267C106.522 40.6099 106.771 39.916 107.195 39.3075C107.619 38.699 108.205 38.1951 108.9 37.8413C108.494 38.0577 108.124 38.3254 107.802 38.6362C107.565 39.5608 107.672 40.5299 108.108 41.3942C108.543 42.2584 109.282 42.9699 110.211 43.419C111.14 43.8681 112.208 44.0299 113.249 43.8794C114.291 43.7289 115.248 43.2744 115.974 42.5861L115.947 42.601Z" fill="black"/>
<path d="M22.1496 52.8239L20.458 55.8221L20.7321 55.9473L22.4237 52.949L22.1496 52.8239Z" fill="#455A64"/>
<path d="M19.0129 52.5846L18.7516 52.7301L20.4011 55.1272L20.6624 54.9817L19.0129 52.5846Z" fill="#455A64"/>
<path d="M20.8503 52.3177V59.5412C20.8481 59.5616 20.8398 59.5811 20.8262 59.5976C20.8127 59.6141 20.7945 59.627 20.7734 59.635C20.7177 59.6618 20.6555 59.6758 20.5923 59.6758C20.5291 59.6758 20.4669 59.6618 20.4112 59.635C20.3908 59.6268 20.3734 59.6137 20.3608 59.5971C20.3482 59.5806 20.3409 59.5612 20.3398 59.5412V52.3177H20.8503Z" fill="#455A64"/>
<path d="M26.9203 50.0564C26.9203 50.7206 26.7013 51.37 26.291 51.9222C25.8807 52.4744 25.2975 52.9048 24.6152 53.1587C23.9329 53.4127 23.1822 53.4789 22.4581 53.3489C21.734 53.219 21.0691 52.8987 20.5473 52.4287C20.0256 51.9587 19.6706 51.36 19.5272 50.7084C19.3838 50.0568 19.4585 49.3816 19.7418 48.7682C20.0252 48.1547 20.5044 47.6307 21.1188 47.2624C21.7333 46.8941 22.4554 46.698 23.1937 46.699C24.1826 46.7003 25.1305 47.0546 25.8292 47.6841C26.5279 48.3136 26.9203 49.1668 26.9203 50.0564Z" fill="#BA68C8"/>
<path opacity="0.2" d="M24.3628 49.1973C24.8402 47.8346 25.3562 47.3014 25.0268 47.1335C24.4085 46.8193 23.7033 46.6704 22.9941 46.7042C22.2849 46.738 21.6011 46.9531 21.0231 47.3243C20.4451 47.6955 19.9968 48.2074 19.7309 48.7998C19.465 49.3923 19.3925 50.0406 19.522 50.6688C19.6514 51.297 19.9774 51.8789 20.4617 52.3463C20.9459 52.8136 21.5684 53.1469 22.2559 53.3071C22.9434 53.4673 23.6674 53.4476 24.343 53.2505C25.0185 53.0534 25.6175 52.687 26.0696 52.1943C24.9665 52.4807 23.7371 50.9649 24.3628 49.1973Z" fill="black"/>
<path d="M19.9337 51.0044C19.9348 51.4716 19.7817 51.9286 19.4938 52.3175C19.206 52.7063 18.7963 53.0096 18.3167 53.1888C17.8371 53.3681 17.3092 53.4152 16.7998 53.3243C16.2904 53.2334 15.8224 53.0085 15.4552 52.6782C15.088 52.3478 14.838 51.9268 14.737 51.4686C14.6359 51.0103 14.6883 50.5354 14.8876 50.1039C15.0868 49.6725 15.4239 49.3039 15.8562 49.045C16.2884 48.786 16.7964 48.6483 17.3157 48.6493C18.0096 48.6506 18.6747 48.8991 19.1653 49.3405C19.656 49.7819 19.9322 50.3802 19.9337 51.0044Z" fill="#BA68C8"/>
<path opacity="0.2" d="M17.3158 48.6493C16.7642 48.6474 16.2261 48.803 15.779 49.0937C15.7077 50.5354 17.0688 51.9376 16.6901 52.4116C16.3114 52.8856 15.3729 52.5943 15.0436 52.1943C15.2753 52.5503 15.6068 52.8454 16.0051 53.0498C16.4033 53.2543 16.8543 53.3611 17.3128 53.3595C17.7714 53.358 18.2214 53.2481 18.6179 53.0408C19.0144 52.8336 19.3435 52.5363 19.5721 52.1787C19.8007 51.8211 19.921 51.4158 19.9207 51.0033C19.9205 50.5907 19.7999 50.1855 19.5708 49.8281C19.3418 49.4707 19.0124 49.1738 18.6157 48.9669C18.219 48.76 17.7688 48.6505 17.3103 48.6493H17.3158Z" fill="black"/>
<path d="M20.5923 52.7918C23.2506 52.7918 25.4056 50.8531 25.4056 48.4617C25.4056 46.0702 23.2506 44.1316 20.5923 44.1316C17.934 44.1316 15.779 46.0702 15.779 48.4617C15.779 50.8531 17.934 52.7918 20.5923 52.7918Z" fill="#BA68C8"/>
<path opacity="0.1" d="M25.2738 49.4492C25.091 50.1486 24.7174 50.7961 24.1866 51.3331C23.6559 51.8701 22.9848 52.2796 22.234 52.5248C21.4832 52.77 20.6764 52.843 19.8863 52.7373C19.0963 52.6315 18.348 52.3504 17.709 51.9193C17.07 51.4882 16.5605 50.9206 16.2265 50.2679C15.8925 49.6152 15.7445 48.898 15.7959 48.1809C15.8472 47.4638 16.0964 46.7696 16.5208 46.1609C16.9453 45.5522 17.5316 45.0482 18.2268 44.6945C17.8094 44.907 17.4301 45.175 17.1017 45.4894C16.8596 46.415 16.9638 47.3867 17.398 48.2536C17.8323 49.1206 18.5723 49.8344 19.5035 50.2845C20.4346 50.7346 21.5048 50.8957 22.5481 50.7429C23.5914 50.59 24.5495 50.1318 25.2738 49.4393V49.4492Z" fill="black"/>
<path d="M74.0378 64.602L74.7184 64.2515C74.9073 63.2564 74.935 62.2419 74.8007 61.2397C74.4605 59.2647 72.9786 58.608 72.4407 58.8055C71.9029 59.003 71.7766 59.5807 72.7481 60.7064C73.6279 61.8484 74.0798 63.2131 74.0378 64.602Z" fill="#BA68C8"/>
<g opacity="0.2">
<path opacity="0.2" d="M74.0378 64.602L74.7184 64.2515C74.9073 63.2564 74.935 62.2419 74.8007 61.2397C74.4605 59.2647 72.9786 58.608 72.4407 58.8055C71.9029 59.003 71.7766 59.5807 72.7481 60.7064C73.6279 61.8484 74.0798 63.2131 74.0378 64.602Z" fill="black"/>
</g>
<path d="M74.2849 63.8219C74.2785 63.8213 74.2724 63.8196 74.2669 63.8167C74.2614 63.8138 74.2566 63.8099 74.253 63.8052C74.2493 63.8005 74.2468 63.7951 74.2457 63.7895C74.2446 63.7838 74.2448 63.778 74.2465 63.7725C74.5264 61.9407 73.6976 59.9361 72.7866 59.1264C72.7785 59.1183 72.774 59.1077 72.774 59.0968C72.774 59.0859 72.7785 59.0753 72.7866 59.0672C72.79 59.0621 72.7948 59.0578 72.8006 59.0549C72.8063 59.052 72.8129 59.0504 72.8195 59.0504C72.8261 59.0504 72.8326 59.052 72.8384 59.0549C72.8442 59.0578 72.849 59.0621 72.8524 59.0672C73.7909 59.8868 74.6252 61.9259 74.3398 63.7873C74.3371 63.7982 74.33 63.8078 74.3198 63.8142C74.3097 63.8207 74.2972 63.8234 74.2849 63.8219Z" fill="white"/>
<path d="M72.1499 65.5796C72.0456 65.6389 71.8205 65.5155 71.7382 65.4661C71.5915 65.3771 71.4739 65.2544 71.3979 65.1106C71.3143 64.9577 71.2837 64.7856 71.3101 64.6169C71.3281 64.5235 71.3519 64.4312 71.3815 64.3404C71.4144 64.2515 71.4419 64.1626 71.4693 64.0737C71.5026 63.9865 71.5175 63.8944 71.5132 63.8022C71.4543 63.6226 71.3206 63.4705 71.14 63.3776C71.0407 63.3262 70.9559 63.2549 70.8921 63.1693C70.8283 63.0837 70.7873 62.986 70.7723 62.8838C70.7848 62.7121 70.86 62.549 70.9863 62.4197C71.1071 62.2864 71.2443 62.1679 71.3486 62.0297C71.4324 61.9304 71.4768 61.8087 71.4748 61.684C71.4614 61.6095 71.4336 61.5376 71.3925 61.4717C71.2919 61.3352 71.2039 61.1915 71.129 61.0422C71.0936 60.9664 71.0826 60.8832 71.0971 60.802C71.1117 60.7208 71.1512 60.645 71.2113 60.583C71.271 60.5423 71.3392 60.5129 71.4119 60.4968C71.4845 60.4807 71.5601 60.4781 71.6339 60.4892C71.7737 60.5056 71.9081 60.5476 72.0291 60.6126C72.4188 60.8101 72.6383 61.2249 73.0554 61.373C73.2191 61.4191 73.3859 61.4553 73.5549 61.4816C73.6396 61.4963 73.7199 61.5267 73.7908 61.5709C73.8617 61.6151 73.9215 61.6722 73.9665 61.7384C74.1202 62.0099 73.8348 62.3456 73.9665 62.637C74.0982 62.9283 74.3342 62.9925 74.5153 63.2196C74.5772 63.3221 74.6022 63.4394 74.5867 63.5553C74.5762 63.7522 74.522 63.9453 74.4275 64.1231C74.3252 64.2948 74.2097 64.4597 74.0818 64.6169L72.1499 65.5796Z" fill="#BA68C8"/>
<g opacity="0.1">
<path opacity="0.1" d="M72.1499 65.5796C72.0456 65.6389 71.8205 65.5155 71.7382 65.4661C71.5915 65.3771 71.4739 65.2544 71.3979 65.1106C71.3143 64.9577 71.2837 64.7856 71.3101 64.6169C71.3281 64.5235 71.3519 64.4312 71.3815 64.3404C71.4144 64.2515 71.4419 64.1626 71.4693 64.0737C71.5026 63.9865 71.5175 63.8944 71.5132 63.8022C71.4543 63.6226 71.3206 63.4705 71.14 63.3776C71.0407 63.3262 70.9559 63.2549 70.8921 63.1693C70.8283 63.0837 70.7873 62.986 70.7723 62.8838C70.7848 62.7121 70.86 62.549 70.9863 62.4197C71.1071 62.2864 71.2443 62.1679 71.3486 62.0297C71.4324 61.9304 71.4768 61.8087 71.4748 61.684C71.4614 61.6095 71.4336 61.5376 71.3925 61.4717C71.2919 61.3352 71.2039 61.1915 71.129 61.0422C71.0936 60.9664 71.0826 60.8832 71.0971 60.802C71.1117 60.7208 71.1512 60.645 71.2113 60.583C71.271 60.5423 71.3392 60.5129 71.4119 60.4968C71.4845 60.4807 71.5601 60.4781 71.6339 60.4892C71.7737 60.5056 71.9081 60.5476 72.0291 60.6126C72.4188 60.8101 72.6383 61.2249 73.0554 61.373C73.2191 61.4191 73.3859 61.4553 73.5549 61.4816C73.6396 61.4963 73.7199 61.5267 73.7908 61.5709C73.8617 61.6151 73.9215 61.6722 73.9665 61.7384C74.1202 62.0099 73.8348 62.3456 73.9665 62.637C74.0982 62.9283 74.3342 62.9925 74.5153 63.2196C74.5772 63.3221 74.6022 63.4394 74.5867 63.5553C74.5762 63.7522 74.522 63.9453 74.4275 64.1231C74.3252 64.2948 74.2097 64.4597 74.0818 64.6169L72.1499 65.5796Z" fill="black"/>
</g>
<path d="M73.2585 65.0513C73.2522 65.0513 73.246 65.0501 73.2403 65.0479C73.2346 65.0456 73.2295 65.0422 73.2253 65.038C73.2212 65.0338 73.2181 65.0288 73.2162 65.0235C73.2144 65.0181 73.2138 65.0124 73.2146 65.0068C73.2914 63.2738 72.3859 61.3581 71.7272 60.8051C71.7211 60.8016 71.7159 60.797 71.712 60.7915C71.708 60.786 71.7055 60.7798 71.7045 60.7733C71.7036 60.7669 71.7042 60.7603 71.7064 60.7541C71.7086 60.7478 71.7123 60.7421 71.7172 60.7373C71.7221 60.7325 71.7282 60.7288 71.7349 60.7263C71.7416 60.7238 71.7489 60.7227 71.7561 60.7231C71.7633 60.7234 71.7704 60.7252 71.7768 60.7283C71.7832 60.7314 71.7888 60.7357 71.7931 60.7409C72.4682 61.3087 73.3902 63.2541 73.3079 65.0118C73.3065 65.0227 73.3007 65.0327 73.2916 65.04C73.2825 65.0473 73.2707 65.0513 73.2585 65.0513Z" fill="white"/>
<path d="M72.9676 63.0022C72.5127 62.8887 72.0451 62.8208 71.5736 62.7998C71.5605 62.7998 71.5479 62.7951 71.5386 62.7868C71.5294 62.7785 71.5242 62.7672 71.5242 62.7554C71.5242 62.7436 71.5294 62.7323 71.5386 62.7239C71.5479 62.7156 71.5605 62.7109 71.5736 62.7109C72.0563 62.7318 72.535 62.8014 73.0005 62.9183C73.0066 62.9199 73.0121 62.9227 73.0169 62.9264C73.0216 62.9301 73.0254 62.9347 73.028 62.9398C73.0306 62.945 73.032 62.9506 73.032 62.9562C73.032 62.9619 73.0306 62.9675 73.028 62.9726C73.0269 62.9785 73.0243 62.984 73.0204 62.9889C73.0166 62.9937 73.0116 62.9977 73.0057 63.0005C72.9999 63.0034 72.9935 63.005 72.9869 63.0053C72.9803 63.0056 72.9737 63.0046 72.9676 63.0022Z" fill="white"/>
<path d="M138.872 1.87247L135.057 3.84742C135.079 3.6968 135.09 3.54507 135.09 3.39318V2.40571C135.09 0.638121 133.707 -0.0629896 132.006 0.805991C131.274 1.21211 130.647 1.75415 130.167 2.39583C129.887 0.169068 127.972 -0.655475 125.59 0.56406C123.043 1.89222 120.974 5.11139 120.974 7.75783V9.23905C120.957 9.83309 121.093 10.4227 121.369 10.9622L118.197 12.6063C117.7 12.8992 117.286 13.293 116.988 13.7561C116.691 14.2192 116.518 14.7386 116.485 15.2725C116.485 16.26 117.253 16.655 118.197 16.1613L138.872 5.41258C139.37 5.12061 139.785 4.72701 140.082 4.26375C140.38 3.80049 140.552 3.28063 140.584 2.74638C140.584 1.78359 139.838 1.38367 138.872 1.87247Z" fill="#EBEBEB"/>
<path d="M155.205 11.8755L152.329 13.3567C152.329 13.2382 152.329 13.1247 152.329 13.0111V12.2754C152.329 10.9423 151.286 10.3992 150.002 11.0707C149.449 11.375 148.977 11.7846 148.619 12.2705C148.41 10.5918 146.972 9.96474 145.167 10.888C144.151 11.4821 143.306 12.2837 142.7 13.2276C142.095 14.1715 141.746 15.2308 141.682 16.3192V17.44C141.671 17.8889 141.772 18.3343 141.978 18.7434L139.585 19.9827C139.21 20.2038 138.897 20.5014 138.673 20.8514C138.449 21.2014 138.32 21.5939 138.295 21.9972C138.295 22.7378 138.872 23.0389 139.585 22.6686L155.205 14.5565C155.581 14.3367 155.895 14.0402 156.12 13.6911C156.345 13.3419 156.475 12.95 156.5 12.547C156.495 11.8311 155.913 11.5052 155.205 11.8755Z" fill="#EBEBEB"/>
<path d="M227.964 103.913L225.088 105.395C225.088 105.281 225.088 105.167 225.088 105.054V104.303C225.088 102.965 224.045 102.427 222.761 103.094C222.209 103.4 221.735 103.809 221.373 104.294C221.164 102.615 219.699 101.988 217.92 102.911C216.905 103.505 216.06 104.307 215.454 105.251C214.848 106.195 214.499 107.254 214.435 108.342V109.463C214.424 109.91 214.525 110.354 214.732 110.762L212.339 112.006C211.963 112.226 211.651 112.523 211.427 112.872C211.203 113.221 211.073 113.613 211.049 114.015C211.049 114.756 211.598 115.057 212.339 114.687L227.942 106.585C228.319 106.364 228.632 106.066 228.857 105.716C229.082 105.366 229.212 104.974 229.237 104.57C229.259 103.839 228.678 103.538 227.964 103.913Z" fill="#EBEBEB"/>
</svg>
