<svg width="529" height="331" viewBox="0 0 529 331" fill="none" xmlns="http://www.w3.org/2000/svg">
<path d="M528.009 290.878H0V291.101H528.009V290.878Z" fill="#EBEBEB"/>
<path d="M90.3735 299.336H55.3982V299.559H90.3735V299.336Z" fill="#EBEBEB"/>
<path d="M225.639 296.928H180.726V297.15H225.639V296.928Z" fill="#EBEBEB"/>
<path d="M118.97 302.455H98.7053V302.677H118.97V302.455Z" fill="#EBEBEB"/>
<path d="M475.103 306.097H459.02V306.319H475.103V306.097Z" fill="#EBEBEB"/>
<path d="M449.61 306.097H413.399V306.319H449.61V306.097Z" fill="#EBEBEB"/>
<path d="M350.418 299.7H325.253V299.922H350.418V299.7Z" fill="#EBEBEB"/>
<path d="M250.276 251.253H46.3699C44.7725 251.251 43.2415 250.715 42.113 249.764C40.9844 248.813 40.3506 247.524 40.3506 246.18V5.02862C40.3645 3.69241 41.0045 2.41478 42.1315 1.47324C43.2585 0.531699 44.7816 0.00228899 46.3699 0H250.276C251.876 0 253.409 0.53448 254.54 1.48586C255.671 2.43724 256.306 3.72758 256.306 5.07304V246.18C256.306 247.526 255.671 248.816 254.54 249.767C253.409 250.719 251.876 251.253 250.276 251.253ZM46.3699 0.17769C44.8425 0.180044 43.3787 0.692159 42.2996 1.60163C41.2206 2.5111 40.6146 3.74361 40.6146 5.02862V246.18C40.6146 247.465 41.2206 248.698 42.2996 249.607C43.3787 250.517 44.8425 251.029 46.3699 251.031H250.276C251.805 251.029 253.27 250.517 254.35 249.608C255.431 248.698 256.039 247.466 256.042 246.18V5.02862C256.039 3.74279 255.431 2.5103 254.35 1.60109C253.27 0.69187 251.805 0.180039 250.276 0.17769H46.3699Z" fill="#EBEBEB"/>
<path d="M478.703 251.253H274.786C273.188 251.251 271.656 250.716 270.525 249.765C269.395 248.814 268.759 247.525 268.756 246.18V5.02862C268.773 3.6916 269.415 2.41398 270.544 1.47269C271.673 0.531389 273.197 0.00226402 274.786 0H478.703C480.289 0.00462393 481.81 0.535067 482.935 1.47636C484.059 2.41765 484.698 3.69395 484.712 5.02862V246.18C484.712 247.523 484.079 248.81 482.953 249.761C481.827 250.712 480.299 251.248 478.703 251.253ZM274.786 0.17769C273.258 0.180039 271.793 0.69187 270.712 1.60109C269.631 2.5103 269.023 3.74279 269.02 5.02862V246.18C269.023 247.466 269.631 248.698 270.712 249.608C271.793 250.517 273.258 251.029 274.786 251.031H478.703C480.231 251.029 481.696 250.517 482.777 249.608C483.858 248.698 484.466 247.466 484.469 246.18V5.02862C484.466 3.74279 483.858 2.5103 482.777 1.60109C481.696 0.69187 480.231 0.180039 478.703 0.17769H274.786Z" fill="#EBEBEB"/>
<path d="M435.839 286.311H461.247V154.448H435.839V286.311Z" fill="#F0F0F0"/>
<path d="M304.048 290.869H458.649V286.32H304.048V290.869Z" fill="#F0F0F0"/>
<path d="M435.85 154.457H301.821V286.32H435.85V154.457Z" fill="#F5F5F5"/>
<path d="M431.277 223.116H306.393V246.66H431.277V223.116Z" fill="#F0F0F0"/>
<path d="M431.277 253.937H306.393V277.48H431.277V253.937Z" fill="#F0F0F0"/>
<path d="M318.77 224.902H418.901C419.589 224.902 420.147 224.432 420.147 223.853V222.725C420.147 222.146 419.589 221.677 418.901 221.677H318.77C318.081 221.677 317.523 222.146 317.523 222.725V223.853C317.523 224.432 318.081 224.902 318.77 224.902Z" fill="#F5F5F5"/>
<path d="M318.77 255.713H418.901C419.589 255.713 420.147 255.244 420.147 254.665V253.537C420.147 252.958 419.589 252.488 418.901 252.488H318.77C318.081 252.488 317.523 252.958 317.523 253.537V254.665C317.523 255.244 318.081 255.713 318.77 255.713Z" fill="#F5F5F5"/>
<path d="M431.277 161.725H306.393V185.268H431.277V161.725Z" fill="#F0F0F0"/>
<path d="M431.277 192.295H306.393V215.839H431.277V192.295Z" fill="#F0F0F0"/>
<path d="M318.77 163.51H418.901C419.589 163.51 420.147 163.04 420.147 162.461V161.333C420.147 160.754 419.589 160.285 418.901 160.285H318.77C318.081 160.285 317.523 160.754 317.523 161.333V162.461C317.523 163.04 318.081 163.51 318.77 163.51Z" fill="#F5F5F5"/>
<path d="M318.77 194.082H418.901C419.589 194.082 420.147 193.613 420.147 193.034V191.905C420.147 191.326 419.589 190.857 418.901 190.857H318.77C318.081 190.857 317.523 191.326 317.523 191.905V193.034C317.523 193.613 318.081 194.082 318.77 194.082Z" fill="#F5F5F5"/>
<path d="M239.178 192.375H223.971V290.878H239.178V192.375Z" fill="#F0F0F0"/>
<path d="M71.8516 290.878H223.971L223.971 192.376H71.8516L71.8516 290.878Z" fill="#F5F5F5"/>
<path d="M70.6472 282.224H206.514V229.539H70.6472V282.224Z" fill="#FAFAFA"/>
<path d="M70.6472 223.96H206.514V206.617H70.6472V223.96Z" fill="#FAFAFA"/>
<g style="mix-blend-mode:multiply" opacity="0.7">
<path d="M207.56 229.548H206.514V282.233H207.56V229.548Z" fill="#E6E6E6"/>
</g>
<g style="mix-blend-mode:multiply" opacity="0.7">
<path d="M207.56 206.609H206.514V223.951H207.56V206.609Z" fill="#E6E6E6"/>
</g>
<g style="mix-blend-mode:multiply" opacity="0.7">
<path d="M239.178 196.534H71.5137V198.764H239.178V196.534Z" fill="#E6E6E6"/>
</g>
<path d="M240.962 191.025H223.971V197.467H240.962V191.025Z" fill="#F0F0F0"/>
<path d="M70.0775 197.476L223.971 197.476V191.034L70.0775 191.034V197.476Z" fill="#F5F5F5"/>
<path d="M87.5649 127.333L327.334 127.333V22.2646L87.5649 22.2646L87.5649 127.333Z" fill="#E6E6E6"/>
<path d="M72.3162 18.1782H336.532C336.903 18.1829 337.258 18.3104 337.519 18.5331C337.78 18.7559 337.926 19.0561 337.926 19.3687C337.923 19.683 337.773 19.9835 337.508 20.2048C337.242 20.4262 336.884 20.5504 336.511 20.5504H72.3162C71.9427 20.5504 71.5844 20.4262 71.3193 20.2048C71.0542 19.9835 70.9039 19.683 70.9011 19.3687C70.9011 19.053 71.0502 18.7502 71.3156 18.5269C71.581 18.3037 71.9409 18.1782 72.3162 18.1782Z" fill="#E6E6E6"/>
<path d="M81.5246 127.333L324.504 127.333V22.2646L81.5246 22.2646L81.5246 127.333Z" fill="#F0F0F0"/>
<path d="M87.5543 127.333H327.323V130.7H83.3936L87.5543 127.333Z" fill="#E6E6E6"/>
<path d="M71.46 127.333H314.45L310.289 130.7H67.3098L71.46 127.333Z" fill="#F0F0F0"/>
<path d="M316.055 120.234V29.3809L89.9724 29.3809V120.234L316.055 120.234Z" fill="#FAFAFA"/>
<path d="M189.355 120.225L139.753 29.3721H116.342L165.943 120.225H189.355Z" fill="white"/>
<path d="M160.916 120.225L111.314 29.3721H102.18L151.781 120.225H160.916Z" fill="white"/>
<path d="M91.0498 120.225V29.3721H89.9727V120.225H91.0498Z" fill="#E6E6E6"/>
<g opacity="0.4">
<path opacity="0.4" d="M315.949 102.749H330.49V16.0453H315.949V102.749Z" fill="#F0F0F0"/>
<path opacity="0.4" d="M310.289 102.749H321.62V16.0453H310.289V102.749Z" fill="#E6E6E6"/>
<path opacity="0.4" d="M301.419 102.749H315.96V16.0453H301.419V102.749Z" fill="#F0F0F0"/>
<path opacity="0.4" d="M295.748 102.749H307.079V16.0453H295.748V102.749Z" fill="#E6E6E6"/>
<path opacity="0.4" d="M286.867 102.749H301.408V16.0453H286.867V102.749Z" fill="#F0F0F0"/>
</g>
<g opacity="0.4">
<path opacity="0.4" d="M95.3804 102.749H103.765L103.765 16.0453H95.3804L95.3804 102.749Z" fill="#F0F0F0"/>
<path opacity="0.4" d="M92.1276 102.749H98.6538L98.6538 16.0453H92.1276L92.1276 102.749Z" fill="#E6E6E6"/>
<path opacity="0.4" d="M86.9949 102.749H95.3796L95.3796 16.0453H86.9949L86.9949 102.749Z" fill="#F0F0F0"/>
<path opacity="0.4" d="M83.7421 102.749H90.2683L90.2683 16.0453H83.7421L83.7421 102.749Z" fill="#E6E6E6"/>
<path opacity="0.4" d="M78.6206 102.749H87.0054L87.0054 16.0453H78.6206L78.6206 102.749Z" fill="#F0F0F0"/>
</g>
<path d="M374.908 116.377L454.405 116.377V26.9285L374.908 26.9285V116.377Z" fill="#E6E6E6"/>
<path d="M368.825 116.377L452.377 116.377V26.9285L368.825 26.9285V116.377Z" fill="#F5F5F5"/>
<path d="M445.375 32.8193H375.826V110.496H445.375V32.8193Z" fill="white"/>
<path d="M391.16 69.5566C391.16 69.5566 391.656 81.6573 410.601 81.6573C429.546 81.6573 430.053 69.5566 430.053 69.5566H391.16Z" fill="#F0F0F0"/>
<path d="M428.015 59.7216C428.021 60.4897 427.78 61.2449 427.318 61.9071C426.867 61.2444 426.216 60.6936 425.43 60.3105C424.645 59.9275 423.753 59.7257 422.846 59.7257C421.938 59.7257 421.046 59.9275 420.261 60.3105C419.475 60.6936 418.824 61.2444 418.373 61.9071C417.908 61.2456 417.663 60.4904 417.666 59.7216C417.666 58.567 418.211 57.4597 419.181 56.6432C420.152 55.8268 421.468 55.3682 422.84 55.3682C424.213 55.3682 425.529 55.8268 426.499 56.6432C427.47 57.4597 428.015 58.567 428.015 59.7216Z" fill="#F0F0F0"/>
<path d="M403.547 59.7215C403.553 60.4896 403.312 61.2448 402.85 61.9071C402.399 61.2422 401.748 60.6894 400.962 60.3049C400.175 59.9204 399.282 59.7179 398.372 59.7179C397.463 59.7179 396.569 59.9204 395.783 60.3049C394.996 60.6894 394.345 61.2422 393.895 61.9071C393.497 61.3292 393.262 60.682 393.209 60.0156C393.156 59.3492 393.286 58.6815 393.589 58.0641C393.892 57.4468 394.36 56.8963 394.956 56.4554C395.552 56.0144 396.261 55.6948 397.027 55.5212C397.794 55.3476 398.598 55.3247 399.376 55.4544C400.155 55.584 400.888 55.8626 401.518 56.2687C402.149 56.6747 402.659 57.1974 403.011 57.7961C403.363 58.3948 403.546 59.0536 403.547 59.7215Z" fill="#F0F0F0"/>
<path d="M358.19 131.552C358.418 130.179 358.35 128.783 357.99 127.43C357.668 126.13 357.168 124.866 356.501 123.663C356.194 123.052 355.842 122.459 355.445 121.886C355.077 121.302 354.671 120.736 354.23 120.189C353.776 119.647 353.375 119.07 352.9 118.537L351.432 116.955C350.949 116.416 350.431 115.9 349.88 115.409C349.352 114.894 348.824 114.37 348.285 113.872C347.134 112.904 346.067 111.864 344.885 110.887C343.702 109.91 342.572 108.897 341.368 107.911C340.164 106.925 338.95 105.93 337.82 104.81C339.424 105.335 340.996 105.928 342.53 106.587C344.039 107.283 345.502 108.048 346.912 108.879C347.649 109.283 348.354 109.725 349.024 110.203C349.7 110.665 350.355 111.145 351.01 111.616C352.284 112.628 353.479 113.708 354.589 114.85C356.889 117.171 358.564 119.884 359.5 122.801C359.954 124.279 360.111 125.811 359.965 127.332C359.853 128.851 359.238 130.312 358.19 131.552Z" fill="#E6E6E6"/>
<path d="M386.143 127.341C384.888 126.372 383.946 125.15 383.405 123.79C382.864 122.431 382.741 120.978 383.049 119.567C383.75 116.704 385.527 114.106 388.118 112.158C388.731 111.669 389.396 111.269 390.04 110.834C390.667 110.39 391.339 109.991 392.047 109.644C392.744 109.297 393.441 108.951 394.159 108.622C394.518 108.462 394.856 108.284 395.215 108.142L396.323 107.751C397.063 107.493 397.802 107.245 398.552 107.014L399.671 106.667C400.041 106.561 400.431 106.481 400.822 106.401C402.36 106.063 403.918 105.797 405.49 105.601C404.233 106.49 402.924 107.174 401.635 107.893C400.97 108.222 400.347 108.604 399.724 108.977C399.101 109.35 398.467 109.706 397.834 110.052C396.535 110.71 395.426 111.545 394.201 112.247C393.602 112.6 393.034 112.989 392.501 113.411C391.952 113.81 391.36 114.166 390.853 114.592C388.787 116.136 387.156 118.048 386.08 120.189C385.948 120.453 385.845 120.727 385.774 121.007C385.7 121.282 385.594 121.558 385.52 121.842C385.402 122.429 385.349 123.024 385.362 123.619C385.373 124.888 385.637 126.146 386.143 127.341Z" fill="#E6E6E6"/>
<path d="M384.866 127.342C383.777 126.191 382.943 124.885 382.405 123.486C382.143 122.775 381.935 122.051 381.782 121.318C381.708 120.954 381.645 120.581 381.581 120.207C381.518 119.834 381.581 119.461 381.581 119.079C381.533 116.023 382.456 113.011 384.253 110.355L385.689 108.444C386.238 107.849 386.83 107.289 387.411 106.73L388.287 105.895L389.28 105.166C389.945 104.677 390.621 104.207 391.286 103.745C392.706 102.915 394.18 102.153 395.7 101.461C397.261 100.866 398.857 100.341 400.484 99.8887C399.291 100.955 398.045 101.879 396.809 102.803C395.574 103.727 394.486 104.757 393.367 105.717C392.849 106.232 392.311 106.739 391.793 107.227L390.991 107.965L390.304 108.764C389.85 109.297 389.354 109.804 388.91 110.337L387.717 111.998C386.206 114.238 385.183 116.687 384.697 119.23C384.18 121.921 384.238 124.668 384.866 127.342Z" fill="#E6E6E6"/>
<path d="M359.711 128.826C360.704 125.716 361.823 122.713 362.827 119.719C363.83 116.725 364.875 113.757 365.815 110.781C366.755 107.805 367.526 104.802 368.212 101.781C368.899 98.7604 369.268 95.6953 369.585 92.4702C370.841 95.5435 371.431 98.7813 371.328 102.03C371.19 105.267 370.635 108.481 369.67 111.616C368.69 114.725 367.375 117.753 365.741 120.661C364.132 123.578 362.108 126.32 359.711 128.826Z" fill="#E6E6E6"/>
<path d="M360.957 128.328C362.51 125.254 364.189 122.322 365.836 119.39C367.483 116.458 369.152 113.562 370.747 110.648C372.341 107.733 373.862 104.802 375.287 101.825C376.713 98.8489 377.938 95.8282 379.131 92.6387C379.502 95.9784 379.213 99.3468 378.276 102.607C377.336 105.854 376.024 109.017 374.358 112.051C372.7 115.06 370.754 117.952 368.539 120.696C366.351 123.465 363.809 126.024 360.957 128.328Z" fill="#E6E6E6"/>
<path d="M356.089 132.157C358.423 129.491 360.831 126.915 363.217 124.365C365.604 121.815 368.001 119.31 370.324 116.769C372.647 114.228 374.918 111.651 377.093 109.022C379.269 106.392 381.317 103.691 383.282 100.786C382.753 104.112 381.575 107.342 379.797 110.345C378.012 113.332 375.89 116.167 373.461 118.812C371.041 121.432 368.375 123.883 365.488 126.142C362.627 128.431 359.475 130.448 356.089 132.157Z" fill="#E6E6E6"/>
<path d="M363.407 127.768C365.688 125.36 367.98 123.086 370.229 120.785C372.478 118.484 374.654 116.2 376.776 113.873C378.899 111.545 380.884 109.155 382.817 106.703C384.749 104.251 386.428 101.683 388.255 98.9912C387.986 102.084 387.082 105.114 385.584 107.947C384.077 110.773 382.185 113.441 379.944 115.898C377.718 118.337 375.21 120.584 372.457 122.606C369.729 124.66 366.685 126.396 363.407 127.768Z" fill="#E6E6E6"/>
<path d="M357.567 130.602C358.874 128.399 359.498 125.954 359.384 123.494C359.21 121.169 358.493 118.896 357.272 116.804L356.87 115.987L356.353 115.196L355.297 113.606C354.505 112.593 353.776 111.527 352.952 110.488C352.129 109.448 351.284 108.417 350.407 107.378C349.531 106.339 348.612 105.308 347.799 104.144C349.183 104.77 350.52 105.467 351.801 106.232C353.052 107.033 354.244 107.896 355.371 108.817C355.94 109.285 356.473 109.784 356.965 110.31C357.472 110.825 358.021 111.349 358.465 111.882L359.753 113.615C359.954 113.908 360.165 114.201 360.366 114.503L360.862 115.445C361.206 116.077 361.502 116.727 361.749 117.391C361.96 118.066 362.182 118.741 362.351 119.425C362.52 120.109 362.531 120.838 362.583 121.54C362.636 122.242 362.499 122.97 362.414 123.663C362.217 125.038 361.684 126.364 360.85 127.558C360.016 128.751 358.899 129.788 357.567 130.602Z" fill="#E6E6E6"/>
<path d="M359.785 127.359C360.776 124.868 361.449 122.295 361.792 119.683C362.121 117.249 361.906 114.784 361.158 112.416C360.795 111.251 360.278 110.125 359.616 109.057C359.321 108.497 358.898 107.991 358.56 107.449C358.222 106.907 357.768 106.392 357.304 105.903C355.391 103.813 353.301 101.842 351.052 100.004C354.258 100.803 357.198 102.221 359.637 104.144C360.904 105.13 362.006 106.257 362.911 107.494C363.369 108.119 363.779 108.769 364.136 109.439C364.482 110.122 364.774 110.822 365.013 111.536C365.915 114.379 365.864 117.378 364.865 120.198C363.943 122.917 362.192 125.386 359.785 127.359Z" fill="#E6E6E6"/>
<path d="M365.635 124.978L384.348 109.865L383.598 124.685L365.635 124.978Z" fill="#E6E6E6"/>
<path d="M345.169 123.37H394.897L388.392 154.456H351.685L345.169 123.37Z" fill="#F5F5F5"/>
<path d="M376.238 123.37H394.898L388.393 154.456H378.582L376.238 123.37Z" fill="#EBEBEB"/>
<path d="M264.005 331C377.086 331 468.756 326.497 468.756 320.943C468.756 315.388 377.086 310.886 264.005 310.886C150.924 310.886 59.2537 315.388 59.2537 320.943C59.2537 326.497 150.924 331 264.005 331Z" fill="#F5F5F5"/>
<path d="M413.956 299.879L413.167 304.648L414.213 304.771L415.002 300.001L413.956 299.879Z" fill="#BB6BD9"/>
<path d="M418.171 274.295L414.941 293.831L415.987 293.953L419.217 274.418L418.171 274.295Z" fill="#BB6BD9"/>
<path d="M417.127 264.633H353.555L360.102 304.329C360.821 308.699 363.396 312.702 367.35 315.599C371.304 318.496 376.37 320.091 381.613 320.09H389.069C394.312 320.091 399.379 318.496 403.332 315.599C407.286 312.702 409.861 308.699 410.58 304.329L417.127 264.633Z" fill="#BB6BD9"/>
<path d="M385.289 267.708C402.844 267.708 417.075 266.331 417.075 264.634C417.075 262.936 402.844 261.56 385.289 261.56C367.734 261.56 353.503 262.936 353.503 264.634C353.503 266.331 367.734 267.708 385.289 267.708Z" fill="#263238"/>
<path d="M395.363 247.984C376.524 244.635 383.747 212.917 396.25 189.275C408.922 165.358 416.885 160.427 426.41 161.174C436.157 161.947 425.048 188.858 420.275 205.472C415.501 222.086 417.223 251.875 395.363 247.984Z" fill="#BB6BD9"/>
<path opacity="0.4" d="M395.363 247.984C376.524 244.635 383.747 212.917 396.25 189.275C408.922 165.358 416.885 160.427 426.41 161.174C436.157 161.947 425.048 188.858 420.275 205.472C415.501 222.086 417.223 251.875 395.363 247.984Z" fill="white"/>
<path d="M393.896 265.504C393.775 265.504 393.66 265.464 393.575 265.392C393.489 265.321 393.442 265.223 393.442 265.122C393.642 236.896 401.89 195.477 416.674 174.332C416.736 174.242 416.837 174.177 416.956 174.15C417.075 174.124 417.201 174.138 417.308 174.189C417.409 174.243 417.482 174.327 417.512 174.425C417.541 174.522 417.525 174.626 417.466 174.714C402.735 195.752 394.572 236.994 394.381 265.122C394.38 265.174 394.366 265.226 394.341 265.273C394.316 265.321 394.28 265.364 394.234 265.399C394.189 265.435 394.136 265.462 394.078 265.48C394.019 265.498 393.958 265.507 393.896 265.504Z" fill="#263238"/>
<path d="M393.61 219.447C390.146 221.49 386.524 221.801 384.317 223.782C382.817 234.924 384.75 244.057 392.363 247.157C395.215 244.741 395.785 228.687 393.61 219.447Z" fill="#263238"/>
<path d="M393.431 202.655C392.787 219.749 401.742 248.597 379.396 248.552C360.134 248.552 359.448 216.248 365.974 190.937C372.585 165.349 381.572 152.911 391.076 152.005C394.951 151.64 396.208 156.873 396.282 164.39C390.009 164.825 388.362 166.069 388.362 166.069C391.024 166.466 393.657 166.988 396.25 167.633C396.007 178.747 393.779 193.3 393.431 202.655Z" fill="#BB6BD9"/>
<path d="M369.068 255.092C381.508 251.795 374.222 230.81 363.926 215.556C353.524 200.123 347.79 197.227 341.422 198.257C335.054 199.288 344.484 216.844 348.983 227.79C353.482 238.735 354.622 258.912 369.068 255.092Z" fill="#BB6BD9"/>
<path opacity="0.4" d="M369.068 255.092C381.508 251.795 374.222 230.81 363.926 215.556C353.524 200.123 347.79 197.227 341.422 198.257C335.054 199.288 344.484 216.844 348.983 227.79C353.482 238.735 354.622 258.912 369.068 255.092Z" fill="white"/>
<path d="M371.36 266.952C371.247 266.951 371.139 266.915 371.055 266.851C370.972 266.787 370.919 266.7 370.906 266.606C368.604 247.664 359.923 220.335 348.381 207.008C348.345 206.967 348.318 206.92 348.304 206.871C348.29 206.821 348.287 206.769 348.297 206.719C348.307 206.668 348.329 206.62 348.361 206.576C348.394 206.533 348.437 206.496 348.487 206.466C348.535 206.436 348.589 206.414 348.648 206.402C348.706 206.39 348.767 206.388 348.826 206.397C348.885 206.405 348.942 206.423 348.992 206.451C349.043 206.478 349.087 206.513 349.12 206.555C360.736 220.024 369.501 247.522 371.814 266.561C371.823 266.611 371.819 266.662 371.804 266.711C371.788 266.759 371.76 266.805 371.723 266.844C371.685 266.883 371.638 266.916 371.584 266.939C371.531 266.962 371.473 266.976 371.413 266.979L371.36 266.952Z" fill="#263238"/>
<path d="M382.152 265.966C382.045 265.968 381.94 265.938 381.857 265.881C381.774 265.824 381.718 265.744 381.698 265.655C375.024 237.998 372.975 196.045 382.331 172.786C382.372 172.69 382.455 172.612 382.564 172.567C382.672 172.522 382.797 172.515 382.912 172.546C382.969 172.562 383.022 172.587 383.067 172.621C383.113 172.654 383.15 172.695 383.176 172.74C383.203 172.786 383.218 172.835 383.222 172.886C383.225 172.936 383.217 172.987 383.197 173.035C373.894 196.134 375.942 237.936 382.595 265.504C382.608 265.554 382.608 265.605 382.597 265.655C382.585 265.705 382.562 265.752 382.529 265.794C382.495 265.836 382.452 265.872 382.402 265.9C382.352 265.928 382.295 265.948 382.236 265.957L382.152 265.966Z" fill="#263238"/>
<path d="M407.813 192.66C407.734 192.658 407.656 192.64 407.586 192.608C407.516 192.575 407.456 192.529 407.412 192.473C407.353 192.384 407.336 192.279 407.365 192.18C407.395 192.081 407.468 191.995 407.571 191.94C412.217 189.613 418.912 189.417 419.187 189.408C419.297 189.422 419.397 189.469 419.469 189.54C419.542 189.611 419.582 189.701 419.582 189.795C419.582 189.888 419.542 189.979 419.469 190.049C419.397 190.12 419.297 190.167 419.187 190.181C419.123 190.181 412.449 190.377 408.014 192.607C407.953 192.637 407.884 192.655 407.813 192.66Z" fill="#263238"/>
<path d="M400.781 214.596C400.685 214.595 400.592 214.569 400.514 214.521C400.437 214.473 400.378 214.406 400.348 214.33C399.268 211.705 398.559 208.982 398.236 206.218C398.233 206.168 398.242 206.118 398.262 206.071C398.282 206.023 398.314 205.98 398.354 205.943C398.394 205.906 398.443 205.875 398.497 205.854C398.551 205.833 398.609 205.821 398.669 205.818C398.729 205.815 398.789 205.821 398.846 205.838C398.903 205.855 398.955 205.881 398.999 205.915C399.044 205.949 399.08 205.99 399.104 206.036C399.129 206.082 399.143 206.132 399.144 206.183C399.491 208.874 400.199 211.524 401.256 214.081C401.293 214.178 401.284 214.283 401.231 214.374C401.178 214.465 401.085 214.535 400.971 214.57L400.781 214.596Z" fill="#263238"/>
<path d="M118.739 82.1997H115.37V318.758H118.739V82.1997Z" fill="#BB6BD9"/>
<path d="M115.476 161.76C114.88 161.758 114.31 161.558 113.888 161.204C113.467 160.849 113.229 160.369 113.227 159.868C113.227 159.366 113.464 158.885 113.885 158.53C114.307 158.175 114.879 157.976 115.476 157.976C115.772 157.974 116.066 158.023 116.34 158.117C116.614 158.212 116.863 158.351 117.073 158.527C117.283 158.703 117.45 158.912 117.564 159.142C117.677 159.372 117.736 159.619 117.736 159.868C117.733 160.371 117.494 160.852 117.07 161.207C116.647 161.561 116.073 161.76 115.476 161.76Z" fill="#BB6BD9"/>
<path d="M130.007 320.091H104.082C104.082 319.384 104.416 318.706 105.01 318.206C105.604 317.706 106.41 317.425 107.25 317.425H126.828C127.669 317.425 128.474 317.706 129.069 318.206C129.663 318.706 129.996 319.384 129.996 320.091H130.007Z" fill="#BB6BD9"/>
<path d="M141.243 135.284H92.856C92.2485 135.278 91.6497 135.162 91.1005 134.943C90.5512 134.724 90.0646 134.409 89.6736 134.017C89.2827 133.626 88.9967 133.168 88.8351 132.676C88.6736 132.183 88.6403 131.666 88.7376 131.162L97.8404 86.9171C98.0153 86.1012 98.5238 85.3624 99.2779 84.8286C100.032 84.2948 100.984 83.9996 101.969 83.9941H132.129C133.113 84.0017 134.063 84.2978 134.814 84.8314C135.566 85.3651 136.073 86.1027 136.248 86.9171L145.361 131.162C145.458 131.666 145.425 132.183 145.264 132.676C145.102 133.168 144.816 133.626 144.425 134.017C144.034 134.409 143.548 134.724 142.998 134.943C142.449 135.162 141.85 135.278 141.243 135.284Z" fill="#BB6BD9"/>
<path opacity="0.6" d="M141.243 135.284H92.856C92.2485 135.278 91.6497 135.162 91.1005 134.943C90.5512 134.724 90.0646 134.409 89.6736 134.017C89.2827 133.626 88.9967 133.168 88.8351 132.676C88.6736 132.183 88.6403 131.666 88.7376 131.162L97.8404 86.9171C98.0153 86.1012 98.5238 85.3624 99.2779 84.8286C100.032 84.2948 100.984 83.9996 101.969 83.9941H132.129C133.113 84.0017 134.063 84.2978 134.814 84.8314C135.566 85.3651 136.073 86.1027 136.248 86.9171L145.361 131.162C145.458 131.666 145.425 132.183 145.264 132.676C145.102 133.168 144.816 133.626 144.425 134.017C144.034 134.409 143.548 134.724 142.998 134.943C142.449 135.162 141.85 135.278 141.243 135.284Z" fill="white"/>
<path d="M271.523 9.43502L273.034 8.45772C273.684 8.04034 274.497 7.84423 275.311 7.90844C276.125 7.97265 276.88 8.29247 277.427 8.80422L280.035 11.2386C280.473 11.651 280.753 12.1652 280.838 12.7138C280.922 13.2623 280.808 13.8196 280.51 14.3126L279.845 15.4854C279.391 16.2277 278.728 16.8657 277.915 17.3441C277.102 17.8224 276.162 18.1268 275.177 18.2307L270.953 18.6838C269.852 18.8019 268.734 18.7099 267.681 18.4146C266.628 18.1193 265.667 17.6282 264.871 16.9779L263.878 16.1783C265.789 12.3314 271.523 9.43502 271.523 9.43502Z" fill="#FFC3BD"/>
<path d="M221.912 66.7842L221.986 65.5671L222.071 64.4565C222.144 63.728 222.239 62.9994 222.335 62.2798C222.525 60.8405 222.789 59.419 223.074 57.9886C223.661 55.1381 224.437 52.3174 225.397 49.5395C226.358 46.7213 227.543 43.9609 228.945 41.2769C230.354 38.5225 232.039 35.8742 233.982 33.3608C234.625 32.538 235.349 31.7623 236.147 31.042C236.823 30.4112 237.488 29.8781 238.154 29.3539C239.463 28.3322 240.773 27.3993 242.071 26.502C244.68 24.7251 247.352 23.0815 250.013 21.4823C255.339 18.3237 260.851 15.394 266.529 12.7044C267.305 12.3384 268.214 12.2227 269.084 12.3788C269.954 12.5349 270.728 12.9522 271.259 13.5528C271.791 14.1534 272.044 14.8962 271.972 15.6425C271.901 16.3889 271.508 17.0877 270.869 17.6086C266.297 21.3401 261.587 24.9916 257.035 28.6431C254.754 30.42 252.515 32.3124 250.372 34.1338C249.316 35.0222 248.26 35.964 247.352 36.8613C246.908 37.3055 246.465 37.7497 246.105 38.1495C245.834 38.4264 245.594 38.7239 245.387 39.038C242.772 43.3708 240.787 47.9526 239.474 52.6846C238.777 55.0923 238.185 57.5444 237.71 60.0143C237.467 61.2492 237.267 62.4841 237.077 63.7191L236.823 65.5671L236.707 66.4555L236.622 67.264V67.575C236.439 69.1796 235.517 70.6603 234.053 71.7005C232.589 72.7408 230.7 73.2582 228.789 73.1422C226.878 73.0262 225.096 72.286 223.825 71.0797C222.554 69.8734 221.894 68.2967 221.986 66.6865L221.912 66.7842Z" fill="#FFC3BD"/>
<path d="M287.396 37.3145C305.433 50.117 281.64 62.0133 298.421 75.7221C315.201 89.4309 327.767 99.3104 314.007 113.099C302.93 124.196 270.246 129.811 246.074 111.784C221.902 93.7576 259.464 80.884 242.114 70.116C224.763 59.348 246.76 35.3866 253.096 33.2365C252.611 21.5801 281.45 19.9986 287.396 37.3145Z" fill="#263238"/>
<path d="M330.174 110.069C330.098 110.082 330.019 110.082 329.942 110.069C318.875 105.627 317.027 98.635 315.242 91.8561C313.542 85.4149 311.8 78.7515 302.412 73.6962C288.588 66.251 291.429 59.4278 293.964 53.4041C296.34 47.6914 298.399 42.7427 286.656 37.8473C286.529 37.7939 286.432 37.7005 286.387 37.5873C286.341 37.4742 286.351 37.3505 286.413 37.2432C286.481 37.1374 286.594 37.0573 286.729 37.0193C286.865 36.9813 287.012 36.9883 287.142 37.0389C299.729 42.3074 297.427 47.8424 294.988 53.7061C292.549 59.5699 289.919 65.869 303.024 72.9322C312.782 78.1918 314.588 85.0328 316.33 91.6607C318.136 98.5284 319.847 104.987 330.438 109.243C330.567 109.295 330.666 109.388 330.714 109.501C330.761 109.614 330.753 109.739 330.692 109.847C330.641 109.923 330.565 109.984 330.473 110.023C330.381 110.063 330.277 110.079 330.174 110.069Z" fill="#263238"/>
<path d="M204.53 108.026C204.53 108.026 189.524 146.914 180.907 174.758C179.851 178.181 179.332 181.705 179.365 185.241C179.693 213.885 180.421 270.906 180.421 270.906L188.521 271.838C188.521 271.838 208.416 209.647 203.485 186.299C231.575 144.195 239.981 122.499 239.981 122.499L204.53 108.026Z" fill="#263238"/>
<path opacity="0.2" d="M217.762 140.641L225.534 150.849C222.345 156.458 218.494 162.876 213.981 170.102C214.562 161.629 213.637 153.131 211.235 144.888L217.762 140.641Z" fill="black"/>
<path d="M209.619 131.49C205.966 137.274 207.592 143.839 211.193 149.641C218.078 160.72 233.971 179.182 241.743 196.329C248.344 210.899 317.238 237.446 324.905 242.795L330.533 238.104C330.533 238.104 284.069 193.175 264.479 190.341C258.788 134.253 239.051 119.345 239.051 119.345C225.227 117.221 215.755 121.788 209.619 131.49Z" fill="#263238"/>
<path d="M334.409 237.082C331.948 236.567 329.794 234.79 325.697 231.751C325.535 231.626 325.339 231.536 325.126 231.489C324.913 231.441 324.689 231.439 324.475 231.481C324.26 231.523 324.062 231.608 323.895 231.73C323.729 231.851 323.601 232.005 323.521 232.178C322.395 234.754 320.981 237.235 319.297 239.587C319.103 239.824 319.021 240.113 319.068 240.397C319.115 240.682 319.287 240.942 319.551 241.124C329.234 247.823 327.999 249.209 328.421 252.043C328.981 255.526 327.133 261.976 330.111 261.354C334.335 260.466 336.838 255.953 336.542 252.319C336.288 249.218 336.637 245.496 337.756 243.177C338.728 241.213 337.925 237.828 334.409 237.082Z" fill="#BB6BD9"/>
<path d="M191.667 274.77C190.611 272.682 190.611 270.985 193.632 263.416C193.697 263.258 193.722 263.091 193.703 262.925C193.683 262.759 193.621 262.598 193.521 262.454C193.42 262.31 193.284 262.187 193.12 262.092C192.957 261.997 192.771 261.933 192.576 261.905C189.587 261.55 183.23 260.875 179.903 261.141C179.722 261.154 179.546 261.196 179.385 261.267C179.223 261.337 179.081 261.434 178.964 261.551C178.848 261.669 178.761 261.805 178.709 261.951C178.656 262.097 178.638 262.251 178.657 262.403C179.323 268.098 175.69 277.818 167.675 282.34C164.253 284.268 166.566 285.894 169.565 285.503C174.465 284.925 177.739 282.731 181.487 281.06C183.874 279.985 186.461 280.332 189.249 279.568C189.821 279.432 190.35 279.19 190.796 278.859C191.242 278.528 191.594 278.117 191.826 277.657C192.058 277.197 192.165 276.698 192.137 276.198C192.11 275.699 191.949 275.211 191.667 274.77Z" fill="#BB6BD9"/>
<path d="M220.465 68.8191C218.85 71.9731 208.923 76.753 213.696 83.8161C210.94 90.4084 208.416 96.9829 204.53 108.026L241.892 123.281C245.461 113.792 251.607 103.842 268.049 85.9662C268.947 84.986 269.59 83.8582 269.936 82.6556C270.283 81.4531 270.325 80.2027 270.06 78.9856C269.795 77.7685 269.229 76.6118 268.399 75.5905C267.569 74.5692 266.493 73.706 265.24 73.057C263.825 72.3196 262.305 71.5644 260.721 70.8448C255.272 68.1987 249.604 65.8857 243.761 63.9238C241.85 63.3107 239.843 62.7332 237.911 62.2091C234.546 61.2968 230.899 61.4678 227.676 62.6891C224.453 63.9103 221.883 66.0948 220.465 68.8191Z" fill="#BB6BD9"/>
<path d="M243.761 63.888C239.347 62.3066 235.587 56.2296 237.361 51.2632C231.279 51.5919 224.108 54.817 221.606 59.508C220.613 64.3056 220.55 73.8475 220.55 73.8475L243.761 63.888Z" fill="#BB6BD9"/>
<path d="M351.126 77.0638L352.657 76.1132C353.312 75.701 353.759 75.0962 353.907 74.4195C354.056 73.7427 353.896 73.0437 353.46 72.4616L351.348 69.6897C350.997 69.2205 350.485 68.8521 349.879 68.6331C349.274 68.4142 348.604 68.3551 347.958 68.4636L346.427 68.7124C345.453 68.8766 344.542 69.2385 343.773 69.7665C343.004 70.2945 342.399 70.9727 342.012 71.742L340.344 75.0204C339.908 75.8783 339.708 76.8077 339.757 77.7397C339.807 78.6717 340.105 79.5824 340.629 80.4044L341.284 81.4261C346.247 80.9108 351.126 77.0638 351.126 77.0638Z" fill="#FFC3BD"/>
<path d="M264.005 74.9758L283.773 76.7527C287.058 77.0281 290.342 77.3302 293.594 77.5701L298.441 77.8899C300.015 77.9877 301.747 78.0676 302.824 78.0587C305.749 77.9521 309.16 77.7034 312.381 77.4102L322.307 76.5217C328.96 75.9265 335.666 75.3312 342.372 74.9048C343.266 74.8464 344.155 75.066 344.869 75.522C345.584 75.978 346.075 76.6387 346.25 77.379C346.424 78.1192 346.27 78.8876 345.816 79.5385C345.362 80.1894 344.64 80.6776 343.787 80.9107C337.303 82.6876 330.787 84.1979 324.198 85.575C320.903 86.268 317.587 86.9077 314.229 87.5118C310.871 88.116 307.555 88.6757 303.785 89.0488C301.493 89.2265 299.867 89.2354 298.082 89.2621C296.298 89.2887 294.576 89.2621 292.802 89.2621C289.349 89.1999 285.917 89.0933 282.506 88.9067C275.663 88.5513 268.936 88.0182 262.136 87.2186C260.369 86.8652 258.818 85.977 257.78 84.7234C256.742 83.4697 256.289 81.9384 256.507 80.4215C256.725 78.9047 257.599 77.5084 258.962 76.4991C260.326 75.4898 262.083 74.9381 263.899 74.9492L264.005 74.9758Z" fill="#FFC3BD"/>
<path d="M245.894 115.365C247.499 116.253 243.677 121.921 245.134 124.249C246.591 126.577 247.246 127.803 245.915 128.123C244.585 128.443 217.656 123.814 202.904 114.423C202.633 114.242 202.42 114.008 202.282 113.742C202.143 113.475 202.085 113.185 202.112 112.895C202.555 107.973 205.28 101.301 206.969 101.203C208.659 101.105 239.949 112.131 245.894 115.365Z" fill="#BB6BD9"/>
<path opacity="0.4" d="M245.894 115.365C247.499 116.253 243.677 121.921 245.134 124.249C246.591 126.577 247.246 127.803 245.915 128.123C244.585 128.443 217.656 123.814 202.904 114.423C202.633 114.242 202.42 114.008 202.282 113.742C202.143 113.475 202.085 113.185 202.112 112.895C202.555 107.973 205.28 101.301 206.969 101.203C208.659 101.105 239.949 112.131 245.894 115.365Z" fill="white"/>
<path d="M268.314 54.0527C264.596 58.2018 258.672 66.1801 260.721 70.8089C260.721 70.8089 247.373 67.3972 234.32 73.4742C235.007 64.3587 243.719 63.8523 243.719 63.8523C250.509 65.105 252.547 61.2492 253.54 57.2423L268.314 54.0527Z" fill="#FFC3BD"/>
<path opacity="0.2" d="M262.304 55.3682L253.592 57.2783C253.376 58.2151 253.062 59.1338 252.652 60.0236C255.145 60.69 259.569 59.8459 261.005 57.9002C261.618 57.1299 262.058 56.2717 262.304 55.3682Z" fill="black"/>
<path d="M278.25 48.9179C271.809 55.5191 269.359 59.2062 262.136 59.4905C249.78 59.9702 245.239 51.4944 248.312 45.373C251.987 38.1411 260.985 28.2171 271.196 30.2694C281.408 32.3217 284.682 42.3168 278.25 48.9179Z" fill="#FFC3BD"/>
<path d="M260.943 28.1103C261.502 33.2366 272.622 40.3886 276.16 42.0767C271.471 43.9602 269.38 52.3738 277.881 53.0846C286.382 53.7953 293.911 24.7786 260.943 28.1103Z" fill="#263238"/>
<path d="M251.84 44.5996C251.84 44.5996 255.177 45.2304 263.688 48.491C261.576 50.0191 258.799 50.8721 254.448 49.1751C250.097 47.4782 251.84 44.5996 251.84 44.5996Z" fill="#263238"/>
<path d="M257.352 48.4468C255.727 47.7376 253.896 47.4296 252.072 47.5584C252.666 48.2794 253.495 48.8408 254.459 49.1754C256.08 49.8936 257.914 50.2021 259.739 50.0638C259.151 49.3382 258.32 48.7755 257.352 48.4468Z" fill="#ED847E"/>
<path d="M252.252 44.689C252.207 44.9703 252.257 45.2564 252.395 45.5153C252.533 45.7742 252.754 45.9957 253.033 46.1549C255.564 47.1165 258.176 47.9183 260.848 48.5537C261.25 48.6847 261.683 48.7344 262.112 48.6989C262.541 48.6634 262.955 48.5437 263.319 48.3494C259.736 46.9124 256.038 45.6893 252.252 44.689Z" fill="white"/>
<path d="M258.967 39.0918C257.271 40.0088 255.434 40.7262 253.507 41.2241C253.792 42.459 255.556 43.0543 255.556 43.0543L258.967 39.0918Z" fill="#ED847E"/>
<path d="M275.684 55.4751C274.893 55.8626 274.014 56.1049 273.104 56.1861C272.193 56.2672 271.273 56.1854 270.404 55.9459C268.207 55.2707 268.746 53.0318 270.731 51.637C272.516 50.3754 275.8 49.2204 277.342 50.6686C278.883 52.1167 277.827 54.48 275.684 55.4751Z" fill="#FFC3BD"/>
<path d="M268.376 42.3792C268.35 42.3287 268.337 42.2743 268.337 42.2192C268.337 42.1642 268.35 42.1098 268.376 42.0593C268.639 41.5915 268.762 41.0771 268.737 40.5603C268.711 40.0435 268.536 39.5396 268.228 39.0919C268.16 39.002 268.136 38.8931 268.161 38.7885C268.187 38.6839 268.26 38.5919 268.366 38.5322C268.417 38.5008 268.475 38.4786 268.537 38.4669C268.599 38.4553 268.663 38.4544 268.726 38.4644C268.788 38.4744 268.847 38.495 268.9 38.525C268.952 38.555 268.997 38.5937 269.031 38.6388C269.424 39.1955 269.651 39.8234 269.696 40.4697C269.74 41.1159 269.599 41.7616 269.284 42.3525C269.233 42.451 269.138 42.5286 269.02 42.5685C268.901 42.6084 268.769 42.6074 268.651 42.5657C268.592 42.5526 268.537 42.5292 268.49 42.4971C268.443 42.4649 268.404 42.4247 268.376 42.3792Z" fill="#263238"/>
<path d="M264.406 42.6455C264.34 42.5917 264.302 42.5183 264.3 42.4411C264.313 42.0832 264.223 41.728 264.04 41.405C263.856 41.082 263.583 40.8006 263.244 40.5843C263.172 40.5413 263.123 40.4763 263.107 40.4033C263.091 40.3302 263.11 40.2549 263.16 40.1933C263.183 40.1617 263.214 40.1344 263.251 40.1131C263.287 40.0919 263.328 40.077 263.372 40.0696C263.415 40.0621 263.46 40.0621 263.503 40.0696C263.547 40.0772 263.588 40.0921 263.624 40.1134C264.049 40.3844 264.391 40.7372 264.621 41.1422C264.851 41.5472 264.961 41.9926 264.944 42.4411C264.942 42.5173 264.904 42.5896 264.839 42.6427C264.774 42.6958 264.686 42.7254 264.596 42.7254C264.524 42.7173 264.457 42.6892 264.406 42.6455Z" fill="#263238"/>
<path d="M257.721 37.661C257.676 37.6643 257.629 37.6596 257.586 37.6474C257.542 37.6352 257.502 37.6156 257.468 37.5899C257.154 37.3528 256.778 37.181 256.371 37.0884C255.964 36.9958 255.537 36.985 255.123 37.0568C255.082 37.0677 255.038 37.0715 254.995 37.068C254.951 37.0645 254.909 37.0538 254.871 37.0364C254.833 37.019 254.799 36.9954 254.771 36.9668C254.744 36.9383 254.724 36.9055 254.712 36.8703C254.685 36.7984 254.694 36.7207 254.735 36.654C254.777 36.5874 254.848 36.5374 254.933 36.5149C255.454 36.4133 255.995 36.4193 256.512 36.5322C257.029 36.6452 257.505 36.8618 257.901 37.1635C257.963 37.2167 257.998 37.2885 257.998 37.3634C257.998 37.4382 257.963 37.51 257.901 37.5633C257.853 37.6096 257.791 37.6435 257.721 37.661Z" fill="#263238"/>
<path d="M257.573 33.379C257.515 33.3618 257.461 33.3348 257.416 33.2997C257.371 33.2646 257.334 33.222 257.309 33.1747C257.258 33.0755 257.255 32.9636 257.301 32.8625C257.346 32.7615 257.436 32.6791 257.552 32.6327C258.243 32.3495 259.005 32.2105 259.773 32.2275C260.542 32.2445 261.294 32.417 261.966 32.7305C262.075 32.7873 262.153 32.8781 262.182 32.9829C262.212 33.0877 262.191 33.1982 262.125 33.2902C262.055 33.3823 261.945 33.4478 261.819 33.4727C261.693 33.4977 261.56 33.48 261.449 33.4234C260.913 33.1806 260.316 33.0498 259.707 33.042C259.099 33.0343 258.497 33.1499 257.953 33.379C257.893 33.401 257.829 33.4124 257.763 33.4124C257.698 33.4124 257.633 33.401 257.573 33.379Z" fill="#263238"/>
<path opacity="0.2" d="M228.565 83.1406C230.764 87.7318 234.717 91.5765 239.801 94.0685C230.719 92.5937 228.269 86.5434 228.565 83.1406Z" fill="black"/>
<path d="M260.721 70.8091C265.62 73.5544 279.085 74.5761 283.562 74.8426C283.711 74.8455 283.857 74.8828 283.982 74.9505C284.108 75.0183 284.209 75.1138 284.275 75.2267C284.34 75.3395 284.367 75.4653 284.353 75.5903C284.34 75.7154 284.285 75.8348 284.196 75.9354C282.168 77.7123 275.547 85.584 275.283 89.5287C275.256 89.9249 275.076 90.3029 274.772 90.6057C274.467 90.9086 274.053 91.1199 273.593 91.2079C260.583 93.5978 254.648 92.3007 252.209 89.4754C249.653 86.5169 260.721 70.8091 260.721 70.8091Z" fill="#BB6BD9"/>
</svg>
