<svg width="35" height="35" viewBox="0 0 35 35" fill="none" xmlns="http://www.w3.org/2000/svg">
<path d="M17.3603 0.000694188C16.4819 0.00853434 15.5925 0.083119 14.699 0.228037C5.16868 1.77383 -1.31804 10.7708 0.227765 20.3011C1.77357 29.8314 10.772 36.318 20.3024 34.7722C29.8328 33.2264 36.318 24.2295 34.7722 14.6992C33.3713 6.06238 25.8516 -0.0750943 17.3603 0.000694188ZM17.3752 1.52077C25.1377 1.44746 31.9899 7.04168 33.2714 14.9429C34.6856 23.6615 28.7774 31.8559 20.0587 33.27C11.3401 34.6841 3.14416 28.776 1.73002 20.0574C0.315877 11.3388 6.22408 3.14442 14.9427 1.73028C15.7601 1.59771 16.5721 1.52835 17.3752 1.52077ZM7.60976 9.89233V10.6531V25.1079H27.3902V9.89233H7.60976ZM9.13134 11.4139H25.8686V12.1925C25.4873 12.5247 19.072 18.1151 18.5178 18.5982C18.1016 18.9599 17.6921 19.0217 17.5 19.0217C17.3087 19.0217 16.8977 18.9608 16.4806 18.5982C15.9302 18.1191 9.51279 12.525 9.13134 12.1925V11.4139ZM9.13134 14.2118C10.1416 15.0925 11.4175 16.2029 13.1463 17.7096L9.13134 20.885V14.2118ZM25.8686 14.2118V20.8865L21.8522 17.7111C23.581 16.2046 24.8573 15.0931 25.8686 14.2118ZM14.3127 18.7275C14.6584 19.0287 15.3936 19.6698 15.4821 19.7468C16.2062 20.3763 16.9822 20.5433 17.5 20.5433C18.0167 20.5433 18.7935 20.3775 19.5178 19.7468V19.7453C19.6056 19.6688 20.3411 19.0279 20.6858 18.7275L25.8686 22.8256V23.5864H9.13134V22.8256L14.3127 18.7275Z" fill="#1877F2"/>
</svg>
