<svg width="35" height="35" viewBox="0 0 35 35" fill="none" xmlns="http://www.w3.org/2000/svg">
<path d="M17.5 0C7.84403 0 0 7.84403 0 17.5C0 27.156 7.84403 35 17.5 35C27.156 35 35 27.156 35 17.5C35 7.84403 27.156 0 17.5 0ZM17.5 1.52174C26.3336 1.52174 33.4783 8.66644 33.4783 17.5C33.4783 26.3336 26.3336 33.4783 17.5 33.4783C8.66644 33.4783 1.52174 26.3336 1.52174 17.5C1.52174 8.66644 8.66644 1.52174 17.5 1.52174Z" fill="#E49231"/>
<path d="M23.9068 7.61037C23.5709 7.62968 22.5174 7.66304 20.9135 8.44436C19.3097 9.22393 17.1082 10.7409 14.2448 13.7187C11.3815 16.6965 9.92116 18.9878 9.17156 20.6558C8.42197 22.3221 8.3882 23.4177 8.36963 23.7671V23.7899C8.36963 24.1937 8.56547 24.4694 8.7917 24.7784C9.01793 25.0857 9.30662 25.4 9.60882 25.702C10.2149 26.3059 10.8632 26.8467 11.1604 27.0662C11.8441 27.5754 12.646 27.456 13.0107 26.9222C13.2724 26.543 15.2561 23.4089 15.5533 22.898C15.8555 22.4222 15.7339 21.8568 15.4587 21.3318C15.251 20.9368 14.6669 19.8798 14.4964 19.5725C14.645 19.3372 15.219 18.4611 17.0119 16.5965L17.0136 16.5947V16.593C18.8133 14.6897 19.6524 14.1208 19.8702 13.9786C20.1589 14.1507 21.1583 14.7494 21.5517 14.9741C22.0312 15.2726 22.5849 15.3692 23.0458 15.0953L23.0509 15.0935L23.0543 15.09C23.2856 14.946 24.1449 14.3649 25.0262 13.7626C25.4668 13.4624 25.9041 13.1622 26.2519 12.9234C26.5946 12.6846 26.8259 12.5248 26.9407 12.4353C27.4522 12.056 27.5687 11.2238 27.0791 10.5109C26.8698 10.2072 26.3515 9.52066 25.769 8.88506C25.4786 8.56727 25.1747 8.26527 24.8759 8.03C24.5788 7.79648 24.3053 7.5893 23.9068 7.61037ZM23.9507 8.50757C23.9102 8.50933 24.1196 8.562 24.3542 8.74636C24.5906 8.93247 24.8709 9.20813 25.1427 9.50486C25.6863 10.0983 26.2063 10.7883 26.3751 11.0341C26.6435 11.4239 26.4561 11.6908 26.4393 11.7031L26.4342 11.7084L26.4291 11.7101C26.392 11.7417 26.1185 11.9349 25.7724 12.1736C25.428 12.4124 24.9924 12.7127 24.5518 13.0112C23.6772 13.6081 22.7706 14.2191 22.6187 14.3157H22.617C22.5495 14.3543 22.2726 14.3736 21.9957 14.2016L21.989 14.1963L21.9805 14.1928C21.5855 13.9681 20.0593 13.0568 20.0593 13.0568L19.8449 12.9286L19.6304 13.0568C19.6304 13.0568 18.501 13.738 16.4008 15.9609C16.4008 15.9609 16.4008 15.9626 16.3991 15.9626C16.3991 15.9626 16.3991 15.9626 16.3991 15.9644C14.3005 18.1451 13.6134 19.3091 13.6134 19.3091L13.4817 19.5356L13.6084 19.7657C13.6084 19.7657 14.4846 21.3529 14.699 21.7637C14.8779 22.1044 14.8307 22.4046 14.8324 22.3993L14.8273 22.4081L14.8222 22.4186C14.65 22.7171 12.4232 26.2304 12.3067 26.4008C12.2949 26.4183 12.0366 26.6132 11.6635 26.334C11.4305 26.162 10.7737 25.6194 10.2065 25.0541C9.92453 24.7696 9.65947 24.4799 9.47883 24.2324C9.29987 23.9866 9.2374 23.7653 9.2374 23.7917C9.25597 23.3896 9.2661 22.5661 9.95492 21.0368C10.6505 19.4882 12.0467 17.276 14.856 14.3543C17.6653 11.4327 19.7908 9.98067 21.2799 9.25729C22.7689 8.53391 23.5675 8.52864 23.9507 8.50757Z" fill="#E49231" stroke="#E49231" stroke-width="0.75"/>
</svg>
