<svg width="35" height="35" viewBox="0 0 35 35" fill="none" xmlns="http://www.w3.org/2000/svg">
<path d="M17.4999 1.3999C8.61641 1.3999 1.3999 8.61641 1.3999 17.4999C1.3999 26.3834 8.61641 33.5999 17.4999 33.5999C26.3834 33.5999 33.5999 26.3834 33.5999 17.4999C33.5999 8.61641 26.3834 1.3999 17.4999 1.3999ZM17.4999 2.7999C25.6268 2.7999 32.1999 9.37303 32.1999 17.4999C32.1999 25.6268 25.6268 32.1999 17.4999 32.1999C9.37303 32.1999 2.7999 25.6268 2.7999 17.4999C2.7999 9.37303 9.37303 2.7999 17.4999 2.7999Z" fill="#34A85B"/>
<path d="M17.1498 9.7998C16.1962 9.7998 15.4138 10.5304 15.4138 11.4209C15.4138 12.3113 16.1962 13.0419 17.1498 13.0419C18.1034 13.0419 18.8858 12.3113 18.8858 11.4209C18.8858 10.5304 18.1034 9.7998 17.1498 9.7998ZM17.1498 10.6103C17.6343 10.6103 18.0178 10.9684 18.0178 11.4209C18.0178 11.8733 17.6343 12.2314 17.1498 12.2314C16.6653 12.2314 16.2818 11.8733 16.2818 11.4209C16.2818 10.9684 16.6653 10.6103 17.1498 10.6103ZM9.77183 11.0156C8.81821 11.0156 8.03584 11.7462 8.03584 12.6366C8.03584 13.5271 8.81821 14.2577 9.77183 14.2577C10.7255 14.2577 11.5078 13.5271 11.5078 12.6366C11.5078 11.7462 10.7255 11.0156 9.77183 11.0156ZM24.5278 11.0156C23.5742 11.0156 22.7918 11.7462 22.7918 12.6366C22.7918 13.5271 23.5742 14.2577 24.5278 14.2577C25.4814 14.2577 26.2638 13.5271 26.2638 12.6366C26.2638 11.7462 25.4814 11.0156 24.5278 11.0156ZM9.77183 11.8261C10.2564 11.8261 10.6398 12.1842 10.6398 12.6366C10.6398 13.0891 10.2564 13.4472 9.77183 13.4472C9.28731 13.4472 8.90384 13.0891 8.90384 12.6366C8.90384 12.1842 9.28731 11.8261 9.77183 11.8261ZM24.5278 11.8261C25.0123 11.8261 25.3958 12.1842 25.3958 12.6366C25.3958 13.0891 25.0123 13.4472 24.5278 13.4472C24.0433 13.4472 23.6598 13.0891 23.6598 12.6366C23.6598 12.1842 24.0433 11.8261 24.5278 11.8261ZM16.7158 13.4472C15.2829 13.4472 14.1118 14.5407 14.1118 15.8788V17.4998H12.8098C12.7523 17.499 12.6952 17.509 12.6418 17.529C12.5885 17.549 12.5399 17.5787 12.4989 17.6165C12.458 17.6542 12.4255 17.6991 12.4033 17.7486C12.3811 17.7982 12.3696 17.8514 12.3696 17.9051C12.3696 17.9588 12.3811 18.0119 12.4033 18.0615C12.4255 18.111 12.458 18.156 12.4989 18.1937C12.5399 18.2314 12.5885 18.2611 12.6418 18.2811C12.6952 18.3012 12.7523 18.3111 12.8098 18.3103H14.1118H20.1878H21.4898C21.5473 18.3111 21.6044 18.3012 21.6578 18.2811C21.7111 18.2611 21.7597 18.2314 21.8007 18.1937C21.8416 18.156 21.8741 18.111 21.8963 18.0615C21.9185 18.0119 21.93 17.9588 21.93 17.9051C21.93 17.8514 21.9185 17.7982 21.8963 17.7486C21.8741 17.6991 21.8416 17.6542 21.8007 17.6165C21.7597 17.5787 21.7111 17.549 21.6578 17.529C21.6044 17.509 21.5473 17.499 21.4898 17.4998H20.1878V15.8788C20.1878 14.5407 19.0167 13.4472 17.5838 13.4472H16.7158ZM16.7158 14.2577H17.5838C18.5474 14.2577 19.3198 14.9789 19.3198 15.8788V17.4998H14.9798V15.8788C14.9798 14.9789 15.7522 14.2577 16.7158 14.2577ZM9.77183 14.663C8.81819 14.663 8.03584 15.3935 8.03584 16.284C8.03584 16.2843 8.03584 16.2845 8.03584 16.2848L8.04008 20.0327C8.04015 20.0438 8.04072 20.0549 8.04177 20.0659C8.11666 20.9025 8.87297 21.5524 9.77183 21.5524H11.9418V23.984C11.9418 24.6507 12.5299 25.1998 13.2438 25.1998C13.9578 25.1998 14.5458 24.6507 14.5458 23.984V20.7419C14.5458 19.8517 13.7631 19.1209 12.8098 19.1209H11.5078V16.284C11.5079 16.2689 11.507 16.2539 11.5053 16.2389C11.4048 15.3963 10.7201 14.663 9.77183 14.663ZM24.5278 14.663C23.5795 14.663 22.8948 15.3963 22.7943 16.2389C22.7926 16.2539 22.7917 16.2689 22.7918 16.284V19.1209H21.4898C20.5365 19.1209 19.7538 19.8517 19.7538 20.7419V23.984C19.7538 24.6507 20.3418 25.1998 21.0558 25.1998C21.7697 25.1998 22.3578 24.6507 22.3578 23.984V21.5524H24.5278C25.4266 21.5524 26.1829 20.9025 26.2578 20.0659C26.2589 20.0549 26.2595 20.0438 26.2595 20.0327L26.2638 16.2848C26.2638 16.2845 26.2638 16.2843 26.2638 16.284C26.2638 15.3935 25.4814 14.663 24.5278 14.663ZM9.77183 15.4735C10.2597 15.4735 10.5752 15.8021 10.6398 16.3236V19.5261C10.6398 19.6336 10.6856 19.7367 10.767 19.8127C10.8483 19.8887 10.9587 19.9314 11.0738 19.9314H12.8098C13.2922 19.9314 13.6778 20.2915 13.6778 20.7419V23.984C13.6778 24.2122 13.4881 24.3893 13.2438 24.3893C12.9995 24.3893 12.8098 24.2122 12.8098 23.984V21.1472C12.8098 21.0397 12.7641 20.9366 12.6827 20.8606C12.6013 20.7846 12.4909 20.7419 12.3758 20.7419H9.77183C9.31798 20.7419 8.9479 20.4238 8.90807 20.0018L8.90384 16.2832C8.90429 15.8311 9.28749 15.4735 9.77183 15.4735ZM24.5278 15.4735C25.0124 15.4735 25.3958 15.8315 25.3958 16.284L25.3915 20.0018C25.3517 20.4238 24.9816 20.7419 24.5278 20.7419H21.9238C21.8087 20.7419 21.6983 20.7846 21.6169 20.8606C21.5355 20.9366 21.4898 21.0397 21.4898 21.1472V23.984C21.4898 24.2122 21.3001 24.3893 21.0558 24.3893C20.8115 24.3893 20.6218 24.2122 20.6218 23.984V20.7419C20.6218 20.2915 21.0074 19.9314 21.4898 19.9314H23.2258C23.3409 19.9314 23.4513 19.8887 23.5327 19.8127C23.614 19.7367 23.6598 19.6336 23.6598 19.5261V16.3236C23.7244 15.8021 24.0399 15.4735 24.5278 15.4735ZM6.72706 16.6837C6.61211 16.6854 6.50256 16.7296 6.42247 16.8066C6.34237 16.8836 6.29827 16.9872 6.29985 17.0945V20.3366C6.29985 21.8987 7.66506 23.1735 9.33783 23.1735H10.6398C10.6973 23.1743 10.7544 23.1643 10.8078 23.1443C10.8612 23.1243 10.9097 23.0945 10.9507 23.0568C10.9917 23.0191 11.0242 22.9742 11.0464 22.9247C11.0686 22.8751 11.08 22.8219 11.08 22.7682C11.08 22.7145 11.0686 22.6613 11.0464 22.6118C11.0242 22.5623 10.9917 22.5173 10.9507 22.4796C10.9097 22.4419 10.8612 22.4122 10.8078 22.3922C10.7544 22.3721 10.6973 22.3622 10.6398 22.363H9.33783C8.13407 22.363 7.16784 21.4607 7.16784 20.3366V17.0945C7.16864 17.0403 7.15777 16.9865 7.13589 16.9363C7.11401 16.886 7.08156 16.8404 7.04046 16.8021C6.99936 16.7638 6.95044 16.7336 6.89661 16.7133C6.84278 16.6929 6.78513 16.6829 6.72706 16.6837ZM27.559 16.6837C27.444 16.6854 27.3345 16.7296 27.2544 16.8066C27.1743 16.8836 27.1302 16.9872 27.1318 17.0945V20.3366C27.1318 21.4607 26.1655 22.363 24.9618 22.363H23.6598C23.6023 22.3622 23.5452 22.3721 23.4918 22.3922C23.4384 22.4122 23.3899 22.4419 23.3489 22.4796C23.308 22.5173 23.2754 22.5623 23.2532 22.6118C23.231 22.6613 23.2196 22.7145 23.2196 22.7682C23.2196 22.8219 23.231 22.8751 23.2532 22.9247C23.2754 22.9742 23.308 23.0191 23.3489 23.0568C23.3899 23.0945 23.4384 23.1243 23.4918 23.1443C23.5452 23.1643 23.6023 23.1743 23.6598 23.1735H24.9618C26.6346 23.1735 27.9998 21.8987 27.9998 20.3366V17.0945C28.0006 17.0403 27.9897 16.9865 27.9678 16.9363C27.9459 16.886 27.9135 16.8404 27.8724 16.8021C27.8313 16.7638 27.7824 16.7336 27.7285 16.7133C27.6747 16.6929 27.617 16.6829 27.559 16.6837Z" fill="#34A85B"/>
</svg>
