<svg width="35" height="35" viewBox="0 0 35 35" fill="none" xmlns="http://www.w3.org/2000/svg">
<path d="M17.5 0C7.84403 0 0 7.84403 0 17.5C0 27.156 7.84403 35 17.5 35C27.156 35 35 27.156 35 17.5C35 7.84403 27.156 0 17.5 0ZM17.5 1.52174C26.3336 1.52174 33.4783 8.66644 33.4783 17.5C33.4783 26.3336 26.3336 33.4783 17.5 33.4783C8.66644 33.4783 1.52174 26.3336 1.52174 17.5C1.52174 8.66644 8.66644 1.52174 17.5 1.52174Z" fill="#EB4335"/>
<path d="M17.8803 8.36963C16.7249 8.36963 15.7788 9.05471 15.7788 9.89137C15.7788 10.0875 15.8322 10.2777 15.9266 10.4501C12.9714 11.0059 11.0506 12.865 11.0506 15.2175C11.0506 18.197 10.0409 19.5538 9.08045 20.3177C8.60023 20.6996 8.12617 20.9314 7.71779 21.1499C7.51257 21.2583 7.32582 21.3668 7.15959 21.5065C6.99336 21.6462 6.84766 21.8453 6.84766 22.0653C6.84766 22.5884 7.29093 23.0327 7.9148 23.3255C8.53867 23.6182 9.35749 23.807 10.3446 23.9556C11.6252 24.1473 13.2054 24.2483 14.9415 24.3003C14.8102 24.553 14.7281 24.8249 14.7281 25.1088C14.7281 26.3645 16.1462 27.3914 17.8803 27.3914C19.6144 27.3914 21.0324 26.3645 21.0324 25.1088C21.0324 24.8234 20.9524 24.5515 20.819 24.3003C22.5552 24.2483 24.1354 24.1473 25.4159 23.9556C26.403 23.807 27.2219 23.6182 27.8457 23.3255C28.4696 23.0327 28.9129 22.5884 28.9129 22.0653C28.9129 21.8453 28.7672 21.6462 28.6009 21.5065C28.4347 21.3668 28.248 21.2583 28.0427 21.1499C27.6344 20.9314 27.1603 20.6996 26.6801 20.3177C25.7197 19.5538 24.71 18.197 24.71 15.2175C24.71 12.8665 22.785 11.0089 19.834 10.4501C19.9284 10.2777 19.9817 10.0875 19.9817 9.89137C19.9817 9.05471 19.0357 8.36963 17.8803 8.36963ZM17.8803 9.1305C18.4672 9.1305 18.931 9.46635 18.931 9.89137C18.931 10.3164 18.4672 10.6522 17.8803 10.6522C17.2933 10.6522 16.8295 10.3164 16.8295 9.89137C16.8295 9.46635 17.2933 9.1305 17.8803 9.1305ZM19.1116 11.104C21.9128 11.4651 23.6593 13.0329 23.6593 15.2175C23.6593 18.3248 24.751 19.9209 25.892 20.8289C26.4626 21.2821 27.0392 21.566 27.4189 21.7681C27.6077 21.8691 27.7493 21.9538 27.8129 22.0058C27.8765 22.0578 27.8621 22.0534 27.8621 22.0653C27.8621 22.3031 27.7103 22.4769 27.2711 22.6835C26.8319 22.8901 26.1178 23.0818 25.2025 23.2185C23.3719 23.4934 20.7657 23.587 17.8803 23.587C14.9949 23.587 12.3886 23.4934 10.558 23.2185C9.64275 23.0818 8.92858 22.8901 8.48941 22.6835C8.05024 22.4769 7.89838 22.3031 7.89838 22.0653C7.89838 22.0534 7.88402 22.0578 7.94763 22.0058C8.01125 21.9538 8.15285 21.8691 8.34166 21.7681C8.72131 21.566 9.29798 21.2821 9.86849 20.8289C11.0095 19.9209 12.1013 18.3248 12.1013 15.2175C12.1013 13.0344 13.8498 11.4785 16.6489 11.1159C16.9978 11.3017 17.4185 11.4131 17.8803 11.4131C18.3461 11.4131 18.7627 11.2927 19.1116 11.104ZM16.0743 24.3241C16.6633 24.333 17.2626 24.3479 17.8803 24.3479C18.498 24.3479 19.0972 24.333 19.6862 24.3241C19.8729 24.553 19.9817 24.8234 19.9817 25.1088C19.9817 25.9543 19.048 26.6305 17.8803 26.6305C16.7126 26.6305 15.7788 25.9543 15.7788 25.1088C15.7788 24.8205 15.8835 24.553 16.0743 24.3241Z" fill="#EB4335" stroke="#EB4335" stroke-width="0.75"/>
</svg>
