<svg width="170" height="151" viewBox="0 0 170 151" fill="none" xmlns="http://www.w3.org/2000/svg">
<path d="M85 0C75.5262 0 67.5219 4.13844 55.653 8.92973C43.784 13.721 27.8911 19.5044 3.03356 23.7869L0 24.308V26.7477C0 73.197 20.6971 104.212 41.4813 123.459C62.2654 142.706 83.3776 150.384 83.3776 150.384L85.083 151L86.7507 150.331C86.7507 150.331 170 116.663 170 26.7477V24.308L166.966 23.7869C142.109 19.5044 126.216 13.721 114.347 8.92973C102.478 4.13844 94.4738 0 85 0ZM85 6.06369C91.3594 6.06369 98.6922 9.43033 110.815 14.3243C122.323 18.9696 138.556 24.6024 162.024 28.9446C160.655 111.203 89.9376 142.008 84.9396 144.078C82.5262 143.158 65.8022 136.597 47.3824 119.539C27.9497 101.543 8.65579 72.6439 7.96875 28.9446C31.4412 24.6022 47.676 18.9701 59.1846 14.3243C71.3078 9.43033 78.6406 6.06369 85 6.06369ZM85 33.0542C72.25 33.0542 61.8182 41.541 61.8182 51.8493V57.3089H57.5697C53.3197 57.3089 50.2273 60.0388 50.2273 63.0706V93.6911C50.2273 97.0261 53.3197 99.7547 57.5697 99.7547H112.43C116.294 99.7547 119.773 97.0249 119.773 93.9931V63.0706C119.773 60.0388 116.68 57.3089 112.43 57.3089H108.182V51.8493C108.182 41.541 97.75 33.0542 85 33.0542ZM85 39.1179C93.5 39.1179 100.455 44.876 100.455 51.8493V57.3089H69.5455V51.8493C69.5455 44.876 76.5 39.1179 85 39.1179ZM57.9545 63.3726H112.045V93.6911H57.9545V63.3726ZM85 72.4682C81.9091 72.4682 79.5894 74.2884 79.5894 76.7139C79.5894 77.9267 80.3621 78.8362 81.5212 79.7458V83.6836C81.5212 85.1995 83.0682 86.4135 85 86.4135C86.9318 86.4135 88.4788 85.1995 88.4788 83.6836V79.7458C89.6379 78.8362 90.4106 77.9267 90.4106 76.7139C90.4106 74.2884 88.0909 72.4682 85 72.4682Z" fill="#F2C94C"/>
</svg>
