<svg width="214" height="178" viewBox="0 0 214 178" fill="none" xmlns="http://www.w3.org/2000/svg">
<path d="M50.0938 0.724976L20.875 35.0812L7.28125 24.0125L0.71875 30.9125L18.2188 45.2875L22.125 48.45L25.4063 44.5687L57.9063 6.47498L50.0938 0.724976ZM79 22V31.2H214V22H79ZM50.0938 65.125L20.875 99.4812L7.28125 88.4125L0.71875 95.3125L18.2188 109.687L22.125 112.85L25.4063 108.969L57.9063 70.875L50.0938 65.125ZM79 86.4V95.6H214V86.4H79ZM50.0938 129.525L20.875 163.881L7.28125 152.812L0.71875 159.712L18.2188 174.087L22.125 177.25L25.4063 173.369L57.9063 135.275L50.0938 129.525ZM79 150.8V160H214V150.8H79Z" fill="#9B51E0"/>
</svg>
