<svg width="250" height="230" viewBox="0 0 250 230" fill="none" xmlns="http://www.w3.org/2000/svg">
<path d="M99.6352 0C81.3074 0.35 67.9224 5.94922 59.7324 16.6992C49.9941 29.5492 48.1472 49.1047 54.2897 74.8047C52.0424 77.6047 50.3925 81.9 51.0417 87.5C52.3901 98.6 56.6342 103.101 60.2298 104.951C61.9777 113.701 66.6767 123.554 71.2711 128.154L71.3199 130.547C71.3199 135.647 71.3694 140.148 70.92 145.898C67.8237 152.998 57.686 157.049 45.9502 161.699C26.4239 169.449 2.15013 179.097 0.302368 209.697L0 215H151.369C149.122 211.9 147.175 208.55 145.527 205H10.9438C14.6892 184.9 32.4092 177.846 49.5884 170.996C63.2718 165.546 76.2132 160.45 80.508 148.75L80.8006 147.5C81.3499 140.9 81.3078 135.849 81.3078 130.449L81.259 125.801L81.3566 122.852L78.7035 121.396C76.5062 119.896 70.6703 109.696 69.6715 100.596L69.2716 96.4453L65.1262 96.1523C64.477 96.1023 61.9297 94.2488 60.9808 86.2988C60.4814 82.1988 62.4732 80.7531 62.4732 80.7031L65.6237 78.7988L64.6775 75.1953C58.5849 51.4953 59.6305 33.3539 67.7207 22.7539C73.9132 14.6039 84.701 10.3 99.7327 10C109.071 10 116.008 12.3477 118.255 16.3477L119.455 18.4961L121.903 18.8477C128.545 19.7477 133.244 22.5988 136.29 27.5488C144.081 40.0488 139.638 63.2023 135.793 74.9023L134.739 78.6035L137.89 80.7031C137.89 80.7531 139.881 82.1988 139.382 86.2988C138.433 94.2488 135.886 96.1023 135.237 96.1523L131.091 96.4453L130.691 100.596C129.693 109.746 124.057 119.948 122.059 121.348L119.357 122.754V130.498C119.307 135.848 119.256 140.9 119.855 147.5L120.108 148.75C123.404 157.65 131.69 162.75 141.528 167.1C142.227 163.8 143.225 160.6 144.473 157.5C137.382 154.3 131.843 150.848 129.745 145.898C129.246 140.148 129.295 135.697 129.345 130.547V128.096C133.84 123.496 138.435 113.701 140.133 104.951C143.729 103.101 148.023 98.6 149.321 87.5C149.97 82 148.378 77.75 146.18 75C148.827 65.8 154.163 42.9953 146.922 26.4453C147.371 26.0953 147.724 25.5988 148.024 25.0488C149.622 21.8988 155.461 20.15 164.849 20C172.39 20 178.133 21.8547 179.831 24.8047L181.031 26.9043L183.479 27.2461C189.272 27.9961 193.422 30.55 196.169 35C202.411 45.1 199.965 63.0043 196.969 71.9043L196.169 75.5957L199.114 77.7539C199.114 77.7539 200.361 78.6965 200.012 81.3965C199.313 86.9965 197.562 88.6012 197.212 88.7012L193.116 89.0527L192.667 93.1543C191.868 100.454 187.278 108.353 185.83 109.453L183.128 110.85L183.079 117.754C183.079 119.304 183.078 120.851 183.128 122.451C186.324 121.501 189.671 120.8 193.067 120.4V117.852L193.116 116.25C197.061 112.15 200.662 104.152 202.06 97.4023C205.156 95.7023 208.803 91.7465 209.902 82.6465C210.451 78.0465 209.204 74.5008 207.356 72.0508C210.253 61.5008 212.545 42.4973 204.655 29.6973C200.659 23.2973 194.77 19.2453 187.029 17.6953C182.834 12.6953 175.088 10 164.8 10C157.06 10.15 146.721 11.0988 141.128 17.5488C137.133 13.3488 131.943 10.5969 125.551 9.29688C120.807 3.29687 111.771 0 99.6352 0ZM200.06 130C172.594 130 150.121 152.5 150.121 180C150.121 207.5 172.594 230 200.06 230C227.527 230 250 207.5 250 180C250 152.5 227.527 130 200.06 130ZM200.06 140C222.034 140 240.012 158 240.012 180C240.012 202 222.034 220 200.06 220C178.087 220 160.109 202 160.109 180C160.109 158 178.087 140 200.06 140ZM195.067 150V177.5L177.09 190.996L183.079 199.004L205.054 182.5V150H195.067Z" fill="#BB6BD9"/>
</svg>
