<svg width="250" height="230" viewBox="0 0 250 230" fill="none" xmlns="http://www.w3.org/2000/svg">
<path d="M141.29 0.000892625C141.031 0.00730688 140.772 0.0329294 140.516 0.0775632H103.351C79.4145 0.0775632 59.894 20.2299 59.894 44.9408C59.894 69.6517 79.4145 89.8041 103.351 89.8041H140.463C141.049 89.9042 141.648 89.9042 142.235 89.8041H179.4C203.336 89.8041 222.856 69.6517 222.856 44.9408C222.856 20.2299 203.336 0.0775632 179.4 0.0775632H142.288C141.958 0.0204054 141.624 -0.00526014 141.29 0.000892625ZM103.351 11.2934C103.351 12.7807 103.923 14.2071 104.942 15.2588C105.96 16.3105 107.342 16.9013 108.783 16.9013C110.223 16.9013 111.605 16.3105 112.624 15.2588C113.642 14.2071 114.215 12.7807 114.215 11.2934H135.943V78.5883H114.215C114.215 77.101 113.642 75.6746 112.624 74.6229C111.605 73.5712 110.223 72.9804 108.783 72.9804C107.342 72.9804 105.96 73.5712 104.942 74.6229C103.923 75.6746 103.351 77.101 103.351 78.5883C85.44 78.5883 71.0243 63.8396 70.7794 45.4118C70.8937 46.8123 71.5132 48.1173 72.5153 49.0687C73.5174 50.02 74.8289 50.5482 76.1902 50.5487C77.6309 50.5487 79.0126 49.9579 80.0313 48.9062C81.05 47.8545 81.6223 46.4281 81.6223 44.9408C81.6223 43.4535 81.05 42.0271 80.0313 40.9754C79.0126 39.9238 77.6309 39.3329 76.1902 39.3329C74.8373 39.3322 73.5327 39.8528 72.532 40.7928C71.5312 41.7328 70.9062 43.0245 70.7794 44.4151C71.0524 26.0131 85.4579 11.2934 103.351 11.2934ZM146.807 11.2934H179.4C197.464 11.2934 211.992 26.2914 211.992 44.9408C211.992 63.5903 197.464 78.5883 179.4 78.5883H146.807V11.2934ZM92.4865 22.5092C91.0458 22.5092 89.6641 23.1 88.6454 24.1517C87.6267 25.2034 87.0544 26.6298 87.0544 28.1171C87.0544 29.6044 87.6267 31.0308 88.6454 32.0825C89.6641 33.1342 91.0458 33.725 92.4865 33.725C93.9272 33.725 95.3088 33.1342 96.3275 32.0825C97.3463 31.0308 97.9185 29.6044 97.9185 28.1171C97.9185 26.6298 97.3463 25.2034 96.3275 24.1517C95.3088 23.1 93.9272 22.5092 92.4865 22.5092ZM125.079 22.5092C123.638 22.5092 122.257 23.1 121.238 24.1517C120.219 25.2034 119.647 26.6298 119.647 28.1171C119.647 29.6044 120.219 31.0308 121.238 32.0825C122.257 33.1342 123.638 33.725 125.079 33.725C126.52 33.725 127.901 33.1342 128.92 32.0825C129.939 31.0308 130.511 29.6044 130.511 28.1171C130.511 26.6298 129.939 25.2034 128.92 24.1517C127.901 23.1 126.52 22.5092 125.079 22.5092ZM108.783 39.3329C107.342 39.3329 105.96 39.9238 104.942 40.9754C103.923 42.0271 103.351 43.4535 103.351 44.9408C103.351 46.4281 103.923 47.8545 104.942 48.9062C105.96 49.9579 107.342 50.5487 108.783 50.5487C110.223 50.5487 111.605 49.9579 112.624 48.9062C113.642 47.8545 114.215 46.4281 114.215 44.9408C114.215 43.4535 113.642 42.0271 112.624 40.9754C111.605 39.9238 110.223 39.3329 108.783 39.3329ZM92.4865 56.1567C91.0458 56.1567 89.6641 56.7475 88.6454 57.7992C87.6267 58.8509 87.0544 60.2772 87.0544 61.7646C87.0544 63.2519 87.6267 64.6783 88.6454 65.73C89.6641 66.7816 91.0458 67.3725 92.4865 67.3725C93.9272 67.3725 95.3088 66.7816 96.3275 65.73C97.3463 64.6783 97.9185 63.2519 97.9185 61.7646C97.9185 60.2772 97.3463 58.8509 96.3275 57.7992C95.3088 56.7475 93.9272 56.1567 92.4865 56.1567ZM125.079 56.1567C123.638 56.1567 122.257 56.7475 121.238 57.7992C120.219 58.8509 119.647 60.2772 119.647 61.7646C119.647 63.2519 120.219 64.6783 121.238 65.73C122.257 66.7816 123.638 67.3725 125.079 67.3725C126.52 67.3725 127.901 66.7816 128.92 65.73C129.939 64.6783 130.511 63.2519 130.511 61.7646C130.511 60.2772 129.939 58.8509 128.92 57.7992C127.901 56.7475 126.52 56.1567 125.079 56.1567ZM229.158 117.756C228.169 117.771 227.183 117.865 226.198 118.03C223.573 118.468 220.991 119.45 218.613 120.998L158.319 159.355C156.927 158.57 155.22 157.702 152.971 156.584C150.387 155.3 147.685 153.989 146.16 153.276C137.954 149.445 111.791 138.297 91.9348 129.3C83.4404 125.452 74.3615 123.485 65.273 123.397C56.1846 123.308 47.0786 125.102 38.5158 128.786L3.49378 143.846C2.81979 144.118 2.20524 144.526 1.68619 145.047C1.16715 145.567 0.75408 146.19 0.471233 146.877C0.188387 147.565 0.041465 148.304 0.0390947 149.051C0.0367244 149.798 0.178953 150.538 0.45743 151.228C0.735907 151.917 1.14502 152.542 1.66075 153.067C2.17648 153.591 2.78843 154.003 3.46067 154.28C4.13292 154.556 4.8519 154.691 5.57542 154.677C6.29894 154.663 7.01241 154.499 7.67393 154.196L42.696 139.136C57.0873 132.944 73.2854 133.105 87.5637 139.574C107.611 148.658 134.201 160.003 141.683 163.496C143.027 164.123 145.74 165.441 148.261 166.694C150.781 167.947 153.43 169.333 153.65 169.465C156.074 170.92 157.682 173.525 157.682 176.661C157.682 181.376 154.101 185.073 149.534 185.073C148.887 185.073 148.272 184.998 147.688 184.854C147.684 184.854 147.681 184.854 147.677 184.854C147.54 184.82 143.243 183.574 138.033 181.995C132.824 180.416 126.206 178.388 119.689 176.387C106.656 172.385 94.0567 168.49 94.0567 168.49C93.3733 168.279 92.6562 168.208 91.9465 168.283C91.2367 168.357 90.5482 168.576 89.9201 168.925C88.6517 169.631 87.7067 170.828 87.2931 172.252C87.0883 172.958 87.0201 173.698 87.0924 174.431C87.1647 175.164 87.3761 175.874 87.7145 176.523C88.0529 177.171 88.5117 177.744 89.0647 178.21C89.6177 178.675 90.2541 179.023 90.9375 179.235C90.9375 179.235 103.545 183.126 116.591 187.132C123.114 189.135 129.745 191.165 134.978 192.751C140.205 194.335 143.533 195.364 145.163 195.763C146.577 196.112 148.041 196.289 149.534 196.289C159.97 196.289 168.546 187.435 168.546 176.661C168.546 173.34 167.706 170.22 166.276 167.471L224.363 130.516C224.381 130.505 224.398 130.494 224.416 130.483C228.962 127.524 234.812 128.891 237.678 133.583C240.462 138.138 239.298 143.996 235.004 147.055C234.936 147.101 234.869 147.149 234.803 147.198L149.12 214.219C143.271 218.797 135.606 220.028 128.686 217.494L65.411 194.339C50.7806 188.105 34.0365 190.204 21.2753 199.87L2.34795 214.208C1.74951 214.634 1.24001 215.18 0.849637 215.813C0.459263 216.446 0.195957 217.154 0.0753189 217.894C-0.0453195 218.634 -0.0208367 219.391 0.147318 220.122C0.315472 220.852 0.623878 221.54 1.05426 222.145C1.48464 222.749 2.02825 223.259 2.65287 223.643C3.27749 224.027 3.97043 224.278 4.69061 224.38C5.4108 224.483 6.14359 224.435 6.84557 224.24C7.54755 224.045 8.20444 223.706 8.77732 223.244L27.7047 208.917C37.4215 201.558 50.1232 199.965 61.2626 204.711C61.3502 204.747 61.4387 204.78 61.5279 204.81L125.058 228.063C135.412 231.855 146.935 230.007 155.687 223.156L241.168 156.288C250.162 149.881 252.697 137.146 246.866 127.603C242.929 121.157 236.083 117.65 229.158 117.756Z" fill="#9B51E0"/>
</svg>
