<svg width="250" height="230" viewBox="0 0 250 230" fill="none" xmlns="http://www.w3.org/2000/svg">
<path d="M70.6522 0C69.2108 0.000132584 67.8285 0.526959 66.8093 1.46461C65.7902 2.40227 65.2175 3.67396 65.2174 5V50C65.2072 50.6626 65.3402 51.3204 65.6088 51.9352C65.8773 52.5501 66.276 53.1097 66.7817 53.5815C67.2874 54.0534 67.89 54.428 68.5544 54.6838C69.2188 54.9395 69.9319 55.0712 70.6522 55.0712C71.3724 55.0712 72.0855 54.9395 72.7499 54.6838C73.4143 54.428 74.0169 54.0534 74.5226 53.5815C75.0283 53.1097 75.427 52.5501 75.6955 51.9352C75.9641 51.3204 76.0971 50.6626 76.0869 50V10H239.13V160H125C124.28 159.991 123.565 160.113 122.896 160.36C122.228 160.607 121.62 160.974 121.107 161.439C120.594 161.904 120.187 162.459 119.909 163.07C119.631 163.681 119.488 164.337 119.488 165C119.488 165.663 119.631 166.319 119.909 166.93C120.187 167.541 120.594 168.096 121.107 168.561C121.62 169.026 122.228 169.393 122.896 169.64C123.565 169.887 124.28 170.009 125 170H244.565C246.007 170 247.389 169.473 248.408 168.535C249.427 167.598 250 166.326 250 165V5C250 3.67396 249.427 2.40227 248.408 1.46461C247.389 0.526959 246.007 0.000132584 244.565 0H70.6522ZM223.028 19.9414C222.144 19.9181 221.267 20.0937 220.473 20.4527C219.68 20.8118 218.994 21.3436 218.474 22.002L205.927 37.3828L199.495 31.4648C198.994 30.985 198.394 30.6019 197.73 30.3379C197.067 30.074 196.352 29.9346 195.629 29.9278C194.906 29.921 194.189 30.0471 193.52 30.2985C192.85 30.55 192.242 30.9218 191.731 31.3922C191.219 31.8626 190.815 32.4221 190.542 33.038C190.269 33.6539 190.132 34.3137 190.139 34.9789C190.146 35.6441 190.298 36.3013 190.585 36.9119C190.872 37.5226 191.288 38.0744 191.81 38.5352L202.679 48.5352C203.23 49.0421 203.893 49.4343 204.623 49.6849C205.353 49.9356 206.133 50.039 206.91 49.9881C207.687 49.9371 208.443 49.7331 209.127 49.3897C209.811 49.0464 210.407 48.5718 210.874 47.998L227.178 27.998C227.792 27.2677 228.174 26.3953 228.282 25.4776C228.389 24.5599 228.219 23.6326 227.789 22.7984C227.36 21.9643 226.687 21.2558 225.847 20.7516C225.006 20.2473 224.031 19.9669 223.028 19.9414ZM97.8261 35C97.1059 34.9906 96.3909 35.113 95.7226 35.3601C95.0543 35.6072 94.446 35.974 93.9331 36.4392C93.4202 36.9044 93.013 37.4588 92.735 38.0701C92.457 38.6814 92.3139 39.3374 92.3139 40C92.3139 40.6626 92.457 41.3186 92.735 41.9299C93.013 42.5412 93.4202 43.0956 93.9331 43.5608C94.446 44.026 95.0543 44.3928 95.7226 44.6399C96.3909 44.887 97.1059 45.0094 97.8261 45H173.913C174.633 45.0094 175.348 44.887 176.017 44.6399C176.685 44.3928 177.293 44.026 177.806 43.5608C178.319 43.0956 178.726 42.5412 179.004 41.9299C179.282 41.3186 179.425 40.6626 179.425 40C179.425 39.3374 179.282 38.6814 179.004 38.0701C178.726 37.4588 178.319 36.9044 177.806 36.4392C177.293 35.974 176.685 35.6072 176.017 35.3601C175.348 35.113 174.633 34.9906 173.913 35H97.8261ZM223.028 64.9414C222.144 64.9181 221.267 65.0937 220.473 65.4527C219.68 65.8118 218.994 66.3436 218.474 67.002L205.927 82.3828L199.495 76.4648C198.994 75.985 198.394 75.6019 197.73 75.3379C197.067 75.074 196.352 74.9346 195.629 74.9278C194.906 74.921 194.189 75.0471 193.52 75.2985C192.85 75.5499 192.242 75.9218 191.731 76.3921C191.219 76.8625 190.815 77.4221 190.542 78.038C190.269 78.6538 190.132 79.3137 190.139 79.9789C190.146 80.6441 190.298 81.3013 190.585 81.9119C190.872 82.5226 191.288 83.0744 191.81 83.5352L202.679 93.5352C203.23 94.0421 203.893 94.4343 204.623 94.6849C205.353 94.9356 206.133 95.039 206.91 94.9881C207.687 94.9371 208.443 94.7331 209.127 94.3897C209.811 94.0464 210.407 93.5718 210.874 92.998L227.178 72.998C227.792 72.2677 228.174 71.3953 228.282 70.4776C228.389 69.5599 228.219 68.6326 227.789 67.7984C227.36 66.9643 226.687 66.2558 225.847 65.7516C225.006 65.2473 224.031 64.9669 223.028 64.9414ZM90.5337 65C74.2129 65 61.2479 68.7347 52.2355 75.625C43.2231 82.5153 38.5742 92.5384 38.5742 103.467C38.5742 107.509 39.6586 111.98 40.6653 115.771C41.249 117.97 41.4442 118.472 41.8329 119.707C41.6609 119.906 41.588 119.832 41.4296 120.049C39.841 122.224 38.5742 125.52 38.5742 129.883C38.5742 135.125 40.1025 139.306 43.0749 142.021C44.7053 143.511 46.5148 143.407 48.3504 143.906C49.2754 147.807 50.4742 151.737 52.3628 154.971C53.5556 157.013 54.8255 158.845 56.1417 160.391C56.6232 160.956 57.3697 161.318 57.8613 161.816V174.189C56.5495 176.969 53.7222 179.363 48.8175 181.738C43.7167 184.209 36.9875 186.479 30.1142 189.385C23.2408 192.291 16.1343 195.875 10.4343 201.475C4.73439 207.074 0.677846 214.772 0.0105906 224.688C-0.035724 225.369 0.0702 226.052 0.321833 226.695C0.573466 227.337 0.965474 227.925 1.47369 228.423C1.9819 228.921 2.59555 229.318 3.2768 229.589C3.95805 229.86 4.69246 230 5.43476 230H167.438C168.18 230 168.915 229.86 169.596 229.589C170.277 229.318 170.891 228.921 171.399 228.423C171.907 227.925 172.299 227.337 172.551 226.695C172.803 226.052 172.908 225.369 172.862 224.688C172.184 214.607 167.444 206.785 160.963 201.23C154.482 195.676 146.475 192.171 138.661 189.287C130.847 186.403 123.145 184.131 117.315 181.631C111.689 179.218 108.524 176.724 107.294 174.16V161.816C107.787 161.316 108.531 160.949 109.014 160.381C110.328 158.836 111.601 157.012 112.793 154.971C114.683 151.735 115.899 147.809 116.827 143.906C118.659 143.407 120.463 143.509 122.092 142.021C125.065 139.306 126.592 135.127 126.592 129.883C126.592 125.52 125.325 122.224 123.737 120.049C123.579 119.832 123.505 119.905 123.333 119.707C123.722 118.472 123.917 117.97 124.501 115.771C125.508 111.98 126.592 107.509 126.592 103.467C126.592 96.3894 124.563 88.777 119.48 82.6074C115.026 77.201 107.628 73.6913 98.6646 72.7734L95.1936 67.4316C94.7113 66.6906 94.0285 66.0771 93.2119 65.6509C92.3953 65.2248 91.4726 65.0005 90.5337 65ZM87.6783 75.3516L90.4488 79.6094C90.932 80.3519 91.6164 80.9663 92.4351 81.3925C93.2537 81.8187 94.1786 82.0422 95.1193 82.041C102.986 82.041 107.558 84.6944 110.819 88.6523C114.079 92.6103 115.723 98.2142 115.723 103.467C115.723 105.59 114.862 109.924 113.939 113.398C113.017 116.873 112.103 119.6 112.103 119.6C111.734 120.7 111.789 121.884 112.259 122.952C112.729 124.019 113.585 124.905 114.682 125.459C114.632 125.449 114.577 125.437 114.714 125.625C115.055 126.092 115.723 127.2 115.723 129.883C115.723 133.449 114.829 134.555 114.428 134.922C114.026 135.289 113.506 135.459 112.475 135.459C111.138 135.459 109.847 135.912 108.851 136.731C107.854 137.551 107.221 138.68 107.072 139.902C106.703 142.955 105.095 147.022 103.218 150.234C102.28 151.841 101.282 153.25 100.459 154.219C99.6351 155.187 98.7187 155.689 99.3971 155.371C98.5019 155.79 97.7503 156.428 97.2256 157.216C96.701 158.004 96.4238 158.91 96.4249 159.834V175.684C96.4255 176.295 96.5479 176.9 96.7858 177.471C99.5198 184.021 105.907 187.771 112.719 190.693C119.531 193.615 127.299 195.863 134.617 198.564C141.935 201.265 148.717 204.409 153.554 208.555C157.067 211.565 159.225 215.407 160.581 220H12.1433C13.3771 215.256 15.3203 211.311 18.3742 208.311C22.5464 204.212 28.3142 201.144 34.6467 198.467C40.9792 195.789 47.7847 193.539 53.8807 190.586C59.9768 187.633 65.7455 183.762 68.37 177.471C68.6079 176.9 68.7303 176.295 68.7309 175.684V159.834C68.733 158.915 68.4597 158.013 67.941 157.227C67.4222 156.442 66.6782 155.803 65.7906 155.381C66.3439 155.634 65.4937 155.154 64.6972 154.219C63.8735 153.251 62.875 151.84 61.9374 150.234C60.0622 147.023 58.4585 142.961 58.0948 139.912C57.9483 138.688 57.316 137.557 56.319 136.735C55.322 135.913 54.0305 135.459 52.6919 135.459C51.6632 135.459 51.1308 135.29 50.7282 134.922C50.3255 134.554 49.4438 133.446 49.4438 129.883C49.4438 127.2 50.1114 126.092 50.4522 125.625C50.5976 125.426 50.5428 125.432 50.484 125.449C51.5794 124.896 52.434 124.012 52.9038 122.946C53.3737 121.881 53.43 120.699 53.0634 119.6C53.0634 119.6 52.1391 116.873 51.2164 113.398C50.2938 109.924 49.4438 105.59 49.4438 103.467C49.4438 95.0202 52.6397 88.309 59.1775 83.3105C65.2155 78.6943 74.8618 75.8109 87.6783 75.3516ZM141.304 80C140.584 79.9906 139.869 80.113 139.201 80.3601C138.533 80.6072 137.924 80.974 137.411 81.4392C136.899 81.9044 136.491 82.4588 136.213 83.0701C135.935 83.6814 135.792 84.3374 135.792 85C135.792 85.6626 135.935 86.3186 136.213 86.9299C136.491 87.5412 136.899 88.0956 137.411 88.5608C137.924 89.026 138.533 89.3928 139.201 89.6399C139.869 89.887 140.584 90.0094 141.304 90H173.913C174.633 90.0094 175.348 89.887 176.017 89.6399C176.685 89.3928 177.293 89.026 177.806 88.5608C178.319 88.0956 178.726 87.5412 179.004 86.9299C179.282 86.3186 179.425 85.6626 179.425 85C179.425 84.3374 179.282 83.6814 179.004 83.0701C178.726 82.4588 178.319 81.9044 177.806 81.4392C177.293 80.974 176.685 80.6072 176.017 80.3601C175.348 80.113 174.633 79.9906 173.913 80H141.304ZM223.028 109.941C222.144 109.918 221.267 110.094 220.473 110.453C219.68 110.812 218.994 111.344 218.474 112.002L205.927 127.383L199.495 121.465C198.994 120.985 198.394 120.602 197.73 120.338C197.067 120.074 196.352 119.935 195.629 119.928C194.906 119.921 194.189 120.047 193.52 120.299C192.85 120.55 192.242 120.922 191.731 121.392C191.219 121.863 190.815 122.422 190.542 123.038C190.269 123.654 190.132 124.314 190.139 124.979C190.146 125.644 190.298 126.301 190.585 126.912C190.872 127.523 191.288 128.074 191.81 128.535L202.679 138.535C203.23 139.042 203.893 139.434 204.623 139.685C205.353 139.936 206.133 140.039 206.91 139.988C207.687 139.937 208.443 139.733 209.127 139.39C209.811 139.046 210.407 138.572 210.874 137.998L227.178 117.998C227.792 117.268 228.174 116.395 228.282 115.478C228.389 114.56 228.219 113.633 227.789 112.798C227.36 111.964 226.687 111.256 225.847 110.752C225.006 110.247 224.031 109.967 223.028 109.941ZM141.304 125C140.584 124.991 139.869 125.113 139.201 125.36C138.533 125.607 137.924 125.974 137.411 126.439C136.899 126.904 136.491 127.459 136.213 128.07C135.935 128.681 135.792 129.337 135.792 130C135.792 130.663 135.935 131.319 136.213 131.93C136.491 132.541 136.899 133.096 137.411 133.561C137.924 134.026 138.533 134.393 139.201 134.64C139.869 134.887 140.584 135.009 141.304 135H173.913C174.633 135.009 175.348 134.887 176.017 134.64C176.685 134.393 177.293 134.026 177.806 133.561C178.319 133.096 178.726 132.541 179.004 131.93C179.282 131.319 179.425 130.663 179.425 130C179.425 129.337 179.282 128.681 179.004 128.07C178.726 127.459 178.319 126.904 177.806 126.439C177.293 125.974 176.685 125.607 176.017 125.36C175.348 125.113 174.633 124.991 173.913 125H141.304Z" fill="#BB6BD9"/>
</svg>
