<svg width="250" height="230" viewBox="0 0 250 230" fill="none" xmlns="http://www.w3.org/2000/svg">
<path d="M17.8571 0C8.0119 0 0 6.73 0 15V195C0 203.27 8.0119 210 17.8571 210H128.674C126.495 206.835 124.674 203.495 123.198 200H17.8571C14.5774 200 11.9048 197.76 11.9048 195V15C11.9048 12.24 14.5774 10 17.8571 10H184.524C187.804 10 190.476 12.24 190.476 15V120C194.542 120 198.5 120.348 202.381 120.898V15C202.381 6.73 194.369 0 184.524 0H17.8571ZM23.8095 20V25V70H178.571V20H23.8095ZM35.7143 30H166.667V60H35.7143V30ZM95.2381 40V50H107.143V40H95.2381ZM119.048 40V50H130.952V40H119.048ZM142.857 40V50H154.762V40H142.857ZM29.7619 90C26.4762 90 23.8095 92.235 23.8095 95V185C23.8095 187.765 26.4762 190 29.7619 190H120.117C119.462 186.74 119.048 183.415 119.048 180H107.143V160H123.198C124.674 156.505 126.495 153.165 128.674 150H107.143V130H130.952V146.855C134.315 142.6 138.345 138.766 142.857 135.371V130H151.018C155.845 127.308 161.105 125.125 166.667 123.486C166.67 123.485 166.675 123.487 166.678 123.486C167.993 123.095 169.342 122.778 170.689 122.451C171.332 122.296 171.957 122.104 172.607 121.963C172.611 121.962 172.615 121.964 172.619 121.963C174.57 121.54 176.556 121.183 178.571 120.898V95C178.571 92.235 175.905 90 172.619 90H29.7619ZM35.7143 100H59.5238V120H35.7143V100ZM71.4286 100H95.2381V120H71.4286V100ZM107.143 100H130.952V120H107.143V100ZM142.857 100H166.667V120H142.857V100ZM35.7143 130H59.5238V150H35.7143V130ZM71.4286 130H95.2381V150H71.4286V130ZM190.476 130C157.738 130 130.952 152.5 130.952 180C130.952 207.5 157.738 230 190.476 230C223.214 230 250 207.5 250 180C250 152.5 223.214 130 190.476 130ZM190.476 140C216.667 140 238.095 158 238.095 180C238.095 202 216.667 220 190.476 220C164.286 220 142.857 202 142.857 180C142.857 158 164.286 140 190.476 140ZM188.686 147.002V154.502C183.329 154.502 172.026 157.996 172.026 168.496C172.026 185.996 198.812 181.5 198.812 192.5C198.812 193.5 198.807 198.496 191.069 198.496C182.141 198.496 182.141 191.5 182.141 190H170.236C170.236 205 185.712 206.504 188.093 206.504V213.496H194.638V206.504C197.019 206.504 211.31 205 211.31 192.5C211.31 175 184.524 178.996 184.524 168.496C184.524 167.496 184.521 162.502 191.069 162.002C198.212 162.002 198.812 167.498 198.812 170.498H210.717C210.717 157.498 199.409 155.002 195.243 154.502V147.002H188.686ZM35.7143 160H59.5238V180H35.7143V160ZM71.4286 160H95.2381V180H71.4286V160Z" fill="#9B51E0"/>
</svg>
