<svg width="250" height="230" viewBox="0 0 250 230" fill="none" xmlns="http://www.w3.org/2000/svg">
<path d="M195 0V9.2H232.812L170 66.9875L153.594 51.8937L150 48.7313L146.406 51.8937L90 103.787L73.5938 88.6937L70 85.5312L66.4062 88.6937L1.40625 148.494L8.59375 155.106L70 98.6125L86.4062 113.706L90 116.869L93.5938 113.706L150 61.8125L166.406 76.9062L170 80.0687L173.594 76.9062L240 15.8125V50.6H250V0H195ZM210 64.4V230H220V64.4H210ZM240 69V230H250V69H240ZM150 92V230H160V92H150ZM180 92V230H190V92H180ZM120 110.4V230H130V110.4H120ZM60 128.8V230H70V128.8H60ZM90 138V230H100V138H90ZM30 156.4V230H40V156.4H30ZM0 174.8V230H10V174.8H0Z" fill="#BB6BD9"/>
</svg>
