<svg width="103" height="403" viewBox="0 0 103 403" fill="none" xmlns="http://www.w3.org/2000/svg">
<path d="M85.2 212C82.2174 212 79.8 214.599 79.8 217.806C79.8 221.014 82.2174 223.613 85.2 223.613C88.1826 223.613 90.6 221.014 90.6 217.806C90.6 214.599 88.1826 212 85.2 212ZM85.2 215.871C86.1936 215.871 87 216.738 87 217.806C87 218.875 86.1936 219.742 85.2 219.742C84.2064 219.742 83.4 218.875 83.4 217.806C83.4 216.738 84.2064 215.871 85.2 215.871ZM31.5727 219.674C27.2113 219.674 24.4023 222.234 24.2637 226.297H28.1273C28.2371 224.437 29.5216 223.261 31.4602 223.261C33.4132 223.261 34.6594 224.363 34.6594 226.089C34.6594 227.844 33.3714 229.034 31.4742 229.034H29.0379V232.383H31.5164C33.7592 232.383 35.1305 233.543 35.1305 235.419C35.1305 237.25 33.6765 238.515 31.5867 238.515C29.4411 238.515 28.0125 237.37 27.8883 235.555H23.891C24.071 239.602 27.0859 242.253 31.5445 242.253C36.0985 242.253 39.3949 239.529 39.3949 235.763C39.3949 232.937 37.6767 230.971 34.9371 230.644V230.376C37.1655 229.884 38.618 227.947 38.618 225.461C38.618 222.084 35.6695 219.674 31.5727 219.674ZM51.0352 219.674C45.8296 219.674 42.7031 223.99 42.7031 231.12C42.7031 234.068 43.2696 236.536 44.3766 238.367C45.7482 240.883 48.074 242.253 50.9684 242.253C55.4396 242.253 58.6078 239.082 58.6078 234.617C58.6078 230.508 55.8262 227.488 52.0336 227.488C49.708 227.488 47.8521 228.631 46.9395 230.655H46.6898C46.607 226.206 48.2674 223.363 51.007 223.363C52.5712 223.363 53.8174 224.255 54.2062 225.669H58.3441C57.7753 222.083 54.8278 219.674 51.0352 219.674ZM70.0687 219.674C65.1547 219.674 62.1375 223.809 62.1375 230.924C62.1375 238.054 65.1277 242.253 70.0687 242.253C75.0097 242.253 77.9965 238.038 77.9965 230.939C77.9965 223.811 74.9683 219.674 70.0687 219.674ZM70.0687 223.348C72.3511 223.348 73.7637 225.923 73.7637 230.924C73.7637 235.956 72.3655 238.59 70.0687 238.59C67.7863 238.59 66.3738 235.941 66.3738 230.924C66.3738 225.938 67.7989 223.348 70.0687 223.348ZM50.9367 230.954C53.0283 230.954 54.5508 232.56 54.5508 234.749C54.5508 236.909 52.9729 238.562 50.9227 238.56C48.8743 238.56 47.3086 236.893 47.3086 234.704C47.3086 232.562 48.8451 230.954 50.9367 230.954ZM83.0414 235.838C82.6374 235.86 82.2519 236.028 81.9473 236.314C81.6426 236.6 81.4365 236.988 81.3622 237.416C81.2879 237.843 81.3496 238.285 81.5376 238.671C81.7255 239.056 82.0286 239.362 82.398 239.539C85.6825 241.179 88.2573 243.065 89.9391 244.994C91.6208 246.922 92.4 248.809 92.4 250.71C92.4 252.755 91.4943 254.796 89.5418 256.864C87.5893 258.932 84.6135 260.926 80.8547 262.61C73.3371 265.978 62.7268 268.129 51 268.129C39.2732 268.129 28.6629 265.978 21.1453 262.61C17.3865 260.926 14.4107 258.932 12.4582 256.864C10.5057 254.796 9.6 252.755 9.6 250.71C9.6 248.866 10.3294 247.04 11.9098 245.168C13.4901 243.295 15.9141 241.455 19.0184 239.838C19.2313 239.727 19.4218 239.572 19.5791 239.383C19.7364 239.193 19.8574 238.971 19.9351 238.731C20.0129 238.491 20.0459 238.237 20.0322 237.983C20.0186 237.729 19.9585 237.481 19.8556 237.252C19.7526 237.023 19.6087 236.818 19.4321 236.649C19.2555 236.48 19.0496 236.35 18.8263 236.266C18.6029 236.183 18.3664 236.147 18.1304 236.162C17.8943 236.177 17.6632 236.242 17.4504 236.352C14.0512 238.124 11.256 240.18 9.24492 242.563C7.2338 244.946 6 247.734 6 250.71C6 254.01 7.5109 257.06 9.93047 259.623C12.35 262.186 15.7013 264.364 19.7602 266.182C27.8778 269.819 38.8678 272 51 272C63.1322 272 74.1222 269.819 82.2398 266.182C86.2987 264.364 89.65 262.186 92.0695 259.623C94.4891 257.06 96 254.01 96 250.71C96 247.642 94.6887 244.779 92.5652 242.344C90.4418 239.909 87.4976 237.815 83.9168 236.027C83.6444 235.886 83.3433 235.821 83.0414 235.838V235.838Z" fill="#BB6BD9"/>
<path d="M27.1812 106C26.104 106.071 25.3095 106.758 25.4088 107.526C25.5081 108.295 26.4707 108.862 27.5479 108.791H40.3827L6.58444 132.904C5.80519 133.46 5.80519 134.354 6.58444 134.91C7.36369 135.466 8.61661 135.466 9.39587 134.91L43.1941 110.797V119.953C43.1865 120.455 43.5532 120.924 44.1643 121.18C44.7755 121.431 45.5242 121.431 46.1354 121.18C46.7466 120.924 47.1133 120.455 47.1056 119.953V106H27.5479C27.4868 106 27.4257 106 27.3645 106C27.3034 106 27.2423 106 27.1812 106ZM68.6192 111.581V166H96V111.581H68.6192ZM72.5307 114.372H92.0885V163.209H72.5307V114.372ZM37.3268 129.721V166H64.7076V129.721H37.3268ZM41.2383 132.512H60.7961V163.209H41.2383V132.512ZM6.03438 145.07V166H33.4152V145.07H6.03438ZM9.94593 147.86H29.5037V163.209H9.94593V147.86Z" fill="#9B51E0"/>
<path d="M50.4198 0.00598839C50.2069 0.0365502 50.0016 0.0925779 49.8115 0.168981L34.2381 5.95522C34.1773 5.98069 34.1165 6.00615 34.0556 6.03671C34.0328 6.052 34.0176 6.06218 33.9948 6.07746C33.972 6.09274 33.9568 6.10293 33.934 6.11821C33.8883 6.14368 33.8503 6.16915 33.8123 6.19971C33.7211 6.26083 33.6374 6.33214 33.569 6.40345C33.5462 6.42891 33.5233 6.45948 33.5081 6.48494C33.4853 6.51041 33.4625 6.54097 33.4473 6.56644C33.4245 6.58172 33.4093 6.59191 33.3865 6.60719C33.3865 6.62247 33.3865 6.63266 33.3865 6.64794C33.3637 6.6734 33.3408 6.70397 33.3256 6.72943C33.3256 6.74471 33.3256 6.7549 33.3256 6.77018C33.3256 6.79565 33.3256 6.82621 33.3256 6.85168C33.3028 6.90261 33.28 6.95864 33.2648 7.01467C33.2496 7.09617 33.2496 7.17766 33.2648 7.25916V11.5377L14.7714 18.4242C14.1631 18.6585 13.7905 19.0965 13.7981 19.5651V30.8116L7.22808 33.2565L6.98474 33.338C6.92391 33.3634 6.86307 33.3889 6.80224 33.4195C6.77943 33.4348 6.76422 33.4449 6.74141 33.4602C6.71859 33.4755 6.70339 33.4857 6.68057 33.501C6.63495 33.5264 6.59693 33.5519 6.55891 33.5825C6.51328 33.6079 6.47526 33.6334 6.43724 33.664C6.39162 33.7047 6.35359 33.7455 6.31557 33.7862C6.29276 33.8117 6.26995 33.8422 6.25474 33.8677C6.23193 33.8932 6.20912 33.9237 6.19391 33.9492C6.17109 33.9645 6.15589 33.9747 6.13307 33.9899C6.13307 34.0052 6.13307 34.0154 6.13307 34.0307C6.11026 34.0562 6.08745 34.0867 6.07224 34.1122C6.07224 34.1275 6.07224 34.1377 6.07224 34.1529C6.07224 34.1784 6.07224 34.209 6.07224 34.2344C6.04943 34.2854 6.02661 34.3414 6.01141 34.3974C5.9962 34.4789 5.9962 34.5604 6.01141 34.6419V46.0921C6.0038 46.5607 6.37641 46.9988 6.98474 47.2331L22.4364 52.9786L22.5581 53.0193C22.5809 53.0346 22.5961 53.0448 22.6189 53.0601C22.657 53.0601 22.7026 53.0601 22.7406 53.0601C22.7634 53.0754 22.7786 53.0855 22.8014 53.1008C22.8395 53.1161 22.8851 53.1314 22.9231 53.1416C22.9459 53.1416 22.9611 53.1416 22.9839 53.1416C23.022 53.1416 23.0676 53.1416 23.1056 53.1416C23.1284 53.1569 23.1436 53.167 23.1664 53.1823C23.2045 53.1823 23.2501 53.1823 23.2881 53.1823C23.3109 53.1823 23.3261 53.1823 23.3489 53.1823C23.387 53.1823 23.4326 53.1823 23.4706 53.1823C23.4934 53.1823 23.5086 53.1823 23.5314 53.1823C23.5695 53.1823 23.6151 53.1823 23.6531 53.1823C23.6911 53.1823 23.7368 53.1823 23.7748 53.1823C23.9421 53.167 24.1018 53.1416 24.2615 53.1008C24.2843 53.1008 24.2995 53.1008 24.3223 53.1008C24.3451 53.0855 24.3603 53.0754 24.3831 53.0601C24.4211 53.0499 24.4668 53.0346 24.5048 53.0193L24.6873 52.9378C24.7253 52.9276 24.7709 52.9124 24.809 52.8971L28.0331 51.7154L49.8115 59.8243C50.4122 60.0586 51.1575 60.0586 51.7582 59.8243L73.5366 51.7154L76.9432 52.9786C77.0041 53.0091 77.0649 53.0346 77.1257 53.0601C77.1638 53.0601 77.2094 53.0601 77.2474 53.0601C77.2702 53.0754 77.2854 53.0855 77.3082 53.1008C77.3463 53.1161 77.3919 53.1314 77.4299 53.1416C77.4527 53.1416 77.4679 53.1416 77.4907 53.1416C77.5288 53.1416 77.5744 53.1416 77.6124 53.1416C77.6352 53.1569 77.6504 53.167 77.6732 53.1823C77.7113 53.1823 77.7569 53.1823 77.7949 53.1823C77.8177 53.1823 77.8329 53.1823 77.8557 53.1823C77.8938 53.1823 77.9394 53.1823 77.9774 53.1823C78.0002 53.1823 78.0154 53.1823 78.0382 53.1823C78.0763 53.1823 78.1219 53.1823 78.1599 53.1823C78.1979 53.1823 78.2436 53.1823 78.2816 53.1823C78.4489 53.167 78.6086 53.1416 78.7682 53.1008C78.7911 53.1008 78.8063 53.1008 78.8291 53.1008C78.8519 53.0855 78.8671 53.0754 78.8899 53.0601C78.9279 53.0499 78.9736 53.0346 79.0116 53.0193L79.1941 52.9378C79.2321 52.9276 79.2777 52.9124 79.3157 52.8971L94.585 47.2331C95.1933 46.9988 95.5659 46.5607 95.5583 46.0921V35.1716C96.0678 34.7591 96.1438 34.1784 95.7484 33.7098C95.3606 33.2412 94.585 32.9814 93.7941 33.0527L87.7716 30.8116V19.5651C87.7792 19.0965 87.4066 18.6585 86.7983 18.4242L68.3049 11.5377V7.78888C68.8144 7.37631 68.8904 6.79565 68.495 6.32704C68.1072 5.85844 67.3316 5.59867 66.5407 5.66998L51.7582 0.168981C51.4084 0.0365502 51.0054 -0.0194789 50.6023 0.00598839C50.5415 0.00598839 50.4807 0.00598839 50.4198 0.00598839ZM50.7848 2.81761L62.3432 7.09617L50.7848 11.2932L39.2265 7.09617L50.7848 2.81761ZM37.1581 9.29657L48.8382 13.5344V22.2545L37.1581 17.9352V12.6787C37.2722 12.4291 37.2722 12.154 37.1581 11.9044V9.29657ZM64.4115 9.29657V11.9044C64.3051 12.1438 64.3051 12.3985 64.4115 12.6379V17.9352L52.7315 22.2545V13.5344L64.4115 9.29657ZM33.2648 14.5531V18.7094C33.2572 19.178 33.6298 19.616 34.2381 19.8503L49.8115 25.6366C49.8343 25.6519 49.8495 25.662 49.8723 25.6773C49.9104 25.6773 49.956 25.6773 49.994 25.6773C50.0168 25.6926 50.032 25.7028 50.0548 25.7181C50.0929 25.7334 50.1385 25.7486 50.1765 25.7588C50.1993 25.7588 50.2145 25.7588 50.2373 25.7588C50.2754 25.7588 50.321 25.7588 50.359 25.7588C50.3818 25.7741 50.397 25.7843 50.4198 25.7996C50.4579 25.7996 50.5035 25.7996 50.5415 25.7996C50.5643 25.7996 50.5795 25.7996 50.6023 25.7996C50.6404 25.7996 50.686 25.7996 50.724 25.7996C50.7468 25.7996 50.762 25.7996 50.7848 25.7996C50.8229 25.7996 50.8685 25.7996 50.9065 25.7996C50.9445 25.7996 50.9902 25.7996 51.0282 25.7996C51.1955 25.7843 51.3552 25.7588 51.5148 25.7181C51.5377 25.7181 51.5529 25.7181 51.5757 25.7181C51.5985 25.7028 51.6137 25.6926 51.6365 25.6773C51.6745 25.6671 51.7202 25.6519 51.7582 25.6366L51.9407 25.5551C51.9787 25.5449 52.0243 25.5296 52.0624 25.5143L67.3316 19.8503C67.9399 19.616 68.3125 19.178 68.3049 18.7094V14.5531L83.8783 20.3393V29.3447L79.0116 27.5517C78.6618 27.4193 78.2588 27.3633 77.8557 27.3887C77.7949 27.3887 77.7341 27.3887 77.6732 27.3887C77.4603 27.4193 77.255 27.4753 77.0649 27.5517L61.4915 33.338C61.4535 33.3482 61.4079 33.3634 61.3699 33.3787C61.3242 33.4042 61.2862 33.4297 61.2482 33.4602C61.2254 33.4755 61.2102 33.4857 61.1874 33.501C61.1417 33.5264 61.1037 33.5519 61.0657 33.5825C60.9136 33.6894 60.792 33.8117 60.7007 33.9492C60.6779 33.9645 60.6627 33.9747 60.6399 33.9899C60.6399 34.0052 60.6399 34.0154 60.6399 34.0307C60.6171 34.0562 60.5942 34.0867 60.579 34.1122C60.541 34.2039 60.5258 34.3006 60.5182 34.3974C60.5182 34.4229 60.5182 34.4535 60.5182 34.4789V46.0921C60.5106 46.5607 60.8832 46.9988 61.4915 47.2331L69.5216 50.2077L50.7848 57.1756L32.0481 50.2077L40.0782 47.2331C40.6865 46.9988 41.0591 46.5607 41.0515 46.0921V35.1716C41.561 34.7591 41.637 34.1784 41.2416 33.7098C40.8538 33.2412 40.0782 32.9814 39.2873 33.0527L24.5048 27.5517C24.155 27.4193 23.752 27.3633 23.3489 27.3887C23.2881 27.3887 23.2273 27.3887 23.1664 27.3887C22.9535 27.4193 22.7482 27.4753 22.5581 27.5517L17.6914 29.3447V20.3393L33.2648 14.5531ZM23.5314 30.2004L35.0898 34.4789L23.5314 38.676L11.9731 34.4789L16.3531 32.849L16.7181 32.7268C16.7561 32.7166 16.8017 32.7013 16.8398 32.686L16.9006 32.6453C16.9386 32.6351 16.9842 32.6198 17.0223 32.6045L23.5314 30.2004ZM78.0382 30.2004L84.7299 32.686C84.844 32.7369 84.9657 32.7777 85.0949 32.8082L89.5966 34.4789L78.0382 38.676L66.4799 34.4789L78.0382 30.2004ZM9.90475 36.6793L21.5848 40.9171V49.6372L9.90475 45.3179V36.6793ZM37.1581 36.6793V45.3179L27.3031 48.9853H27.2423C27.2043 48.9955 27.1586 49.0107 27.1206 49.026C26.9914 49.0566 26.8697 49.0973 26.7556 49.1483C26.71 49.1737 26.672 49.1992 26.634 49.2298L25.4781 49.6372V40.9171L37.1581 36.6793ZM64.4115 36.6793L76.0916 40.9171V49.6372L74.7532 49.1483C74.7304 49.133 74.7152 49.1228 74.6924 49.1075L74.5707 49.0668C74.5099 49.0515 74.4491 49.0362 74.3882 49.026L64.4115 45.3179V36.6793ZM91.6649 36.6793V45.3179L79.9849 49.6372V40.9171L91.6649 36.6793Z" fill="#BB6BD9"/>
<path d="M97.0602 328.742C96.7323 328.503 96.2354 328.463 95.68 328.643L36.869 346.923C36.1524 347.146 35.4447 347.697 35.035 348.355C34.6151 349.014 34.557 349.677 34.8807 350.076L42.7829 359.494L8.45994 381.441C7.55971 382.025 6.96882 382.978 7.0533 383.713C7.13098 384.455 7.85991 384.771 8.78563 384.48L66.6967 365.128C67.4061 364.883 68.0897 364.33 68.489 363.674C68.8816 363.023 68.9295 362.376 68.6026 361.987L61.6002 353.642L95.9232 331.695C96.5407 331.312 97.0481 330.729 97.2728 330.141C97.4974 329.553 97.4199 329.032 97.0602 328.742ZM85.4194 335.083L58.2719 352.437C57.6954 352.799 57.2216 353.325 56.9824 353.868C56.7399 354.422 56.7586 354.927 57.0224 355.256L63.4905 362.964L19.7552 377.56L46.1113 360.699C46.6877 360.337 47.1616 359.81 47.4008 359.267C47.6432 358.714 47.6246 358.208 47.3607 357.88L40.049 349.166L85.4194 335.083Z" fill="#9B51E0"/>
</svg>
