<svg width="400" height="300" viewBox="0 0 400 300" fill="none" xmlns="http://www.w3.org/2000/svg">
<path d="M399.783 267.712C399.783 267.81 311.918 267.894 203.561 267.894C95.2035 267.894 7.33008 267.81 7.33008 267.712C7.33008 267.614 95.1757 267.531 203.561 267.531C311.946 267.531 399.783 267.607 399.783 267.712Z" fill="#EBEBEB"/>
<path d="M399.783 236.954C399.783 237.059 311.918 237.142 203.561 237.142C95.2035 237.142 7.33008 237.059 7.33008 236.954C7.33008 236.849 95.1757 236.772 203.561 236.772C311.946 236.772 399.783 236.863 399.783 236.954Z" fill="#EBEBEB"/>
<path d="M399.783 204.226C399.783 204.331 311.918 204.407 203.561 204.407C95.2035 204.407 7.33008 204.331 7.33008 204.226C7.33008 204.121 95.1664 204.023 203.561 204.023C311.955 204.023 399.783 204.128 399.783 204.226Z" fill="#EBEBEB"/>
<path d="M399.783 173.475C399.783 173.573 311.918 173.657 203.561 173.657C95.2035 173.657 7.33008 173.573 7.33008 173.475C7.33008 173.377 95.1664 173.279 203.561 173.279C311.955 173.279 399.783 173.37 399.783 173.475Z" fill="#EBEBEB"/>
<path d="M399.783 140.74C399.783 140.844 311.918 140.928 203.561 140.928C95.2035 140.928 7.33008 140.844 7.33008 140.74C7.33008 140.635 95.1757 140.558 203.561 140.558C311.946 140.558 399.783 140.642 399.783 140.74Z" fill="#EBEBEB"/>
<path d="M399.783 109.988C399.783 110.086 311.918 110.17 203.561 110.17C95.2035 110.17 7.33008 110.086 7.33008 109.988C7.33008 109.891 95.1757 109.807 203.561 109.807C311.946 109.807 399.783 109.891 399.783 109.988Z" fill="#EBEBEB"/>
<path d="M399.783 77.26C399.783 77.3579 311.918 77.4417 203.561 77.4417C95.2035 77.4417 7.33008 77.3579 7.33008 77.26C7.33008 77.1622 95.1757 77.0784 203.561 77.0784C311.946 77.0784 399.783 77.1552 399.783 77.26Z" fill="#EBEBEB"/>
<path d="M399.783 44.9931C399.783 45.0979 311.918 45.1747 203.561 45.1747C95.2035 45.1747 7.33008 45.0979 7.33008 44.9931C7.33008 44.8883 95.1757 44.8114 203.561 44.8114C311.946 44.8114 399.783 44.8953 399.783 44.9931Z" fill="#EBEBEB"/>
<path d="M352.256 283.419C348.558 282.191 344.516 281.667 340.486 281.894C336.455 282.121 332.561 283.091 329.146 284.719C328.239 279.942 325.927 275.377 322.379 271.359C318.83 267.341 314.136 263.97 308.637 261.493C303.139 259.015 296.975 257.494 290.597 257.04C284.218 256.585 277.785 257.209 271.767 258.866C270.7 253.4 267.904 248.207 263.614 243.725C259.325 239.243 253.667 235.603 247.119 233.113C240.571 230.622 233.324 229.354 225.989 229.414C218.654 229.475 211.446 230.862 204.971 233.46C200.659 230.897 195.623 229.112 190.251 228.243C184.879 227.373 179.315 227.443 173.984 228.446C168.654 229.45 163.7 231.36 159.503 234.03C155.305 236.701 151.977 240.06 149.772 243.85C144.02 240.056 137.005 237.512 129.479 236.49C121.954 235.469 114.201 236.009 107.052 238.052C99.9026 240.095 93.6261 243.565 88.8948 248.089C84.1634 252.614 81.1555 258.022 80.1934 263.736C74.8024 262.405 69.0843 261.999 63.458 262.548C57.8317 263.097 52.4397 264.586 47.6769 266.908C38.2234 271.625 28.3711 286.067 27.4434 294.571L364.882 295.849C363.75 289.847 359.566 285.921 352.256 283.419Z" fill="#F5F5F5"/>
<path opacity="0.3" d="M126.449 52.0572L162.667 17.7357L198.505 51.8545L126.449 52.0572Z" fill="#F2C94C"/>
<path opacity="0.3" d="M179.211 46.463L146.389 46.5536L146.875 146.52L179.698 146.429L179.211 46.463Z" fill="#F2C94C"/>
<path d="M198.506 28.2233L218.739 9.05725L238.75 28.1115L198.506 28.2233Z" fill="#F5F5F5"/>
<path d="M227.98 25.1014L209.648 25.152L209.92 80.9729L228.252 80.9222L227.98 25.1014Z" fill="#F5F5F5"/>
<path d="M0.222656 288.821C61.3131 290.716 121.641 278.05 172.62 252.627C223.107 227.305 252.182 185.486 273.102 142.605L315.433 153.547C315.433 153.547 288.594 250.419 215.24 295.179H0.222656V288.821Z" fill="#BB6BD9"/>
<g opacity="0.6">
<path d="M0.222656 288.821C61.3131 290.716 121.641 278.05 172.62 252.627C223.107 227.305 252.182 185.486 273.102 142.605L315.433 153.547C315.433 153.547 288.594 254.863 215.24 295.179H0.222656V288.821Z" fill="white"/>
</g>
<path d="M268.315 153.959C268.631 154.043 268.501 154.973 267.963 156.67C267.694 157.516 267.323 158.557 266.859 159.78L266.079 161.743C265.783 162.442 265.43 163.141 265.059 163.951C264.317 165.502 263.482 167.228 262.536 169.108C261.589 170.987 260.374 172.972 259.14 175.124C257.906 177.276 256.357 179.526 254.854 181.929C253.351 184.333 251.477 186.786 249.594 189.385L248.156 191.355C247.627 192.005 247.108 192.662 246.57 193.326L243.295 197.385L242.451 198.426L241.523 199.453L239.667 201.55C238.415 202.947 237.19 204.386 235.836 205.805C233.053 208.6 230.353 211.583 227.199 214.448C225.65 215.895 224.128 217.404 222.467 218.85C220.807 220.296 219.118 221.757 217.402 223.238L216.113 224.356L214.758 225.439L212.058 227.605L209.275 229.813C208.348 230.554 207.355 231.211 206.381 231.972C204.414 233.405 202.466 234.879 200.425 236.311L194.135 240.56C185.257 246.344 175.889 251.686 166.09 256.553C147.119 265.879 126.754 273.487 105.417 279.22L98.1254 281.114L90.9356 282.756L87.4103 283.552L83.9035 284.251L77.057 285.572C74.8026 285.963 72.5668 286.27 70.3867 286.655C68.2065 287.039 66.0635 287.353 63.8927 287.612L57.6677 288.387C56.6472 288.506 55.6452 288.653 54.6433 288.751L51.6839 289.016C47.7689 289.359 44.058 289.715 40.5513 289.883C37.0445 290.05 33.6954 290.295 30.569 290.288C27.4426 290.281 24.5481 290.393 21.8763 290.365C19.2045 290.337 16.7646 290.211 14.5752 290.127C13.4805 290.078 12.4507 290.05 11.4859 289.987L8.76765 289.75C7.08849 289.596 5.67836 289.442 4.53726 289.296C2.25508 289.009 1.0676 288.73 1.08615 288.478C1.10471 288.227 2.32929 288.017 4.61148 287.835C5.76185 287.745 7.17198 287.661 8.83259 287.584L11.5137 287.486L14.5659 287.29C16.7182 287.16 19.1024 287.027 21.7186 286.892C24.3255 286.717 27.155 286.459 30.1887 286.235C33.2223 286.012 36.4508 285.62 39.874 285.278C43.2973 284.936 46.9247 284.377 50.6356 283.916L53.5022 283.531C54.4299 283.398 55.4319 283.224 56.406 283.063L62.4176 282.085C64.4678 281.784 66.5181 281.344 68.624 280.946L75.0531 279.702L81.6306 278.242L84.9982 277.494L88.3844 276.642L95.2959 274.902L102.309 272.925C122.791 267.016 142.382 259.488 160.756 250.467C170.211 245.772 179.288 240.658 187.938 235.151L194.089 231.113C196.083 229.75 197.994 228.318 199.933 226.99C200.861 226.292 201.872 225.649 202.781 224.943C203.69 224.237 204.637 223.546 205.509 222.847L208.218 220.751L209.563 219.731L210.843 218.675L215.89 214.518C217.551 213.121 219.072 211.723 220.631 210.326C223.803 207.622 226.568 204.806 229.388 202.165C230.771 200.83 232.032 199.453 233.322 198.14L235.233 196.183L236.161 195.212L237.088 194.234L240.53 190.398L242.2 188.546L243.74 186.688C245.762 184.235 247.785 181.936 249.464 179.659C251.143 177.381 252.915 175.306 254.307 173.258C255.698 171.211 257.09 169.345 258.361 167.613C259.632 165.88 260.615 164.231 261.608 162.784C262.109 162.086 262.536 161.387 263.018 160.737C263.5 160.087 263.834 159.486 264.196 158.92C264.938 157.795 265.597 156.824 266.154 156.125C267.258 154.63 268 153.876 268.315 153.959Z" fill="#BB6BD9"/>
<path d="M270.653 168.863C266.311 172.556 262.982 176.859 260.856 181.524C260.559 182.191 260.549 182.911 260.826 183.582C261.103 184.254 261.654 184.842 262.4 185.264C263.147 185.687 264.051 185.921 264.984 185.935C265.918 185.948 266.833 185.74 267.6 185.339L267.693 185.29C264.667 190.877 262.129 196.607 260.095 202.444C259.807 203.262 259.86 204.128 260.248 204.923C260.636 205.718 261.339 206.403 262.262 206.887C263.186 207.37 264.284 207.627 265.409 207.624C266.533 207.62 267.629 207.356 268.547 206.867C285.086 198.037 296.811 184.988 301.546 170.142L270.653 168.863Z" fill="#BB6BD9"/>
<g opacity="0.3">
<path d="M272.128 174.858C271.329 175.456 270.698 176.169 270.272 176.954C270.069 177.347 270.021 177.776 270.134 178.189C270.248 178.602 270.518 178.981 270.912 179.281C272.183 180.091 274.363 179.602 275.551 180.462C276.738 181.321 276.07 182.984 275.226 184.158L272.554 187.882C271.905 188.79 271.265 189.978 272.109 190.789C272.953 191.599 274.948 191.376 276.312 190.859C279.456 189.627 282.157 187.84 284.181 185.649C286.206 183.458 287.495 180.93 287.936 178.282L272.128 174.858Z" fill="black"/>
</g>
<path d="M345.695 124.892L345.946 125.165C353.057 133.173 357.691 142.281 359.505 151.818C361.319 161.355 360.268 171.076 356.429 180.266L351.559 191.942L327.484 168.556L345.695 124.892Z" fill="#BB6BD9"/>
<path d="M345.696 124.892L345.613 125.109L345.353 125.745C345.121 126.304 344.797 127.142 344.37 128.162C343.498 130.258 342.236 133.347 340.659 137.211C337.468 144.897 332.977 155.818 327.671 168.597V168.444L349.621 189.755L351.745 191.851L351.328 191.914C352.305 189.585 353.264 187.291 354.204 185.031C355.131 182.768 356.124 180.546 356.913 178.345C358.495 174.119 359.502 169.783 359.918 165.404C360.302 161.445 360.184 157.468 359.566 153.526C359.343 151.667 358.861 149.907 358.48 148.209C358.1 146.511 357.553 144.897 356.922 143.394C355.129 138.585 352.591 133.951 349.361 129.588C348.285 128.022 347.255 126.897 346.633 126.094L345.659 124.885C345.659 124.885 345.752 124.969 345.947 125.172L346.708 126.052C347.357 126.842 348.424 127.96 349.491 129.546C352.775 133.892 355.351 138.521 357.163 143.332C357.812 144.841 358.23 146.476 358.768 148.16C359.158 149.865 359.649 151.653 359.881 153.498C360.523 157.452 360.657 161.444 360.28 165.418C359.874 169.822 358.873 174.184 357.293 178.436C356.504 180.657 355.502 182.865 354.584 185.129C353.666 187.393 352.729 189.685 351.717 192.012L351.578 192.347L351.291 192.068C350.623 191.418 349.89 190.712 349.166 189.971L327.235 168.646L327.17 168.576V168.493L340.436 137.015C342.06 133.186 343.34 130.147 344.231 128.05C344.667 127.023 345.01 126.234 345.242 125.682L345.65 125.067C345.659 125.008 345.674 124.949 345.696 124.892Z" fill="#263238"/>
<path d="M257.777 104.105L257.359 104.224C245.61 107.684 235.041 113.086 226.433 120.032C217.825 126.979 211.398 135.292 207.624 144.359L202.828 155.874L239.816 147.168L257.777 104.105Z" fill="#BB6BD9"/>
<path d="M257.776 104.105C257.776 104.105 257.776 104.168 257.702 104.301C257.627 104.433 257.562 104.65 257.46 104.901C257.238 105.446 256.913 106.236 256.533 107.249L252.878 116.102L240.047 147.202V147.293H239.936L206.223 155.245L202.948 156.013L202.512 156.118L202.651 155.783L205.434 148.998C206.362 146.769 207.234 144.561 208.217 142.43C210.124 138.317 212.579 134.361 215.546 130.622C218.225 127.245 221.332 124.072 224.823 121.147C226.41 119.749 228.126 118.513 229.722 117.297C231.317 116.081 232.978 115.019 234.629 114.069C239.703 110.954 245.256 108.313 251.171 106.201C253.23 105.405 254.881 104.957 256.041 104.594L257.321 104.203L257.776 104.091L256.078 104.657C254.974 105.041 253.295 105.509 251.254 106.32C245.391 108.486 239.884 111.159 234.843 114.285C233.21 115.243 231.651 116.382 229.972 117.52C228.293 118.659 226.688 119.959 225.12 121.363C221.666 124.285 218.593 127.451 215.945 130.817C213.013 134.531 210.582 138.456 208.69 142.535C207.679 144.631 206.835 146.874 205.907 149.096C204.979 151.318 204.052 153.596 203.124 155.888L202.827 155.657L206.102 154.888L239.825 146.965L239.676 147.077C244.973 134.5 249.501 123.774 252.664 116.179C254.269 112.378 255.549 109.359 256.431 107.277C256.867 106.25 257.21 105.453 257.442 104.901C257.553 104.636 257.646 104.433 257.711 104.28C257.727 104.22 257.749 104.162 257.776 104.105Z" fill="#263238"/>
<path d="M349.359 0.169561C342.401 -1.47245 323.958 9.05037 302.63 28.8732C281.636 48.3956 272.943 67.7154 272.943 67.7154L232.318 165.139L266.403 173.202L286.154 177.87L320.238 185.933L357.106 97.5301C360.724 88.8939 363.237 80.0169 364.611 71.0204C366.023 62.0018 366.472 52.9126 365.956 43.8399C364.268 18.4622 356.364 1.81855 349.396 0.169561" fill="#F5F5F5"/>
<path d="M349.361 0.169574L349.667 0.253421L350.047 0.365217L350.539 0.574837C351.6 1.09767 352.527 1.76043 353.276 2.53127C355.326 4.52264 357.525 7.89749 359.445 12.4672C361.705 18.0578 363.334 23.782 364.316 29.579C364.937 32.9748 365.438 36.6221 365.791 40.514C366.143 44.4059 366.356 48.5284 366.292 52.8675C366.227 57.2066 365.92 61.7553 365.364 66.4927C364.808 71.4281 363.922 76.3394 362.711 81.2078C361.391 86.4407 359.687 91.6145 357.608 96.7056C355.425 101.951 353.177 107.356 350.864 112.923C341.586 135.156 331.335 159.801 320.425 185.989L320.36 186.163L320.128 186.108L276.173 175.711L232.208 165.307L231.977 165.258L232.051 165.083C242.979 138.895 253.268 114.251 262.554 92.0171C264.873 86.4553 267.128 81.0518 269.317 75.8067C270.412 73.1888 271.491 70.6082 272.555 68.0648C273.696 65.5354 275.06 63.1248 276.451 60.7771C281.656 52.1121 287.937 43.8373 295.21 36.0631C301.265 29.7531 307.85 23.7411 314.924 18.064C320.181 13.758 325.863 9.75697 331.92 6.09477C336.92 3.13217 341.197 1.24561 344.416 0.456052C345.606 0.134902 346.863 -0.019041 348.127 0.00187868L348.683 0.0368171L349.082 0.106689L349.389 0.169574L349.073 0.12765L348.683 0.0647641L348.127 0.0298284C346.861 0.0253383 345.604 0.19097 344.416 0.518937C341.262 1.32247 336.994 3.22301 331.994 6.19958C325.991 9.86872 320.357 13.867 315.137 18.1618C308.109 23.8575 301.568 29.8833 295.553 36.2029C288.31 43.9704 282.057 52.2357 276.878 60.8889C275.496 63.2366 274.095 65.6472 273.01 68.1556L269.781 75.8975C267.598 81.1426 265.35 86.5484 263.037 92.115C253.759 114.348 243.554 138.999 232.589 165.195L232.431 164.964L276.359 175.375L320.314 185.779L320.008 185.898L350.502 112.839L357.265 96.6357C359.337 91.5513 361.034 86.3845 362.349 81.1589C363.638 76.1141 364.455 71.2021 365.03 66.4857C365.605 61.7693 365.902 57.2136 365.958 52.8745C366.013 48.5354 365.846 44.4269 365.494 40.542C365.141 36.6571 364.659 33.0097 364.046 29.6209C363.089 23.8308 361.487 18.1115 359.259 12.5231C357.404 7.95338 355.205 4.57854 353.183 2.58717C352.448 1.8159 351.537 1.14879 350.493 0.616758L350.01 0.400155L349.639 0.288356L349.361 0.169574Z" fill="#263238"/>
<path d="M340.528 94.2089C359.958 86.3294 367.228 68.0785 356.766 53.4445C346.304 38.8105 322.072 33.3349 302.642 41.2145C283.212 49.0941 275.942 67.345 286.404 81.979C296.866 96.613 321.098 102.089 340.528 94.2089Z" fill="white"/>
<path d="M352.894 53.4404C352.667 53.4577 352.438 53.4401 352.22 53.3887C352.002 53.3374 351.801 53.2534 351.627 53.1417C351.454 53.03 351.312 52.893 351.211 52.739C351.11 52.585 351.051 52.4171 351.039 52.2456C351.018 51.5581 351.327 50.8881 351.911 50.359C352.487 49.8326 352.976 49.2554 353.367 48.6401C353.644 48.0531 353.663 47.4146 353.423 46.8186C353.183 46.2225 352.695 45.7001 352.031 45.3282C352.476 45.1815 352.877 44.9686 353.21 44.7024C353.543 44.4362 353.801 44.1221 353.969 43.779C354.137 43.4358 354.212 43.0706 354.188 42.7053C354.164 42.34 354.043 41.982 353.831 41.6529C353.311 41.0837 352.721 40.5527 352.068 40.0668C351.74 39.7599 351.451 39.43 351.206 39.0816C351.809 39.3564 352.482 39.5325 353.182 39.5986C353.752 39.6368 354.325 39.5659 354.849 39.3924C355.373 39.219 355.83 38.9486 356.178 38.6064C356.515 38.2579 356.715 37.8454 356.756 37.4156C356.797 36.9858 356.677 36.556 356.41 36.1749C356.133 35.7976 355.708 35.4938 355.193 35.305C354.679 35.1162 354.099 35.0515 353.534 35.1198C352.455 35.3586 351.504 35.8476 350.816 36.5172L350.111 37.0972C349.332 35.4482 348.645 33.7782 346.78 32.821C345.092 31.9546 342.893 31.9546 340.991 31.4235C339.609 31.0113 338.412 30.3056 337.049 29.8514C335.685 29.3972 333.978 29.2505 332.79 29.9213C332.085 30.3126 331.659 30.9344 330.935 31.3187C329.478 32.1223 327.224 31.7449 325.907 32.6742C324.84 33.4359 324.877 34.7215 324.153 35.6788C323.43 36.636 321.797 37.2509 320.442 37.8728C319.088 38.4946 317.715 39.4729 317.836 40.6677C317.938 41.7158 319.181 42.5682 319.264 43.6233C319.171 44.3899 318.888 45.1365 318.429 45.8243C318.105 46.523 318.132 47.5222 319.014 47.9205L328.94 52.6299C332.187 54.6562 335.546 56.7244 339.572 57.6747C343.598 58.6249 348.506 58.1847 351.252 55.7741C350.672 55.6146 350.194 55.2949 349.916 54.8798C350.524 54.8245 351.108 54.6663 351.624 54.417C352.14 54.1678 352.574 53.8339 352.894 53.4404Z" fill="#263238"/>
<path d="M342.961 53.8947C344.78 52.0737 346.388 50.138 347.766 48.1092C349.145 46.0687 349.83 43.8023 349.761 41.5133C349.761 41.1709 349.306 38.7882 348.833 38.7184C348.518 38.6694 348.508 40.8145 348.267 40.9543C346.015 42.6157 344.485 44.7523 343.879 47.0821C343.232 49.3196 342.921 51.6048 342.951 53.8947" fill="#263238"/>
<path d="M325.584 70.3424C333.627 72.4385 338.516 64.529 338.516 64.529L346.699 45.6633C349.203 40.2692 347.125 34.6724 339.898 32.9326L339.221 32.7998C335.918 32.1615 332.417 32.4837 329.415 33.7021C326.414 34.9206 324.131 36.9459 323.023 39.3748C320.88 44.0633 318.598 49.2548 317.763 51.8331C316.047 57.1644 322.819 59.3514 322.819 59.3514C322.819 59.3514 322.355 60.5672 321.734 62.1114C320.342 65.605 321.446 69.6436 323.283 69.9511L325.584 70.3424Z" fill="#FFBE9D"/>
<path d="M322.817 59.3864C326.077 60.0073 329.506 59.9128 332.697 59.1139C332.697 59.1139 329.144 62.5446 322.27 60.707L322.817 59.3864Z" fill="#896357"/>
<path d="M324.314 44.0147C324.242 44.212 324.277 44.4226 324.411 44.6005C324.545 44.7785 324.766 44.9095 325.028 44.9649C325.153 44.9976 325.286 45.0109 325.418 45.0043C325.551 44.9976 325.68 44.971 325.799 44.926C325.917 44.8811 326.022 44.8187 326.108 44.7426C326.194 44.6665 326.259 44.5781 326.299 44.4828C326.37 44.2855 326.335 44.0749 326.201 43.897C326.068 43.719 325.846 43.588 325.584 43.5326C325.459 43.4999 325.326 43.4866 325.194 43.4933C325.062 43.4999 324.932 43.5265 324.814 43.5715C324.695 43.6164 324.59 43.6788 324.504 43.7549C324.418 43.8311 324.353 43.9194 324.314 44.0147Z" fill="#263238"/>
<path d="M323.773 41.8765C323.866 42.0022 324.775 41.7227 325.86 41.9324C326.946 42.142 327.595 42.7079 327.716 42.6311C327.836 42.5542 327.716 42.3935 327.437 42.135C327.053 41.7928 326.538 41.5487 325.962 41.4363C325.4 41.3278 324.806 41.3547 324.265 41.5131C323.903 41.6668 323.727 41.8206 323.773 41.8765Z" fill="#263238"/>
<path d="M334.007 46.2156C333.938 46.4129 333.974 46.6226 334.108 46.8001C334.241 46.9776 334.461 47.1088 334.721 47.1659C334.847 47.1985 334.979 47.2118 335.112 47.2052C335.244 47.1985 335.373 47.1719 335.492 47.1269C335.61 47.082 335.716 47.0196 335.802 46.9435C335.887 46.8674 335.952 46.779 335.992 46.6837C336.064 46.4873 336.03 46.2776 335.898 46.0998C335.766 45.922 335.547 45.7904 335.287 45.7335C335.161 45.7007 335.028 45.6873 334.895 45.6939C334.762 45.7005 334.632 45.727 334.512 45.7719C334.393 45.8168 334.287 45.8792 334.2 45.9554C334.113 46.0316 334.048 46.12 334.007 46.2156Z" fill="#263238"/>
<path d="M334.285 44.2592C334.377 44.378 335.287 44.1055 336.363 44.3151C337.439 44.5248 338.107 45.0837 338.218 45.0139C338.329 44.944 338.218 44.7833 337.94 44.5248C337.563 44.1802 337.049 43.9354 336.474 43.826C335.912 43.7101 335.316 43.7371 334.776 43.9029C334.415 44.0147 334.238 44.2033 334.285 44.2592Z" fill="#263238"/>
<path d="M328.264 49.7792C327.736 49.5382 327.172 49.3436 326.585 49.1992C326.316 49.1294 326.065 49.0316 326.065 48.8848C326.117 48.6634 326.256 48.4589 326.464 48.2979L327.819 46.9004C329.038 45.7014 330.127 44.4302 331.075 43.0994C329.732 44.2215 328.51 45.4225 327.42 46.6908L326.093 48.1372C325.835 48.3553 325.688 48.6348 325.676 48.9267C325.689 49.0093 325.728 49.0883 325.789 49.1575C325.85 49.2267 325.932 49.284 326.028 49.325C326.17 49.3827 326.319 49.4295 326.474 49.4648C327.05 49.6263 327.652 49.7319 328.264 49.7792Z" fill="#263238"/>
<path d="M331.261 50.9602C331.085 50.9183 330.788 51.8056 329.563 52.2388C328.339 52.6721 327.123 52.3367 327.068 52.4554C327.012 52.5742 327.29 52.686 327.819 52.7978C328.505 52.9365 329.234 52.8895 329.879 52.6651C330.501 52.4484 330.987 52.0573 331.233 51.5751C331.4 51.2187 331.344 51.0021 331.261 50.9602Z" fill="#263238"/>
<path d="M335.445 40.9543C335.445 41.1988 336.596 41.3036 337.83 41.653C339.063 42.0024 340 42.4775 340.232 42.3098C340.464 42.1421 340.232 41.9884 339.889 41.6879C339.433 41.3138 338.863 41.0285 338.228 40.8565C337.598 40.6699 336.917 40.6004 336.243 40.6538C335.751 40.7097 335.445 40.8425 335.445 40.9543Z" fill="#263238"/>
<path d="M325.148 39.2493C325.278 39.4729 326.076 39.424 327.003 39.5917C327.931 39.7594 328.618 40.0319 328.859 39.8712C329.1 39.7104 328.905 39.5847 328.636 39.3471C328.265 39.0457 327.779 38.8382 327.245 38.7532C326.716 38.6563 326.161 38.6881 325.658 38.844C325.241 38.9698 325.092 39.1235 325.148 39.2493Z" fill="#263238"/>
<path d="M344.787 49.4929C344.917 49.4929 350.001 49.3461 348.609 52.9865C347.217 56.6269 342.709 54.7962 342.736 54.6914C342.764 54.5866 344.787 49.4929 344.787 49.4929Z" fill="#FFBE9D"/>
<path d="M344.723 53.6084C344.723 53.6084 344.788 53.6713 344.908 53.7482C345.085 53.8521 345.306 53.9042 345.53 53.8949C346.086 53.8949 346.745 53.3569 347.023 52.7141C347.155 52.4076 347.193 52.0828 347.135 51.7638C347.135 51.6413 347.095 51.5206 347.019 51.4123C346.943 51.3039 346.833 51.2111 346.699 51.1419C346.609 51.1033 346.504 51.0885 346.401 51.0999C346.299 51.1113 346.204 51.1482 346.133 51.2048C346.031 51.2957 346.04 51.3725 346.012 51.3725C345.984 51.3725 345.929 51.2887 346.012 51.1489C346.078 51.068 346.175 51.0045 346.291 50.9673C346.451 50.9183 346.631 50.9183 346.791 50.9673C346.977 51.0386 347.134 51.1451 347.248 51.2762C347.362 51.4073 347.428 51.5585 347.441 51.7149C347.524 52.0717 347.492 52.4384 347.348 52.7839C347.033 53.4827 346.281 54.0766 345.493 54.0766C345.353 54.0761 345.216 54.052 345.091 54.006C344.965 53.9601 344.855 53.8934 344.769 53.8111C344.723 53.6993 344.723 53.6084 344.723 53.6084Z" fill="#896357"/>
<path d="M328.477 34.1274C327.837 33.6313 330.898 32.2688 333.06 32.0312C336.316 31.7028 340.936 32.0871 343.357 33.247C346.261 34.6444 348.432 36.4402 349.165 38.9835C349.814 41.5518 349.549 44.2037 348.395 46.6695C348.126 47.4406 347.592 48.1445 346.846 48.7098C345.862 49.3526 344.387 49.5622 344.007 50.6732C343.882 51.0809 343.549 51.435 343.079 51.6584C341.92 52.1615 341.122 51.2601 340.89 50.4915C340.398 48.8495 340.955 47.1446 341.502 45.5096C341.811 44.3313 342.372 43.1986 343.163 42.1557C343.636 41.6107 344.239 41.1286 344.675 40.5696C344.913 40.2962 345.069 39.9872 345.133 39.664C345.197 39.3407 345.167 39.0108 345.046 38.697C344.974 38.5623 344.884 38.4335 344.777 38.3127C344.287 37.7269 343.6 37.2493 342.785 36.929C341.97 36.6086 341.057 36.4568 340.138 36.4891C337.17 36.6009 332.16 36.6288 331.232 35.6716C330.546 35.0597 330.04 34.3452 329.748 33.5754L328.477 34.1274Z" fill="#263238"/>
<path d="M343.302 32.7233C342.134 32.0803 340.809 31.6177 339.403 31.3623C337.997 31.1069 336.538 31.0636 335.11 31.235C334.349 31.3152 333.616 31.5108 332.958 31.8098C332.299 32.1088 331.728 32.5051 331.279 32.9749C330.851 33.4555 330.663 34.0343 330.746 34.6093C330.829 35.1844 331.178 35.719 331.733 36.1191L331.807 36.182C333.663 37.1602 335.045 37.2511 337.281 37.1812C339.136 37.1183 340.992 36.6711 342.847 36.6222C344.865 36.5683 346.858 36.9698 348.571 37.7751C347.432 35.7727 345.615 34.0306 343.302 32.7233Z" fill="#263238"/>
<path d="M350.863 38.425C350.807 38.425 350.566 38.0057 349.935 37.4188C349.583 37.0789 349.181 36.7696 348.738 36.4965C348.199 36.1598 347.564 35.9208 346.883 35.7978C345.64 35.619 344.355 35.7037 343.172 36.0423C342.244 36.3078 341.762 36.5943 341.725 36.5594C341.688 36.5244 341.827 36.4616 342.049 36.3358C342.367 36.1541 342.713 36.0016 343.079 35.8816C344.305 35.471 345.669 35.3562 346.985 35.5532C347.71 35.687 348.381 35.9507 348.942 36.3218C349.398 36.6088 349.798 36.9429 350.13 37.314C350.476 37.641 350.726 38.0197 350.863 38.425Z" fill="#455A64"/>
<path d="M350.809 39.7803C350.617 40.1232 350.35 40.4396 350.02 40.7166C349.264 41.4135 348.354 42.0069 347.33 42.4704C346.304 42.9317 345.181 43.2577 344.009 43.4346C343.531 43.5274 343.034 43.5535 342.543 43.5115C344.169 43.2836 345.736 42.8589 347.182 42.2538C348.556 41.5782 349.78 40.7434 350.809 39.7803Z" fill="#455A64"/>
<path d="M352.496 40.8146C352.476 40.9571 352.426 41.0963 352.347 41.2268C352.162 41.5912 351.939 41.944 351.68 42.2819C350.806 43.3959 349.587 44.3334 348.126 45.0139C346.662 45.6899 344.998 46.0813 343.284 46.1528C342.768 46.1877 342.25 46.1877 341.734 46.1528C341.544 46.1459 341.357 46.1177 341.178 46.069C341.178 46.0201 341.985 46.069 343.265 46.0061C344.927 45.8856 346.53 45.4812 347.952 44.8237C349.375 44.1663 350.58 43.2731 351.475 42.212C352.143 41.3736 352.44 40.8006 352.496 40.8146Z" fill="#455A64"/>
<path d="M337.996 31.109C337.528 31.1494 337.057 31.1704 336.586 31.1719C334.329 31.2964 332.181 31.9514 330.444 33.0445C329.786 33.4567 329.424 33.7432 329.387 33.7432C329.627 33.4282 329.941 33.1488 330.314 32.9187C332.02 31.7157 334.259 31.0333 336.595 31.0042C337.067 30.9795 337.54 31.015 337.996 31.109Z" fill="#455A64"/>
<path d="M356.178 35.9094C355.718 36.609 355.012 37.2002 354.137 37.619C353.262 38.0377 352.251 38.2681 351.215 38.2851C352.181 38.0656 353.114 37.7705 353.998 37.4047C354.791 36.9637 355.521 36.4627 356.178 35.9094Z" fill="#455A64"/>
<path d="M356.051 72.6621C354.056 69.4689 339.352 64.3683 339.352 64.3683C337.965 66.1658 336.044 67.6966 333.739 68.8401C330.028 70.5799 325.64 69.9581 322.328 68.0785C319.202 66.2967 320.278 62.8171 320.278 62.8171C320.278 62.8171 304.108 62.2022 299.45 64.1167C294.793 66.0312 292.196 71.642 292.196 71.642L286.379 81.5779L292.493 88.3136L295.174 90.27C295.174 90.27 302.252 95.6991 315.314 97.397C327.505 98.9831 338.081 95.0773 338.081 95.0773C344.575 93.4353 350.243 89.4875 355.457 84.0514C355.475 84.0723 358.37 76.4073 356.051 72.6621Z" fill="#455A64"/>
<path d="M292.259 65.8499C292.259 65.8499 296.062 62.2585 296.359 60.8191L297.862 53.1331C297.862 53.1331 297.305 52.2667 295.858 53.2519C294.411 54.2371 294.754 56.1306 294.754 56.1306L293.539 57.7517L292.843 56.1796L293.381 50.9391C293.381 50.9391 293.882 47.173 293.001 47.3826C292.119 47.5922 291.516 48.5914 291.294 50.2194C291.071 51.8474 290.811 53.9017 290.811 53.9017C290.811 53.9017 290.672 54.5375 290.301 53.3427C289.93 52.1479 290.737 47.6551 290.663 47.0123C290.589 46.3694 291.062 44.7973 289.865 44.6296C288.668 44.4619 288.594 46.5721 288.594 46.5721L287.286 53.196C287.286 53.196 287.165 50.4011 287.128 49.912C287.091 49.4229 287.295 47.9555 287.193 47.1171C287.091 46.2786 286.646 45.7196 286.108 45.6777C285.857 45.6346 285.594 45.6657 285.373 45.7645C285.152 45.8633 284.99 46.0224 284.92 46.2087L284.577 52.0431C284.577 52.0431 284.577 54.7402 284.466 54.8799C284.354 55.0197 283.538 53.5663 283.538 53.5663L283.278 51.5959C283.278 51.5959 283.464 48.9198 282.592 48.6543C281.72 48.3888 281.497 48.8918 281.497 48.8918L281.219 53.7829L281.942 59.5614L283.686 65.3748L286.525 65.794L292.259 65.8499Z" fill="#FFBE9D"/>
<path d="M285.348 61.483C285.802 61.1478 286.224 60.7882 286.609 60.407C287.527 59.522 288.85 58.9266 290.32 58.737C291.035 58.6647 291.762 58.7781 292.38 59.0585L292.584 59.1563L292.714 58.9816C293.27 58.213 293.901 57.5352 294.254 57.0461C294.606 56.557 294.81 56.2496 294.755 56.2356C294.475 56.4462 294.229 56.6807 294.022 56.9343C293.404 57.55 292.828 58.189 292.296 58.8488L292.63 58.772C291.93 58.4366 291.097 58.2958 290.274 58.3737C289.386 58.4484 288.542 58.7045 287.834 59.1143C287.273 59.4386 286.771 59.8168 286.34 60.2393C285.914 60.6061 285.578 61.0273 285.348 61.483Z" fill="#896357"/>
<path d="M319.989 62.8245L322.326 60.0646L328.403 66.0736L327.735 68.7777L329.182 66.1784L340.166 61.3572L339.703 64.8089L334.73 69.6581L328.162 71.7123L323.319 70.3498C323.319 70.3498 319.543 69.3157 319.608 69.0851C319.673 68.8546 319.989 62.8245 319.989 62.8245Z" fill="#455A64"/>
<path d="M325.314 68.9175L325.871 71.2163L328.116 71.6565L330.148 69.9586L329.638 67.9533L326.975 67.3943L325.314 68.9175Z" fill="#F2C94C"/>
<path d="M328.403 66.0731C328.154 66.4526 327.842 66.8071 327.475 67.1281C326.835 67.764 325.917 68.6513 324.841 69.6575L324.609 69.8741L324.451 69.6226C324.173 69.1754 323.876 68.7003 323.523 68.2251C322.596 66.7159 321.751 65.3394 321.176 64.3332C320.824 63.8031 320.542 63.2485 320.332 62.6772C320.804 63.153 321.205 63.6661 321.529 64.2074C322.187 65.1857 323.069 66.5482 324.006 68.0574L324.887 69.4549L324.488 69.42C325.592 68.4278 326.557 67.5683 327.271 66.9744C327.6 66.641 327.98 66.3385 328.403 66.0731Z" fill="#263238"/>
<path d="M339.954 64.1938C339.364 64.7039 338.711 65.1717 338.006 65.5913C336.763 66.4368 335.019 67.5897 333.08 68.8404L330.408 70.5662L330.111 70.7549L330.046 70.4684C329.75 69.2107 329.508 68.1416 329.351 67.38C329.237 66.9828 329.181 66.5775 329.184 66.1712C329.396 66.5467 329.542 66.9413 329.62 67.3451C329.852 68.0927 330.148 69.1548 330.482 70.4055L330.121 70.3077L332.765 68.5818C334.704 67.3311 336.476 66.2132 337.784 65.4166C338.459 64.9625 339.185 64.5534 339.954 64.1938Z" fill="#263238"/>
<path d="M363.547 85.4142L364.735 80.4882C363.338 78.8228 361.664 77.2989 359.753 75.9535C357.761 74.3987 355.116 73.4111 352.266 73.1586C348.556 72.935 345.058 74.4023 341.997 76.0024C338.935 77.6025 335.929 79.4261 332.321 80.0969C330.953 80.418 329.478 80.3585 328.164 79.9292C326.244 79.1886 325.474 77.3369 325.799 75.7369C326.278 74.1455 327.191 72.6465 328.48 71.3349L326.049 70.7689C324.554 72.328 323.256 73.9889 322.171 75.7299C321.294 77.2734 321.105 78.9897 321.633 80.621C322.161 81.8095 323.103 82.8693 324.362 83.6893C325.62 84.5092 327.148 85.0592 328.786 85.2815C332.088 85.6957 335.478 85.2339 338.379 83.9749C341.023 82.9128 343.416 81.3826 346.338 80.8515C348.354 80.5341 350.449 80.6832 352.35 81.2792C354.251 81.8753 355.868 82.8905 356.989 84.1915L363.547 85.4142Z" fill="#F2C94C"/>
<path d="M294.515 90.1304C294.385 90.1304 295.442 85.8821 296.815 80.6836C298.188 75.4851 299.469 71.2858 299.599 71.3067C299.728 71.3277 298.671 75.555 297.289 80.7535C295.906 85.952 294.626 90.1793 294.515 90.1304Z" fill="#263238"/>
<path d="M281.758 65.2142L294.273 65.913L293.697 87.6503L293.54 89.1456C293.54 89.1456 283.233 80.6421 282.407 73.7736C282.231 72.3133 281.813 71.1534 281.711 70.1263C281.387 66.2973 281.758 65.2142 281.758 65.2142Z" fill="#455A64"/>
<path d="M293.503 87.3358C293.455 87.0551 293.455 86.771 293.503 86.4904C293.503 85.8755 293.549 85.0929 293.577 84.1985C293.642 82.2631 293.66 79.58 293.697 76.6243C293.735 73.6687 293.8 70.9786 293.939 69.0362C294.004 68.0719 294.069 67.2824 294.143 66.7444C294.149 66.461 294.202 66.1793 294.301 65.9059C294.336 66.1871 294.336 66.4702 294.301 66.7513C294.301 67.3662 294.301 68.1488 294.301 69.0502C294.301 71.0695 294.236 73.7037 294.198 76.6243C294.161 79.545 294.087 82.2701 293.939 84.2055C293.864 85.1768 293.79 85.9593 293.707 86.5043C293.676 86.7859 293.607 87.0645 293.503 87.3358Z" fill="#263238"/>
<path d="M282.305 62.1815C282.32 62.2533 282.32 62.3264 282.305 62.3981C282.305 62.5588 282.249 62.7685 282.212 63.027C282.138 63.579 281.971 64.4244 281.85 65.4446C281.427 70.4836 282.66 75.5236 285.441 80.1178C288.2 84.6461 292.412 88.5863 297.696 91.5839C300.677 93.2527 303.948 94.6046 307.418 95.6016C310.878 96.6164 314.516 97.2472 318.217 97.4742C321.66 97.7172 325.131 97.6044 328.533 97.1388C331.619 96.7383 334.629 96.0554 337.495 95.1055C338.796 94.6887 340.069 94.2223 341.308 93.708C342.486 93.198 343.59 92.653 344.629 92.1359C345.668 91.6189 346.605 91.0529 347.412 90.4869C348.219 89.9209 349.073 89.4109 349.759 88.8729L351.68 87.3566L353.145 85.9941L353.767 85.4142L354.268 84.8761L355.038 84.0307L355.53 83.5136C355.581 83.4513 355.64 83.3928 355.706 83.3389C355.706 83.3389 355.706 83.4088 355.567 83.5346L355.121 84.0656L354.379 84.939L353.906 85.491C353.711 85.6727 353.507 85.8753 353.294 86.0849L351.847 87.4824L349.991 89.0196C349.305 89.5716 348.47 90.0817 347.644 90.6686C346.818 91.2555 345.789 91.7586 344.861 92.3525C343.933 92.9464 342.718 93.4355 341.53 93.9596C340.287 94.4958 339.005 94.9787 337.69 95.406C328.05 98.6124 317.117 98.8159 307.279 95.9719C303.754 94.9568 300.432 93.5788 297.408 91.8774C292.068 88.8408 287.825 84.843 285.07 80.2506C282.293 75.6031 281.113 70.5045 281.637 65.4236C281.785 64.3755 281.989 63.565 282.092 63.013L282.221 62.3841C282.24 62.3146 282.268 62.2467 282.305 62.1815Z" fill="#263238"/>
<path d="M360.149 75.5622C360.185 75.2009 360.266 74.843 360.391 74.4931C360.595 73.7944 360.817 72.8092 361.021 71.5794C361.532 68.3544 361.369 65.0892 360.539 61.9021C360.067 60.1533 359.409 58.4359 358.572 56.7664C357.861 55.4093 357.033 54.0883 356.095 52.8116C355.715 52.2596 355.307 51.7845 354.963 51.3653C354.62 50.946 354.314 50.5827 354.036 50.2962C353.749 50.0036 353.491 49.6953 353.266 49.3739C353.608 49.6319 353.918 49.9125 354.193 50.2124C354.546 50.546 354.874 50.8935 355.177 51.2535C355.548 51.6657 355.975 52.1339 356.383 52.6509C357.374 53.9193 358.239 55.2412 358.971 56.6057C359.848 58.289 360.53 60.0259 361.012 61.7973C361.853 65.0205 361.969 68.3272 361.355 71.5794C361.172 72.5597 360.909 73.5304 360.567 74.4861C360.47 74.8534 360.331 75.2136 360.149 75.5622Z" fill="#263238"/>
<path d="M320.814 37.6004C320.372 37.6752 319.921 37.715 319.469 37.7192C319.033 37.7192 318.541 37.7751 317.892 37.838C317.242 37.9008 316.574 37.9428 315.814 38.0546C314.018 38.2717 312.242 38.5751 310.498 38.9629C308.368 39.4502 306.29 40.0575 304.282 40.7796C302.288 41.5206 300.369 42.3707 298.539 43.323C297.055 44.1139 295.639 44.975 294.3 45.9012C293.706 46.2855 293.224 46.6699 292.778 46.9913C292.333 47.3127 291.971 47.6131 291.684 47.8507C291.403 48.104 291.092 48.3378 290.756 48.5494C290.996 48.2578 291.273 47.9841 291.582 47.7319C291.851 47.4734 292.194 47.1659 292.621 46.8236C293.047 46.4812 293.548 46.0829 294.096 45.6846C295.42 44.7253 296.83 43.8358 298.317 43.0225C301.969 41.0391 306.049 39.5474 310.377 38.6135C312.145 38.2372 313.946 37.9569 315.767 37.7751C316.546 37.6772 317.251 37.6563 317.873 37.6074C318.495 37.5585 319.023 37.5515 319.469 37.5515C319.918 37.5411 320.368 37.5575 320.814 37.6004Z" fill="#263238"/>
<path d="M316.063 97.7117C315.933 97.7117 317.288 94.1691 319.078 89.865C320.869 85.5608 322.427 82.0951 322.557 82.1231C322.687 82.151 321.333 85.6656 319.542 89.9698C317.752 94.2739 316.184 97.7396 316.063 97.7117Z" fill="#263238"/>
<path d="M356.376 30.9061C356.376 30.9061 356.376 30.976 356.376 31.1088C356.311 31.3044 356.197 31.4893 356.042 31.6538C355.759 31.9659 355.374 32.2175 354.923 32.384C354.473 32.5505 353.973 32.6263 353.472 32.604C352.787 32.5356 352.143 32.3196 351.617 31.9822C351.082 31.6215 350.41 31.3967 349.696 31.3393C348.91 31.3365 348.145 31.5335 347.526 31.8983C346.844 32.3138 346.222 32.7822 345.67 33.2958C344.524 34.2976 343.175 35.1561 341.672 35.8391C340.427 36.39 339.037 36.7287 337.599 36.8313C336.633 36.8952 335.659 36.8169 334.732 36.6007C334.399 36.5312 334.085 36.4176 333.805 36.2654C335.026 36.5605 336.313 36.6651 337.59 36.5728C338.968 36.4428 340.293 36.0926 341.477 35.5457C342.924 34.8661 344.225 34.0251 345.336 33.0512C345.917 32.5343 346.571 32.0658 347.284 31.6538C347.995 31.2456 348.868 31.0313 349.761 31.0459C350.554 31.1164 351.298 31.3731 351.886 31.7795C352.352 32.096 352.928 32.3067 353.547 32.3874C353.99 32.3998 354.431 32.3321 354.833 32.1899C355.235 32.0477 355.586 31.8351 355.857 31.5699C356.059 31.3626 356.233 31.1401 356.376 30.9061Z" fill="#263238"/>
<path d="M356.282 36.0139C356.282 36.0139 356.505 36.0139 356.876 36.0908C357.415 36.2005 357.928 36.3726 358.397 36.6008C358.766 36.7757 359.071 37.0177 359.284 37.3047C359.496 37.5917 359.609 37.9143 359.612 38.2428C359.537 38.6365 359.349 39.013 359.06 39.346C358.772 39.6791 358.391 39.9608 357.943 40.1713C357.091 40.6152 356.084 40.8584 355.048 40.8701C354.205 40.871 353.376 40.7124 352.636 40.4089C352.147 40.2084 351.711 39.9433 351.347 39.6263C351.096 39.3957 351.003 39.249 351.022 39.235C351.561 39.6006 352.156 39.9172 352.794 40.1783C353.495 40.4268 354.264 40.5488 355.039 40.5347C355.982 40.4951 356.89 40.2526 357.655 39.8359C358.045 39.6534 358.381 39.412 358.641 39.127C358.901 38.842 359.08 38.5196 359.167 38.18C359.166 37.9051 359.077 37.6346 358.908 37.3912C358.738 37.1479 358.493 36.9391 358.193 36.7825C357.763 36.549 357.299 36.3521 356.811 36.1956C356.468 36.1117 356.273 36.0349 356.282 36.0139Z" fill="#263238"/>
<path d="M325.944 169.904C325.944 170.002 306.351 165.551 282.277 159.975C258.203 154.399 238.674 149.795 238.748 149.697C238.822 149.599 258.342 154.05 282.425 159.626C306.509 165.202 325.982 169.785 325.944 169.904Z" fill="#263238"/>
<path d="M324.311 172.762C324.311 172.86 304.718 168.416 280.643 162.84C256.569 157.264 237.105 152.659 237.105 152.562C237.105 152.464 256.69 156.908 280.773 162.49C304.857 168.073 324.367 172.671 324.311 172.762Z" fill="#263238"/>
<path d="M323.097 175.899C323.097 175.99 303.503 171.546 279.429 165.97C255.355 160.395 235.826 155.79 235.901 155.692C235.975 155.594 255.485 160.038 279.568 165.621C303.652 171.204 323.134 175.801 323.097 175.899Z" fill="#263238"/>
<path d="M321.862 179.03C321.862 179.127 302.269 174.676 278.195 169.101C254.12 163.525 234.592 158.92 234.666 158.822C234.74 158.725 254.26 163.175 278.343 168.751C302.427 174.327 321.9 178.932 321.862 179.03Z" fill="#263238"/>
<path d="M320.601 182.16C320.554 182.257 301.007 177.813 276.933 172.231C252.859 166.648 233.33 162.05 233.405 161.959C233.479 161.869 253.026 166.291 277.109 171.881C301.193 177.471 320.675 182.062 320.601 182.16Z" fill="#263238"/>
<path d="M301.871 114.586C301.867 114.747 301.835 114.906 301.778 115.061C301.722 115.382 301.537 115.823 301.333 116.409C300.915 117.569 300.266 119.204 299.431 121.301C297.761 125.416 295.367 131.083 292.686 137.301C290.005 143.52 287.51 149.18 285.691 153.246C284.764 155.252 284.049 156.887 283.511 158.061C283.261 158.599 283.047 159.032 282.89 159.367C282.83 159.522 282.75 159.672 282.648 159.814C282.676 159.652 282.725 159.493 282.797 159.339L283.335 158.019C283.827 156.831 284.522 155.182 285.367 153.169L292.222 137.19C294.904 130.978 297.325 125.311 299.097 121.224C299.96 119.211 300.655 117.562 301.156 116.382C301.379 115.809 301.592 115.361 301.685 115.061C301.735 114.9 301.797 114.741 301.871 114.586Z" fill="#E0E0E0"/>
<path d="M328.404 71.4605C328.404 71.5584 327.773 71.5374 327.059 71.4116C326.344 71.2859 325.788 71.1042 325.815 71.0064C325.843 70.9086 326.446 70.9295 327.17 71.0553C327.894 71.1811 328.432 71.3627 328.404 71.4605Z" fill="#263238"/>
<path d="M345.696 124.892C345.65 124.983 326.103 120.455 302.029 114.775C277.954 109.094 258.426 104.413 258.5 104.294C258.574 104.175 278.084 108.724 302.168 114.404C326.251 120.085 345.734 124.794 345.696 124.892Z" fill="#EBEBEB"/>
<path d="M295.553 148.398C295.748 148.298 295.976 148.243 296.212 148.237C296.861 148.188 297.514 148.303 298.067 148.565C298.491 148.753 298.841 149.022 299.083 149.345C299.324 149.667 299.447 150.032 299.44 150.403C299.45 150.864 299.27 151.315 298.926 151.696C298.581 152.077 298.089 152.369 297.516 152.531C296.943 152.693 296.318 152.718 295.726 152.602C295.134 152.486 294.603 152.236 294.208 151.884C293.871 151.606 293.639 151.264 293.538 150.896C293.437 150.527 293.469 150.144 293.632 149.788C293.816 149.321 294.206 148.914 294.736 148.635C294.917 148.518 295.14 148.445 295.377 148.425C295.377 148.425 295.163 148.53 294.857 148.747C294.405 149.037 294.081 149.425 293.929 149.858C293.815 150.165 293.808 150.489 293.909 150.799C294.009 151.108 294.215 151.393 294.505 151.626C294.844 151.921 295.296 152.13 295.798 152.227C296.301 152.323 296.83 152.301 297.316 152.164C297.801 152.027 298.22 151.782 298.515 151.461C298.81 151.14 298.968 150.758 298.967 150.368C298.982 150.049 298.888 149.733 298.693 149.45C298.498 149.167 298.209 148.928 297.854 148.754C297.371 148.501 296.799 148.362 296.212 148.356C295.766 148.377 295.553 148.432 295.553 148.398Z" fill="#E0E0E0"/>
<path d="M303.838 129.679C304.032 129.578 304.261 129.522 304.496 129.518C305.146 129.47 305.798 129.586 306.352 129.846C306.774 130.035 307.123 130.304 307.362 130.627C307.602 130.95 307.723 131.314 307.715 131.684C307.725 132.145 307.545 132.597 307.201 132.978C306.857 133.358 306.364 133.65 305.792 133.812C305.219 133.974 304.594 133.999 304.001 133.883C303.409 133.768 302.879 133.517 302.483 133.165C302.146 132.887 301.915 132.546 301.813 132.177C301.712 131.808 301.745 131.425 301.908 131.069C302.098 130.623 302.472 130.234 302.975 129.958C303.157 129.845 303.38 129.775 303.615 129.756C303.615 129.756 303.411 129.86 303.095 130.07C302.645 130.365 302.322 130.754 302.168 131.188C302.049 131.494 302.039 131.818 302.139 132.129C302.238 132.439 302.443 132.724 302.734 132.956C303.089 133.228 303.535 133.421 304.026 133.516C304.516 133.611 305.032 133.603 305.517 133.494C305.991 133.343 306.398 133.093 306.691 132.773C306.983 132.454 307.149 132.079 307.168 131.691C307.186 131.374 307.093 131.059 306.899 130.777C306.706 130.495 306.418 130.256 306.064 130.084C305.577 129.832 305.003 129.692 304.413 129.679C304.088 129.658 303.847 129.714 303.838 129.679Z" fill="#E0E0E0"/>
<path d="M290.627 99.4445C290.822 99.3454 291.051 99.2897 291.286 99.2838C291.936 99.2346 292.589 99.3501 293.141 99.6122C293.565 99.7998 293.916 100.069 294.157 100.392C294.398 100.714 294.521 101.079 294.514 101.45C294.524 101.911 294.344 102.362 294 102.743C293.655 103.124 293.163 103.416 292.59 103.578C292.018 103.74 291.392 103.765 290.8 103.649C290.208 103.533 289.678 103.283 289.282 102.931C288.945 102.653 288.714 102.311 288.612 101.943C288.511 101.574 288.544 101.191 288.707 100.835C288.891 100.368 289.28 99.9611 289.811 99.6821C289.991 99.5655 290.214 99.4924 290.451 99.4724C290.451 99.4724 290.247 99.5773 289.931 99.7869C289.481 100.082 289.158 100.471 289.004 100.905C288.889 101.212 288.882 101.536 288.983 101.846C289.084 102.155 289.289 102.44 289.579 102.673C289.918 102.968 290.37 103.177 290.872 103.274C291.375 103.37 291.904 103.348 292.39 103.211C292.876 103.074 293.294 102.829 293.589 102.508C293.884 102.187 294.042 101.805 294.041 101.415C294.057 101.096 293.962 100.78 293.767 100.497C293.572 100.214 293.283 99.9745 292.928 99.8009C292.445 99.5478 291.874 99.4092 291.286 99.4026C290.915 99.4235 290.636 99.4794 290.627 99.4445Z" fill="#E0E0E0"/>
<path d="M289.178 85.4209C289.299 85.4209 287.147 90.7941 284.373 97.3551C281.599 103.916 279.233 109.233 279.103 109.185C278.973 109.136 281.126 103.811 283.909 97.2433C286.692 90.6753 289.058 85.3929 289.178 85.4209Z" fill="#EBEBEB"/>
<g opacity="0.3">
<path d="M240.288 146.029C240.288 146.029 252.933 117.961 257.776 104.105C251.384 109.863 244.175 116.473 240.418 123.418C236.638 130.68 236.591 138.743 240.288 146.029Z" fill="black"/>
</g>
<path d="M254.131 220.618C252.929 220.824 251.883 221.377 251.218 222.158C250.552 222.939 250.32 223.886 250.572 224.795C250.823 225.703 251.538 226.501 252.563 227.017C253.587 227.533 254.84 227.725 256.051 227.552C257.261 227.38 258.334 226.856 259.038 226.094C259.741 225.332 260.02 224.393 259.813 223.478C259.607 222.563 258.932 221.745 257.933 221.201C256.935 220.657 255.693 220.43 254.474 220.569" fill="#BB6BD9"/>
<path d="M399.781 295.095H397.778H395.746C395.746 294.543 395.746 293.977 395.746 293.39C395.746 291.678 395.746 290.057 395.681 288.848C395.607 286.878 395.533 286.878 395.393 286.878C395.254 286.878 395.18 286.878 395.106 288.848C395.059 290.064 395.032 291.678 395.032 293.39C395.032 293.977 395.032 294.543 395.032 295.095H391.859H369.232H350.835C350.835 294.557 350.835 294.012 350.835 293.446C350.835 291.727 350.835 290.113 350.761 288.904C350.687 286.934 350.612 286.934 350.473 286.934C350.334 286.934 350.26 286.934 350.186 288.904C350.186 290.113 350.121 291.734 350.121 293.446C350.121 294.012 350.121 294.557 350.121 295.088H302.473C302.473 294.564 302.473 294.033 302.473 293.474C302.473 291.762 302.473 290.148 302.408 288.932C302.334 286.962 302.26 286.962 302.121 286.962C301.981 286.962 301.907 286.962 301.833 288.932C301.787 290.148 301.759 291.762 301.759 293.474C301.759 294.026 301.759 294.564 301.759 295.088H285.988H254.863C254.863 294.571 254.863 294.047 254.863 293.495C254.863 291.783 254.863 290.169 254.788 288.953C254.714 286.983 254.649 286.983 254.501 286.983C254.352 286.983 254.287 286.983 254.213 288.953C254.213 290.169 254.148 291.783 254.148 293.495C254.148 294.047 254.148 294.571 254.148 295.088H207.234C207.234 294.571 207.234 294.047 207.234 293.502C207.234 291.79 207.234 290.176 207.159 288.96C207.085 286.99 207.011 286.99 206.872 286.99C206.733 286.99 206.658 286.99 206.584 288.96C206.538 290.176 206.51 291.79 206.51 293.502C206.51 294.047 206.51 294.571 206.51 295.088H159.595C159.595 294.571 159.595 294.054 159.595 293.509C159.595 291.79 159.595 290.176 159.53 288.967C159.456 286.997 159.382 286.997 159.243 286.997C159.104 286.997 159.029 286.997 158.955 288.967C158.909 290.183 158.881 291.797 158.881 293.509C158.881 294.054 158.881 294.571 158.881 295.088H111.948C111.948 294.585 111.948 294.061 111.948 293.523C111.948 291.811 111.948 290.197 111.873 288.981C111.799 287.011 111.734 287.011 111.586 287.011C111.437 287.011 111.373 287.011 111.298 288.981C111.298 290.197 111.233 291.811 111.233 293.523C111.233 294.061 111.233 294.585 111.233 295.088H64.3372C64.3372 294.585 64.3372 294.068 64.3372 293.53C64.3372 291.818 64.3372 290.204 64.263 288.988C64.1888 287.018 64.1146 287.018 63.9754 287.018C63.8363 287.018 63.762 287.018 63.6878 288.988C63.6878 290.204 63.6136 291.818 63.6136 293.53C63.6136 294.068 63.6136 294.585 63.6136 295.088H13.8601C13.8601 294.753 13.8601 294.389 13.8601 294.075C13.8601 292.503 13.8601 291.021 13.7859 289.882C13.7117 288.073 13.6375 288.073 13.4983 288.073C13.3591 288.073 13.2849 288.073 13.2107 289.882C13.1643 290.993 13.1365 292.475 13.1365 294.075C13.1365 294.417 13.1365 294.774 13.1365 295.081H0.538078V94.0644L0.454583 33.429V16.967V12.6908C0.454583 11.7265 0.454583 11.2374 0.454583 11.2374C0.454583 11.2152 0.442853 11.1938 0.421975 11.1781C0.401098 11.1624 0.372784 11.1536 0.343258 11.1536C0.312816 11.1535 0.283466 11.1621 0.261098 11.1777C0.238729 11.1932 0.224995 11.2146 0.222654 11.2374C0.222654 11.2374 0.222654 11.7265 0.222654 12.6977L0.148438 33.429L0.0742191 94.0644L0 295.179V295.36C0 295.385 0.0127084 295.408 0.0353259 295.425C0.0579434 295.442 0.0886183 295.451 0.120604 295.451H13.1643C13.1643 296.43 13.1643 297.338 13.22 298.072C13.2942 299.881 13.3684 299.881 13.5076 299.881C13.6467 299.881 13.7209 299.881 13.7952 298.072C13.7952 297.373 13.8416 296.43 13.8601 295.451H63.6229C63.6229 296.367 63.6229 297.219 63.6786 297.925C63.7528 299.888 63.827 299.888 63.9661 299.888C64.1053 299.888 64.1795 299.888 64.2537 297.925C64.2537 297.226 64.2537 296.367 64.3094 295.451H111.252C111.252 296.367 111.252 297.226 111.308 297.932C111.382 299.895 111.456 299.895 111.595 299.895C111.734 299.895 111.809 299.895 111.883 297.932C111.883 297.233 111.929 296.374 111.938 295.451H158.89C158.89 296.381 158.89 297.233 158.946 297.946C159.02 299.909 159.085 299.909 159.233 299.909C159.382 299.909 159.447 299.909 159.521 297.946C159.521 297.247 159.521 296.381 159.577 295.451H206.519C206.519 296.381 206.519 297.24 206.575 297.953C206.649 299.916 206.723 299.916 206.863 299.916C207.002 299.916 207.076 299.916 207.15 297.953C207.15 297.254 207.15 296.381 207.206 295.451H254.148C254.148 296.381 254.148 297.247 254.204 297.96C254.278 299.923 254.352 299.923 254.492 299.923C254.631 299.923 254.705 299.923 254.779 297.96C254.779 297.261 254.826 296.381 254.844 295.451H286.034H301.805C301.805 296.395 301.805 297.261 301.861 297.981C301.935 299.944 302.009 299.944 302.148 299.944C302.288 299.944 302.362 299.944 302.436 297.981C302.436 297.282 302.482 296.388 302.492 295.451H350.139C350.139 296.402 350.139 297.282 350.195 298.009C350.269 299.972 350.343 299.972 350.482 299.972C350.622 299.972 350.696 299.972 350.77 298.009C350.77 297.31 350.816 296.402 350.826 295.451H364.584L391.887 295.416H395.069C395.069 296.395 395.069 297.296 395.124 298.037C395.198 300 395.273 300 395.412 300C395.551 300 395.625 300 395.699 298.037C395.699 297.296 395.746 296.388 395.755 295.416H397.778H399.781C399.812 295.415 399.84 295.404 399.861 295.387C399.881 295.371 399.893 295.348 399.893 295.326C399.933 295.314 399.966 295.292 399.985 295.262C400.003 295.233 400.005 295.199 399.99 295.168C399.975 295.138 399.945 295.113 399.906 295.099C399.867 295.085 399.822 295.084 399.781 295.095Z" fill="#263238"/>
<path d="M94.2371 99.7032C94.2371 106.565 87.5575 112.539 72.8996 112.539C65.784 112.539 58.288 111.044 53.2969 108.388L57.9911 101.527C62.2503 103.829 67.37 105.052 72.612 105.02C78.5586 105.02 82.2324 103.141 82.2324 99.9897C82.2324 96.9432 79.5884 94.9518 70.2556 94.9518H57.0449L59.6889 73.1586H91.055V80.3485H69.6061L68.799 87.706H72.983C88.1883 87.6991 94.2371 92.8417 94.2371 99.7032Z" fill="#263238"/>
<path d="M99.0508 92.5135C99.0508 79.7338 108.458 72.488 121.084 72.488C133.71 72.488 143.117 79.7338 143.117 92.5135C143.117 105.293 133.794 112.539 121.084 112.539C108.374 112.539 99.0508 105.293 99.0508 92.5135ZM131.15 92.5135C131.15 83.7166 127.031 80.0692 121.084 80.0692C115.137 80.0692 111.102 83.7166 111.102 92.5135C111.102 101.31 115.212 104.958 121.084 104.958C126.957 104.958 131.15 101.31 131.15 92.5135Z" fill="#263238"/>
<path d="M151.234 84.1147C151.234 81.3198 153.507 79.524 156.736 79.524C159.964 79.524 162.2 81.2848 162.2 84.1147C162.2 86.9445 159.955 88.7123 156.736 88.7123C153.517 88.7123 151.234 86.9236 151.234 84.1147ZM159.046 84.1147C159.046 82.3329 158.118 81.4735 156.736 81.4735C155.353 81.4735 154.426 82.3539 154.426 84.1147C154.426 85.8755 155.353 86.7559 156.736 86.7559C158.118 86.7559 159.046 85.9383 159.046 84.1147ZM169.919 79.7127H173.629L158.517 96.3773H154.76L169.919 79.7127ZM166.282 91.9753C166.282 89.1804 168.555 87.3777 171.746 87.3777C174.938 87.3777 177.248 89.1665 177.248 91.9753C177.248 94.7842 174.975 96.566 171.746 96.566C168.518 96.566 166.282 94.7842 166.282 91.9753ZM174.056 91.9753C174.056 90.2146 173.129 89.3272 171.746 89.3272C170.364 89.3272 169.445 90.1866 169.445 91.9753C169.445 93.7641 170.373 94.6165 171.746 94.6165C173.119 94.6165 174.019 93.7361 174.019 91.9753H174.056Z" fill="#263238"/>
<path d="M170.738 128.428C170.738 128.526 145.374 128.61 114.092 128.61C82.8091 128.61 57.4453 128.526 57.4453 128.428C57.4453 128.33 82.8091 128.246 114.092 128.246C145.374 128.246 170.738 128.323 170.738 128.428Z" fill="#263238"/>
<path d="M170.738 135.974C170.738 136.072 145.374 136.156 114.092 136.156C82.8091 136.156 57.4453 136.072 57.4453 135.974C57.4453 135.876 82.8091 135.792 114.092 135.792C145.374 135.792 170.738 135.869 170.738 135.974Z" fill="#263238"/>
<path d="M170.738 143.521C170.738 143.618 145.374 143.702 114.092 143.702C82.8091 143.702 57.4453 143.618 57.4453 143.521C57.4453 143.423 82.8091 143.339 114.092 143.339C145.374 143.339 170.738 143.416 170.738 143.521Z" fill="#263238"/>
</svg>
