<svg width="42" height="42" viewBox="0 0 42 42" fill="none" xmlns="http://www.w3.org/2000/svg">
<path d="M1 0C0.734792 2.65169e-05 0.480453 0.105392 0.292922 0.292922C0.105392 0.480453 2.65169e-05 0.734792 0 1V41C2.65169e-05 41.2652 0.105392 41.5195 0.292922 41.7071C0.480453 41.8946 0.734792 42 1 42H41C41.2652 42 41.5195 41.8946 41.7071 41.7071C41.8946 41.5195 42 41.2652 42 41V1C42 0.734792 41.8946 0.480453 41.7071 0.292922C41.5195 0.105392 41.2652 2.65169e-05 41 0H1ZM2 2H40V6H2V2ZM2 8H40V40H2V8ZM6 11C5.73479 11 5.48045 11.1054 5.29292 11.2929C5.10539 11.4805 5.00003 11.7348 5 12V16C5.00003 16.2652 5.10539 16.5195 5.29292 16.7071C5.48045 16.8946 5.73479 17 6 17H36C36.2652 17 36.5195 16.8946 36.7071 16.7071C36.8946 16.5195 37 16.2652 37 16V12C37 11.7348 36.8946 11.4805 36.7071 11.2929C36.5195 11.1054 36.2652 11 36 11H6ZM7 13H35V15H7V13ZM7 19C5.90694 19 5 19.9069 5 21V35C5 36.0931 5.90694 37 7 37H18C19.0931 37 20 36.0931 20 35V21C20 19.9069 19.0931 19 18 19H7ZM24 19C22.9069 19 22 19.9069 22 21V35C22 36.0931 22.9069 37 24 37H35C36.0931 37 37 36.0931 37 35V21C37 19.9069 36.0931 19 35 19H24ZM7 21H18V35H7V21ZM24 21H35V35H24V21Z" fill="#9B51E0"/>
</svg>
