<svg width="25" height="25" viewBox="0 0 25 25" fill="none" xmlns="http://www.w3.org/2000/svg">
<path d="M12.5 2.5C6.98702 2.5 2.5 6.98702 2.5 12.5C2.5 18.013 6.98702 22.5 12.5 22.5C18.013 22.5 22.5 18.013 22.5 12.5C22.5 6.98702 18.013 2.5 12.5 2.5ZM12.5 4.16667C17.1122 4.16667 20.8333 7.88776 20.8333 12.5C20.8333 17.1122 17.1122 20.8333 12.5 20.8333C7.88776 20.8333 4.16667 17.1122 4.16667 12.5C4.16667 7.88776 7.88776 4.16667 12.5 4.16667ZM7.5 10V11.6667C7.5 12.5875 8.24583 13.3333 9.16667 13.3333C10.0875 13.3333 10.8333 12.5875 10.8333 11.6667L7.5 10ZM17.5 10L14.1667 11.6667C14.1667 12.5875 14.9125 13.3333 15.8333 13.3333C16.7542 13.3333 17.5 12.5875 17.5 11.6667V10ZM11.6667 15.8333L10.8333 16.6667L10.0586 15.8919C9.54443 16.0469 9.16667 16.5183 9.16667 17.0833C9.16667 17.7733 9.72667 18.3333 10.4167 18.3333H14.5833C15.2733 18.3333 15.8333 17.7733 15.8333 17.0833C15.8333 16.5183 15.4556 16.0469 14.9414 15.8919L14.1667 16.6667L13.3333 15.8333L12.5 16.6667L11.6667 15.8333Z" fill="#BB6BD9"/>
<path d="M4.16667 0C1.87174 0 0 1.87174 0 4.16667V20.8333C0 23.1283 1.87174 25 4.16667 25H20.8333C23.1283 25 25 23.1283 25 20.8333V4.16667C25 1.87174 23.1283 0 20.8333 0H4.16667ZM4.16667 1.19048H20.8333C22.4842 1.19048 23.8095 2.51581 23.8095 4.16667V20.8333C23.8095 22.4842 22.4842 23.8095 20.8333 23.8095H4.16667C2.51581 23.8095 1.19048 22.4842 1.19048 20.8333V4.16667C1.19048 2.51581 2.51581 1.19048 4.16667 1.19048Z" fill="#BB6BD9"/>
</svg>
