<svg width="25" height="25" viewBox="0 0 25 25" fill="none" xmlns="http://www.w3.org/2000/svg">
<path d="M12.5 2.5C6.98583 2.5 2.5 6.98583 2.5 12.5C2.5 14.3183 2.99599 16.0194 3.84766 17.4902C4.05182 17.1619 4.26043 16.8444 4.46126 16.5527L4.9056 15.9115C4.4356 14.869 4.16667 13.7158 4.16667 12.5C4.16667 7.905 7.905 4.16667 12.5 4.16667C17.0733 4.16667 20.7951 7.87152 20.8301 12.4365L21.3721 13.2194C21.6679 13.6469 21.9789 14.1306 22.2673 14.6273C22.4164 13.9406 22.5 13.2308 22.5 12.5C22.5 6.98583 18.0142 2.5 12.5 2.5ZM10.0391 8.33008C9.9362 8.32645 9.83356 8.3419 9.73633 8.37565L7.23633 9.20898C7.13245 9.24361 7.03641 9.29836 6.95369 9.3701C6.87097 9.44184 6.80319 9.52917 6.75422 9.62711C6.65533 9.8249 6.63905 10.0539 6.70898 10.2637C6.74361 10.3675 6.79836 10.4636 6.8701 10.5463C6.94184 10.629 7.02917 10.6968 7.12711 10.7458C7.3249 10.8447 7.55388 10.8609 7.76367 10.791L10.2637 9.95768C10.4512 9.89836 10.6117 9.77462 10.7168 9.60835C10.8219 9.44208 10.8648 9.24399 10.8379 9.04913C10.811 8.85428 10.7161 8.67522 10.5699 8.54362C10.4237 8.41203 10.2357 8.33639 10.0391 8.33008ZM15.0195 8.33008C14.8178 8.3222 14.6201 8.3878 14.4631 8.51468C14.3061 8.64157 14.2005 8.82112 14.1659 9.01999C14.1313 9.21886 14.1701 9.42353 14.275 9.59599C14.3799 9.76845 14.5438 9.89697 14.7363 9.95768L17.2363 10.791C17.3402 10.8257 17.4499 10.8395 17.5591 10.8318C17.6684 10.824 17.775 10.7948 17.873 10.7459C17.9709 10.6969 18.0583 10.6291 18.13 10.5464C18.2018 10.4637 18.2566 10.3676 18.2912 10.2637C18.3258 10.1598 18.3397 10.0501 18.3319 9.9409C18.3241 9.83167 18.2949 9.72503 18.2459 9.62709C18.1969 9.52914 18.1291 9.4418 18.0464 9.37007C17.9636 9.29833 17.8676 9.24359 17.7637 9.20898L15.2637 8.37565C15.185 8.34835 15.1027 8.33299 15.0195 8.33008ZM12.5 12.5C10.1992 12.5 8.33333 14.3658 8.33333 16.6667H16.6667C16.6667 14.3658 14.8008 12.5 12.5 12.5ZM20 14.1667C20 14.1667 18.3333 16.5792 18.3333 17.5C18.3333 18.4208 19.0792 19.1667 20 19.1667C20.9208 19.1667 21.6667 18.4208 21.6667 17.5C21.6667 16.5792 20 14.1667 20 14.1667ZM5.83333 17.5C5.83333 17.5 4.16667 19.9125 4.16667 20.8333C4.16667 21.7542 4.9125 22.5 5.83333 22.5C6.75417 22.5 7.5 21.7542 7.5 20.8333C7.5 19.9125 5.83333 17.5 5.83333 17.5ZM17.2314 19.3522C15.8864 20.2847 14.2567 20.8333 12.5 20.8333C11.2667 20.8333 10.0988 20.5574 9.0446 20.0749C9.11626 20.344 9.16667 20.6017 9.16667 20.8333C9.16667 21.1908 9.09505 21.5297 8.99088 21.8522C10.0842 22.2647 11.2642 22.5 12.5 22.5C14.76 22.5 16.8398 21.7371 18.5156 20.4688C17.9981 20.2087 17.5523 19.8305 17.2314 19.3522Z" fill="#BB6BD9"/>
<path d="M4.16667 0C1.87174 0 0 1.87174 0 4.16667V20.8333C0 23.1283 1.87174 25 4.16667 25H20.8333C23.1283 25 25 23.1283 25 20.8333V4.16667C25 1.87174 23.1283 0 20.8333 0H4.16667ZM4.16667 1.19048H20.8333C22.4842 1.19048 23.8095 2.51581 23.8095 4.16667V20.8333C23.8095 22.4842 22.4842 23.8095 20.8333 23.8095H4.16667C2.51581 23.8095 1.19048 22.4842 1.19048 20.8333V4.16667C1.19048 2.51581 2.51581 1.19048 4.16667 1.19048Z" fill="#BB6BD9"/>
</svg>
