<svg width="25" height="25" viewBox="0 0 25 25" fill="none" xmlns="http://www.w3.org/2000/svg">
<path d="M12.5 2.5C6.98702 2.5 2.5 6.98702 2.5 12.5C2.5 18.013 6.98702 22.5 12.5 22.5C18.013 22.5 22.5 18.013 22.5 12.5C22.5 6.98702 18.013 2.5 12.5 2.5ZM12.5 4.16667C17.1122 4.16667 20.8333 7.88776 20.8333 12.5C20.8333 17.1122 17.1122 20.8333 12.5 20.8333C7.88776 20.8333 4.16667 17.1122 4.16667 12.5C4.16667 7.88776 7.88776 4.16667 12.5 4.16667ZM8.75 10.8333C8.41848 10.8333 8.10054 10.965 7.86612 11.1994C7.6317 11.4339 7.5 11.7518 7.5 12.0833C7.5 12.4149 7.6317 12.7328 7.86612 12.9672C8.10054 13.2016 8.41848 13.3333 8.75 13.3333C9.08152 13.3333 9.39946 13.2016 9.63388 12.9672C9.8683 12.7328 10 12.4149 10 12.0833C10 11.7518 9.8683 11.4339 9.63388 11.1994C9.39946 10.965 9.08152 10.8333 8.75 10.8333ZM16.25 10.8333C15.9185 10.8333 15.6005 10.965 15.3661 11.1994C15.1317 11.4339 15 11.7518 15 12.0833C15 12.4149 15.1317 12.7328 15.3661 12.9672C15.6005 13.2016 15.9185 13.3333 16.25 13.3333C16.5815 13.3333 16.8995 13.2016 17.1339 12.9672C17.3683 12.7328 17.5 12.4149 17.5 12.0833C17.5 11.7518 17.3683 11.4339 17.1339 11.1994C16.8995 10.965 16.5815 10.8333 16.25 10.8333ZM12.5 15C11.2361 15 10.232 15.5053 9.56217 15.9928C9.38354 16.123 9.26392 16.3188 9.22962 16.5372C9.19533 16.7555 9.24916 16.9786 9.37928 17.1572C9.5094 17.3359 9.70516 17.4556 9.9235 17.49C10.1418 17.5243 10.3649 17.4706 10.5436 17.3405C11.0188 16.9947 11.6806 16.6667 12.5 16.6667C13.3194 16.6667 13.9812 16.9947 14.4564 17.3405C14.5449 17.405 14.6452 17.4514 14.7516 17.4771C14.858 17.5028 14.9685 17.5073 15.0767 17.4903C15.1848 17.4733 15.2886 17.4352 15.382 17.3781C15.4754 17.321 15.5567 17.246 15.6211 17.1575C15.6856 17.069 15.732 16.9687 15.7577 16.8623C15.7833 16.7558 15.7878 16.6454 15.7708 16.5372C15.7537 16.4291 15.7156 16.3253 15.6584 16.2319C15.6013 16.1385 15.5264 16.0573 15.4378 15.9928C14.768 15.5053 13.7639 15 12.5 15Z" fill="#BB6BD9"/>
<path d="M4.16667 0C1.87174 0 0 1.87174 0 4.16667V20.8333C0 23.1283 1.87174 25 4.16667 25H20.8333C23.1283 25 25 23.1283 25 20.8333V4.16667C25 1.87174 23.1283 0 20.8333 0H4.16667ZM4.16667 1.19048H20.8333C22.4842 1.19048 23.8095 2.51581 23.8095 4.16667V20.8333C23.8095 22.4842 22.4842 23.8095 20.8333 23.8095H4.16667C2.51581 23.8095 1.19048 22.4842 1.19048 20.8333V4.16667C1.19048 2.51581 2.51581 1.19048 4.16667 1.19048Z" fill="#BB6BD9"/>
</svg>
