<svg width="25" height="25" viewBox="0 0 25 25" fill="none" xmlns="http://www.w3.org/2000/svg">
<path d="M12.5 2.5C6.98702 2.5 2.5 6.98702 2.5 12.5C2.5 18.013 6.98702 22.5 12.5 22.5C18.013 22.5 22.5 18.013 22.5 12.5C22.5 6.98702 18.013 2.5 12.5 2.5ZM12.5 4.16667C17.1122 4.16667 20.8333 7.88776 20.8333 12.5C20.8333 17.1122 17.1122 20.8333 12.5 20.8333C7.88776 20.8333 4.16667 17.1122 4.16667 12.5C4.16667 7.88776 7.88776 4.16667 12.5 4.16667ZM8.75 10.8333C8.41848 10.8333 8.10054 10.965 7.86612 11.1994C7.6317 11.4339 7.5 11.7518 7.5 12.0833C7.5 12.4149 7.6317 12.7328 7.86612 12.9672C8.10054 13.2016 8.41848 13.3333 8.75 13.3333C9.08152 13.3333 9.39946 13.2016 9.63388 12.9672C9.8683 12.7328 10 12.4149 10 12.0833C10 11.7518 9.8683 11.4339 9.63388 11.1994C9.39946 10.965 9.08152 10.8333 8.75 10.8333ZM16.25 10.8333C15.9185 10.8333 15.6005 10.965 15.3661 11.1994C15.1317 11.4339 15 11.7518 15 12.0833C15 12.4149 15.1317 12.7328 15.3661 12.9672C15.6005 13.2016 15.9185 13.3333 16.25 13.3333C16.5815 13.3333 16.8995 13.2016 17.1339 12.9672C17.3683 12.7328 17.5 12.4149 17.5 12.0833C17.5 11.7518 17.3683 11.4339 17.1339 11.1994C16.8995 10.965 16.5815 10.8333 16.25 10.8333ZM9.21875 15.8333C9.10832 15.8318 8.99869 15.8522 8.89621 15.8934C8.79374 15.9345 8.70047 15.9957 8.62183 16.0732C8.54319 16.1507 8.48074 16.2431 8.43812 16.345C8.3955 16.4469 8.37355 16.5562 8.37355 16.6667C8.37355 16.7771 8.3955 16.8864 8.43812 16.9883C8.48074 17.0902 8.54319 17.1826 8.62183 17.2601C8.70047 17.3377 8.79374 17.3988 8.89621 17.44C8.99869 17.4812 9.10832 17.5016 9.21875 17.5H15.7812C15.8917 17.5016 16.0013 17.4812 16.1038 17.44C16.2063 17.3988 16.2995 17.3377 16.3782 17.2601C16.4568 17.1826 16.5193 17.0902 16.5619 16.9883C16.6045 16.8864 16.6265 16.7771 16.6265 16.6667C16.6265 16.5562 16.6045 16.4469 16.5619 16.345C16.5193 16.2431 16.4568 16.1507 16.3782 16.0732C16.2995 15.9957 16.2063 15.9345 16.1038 15.8934C16.0013 15.8522 15.8917 15.8318 15.7812 15.8333H9.21875Z" fill="#BB6BD9"/>
<path d="M4.16667 0C1.87174 0 0 1.87174 0 4.16667V20.8333C0 23.1283 1.87174 25 4.16667 25H20.8333C23.1283 25 25 23.1283 25 20.8333V4.16667C25 1.87174 23.1283 0 20.8333 0H4.16667ZM4.16667 1.19048H20.8333C22.4842 1.19048 23.8095 2.51581 23.8095 4.16667V20.8333C23.8095 22.4842 22.4842 23.8095 20.8333 23.8095H4.16667C2.51581 23.8095 1.19048 22.4842 1.19048 20.8333V4.16667C1.19048 2.51581 2.51581 1.19048 4.16667 1.19048Z" fill="#BB6BD9"/>
</svg>
