<svg width="25" height="25" viewBox="0 0 25 25" fill="none" xmlns="http://www.w3.org/2000/svg">
<path d="M12.5 2.5C6.98702 2.5 2.5 6.98702 2.5 12.5C2.5 18.013 6.98702 22.5 12.5 22.5C18.013 22.5 22.5 18.013 22.5 12.5C22.5 6.98702 18.013 2.5 12.5 2.5ZM12.5 4.16667C17.1122 4.16667 20.8333 7.88776 20.8333 12.5C20.8333 17.1122 17.1122 20.8333 12.5 20.8333C7.88776 20.8333 4.16667 17.1122 4.16667 12.5C4.16667 7.88776 7.88776 4.16667 12.5 4.16667ZM8.75 10.8333C8.41848 10.8333 8.10054 10.965 7.86612 11.1994C7.6317 11.4339 7.5 11.7518 7.5 12.0833C7.5 12.4149 7.6317 12.7328 7.86612 12.9672C8.10054 13.2016 8.41848 13.3333 8.75 13.3333C9.08152 13.3333 9.39946 13.2016 9.63388 12.9672C9.8683 12.7328 10 12.4149 10 12.0833C10 11.7518 9.8683 11.4339 9.63388 11.1994C9.39946 10.965 9.08152 10.8333 8.75 10.8333ZM16.25 10.8333C15.9185 10.8333 15.6005 10.965 15.3661 11.1994C15.1317 11.4339 15 11.7518 15 12.0833C15 12.4149 15.1317 12.7328 15.3661 12.9672C15.6005 13.2016 15.9185 13.3333 16.25 13.3333C16.5815 13.3333 16.8995 13.2016 17.1339 12.9672C17.3683 12.7328 17.5 12.4149 17.5 12.0833C17.5 11.7518 17.3683 11.4339 17.1339 11.1994C16.8995 10.965 16.5815 10.8333 16.25 10.8333ZM9.99512 15.8268C9.8223 15.8365 9.6568 15.8998 9.52158 16.0078C9.38635 16.1159 9.28813 16.2633 9.24053 16.4297C9.19293 16.5962 9.19833 16.7733 9.25596 16.9365C9.3136 17.0997 9.42063 17.2409 9.56217 17.3405C10.2324 17.8276 11.2361 18.3333 12.5 18.3333C13.7639 18.3333 14.768 17.828 15.4378 17.3405C15.5264 17.2761 15.6013 17.1948 15.6584 17.1014C15.7156 17.008 15.7537 16.9043 15.7708 16.7961C15.7878 16.688 15.7833 16.5775 15.7577 16.4711C15.732 16.3646 15.6856 16.2643 15.6211 16.1758C15.5567 16.0873 15.4754 16.0123 15.382 15.9552C15.2886 15.8982 15.1848 15.86 15.0767 15.843C14.9685 15.826 14.858 15.8305 14.7516 15.8562C14.6452 15.8819 14.5449 15.9284 14.4564 15.9928C13.9812 16.3386 13.3194 16.6667 12.5 16.6667C11.6806 16.6667 11.0184 16.3391 10.542 15.9928C10.4076 15.892 10.2459 15.8341 10.0781 15.8268C10.0505 15.8254 10.0228 15.8254 9.99512 15.8268Z" fill="#BB6BD9"/>
<path d="M4.16667 0C1.87174 0 0 1.87174 0 4.16667V20.8333C0 23.1283 1.87174 25 4.16667 25H20.8333C23.1283 25 25 23.1283 25 20.8333V4.16667C25 1.87174 23.1283 0 20.8333 0H4.16667ZM4.16667 1.19048H20.8333C22.4842 1.19048 23.8095 2.51581 23.8095 4.16667V20.8333C23.8095 22.4842 22.4842 23.8095 20.8333 23.8095H4.16667C2.51581 23.8095 1.19048 22.4842 1.19048 20.8333V4.16667C1.19048 2.51581 2.51581 1.19048 4.16667 1.19048Z" fill="#BB6BD9"/>
</svg>
