<svg width="25" height="25" viewBox="0 0 25 25" fill="none" xmlns="http://www.w3.org/2000/svg">
<path d="M12.5 2.5C6.98702 2.5 2.5 6.98702 2.5 12.5C2.5 18.013 6.98702 22.5 12.5 22.5C18.013 22.5 22.5 18.013 22.5 12.5C22.5 6.98702 18.013 2.5 12.5 2.5ZM12.5 4.16667C17.1122 4.16667 20.8333 7.88776 20.8333 12.5C20.8333 17.1122 17.1122 20.8333 12.5 20.8333C7.88776 20.8333 4.16667 17.1122 4.16667 12.5C4.16667 7.88776 7.88776 4.16667 12.5 4.16667ZM7.5 10.8333C7.38957 10.8318 7.27994 10.8522 7.17746 10.8934C7.07499 10.9345 6.98172 10.9957 6.90308 11.0732C6.82444 11.1507 6.76199 11.2431 6.71937 11.345C6.67675 11.4469 6.6548 11.5562 6.6548 11.6667C6.6548 11.7771 6.67675 11.8864 6.71937 11.9883C6.76199 12.0902 6.82444 12.1826 6.90308 12.2601C6.98172 12.3377 7.07499 12.3988 7.17746 12.44C7.27994 12.4812 7.38957 12.5016 7.5 12.5H10C10.1104 12.5016 10.2201 12.4812 10.3225 12.44C10.425 12.3988 10.5183 12.3377 10.5969 12.2601C10.6756 12.1826 10.738 12.0902 10.7806 11.9883C10.8233 11.8864 10.8452 11.7771 10.8452 11.6667C10.8452 11.5562 10.8233 11.4469 10.7806 11.345C10.738 11.2431 10.6756 11.1507 10.5969 11.0732C10.5183 10.9957 10.425 10.9345 10.3225 10.8934C10.2201 10.8522 10.1104 10.8318 10 10.8333H7.5ZM15 10.8333C14.8896 10.8318 14.7799 10.8522 14.6775 10.8934C14.575 10.9345 14.4817 10.9957 14.4031 11.0732C14.3244 11.1507 14.262 11.2431 14.2194 11.345C14.1767 11.4469 14.1548 11.5562 14.1548 11.6667C14.1548 11.7771 14.1767 11.8864 14.2194 11.9883C14.262 12.0902 14.3244 12.1826 14.4031 12.2601C14.4817 12.3377 14.575 12.3988 14.6775 12.44C14.7799 12.4812 14.8896 12.5016 15 12.5H17.5C17.6104 12.5016 17.7201 12.4812 17.8225 12.44C17.925 12.3988 18.0183 12.3377 18.0969 12.2601C18.1756 12.1826 18.238 12.0902 18.2806 11.9883C18.3233 11.8864 18.3452 11.7771 18.3452 11.6667C18.3452 11.5562 18.3233 11.4469 18.2806 11.345C18.238 11.2431 18.1756 11.1507 18.0969 11.0732C18.0183 10.9957 17.925 10.9345 17.8225 10.8934C17.7201 10.8522 17.6104 10.8318 17.5 10.8333H15ZM8.33333 15C8.33333 17.3008 10.1992 19.1667 12.5 19.1667C14.8008 19.1667 16.6667 17.3008 16.6667 15H8.33333Z" fill="#BB6BD9"/>
<path d="M4.16667 0C1.87174 0 0 1.87174 0 4.16667V20.8333C0 23.1283 1.87174 25 4.16667 25H20.8333C23.1283 25 25 23.1283 25 20.8333V4.16667C25 1.87174 23.1283 0 20.8333 0H4.16667ZM4.16667 1.19048H20.8333C22.4842 1.19048 23.8095 2.51581 23.8095 4.16667V20.8333C23.8095 22.4842 22.4842 23.8095 20.8333 23.8095H4.16667C2.51581 23.8095 1.19048 22.4842 1.19048 20.8333V4.16667C1.19048 2.51581 2.51581 1.19048 4.16667 1.19048Z" fill="#BB6BD9"/>
</svg>
