<svg width="140" height="28" viewBox="0 0 140 28" fill="none" xmlns="http://www.w3.org/2000/svg">
<path d="M14.5312 16.5859C14.3203 18.3906 13.6523 19.7852 12.5273 20.7695C11.4102 21.7461 9.92188 22.2344 8.0625 22.2344C6.04688 22.2344 4.42969 21.5117 3.21094 20.0664C2 18.6211 1.39453 16.6875 1.39453 14.2656V12.625C1.39453 11.0391 1.67578 9.64453 2.23828 8.44141C2.80859 7.23828 3.61328 6.31641 4.65234 5.67578C5.69141 5.02734 6.89453 4.70312 8.26172 4.70312C10.0742 4.70312 11.5273 5.21094 12.6211 6.22656C13.7148 7.23438 14.3516 8.63281 14.5312 10.4219H12.2695C12.0742 9.0625 11.6484 8.07812 10.9922 7.46875C10.3438 6.85938 9.43359 6.55469 8.26172 6.55469C6.82422 6.55469 5.69531 7.08594 4.875 8.14844C4.0625 9.21094 3.65625 10.7227 3.65625 12.6836V14.3359C3.65625 16.1875 4.04297 17.6602 4.81641 18.7539C5.58984 19.8477 6.67188 20.3945 8.0625 20.3945C9.3125 20.3945 10.2695 20.1133 10.9336 19.5508C11.6055 18.9805 12.0508 17.9922 12.2695 16.5859H14.5312ZM25.1016 22C24.9766 21.75 24.875 21.3047 24.7969 20.6641C23.7891 21.7109 22.5859 22.2344 21.1875 22.2344C19.9375 22.2344 18.9102 21.8828 18.1055 21.1797C17.3086 20.4688 16.9102 19.5703 16.9102 18.4844C16.9102 17.1641 17.4102 16.1406 18.4102 15.4141C19.418 14.6797 20.832 14.3125 22.6523 14.3125H24.7617V13.3164C24.7617 12.5586 24.5352 11.957 24.082 11.5117C23.6289 11.0586 22.9609 10.832 22.0781 10.832C21.3047 10.832 20.6562 11.0273 20.1328 11.418C19.6094 11.8086 19.3477 12.2812 19.3477 12.8359H17.168C17.168 12.2031 17.3906 11.5938 17.8359 11.0078C18.2891 10.4141 18.8984 9.94531 19.6641 9.60156C20.4375 9.25781 21.2852 9.08594 22.207 9.08594C23.668 9.08594 24.8125 9.45312 25.6406 10.1875C26.4688 10.9141 26.8984 11.918 26.9297 13.1992V19.0352C26.9297 20.1992 27.0781 21.125 27.375 21.8125V22H25.1016ZM21.5039 20.3477C22.1836 20.3477 22.8281 20.1719 23.4375 19.8203C24.0469 19.4688 24.4883 19.0117 24.7617 18.4492V15.8477H23.0625C20.4062 15.8477 19.0781 16.625 19.0781 18.1797C19.0781 18.8594 19.3047 19.3906 19.7578 19.7734C20.2109 20.1562 20.793 20.3477 21.5039 20.3477ZM36.457 11.2656C36.1289 11.2109 35.7734 11.1836 35.3906 11.1836C33.9688 11.1836 33.0039 11.7891 32.4961 13V22H30.3281V9.32031H32.4375L32.4727 10.7852C33.1836 9.65234 34.1914 9.08594 35.4961 9.08594C35.918 9.08594 36.2383 9.14062 36.457 9.25V11.2656ZM43.4883 22.2344C41.7695 22.2344 40.3711 21.6719 39.293 20.5469C38.2148 19.4141 37.6758 17.9023 37.6758 16.0117V15.6133C37.6758 14.3555 37.9141 13.2344 38.3906 12.25C38.875 11.2578 39.5469 10.4844 40.4062 9.92969C41.2734 9.36719 42.2109 9.08594 43.2188 9.08594C44.8672 9.08594 46.1484 9.62891 47.0625 10.7148C47.9766 11.8008 48.4336 13.3555 48.4336 15.3789V16.2812H39.8438C39.875 17.5312 40.2383 18.543 40.9336 19.3164C41.6367 20.082 42.5273 20.4648 43.6055 20.4648C44.3711 20.4648 45.0195 20.3086 45.5508 19.9961C46.082 19.6836 46.5469 19.2695 46.9453 18.7539L48.2695 19.7852C47.207 21.418 45.6133 22.2344 43.4883 22.2344ZM43.2188 10.8672C42.3438 10.8672 41.6094 11.1875 41.0156 11.8281C40.4219 12.4609 40.0547 13.3516 39.9141 14.5H46.2656V14.3359C46.2031 13.2344 45.9062 12.3828 45.375 11.7812C44.8438 11.1719 44.125 10.8672 43.2188 10.8672Z" fill="white"/>
<path d="M54.8867 5.9375L60.4648 19.8594L66.043 5.9375H68.9609V23H66.7109V16.3555L66.9219 9.18359L61.3203 23H59.5977L54.0078 9.21875L54.2305 16.3555V23H51.9805V5.9375H54.8867ZM80.4219 23C80.2969 22.75 80.1953 22.3047 80.1172 21.6641C79.1094 22.7109 77.9062 23.2344 76.5078 23.2344C75.2578 23.2344 74.2305 22.8828 73.4258 22.1797C72.6289 21.4688 72.2305 20.5703 72.2305 19.4844C72.2305 18.1641 72.7305 17.1406 73.7305 16.4141C74.7383 15.6797 76.1523 15.3125 77.9727 15.3125H80.082V14.3164C80.082 13.5586 79.8555 12.957 79.4023 12.5117C78.9492 12.0586 78.2812 11.832 77.3984 11.832C76.625 11.832 75.9766 12.0273 75.4531 12.418C74.9297 12.8086 74.668 13.2812 74.668 13.8359H72.4883C72.4883 13.2031 72.7109 12.5938 73.1562 12.0078C73.6094 11.4141 74.2188 10.9453 74.9844 10.6016C75.7578 10.2578 76.6055 10.0859 77.5273 10.0859C78.9883 10.0859 80.1328 10.4531 80.9609 11.1875C81.7891 11.9141 82.2188 12.918 82.25 14.1992V20.0352C82.25 21.1992 82.3984 22.125 82.6953 22.8125V23H80.4219ZM76.8242 21.3477C77.5039 21.3477 78.1484 21.1719 78.7578 20.8203C79.3672 20.4688 79.8086 20.0117 80.082 19.4492V16.8477H78.3828C75.7266 16.8477 74.3984 17.625 74.3984 19.1797C74.3984 19.8594 74.625 20.3906 75.0781 20.7734C75.5312 21.1562 76.1133 21.3477 76.8242 21.3477ZM85.1328 16.5547C85.1328 14.5781 85.5898 13.0078 86.5039 11.8438C87.418 10.6719 88.6289 10.0859 90.1367 10.0859C91.6836 10.0859 92.8906 10.6328 93.7578 11.7266L93.8633 10.3203H95.8438V22.6953C95.8438 24.3359 95.3555 25.6289 94.3789 26.5742C93.4102 27.5195 92.1055 27.9922 90.4648 27.9922C89.5508 27.9922 88.6562 27.7969 87.7812 27.4062C86.9062 27.0156 86.2383 26.4805 85.7773 25.8008L86.9023 24.5C87.832 25.6484 88.9688 26.2227 90.3125 26.2227C91.3672 26.2227 92.1875 25.9258 92.7734 25.332C93.3672 24.7383 93.6641 23.9023 93.6641 22.8242V21.7344C92.7969 22.7344 91.6133 23.2344 90.1133 23.2344C88.6289 23.2344 87.4258 22.6367 86.5039 21.4414C85.5898 20.2461 85.1328 18.6172 85.1328 16.5547ZM87.3125 16.8008C87.3125 18.2305 87.6055 19.3555 88.1914 20.1758C88.7773 20.9883 89.5977 21.3945 90.6523 21.3945C92.0195 21.3945 93.0234 20.7734 93.6641 19.5312V13.7422C93 12.5312 92.0039 11.9258 90.6758 11.9258C89.6211 11.9258 88.7969 12.3359 88.2031 13.1562C87.6094 13.9766 87.3125 15.1914 87.3125 16.8008ZM101.176 10.3203L101.246 11.9141C102.215 10.6953 103.48 10.0859 105.043 10.0859C107.723 10.0859 109.074 11.5977 109.098 14.6211V23H106.93V14.6094C106.922 13.6953 106.711 13.0195 106.297 12.582C105.891 12.1445 105.254 11.9258 104.387 11.9258C103.684 11.9258 103.066 12.1133 102.535 12.4883C102.004 12.8633 101.59 13.3555 101.293 13.9648V23H99.125V10.3203H101.176ZM120.195 21.7461C119.352 22.7383 118.113 23.2344 116.48 23.2344C115.129 23.2344 114.098 22.8438 113.387 22.0625C112.684 21.2734 112.328 20.1094 112.32 18.5703V10.3203H114.488V18.5117C114.488 20.4336 115.27 21.3945 116.832 21.3945C118.488 21.3945 119.59 20.7773 120.137 19.543V10.3203H122.305V23H120.242L120.195 21.7461ZM132.992 19.6367C132.992 19.0508 132.77 18.5977 132.324 18.2773C131.887 17.9492 131.117 17.668 130.016 17.4336C128.922 17.1992 128.051 16.918 127.402 16.5898C126.762 16.2617 126.285 15.8711 125.973 15.418C125.668 14.9648 125.516 14.4258 125.516 13.8008C125.516 12.7617 125.953 11.8828 126.828 11.1641C127.711 10.4453 128.836 10.0859 130.203 10.0859C131.641 10.0859 132.805 10.457 133.695 11.1992C134.594 11.9414 135.043 12.8906 135.043 14.0469H132.863C132.863 13.4531 132.609 12.9414 132.102 12.5117C131.602 12.082 130.969 11.8672 130.203 11.8672C129.414 11.8672 128.797 12.0391 128.352 12.3828C127.906 12.7266 127.684 13.1758 127.684 13.7305C127.684 14.2539 127.891 14.6484 128.305 14.9141C128.719 15.1797 129.465 15.4336 130.543 15.6758C131.629 15.918 132.508 16.207 133.18 16.543C133.852 16.8789 134.348 17.2852 134.668 17.7617C134.996 18.2305 135.16 18.8047 135.16 19.4844C135.16 20.6172 134.707 21.5273 133.801 22.2148C132.895 22.8945 131.719 23.2344 130.273 23.2344C129.258 23.2344 128.359 23.0547 127.578 22.6953C126.797 22.3359 126.184 21.8359 125.738 21.1953C125.301 20.5469 125.082 19.8477 125.082 19.0977H127.25C127.289 19.8242 127.578 20.4023 128.117 20.832C128.664 21.2539 129.383 21.4648 130.273 21.4648C131.094 21.4648 131.75 21.3008 132.242 20.9727C132.742 20.6367 132.992 20.1914 132.992 19.6367Z" fill="#F2C94C"/>
</svg>
