<svg width="400" height="301" viewBox="0 0 400 301" fill="none" xmlns="http://www.w3.org/2000/svg">
<path d="M222.728 0.971191C223.057 1.24149 223.353 1.53218 223.612 1.8399C224.387 2.7231 224.932 3.7017 225.219 4.7271C225.706 6.35148 225.621 8.03836 224.972 9.63277C224.127 11.7725 222.189 13.5996 219.549 14.7429C217.955 15.4308 216.186 15.8803 214.348 16.0646C212.509 16.249 210.638 16.1644 208.846 15.816C206.82 15.4432 204.991 14.6453 203.591 13.5228C202.862 12.9224 202.312 12.2202 201.975 11.4596C201.629 10.6526 201.679 9.78388 202.116 9.0004C202.648 8.2222 203.502 7.5832 204.559 7.17223C205.617 6.76126 206.825 6.59874 208.015 6.70725C210.448 6.94288 212.684 7.79915 214.321 9.12177C216.07 10.4625 217.298 12.1145 217.878 13.9097C218.458 15.7049 218.37 17.5792 217.624 19.3419C216.775 21.078 215.299 22.6177 213.348 23.8007C211.397 24.9837 209.043 25.7667 206.532 26.0681C204.148 26.3838 201.689 26.1792 199.467 25.4804C198.373 25.129 197.411 24.5948 196.658 23.9218C195.923 23.2417 195.494 22.4143 195.431 21.552C195.33 20.7058 195.67 19.8628 196.384 19.1886C197.112 18.5567 198.12 18.1276 199.237 17.975C200.275 17.8359 201.343 17.8603 202.367 18.0466C203.391 18.2329 204.348 18.5767 205.172 19.0545C206.713 19.926 207.858 21.112 208.457 22.4591C208.986 23.7024 209.047 25.0255 208.634 26.2916C207.884 28.4446 206.196 30.3661 203.82 31.7722C202.055 32.8183 200.069 33.6529 197.939 34.2442C196.145 34.7713 194.281 35.1609 192.375 35.4067C192.492 35.3687 192.613 35.3388 192.737 35.3173L193.806 35.0937C195.176 34.8063 196.523 34.4651 197.842 34.0717C199.924 33.4594 201.861 32.6145 203.582 31.5678C205.855 30.1809 207.458 28.3058 208.157 26.215C208.538 25.012 208.468 23.7572 207.954 22.5804C207.374 21.3146 206.286 20.2025 204.827 19.3866C204.066 18.9481 203.182 18.6332 202.238 18.4635C201.293 18.2937 200.309 18.2731 199.352 18.4029C198.368 18.5376 197.481 18.9173 196.844 19.4761C196.23 20.0677 195.941 20.8026 196.031 21.5393C196.102 22.3016 196.487 23.0312 197.135 23.6344C197.83 24.2475 198.713 24.7351 199.714 25.0588C201.832 25.7143 204.17 25.9011 206.435 25.5954C208.828 25.3116 211.074 24.5696 212.937 23.4463C214.801 22.3231 216.215 20.8596 217.032 19.2078C217.735 17.5293 217.814 15.7466 217.262 14.039C216.71 12.3313 215.547 10.7588 213.888 9.47947C212.361 8.24085 210.278 7.43303 208.007 7.1991C206.944 7.09331 205.861 7.23037 204.911 7.59111C203.961 7.95186 203.191 8.51827 202.708 9.21119C202.321 9.89861 202.277 10.662 202.584 11.3702C202.885 12.0765 203.388 12.7293 204.059 13.2865C205.379 14.3546 207.105 15.1168 209.022 15.4774C210.744 15.8195 212.543 15.9086 214.313 15.7397C216.083 15.5707 217.788 15.1471 219.328 14.4937C221.889 13.3989 223.782 11.6441 224.627 9.58167C225.285 8.02743 225.404 6.37978 224.972 4.78459C224.712 3.77526 224.216 2.80535 223.506 1.91656C223.02 1.28418 222.693 0.990354 222.728 0.971191Z" fill="#E0E0E0"/>
<path d="M142.468 266.523C142.797 266.793 143.092 267.084 143.351 267.392C144.127 268.272 144.672 269.249 144.958 270.272C145.445 271.899 145.36 273.588 144.711 275.185C143.871 277.326 141.931 279.154 139.289 280.295C137.696 280.985 135.928 281.437 134.089 281.622C132.25 281.808 130.378 281.723 128.585 281.374C126.54 281.008 124.695 280.207 123.286 279.075C122.553 278.479 122.002 277.778 121.67 277.018C121.319 276.211 121.369 275.341 121.811 274.559C122.343 273.78 123.197 273.14 124.254 272.728C125.311 272.316 126.519 272.152 127.711 272.259C130.141 272.5 132.375 273.355 134.016 274.674C135.764 276.015 136.99 277.667 137.57 279.462C138.15 281.257 138.064 283.131 137.319 284.894C136.471 286.63 134.994 288.169 133.043 289.352C131.092 290.535 128.738 291.318 126.227 291.62C123.843 291.936 121.384 291.731 119.162 291.032C118.069 290.68 117.107 290.146 116.353 289.474C115.627 288.797 115.2 287.978 115.126 287.123C115.033 286.276 115.376 285.434 116.089 284.76C116.814 284.126 117.823 283.697 118.941 283.546C119.979 283.406 121.047 283.43 122.072 283.616C123.096 283.803 124.052 284.147 124.876 284.625C126.412 285.498 127.556 286.68 128.161 288.024C128.69 289.267 128.748 290.591 128.329 291.856C127.588 294.009 125.906 295.931 123.533 297.337C121.768 298.383 119.782 299.217 117.652 299.809C115.858 300.335 113.993 300.725 112.088 300.971C112.204 300.932 112.325 300.902 112.45 300.882L113.519 300.658C114.889 300.371 116.236 300.03 117.555 299.636C119.636 299.022 121.572 298.177 123.295 297.132C125.568 295.745 127.171 293.87 127.87 291.779C128.251 290.577 128.181 289.322 127.666 288.145C127.086 286.879 125.998 285.768 124.54 284.951C123.778 284.513 122.895 284.199 121.95 284.031C121.005 283.862 120.021 283.843 119.065 283.974C118.083 284.108 117.196 284.485 116.557 285.041C115.942 285.634 115.653 286.371 115.744 287.11C115.811 287.873 116.196 288.603 116.848 289.205C117.541 289.818 118.425 290.304 119.427 290.623C121.543 291.281 123.882 291.47 126.147 291.166C128.541 290.882 130.786 290.14 132.65 289.017C134.514 287.894 135.927 286.431 136.745 284.779C137.448 283.101 137.527 281.32 136.975 279.613C136.423 277.906 135.26 276.335 133.601 275.057C132.076 273.816 129.992 273.006 127.719 272.77C126.657 272.667 125.576 272.805 124.627 273.166C123.678 273.526 122.907 274.091 122.421 274.782C122.034 275.47 121.99 276.233 122.297 276.941C122.599 277.647 123.101 278.3 123.772 278.857C125.094 279.923 126.82 280.685 128.735 281.048C130.457 281.389 132.256 281.477 134.025 281.308C135.795 281.139 137.5 280.716 139.041 280.065C141.605 278.973 143.499 277.217 144.34 275.153C145.005 273.599 145.126 271.951 144.693 270.356C144.436 269.346 143.94 268.376 143.227 267.487C142.759 266.836 142.433 266.542 142.468 266.523Z" fill="#E0E0E0"/>
<path d="M10.8712 57.3801C11.3545 57.2901 11.8482 57.2324 12.3461 57.2076C13.7872 57.1129 15.2401 57.2148 16.6293 57.5079C18.8484 57.9467 20.8798 58.7813 22.5375 59.9351C24.7811 61.4631 26.1306 63.5546 26.3085 65.7798C26.4167 67.1192 26.1519 68.4607 25.5299 69.7247C24.9079 70.9887 23.9414 72.1495 22.6876 73.1383C21.3025 74.2625 19.4902 75.0668 17.4771 75.4506C16.4052 75.6448 15.2887 75.6731 14.2006 75.5337C13.0528 75.3893 12.0117 74.9574 11.2598 74.3136C10.5496 73.6129 10.1586 72.7695 10.1412 71.9008C10.1238 71.032 10.4808 70.1808 11.1626 69.4654C12.5772 68.0163 14.6593 66.9791 17.0355 66.5399C19.4784 66.0332 22.0631 66.0026 24.5275 66.4513C26.992 66.9 29.2486 67.812 31.0686 69.095C32.806 70.4405 34.0131 72.0982 34.5645 73.8956C35.1159 75.693 34.9913 77.5644 34.2037 79.3151C33.4862 80.997 32.0937 82.4866 30.2031 83.5948C29.267 84.1323 28.1686 84.5022 26.9973 84.6743C25.8336 84.827 24.6333 84.7224 23.5531 84.3741C22.4711 84.045 21.5963 83.4373 21.098 82.6686C20.6581 81.9111 20.5957 81.0667 20.9213 80.2796C21.2295 79.5484 21.7518 78.8738 22.4529 78.3017C23.1539 77.7297 24.0171 77.2736 24.9838 76.9645C26.7669 76.3809 28.7497 76.1941 30.68 76.4279C32.4439 76.6687 34.0888 77.2415 35.449 78.0887C37.7439 79.5599 39.3231 81.5263 39.953 83.697C40.4222 85.3136 40.5295 86.9742 40.2709 88.6155C40.0884 90.0093 39.7066 91.3858 39.1316 92.7227C39.131 92.6298 39.1489 92.5373 39.1846 92.448C39.2376 92.2436 39.3171 91.9817 39.4054 91.656C39.681 90.6443 39.8844 89.6231 40.0148 88.5963C40.2282 86.9763 40.0851 85.3421 39.5909 83.7545C38.926 81.675 37.3679 79.8012 35.1399 78.4017C33.836 77.6035 32.2641 77.0681 30.5829 76.8495C28.76 76.6352 26.8901 76.8198 25.2134 77.3797C24.3242 77.6665 23.5305 78.0881 22.886 78.616C22.2415 79.1438 21.7612 79.7656 21.4777 80.4393C21.1885 81.1317 21.2448 81.8755 21.6367 82.5409C22.0797 83.2076 22.8469 83.7329 23.7915 84.0164C24.7598 84.3242 25.8332 84.4154 26.8737 84.2783C27.9472 84.1171 28.9523 83.7733 29.8057 83.2754C31.5936 82.2268 32.9044 80.8136 33.5679 79.2193C34.3221 77.5471 34.4414 75.759 33.9131 74.042C33.3849 72.325 32.2286 70.7422 30.5652 69.4591C28.8353 68.2313 26.688 67.3556 24.3403 66.9204C21.9925 66.4853 19.5276 66.506 17.1945 66.9807C14.9677 67.3873 13.0122 68.3514 11.6749 69.7018C11.0603 70.3328 10.7304 71.0857 10.7304 71.8576C10.7304 72.6294 11.0603 73.3824 11.6749 74.0134C12.3401 74.581 13.2584 74.9628 14.2713 75.0929C15.2734 75.2221 16.3016 75.2003 17.2916 75.029C19.2115 74.6767 20.9426 73.9183 22.2637 72.8509C23.476 71.9041 24.4132 70.791 25.02 69.5775C25.6268 68.364 25.8908 67.0748 25.7963 65.7862C25.6632 63.6386 24.3993 61.6092 22.2637 60.114C20.6772 58.9812 18.7302 58.1477 16.5939 57.6867C15.2339 57.3841 13.8116 57.2544 12.3902 57.3035C11.3834 57.3226 10.8712 57.412 10.8712 57.3801Z" fill="#E0E0E0"/>
<path d="M345.67 125.031C345.273 124.822 344.904 124.587 344.566 124.328C343.582 123.586 342.792 122.72 342.234 121.773C341.324 120.285 340.941 118.656 341.122 117.034C341.336 114.855 342.694 112.819 344.919 111.342C346.257 110.454 347.829 109.77 349.54 109.331C351.252 108.892 353.068 108.707 354.881 108.787C356.928 108.853 358.902 109.358 360.551 110.237C361.415 110.706 362.134 111.3 362.661 111.981C363.224 112.702 363.415 113.544 363.2 114.357C362.904 115.18 362.262 115.916 361.361 116.462C360.46 117.008 359.347 117.337 358.175 117.404C355.781 117.52 353.407 117.02 351.472 115.993C349.433 114.959 347.807 113.554 346.76 111.919C345.714 110.285 345.282 108.48 345.511 106.686C345.846 104.899 346.839 103.211 348.384 101.796C349.93 100.382 351.972 99.2929 354.298 98.6439C356.504 97.9969 358.927 97.839 361.257 98.1904C362.401 98.3722 363.469 98.7464 364.375 99.2827C365.258 99.8277 365.893 100.554 366.194 101.365C366.516 102.163 366.419 103.018 365.92 103.767C365.4 104.476 364.553 105.032 363.527 105.338C362.569 105.62 361.538 105.749 360.505 105.717C359.472 105.685 358.46 105.493 357.539 105.153C355.823 104.54 354.401 103.567 353.459 102.362C352.608 101.249 352.187 99.9914 352.24 98.7206C352.361 96.5505 353.449 94.4668 355.34 92.7801C356.747 91.53 358.423 90.4516 360.303 89.5863C361.876 88.824 363.555 88.1818 365.311 87.67C365.213 87.7258 365.106 87.773 364.993 87.8106L364.03 88.1747C362.796 88.6455 361.599 89.1658 360.445 89.7332C358.613 90.6186 356.986 91.7072 355.623 92.959C353.827 94.6158 352.803 96.642 352.7 98.7461C352.668 99.954 353.079 101.146 353.892 102.202C354.799 103.332 356.148 104.244 357.769 104.821C358.62 105.131 359.553 105.305 360.506 105.332C361.458 105.358 362.407 105.236 363.288 104.974C364.194 104.708 364.942 104.219 365.399 103.594C365.822 102.936 365.898 102.189 365.611 101.493C365.335 100.771 364.766 100.126 363.977 99.6404C363.143 99.1541 362.163 98.8151 361.116 98.6503C358.907 98.3239 356.614 98.4795 354.528 99.0975C352.312 99.7155 350.366 100.753 348.895 102.102C347.423 103.45 346.48 105.06 346.164 106.763C345.949 108.471 346.359 110.191 347.354 111.749C348.35 113.306 349.895 114.647 351.834 115.635C353.639 116.605 355.861 117.08 358.104 116.976C359.147 116.923 360.141 116.636 360.949 116.155C361.756 115.674 362.336 115.024 362.608 114.294C362.797 113.579 362.631 112.84 362.14 112.205C361.653 111.575 360.992 111.025 360.197 110.589C358.64 109.757 356.779 109.275 354.846 109.203C353.102 109.12 351.354 109.291 349.703 109.706C348.053 110.121 346.534 110.771 345.237 111.617C343.075 113.03 341.736 114.985 341.493 117.085C341.284 118.669 341.618 120.266 342.464 121.735C342.984 122.673 343.729 123.538 344.663 124.29C345.299 124.801 345.696 125.031 345.67 125.031Z" fill="#E0E0E0"/>
<path d="M359.05 65.454C359.05 65.454 357.195 59.7882 350.439 60.5994L351.888 56.9457C351.888 56.9457 363.13 58.2743 361.823 64.0934L359.05 65.454Z" fill="#EBEBEB"/>
<path d="M331.874 294.756C331.874 294.756 330.02 289.09 323.264 289.908L324.712 286.254C324.712 286.254 335.946 287.583 334.647 293.402L331.874 294.756Z" fill="#EBEBEB"/>
<path d="M47.0801 281.221C47.0801 281.221 39.9002 283.846 42.5673 288.413L37.3215 288.247C37.3215 288.247 36.4825 280.033 44.6074 279.592L47.0801 281.221Z" fill="#EBEBEB"/>
<path d="M178.765 287.972C178.765 287.972 184.947 291.728 189.672 288.164L191.518 291.722C191.518 291.722 181.397 295.497 177.652 290.259L178.765 287.972Z" fill="#EBEBEB"/>
<path d="M393.872 188.537C393.872 188.537 392.018 182.871 385.262 183.682L386.701 180.028C386.701 180.028 397.944 181.357 396.645 187.176L393.872 188.537Z" fill="#F5F5F5"/>
<path d="M120.857 19.5144C120.857 19.5144 121.387 13.708 114.596 13.0501L117.457 9.85632C117.457 9.85632 127.666 13.51 124.063 18.799L120.857 19.5144Z" fill="#EBEBEB"/>
<path d="M68.7521 3.90314C68.7468 4.19792 68.6212 4.485 68.391 4.72827C68.1607 4.97153 67.8362 5.16013 67.4582 5.27033C67.0801 5.38052 66.6655 5.4074 66.2664 5.34758C65.8672 5.28777 65.5015 5.14392 65.2151 4.93414C64.9288 4.72436 64.7346 4.45801 64.657 4.1686C64.5793 3.8792 64.6218 3.57965 64.7789 3.30765C64.9361 3.03564 65.201 2.80332 65.5402 2.63992C65.8795 2.47651 66.2779 2.38931 66.6855 2.38928C66.9591 2.38927 67.23 2.42855 67.4825 2.50486C67.735 2.58118 67.964 2.69299 68.1562 2.83382C68.3485 2.97465 68.5001 3.1417 68.6024 3.32526C68.7047 3.50882 68.7556 3.70525 68.7521 3.90314Z" fill="#EBEBEB"/>
<path d="M258.875 16.6975C258.875 16.9931 258.754 17.2821 258.527 17.5279C258.3 17.7737 257.977 17.9652 257.6 18.0784C257.222 18.1915 256.806 18.2211 256.406 18.1634C256.005 18.1058 255.636 17.9634 255.347 17.7544C255.058 17.5453 254.862 17.279 254.782 16.9891C254.702 16.6991 254.743 16.3986 254.9 16.1255C255.056 15.8523 255.321 15.6189 255.661 15.4547C256 15.2904 256.4 15.2028 256.809 15.2028C257.356 15.2044 257.88 15.3625 258.267 15.6424C258.654 15.9223 258.873 16.3016 258.875 16.6975Z" fill="#EBEBEB"/>
<path d="M392.812 52.4552C392.805 52.7485 392.679 53.034 392.45 53.2758C392.22 53.5177 391.897 53.7052 391.521 53.8152C391.144 53.9251 390.732 53.9526 390.334 53.8941C389.937 53.8356 389.572 53.6938 389.285 53.4863C388.998 53.2788 388.802 53.0148 388.721 52.7273C388.64 52.4398 388.678 52.1414 388.83 51.8693C388.982 51.5973 389.242 51.3636 389.576 51.1974C389.91 51.0313 390.305 50.94 390.711 50.9349C390.988 50.9315 391.263 50.9684 391.521 51.0436C391.778 51.1188 392.011 51.2306 392.207 51.3725C392.404 51.5143 392.558 51.6833 392.662 51.8693C392.766 52.0553 392.817 52.2546 392.812 52.4552Z" fill="#EBEBEB"/>
<path d="M384.024 276.302C384.026 276.599 383.905 276.89 383.678 277.138C383.451 277.386 383.128 277.579 382.749 277.694C382.37 277.808 381.952 277.839 381.549 277.782C381.146 277.725 380.775 277.582 380.484 277.372C380.193 277.163 379.994 276.895 379.914 276.604C379.833 276.313 379.873 276.01 380.03 275.736C380.187 275.461 380.453 275.226 380.794 275.061C381.136 274.896 381.538 274.808 381.948 274.808C382.497 274.808 383.024 274.965 383.413 275.245C383.802 275.525 384.021 275.905 384.024 276.302Z" fill="#EBEBEB"/>
<path d="M279.063 293.025C279.065 293.322 278.944 293.613 278.717 293.861C278.49 294.108 278.167 294.302 277.788 294.416C277.409 294.531 276.991 294.562 276.588 294.504C276.185 294.447 275.814 294.305 275.523 294.095C275.232 293.885 275.033 293.618 274.953 293.327C274.872 293.035 274.912 292.733 275.069 292.458C275.226 292.184 275.492 291.949 275.834 291.784C276.175 291.618 276.577 291.53 276.987 291.53C277.536 291.53 278.063 291.688 278.452 291.968C278.841 292.248 279.061 292.628 279.063 293.025Z" fill="#EBEBEB"/>
<path d="M346.641 153.373C346.641 153.668 346.52 153.957 346.293 154.203C346.066 154.449 345.743 154.641 345.365 154.754C344.988 154.867 344.572 154.897 344.171 154.839C343.77 154.781 343.402 154.639 343.113 154.43C342.824 154.221 342.627 153.954 342.548 153.664C342.468 153.375 342.509 153.074 342.665 152.801C342.822 152.528 343.086 152.294 343.426 152.13C343.766 151.966 344.166 151.878 344.574 151.878C345.122 151.878 345.648 152.036 346.036 152.316C346.423 152.596 346.641 152.976 346.641 153.373Z" fill="#EBEBEB"/>
<path d="M54.3929 62.2409C54.3947 62.5384 54.2742 62.8295 54.0468 63.0773C53.8195 63.3251 53.4954 63.5185 53.1158 63.6329C52.7363 63.7473 52.3182 63.7776 51.9148 63.7199C51.5114 63.6621 51.1408 63.519 50.8501 63.3087C50.5593 63.0984 50.3614 62.8304 50.2816 62.5386C50.2018 62.2468 50.2437 61.9445 50.4019 61.6699C50.56 61.3954 50.8274 61.161 51.17 60.9965C51.5127 60.8321 51.9152 60.745 52.3264 60.7462C52.8745 60.7462 53.4001 60.9037 53.7876 61.184C54.1752 61.4643 54.3929 61.8445 54.3929 62.2409Z" fill="#EBEBEB"/>
<path d="M7.33044 173.353C7.33044 173.651 7.20849 173.941 6.98005 174.188C6.75162 174.435 6.42696 174.627 6.04722 174.741C5.66748 174.854 5.24974 174.884 4.84692 174.825C4.4441 174.767 4.07432 174.623 3.78443 174.413C3.49454 174.202 3.29757 173.934 3.2185 173.642C3.13942 173.351 3.18178 173.049 3.34021 172.775C3.49865 172.5 3.76603 172.266 4.10848 172.102C4.45094 171.938 4.85305 171.851 5.2639 171.852C5.53602 171.852 5.80547 171.891 6.05677 171.967C6.30808 172.042 6.53628 172.153 6.72829 172.292C6.92031 172.432 7.07234 172.597 7.17568 172.779C7.27901 172.962 7.3316 173.157 7.33044 173.353Z" fill="#EBEBEB"/>
<path d="M345.926 250.388C347.525 254.05 347.488 257.984 345.82 261.63C342.005 259.305 337.686 255.409 336.361 251.927C334.998 248.486 335.127 244.825 336.732 241.439C341.029 243.643 344.248 246.776 345.926 250.388Z" fill="#455A64"/>
<path d="M343.762 256.181C343.754 255.967 343.722 255.753 343.665 255.543C343.586 255.153 343.444 254.585 343.241 253.895C342.722 252.082 342.04 250.297 341.201 248.548C340.366 246.802 339.381 245.095 338.251 243.438C337.819 242.799 337.448 242.295 337.174 241.95C337.044 241.766 336.897 241.589 336.732 241.42C336.821 241.617 336.937 241.807 337.077 241.988C337.315 242.34 337.66 242.857 338.075 243.502C338.896 244.78 339.956 246.581 340.936 248.612C341.764 250.354 342.469 252.126 343.047 253.92C343.276 254.604 343.444 255.166 343.559 255.555C343.602 255.768 343.67 255.977 343.762 256.181Z" fill="#263238"/>
<path d="M368.472 253.556C370.067 257.221 370.03 261.156 368.366 264.805C364.542 262.473 360.224 258.583 358.899 255.096C357.577 251.583 357.749 247.863 359.393 244.422C363.668 246.704 366.843 249.899 368.472 253.556Z" fill="#455A64"/>
<path d="M366.318 259.356C366.311 259.142 366.278 258.928 366.221 258.717C366.141 258.321 366 257.759 365.797 257.063C365.269 255.254 364.588 253.471 363.757 251.723C362.921 249.977 361.936 248.27 360.807 246.613C360.366 245.974 359.995 245.469 359.73 245.124C359.601 244.941 359.451 244.765 359.279 244.601C359.372 244.795 359.487 244.983 359.624 245.163C359.871 245.521 360.215 246.038 360.622 246.677C361.443 247.954 362.512 249.762 363.483 251.787C364.454 253.812 365.152 255.715 365.603 257.095C365.823 257.785 365.991 258.372 366.106 258.73C366.15 258.943 366.221 259.153 366.318 259.356Z" fill="#263238"/>
<path d="M381.586 242.525C385.682 240.078 388.606 236.758 389.94 233.039C384.986 233.493 378.46 235.07 374.715 237.51C370.964 239.938 368.313 243.128 367.111 246.664C372.417 246.417 377.481 244.969 381.586 242.525Z" fill="#455A64"/>
<path d="M384.13 236.814C383.964 236.984 383.781 237.144 383.583 237.293C383.221 237.587 382.699 238.009 381.993 238.513C380.19 239.827 378.276 241.058 376.261 242.199C374.25 243.34 372.141 244.387 369.947 245.335C369.064 245.699 368.41 245.974 367.925 246.166C367.68 246.272 367.423 246.361 367.156 246.434C367.376 246.305 367.613 246.191 367.863 246.096C368.34 245.891 369.011 245.591 369.841 245.214C371.492 244.46 373.736 243.368 376.085 242.02C378.434 240.672 380.439 239.376 381.852 238.392L383.503 237.217C383.696 237.07 383.906 236.935 384.13 236.814Z" fill="#263238"/>
<path d="M359.835 238.245C363.929 235.797 366.852 232.478 368.19 228.76C363.235 229.213 356.709 230.791 352.955 233.199C349.21 235.63 346.561 238.819 345.352 242.352C350.656 242.119 355.725 240.682 359.835 238.245Z" fill="#455A64"/>
<path d="M362.37 232.528C362.213 232.7 362.033 232.861 361.832 233.007C361.47 233.301 360.949 233.723 360.233 234.227C358.433 235.541 356.522 236.772 354.51 237.913C352.492 239.052 350.381 240.101 348.187 241.056C347.304 241.413 346.651 241.694 346.165 241.88C345.92 241.986 345.663 242.075 345.396 242.148C345.62 242.02 345.86 241.907 346.112 241.809C346.58 241.605 347.26 241.305 348.081 240.928C352.417 238.972 356.458 236.691 360.136 234.125C360.843 233.633 361.408 233.231 361.796 232.95C361.973 232.799 362.164 232.658 362.37 232.528Z" fill="#263238"/>
<path d="M321.021 242.122C321.23 242.084 321.443 242.056 321.657 242.039L323.485 241.86L324.81 241.733C325.296 241.694 325.826 241.669 326.4 241.637C327.539 241.573 328.828 241.477 330.268 241.464L332.529 241.413C333.306 241.413 334.127 241.413 334.975 241.413C336.662 241.413 338.463 241.516 340.362 241.599C344.473 241.857 348.557 242.311 352.585 242.959C356.601 243.639 360.551 244.507 364.41 245.559C366.176 246.076 367.863 246.549 369.382 247.079C370.15 247.341 370.901 247.571 371.599 247.833L373.604 248.58C374.893 249.04 376.006 249.538 376.995 249.947C377.481 250.158 377.949 250.343 378.364 250.535L379.485 251.059L381.022 251.8C381.21 251.879 381.388 251.971 381.552 252.074C381.355 252.009 381.166 251.932 380.987 251.844L379.406 251.154L378.267 250.643C377.851 250.465 377.383 250.286 376.889 250.081C375.891 249.685 374.778 249.2 373.48 248.753L371.475 248.024C370.769 247.769 370.018 247.545 369.259 247.29C367.731 246.766 366.044 246.306 364.286 245.802C356.593 243.692 348.533 242.364 340.336 241.854C338.446 241.765 336.653 241.65 334.966 241.643C334.083 241.643 333.306 241.599 332.529 241.643H330.277C328.846 241.643 327.557 241.733 326.417 241.777L324.828 241.848L323.503 241.95L321.666 242.084C321.453 242.107 321.237 242.12 321.021 242.122Z" fill="#263238"/>
<path d="M390.286 252.093C394.72 254.204 398.119 257.274 400 260.864C395.002 260.8 388.255 259.752 384.183 257.67C380.096 255.549 376.982 252.589 375.246 249.174C380.56 248.975 385.824 249.997 390.286 252.093Z" fill="#455A64"/>
<path d="M393.694 257.574C393.506 257.419 393.299 257.276 393.076 257.146C392.679 256.878 392.069 256.507 391.31 256.054C389.322 254.897 387.236 253.83 385.066 252.86C382.889 251.889 380.633 251.014 378.31 250.241C377.427 249.947 376.685 249.724 376.173 249.602C375.912 249.52 375.644 249.451 375.369 249.398C375.61 249.508 375.864 249.602 376.129 249.679L378.222 250.394C379.988 251.033 382.372 251.927 384.916 253.064C387.079 254.035 389.172 255.087 391.186 256.213C391.963 256.648 392.582 256.999 393.005 257.248C393.221 257.372 393.451 257.481 393.694 257.574Z" fill="#263238"/>
<path d="M360.443 200.092C366.196 199.024 372.268 199.295 377.797 200.865C373.973 203.803 367.702 207.048 362.253 207.891C356.76 208.745 351.038 208.38 345.836 206.844C349.607 203.542 354.716 201.18 360.443 200.092Z" fill="#455A64"/>
<path d="M369.241 202.193C368.925 202.185 368.608 202.198 368.296 202.232C367.686 202.27 366.803 202.353 365.717 202.468C360.069 203.099 354.551 204.236 349.291 205.853C348.284 206.166 347.48 206.435 346.933 206.633C346.642 206.726 346.361 206.835 346.094 206.959C346.396 206.893 346.691 206.812 346.977 206.716C347.533 206.543 348.355 206.294 349.37 206.007C354.657 204.479 360.147 203.347 365.752 202.628L368.305 202.321C368.621 202.296 368.934 202.253 369.241 202.193Z" fill="#263238"/>
<path d="M351.225 215.946C356.408 216.012 361.431 217.254 365.585 219.498C361.416 221.331 355.102 223.017 350.236 222.825C345.333 222.624 340.628 221.36 336.732 219.197C340.973 217.042 346.042 215.905 351.225 215.946Z" fill="#455A64"/>
<path d="M357.972 219.191C357.708 219.128 357.436 219.086 357.159 219.063C356.63 218.993 355.861 218.916 354.916 218.833C352.437 218.624 349.941 218.528 347.445 218.546C344.951 218.567 342.462 218.699 339.991 218.942C339.037 219.031 338.278 219.127 337.748 219.197C337.471 219.224 337.199 219.271 336.936 219.338C337.214 219.332 337.491 219.313 337.766 219.28C338.296 219.223 339.064 219.159 340.009 219.082C342.478 218.878 344.96 218.767 347.445 218.75C350.359 218.75 352.991 218.846 354.89 218.974C355.844 219.038 356.612 219.095 357.142 219.14C357.416 219.173 357.694 219.19 357.972 219.191Z" fill="#263238"/>
<path d="M341.14 204.73C340.003 201.072 337.306 197.765 333.43 195.276C331.787 198.597 330.78 203.414 332.026 206.818C333.283 210.251 335.942 213.33 339.656 215.652C341.721 212.214 342.24 208.393 341.14 204.73Z" fill="#455A64"/>
<path d="M335.408 200.603C335.538 200.782 335.647 200.967 335.735 201.159C335.938 201.516 336.194 202.04 336.503 202.698C337.278 204.413 337.909 206.16 338.393 207.93C338.876 209.701 339.203 211.494 339.373 213.295C339.435 213.985 339.462 214.573 339.471 214.93C339.499 215.132 339.499 215.335 339.471 215.537C339.422 215.339 339.393 215.138 339.382 214.937C339.382 214.554 339.285 213.991 339.197 213.308C338.737 209.723 337.763 206.182 336.291 202.743C336.018 202.104 335.779 201.548 335.611 201.184C335.515 200.996 335.447 200.801 335.408 200.603Z" fill="#263238"/>
<path d="M347.948 189.853C345.599 186.603 341.889 183.974 337.35 182.341C336.962 185.777 337.695 190.504 340.062 193.494C342.477 196.498 346.087 198.906 350.421 200.405C351.146 196.787 350.281 193.096 347.948 189.853Z" fill="#455A64"/>
<path d="M341.076 186.991C341.263 187.135 341.434 187.288 341.588 187.451C341.897 187.758 342.33 188.205 342.851 188.767C345.529 191.718 347.686 194.901 349.272 198.24C349.572 198.878 349.793 199.409 349.934 199.773C350.021 199.958 350.086 200.148 350.128 200.341C350.006 200.165 349.905 199.981 349.828 199.792C349.66 199.434 349.413 198.923 349.086 198.291C348.247 196.643 347.292 195.027 346.225 193.449C345.154 191.872 343.975 190.335 342.692 188.843L341.509 187.496C341.346 187.336 341.202 187.167 341.076 186.991Z" fill="#263238"/>
<path d="M308.523 243.272C308.571 243.228 308.624 243.188 308.682 243.151L309.177 242.799L311.102 241.477L312.498 240.525L314.105 239.363C315.253 238.52 316.595 237.581 317.973 236.476L320.172 234.77C320.932 234.17 321.682 233.493 322.477 232.854C324.093 231.576 325.692 230.082 327.405 228.555C331.037 225.193 334.43 221.698 337.57 218.086C340.663 214.452 343.478 210.699 346.004 206.844C347.108 205.049 348.212 203.356 349.068 201.734C349.51 200.922 349.951 200.143 350.349 199.383C350.746 198.623 351.082 197.882 351.417 197.179C352.142 195.78 352.636 194.484 353.122 193.347L353.784 191.769C353.961 191.283 354.12 190.836 354.261 190.427C354.553 189.635 354.773 189.016 354.932 188.575C355.009 188.379 355.071 188.22 355.118 188.096C355.135 188.038 355.161 187.983 355.197 187.93C355.206 187.987 355.206 188.045 355.197 188.102C355.153 188.224 355.109 188.383 355.047 188.588L354.438 190.459C354.305 190.862 354.155 191.315 353.996 191.807L353.36 193.391C352.901 194.528 352.415 195.831 351.709 197.224C351.382 197.927 351.029 198.667 350.667 199.434C350.305 200.201 349.837 200.986 349.395 201.804C348.512 203.445 347.461 205.145 346.366 206.952C343.848 210.825 341.032 214.594 337.932 218.239C334.789 221.862 331.381 225.361 327.723 228.721C326.001 230.248 324.393 231.717 322.76 233.014C321.956 233.652 321.196 234.291 320.437 234.93L318.211 236.635C316.816 237.728 315.465 238.66 314.299 239.491L312.621 240.647L311.199 241.579L309.23 242.857L308.709 243.189C308.652 243.222 308.59 243.25 308.523 243.272Z" fill="#263238"/>
<path d="M352.903 165.95C353.662 164.871 354.801 163.74 356.435 163.632C357.209 163.636 357.962 163.812 358.593 164.135C359.225 164.458 359.704 164.913 359.968 165.439C360.456 166.506 360.633 167.635 360.489 168.754C361.202 166.269 363.182 164.069 366.035 162.59C366.98 162.105 368.313 161.715 369.241 162.213C369.531 162.422 369.76 162.671 369.912 162.946C370.063 163.22 370.136 163.515 370.124 163.81C370.436 166.155 370.302 168.519 369.726 170.837C370.948 170.095 372.394 169.572 373.948 169.31C375.511 169.138 377.357 169.674 377.816 170.773C378.001 171.391 377.946 172.035 377.657 172.632C376.199 176.549 373.44 180.149 369.62 183.12C367.598 184.685 365.205 186.109 362.264 186.544C359.323 186.978 355.631 186.978 354.316 185.036L354.792 185.528C352.08 182.687 350.473 179.371 350.141 175.926C349.808 172.482 350.762 169.036 352.903 165.95Z" fill="#BB6BD9"/>
<path d="M356.188 186.263C356.226 186.203 356.255 186.141 356.277 186.078C356.338 185.943 356.409 185.771 356.506 185.554C356.603 185.337 356.709 185.049 356.859 184.73C357.01 184.41 357.169 184.04 357.381 183.644C357.592 183.248 357.804 182.807 358.078 182.366C358.352 181.926 358.652 181.421 358.961 180.91C360.399 178.702 362.218 176.635 364.375 174.759C364.878 174.331 365.355 173.922 365.832 173.564C366.309 173.207 366.715 172.868 367.175 172.568C367.634 172.268 367.996 172.012 368.331 171.782C368.667 171.552 368.985 171.367 369.215 171.214L369.797 170.856C369.921 170.773 369.992 170.728 369.983 170.722C369.904 170.752 369.83 170.788 369.762 170.83L369.162 171.163C368.897 171.309 368.588 171.488 368.234 171.712C367.881 171.935 367.466 172.185 367.051 172.485C366.636 172.785 366.168 173.124 365.682 173.468C365.196 173.813 364.711 174.235 364.198 174.663C363.114 175.607 362.108 176.596 361.187 177.627C360.286 178.655 359.473 179.722 358.749 180.821C358.431 181.332 358.122 181.823 357.866 182.29C357.61 182.756 357.381 183.197 357.186 183.599C356.992 184.002 356.833 184.372 356.7 184.698C356.568 185.024 356.453 185.298 356.374 185.535C356.294 185.771 356.241 185.924 356.188 186.065C356.177 186.131 356.177 186.197 356.188 186.263Z" fill="#263238"/>
<path d="M360.806 178.393C360.853 178.264 360.877 178.131 360.877 177.997C360.877 177.742 360.939 177.359 360.974 176.912C361.036 175.998 361.08 174.733 361.036 173.334C360.992 171.936 360.895 170.671 360.78 169.757C360.727 169.297 360.674 168.927 360.621 168.678C360.611 168.544 360.581 168.411 360.532 168.282C360.515 168.414 360.515 168.546 360.532 168.678C360.532 168.972 360.585 169.317 360.621 169.764C360.691 170.677 360.771 171.942 360.815 173.334C360.859 174.727 360.815 175.998 360.815 176.912C360.815 177.339 360.815 177.704 360.815 177.997C360.793 178.129 360.79 178.262 360.806 178.393Z" fill="#263238"/>
<g opacity="0.3">
<path d="M369.788 170.818C369.788 170.818 362.352 172.919 361.08 177.933C361.08 177.933 364.966 173.283 369.788 170.818Z" fill="black"/>
</g>
<path d="M384.492 207.169C385.693 206.78 387.141 206.48 388.263 207.003C388.74 207.278 389.088 207.652 389.26 208.075C389.432 208.498 389.42 208.949 389.226 209.367C388.804 210.195 388.152 210.952 387.309 211.59C389.427 210.311 392.131 209.654 394.887 209.75C395.77 209.782 396.882 210.012 397.112 210.644C397.148 210.872 397.12 211.102 397.03 211.321C396.941 211.541 396.792 211.745 396.591 211.922C395.211 213.475 393.54 214.883 391.628 216.106C392.88 216.077 394.124 216.263 395.258 216.649C395.814 216.853 396.256 217.189 396.512 217.6C396.767 218.011 396.82 218.474 396.662 218.91C396.362 219.361 395.89 219.74 395.302 220.002C391.765 221.905 387.639 223.152 383.282 223.637C380.989 223.989 378.601 223.82 376.447 223.151C374.362 222.397 372.031 221.082 372.587 219.44L372.543 219.913C372.78 217.21 374.013 214.603 376.114 212.362C378.215 210.121 381.108 208.328 384.492 207.169Z" fill="#BB6BD9"/>
<path d="M372.834 220.845L373.011 220.769L373.505 220.52L374.282 220.136C374.591 219.996 374.936 219.823 375.333 219.651C375.731 219.478 376.155 219.287 376.64 219.101C377.126 218.916 377.629 218.718 378.168 218.52C379.359 218.099 380.583 217.728 381.833 217.409C383.087 217.099 384.363 216.841 385.657 216.636C386.258 216.553 386.823 216.463 387.362 216.412C387.9 216.361 388.404 216.31 388.863 216.272C389.322 216.233 389.746 216.221 390.099 216.195C390.453 216.17 390.788 216.195 391.044 216.163C390.779 216.163 390.461 216.163 390.099 216.163C389.737 216.163 389.313 216.163 388.845 216.221C388.377 216.278 387.883 216.285 387.344 216.348C386.805 216.412 386.222 216.476 385.622 216.559C384.318 216.759 383.033 217.015 381.771 217.326C380.516 217.646 379.289 218.021 378.097 218.45C377.55 218.654 377.038 218.846 376.561 219.044C376.084 219.242 375.678 219.434 375.263 219.613C374.848 219.791 374.53 219.97 374.229 220.117C373.929 220.264 373.664 220.405 373.461 220.52L372.993 220.788L372.834 220.845Z" fill="#263238"/>
<path d="M380.986 217.652C381.1 217.587 381.203 217.514 381.295 217.434C381.49 217.287 381.755 217.07 382.081 216.796C382.744 216.253 383.618 215.486 384.537 214.611C385.455 213.736 386.241 212.918 386.789 212.318L387.424 211.596C387.566 211.424 387.645 211.328 387.628 211.321C387.527 211.395 387.438 211.476 387.363 211.564L386.683 212.26C386.109 212.854 385.314 213.659 384.395 214.534C383.477 215.409 382.629 216.182 381.984 216.738C381.693 217 381.446 217.224 381.242 217.377C381.142 217.461 381.056 217.553 380.986 217.652Z" fill="#263238"/>
<g opacity="0.3">
<path d="M391.628 216.131C391.628 216.131 385.622 214.803 381.463 217.441C381.463 217.441 386.991 215.946 391.628 216.131Z" fill="black"/>
</g>
<path d="M54.0754 248.893C52.4759 252.558 52.513 256.494 54.1814 260.142C57.9965 257.81 62.3151 253.92 63.6398 250.433C65.003 246.994 64.8735 243.335 63.2689 239.951C58.972 242.152 55.7527 245.283 54.0754 248.893Z" fill="#455A64"/>
<path d="M56.2383 254.7C56.2455 254.485 56.278 254.271 56.3354 254.061C56.4149 253.665 56.5562 253.103 56.7593 252.407C57.2788 250.594 57.9603 248.809 58.7994 247.06C59.6359 245.314 60.621 243.608 61.7491 241.95C62.1818 241.311 62.5527 240.807 62.8265 240.462C62.9544 240.279 63.102 240.104 63.2681 239.938C63.1757 240.132 63.0605 240.32 62.9236 240.5C62.6852 240.858 62.3408 241.375 61.9257 242.014C61.1044 243.291 60.0446 245.099 59.0643 247.124C58.2361 248.866 57.5316 250.638 56.9536 252.432C56.724 253.122 56.5562 253.678 56.4414 254.067C56.3973 254.282 56.3294 254.493 56.2383 254.7Z" fill="#263238"/>
<path d="M31.5282 252.068C29.9248 255.731 29.9526 259.666 31.6076 263.316C35.4316 260.985 39.7502 257.089 41.0749 253.607C42.3978 250.094 42.2255 246.375 40.5803 242.934C36.3143 245.217 33.1479 248.412 31.5282 252.068Z" fill="#455A64"/>
<path d="M33.6914 257.893C33.6996 257.679 33.7321 257.465 33.7886 257.255C33.868 256.865 34.0093 256.296 34.2125 255.607C34.7385 253.785 35.4198 251.989 36.2525 250.228C37.0874 248.482 38.0725 246.775 39.2022 245.118C39.6438 244.479 40.0147 243.975 40.2796 243.63C40.4096 243.445 40.5603 243.267 40.73 243.1C40.641 243.297 40.5257 243.487 40.3856 243.668C40.1383 244.019 39.7939 244.537 39.3876 245.182C38.3158 246.85 37.3608 248.555 36.5263 250.292C35.5548 252.33 34.8571 254.22 34.4067 255.6C34.186 256.284 34.0182 256.878 33.9034 257.235C33.8641 257.459 33.7931 257.68 33.6914 257.893Z" fill="#263238"/>
<path d="M18.4131 241.037C14.3202 238.588 11.3972 235.269 10.0586 231.551C15.013 232.005 21.5394 233.576 25.2839 235.984C29.0293 238.407 31.6789 241.59 32.8877 245.118C27.5907 244.888 22.5274 243.461 18.4131 241.037Z" fill="#455A64"/>
<path d="M15.8691 235.32C16.037 235.486 16.2199 235.644 16.4167 235.792C16.7788 236.092 17.2998 236.508 18.0063 237.012C19.8071 238.327 21.7215 239.558 23.7379 240.698C25.7474 241.842 27.8566 242.892 30.0523 243.841C30.9355 244.205 31.589 244.479 32.0747 244.665C32.3192 244.771 32.5764 244.86 32.8431 244.933C32.6234 244.804 32.3868 244.69 32.1366 244.594C31.6597 244.39 30.9885 244.096 30.1583 243.713C28.5069 242.959 26.2637 241.867 23.9145 240.519C21.5654 239.171 19.5607 237.875 18.1476 236.891L16.4962 235.716C16.3049 235.57 16.0949 235.437 15.8691 235.32Z" fill="#263238"/>
<path d="M40.165 236.757C36.0713 234.308 33.1481 230.99 31.8105 227.271C36.765 227.725 43.2914 229.302 47.0447 231.704C50.7886 234.136 53.4375 237.325 54.6485 240.858C49.3454 240.624 44.2784 239.189 40.165 236.757Z" fill="#455A64"/>
<path d="M37.6309 231.065C37.7898 231.235 37.9701 231.393 38.1696 231.538C38.5317 231.838 39.0527 232.253 39.7681 232.764C41.5682 234.076 43.4795 235.304 45.4908 236.444C47.5046 237.587 49.6166 238.637 51.8141 239.586C52.6972 239.95 53.3507 240.225 53.8365 240.41C54.0712 240.504 54.3164 240.583 54.5695 240.647C54.3427 240.521 54.1037 240.408 53.8541 240.308C53.3861 240.11 52.706 239.81 51.8847 239.433C49.7277 238.445 47.6408 237.379 45.6321 236.239C43.6274 235.103 41.7055 233.892 39.874 232.611C39.1675 232.126 38.6023 231.723 38.2137 231.436C38.0339 231.301 37.8389 231.177 37.6309 231.065Z" fill="#263238"/>
<path d="M78.9795 240.647C78.7696 240.613 78.5574 240.587 78.3437 240.57L76.5156 240.385L75.1909 240.257C74.7052 240.219 74.1664 240.2 73.6012 240.161C72.462 240.104 71.1726 240.002 69.7331 239.989L67.4722 239.944C66.6951 239.944 65.8738 239.944 65.026 239.944C63.3392 239.944 61.4934 240.04 59.6388 240.129C55.5283 240.388 51.4454 240.841 47.4162 241.484C43.4001 242.165 39.45 243.036 35.5909 244.09C33.8247 244.607 32.1379 245.073 30.6189 245.61C29.8505 245.866 29.0999 246.102 28.4022 246.357L26.3975 247.105C25.1081 247.571 23.9953 248.063 23.0062 248.478C22.5205 248.682 22.0524 248.874 21.6373 249.059L20.5158 249.589L18.9791 250.324C18.7934 250.406 18.6162 250.498 18.4492 250.599C18.6449 250.534 18.8338 250.46 19.0144 250.375L20.5952 249.679L21.7345 249.174C22.1496 248.995 22.6176 248.81 23.1122 248.612C24.1101 248.216 25.2229 247.731 26.5211 247.284L28.5258 246.549C29.2323 246.3 29.983 246.07 30.7425 245.821C32.2703 245.297 33.9571 244.837 35.7146 244.326C39.5647 243.292 43.5028 242.439 47.5045 241.771C51.5141 241.129 55.5758 240.67 59.6653 240.398C61.5552 240.302 63.348 240.187 65.0348 240.181C65.9179 240.181 66.6951 240.142 67.4722 240.149L69.7243 240.181C71.1549 240.181 72.4443 240.264 73.5836 240.308C74.1576 240.34 74.6875 240.353 75.1732 240.385L76.4979 240.487L78.3349 240.615C78.548 240.64 78.7637 240.65 78.9795 240.647Z" fill="#263238"/>
<path d="M9.71453 250.599C5.28439 252.713 1.88582 255.781 0 259.369C4.99856 259.305 11.7457 258.258 15.817 256.175C19.8953 254.049 22.9991 251.088 24.7279 247.673C19.4227 247.483 14.1697 248.507 9.71453 250.599Z" fill="#455A64"/>
<path d="M6.32422 256.079C6.51866 255.928 6.72507 255.785 6.94241 255.651C7.33983 255.383 7.94919 255.013 8.70869 254.559C12.6903 252.232 17.0572 250.273 21.7085 248.727C22.5916 248.433 23.3335 248.21 23.8457 248.088C24.1052 248.002 24.3739 247.932 24.6493 247.878C24.4112 247.991 24.1565 248.085 23.8898 248.159C23.3953 248.325 22.6799 248.567 21.7968 248.88C20.0305 249.519 17.6461 250.407 15.1026 251.544C12.9412 252.517 10.8484 253.568 8.83233 254.693C8.05517 255.127 7.43697 255.485 7.01307 255.734C6.79825 255.864 6.56771 255.979 6.32422 256.079Z" fill="#263238"/>
<path d="M39.5557 198.604C33.8109 197.54 27.7491 197.81 22.2285 199.377C26.0525 202.315 32.3228 205.553 37.7718 206.403C43.2659 207.25 48.9851 206.885 54.1893 205.355C50.4114 202.05 45.292 199.688 39.5557 198.604Z" fill="#455A64"/>
<path d="M30.7246 200.699C31.0408 200.695 31.3568 200.71 31.6696 200.744C32.2789 200.782 33.1621 200.859 34.2395 200.98C37.0755 201.298 39.8806 201.746 42.6381 202.321C45.3856 202.887 48.0815 203.576 50.71 204.384C51.7168 204.697 52.5205 204.966 53.068 205.164C53.374 205.255 53.6693 205.364 53.9512 205.49C53.6458 205.431 53.3497 205.35 53.068 205.247C52.5116 205.074 51.6903 204.832 50.6747 204.538C48.0318 203.776 45.3378 203.111 42.6028 202.545C39.397 201.906 36.4209 201.44 34.2925 201.165C33.2239 201.025 32.3496 200.922 31.7402 200.859C31.3955 200.829 31.0554 200.775 30.7246 200.699Z" fill="#263238"/>
<path d="M48.7759 214.458C43.5939 214.522 38.5707 215.762 34.416 218.003C38.5844 219.842 44.8989 221.529 49.765 221.331C54.6676 221.129 59.3728 219.865 63.2682 217.703C59.0292 215.546 53.9581 214.41 48.7759 214.458Z" fill="#455A64"/>
<path d="M42.0293 217.696C42.2946 217.638 42.5665 217.598 42.8418 217.575C43.3717 217.505 44.14 217.421 45.085 217.345C50.0463 216.927 55.0605 216.962 60.01 217.447C60.9638 217.543 61.7233 217.632 62.2532 217.709C62.529 217.736 62.8009 217.781 63.0657 217.843C62.7871 217.842 62.5093 217.822 62.2355 217.786C61.7056 217.734 60.9373 217.664 59.9923 217.588C58.0936 217.434 55.4618 217.281 52.5563 217.255C50.0709 217.242 47.5862 217.319 45.1114 217.485C44.1577 217.549 43.3452 217.607 42.8594 217.651C42.5846 217.681 42.3071 217.696 42.0293 217.696Z" fill="#263238"/>
<path d="M58.8606 203.241C59.992 199.582 62.6899 196.274 66.5704 193.787C68.213 197.103 69.2198 201.919 67.9746 205.33C66.7173 208.762 64.0581 211.841 60.3442 214.164C58.2792 210.725 57.7602 206.904 58.8606 203.241Z" fill="#455A64"/>
<path d="M64.6102 199.127C64.4795 199.303 64.3702 199.487 64.2834 199.677C64.0803 200.034 63.8242 200.565 63.5151 201.223C62.7417 202.933 62.1135 204.676 61.634 206.441C61.151 208.213 60.8236 210.005 60.6537 211.807C60.5919 212.497 60.5654 213.052 60.5566 213.442C60.528 213.642 60.528 213.843 60.5566 214.042C60.6058 213.844 60.6353 213.643 60.6449 213.442C60.6449 213.059 60.742 212.503 60.8303 211.813C61.2751 208.231 62.234 204.693 63.6917 201.255C63.9655 200.616 64.2039 200.06 64.3717 199.69C64.4777 199.509 64.5576 199.32 64.6102 199.127Z" fill="#263238"/>
<path d="M52.0527 188.364C54.4022 185.115 58.1114 182.486 62.6504 180.853C63.0389 184.283 62.3059 189.016 59.9391 192.005C57.5412 195.015 53.9429 197.43 49.6152 198.936C48.8709 195.314 49.7238 191.615 52.0527 188.364Z" fill="#455A64"/>
<path d="M58.9233 185.522C58.7338 185.664 58.5623 185.818 58.411 185.982C58.1019 186.282 57.6692 186.735 57.1482 187.298C55.8124 188.773 54.6032 190.307 53.5273 191.89C52.4539 193.473 51.5189 195.103 50.7277 196.77C50.4275 197.409 50.2067 197.933 50.0654 198.297C49.9794 198.482 49.9144 198.673 49.8711 198.866C49.9928 198.691 50.0932 198.51 50.1714 198.323C50.3392 197.965 50.5864 197.447 50.9132 196.815C51.7528 195.167 52.7078 193.551 53.7746 191.973C54.845 190.399 56.024 188.864 57.3071 187.374C57.8017 186.799 58.1903 186.339 58.4905 186.026C58.6482 185.864 58.7927 185.696 58.9233 185.522Z" fill="#263238"/>
<path d="M91.4747 241.784C91.4747 241.784 91.4217 241.733 91.3157 241.656L90.8212 241.305L88.8959 240.008L87.5006 239.056L85.8933 237.887C84.7452 237.044 83.4028 236.112 82.0251 235.007L79.8261 233.295C79.0666 232.694 78.3159 232.049 77.5211 231.378C75.905 230.101 74.3065 228.606 72.5932 227.08C68.9629 223.714 65.5703 220.218 62.4283 216.604C59.3402 212.97 56.5277 209.217 54.0031 205.362C52.8992 203.561 51.7953 201.868 50.9386 200.252C50.4971 199.434 50.0555 198.655 49.6581 197.895C49.2607 197.135 48.9251 196.394 48.5895 195.691C47.8653 194.298 47.3707 193.002 46.885 191.858L46.2227 190.281L45.7369 188.907C45.4455 188.115 45.2247 187.496 45.0658 187.049C44.9833 186.848 44.9215 186.689 44.8803 186.569C44.8649 186.514 44.8381 186.46 44.8008 186.41C44.793 186.465 44.793 186.521 44.8008 186.576C44.845 186.704 44.8891 186.863 44.9509 187.061C45.0922 187.508 45.2954 188.134 45.5603 188.933C45.6928 189.342 45.8429 189.789 46.0019 190.281L46.6377 191.871C47.097 193.002 47.5827 194.305 48.2892 195.704C48.616 196.406 48.9692 197.147 49.3313 197.92C49.6934 198.693 50.1615 199.466 50.603 200.284C51.4862 201.932 52.5371 203.631 53.6322 205.432C56.1503 209.305 58.966 213.073 62.0662 216.719C65.2203 220.354 68.643 223.864 72.3194 227.233C74.0857 228.76 75.6488 230.229 77.2827 231.525C78.0863 232.164 78.8458 232.803 79.6053 233.442L81.8308 235.141C83.2262 236.239 84.5774 237.166 85.7431 237.996L87.3769 239.152L88.7988 240.085L90.7682 241.362L91.2892 241.688C91.3474 241.724 91.4094 241.756 91.4747 241.784Z" fill="#263238"/>
<path d="M47.0972 164.455C46.3377 163.382 45.1984 162.245 43.5646 162.137C42.7903 162.143 42.037 162.319 41.4056 162.644C40.7742 162.968 40.2949 163.424 40.032 163.951C39.5444 165.016 39.367 166.143 39.511 167.26C38.7951 164.775 36.8158 162.575 33.9649 161.096C33.0199 160.61 31.6864 160.221 30.7591 160.725C30.4676 160.933 30.2387 161.182 30.0867 161.457C29.9347 161.732 29.863 162.026 29.876 162.322C29.564 164.666 29.6977 167.03 30.2734 169.348C29.0524 168.605 27.6061 168.079 26.052 167.815C24.4888 167.649 22.643 168.179 22.1838 169.278C21.9983 169.896 22.0533 170.54 22.3428 171.137C23.7973 175.055 26.5565 178.656 30.3793 181.625C32.4017 183.197 34.795 184.621 37.7359 185.049C40.6767 185.477 44.3683 185.483 45.64 183.548L45.1631 184.04C47.8825 181.2 49.4967 177.885 49.837 174.439C50.1772 170.994 49.231 167.546 47.0972 164.455Z" fill="#BB6BD9"/>
<path d="M43.8129 184.768C43.7744 184.711 43.7447 184.651 43.7246 184.589C43.6628 184.449 43.5922 184.276 43.495 184.066C43.3979 183.855 43.2919 183.555 43.1418 183.235C42.9916 182.916 42.8327 182.552 42.6207 182.149C42.4088 181.747 42.1968 181.319 41.923 180.872C41.6493 180.425 41.349 179.92 41.0399 179.409C40.3122 178.312 39.4984 177.245 38.6024 176.215C37.6877 175.192 36.6941 174.207 35.6262 173.264C35.1229 172.836 34.646 172.427 34.1691 172.063C33.6922 171.699 33.2418 171.367 32.8267 171.073C32.4116 170.779 32.0054 170.518 31.6698 170.288C31.3342 170.058 31.0163 169.866 30.7866 169.713L30.2038 169.355C30.0801 169.272 30.0095 169.227 30.0183 169.221C30.0949 169.254 30.1686 169.29 30.2391 169.329L30.8396 169.662C31.1046 169.806 31.399 169.992 31.7228 170.217C32.076 170.441 32.4911 170.684 32.9062 170.984C33.3213 171.284 33.7893 171.623 34.275 171.974C34.7608 172.325 35.2465 172.74 35.7587 173.162C36.8467 174.108 37.8553 175.099 38.7791 176.132C39.6758 177.162 40.4897 178.228 41.2165 179.326C41.5344 179.843 41.8435 180.329 42.0997 180.802C42.3558 181.274 42.5854 181.702 42.7797 182.079C42.974 182.456 43.1329 182.852 43.2654 183.178C43.3979 183.503 43.5127 183.785 43.5922 184.015C43.6716 184.244 43.7246 184.411 43.7776 184.551C43.8028 184.622 43.8147 184.695 43.8129 184.768Z" fill="#263238"/>
<path d="M39.1928 176.899C39.1449 176.77 39.1211 176.636 39.1221 176.503C39.1221 176.247 39.0603 175.864 39.025 175.423C38.9632 174.51 38.919 173.239 38.9632 171.84C39.0073 170.441 39.1045 169.176 39.2193 168.263C39.2723 167.809 39.3253 167.439 39.3783 167.183C39.3885 167.049 39.4181 166.917 39.4666 166.787C39.4834 166.921 39.4834 167.056 39.4666 167.19C39.4666 167.477 39.4136 167.828 39.3783 168.269C39.3076 169.182 39.2281 170.447 39.184 171.846C39.1398 173.245 39.184 174.503 39.184 175.417C39.184 175.851 39.184 176.215 39.184 176.503C39.2058 176.634 39.2088 176.767 39.1928 176.899Z" fill="#263238"/>
<g opacity="0.3">
<path d="M30.2109 169.329C30.2109 169.329 37.647 171.431 38.9187 176.439C38.9187 176.439 35.0329 171.788 30.2109 169.329Z" fill="black"/>
</g>
<path d="M15.5085 205.681C14.3074 205.285 12.8591 204.991 11.7375 205.509C11.2619 205.784 10.9146 206.158 10.7424 206.581C10.5703 207.004 10.5816 207.454 10.7749 207.872C11.1934 208.703 11.846 209.462 12.6913 210.101C10.577 208.818 7.871 208.159 5.11394 208.255C4.2308 208.255 3.11805 208.517 2.88843 209.156C2.85235 209.383 2.87989 209.614 2.9694 209.833C3.05892 210.053 3.20858 210.257 3.40948 210.433C4.78994 211.987 6.46011 213.395 8.37272 214.617C7.12089 214.592 5.87801 214.777 4.74302 215.16C4.18128 215.366 3.73543 215.707 3.4811 216.124C3.22677 216.54 3.17962 217.008 3.34767 217.447C3.65196 217.895 4.1229 218.274 4.7077 218.539C8.2448 220.44 12.3714 221.686 16.7272 222.168C19.0197 222.519 21.4063 222.352 23.5627 221.688C25.6469 220.928 27.9784 219.612 27.422 217.971V218.444C27.1954 215.74 25.9706 213.13 23.8752 210.885C21.7799 208.641 18.8906 206.844 15.5085 205.681Z" fill="#BB6BD9"/>
<path d="M27.1917 219.363L27.0151 219.28L26.5205 219.038C26.3086 218.929 26.0525 218.795 25.7434 218.654C25.4343 218.514 25.0898 218.335 24.6924 218.169C24.295 218.003 23.8623 217.805 23.3854 217.613C22.9085 217.421 22.3963 217.23 21.8575 217.032C20.665 216.613 19.4415 216.242 18.1925 215.92C16.9401 215.61 15.6632 215.354 14.3685 215.154C13.768 215.064 13.2028 214.981 12.6641 214.93C12.1254 214.879 11.622 214.822 11.1627 214.79C10.7035 214.758 10.2796 214.732 9.92635 214.713C9.57309 214.694 9.2375 214.713 8.98139 214.675H8.38969H8.17773H8.98139C9.29615 214.663 9.61159 214.663 9.92635 214.675C10.2973 214.675 10.7123 214.675 11.1804 214.732C11.6485 214.79 12.143 214.796 12.6817 214.854C13.2205 214.911 13.8033 214.988 14.448 215.064C15.7514 215.264 17.0372 215.52 18.2985 215.831C19.5243 216.145 20.7243 216.51 21.8929 216.923C22.4404 217.128 22.9526 217.319 23.4295 217.524C23.9064 217.728 24.3127 217.913 24.7278 218.092C25.1428 218.271 25.4608 218.443 25.761 218.597C26.0269 218.721 26.2833 218.855 26.5294 218.999L26.9974 219.261L27.1917 219.363Z" fill="#263238"/>
<path d="M19.013 216.138C18.8998 216.073 18.7962 216 18.7039 215.92C18.5096 215.774 18.2447 215.556 17.9179 215.282C17.2556 214.739 16.3812 213.972 15.4628 213.097C14.5443 212.222 13.7583 211.398 13.2108 210.798C12.937 210.497 12.7251 210.248 12.5749 210.076C12.4248 209.903 12.3541 209.808 12.3718 209.801C12.4734 209.876 12.5624 209.96 12.6367 210.05L13.3168 210.747C13.8908 211.334 14.6856 212.145 15.6041 213.014C16.5226 213.883 17.3704 214.662 18.0151 215.218C18.3065 215.486 18.5538 215.703 18.7569 215.857C18.859 215.942 18.9451 216.036 19.013 216.138Z" fill="#263238"/>
<g opacity="0.3">
<path d="M8.37109 214.637C8.37109 214.637 14.3764 213.308 18.536 215.946C18.536 215.946 13.0076 214.458 8.37109 214.637Z" fill="black"/>
</g>
<path d="M327.592 28.1375H75.6152V274.967H327.592V28.1375Z" fill="#455A64"/>
<path d="M327.6 274.967C327.6 273.639 327.512 174.273 327.388 28.1376L327.6 28.2909H75.6494L75.879 28.1248C75.879 120.228 75.879 205.547 75.879 274.954L75.6847 274.82L327.671 274.954L75.6847 275.089H75.4992V274.954C75.4992 205.547 75.4992 120.228 75.4551 28.1248V27.9587H75.72H327.671H327.874V28.112C327.679 174.273 327.6 273.639 327.6 274.967Z" fill="#263238"/>
<path d="M291.683 55.4445H108.82V246.759H291.683V55.4445Z" fill="white"/>
<path d="M291.692 246.759C291.692 245.412 291.603 168.32 291.48 55.4445L291.692 55.5978H108.882L109.112 55.4317C109.112 127.305 109.112 193.698 109.067 246.747L108.882 246.613L291.753 246.747L108.882 246.881H108.696V246.747C108.696 193.698 108.697 127.299 108.652 55.4317V55.2656H108.908H291.718H291.921V55.4189C291.771 168.32 291.692 245.412 291.692 246.759Z" fill="#263238"/>
<path d="M111.019 246.325C111.116 246.389 103.265 252.847 93.4889 260.755C83.7126 268.663 75.7113 275.031 75.6142 274.967C75.517 274.903 83.3681 268.445 93.1445 260.538C102.921 252.63 110.922 246.268 111.019 246.325Z" fill="#263238"/>
<path d="M327.601 29.3191C327.69 29.383 319.838 35.5789 310.062 43.161C300.286 50.7431 292.293 56.8433 292.196 56.7794C292.099 56.7155 299.95 50.5195 309.727 42.9375C319.503 35.3554 327.504 29.2552 327.601 29.3191Z" fill="#263238"/>
<path d="M75.6493 28.1374C75.7465 28.0736 83.7389 34.4356 93.5064 42.3435C103.274 50.2513 111.116 56.7156 111.019 56.7794C110.922 56.8433 102.929 50.4813 93.162 42.567C83.3945 34.6528 75.5522 28.2013 75.6493 28.1374Z" fill="#263238"/>
<path d="M292.196 246.325C292.293 246.268 300.294 252.63 310.07 260.538C319.847 268.445 327.689 274.903 327.601 274.967C327.512 275.031 319.502 268.669 309.726 260.755C299.95 252.84 292.134 246.395 292.196 246.325Z" fill="#263238"/>
<path d="M283.046 61.1996H117.457V241.905H283.046V61.1996Z" fill="#E0E0E0"/>
<path d="M256.808 166.927C256.772 166.539 256.607 166.162 256.329 165.829C256.051 165.496 255.668 165.215 255.21 165.011C241.079 158.24 230.402 143.229 229.334 130.518C229.334 129.796 229.272 129.061 229.236 128.321C228.415 110.148 224.715 88.0787 221.394 82.2404C215.265 71.3815 194.494 70.3722 194.494 70.3722C166.913 68.9414 161.985 84.2717 159.168 98.2286C157.402 106.909 150.77 137.921 150.77 137.921L155.839 139.346C158.751 145.682 163.572 151.472 169.952 156.298C176.333 161.124 184.115 164.865 192.736 167.253C197.814 168.639 202.124 169.169 204.138 168C212.197 173.933 222.169 178.324 233.158 180.775C237.582 181.858 242.255 182.307 246.917 182.098C249.928 181.893 253.099 181.178 254.865 179.415C255.644 178.652 256.107 177.744 256.2 176.798C256.293 175.852 256.012 174.906 255.39 174.071C254.768 173.236 253.83 172.546 252.686 172.082C251.543 171.618 250.24 171.399 248.93 171.45C250.043 168.965 256.923 169.687 256.808 166.927Z" fill="#263238"/>
<path d="M198.158 76.0126L196.392 74.8245L177.749 80.2603C176.448 80.3111 175.22 80.7134 174.309 81.3877C173.398 82.0619 172.87 82.959 172.83 83.9012L172.998 127.842C172.998 130.818 173.793 133.399 176.283 135.775L178.933 138.279C184.903 143.977 197.178 143.51 201.894 137.225C202.178 136.87 202.398 136.49 202.548 136.094C202.667 135.77 202.761 135.442 202.83 135.111C203.378 131.572 203.413 128.506 203.413 128.506C203.749 124.629 203.855 123.032 203.855 123.07C203.855 123.108 215.274 122.118 218.365 111.521C219.901 106.245 219.61 98.9951 219.177 91.8538C218.612 81.9722 209.118 76.0062 198.158 76.0126Z" fill="#FFBE9D"/>
<path d="M194.336 97.7751C194.315 98.1315 194.103 98.4681 193.746 98.7136C193.388 98.9592 192.912 99.0945 192.419 99.0909C192.18 99.096 191.942 99.067 191.719 99.0056C191.495 98.9441 191.291 98.8514 191.117 98.7328C190.943 98.6141 190.803 98.4719 190.705 98.3141C190.608 98.1564 190.554 97.9862 190.547 97.8134C190.568 97.4559 190.78 97.1183 191.14 96.8725C191.499 96.6268 191.977 96.4922 192.472 96.4975C192.712 96.488 192.952 96.5139 193.178 96.5738C193.404 96.6338 193.61 96.7263 193.784 96.8459C193.959 96.9655 194.098 97.1096 194.192 97.2694C194.287 97.4291 194.336 97.6012 194.336 97.7751Z" fill="#263238"/>
<path d="M213.614 98.1455C213.595 98.5036 213.383 98.8421 213.023 99.0882C212.663 99.3343 212.184 99.4683 211.689 99.4613C211.45 99.4664 211.212 99.4374 210.988 99.376C210.765 99.3145 210.56 99.2218 210.387 99.1032C210.213 98.9846 210.073 98.8423 209.975 98.6845C209.877 98.5268 209.823 98.3566 209.816 98.1838C209.837 97.8263 210.05 97.4887 210.409 97.243C210.769 96.9972 211.247 96.8627 211.742 96.868C211.981 96.862 212.219 96.8904 212.443 96.9516C212.667 97.0127 212.872 97.1053 213.046 97.2241C213.22 97.343 213.36 97.4856 213.458 97.6437C213.555 97.8018 213.608 97.9724 213.614 98.1455Z" fill="#263238"/>
<path d="M217.26 94.677C217.013 94.8494 215.635 94.0382 213.595 93.9552C211.555 93.8721 210.009 94.5939 209.798 94.3831C209.586 94.1724 209.957 93.9807 210.681 93.6613C211.592 93.2519 212.656 93.0556 213.728 93.0992C214.788 93.1375 215.805 93.4169 216.633 93.8977C217.189 94.2682 217.384 94.6003 217.26 94.677Z" fill="#263238"/>
<path d="M196.57 94.8304C196.296 94.9773 195.042 94.0639 193.037 93.8404C191.033 93.6168 189.39 94.1853 189.204 93.9809C189.116 93.8915 189.416 93.5976 190.141 93.3421C191.105 93.0027 192.19 92.8867 193.249 93.01C194.301 93.1254 195.274 93.4787 196.031 94.0192C196.561 94.4216 196.702 94.7602 196.57 94.8304Z" fill="#263238"/>
<path d="M203.696 105.568C204.787 105.363 205.908 105.257 207.035 105.255C207.556 105.255 208.059 105.178 208.165 104.923C208.236 104.534 208.14 104.14 207.891 103.792L206.549 100.873C204.694 96.7083 203.378 93.2973 203.608 93.2462C203.838 93.1951 205.533 96.523 207.397 100.681C207.838 101.712 208.262 102.691 208.668 103.62C208.962 104.087 209.021 104.613 208.836 105.108C208.752 105.237 208.629 105.35 208.476 105.44C208.324 105.529 208.145 105.593 207.953 105.625C207.664 105.673 207.367 105.692 207.07 105.683C205.943 105.747 204.81 105.709 203.696 105.568Z" fill="#263238"/>
<path d="M203.889 123.07C196.926 122.894 190.167 121.324 184.363 118.535C184.363 118.535 188.805 126.117 203.686 125.67L203.889 123.07Z" fill="#EB996E"/>
<path d="M202.584 109.062C202.22 108.695 201.734 108.401 201.17 108.207C200.606 108.014 199.983 107.928 199.36 107.957C198.907 107.97 198.462 108.049 198.053 108.19C197.643 108.33 197.277 108.529 196.976 108.775C196.689 109.011 196.508 109.305 196.458 109.618C196.407 109.93 196.489 110.247 196.693 110.525C197.004 110.802 197.422 111.006 197.894 111.111C198.366 111.216 198.87 111.216 199.343 111.112C200.311 110.896 201.211 110.545 201.992 110.078C202.234 109.97 202.444 109.829 202.61 109.662C202.686 109.581 202.726 109.486 202.726 109.388C202.726 109.29 202.686 109.194 202.61 109.113" fill="#EB996E"/>
<path d="M197.638 106.366C197.973 106.366 197.867 107.97 199.678 109.171C201.488 110.371 203.864 110.288 203.864 110.512C203.864 110.614 203.316 110.806 202.318 110.787C201.009 110.758 199.757 110.394 198.786 109.758C197.864 109.152 197.301 108.313 197.214 107.414C197.196 106.743 197.47 106.354 197.638 106.366Z" fill="#263238"/>
<path d="M198.521 89.0816C198.238 89.452 196.26 89.0432 193.849 88.9857C191.438 88.9283 189.433 89.1838 189.186 88.7941C189.08 88.6089 189.495 88.2703 190.352 87.9765C191.482 87.6193 192.709 87.4532 193.941 87.4908C195.173 87.5285 196.377 87.7688 197.461 88.1937C198.274 88.5386 198.645 88.9027 198.521 89.0816Z" fill="#263238"/>
<path d="M216.97 88.3404C216.59 88.6598 215.204 88.2638 213.517 88.1871C211.83 88.1105 210.382 88.2957 210.081 87.9316C209.949 87.7592 210.196 87.4334 210.841 87.1396C211.708 86.7905 212.698 86.6352 213.687 86.6931C214.675 86.7511 215.618 87.0199 216.396 87.4653C216.97 87.8294 217.138 88.1808 216.97 88.3404Z" fill="#263238"/>
<path d="M173.245 102.674C173.245 102.674 183.693 105.025 189.601 86.3796C191.623 79.992 199.793 74.8436 199.793 74.8436L196.481 74.1218C196.481 74.1218 175.886 78.3185 175.542 78.5037C175.197 78.689 170.34 86.2135 170.34 86.2135L173.245 102.674Z" fill="#263238"/>
<path d="M175.823 101.959C175.876 101.167 174.728 99.2442 173.65 99.0781C170.771 98.6501 165.534 98.6246 165.11 103.952C164.545 111.24 174.772 110.154 174.825 109.943C174.878 109.733 175.637 104.706 175.823 101.959Z" fill="#FFBE9D"/>
<path d="M171.946 107.056C171.946 107.056 171.761 107.139 171.461 107.222C171.249 107.28 171.024 107.307 170.798 107.301C170.573 107.296 170.35 107.258 170.145 107.19C169.103 106.865 168.299 105.606 168.379 104.29C168.402 103.666 168.616 103.053 169.006 102.495C169.117 102.272 169.303 102.071 169.546 101.911C169.789 101.75 170.082 101.635 170.401 101.576C170.607 101.542 170.822 101.563 171.008 101.635C171.195 101.706 171.339 101.823 171.417 101.965C171.531 102.176 171.461 102.317 171.505 102.329C171.549 102.342 171.734 102.221 171.682 101.914C171.636 101.732 171.509 101.566 171.319 101.441C171.052 101.278 170.706 101.198 170.357 101.218C169.939 101.259 169.543 101.378 169.207 101.563C168.871 101.747 168.607 101.992 168.44 102.272C167.961 102.885 167.697 103.574 167.672 104.278C167.619 105.747 168.555 107.165 169.986 107.529C170.251 107.596 170.534 107.619 170.814 107.597C171.094 107.575 171.363 107.508 171.602 107.401C171.911 107.235 172.026 107.069 171.946 107.056Z" fill="#EB996E"/>
<path d="M180.328 99.091C180.837 99.036 181.341 98.9613 181.838 98.8674C183.177 98.5734 184.404 98.0597 185.424 97.3663C186.132 96.8909 186.76 96.3571 187.296 95.7758C187.902 95.1064 188.411 94.3936 188.815 93.6488C189.685 91.9168 190.411 90.1485 190.988 88.3534C191.636 86.5635 192.408 84.7983 193.301 83.0645C194.044 81.646 194.929 80.2689 195.951 78.9445C196.634 78.054 197.404 77.2001 198.256 76.3895C198.547 76.0956 198.812 75.8912 198.98 75.7507C199.059 75.6745 199.148 75.6039 199.245 75.5399C199.18 75.6241 199.103 75.7033 199.015 75.7763C198.865 75.9359 198.618 76.1467 198.335 76.415C197.525 77.2345 196.782 78.0877 196.11 78.9701C195.126 80.2961 194.274 81.6708 193.558 83.0837C192.727 84.6742 191.968 86.4627 191.261 88.3598C190.689 90.164 189.954 91.9393 189.062 93.6743C188.644 94.4263 188.12 95.1454 187.499 95.8205C186.947 96.4061 186.301 96.9422 185.574 97.4174C184.524 98.1166 183.258 98.6246 181.882 98.8994C181.379 99.0152 180.856 99.0797 180.328 99.091Z" fill="#263238"/>
<path d="M166.569 130.173C166.511 130.057 166.472 129.937 166.454 129.815L166.206 128.78C165.986 127.848 165.685 126.519 165.323 124.827H165.571C165.615 125.095 165.677 125.389 165.73 125.689C165.791 125.785 165.871 125.9 165.942 126.015L165.685 126.079C163.185 119.8 161.893 113.302 161.844 106.769C161.844 104.105 161.844 101.276 162.842 98.465C163.24 97.3091 163.855 96.1981 164.67 95.1626C165.471 94.1635 166.402 93.2223 167.452 92.352C169.501 90.6401 171.708 89.1582 173.722 87.7082L184.54 80.0431L191.853 74.8756L193.858 73.4831L194.387 73.1254L194.582 73.0104C194.582 73.0104 194.538 73.0615 194.423 73.1509L193.928 73.5278L191.985 74.965C190.219 76.2425 187.79 78.0055 184.77 80.2092L174.022 87.951C172.018 89.4201 169.81 90.902 167.796 92.5948C165.649 94.296 164.1 96.347 163.283 98.5735C162.321 101.339 162.329 104.156 162.285 106.807C162.324 113.316 163.556 119.792 165.95 126.066L165.694 126.136L165.491 125.804C165.438 125.497 165.385 125.203 165.341 124.942H165.579C165.924 126.634 166.189 127.969 166.374 128.908C166.454 129.349 166.516 129.694 166.569 129.949C166.572 130.024 166.572 130.099 166.569 130.173Z" fill="#455A64"/>
<path d="M158.639 96.4912C158.677 96.3833 158.736 96.28 158.815 96.1846C158.974 95.9546 159.169 95.6735 159.398 95.3286C159.91 94.5877 160.714 93.5401 161.774 92.269C162.834 90.9978 164.167 89.5159 165.757 87.9254C167.346 86.3349 169.228 84.6549 171.312 82.9622C173.396 81.2695 175.542 79.7684 177.538 78.4462C179.534 77.124 181.441 76.0061 183.084 75.1183C184.727 74.2304 186.078 73.5341 187.049 73.087L188.162 72.5696C188.288 72.5087 188.421 72.4553 188.559 72.4099C188.559 72.4099 188.453 72.493 188.206 72.6271L187.146 73.1892C186.21 73.6683 184.886 74.3901 183.287 75.3035C181.689 76.2169 179.816 77.3539 177.829 78.6698C175.842 79.9856 173.74 81.5122 171.647 83.1858C169.554 84.8593 167.709 86.5457 166.092 88.1042C164.476 89.6628 163.125 91.1383 162.039 92.3903C160.953 93.6423 160.105 94.6707 159.548 95.3925L158.886 96.2165C158.817 96.3139 158.734 96.4059 158.639 96.4912Z" fill="#455A64"/>
<path d="M170.172 127.414C170.525 127.043 172.874 123.766 172.874 123.766L186.157 132.057C186.157 132.057 199.209 139.959 199.209 139.448L201.294 131.847L203.855 124.922L208.641 130.16C208.641 130.16 223.655 151.495 223.655 151.75C223.655 152.006 232.972 174.107 232.972 174.107L230.967 183.05L230.729 214.764L202.671 213.914L197.134 207.527L187.658 166.851L170.172 127.414Z" fill="white"/>
<path d="M201.612 207.942H232.566L241.689 241.956H179.666L201.612 207.942Z" fill="#263238"/>
<path d="M165.094 132.696L147.025 137.602L163.717 191.366C163.717 191.366 162.736 205.892 159.186 213.295C155.636 220.698 147.299 241.956 147.299 241.956H202.813C202.813 241.956 205.171 212.777 204.235 202.353C203.299 191.928 203.688 172.28 198.168 162.028C192.648 151.776 170.526 126.583 170.526 126.583L165.094 132.696Z" fill="#F2C94C"/>
<path d="M204.703 125.536L212.89 130.428L235.375 132.849C235.375 132.849 246.016 160.731 244.047 171.692C242.078 182.653 244.824 201.631 244.824 201.631L254.68 241.956H233.043C233.043 241.956 226.861 194.796 226.499 195.365C226.137 195.933 224.945 172.299 222.587 164.634C220.229 156.969 208.324 132.875 208.324 132.875L204.703 125.536Z" fill="#F2C94C"/>
<path d="M263.732 194.937C263.732 194.937 272.793 191.947 272.793 186.109C272.793 180.271 267.274 172.012 266.099 168.863C264.924 165.714 238.139 132.409 235.383 132.837L232.628 133.265L246.802 178.265L227.506 181.683L235.737 198.814L263.732 194.937Z" fill="#F2C94C"/>
<path d="M236.107 180.392L240.082 171.092L240.762 164.755L250.114 160.284C250.114 160.284 252.622 160.495 251.88 161.9C251.138 163.305 247.314 165.835 247.314 165.835L245.08 170.351L248.71 165.765L254.009 163.848L259.263 164.129C259.263 164.129 260.235 165.816 257.806 165.886H255.157L251.165 168.211L248.674 172.567L252.428 168.352L257.974 166.927L261.506 167.566C261.506 167.566 262.478 168.69 260.729 168.843C258.981 168.997 257.815 168.984 257.815 168.984L254.609 170.332L251.783 174.611L256.746 171.654L263.158 171.098C263.158 171.098 264.235 172.216 262.575 172.638C260.884 173.14 259.231 173.705 257.621 174.33L254.017 177.492L236.107 180.392Z" fill="#FFBE9D"/>
<path d="M204.456 207.942C204.412 207.875 204.379 207.804 204.359 207.731C204.306 207.578 204.226 207.367 204.138 207.092C203.935 206.524 203.661 205.719 203.255 204.691C202.54 202.576 201.489 199.581 200.235 195.825C198.98 192.069 197.417 187.636 195.669 182.705C194.786 180.239 193.849 177.652 192.825 174.976C192.322 173.641 191.792 172.286 191.218 170.919C190.935 170.236 190.617 169.552 190.335 168.863C190.003 168.18 189.616 167.513 189.178 166.863C185.866 162.053 182.483 157.525 179.463 153.347C176.443 149.17 173.564 145.375 171.126 142.092L171.064 142.003L171.162 141.939C171.78 141.536 172.389 141.16 172.999 140.802C173.299 140.619 173.614 140.451 173.943 140.297L174.085 140.24H174.173C174.173 140.24 174.173 140.24 174.12 140.284C174.106 140.312 174.107 140.343 174.123 140.371C174.14 140.398 174.17 140.42 174.208 140.431H173.961H173.414C171.948 140.431 170.57 140.431 169.298 140.431H169.201V140.368C167.912 137.959 166.896 136.049 166.19 134.721L165.404 133.226L165.209 132.837L165.156 132.702C165.156 132.702 165.156 132.741 165.245 132.824L165.474 133.207L166.357 134.683C167.09 136.005 168.124 137.876 169.492 140.297L169.36 140.233C170.641 140.233 172.009 140.182 173.484 140.182H174.041C174.146 140.177 174.253 140.177 174.359 140.182H174.412C174.434 140.199 174.45 140.219 174.458 140.242C174.466 140.264 174.465 140.288 174.456 140.31C174.403 140.38 174.412 140.355 174.394 140.368H174.314H174.27C174.233 140.38 174.198 140.395 174.164 140.412C173.854 140.561 173.559 140.725 173.281 140.904C172.689 141.262 172.08 141.639 171.515 142.041V141.888C173.961 145.165 176.814 148.959 179.922 153.117C183.031 157.275 186.387 161.811 189.708 166.633C190.155 167.295 190.548 167.975 190.882 168.671C191.191 169.367 191.509 170.051 191.765 170.741C192.354 172.116 192.89 173.472 193.373 174.809C194.388 177.486 195.307 180.073 196.181 182.545C197.947 187.482 199.413 191.941 200.658 195.69L203.537 204.576C203.855 205.61 204.111 206.422 204.288 206.997C204.359 207.258 204.421 207.469 204.465 207.635C204.485 207.737 204.482 207.841 204.456 207.942Z" fill="#263238"/>
<path d="M233.042 176.317C233.019 176.151 233.019 175.984 233.042 175.819C233.042 175.455 233.104 174.982 233.157 174.388C233.157 174.075 233.21 173.749 233.245 173.353V172.127C233.245 171.239 233.245 170.21 233.157 169.131C232.697 163.349 231.128 157.641 228.494 152.172C227.421 149.886 226.158 147.648 224.714 145.471C223.426 143.36 221.966 141.306 220.342 139.32C218.903 137.506 217.578 135.928 216.465 134.625L213.816 131.578C213.525 131.246 213.295 130.939 213.109 130.767C213.026 130.673 212.952 130.575 212.889 130.473C212.998 130.553 213.095 130.641 213.18 130.735L213.94 131.521C214.593 132.211 215.529 133.226 216.677 134.516C217.825 135.807 219.185 137.378 220.651 139.186C222.3 141.172 223.775 143.23 225.067 145.35C226.54 147.546 227.817 149.807 228.891 152.121C231.545 157.616 233.08 163.361 233.448 169.176C233.545 170.293 233.492 171.303 233.448 172.184C233.448 172.625 233.448 173.04 233.404 173.417C233.36 173.794 233.316 174.139 233.28 174.452C233.201 175.046 233.13 175.525 233.086 175.883C233.081 176.028 233.067 176.173 233.042 176.317Z" fill="#263238"/>
<path d="M264.402 194.688C264.222 194.737 264.036 194.773 263.846 194.796L262.23 195.065L256.127 196.029L234.791 199.306L234.605 199.338L234.543 199.204C232.777 195.371 230.781 191.181 228.724 186.78L226.586 182.2L226.498 182.028L226.745 181.983L242.792 179.255L249.707 178.086L252.824 177.563C253.782 177.371 254.765 177.251 255.756 177.205C257.461 177.162 259.156 177.412 260.702 177.933C261.862 178.313 262.934 178.819 263.881 179.434C264.474 179.819 265.01 180.247 265.48 180.712C265.612 180.865 265.727 180.986 265.815 181.082C265.904 181.178 265.93 181.216 265.921 181.216C265.291 180.597 264.568 180.029 263.767 179.524C262.817 178.934 261.752 178.449 260.605 178.086C259.08 177.611 257.425 177.392 255.765 177.448C254.799 177.5 253.843 177.626 252.913 177.824L249.795 178.367L242.889 179.568C238.005 180.405 232.592 181.338 226.851 182.334L227.01 182.117L229.156 186.697C231.205 191.104 233.166 195.301 234.95 199.134L234.702 199.031L256.074 195.876L262.203 194.994L263.828 194.771C264.017 194.734 264.209 194.706 264.402 194.688Z" fill="#263238"/>
<path d="M160.104 217.025L189.663 218.993L184.576 225.533L153.445 223.33L160.104 217.025Z" fill="#F2C94C"/>
<path d="M160.105 217.013C160.105 217.013 160.105 217.064 159.999 217.14L159.672 217.472L158.382 218.75L153.561 223.4L153.455 223.221L183.508 225.316L184.603 225.393L184.382 225.476L189.469 218.929L189.637 219.165L168.494 217.651L162.312 217.198L160.652 217.064C160.456 217.055 160.26 217.034 160.069 217H160.626L162.259 217.083L168.441 217.447L189.69 218.833H190.025L189.858 219.05L184.788 225.597L184.709 225.687H184.559L183.464 225.61L153.437 223.432H153.154L153.322 223.272L158.303 218.661L159.645 217.434C159.787 217.287 159.94 217.147 160.105 217.013Z" fill="#263238"/>
<path d="M239.676 219.222L244.295 225.533L254.221 224.064L248.958 218.252L239.676 219.222Z" fill="#F2C94C"/>
<path d="M239.676 219.223C239.875 219.18 240.079 219.15 240.285 219.133L242.14 218.903C243.747 218.705 246.087 218.424 248.931 218.111H249.055L249.125 218.188C250.662 219.874 252.481 221.861 254.424 223.988L254.61 224.192L254.274 224.243L253.78 224.313L244.339 225.687H244.197L244.127 225.591C242.731 223.675 241.61 222.046 240.842 220.934C240.488 220.417 240.197 219.989 239.958 219.657C239.852 219.517 239.761 219.372 239.685 219.223C239.685 219.223 239.835 219.395 240.073 219.695L241.071 220.973C241.954 222.071 243.102 223.604 244.48 225.444L244.259 225.374L253.691 223.956L254.186 223.885L254.044 224.135C252.119 222.001 250.326 220.008 248.807 218.309L248.993 218.373C246.246 218.648 243.959 218.846 242.316 219.012L240.4 219.171C239.941 219.21 239.693 219.229 239.676 219.223Z" fill="#263238"/>
<g opacity="0.3">
<path d="M157.05 223.592L155.822 225.533L186.529 227.571L188.816 220.078L184.577 225.533L157.05 223.592Z" fill="black"/>
</g>
<g opacity="0.3">
<path d="M163.381 194.771C163.381 194.771 168.203 202.078 174.464 204.218C183.004 207.131 204.394 205.227 204.394 205.227L204.456 200.788L179.666 201.81L163.381 194.771Z" fill="black"/>
</g>
<path d="M148.182 137.263C148.182 137.263 139.518 137.691 139.35 154.069C139.183 170.447 165.73 197.926 170.26 200.634C174.791 203.343 179.975 205.157 193.61 203.694C210.726 201.861 222.63 200.206 222.63 200.206L220.264 185.253L189.689 184.257L164.9 147.387C164.9 147.387 156.633 136.528 148.182 137.263Z" fill="#F2C94C"/>
<g opacity="0.3">
<path d="M227.664 191.532C224.308 190.523 220.599 190.504 216.934 190.497L202.486 190.465C199.369 190.364 196.247 190.551 193.196 191.021C190.117 191.505 187.41 192.821 185.627 194.7L178.076 199.216C187.744 200.91 197.891 200.481 207.22 197.984C209.492 197.257 211.859 196.696 214.285 196.31C220.811 195.569 227.417 198.309 233.908 197.434C233.917 194.803 231.011 192.548 227.664 191.532Z" fill="black"/>
</g>
<path d="M178.721 176.317C181.54 177.139 184.434 177.818 187.384 178.348C191.072 178.902 194.671 179.731 198.123 180.82C200.57 181.518 202.961 182.314 205.285 183.203L209.842 194.7C209.842 194.7 202.274 198.143 193.734 197.964C185.194 197.786 177.625 199.785 176.53 199.242C175.435 198.699 175.312 197.715 176.53 197.275C177.749 196.834 182.924 196.304 182.924 196.304L187.34 194.981C187.34 194.981 172.088 195.952 170.869 195.512C169.651 195.071 168.432 194.451 168.918 193.48C169.032 193.212 169.256 192.976 169.561 192.803C169.865 192.629 170.235 192.527 170.622 192.509C170.622 192.509 167.328 192.599 167.452 191.628C167.548 191.217 167.759 190.824 168.074 190.475C168.388 190.125 168.799 189.827 169.28 189.597C169.774 189.418 176.168 187.54 176.168 187.54L184.399 186.352L176.495 186.122L169.589 187.514C169.589 187.514 166.834 187.744 167.452 186.064C168.07 184.384 176.53 182.519 176.53 182.519L187.269 181.989C187.269 181.989 178.968 181.108 178.111 179.255C177.833 178.772 177.743 178.243 177.85 177.725C177.958 177.207 178.259 176.72 178.721 176.317Z" fill="#FFBE9D"/>
<path d="M205.285 183.203H205.815L226.772 182.532L233.042 195.767L209.842 194.675L205.285 183.203Z" fill="#FFBE9D"/>
<path d="M187.039 190.727C186.191 190.821 185.335 190.87 184.478 190.874C182.897 190.938 180.716 191.072 178.296 191.334C175.876 191.596 173.783 191.935 172.246 192.209C171.424 192.388 170.586 192.527 169.738 192.624C170.509 192.346 171.321 192.132 172.158 191.986C176.148 191.14 180.277 190.689 184.434 190.644C185.304 190.603 186.177 190.63 187.039 190.727Z" fill="#EB996E"/>
<path d="M171.311 155.723C171.043 155.499 170.809 155.255 170.613 154.995C170.189 154.523 169.589 153.826 168.847 152.983C166.84 150.787 164.673 148.67 162.356 146.64C160.068 144.595 157.477 142.738 154.629 141.102C153.41 140.462 152.146 139.869 150.84 139.326C151.231 139.41 151.61 139.521 151.97 139.659C152.406 139.805 152.827 139.971 153.233 140.157C153.783 140.385 154.314 140.637 154.823 140.911C157.755 142.506 160.404 144.358 162.709 146.423C165.043 148.463 167.185 150.614 169.121 152.862C169.863 153.718 170.428 154.433 170.808 154.931C171.01 155.183 171.178 155.448 171.311 155.723Z" fill="#263238"/>
<path d="M184.876 177.537C184.684 177.305 184.527 177.059 184.408 176.802L183.259 174.765C182.306 173.04 180.954 170.664 179.391 168.064C177.828 165.464 176.344 163.133 175.249 161.447C174.737 160.655 174.304 159.984 173.969 159.454C173.785 159.216 173.643 158.963 173.545 158.7C173.769 158.918 173.964 159.151 174.128 159.396C174.472 159.85 174.958 160.514 175.541 161.344C176.707 163.005 178.243 165.324 179.815 167.93C181.387 170.536 182.685 172.932 183.569 174.675C184.01 175.55 184.355 176.266 184.575 176.758C184.715 177.009 184.816 177.27 184.876 177.537Z" fill="#263238"/>
<path d="M198.997 139.575C198.997 139.575 198.803 139.531 198.468 139.409L197.028 138.86L191.959 136.835L192.259 136.727C192.012 138.375 191.597 140.297 191.173 142.348C191.005 143.184 190.846 143.996 190.714 144.775L190.661 145.075L190.352 144.884C187.631 143.216 185.282 141.747 183.604 140.687L181.661 139.409C181.415 139.265 181.19 139.102 180.99 138.924C181.27 139.031 181.528 139.164 181.759 139.32L183.799 140.502C185.521 141.517 187.914 142.955 190.634 144.609L190.272 144.711C190.396 143.932 190.546 143.114 190.722 142.277C191.138 140.221 191.606 138.298 191.862 136.663V136.446L192.118 136.554L197.108 138.688L198.485 139.326C198.672 139.391 198.844 139.475 198.997 139.575Z" fill="#263238"/>
<path d="M206.743 130.173C206.799 130.461 206.814 130.752 206.787 131.042C206.787 131.68 206.787 132.453 206.725 133.399C206.654 135.398 206.531 138.151 206.363 141.192C206.363 141.268 206.363 141.338 206.363 141.415V141.945L205.966 141.498L200.932 135.749H201.241C200.684 136.854 200.225 137.781 199.863 138.49C199.718 138.835 199.526 139.169 199.289 139.486C199.374 139.131 199.504 138.783 199.678 138.445L200.905 135.666L201.02 135.411L201.223 135.634L206.354 141.338L205.93 141.422C205.93 141.351 205.93 141.275 205.93 141.204C206.098 138.164 206.275 135.411 206.425 133.418C206.513 132.473 206.575 131.68 206.637 131.061C206.631 130.763 206.667 130.466 206.743 130.173Z" fill="#263238"/>
<path d="M234.455 139.013C234.205 138.945 233.968 138.855 233.748 138.745L233.854 138.694C234.41 140.125 235.982 144.794 237.766 150.339C238.861 153.718 239.815 156.777 240.486 159C240.804 160.067 241.06 160.955 241.264 161.632C241.377 161.952 241.451 162.279 241.484 162.609C241.318 162.302 241.185 161.986 241.087 161.664C240.848 160.987 240.548 160.112 240.204 159.051C239.444 156.848 238.438 153.794 237.351 150.415C235.585 144.871 234.119 140.195 233.748 138.713V138.598L233.872 138.662C234.084 138.763 234.279 138.881 234.455 139.013Z" fill="#263238"/>
<path d="M206.742 202.136C206.567 202.187 206.387 202.23 206.204 202.263L204.623 202.57C203.245 202.832 201.232 203.17 198.732 203.503C195.796 203.892 192.828 204.15 189.848 204.275C186.187 204.453 182.511 204.277 178.915 203.752C177.049 203.465 175.242 203.008 173.536 202.391C172.728 202.092 171.949 201.753 171.205 201.375C170.519 200.986 169.875 200.559 169.28 200.098C167.289 198.481 165.442 196.774 163.751 194.988C162.285 193.48 161.164 192.235 160.395 191.366L159.512 190.363C159.406 190.248 159.314 190.126 159.238 189.999C159.372 190.098 159.49 190.208 159.592 190.325C159.83 190.574 160.139 190.9 160.528 191.296C161.34 192.139 162.506 193.365 163.998 194.847C165.717 196.597 167.578 198.271 169.571 199.862C170.148 200.31 170.774 200.725 171.443 201.101C172.168 201.47 172.929 201.798 173.722 202.084C175.401 202.691 177.182 203.138 179.021 203.413C182.576 203.935 186.209 204.119 189.83 203.962C192.79 203.847 195.738 203.612 198.662 203.26C201.161 202.953 203.174 202.653 204.561 202.436L206.159 202.187C206.35 202.15 206.546 202.133 206.742 202.136Z" fill="#263238"/>
<g opacity="0.3">
<path d="M165.924 134.223L168.264 142.265L170.172 141.402L169.077 143.319L193.001 174.701L189.892 167.534L171.267 142.041L174.216 140.336H169.262L165.924 134.223Z" fill="black"/>
</g>
<path d="M216.184 166.11C215.91 166.359 210.24 177.697 210.24 177.697L215.831 175.142C215.831 175.142 218.162 180.073 218.109 179.9C218.056 179.728 222.481 167.598 222.481 167.598L216.184 166.11Z" fill="#263238"/>
<path d="M226.561 167.713C226.561 167.713 230.755 179.172 230.87 179.045C230.985 178.917 233.149 175.295 233.149 175.295L238.562 177.78L232.857 166.11L226.561 167.713Z" fill="#263238"/>
<path d="M224.406 169.016C231.942 169.016 238.051 164.597 238.051 159.147C238.051 153.697 231.942 149.278 224.406 149.278C216.871 149.278 210.762 153.697 210.762 159.147C210.762 164.597 216.871 169.016 224.406 169.016Z" fill="#455A64"/>
<path d="M235.082 158.834C235.002 158.204 234.863 157.579 234.667 156.962C234.049 155.295 232.678 153.824 230.773 152.785C229.373 152.021 227.731 151.524 225.996 151.339C224.262 151.154 222.491 151.286 220.846 151.725C219.894 151.966 219.001 152.313 218.197 152.753C217.348 153.202 216.603 153.745 215.989 154.363C214.668 155.658 213.955 157.225 213.955 158.834C213.955 160.443 214.668 162.01 215.989 163.305C216.598 163.926 217.344 164.47 218.197 164.915C219.001 165.357 219.894 165.706 220.846 165.95C222.492 166.386 224.263 166.517 225.997 166.331C227.731 166.144 229.373 165.647 230.773 164.883C232.683 163.849 234.055 162.38 234.667 160.712C234.862 160.095 235.001 159.47 235.082 158.84C235.108 159.004 235.108 159.169 235.082 159.332C235.085 159.533 235.064 159.734 235.02 159.933C234.984 160.207 234.916 160.478 234.817 160.744C234.254 162.466 232.888 163.995 230.949 165.075C229.511 165.879 227.816 166.407 226.02 166.61C224.225 166.814 222.387 166.685 220.678 166.237C219.689 165.983 218.757 165.623 217.914 165.171C217.029 164.706 216.251 164.143 215.609 163.503C214.227 162.154 213.48 160.52 213.48 158.84C213.48 157.161 214.227 155.527 215.609 154.177C216.258 153.529 217.048 152.962 217.949 152.498C218.788 152.04 219.721 151.68 220.714 151.431C222.543 150.954 224.517 150.841 226.428 151.105C228.457 151.386 230.331 152.084 231.826 153.116C233.32 154.149 234.371 155.471 234.853 156.924C234.951 157.19 235.019 157.461 235.056 157.735C235.099 157.932 235.12 158.131 235.118 158.329C235.131 158.498 235.12 158.667 235.082 158.834Z" fill="#263238"/>
<g opacity="0.2">
<path d="M227.61 149.553L210.76 160.501L211.828 162.98L231.09 150.537C230.06 150.006 228.864 149.669 227.61 149.553Z" fill="white"/>
</g>
<g opacity="0.2">
<path d="M232.618 151.259C232.547 151.22 212.924 164.481 212.924 164.481L214.09 165.605C214.134 165.637 233.828 152.006 233.828 152.006L232.618 151.259Z" fill="white"/>
</g>
<path d="M226.022 155.519V163.235H223.549V156.969H221.412V155.538L226.022 155.519Z" fill="white"/>
<g opacity="0.3">
<path d="M215.424 158.834C215.424 154.791 219.381 151.476 224.406 151.137C224.132 151.137 223.849 151.137 223.523 151.137C218.091 151.137 213.693 154.593 213.693 158.86C213.693 163.126 218.109 166.582 223.523 166.582C223.814 166.582 224.097 166.582 224.406 166.55C219.381 166.186 215.424 162.871 215.424 158.834Z" fill="black"/>
</g>
<g opacity="0.3">
<path d="M232.564 61.1996L235.081 125.535L283.054 135.788V61.1996H232.564Z" fill="white"/>
</g>
<path d="M163.381 184.078C163.478 184.135 156.016 190.715 146.708 198.769C137.399 206.824 129.778 213.301 129.681 213.244C129.583 213.186 137.046 206.607 146.354 198.552C155.663 190.497 163.284 184.02 163.381 184.078Z" fill="white"/>
<path d="M167.408 171.545C167.496 171.603 159.353 178.329 149.215 186.563C139.076 194.796 130.775 201.427 130.669 201.363C130.563 201.299 138.714 194.579 148.853 186.345C158.991 178.112 167.31 171.482 167.408 171.545Z" fill="white"/>
<path d="M271.732 107.42C271.83 107.478 262.813 114.9 251.588 123.983C240.363 133.067 231.196 140.393 231.108 140.361C231.02 140.329 240.028 132.849 251.252 123.753C262.477 114.657 271.635 107.356 271.732 107.42Z" fill="white"/>
<path d="M137.072 60.9186L138.282 72.5823C138.426 74.1106 139.315 75.5524 140.79 76.6512C141.16 76.9237 141.549 77.1817 141.956 77.4241C143.526 78.3565 145.451 78.9203 147.476 79.0402L159.257 79.762L146.416 80.6818C145.485 80.7512 144.598 81.0005 143.846 81.4036C143.555 81.5633 143.272 81.723 142.963 81.8955C140.52 83.4359 139 85.6025 138.724 87.9381L137.841 94.8431L136.869 88.4555C136.679 87.0716 136.049 85.7383 135.028 84.5594C134.008 83.3805 132.625 82.388 130.988 81.6591L130.908 81.6208C130.252 81.3454 129.518 81.1816 128.762 81.1417L114.623 80.3624L126.916 79.5384C129.341 79.3909 131.605 78.6017 133.275 77.3219C133.611 77.06 133.937 76.779 134.246 76.4915C135.304 75.4706 135.918 74.2457 136.013 72.972L137.072 60.9186Z" fill="white"/>
<path d="M100.263 90.2568L101.04 97.7942C101.136 98.7807 101.712 99.7108 102.665 100.42C102.903 100.598 103.153 100.766 103.416 100.924C104.423 101.519 105.654 101.881 106.948 101.965L114.561 102.432L106.286 103.026C105.685 103.07 105.111 103.231 104.626 103.492C104.432 103.594 104.255 103.696 104.078 103.805C102.501 104.8 101.52 106.199 101.341 107.708L100.758 112.179L100.139 108.065C100.014 107.172 99.6053 106.311 98.9452 105.55C98.2851 104.789 97.3912 104.148 96.3331 103.677H96.2801C95.8573 103.498 95.3825 103.393 94.8936 103.371L85.709 102.847L93.6572 102.317C95.2229 102.221 96.685 101.712 97.7638 100.886C97.9846 100.713 98.1966 100.534 98.3908 100.349C99.0824 99.6921 99.4854 98.8999 99.5478 98.0753L100.263 90.2568Z" fill="white"/>
<path d="M90.3018 261.662L313.833 263.003L313.639 263.144C313.639 200.813 313.639 123.894 313.595 40.7657V39.9992L313.833 40.1652H90.3018L90.5049 40.0119C90.3813 171.207 90.3018 260.346 90.3018 261.662C90.3018 260.333 90.2135 171.194 90.0898 40.0119V39.8586H90.3018H313.833H314.063V40.7785C314.063 123.881 314.063 200.826 314.018 263.156V263.29H313.824L90.3018 261.662Z" fill="#263238"/>
<path d="M258.556 251.608H147.89C145.256 251.608 143.121 253.152 143.121 255.057V268.458C143.121 270.363 145.256 271.907 147.89 271.907H258.556C261.19 271.907 263.325 270.363 263.325 268.458V255.057C263.325 253.152 261.19 251.608 258.556 251.608Z" fill="#BB6BD9"/>
<g opacity="0.3">
<path d="M198.873 251.608L174.816 271.907H183.162L207.422 251.608H198.873Z" fill="white"/>
</g>
<path d="M180.592 259.075V260.007H175.205V254.974H180.504V255.906H176.839V256.999H180.071V257.893H176.839V259.062L180.592 259.075Z" fill="white"/>
<path d="M188.206 260.007V256.986L186.157 259.477H185.433L183.393 257.05V260.007H181.883V254.974H183.216L185.866 258.104L188.436 254.974H189.69V260.007H188.206Z" fill="white"/>
<path d="M197.408 256.801C197.408 257.919 196.242 258.621 194.379 258.621H192.983V260.007H191.367V254.974H194.379C196.242 254.974 197.408 255.67 197.408 256.801ZM195.774 256.801C195.774 256.245 195.28 255.919 194.29 255.919H192.983V257.669H194.29C195.28 257.669 195.774 257.344 195.774 256.801Z" fill="white"/>
<path d="M198.521 254.974H200.129V259.056H203.661V260.007H198.521V254.974Z" fill="white"/>
<path d="M203.997 257.491C203.952 256.939 204.138 256.39 204.53 255.916C204.922 255.441 205.502 255.063 206.194 254.83C206.887 254.596 207.66 254.519 208.415 254.607C209.169 254.695 209.869 254.945 210.425 255.325C210.98 255.704 211.366 256.195 211.531 256.735C211.696 257.275 211.633 257.838 211.35 258.351C211.068 258.865 210.579 259.305 209.946 259.615C209.314 259.925 208.567 260.091 207.803 260.09C207.314 260.11 206.824 260.058 206.364 259.936C205.903 259.815 205.482 259.626 205.126 259.383C204.77 259.14 204.486 258.846 204.292 258.521C204.097 258.196 203.997 257.845 203.997 257.491ZM209.984 257.491C209.976 257.18 209.84 256.878 209.595 256.623C209.351 256.368 209.007 256.17 208.608 256.056C208.208 255.941 207.771 255.915 207.351 255.979C206.931 256.043 206.546 256.196 206.246 256.418C205.945 256.64 205.742 256.921 205.661 257.226C205.58 257.531 205.626 257.847 205.792 258.133C205.959 258.42 206.238 258.664 206.596 258.836C206.953 259.008 207.373 259.1 207.803 259.1C208.097 259.108 208.39 259.072 208.664 258.994C208.938 258.916 209.186 258.797 209.393 258.646C209.6 258.494 209.761 258.313 209.866 258.115C209.97 257.916 210.017 257.703 210.002 257.491H209.984Z" fill="white"/>
<path d="M215.864 258.225V260.007H214.248V258.206L211.555 254.974H213.268L215.123 257.21L216.986 254.974H218.567L215.864 258.225Z" fill="white"/>
<path d="M224.564 259.075V260.007H219.168V254.974H224.467V255.906H220.775V256.999H224.008V257.893H220.775V259.062L224.564 259.075Z" fill="white"/>
<path d="M231.198 259.075V260.007H225.811V254.974H231.065V255.906H227.409V256.999H230.641V257.893H227.409V259.062L231.198 259.075Z" fill="white"/>
<g opacity="0.3">
<path d="M259.68 254.412C259.681 254.646 259.587 254.875 259.408 255.071C259.229 255.266 258.974 255.418 258.675 255.509C258.376 255.599 258.047 255.623 257.729 255.577C257.412 255.532 257.12 255.419 256.891 255.254C256.662 255.088 256.506 254.877 256.443 254.647C256.38 254.417 256.413 254.179 256.538 253.963C256.663 253.747 256.874 253.562 257.144 253.433C257.414 253.303 257.731 253.235 258.055 253.236C258.486 253.236 258.899 253.36 259.204 253.581C259.509 253.801 259.68 254.1 259.68 254.412Z" fill="black"/>
</g>
<g opacity="0.3">
<path d="M259.68 268.605C259.681 268.839 259.587 269.069 259.408 269.264C259.229 269.459 258.974 269.612 258.675 269.702C258.376 269.792 258.047 269.816 257.729 269.771C257.412 269.725 257.12 269.613 256.891 269.447C256.662 269.281 256.506 269.07 256.443 268.84C256.38 268.61 256.413 268.372 256.538 268.156C256.663 267.94 256.874 267.755 257.144 267.626C257.414 267.497 257.731 267.428 258.055 267.43C258.486 267.43 258.899 267.553 259.204 267.774C259.509 267.994 259.68 268.293 259.68 268.605Z" fill="black"/>
</g>
<g opacity="0.3">
<path d="M148.598 254.699C148.598 254.932 148.502 255.159 148.324 255.352C148.145 255.545 147.891 255.696 147.594 255.785C147.298 255.874 146.971 255.897 146.656 255.852C146.34 255.807 146.051 255.695 145.824 255.53C145.596 255.366 145.442 255.157 145.379 254.929C145.316 254.701 145.348 254.464 145.471 254.249C145.594 254.035 145.803 253.851 146.07 253.722C146.337 253.593 146.651 253.524 146.973 253.524C147.404 253.524 147.817 253.648 148.122 253.868C148.426 254.089 148.598 254.388 148.598 254.699Z" fill="black"/>
</g>
<g opacity="0.3">
<path d="M149.162 268.605C149.162 268.837 149.067 269.065 148.888 269.258C148.71 269.451 148.456 269.602 148.159 269.691C147.862 269.78 147.535 269.803 147.22 269.758C146.905 269.712 146.615 269.6 146.388 269.436C146.161 269.272 146.006 269.062 145.943 268.834C145.881 268.606 145.913 268.37 146.036 268.155C146.159 267.94 146.367 267.757 146.634 267.628C146.902 267.499 147.216 267.43 147.537 267.43C147.968 267.43 148.381 267.554 148.686 267.774C148.991 267.994 149.162 268.293 149.162 268.605Z" fill="black"/>
</g>
<g opacity="0.3">
<path d="M190.571 251.608L165.94 271.907H162.496L186.791 251.608H190.571Z" fill="white"/>
</g>
<path d="M158.62 265.558C158.564 264.919 158.774 264.283 159.223 263.732C159.673 263.18 160.341 262.739 161.141 262.466C161.941 262.192 162.837 262.099 163.711 262.198C164.585 262.298 165.398 262.585 166.045 263.022C166.691 263.459 167.14 264.027 167.335 264.652C167.529 265.276 167.46 265.928 167.136 266.524C166.811 267.12 166.247 267.631 165.516 267.992C164.785 268.353 163.921 268.546 163.036 268.547C162.47 268.576 161.902 268.519 161.367 268.381C160.833 268.244 160.343 268.028 159.929 267.748C159.515 267.467 159.185 267.128 158.96 266.751C158.735 266.375 158.619 265.968 158.62 265.558ZM165.491 265.558C165.481 265.202 165.325 264.857 165.044 264.564C164.764 264.272 164.37 264.047 163.912 263.916C163.455 263.785 162.954 263.754 162.473 263.828C161.991 263.902 161.551 264.077 161.207 264.332C160.863 264.586 160.63 264.908 160.537 265.258C160.445 265.607 160.498 265.969 160.688 266.297C160.879 266.625 161.199 266.905 161.609 267.102C162.019 267.299 162.5 267.404 162.992 267.404C163.327 267.41 163.66 267.365 163.97 267.274C164.28 267.183 164.561 267.046 164.795 266.873C165.029 266.7 165.212 266.494 165.332 266.268C165.452 266.042 165.506 265.8 165.491 265.558Z" fill="white"/>
<path d="M170.596 263.725V265.251H174.296V266.325H170.596V268.433H168.75V262.652H174.791V263.725H170.596Z" fill="white"/>
<path d="M180.928 263.744H178.367V262.652H185.326V263.744H182.774V268.433H180.928V263.744Z" fill="white"/>
<path d="M193.645 262.652V268.432H191.8V266.063H188.17V268.432H186.324V262.652H188.17V264.919H191.8V262.639L193.645 262.652Z" fill="white"/>
<path d="M201.727 267.359V268.433H195.545V262.652H201.577V263.725H197.382V265.002H201.091V266.044H197.382V267.379L201.727 267.359Z" fill="white"/>
<path d="M213.693 268.433V264.964L211.344 267.819H210.505L208.165 265.041V268.433H206.398V262.652H207.926L210.92 266.248L213.861 262.652H215.38V268.433H213.693Z" fill="white"/>
<path d="M216.82 265.558C216.763 264.918 216.974 264.28 217.425 263.728C217.877 263.176 218.548 262.735 219.351 262.462C220.153 262.19 221.051 262.099 221.927 262.2C222.802 262.302 223.615 262.592 224.26 263.033C224.904 263.474 225.35 264.044 225.54 264.671C225.729 265.298 225.654 265.951 225.323 266.546C224.991 267.141 224.42 267.65 223.683 268.007C222.946 268.364 222.078 268.553 221.191 268.547C220.629 268.571 220.065 268.511 219.536 268.371C219.007 268.232 218.523 268.015 218.113 267.735C217.704 267.455 217.378 267.118 217.155 266.743C216.933 266.369 216.819 265.966 216.82 265.558ZM223.69 265.558C223.68 265.202 223.525 264.857 223.244 264.564C222.963 264.272 222.569 264.046 222.111 263.916C221.654 263.785 221.153 263.754 220.672 263.828C220.191 263.902 219.75 264.077 219.406 264.332C219.062 264.586 218.829 264.908 218.737 265.258C218.644 265.607 218.697 265.969 218.888 266.297C219.078 266.625 219.398 266.905 219.808 267.102C220.218 267.299 220.699 267.404 221.191 267.404C221.526 267.41 221.86 267.367 222.17 267.276C222.481 267.185 222.763 267.048 222.997 266.875C223.232 266.702 223.414 266.495 223.534 266.269C223.653 266.042 223.706 265.8 223.69 265.558Z" fill="white"/>
<path d="M234.279 262.652V268.432H232.76L228.777 264.919V268.426H226.949V262.645H228.486L232.451 266.158V262.645L234.279 262.652Z" fill="white"/>
<path d="M237.829 263.744H235.268V262.652H242.227V263.744H239.674V268.433H237.829V263.744Z" fill="white"/>
<path d="M250.546 262.652V268.432H248.7V266.063H245.07V268.432H243.225V262.652H245.07V264.919H248.7V262.639L250.546 262.652Z" fill="white"/>
<path d="M244.85 249.385L245.212 252.847C245.256 253.298 245.519 253.723 245.954 254.048C246.473 254.45 247.176 254.702 247.932 254.757L251.465 254.974L247.667 255.248C247.392 255.266 247.129 255.339 246.908 255.459L246.652 255.606C245.929 256.062 245.479 256.703 245.398 257.395L245.133 259.445L244.841 257.529C244.782 257.118 244.591 256.722 244.285 256.373C243.978 256.024 243.564 255.731 243.075 255.517C242.88 255.436 242.663 255.388 242.439 255.376L238.227 255.133L241.865 254.891C242.581 254.85 243.253 254.623 243.755 254.252L244.038 254.003C244.356 253.703 244.54 253.34 244.568 252.962L244.85 249.385Z" fill="white"/>
<path d="M294.262 5.27653C294.262 5.27653 287.63 8.57892 291.136 12.8394L285.899 13.1908C285.899 13.1908 283.532 5.136 291.507 3.9032L294.262 5.27653Z" fill="#F2C94C"/>
<path d="M231.091 291.543C231.091 291.543 223.054 291.818 222.913 296.768L218.215 295.069C218.215 295.069 222.083 287.321 229.757 289.32L231.091 291.543Z" fill="#F2C94C"/>
<path d="M387.425 109.854C387.425 109.854 379.38 110.129 379.247 115.086L374.549 113.386C374.549 113.386 378.417 105.638 386.091 107.638L387.425 109.854Z" fill="#F2C94C"/>
<path d="M29.2593 26.9687C29.2593 26.9687 36.5098 29.5237 39.8569 25.1865L42.8684 28.2973C42.8684 28.2973 34.3991 33.7778 28.959 29.3832L29.2593 26.9687Z" fill="#F2C94C"/>
<path d="M33.0371 140.438C33.0371 140.438 40.9854 139.608 40.482 134.689L45.3834 136.05C45.3834 136.05 42.5573 144.034 34.6621 142.578L33.0371 140.438Z" fill="#F2C94C"/>
<path d="M165.916 13.1906C165.916 13.4862 165.795 13.7752 165.568 14.021C165.341 14.2668 165.018 14.4584 164.641 14.5715C164.263 14.6847 163.847 14.7143 163.447 14.6566C163.046 14.5989 162.677 14.4566 162.388 14.2475C162.099 14.0385 161.903 13.7722 161.823 13.4822C161.743 13.1923 161.784 12.8917 161.941 12.6186C162.097 12.3455 162.362 12.1121 162.702 11.9478C163.041 11.7836 163.441 11.6959 163.85 11.6959C164.397 11.6976 164.921 11.8556 165.308 12.1356C165.695 12.4155 165.914 12.7947 165.916 13.1906Z" fill="#F2C94C"/>
<path d="M88.5608 287.436C88.5608 287.731 88.4396 288.02 88.2125 288.266C87.9855 288.512 87.6627 288.704 87.2851 288.817C86.9075 288.93 86.492 288.96 86.0911 288.902C85.6902 288.844 85.322 288.702 85.033 288.493C84.744 288.284 84.5472 288.017 84.4674 287.727C84.3877 287.438 84.4286 287.137 84.585 286.864C84.7415 286.591 85.0063 286.357 85.3462 286.193C85.686 286.029 86.0856 285.941 86.4943 285.941C87.0416 285.943 87.5659 286.101 87.953 286.381C88.34 286.661 88.5585 287.04 88.5608 287.436Z" fill="#F2C94C"/>
<path d="M21.0804 112.352C21.0804 112.647 20.9592 112.936 20.7321 113.182C20.505 113.428 20.1823 113.619 19.8046 113.733C19.427 113.846 19.0115 113.875 18.6106 113.818C18.2098 113.76 17.8416 113.618 17.5525 113.409C17.2635 113.2 17.0667 112.933 16.987 112.643C16.9072 112.353 16.9482 112.053 17.1046 111.78C17.261 111.507 17.5259 111.273 17.8657 111.109C18.2055 110.945 18.6051 110.857 19.0138 110.857C19.5612 110.859 20.0855 111.017 20.4725 111.297C20.8596 111.577 21.078 111.956 21.0804 112.352Z" fill="#F2C94C"/>
<path d="M353.299 277.957C354.44 277.957 355.366 277.287 355.366 276.462C355.366 275.636 354.44 274.967 353.299 274.967C352.158 274.967 351.232 275.636 351.232 276.462C351.232 277.287 352.158 277.957 353.299 277.957Z" fill="#F2C94C"/>
<path d="M367.651 25.1866C367.652 25.484 367.532 25.7751 367.305 26.023C367.077 26.2708 366.753 26.4642 366.374 26.5786C365.994 26.693 365.576 26.7232 365.173 26.6655C364.769 26.6078 364.399 26.4647 364.108 26.2544C363.817 26.0441 363.619 25.776 363.539 25.4843C363.46 25.1925 363.502 24.8901 363.66 24.6156C363.818 24.3411 364.085 24.1067 364.428 23.9422C364.771 23.7778 365.173 23.6906 365.584 23.6919C366.132 23.6919 366.658 23.8494 367.045 24.1297C367.433 24.41 367.651 24.7902 367.651 25.1866Z" fill="#F2C94C"/>
<path d="M379.838 147.528C379.836 147.824 379.714 148.112 379.486 148.357C379.257 148.602 378.934 148.793 378.556 148.905C378.179 149.017 377.763 149.046 377.363 148.987C376.963 148.929 376.595 148.786 376.307 148.577C376.019 148.367 375.823 148.101 375.744 147.811C375.665 147.521 375.707 147.221 375.863 146.948C376.02 146.676 376.285 146.443 376.624 146.279C376.964 146.115 377.363 146.027 377.772 146.027C378.044 146.027 378.313 146.066 378.564 146.142C378.816 146.217 379.044 146.328 379.236 146.467C379.428 146.607 379.58 146.772 379.683 146.954C379.787 147.136 379.839 147.331 379.838 147.528Z" fill="#F2C94C"/>
</svg>
