<svg xmlns="http://www.w3.org/2000/svg" width="45" height="45" viewBox="0 0 45 45">
  <g id="Bell_icons" transform="translate(-13 -191)">
    <g id="Ellipse_42" data-name="Ellipse 42" transform="translate(13 191)" fill="#be75d8" stroke="#be75d8" stroke-width="1">
      <circle cx="22.5" cy="22.5" r="22.5" stroke="none"/>
      <circle cx="22.5" cy="22.5" r="22" fill="none"/>
    </g>
    <path id="Icon_metro-bell" data-name="Icon metro-bell" d="M23.886,18.556c0-5.986-5.321-4.656-5.321-9.312a4.259,4.259,0,0,0-.1-1,5.769,5.769,0,0,0-3.944-4.809,1.183,1.183,0,0,0,.027-.254,1.332,1.332,0,0,0-2.661,0,1.185,1.185,0,0,0,.027.254A5.885,5.885,0,0,0,7.893,9.123c0,.04,0,.08,0,.122,0,4.656-5.321,3.326-5.321,9.312,0,1.584,3.546,2.91,8.293,3.244a2.661,2.661,0,0,0,4.7,0c4.747-.334,8.293-1.66,8.293-3.244,0,0,0-.009,0-.014l.032.014Zm-4.142,1.124a22.729,22.729,0,0,1-3.882.637,2.66,2.66,0,0,0-5.3,0,22.73,22.73,0,0,1-3.882-.637,6.517,6.517,0,0,1-2.564-1.124,6.517,6.517,0,0,1,2.564-1.124,26.35,26.35,0,0,1,6.532-.746,26.35,26.35,0,0,1,6.532.746,6.517,6.517,0,0,1,2.564,1.124,6.517,6.517,0,0,1-2.564,1.124Z" transform="translate(22.406 201.051)" fill="#fff"/>
  </g>
</svg>
