<svg width="400" height="300" viewBox="0 0 400 300" fill="none" xmlns="http://www.w3.org/2000/svg">
<path d="M0 263.635H400V263.837H0V263.635Z" fill="#E6E6E6"/>
<path d="M308.912 270.094H336.432V270.295H308.912V270.094Z" fill="#E6E6E6"/>
<path d="M295.417 270.094H303.641V270.295H295.417V270.094Z" fill="#E6E6E6"/>
<path d="M254.84 266.14H270.328V266.341H254.84V266.14Z" fill="#E6E6E6"/>
<path d="M55.5115 274.562H90.0635V274.764H55.5115V274.562Z" fill="#E6E6E6"/>
<path d="M43.3198 274.562H48.3838V274.764H43.3198V274.562Z" fill="#E6E6E6"/>
<path d="M81.3197 267.493H156.264V267.694H81.3197V267.493Z" fill="#E6E6E6"/>
<path d="M210.4 227.722H364.872C366.082 227.72 367.242 227.234 368.097 226.372C368.951 225.51 369.432 224.342 369.432 223.124V4.55766C369.421 3.3466 368.936 2.18862 368.082 1.33526C367.229 0.481902 366.075 0.00207461 364.872 0H210.4C209.188 0 208.026 0.484422 207.17 1.3467C206.313 2.20898 205.832 3.37847 205.832 4.59792V223.124C205.832 224.343 206.313 225.513 207.17 226.375C208.026 227.237 209.188 227.722 210.4 227.722ZM364.872 0.161049C366.029 0.163182 367.138 0.627334 367.955 1.45163C368.773 2.27592 369.232 3.393 369.232 4.55766V223.124C369.232 224.288 368.773 225.406 367.955 226.23C367.138 227.054 366.029 227.518 364.872 227.52H210.4C209.242 227.518 208.132 227.054 207.313 226.23C206.495 225.406 206.034 224.289 206.032 223.124V4.55766C206.034 3.39226 206.495 2.2752 207.313 1.45114C208.132 0.627073 209.242 0.163177 210.4 0.161049H364.872Z" fill="#E6E6E6"/>
<path d="M37.3524 227.722H191.832C193.043 227.72 194.204 227.235 195.06 226.373C195.916 225.511 196.398 224.343 196.4 223.124V4.55766C196.388 3.34586 195.901 2.1879 195.046 1.33476C194.191 0.481621 193.036 0.00205198 191.832 0H37.3524C36.1506 0.00419087 34.9988 0.484955 34.1467 1.33809C33.2946 2.19122 32.8109 3.34799 32.8004 4.55766V223.124C32.8004 224.34 33.2795 225.508 34.1327 226.369C34.9859 227.231 36.1437 227.717 37.3524 227.722ZM191.832 0.161049C192.99 0.163177 194.1 0.627073 194.919 1.45114C195.737 2.2752 196.198 3.39226 196.2 4.55766V223.124C196.198 224.289 195.737 225.406 194.919 226.23C194.1 227.054 192.99 227.518 191.832 227.52H37.3524C36.1946 227.518 35.0848 227.054 34.2661 226.23C33.4474 225.406 32.9865 224.289 32.9844 223.124V4.55766C32.9865 3.39226 33.4474 2.2752 34.2661 1.45114C35.0848 0.627073 36.1946 0.163177 37.3524 0.161049H191.832Z" fill="#E6E6E6"/>
<path d="M64.7839 153.889H120.84V263.635H64.7839V153.889Z" fill="#F5F5F5"/>
<path d="M64.7842 153.889H69.4082V263.635H64.7842V153.889Z" fill="#F0F0F0"/>
<path d="M245.584 180.728L116.52 180.728V157.022H245.584V180.728Z" fill="#E0E0E0"/>
<path d="M191.768 263.716H247.104C247.316 263.716 247.52 263.631 247.67 263.48C247.82 263.329 247.904 263.124 247.904 262.911C247.904 262.697 247.82 262.492 247.67 262.341C247.52 262.19 247.316 262.105 247.104 262.105H191.768C183.768 262.105 182.704 259.754 182.704 250.429V132.864C182.704 132.651 182.62 132.446 182.47 132.295C182.32 132.144 182.116 132.059 181.904 132.059C181.692 132.059 181.489 132.144 181.339 132.295C181.189 132.446 181.104 132.651 181.104 132.864V250.429C181.104 260.398 182.64 263.716 191.768 263.716Z" fill="#E0E0E0"/>
<path d="M240.624 162.546L66.0479 162.546V154.316L240.624 154.316V162.546Z" fill="#F0F0F0"/>
<path d="M239.36 153.889H295.416V263.635H239.36V153.889Z" fill="#F5F5F5"/>
<path d="M239.368 153.889H243.992V263.635H239.368V153.889Z" fill="#F0F0F0"/>
<path d="M279.055 263.635V68.2039H327.159V263.635H279.055Z" fill="#FAFAFA"/>
<path d="M281.695 117.017V73.9128H324.519V117.017H281.695Z" fill="#F5F5F5"/>
<path d="M312.592 73.3331H293.6C293.6 74.5184 294.068 75.6551 294.9 76.4932C295.733 77.3314 296.862 77.8022 298.04 77.8022H308.12C308.706 77.8064 309.286 77.694 309.829 77.4713C310.371 77.2486 310.864 76.9201 311.28 76.5047C311.696 76.0893 312.026 75.5952 312.251 75.0508C312.476 74.5065 312.592 73.9227 312.592 73.3331Z" fill="#E0E0E0"/>
<path d="M281.703 163.987V120.882H324.527V163.987H281.703Z" fill="#F5F5F5"/>
<path d="M281.695 210.957V167.852H324.519V210.957H281.695Z" fill="#F5F5F5"/>
<path d="M281.695 257.934V214.83H324.519V257.934H281.695Z" fill="#F5F5F5"/>
<path d="M312.592 120.311H293.6C293.602 121.496 294.07 122.631 294.903 123.469C295.735 124.306 296.863 124.778 298.04 124.78H308.12C308.705 124.783 309.286 124.67 309.827 124.447C310.369 124.224 310.862 123.895 311.278 123.48C311.693 123.065 312.023 122.571 312.249 122.027C312.474 121.484 312.591 120.9 312.592 120.311Z" fill="#E0E0E0"/>
<path d="M312.592 167.281H293.6C293.6 168.466 294.068 169.603 294.9 170.441C295.733 171.279 296.862 171.75 298.04 171.75H308.12C308.706 171.754 309.286 171.641 309.829 171.419C310.371 171.196 310.864 170.867 311.28 170.452C311.696 170.037 312.026 169.543 312.251 168.998C312.476 168.454 312.592 167.87 312.592 167.281Z" fill="#E0E0E0"/>
<path d="M312.592 214.25H293.6C293.6 215.435 294.068 216.572 294.9 217.41C295.733 218.248 296.862 218.719 298.04 218.719H308.12C308.706 218.723 309.286 218.611 309.829 218.388C310.371 218.166 310.864 217.837 311.28 217.422C311.696 217.006 312.026 216.512 312.251 215.968C312.476 215.424 312.592 214.84 312.592 214.25Z" fill="#E0E0E0"/>
<path d="M327.16 263.635V68.2039H351.184V263.635H327.16Z" fill="#F0F0F0"/>
<path d="M188.488 153.889H200.576L197.64 130.199H185.544L188.488 153.889Z" fill="#F0F0F0"/>
<path d="M185.808 153.889H197.904L194.96 130.199H182.872L185.808 153.889Z" fill="#F5F5F5"/>
<path d="M159.872 153.889H168.616L170.288 151.208H161.552L159.872 153.889Z" fill="#F0F0F0"/>
<path d="M113.024 153.889H165.944L167.616 151.208H120.16L113.024 153.889Z" fill="#FAFAFA"/>
<path d="M226.834 147.093H223.01C221.219 147.093 219.501 147.809 218.235 149.084C216.969 150.358 216.258 152.087 216.258 153.889H233.602C233.602 152.995 233.426 152.11 233.086 151.285C232.746 150.459 232.247 149.709 231.618 149.078C230.99 148.447 230.243 147.946 229.422 147.606C228.601 147.265 227.722 147.091 226.834 147.093Z" fill="#F0F0F0"/>
<path d="M184.345 142.044H196.433L194.961 130.199H182.873L184.345 142.044Z" fill="#F0F0F0"/>
<path d="M228.8 139.21H143.2C143.031 139.21 142.865 139.174 142.711 139.104C142.558 139.035 142.421 138.933 142.309 138.806C142.198 138.678 142.115 138.529 142.066 138.366C142.017 138.204 142.002 138.033 142.024 137.865L148.616 84.7837C148.651 84.4948 148.79 84.2288 149.007 84.036C149.223 83.8431 149.503 83.7367 149.792 83.7369H235.368C235.536 83.7368 235.701 83.7726 235.854 83.8418C236.007 83.9111 236.144 84.0122 236.255 84.1386C236.366 84.265 236.45 84.4137 236.499 84.5749C236.549 84.7361 236.564 84.9061 236.544 85.0736L229.952 138.163C229.917 138.448 229.782 138.711 229.57 138.903C229.358 139.095 229.085 139.204 228.8 139.21Z" fill="#F0F0F0"/>
<path d="M227.504 139.21H141.96C141.792 139.21 141.625 139.174 141.472 139.104C141.318 139.035 141.181 138.933 141.07 138.806C140.959 138.678 140.876 138.529 140.826 138.366C140.777 138.204 140.763 138.033 140.784 137.865L147.376 84.7837C147.413 84.4955 147.553 84.2305 147.769 84.038C147.985 83.8454 148.264 83.7385 148.552 83.7369H234.096C234.264 83.7368 234.43 83.7726 234.583 83.8418C234.736 83.9111 234.872 84.0122 234.984 84.1386C235.095 84.265 235.178 84.4137 235.228 84.5749C235.278 84.7361 235.293 84.9061 235.272 85.0736L228.68 138.163C228.645 138.452 228.506 138.718 228.29 138.911C228.073 139.104 227.794 139.21 227.504 139.21Z" fill="#F5F5F5"/>
<path d="M143.544 136.271L149.712 86.5875C149.724 86.5064 149.764 86.4323 149.826 86.379C149.888 86.3257 149.967 86.2967 150.048 86.2976H232.184C232.231 86.2959 232.278 86.3046 232.321 86.3232C232.364 86.3418 232.403 86.3698 232.435 86.4051C232.466 86.4405 232.489 86.4824 232.502 86.5279C232.516 86.5733 232.519 86.6211 232.512 86.668L226.344 136.359C226.334 136.44 226.295 136.514 226.235 136.567C226.174 136.621 226.096 136.65 226.016 136.649H143.872C143.825 136.648 143.779 136.638 143.736 136.618C143.693 136.598 143.655 136.569 143.624 136.533C143.593 136.498 143.57 136.456 143.556 136.411C143.543 136.365 143.538 136.318 143.544 136.271Z" fill="#E0E0E0"/>
<path d="M174.808 153.889H194.504V153.64C194.504 153.116 194.297 152.615 193.93 152.245C193.562 151.875 193.063 151.667 192.544 151.667H176.768C176.248 151.667 175.749 151.875 175.382 152.245C175.014 152.615 174.808 153.116 174.808 153.64V153.889Z" fill="#FAFAFA"/>
<path d="M192.208 153.889H205.568V153.64C205.568 153.116 205.362 152.615 204.994 152.245C204.626 151.875 204.128 151.667 203.608 151.667H194.168C193.648 151.667 193.15 151.875 192.782 152.245C192.415 152.615 192.208 153.116 192.208 153.64V153.889Z" fill="#F0F0F0"/>
<path d="M306.832 46.1321V46.0918C306.648 45.4718 306.472 44.8437 306.32 44.2156C306.049 44.6498 305.68 45.0137 305.244 45.2781C304.807 45.5425 304.315 45.6998 303.808 45.7375H303.592C302.256 45.6087 300.976 44.3042 300.168 42.2508C300.152 42.2139 300.144 42.1742 300.144 42.1341C300.144 42.0939 300.152 42.0542 300.168 42.0173C300.206 41.9438 300.272 41.8887 300.352 41.8643C301.31 41.6197 302.31 41.5814 303.285 41.7521C304.259 41.9228 305.187 42.2985 306.008 42.8548C305.888 42.2589 305.784 41.6549 305.696 41.0591C305.485 41.1 305.27 41.1216 305.056 41.1235C302.88 41.1235 301.28 39.1668 301.2 39.0701C301.171 39.0346 301.152 38.993 301.143 38.9485C301.133 38.904 301.135 38.858 301.146 38.8141C301.158 38.7702 301.18 38.7297 301.21 38.6959C301.24 38.662 301.278 38.6358 301.32 38.6192C301.825 38.3666 302.378 38.2245 302.942 38.2023C303.506 38.1801 304.068 38.2783 304.592 38.4904C305.15 38.7764 305.602 39.2369 305.88 39.8029C306.287 38.5428 307.032 37.4205 308.033 36.5595C309.034 35.6985 310.251 35.1323 311.552 34.9231C311.592 34.9135 311.634 34.9136 311.674 34.9234C311.715 34.9332 311.752 34.9524 311.784 34.9795C311.817 35.0033 311.845 35.0345 311.864 35.0709C311.884 35.1072 311.894 35.1476 311.896 35.1889C312.008 37.1778 311.944 39.6177 310.464 40.7772C309.844 41.2368 309.088 41.4697 308.32 41.4375C307.631 41.4208 306.948 41.3125 306.288 41.1154C306.499 42.5545 306.806 43.9776 307.208 45.3752C308.655 43.3895 310.709 41.9358 313.056 41.2362C313.13 41.2188 313.208 41.2309 313.273 41.2699C313.339 41.3089 313.387 41.3718 313.408 41.4456C313.856 43.1607 313.624 44.5538 312.744 45.4718C312.296 45.8764 311.772 46.1862 311.203 46.3827C310.634 46.5791 310.032 46.6582 309.432 46.6152C308.787 46.6111 308.144 46.5437 307.512 46.4139C307.88 47.5896 308.312 48.7411 308.72 49.8362C309.608 49.0309 312.224 47.0339 315.072 47.8714C315.148 47.8969 315.211 47.9519 315.248 48.0244C315.263 48.0613 315.271 48.101 315.271 48.1412C315.271 48.1813 315.263 48.221 315.248 48.2579C314.448 50.1583 313.592 51.2131 312.488 51.5755C312.193 51.6731 311.885 51.7221 311.576 51.7204C310.73 51.6843 309.906 51.4411 309.176 51.0118C309.784 52.4693 310.432 53.8302 311.048 55.038C311.779 54.2875 312.697 53.7493 313.707 53.4801C314.716 53.2108 315.779 53.2205 316.784 53.5081C316.852 53.5217 316.913 53.5607 316.954 53.6173C316.996 53.674 317.015 53.7441 317.008 53.8141C316.937 54.4231 316.708 55.0026 316.344 55.4944C315.981 55.9863 315.495 56.3732 314.936 56.6163C314.514 56.7989 314.059 56.8921 313.6 56.8901C312.962 56.882 312.337 56.719 311.776 56.415C312.4 57.5826 312.976 58.5569 313.424 59.2977H318.864C319.728 57.8081 320.728 55.956 321.704 53.8785C321.249 54.0151 320.778 54.0882 320.304 54.0959C319.72 54.1032 319.143 53.9752 318.617 53.7218C318.09 53.4684 317.629 53.0964 317.268 52.6346C316.908 52.1729 316.658 51.6338 316.538 51.0591C316.418 50.4845 316.431 49.8897 316.576 49.3208C316.594 49.2548 316.636 49.1979 316.694 49.1608C316.751 49.1237 316.82 49.109 316.888 49.1195C317.998 49.2286 319.067 49.6053 320.003 50.2178C320.938 50.8303 321.714 51.6605 322.264 52.6384C322.904 51.189 323.528 49.651 324.072 48.0647C323.379 48.4612 322.603 48.6875 321.808 48.725C321.492 48.7286 321.178 48.6768 320.88 48.572C319.28 48.0405 318.36 46.0999 317.576 44.0868C317.558 44.0504 317.549 44.0105 317.549 43.97C317.549 43.9295 317.558 43.8896 317.576 43.8532C317.594 43.8163 317.62 43.7836 317.652 43.7573C317.683 43.7309 317.72 43.7115 317.76 43.7003C320.96 42.7984 323.592 45.8986 324.408 47.0098C324.834 45.669 325.189 44.3062 325.472 42.9272C324.799 43.0597 324.116 43.1297 323.432 43.1366C322.751 43.1867 322.067 43.0953 321.423 42.8681C320.779 42.6409 320.188 42.2828 319.688 41.816C318.72 40.7853 318.488 39.2392 319.008 37.355C319.017 37.318 319.033 37.2834 319.056 37.253C319.079 37.2227 319.108 37.1974 319.141 37.1786C319.174 37.1598 319.21 37.1478 319.248 37.1436C319.285 37.1393 319.323 37.1427 319.36 37.1537C321.913 37.9555 324.135 39.5759 325.688 41.7677L325.808 41.0349C325.816 40.9715 325.844 40.9124 325.888 40.8658C326.019 40.3894 326.249 39.9461 326.562 39.5647C326.875 39.1832 327.264 38.8721 327.704 38.6514C328.281 38.4273 328.898 38.3286 329.516 38.3619C330.134 38.3952 330.737 38.5598 331.288 38.8447C331.33 38.8631 331.368 38.8907 331.398 38.9255C331.428 38.9603 331.451 39.0014 331.464 39.046C331.473 39.0897 331.473 39.1352 331.462 39.1786C331.45 39.222 331.429 39.2621 331.4 39.2956C331.32 39.4003 329.56 41.4939 327.192 41.4939C326.936 41.4906 326.682 41.4636 326.432 41.4134C326.328 42.0978 326.2 42.7823 326.056 43.4587C326.968 42.8542 327.997 42.4512 329.075 42.2763C330.154 42.1014 331.257 42.1586 332.312 42.4441C332.391 42.4685 332.457 42.5235 332.496 42.5971C332.511 42.6353 332.52 42.6764 332.52 42.7179C332.52 42.7593 332.511 42.8004 332.496 42.8386C331.576 45.0772 330.152 46.4944 328.68 46.6152H328.48C327.736 46.6152 326.728 46.269 325.704 44.892C325.3 46.4577 324.814 48.0006 324.248 49.5141C325.632 48.8538 328.744 47.7184 330.968 49.4497C330.998 49.4719 331.024 49.5001 331.043 49.5327C331.063 49.5652 331.076 49.6014 331.081 49.639C331.086 49.6766 331.084 49.7148 331.074 49.7515C331.064 49.7882 331.047 49.8224 331.024 49.8523C329.584 51.8251 328.256 52.7834 326.952 52.7834C325.872 52.7834 324.84 52.0989 323.808 50.7461C323.216 52.2277 322.576 53.645 321.944 54.9494C323.328 54.0878 324.848 54.2247 326.64 55.3601C326.681 55.3851 326.715 55.4205 326.739 55.4629C326.763 55.5052 326.776 55.553 326.776 55.6017C326.779 55.6491 326.769 55.6965 326.748 55.739C326.727 55.7815 326.695 55.8175 326.656 55.8433C325.588 56.6176 324.328 57.0777 323.016 57.1719C322.339 57.1854 321.675 56.9825 321.12 56.5921C320.608 57.5826 320.104 58.4925 319.64 59.3058H322.112V60.723H321.216L320.472 68.2278H309.52L308.784 60.723H307.88V59.3058H312.8C312.256 58.3959 311.56 57.18 310.816 55.7547C310.793 55.726 310.777 55.6932 310.768 55.6581C310.576 55.2957 310.392 54.9253 310.2 54.5388C309.874 55.0343 309.436 55.4441 308.921 55.7341C308.406 56.0241 307.829 56.1858 307.24 56.2056C307.117 56.2136 306.994 56.2136 306.872 56.2056C306.22 56.1313 305.601 55.8768 305.084 55.4703C304.568 55.0638 304.173 54.5212 303.944 53.9026C303.92 53.8391 303.92 53.7691 303.943 53.7055C303.967 53.6418 304.012 53.5889 304.072 53.5564C304.91 53.0794 305.85 52.8103 306.812 52.771C307.775 52.7318 308.733 52.9238 309.608 53.3309C309.192 52.4532 308.808 51.5111 308.392 50.5367C308.36 50.5006 308.341 50.4556 308.336 50.4079C308.224 50.1341 308.12 49.8603 308.008 49.6027C307.056 50.8105 306.112 51.4064 305.128 51.4064C303.936 51.4064 302.728 50.5206 301.432 48.6927C301.387 48.6317 301.367 48.5552 301.378 48.4799C301.388 48.4046 301.428 48.3364 301.488 48.2901C303.528 46.7521 306.288 47.807 307.584 48.419C307.32 47.6942 307.08 46.9615 306.856 46.2126L306.832 46.1321Z" fill="#E0E0E0"/>
<path d="M78.0235 42.7341H118.936V87.9483H78.0235V42.7341Z" fill="#E0E0E0"/>
<path d="M83.0716 44.5862C83.1058 44.5944 83.1415 44.5944 83.1756 44.5862C83.2716 44.5218 92.9356 38.7401 95.9756 38.7401C99.0156 38.7401 108.256 44.5218 108.352 44.5781C108.373 44.5926 108.398 44.6025 108.424 44.6071C108.45 44.6118 108.476 44.611 108.501 44.605C108.527 44.599 108.551 44.5878 108.572 44.5721C108.593 44.5564 108.611 44.5365 108.624 44.5137C108.651 44.4687 108.659 44.4149 108.647 44.3637C108.635 44.3125 108.604 44.2681 108.56 44.2399C108.176 43.9984 99.1596 38.3375 95.9756 38.3375C92.7916 38.3375 83.3357 43.9742 82.9357 44.2399C82.913 44.2531 82.8933 44.2708 82.8777 44.292C82.8621 44.3131 82.8509 44.3373 82.8449 44.3629C82.8389 44.3886 82.8382 44.4152 82.8428 44.4411C82.8474 44.467 82.8572 44.4917 82.8716 44.5137C82.8942 44.5443 82.9252 44.5675 82.9608 44.5803C82.9964 44.5932 83.0349 44.5953 83.0716 44.5862Z" fill="#EBEBEB"/>
<path d="M73.5995 42.7341H115.855V87.9483H73.5995V42.7341Z" fill="#F5F5F5"/>
<path d="M77.1357 84.381V46.2932H112.312V84.381H77.1357Z" fill="white"/>
<path d="M87.9108 72.1989C84.1462 68.4096 84.1462 62.2659 87.9108 58.4766C91.6755 54.6873 97.7792 54.6873 101.544 58.4766C105.309 62.2659 105.308 68.4096 101.544 72.1989C97.7792 75.9882 91.6755 75.9882 87.9108 72.1989Z" fill="#E0E0E0"/>
<path d="M95.5439 208.758H59.6879C56.398 208.761 53.2383 207.464 50.8881 205.147C48.5379 202.83 47.1849 199.676 47.1199 196.366L45.776 130.288C45.7515 129.061 45.9703 127.842 46.4197 126.702C46.869 125.562 47.5399 124.524 48.3929 123.648C49.246 122.772 50.264 122.076 51.3876 121.602C52.5111 121.127 53.7174 120.882 54.936 120.882H77.4159C79.6649 120.882 81.8354 121.715 83.5131 123.222C85.1908 124.73 86.2584 126.806 86.512 129.056L95.5439 208.758Z" fill="#E6E6E6"/>
<path d="M75.9756 208.758H114.184C114.659 208.758 115.115 208.568 115.451 208.23C115.787 207.892 115.976 207.433 115.976 206.955V206.785C115.976 205.474 115.458 204.217 114.537 203.289C113.616 202.362 112.366 201.841 111.064 201.841H75.9756V208.758Z" fill="#E6E6E6"/>
<path d="M78.9915 264.537C79.1775 264.542 79.3592 264.48 79.5052 264.364C79.6512 264.248 79.7524 264.084 79.7915 263.901L90.9915 209.564H110.511L121.711 263.901C121.755 264.115 121.881 264.302 122.062 264.422C122.243 264.542 122.463 264.585 122.675 264.541C122.888 264.498 123.074 264.371 123.193 264.189C123.312 264.007 123.355 263.785 123.311 263.571L111.967 208.597C111.93 208.413 111.83 208.247 111.683 208.13C111.537 208.012 111.355 207.949 111.167 207.953H90.3675C90.1803 207.949 89.9978 208.012 89.8516 208.13C89.7054 208.247 89.6049 208.413 89.5675 208.597L78.2315 263.571C78.1888 263.779 78.2296 263.996 78.345 264.174C78.4604 264.352 78.641 264.477 78.8475 264.521C78.8946 264.533 78.943 264.538 78.9915 264.537Z" fill="#E6E6E6"/>
<path d="M91.1598 264.537C91.2128 264.545 91.2667 264.545 91.3198 264.537C91.4227 264.516 91.5206 264.475 91.6077 264.416C91.6947 264.357 91.7694 264.281 91.8273 264.192C91.8853 264.104 91.9254 264.005 91.9454 263.901C91.9654 263.798 91.9648 263.691 91.9438 263.587L80.5998 208.613C80.5624 208.429 80.4618 208.263 80.3157 208.146C80.1695 208.028 79.9869 207.965 79.7998 207.969H58.9998C58.8126 207.965 58.6301 208.028 58.4839 208.146C58.3377 208.263 58.2372 208.429 58.1998 208.613L46.8638 263.587C46.8422 263.693 46.8416 263.802 46.8619 263.908C46.8822 264.014 46.9231 264.115 46.9821 264.205C47.0412 264.295 47.1173 264.373 47.2061 264.433C47.2949 264.494 47.3947 264.536 47.4998 264.558C47.6048 264.579 47.7131 264.58 47.8184 264.559C47.9237 264.539 48.024 264.498 48.1135 264.438C48.203 264.379 48.28 264.302 48.3401 264.213C48.4002 264.124 48.4422 264.023 48.4638 263.917L59.6638 209.58H79.1998L90.3998 263.917C90.4404 264.091 90.5371 264.246 90.6746 264.358C90.8122 264.47 90.9828 264.533 91.1598 264.537Z" fill="#E6E6E6"/>
<path d="M200.001 300C114.335 300 44.8893 295.919 44.8893 290.885C44.8893 285.85 114.335 281.769 200.001 281.769C285.667 281.769 355.113 285.85 355.113 290.885C355.113 295.919 285.667 300 200.001 300Z" fill="#F5F5F5"/>
<path d="M186.313 283.444C186.563 283.444 186.806 283.356 187 283.196C187.194 283.036 187.327 282.814 187.377 282.567L202.577 207.228H229.049L244.249 282.567C244.321 282.835 244.492 283.066 244.728 283.212C244.963 283.358 245.244 283.408 245.515 283.353C245.786 283.297 246.026 283.14 246.186 282.914C246.346 282.687 246.414 282.407 246.377 282.132L231.001 205.916C230.95 205.669 230.816 205.448 230.623 205.288C230.429 205.128 230.187 205.04 229.937 205.038H201.697C201.446 205.039 201.203 205.126 201.009 205.286C200.816 205.446 200.683 205.669 200.633 205.916L185.249 282.132C185.192 282.416 185.25 282.711 185.408 282.952C185.567 283.194 185.815 283.362 186.097 283.42L186.313 283.444Z" fill="#BB6BD9"/>
<path d="M228.8 283.444C229.051 283.442 229.293 283.354 229.486 283.194C229.68 283.035 229.813 282.813 229.864 282.567L245.064 207.228H271.536L286.736 282.567C286.756 282.715 286.806 282.858 286.884 282.986C286.961 283.114 287.063 283.225 287.184 283.312C287.306 283.399 287.443 283.459 287.589 283.49C287.735 283.521 287.885 283.522 288.031 283.492C288.177 283.462 288.315 283.403 288.437 283.317C288.559 283.231 288.662 283.121 288.74 282.994C288.819 282.866 288.87 282.724 288.891 282.576C288.912 282.427 288.903 282.276 288.864 282.132L273.48 205.916C273.431 205.669 273.297 205.446 273.104 205.286C272.91 205.126 272.667 205.039 272.416 205.038H244.176C243.927 205.039 243.685 205.127 243.492 205.287C243.3 205.447 243.168 205.669 243.12 205.916L227.736 282.132C227.68 282.416 227.737 282.711 227.896 282.952C228.055 283.194 228.302 283.362 228.584 283.42L228.8 283.444Z" fill="#BB6BD9"/>
<path d="M222.857 206.141H271.497C275.961 206.142 280.248 204.381 283.437 201.236C286.626 198.091 288.463 193.813 288.553 189.32L290.361 114.916C290.395 113.253 290.099 111.599 289.49 110.053C288.882 108.506 287.973 107.098 286.816 105.909C285.66 104.72 284.28 103.776 282.757 103.131C281.233 102.486 279.597 102.153 277.945 102.153H247.449C244.397 102.155 241.452 103.287 239.176 105.333C236.899 107.379 235.45 110.197 235.105 113.249L222.857 206.141Z" fill="#BB6BD9"/>
<path d="M249.385 196.72H201.785C200.017 196.72 198.322 197.427 197.073 198.685C195.823 199.943 195.121 201.649 195.121 203.428V203.661C195.121 204.302 195.374 204.916 195.824 205.369C196.274 205.822 196.884 206.077 197.521 206.077H249.385V196.72Z" fill="#BB6BD9"/>
<g opacity="0.3">
<path d="M186.313 283.445C186.563 283.444 186.806 283.356 187 283.197C187.194 283.037 187.327 282.814 187.377 282.567L202.577 207.229H229.049L244.249 282.567C244.321 282.835 244.492 283.066 244.728 283.212C244.963 283.358 245.244 283.408 245.515 283.353C245.786 283.298 246.026 283.141 246.186 282.914C246.346 282.687 246.414 282.408 246.377 282.132L231.001 205.916C230.95 205.67 230.816 205.448 230.623 205.288C230.429 205.129 230.187 205.04 229.937 205.038H201.697C201.446 205.039 201.203 205.127 201.009 205.287C200.816 205.446 200.683 205.669 200.633 205.916L185.249 282.132C185.192 282.416 185.25 282.711 185.408 282.953C185.567 283.194 185.815 283.362 186.097 283.42L186.313 283.445Z" fill="black"/>
<path d="M228.8 283.445C229.051 283.443 229.293 283.354 229.486 283.195C229.68 283.035 229.813 282.813 229.864 282.567L245.064 207.229H271.536L286.736 282.567C286.756 282.715 286.806 282.858 286.884 282.986C286.961 283.114 287.063 283.225 287.184 283.312C287.306 283.399 287.443 283.46 287.589 283.491C287.735 283.522 287.885 283.522 288.031 283.492C288.177 283.463 288.315 283.403 288.437 283.317C288.559 283.232 288.662 283.122 288.74 282.994C288.819 282.867 288.87 282.724 288.891 282.576C288.912 282.428 288.903 282.277 288.864 282.132L273.48 205.916C273.431 205.669 273.297 205.446 273.104 205.287C272.91 205.127 272.667 205.039 272.416 205.038H244.176C243.927 205.039 243.685 205.127 243.492 205.287C243.3 205.447 243.168 205.67 243.12 205.916L227.736 282.132C227.68 282.416 227.737 282.711 227.896 282.953C228.055 283.194 228.302 283.362 228.584 283.42L228.8 283.445Z" fill="black"/>
<path d="M222.857 206.141H271.497C275.961 206.142 280.248 204.381 283.437 201.236C286.626 198.091 288.463 193.813 288.553 189.32L290.361 114.916C290.395 113.253 290.099 111.599 289.49 110.053C288.882 108.506 287.973 107.098 286.816 105.909C285.66 104.72 284.28 103.776 282.757 103.131C281.233 102.486 279.597 102.153 277.945 102.153H247.449C244.397 102.155 241.452 103.287 239.176 105.333C236.899 107.379 235.45 110.197 235.105 113.249L222.857 206.141Z" fill="black"/>
<path d="M249.385 196.72H201.785C200.017 196.72 198.322 197.427 197.073 198.685C195.823 199.943 195.121 201.649 195.121 203.428V203.661C195.121 204.302 195.374 204.916 195.824 205.369C196.274 205.822 196.884 206.077 197.521 206.077H249.385V196.72Z" fill="black"/>
</g>
<path d="M236.392 98.0462C236.392 98.0462 229.592 106.984 233.992 124.78C238.392 142.576 261.096 132.913 262.472 116.873C264.072 97.9657 242.984 111.002 239.272 94.1891L236.392 98.0462Z" fill="#263238"/>
<path d="M241.329 92.7395C244.281 94.8331 245.449 97.8769 242.185 100.856C238.921 103.836 234.265 103.739 232.857 102.515C231.449 101.291 231.729 95.0747 231.729 95.0747L241.329 92.7395Z" fill="#BB6BD9"/>
<path opacity="0.8" d="M241.329 92.7395C244.281 94.8331 245.449 97.8769 242.185 100.856C238.921 103.836 234.265 103.739 232.857 102.515C231.449 101.291 231.729 95.0747 231.729 95.0747L241.329 92.7395Z" fill="white"/>
<path d="M204.048 132.349C203.968 132.711 203.832 133.275 203.704 133.75L203.32 135.264C203.048 136.279 202.752 137.293 202.44 138.308C201.848 140.353 201.192 142.39 200.504 144.428C199.816 146.465 199.112 148.454 198.344 150.515C197.968 151.522 197.592 152.536 197.192 153.543L196.728 154.751C196.635 154.958 196.514 155.15 196.368 155.323C195.229 156.482 193.842 157.363 192.312 157.899C190.444 158.656 188.517 159.259 186.552 159.703C184.52 160.178 182.432 160.573 180.32 160.903C178.208 161.233 176.04 161.499 173.96 161.708L173.888 166.04C178.452 166.515 183.052 166.515 187.616 166.04C190.001 165.793 192.36 165.332 194.664 164.663C195.912 164.284 197.127 163.802 198.296 163.222C199.642 162.564 200.874 161.691 201.944 160.637C202.565 160.015 203.103 159.314 203.544 158.552C203.664 158.358 203.768 158.141 203.88 157.94L204.088 157.505L204.456 156.7C204.952 155.677 205.448 154.654 205.904 153.615C206.832 151.538 207.736 149.444 208.544 147.31C209.352 145.177 210.144 143.027 210.816 140.869C211.144 139.757 211.464 138.654 211.76 137.519L212.2 135.82C212.328 135.208 212.448 134.7 212.576 133.976L204.048 132.349Z" fill="#E58A7B"/>
<path d="M206.768 123.202C203.336 124.079 200.944 138.284 200.944 138.284L210.392 144.726C210.392 144.726 219.456 130.393 216.792 126.6C214.064 122.703 211.776 121.946 206.768 123.202Z" fill="#BB6BD9"/>
<path opacity="0.5" d="M206.768 123.202C203.336 124.079 200.944 138.284 200.944 138.284L210.392 144.726C210.392 144.726 219.456 130.393 216.792 126.6C214.064 122.703 211.776 121.946 206.768 123.202Z" fill="white"/>
<path opacity="0.2" d="M208.001 126.777L216.217 133.332C214.617 137.313 212.671 141.145 210.401 144.782L203.849 140.297L208.001 126.777Z" fill="#BB6BD9"/>
<path d="M206.767 123.202C206.767 123.202 202.767 124.603 210.767 173.747H244.543C243.975 159.905 243.959 151.369 250.527 122.952C245.798 121.972 241.004 121.336 236.183 121.052C231.072 120.685 225.942 120.685 220.831 121.052C214.239 121.688 206.767 123.202 206.767 123.202Z" fill="#BB6BD9"/>
<path opacity="0.5" d="M206.767 123.202C206.767 123.202 202.767 124.603 210.767 173.747H244.543C243.975 159.905 243.959 151.369 250.527 122.952C245.798 121.972 241.004 121.336 236.183 121.052C231.072 120.685 225.942 120.685 220.831 121.052C214.239 121.688 206.767 123.202 206.767 123.202Z" fill="white"/>
<path d="M175.2 161.668L169.304 155.645L168.504 164.132C168.504 164.132 172.928 167.144 175.984 165.525L175.2 161.668Z" fill="#E58A7B"/>
<path d="M162.344 154.751L162.08 161.886L168.512 164.132L169.288 155.645L162.344 154.751Z" fill="#E58A7B"/>
<path d="M172.432 275.634H164.112L162.832 256.235H171.152L172.432 275.634Z" fill="#E58A7B"/>
<path d="M204.632 275.634H196.312L193.64 256.235H201.96L204.632 275.634Z" fill="#E58A7B"/>
<path d="M195.793 274.659H205.145C205.306 274.656 205.463 274.712 205.585 274.818C205.708 274.923 205.787 275.07 205.809 275.231L206.873 282.68C206.892 282.868 206.872 283.058 206.813 283.237C206.755 283.417 206.659 283.583 206.534 283.723C206.408 283.863 206.254 283.976 206.082 284.052C205.911 284.129 205.725 284.169 205.537 284.169C202.281 284.113 200.737 283.92 196.601 283.92C194.073 283.92 187.585 284.185 184.089 284.185C180.593 284.185 180.409 280.707 181.865 280.393C188.385 278.975 192.209 277.035 194.409 275.175C194.795 274.843 195.285 274.66 195.793 274.659Z" fill="#263238"/>
<path d="M163.464 274.659H172.8C172.961 274.658 173.117 274.715 173.239 274.82C173.361 274.925 173.441 275.071 173.464 275.231L174.528 282.679C174.547 282.868 174.527 283.058 174.468 283.237C174.41 283.417 174.315 283.582 174.189 283.723C174.063 283.863 173.909 283.975 173.738 284.052C173.566 284.129 173.38 284.169 173.192 284.169C169.936 284.113 168.392 283.919 164.256 283.919C161.72 283.919 156.496 284.185 153 284.185C149.504 284.185 149.32 280.707 150.776 280.393C157.296 278.975 159.864 277.035 162.056 275.175C162.45 274.84 162.949 274.657 163.464 274.659Z" fill="#263238"/>
<path d="M213.401 86.7406C210.409 86.9339 208.889 102.04 217.665 101.162C226.441 100.285 213.401 86.7406 213.401 86.7406Z" fill="#263238"/>
<path d="M162.832 256.235L163.496 266.237H171.816L171.16 256.235H162.832Z" fill="#CF6F64"/>
<path d="M201.961 256.235H193.633L195.017 266.237H203.345L201.961 256.235Z" fill="#CF6F64"/>
<path opacity="0.2" d="M247.152 138.751C246.352 142.874 245.784 146.433 245.352 149.638L243.376 134.25L247.152 138.751Z" fill="#BB6BD9"/>
<path d="M234.664 103.691C233.696 108.659 232.728 117.766 236.184 121.084C236.184 121.084 234.832 126.125 225.656 126.125C215.568 126.125 220.856 121.084 220.856 121.084C226.368 119.763 226.224 115.649 225.264 111.792L234.664 103.691Z" fill="#E58A7B"/>
<path d="M227.48 127.204L224.408 126.093L224.816 125.247L227.48 127.204Z" fill="#263238"/>
<path d="M221.52 126.56L224.408 126.093L223.784 125.151L221.52 126.56Z" fill="#263238"/>
<path d="M235.064 118.741L237.152 120.786C237.215 120.851 237.25 120.937 237.25 121.028C237.25 121.118 237.215 121.204 237.152 121.269L228.352 131.359C227.934 128.962 226.659 126.803 224.768 125.287C232.048 122.517 233.944 119.651 234.592 118.845C234.607 118.798 234.634 118.756 234.671 118.723C234.707 118.69 234.751 118.667 234.799 118.657C234.846 118.646 234.896 118.648 234.943 118.663C234.989 118.678 235.031 118.705 235.064 118.741Z" fill="#BB6BD9"/>
<path d="M222.489 120.287L219.897 120.995C219.82 121.017 219.749 121.059 219.693 121.117C219.637 121.175 219.597 121.247 219.577 121.326C218.845 124.635 218.983 128.079 219.977 131.319C220.345 129.95 221.577 126.672 223.785 125.15C221.385 123.484 222.353 121.334 222.697 120.52C222.708 120.49 222.711 120.457 222.705 120.426C222.699 120.394 222.685 120.364 222.663 120.34C222.642 120.316 222.614 120.299 222.584 120.289C222.553 120.28 222.52 120.279 222.489 120.287Z" fill="#BB6BD9"/>
<path d="M230.816 106.992L225.216 111.784C225.448 112.681 225.606 113.597 225.688 114.521C227.792 114.215 230.68 111.896 230.904 109.69C231.041 108.793 231.011 107.878 230.816 106.992Z" fill="#CF6F64"/>
<path d="M235.202 90.5975C236.154 98.8512 236.738 102.33 233.378 107.258C228.338 114.674 218.05 114.046 214.666 106.243C211.618 99.2216 210.578 86.9176 217.938 82.215C219.557 81.1748 221.413 80.5685 223.33 80.4539C225.248 80.3393 227.162 80.72 228.892 81.56C230.622 82.4 232.11 83.6713 233.214 85.2531C234.318 86.8349 235.003 88.6746 235.202 90.5975Z" fill="#E58A7B"/>
<path d="M216.449 76.9649C230.009 71.5779 240.193 77.6574 242.297 86.2977C245.601 99.713 235.049 100.655 235.049 100.655L233.729 97.2248C231.833 98.3763 226.529 97.869 228.129 87.9081C229.073 82.2715 221.985 90.1226 212.993 89.2448C210.601 89.0113 207.329 80.5885 216.449 76.9649Z" fill="#263238"/>
<path d="M211.832 80.2825C213.616 77.5205 217.264 75.1531 224.824 74.0338C224.824 74.0338 220.896 74.9276 219.624 77.8184C218.352 80.7092 209.68 83.6081 211.832 80.2825Z" fill="#263238"/>
<path d="M237.809 97.74C237.865 98.5337 237.764 99.3307 237.513 100.085C237.262 100.84 236.865 101.537 236.345 102.137C234.945 103.747 233.105 102.757 232.529 100.824C232.017 99.0767 232.121 96.1456 233.993 95.2598C235.865 94.3741 237.657 95.7752 237.809 97.74Z" fill="#E58A7B"/>
<path d="M210.746 173.779C210.746 173.779 154.954 179.005 155.498 204.539C156.066 231.112 161.714 264.304 161.714 264.304H173.242C173.242 264.304 174.226 236.217 174.562 210.055C174.73 196.43 228.642 193.701 228.642 193.701L235.602 173.779H210.746Z" fill="#263238"/>
<path d="M219.673 173.779C219.673 173.779 183.617 185.817 182.705 200.714C181.033 228.141 193.009 264.328 193.009 264.328H204.361C204.361 264.328 203.713 240.332 202.361 215.482C200.649 184.255 255.385 215.047 244.545 173.803L219.673 173.779Z" fill="#263238"/>
<path d="M223.338 95.099C223.458 95.7593 223.202 96.3632 222.77 96.4438C222.338 96.5243 221.898 96.0411 221.778 95.3808C221.658 94.7205 221.914 94.1086 222.346 94.0361C222.778 93.9636 223.202 94.4307 223.338 95.099Z" fill="#263238"/>
<path d="M215.873 96.4436C215.993 97.1039 215.737 97.7078 215.305 97.7884C214.873 97.8689 214.425 97.3857 214.305 96.7254C214.185 96.0652 214.441 95.4532 214.873 95.3807C215.305 95.3082 215.753 95.7753 215.873 96.4436Z" fill="#263238"/>
<path d="M215.072 95.3808L213.4 95.2036C213.4 95.2036 214.4 96.3068 215.072 95.3808Z" fill="#263238"/>
<path d="M221.599 104.045C222.477 103.905 223.31 103.558 224.03 103.034C224.75 102.509 225.337 101.821 225.743 101.025C225.757 100.994 225.758 100.959 225.746 100.928C225.734 100.896 225.71 100.87 225.679 100.856C225.647 100.845 225.612 100.846 225.581 100.86C225.55 100.873 225.525 100.898 225.511 100.929C225.126 101.681 224.572 102.332 223.893 102.829C223.214 103.327 222.428 103.658 221.599 103.795C221.566 103.803 221.537 103.823 221.517 103.851C221.498 103.88 221.49 103.914 221.495 103.948C221.501 103.973 221.514 103.995 221.533 104.012C221.551 104.03 221.574 104.041 221.599 104.045Z" fill="#263238"/>
<path d="M225.087 92.1277C225.122 92.129 225.156 92.1225 225.188 92.1085C225.22 92.0946 225.248 92.0736 225.271 92.0472C225.295 92.0246 225.314 91.9972 225.328 91.9667C225.341 91.9362 225.348 91.9033 225.348 91.87C225.348 91.8368 225.341 91.8039 225.328 91.7734C225.314 91.7429 225.295 91.7155 225.271 91.6929C224.84 91.269 224.314 90.9557 223.738 90.7791C223.161 90.6025 222.551 90.5679 221.959 90.6783C221.896 90.6971 221.843 90.7392 221.81 90.7961C221.778 90.853 221.768 90.9203 221.783 90.9843C221.79 91.0168 221.804 91.0474 221.824 91.0744C221.843 91.1014 221.868 91.1242 221.896 91.1414C221.924 91.1587 221.956 91.1701 221.989 91.1749C222.021 91.1797 222.055 91.1779 222.087 91.1695C222.598 91.0786 223.123 91.1123 223.619 91.2678C224.114 91.4233 224.566 91.6961 224.935 92.0633C224.978 92.1001 225.031 92.1226 225.087 92.1277Z" fill="#263238"/>
<path d="M211.792 93.4482C211.841 93.45 211.89 93.4363 211.932 93.4089C211.973 93.3815 212.005 93.3418 212.024 93.2952C212.219 92.8119 212.525 92.3819 212.918 92.0405C213.31 91.699 213.776 91.4557 214.28 91.3304C214.345 91.3186 214.403 91.2818 214.442 91.2277C214.481 91.1737 214.497 91.1066 214.488 91.0406C214.476 90.9733 214.438 90.9135 214.383 90.8742C214.327 90.835 214.259 90.8195 214.192 90.8312C213.606 90.9679 213.061 91.2449 212.604 91.6389C212.147 92.0328 211.792 92.532 211.568 93.0939C211.541 93.1559 211.539 93.2262 211.563 93.2894C211.587 93.3527 211.634 93.404 211.696 93.4321L211.792 93.4482Z" fill="#263238"/>
<path d="M245.481 135.103C246.209 137.519 246.993 139.935 247.689 142.415C248.385 144.895 249.121 147.311 249.753 149.767C250.385 152.223 250.985 154.654 251.433 157.014C251.649 158.206 251.849 159.389 251.961 160.501C252.025 161.056 252.057 161.58 252.065 162.063C252.065 162.175 252.065 162.063 252.145 161.877C252.243 161.659 252.378 161.46 252.545 161.29C252.953 160.935 253.105 161 252.921 161.056C252.586 161.138 252.242 161.173 251.897 161.161C250.82 161.124 249.749 160.986 248.697 160.75C246.315 160.222 243.966 159.547 241.665 158.729C236.937 157.118 232.137 155.154 227.465 153.149L225.401 156.941C229.834 159.866 234.467 162.471 239.265 164.736C241.75 165.916 244.314 166.919 246.937 167.74C248.398 168.187 249.898 168.492 251.417 168.65C252.366 168.747 253.323 168.723 254.265 168.577C254.891 168.483 255.501 168.307 256.081 168.054C256.831 167.727 257.511 167.257 258.081 166.669C259.191 165.492 259.827 163.942 259.865 162.32C259.905 161.515 259.913 160.71 259.865 159.985C259.809 158.495 259.673 157.086 259.489 155.709C259.105 152.955 258.609 150.298 258.001 147.657C257.393 145.016 256.745 142.463 256.033 139.902C255.321 137.342 254.553 134.829 253.633 132.269L245.481 135.103Z" fill="#E58A7B"/>
<path d="M192.945 276.068C193.682 276.05 194.415 275.947 195.129 275.762C195.155 275.757 195.18 275.744 195.199 275.725C195.219 275.705 195.232 275.681 195.237 275.654C195.242 275.627 195.239 275.599 195.228 275.574C195.218 275.549 195.2 275.528 195.177 275.513C194.897 275.328 192.401 273.701 191.449 274.128C191.349 274.173 191.263 274.245 191.201 274.336C191.139 274.427 191.103 274.533 191.097 274.643C191.057 274.822 191.064 275.008 191.117 275.183C191.171 275.358 191.268 275.516 191.401 275.642C191.849 275.962 192.396 276.114 192.945 276.068ZM194.745 275.569C193.201 275.891 192.041 275.851 191.593 275.432C191.495 275.337 191.424 275.218 191.384 275.087C191.345 274.956 191.34 274.817 191.369 274.683C191.372 274.62 191.392 274.559 191.427 274.506C191.463 274.454 191.512 274.412 191.569 274.385C192.177 274.112 193.865 275.022 194.745 275.569Z" fill="#BB6BD9"/>
<path d="M195.096 275.77H195.168C195.191 275.757 195.209 275.739 195.222 275.716C195.234 275.693 195.241 275.668 195.24 275.642C195.24 275.545 195.24 273.162 194.344 272.372C194.239 272.271 194.112 272.196 193.973 272.152C193.835 272.109 193.688 272.099 193.544 272.123C193.4 272.122 193.26 272.171 193.148 272.262C193.035 272.353 192.958 272.48 192.928 272.622C192.76 273.492 194.152 275.271 195.024 275.77H195.096ZM193.688 272.372C193.864 272.374 194.033 272.443 194.16 272.566C194.792 273.129 194.92 274.724 194.96 275.36C194.16 274.78 193.088 273.315 193.224 272.662C193.224 272.558 193.304 272.421 193.592 272.38L193.688 272.372Z" fill="#BB6BD9"/>
<path d="M160.336 276.068C161.215 276.049 162.091 275.949 162.952 275.77C162.98 275.763 163.006 275.748 163.026 275.727C163.045 275.705 163.059 275.679 163.064 275.65C163.068 275.62 163.063 275.59 163.048 275.564C163.034 275.537 163.011 275.517 162.984 275.505C162.616 275.312 159.328 273.621 158.328 274.168C158.241 274.216 158.168 274.286 158.115 274.371C158.062 274.455 158.03 274.551 158.024 274.651C158.001 274.819 158.02 274.99 158.079 275.148C158.138 275.307 158.234 275.449 158.36 275.561C158.942 275.952 159.639 276.131 160.336 276.068ZM162.488 275.569C161.416 275.754 159.288 276.02 158.552 275.36C158.46 275.273 158.39 275.166 158.347 275.047C158.304 274.928 158.289 274.801 158.304 274.675C158.305 274.621 158.32 274.567 158.348 274.521C158.376 274.474 158.416 274.436 158.464 274.41C159.12 274.055 161.328 274.997 162.488 275.569Z" fill="#BB6BD9"/>
<path d="M162.92 275.771C162.947 275.779 162.974 275.779 163 275.771C163.02 275.755 163.036 275.736 163.047 275.713C163.058 275.691 163.064 275.667 163.064 275.642C163.064 275.545 162.864 273.315 161.84 272.421C161.697 272.298 161.53 272.206 161.35 272.15C161.169 272.095 160.98 272.077 160.792 272.099C160.28 272.147 160.136 272.405 160.096 272.606C159.952 273.532 161.888 275.304 162.864 275.746L162.92 275.771ZM160.944 272.372C161.207 272.371 161.461 272.469 161.656 272.646C162.408 273.274 162.672 274.78 162.752 275.384C161.704 274.796 160.272 273.282 160.352 272.662C160.352 272.598 160.352 272.421 160.792 272.381L160.944 272.372Z" fill="#BB6BD9"/>
<path d="M227.657 153.278L219.769 151.265L223.529 158.89C223.529 158.89 228.865 159.124 230.625 156.128L227.657 153.278Z" fill="#E58A7B"/>
<path d="M213.391 154.155L216.879 160.372L223.527 158.89L219.767 151.265L213.391 154.155Z" fill="#E58A7B"/>
<path d="M222.543 94.036L220.871 93.8589C220.871 93.8589 221.903 94.9621 222.543 94.036Z" fill="#263238"/>
<path d="M245.048 171.782L245.32 174.826C245.432 175.067 245.16 175.309 244.768 175.309H210.576C210.272 175.309 210.024 175.156 210 174.963L209.696 171.919C209.696 171.709 209.944 171.532 210.272 171.532H244.496C244.602 171.523 244.708 171.542 244.804 171.585C244.901 171.629 244.985 171.697 245.048 171.782Z" fill="#BB6BD9"/>
<path d="M240.447 175.639H241.367C241.551 175.639 241.687 175.542 241.679 175.43L241.247 171.468C241.247 171.355 241.071 171.258 240.887 171.258H239.999C239.815 171.258 239.679 171.355 239.687 171.468L240.119 175.43C240.111 175.542 240.271 175.639 240.447 175.639Z" fill="#263238"/>
<path d="M213.152 175.639H214.072C214.256 175.639 214.392 175.542 214.384 175.43L213.952 171.468C213.952 171.355 213.776 171.258 213.592 171.258H212.68C212.496 171.258 212.36 171.355 212.368 171.468L212.8 175.43C212.8 175.542 212.976 175.639 213.152 175.639Z" fill="#263238"/>
<path d="M226.799 175.639H227.719C227.903 175.639 228.039 175.542 228.031 175.43L227.599 171.468C227.599 171.355 227.423 171.258 227.239 171.258H226.327C226.143 171.258 226.007 171.355 226.015 171.468L226.447 175.43C226.463 175.542 226.615 175.639 226.799 175.639Z" fill="#263238"/>
<path d="M250.528 122.984C253.92 124.023 257.984 135.755 257.984 135.755L247.064 146.489C247.064 146.489 240.056 135.417 241.464 131.013C242.96 126.423 246.664 121.809 250.528 122.984Z" fill="#BB6BD9"/>
<path opacity="0.5" d="M250.528 122.984C253.92 124.023 257.984 135.755 257.984 135.755L247.064 146.489C247.064 146.489 240.056 135.417 241.464 131.013C242.96 126.423 246.664 121.809 250.528 122.984Z" fill="white"/>
<path d="M220.074 101.145C219.527 101.243 218.973 101.38 218.424 101.553C218.175 101.644 217.917 101.687 217.85 101.616C217.791 101.49 217.81 101.337 217.905 101.177L218.356 99.9335C218.796 98.8599 219.096 97.805 219.255 96.7786C218.677 97.8656 218.236 98.9408 217.939 99.9935C217.798 100.425 217.657 100.836 217.556 101.22C217.447 101.431 217.457 101.626 217.583 101.771C217.633 101.804 217.702 101.826 217.784 101.834C217.865 101.841 217.958 101.836 218.055 101.817C218.201 101.787 218.348 101.746 218.492 101.695C219.028 101.548 219.56 101.363 220.074 101.145Z" fill="#263238"/>
<path d="M69.0717 165.412H132.72V290.023H69.0717V165.412Z" fill="#BB6BD9"/>
<path opacity="0.6" d="M69.0717 165.412H132.72V290.023H69.0717V165.412Z" fill="white"/>
<path d="M192.375 165.412H256.023V290.023H192.375V165.412Z" fill="#BB6BD9"/>
<path opacity="0.6" d="M192.375 165.412H256.023V290.023H192.375V165.412Z" fill="white"/>
<path d="M66.6875 165.412H71.9355V290.023H66.6875V165.412Z" fill="#BB6BD9"/>
<path opacity="0.3" d="M66.6875 165.412H71.9355V290.023H66.6875V165.412Z" fill="black"/>
<path d="M191.615 174.761L65.0635 174.761V165.412L191.615 165.412V174.761Z" fill="#BB6BD9"/>
<path opacity="0.3" d="M191.615 174.761L65.0635 174.761V165.412L191.615 165.412V174.761Z" fill="black"/>
<path d="M189.983 165.412H195.231V290.023H189.983V165.412Z" fill="#BB6BD9"/>
<path opacity="0.3" d="M189.983 165.412H195.231V290.023H189.983V165.412Z" fill="black"/>
<path d="M191.92 195.222L69.3115 195.222V168.303H191.92V195.222Z" fill="#BB6BD9"/>
<path opacity="0.3" d="M191.92 195.222L69.3115 195.222V168.303H191.92V195.222Z" fill="black"/>
<path d="M69.039 293.647H104.375C106.774 293.645 109.074 292.684 110.771 290.977C112.467 289.269 113.421 286.954 113.423 284.539V172.321C113.423 170.186 114.266 168.137 115.766 166.627C117.266 165.117 119.301 164.269 121.423 164.269H131.999V163.464H121.431C119.097 163.464 116.859 164.397 115.208 166.058C113.558 167.719 112.631 169.972 112.631 172.321V284.539C112.629 286.741 111.759 288.851 110.213 290.407C108.667 291.964 106.57 292.839 104.383 292.841H69.039C68.4375 292.843 67.851 292.653 67.3632 292.298C66.8753 291.944 66.5109 291.444 66.322 290.869C66.1332 290.295 66.1294 289.674 66.3113 289.097C66.4932 288.52 66.8515 288.016 67.335 287.656L66.863 287.012C66.2457 287.473 65.7885 288.118 65.5563 288.855C65.3242 289.593 65.3289 290.386 65.5699 291.12C65.8108 291.855 66.2757 292.495 66.8985 292.948C67.5213 293.402 68.2703 293.646 69.039 293.647Z" fill="#BB6BD9"/>
<path opacity="0.3" d="M69.039 293.647H104.375C106.774 293.645 109.074 292.684 110.771 290.977C112.467 289.269 113.421 286.954 113.423 284.539V172.321C113.423 170.186 114.266 168.137 115.766 166.627C117.266 165.117 119.301 164.269 121.423 164.269H131.999V163.464H121.431C119.097 163.464 116.859 164.397 115.208 166.058C113.558 167.719 112.631 169.972 112.631 172.321V284.539C112.629 286.741 111.759 288.851 110.213 290.407C108.667 291.964 106.57 292.839 104.383 292.841H69.039C68.4375 292.843 67.851 292.653 67.3632 292.298C66.8753 291.944 66.5109 291.444 66.322 290.869C66.1332 290.295 66.1294 289.674 66.3113 289.097C66.4932 288.52 66.8515 288.016 67.335 287.656L66.863 287.012C66.2457 287.473 65.7885 288.118 65.5563 288.855C65.3242 289.593 65.3289 290.386 65.5699 291.12C65.8108 291.855 66.2757 292.495 66.8985 292.948C67.5213 293.402 68.2703 293.646 69.039 293.647Z" fill="black"/>
<path d="M63.8875 202.179H64.6875V217.744H63.8875V202.179Z" fill="#BB6BD9"/>
<path opacity="0.3" d="M63.8875 202.179H64.6875V217.744H63.8875V202.179Z" fill="black"/>
<path d="M63.8875 192.992H64.6875V197.082H63.8875V192.992Z" fill="#BB6BD9"/>
<path opacity="0.3" d="M63.8875 192.992H64.6875V197.082H63.8875V192.992Z" fill="black"/>
<path d="M122.48 128.21H181.792L190.384 163.463H131.08L122.48 128.21Z" fill="#BB6BD9"/>
<path opacity="0.4" d="M122.48 128.21H181.792L190.384 163.463H131.08L122.48 128.21Z" fill="white"/>
<path d="M188.568 163.463L188.808 165.412H212.08L211.84 163.463H188.568Z" fill="#BB6BD9"/>
<path opacity="0.4" d="M188.568 163.463L188.808 165.412H212.08L211.84 163.463H188.568Z" fill="white"/>
<path d="M129.257 163.463L129.497 165.412H188.809L188.569 163.463H129.257Z" fill="#BB6BD9"/>
<path opacity="0.5" d="M129.257 163.463L129.497 165.412H188.809L188.569 163.463H129.257Z" fill="black"/>
<path d="M120.657 128.21H179.969L188.561 163.463H129.257L120.657 128.21Z" fill="#BB6BD9"/>
<path opacity="0.5" d="M120.657 128.21H179.969L188.561 163.463H129.257L120.657 128.21Z" fill="black"/>
<path d="M97.7512 156.53C97.7512 156.53 106.479 141.384 94.3992 129.329C94.3992 129.329 91.2392 131.407 91.2872 134.161C91.3352 136.915 94.6712 137.656 93.9592 139.975C93.2472 142.294 90.0872 144.589 92.1592 146.513C94.2312 148.438 91.8232 150.145 91.9672 152.496C92.1112 154.848 97.7512 156.53 97.7512 156.53Z" fill="#BB6BD9"/>
<path d="M97.0875 157.915C97.0875 157.915 93.5515 140.772 108.815 133.178C108.815 133.178 111.168 136.15 110.248 138.815C109.328 141.48 105.943 141.054 105.895 143.494C105.847 145.933 108.12 149.09 105.552 150.258C102.984 151.425 104.751 153.817 103.863 156.007C102.975 158.197 97.0875 157.915 97.0875 157.915Z" fill="#BB6BD9"/>
<path opacity="0.5" d="M97.0875 157.915C97.0875 157.915 93.5515 140.772 108.815 133.178C108.815 133.178 111.168 136.15 110.248 138.815C109.328 141.48 105.943 141.054 105.895 143.494C105.847 145.933 108.12 149.09 105.552 150.258C102.984 151.425 104.751 153.817 103.863 156.007C102.975 158.197 97.0875 157.915 97.0875 157.915Z" fill="black"/>
<path d="M110.464 154.115C110.464 154.115 110.168 165.388 99.0399 165.388C87.9119 165.388 87.6239 154.115 87.6239 154.115H110.464Z" fill="#BB6BD9"/>
<path opacity="0.5" d="M110.464 154.115C110.464 154.115 110.168 165.388 99.0399 165.388C87.9119 165.388 87.6239 154.115 87.6239 154.115H110.464Z" fill="black"/>
<path d="M170.279 80.2503L179.783 67.8899L189.287 80.2503H184.815V96.2504H174.751V80.2503H170.279Z" fill="#F2C94C"/>
<path d="M142.399 94.785C142.399 88.8052 140.039 83.0704 135.839 78.8421C131.638 74.6137 125.94 72.2383 119.999 72.2383V78.1085C122.174 78.1074 124.327 78.5376 126.336 79.3744C128.345 80.2112 130.171 81.4382 131.709 82.9853C133.246 84.5325 134.466 86.3695 135.299 88.3914C136.131 90.4132 136.559 92.5803 136.559 94.7689L142.399 94.785Z" fill="#BB6BD9"/>
<path d="M142.399 94.7849H136.559C136.559 99.2057 134.815 103.445 131.709 106.571C128.604 109.697 124.391 111.453 119.999 111.453C117.094 111.459 114.239 110.686 111.727 109.215L108.799 114.344C112.205 116.323 116.068 117.365 120 117.365C123.932 117.365 127.795 116.323 131.2 114.344C134.605 112.365 137.433 109.519 139.399 106.091C141.365 102.663 142.4 98.775 142.399 94.8171V94.7849Z" fill="#BB6BD9"/>
<path opacity="0.5" d="M142.399 94.7849H136.559C136.559 99.2057 134.815 103.445 131.709 106.571C128.604 109.697 124.391 111.453 119.999 111.453C117.094 111.459 114.239 110.686 111.727 109.215L108.799 114.344C112.205 116.323 116.068 117.365 120 117.365C123.932 117.365 127.795 116.323 131.2 114.344C134.605 112.365 137.433 109.519 139.399 106.091C141.365 102.663 142.4 98.775 142.399 94.8171V94.7849Z" fill="white"/>
<path d="M119.999 78.1084V72.2221C115.052 72.2031 110.238 73.8328 106.309 76.8569C102.379 79.8811 99.5539 84.1296 98.275 88.9395C96.996 93.7494 97.3349 98.8501 99.2387 103.446C101.142 108.042 104.504 111.874 108.799 114.344L111.719 109.247C108.538 107.424 106.048 104.592 104.636 101.193C103.225 97.7938 102.973 94.0197 103.919 90.461C104.865 86.9023 106.957 83.7596 109.866 81.5246C112.776 79.2895 116.339 78.0882 119.999 78.1084Z" fill="#BB6BD9"/>
<path opacity="0.7" d="M119.999 78.1084V72.2221C115.052 72.2031 110.238 73.8328 106.309 76.8569C102.379 79.8811 99.5539 84.1296 98.275 88.9395C96.996 93.7494 97.3349 98.8501 99.2387 103.446C101.142 108.042 104.504 111.874 108.799 114.344L111.719 109.247C108.538 107.424 106.048 104.592 104.636 101.193C103.225 97.7938 102.973 94.0197 103.919 90.461C104.865 86.9023 106.957 83.7596 109.866 81.5246C112.776 79.2895 116.339 78.0882 119.999 78.1084Z" fill="black"/>
<path d="M141.032 39.457H161.44C162.167 39.457 162.865 39.748 163.38 40.266C163.894 40.784 164.184 41.4865 164.184 42.219V80.2022C164.177 80.9305 163.885 81.6268 163.371 82.1396C162.858 82.6523 162.163 82.94 161.44 82.94H135.32C134.593 82.9378 133.897 82.6459 133.384 82.1282C132.872 81.6104 132.584 80.9091 132.584 80.178V47.9684L141.032 39.457Z" fill="#263238"/>
<path d="M142.231 79.1634H159.199C159.518 79.1634 159.823 79.0361 160.048 78.8096C160.273 78.5831 160.399 78.2759 160.399 77.9555C160.397 77.6366 160.27 77.3314 160.045 77.1067C159.82 76.8819 159.516 76.7557 159.199 76.7557H142.223C141.907 76.7557 141.603 76.8819 141.378 77.1067C141.153 77.3314 141.026 77.6366 141.023 77.9555C141.026 78.2766 141.154 78.5838 141.38 78.8101C141.606 79.0364 141.912 79.1634 142.231 79.1634Z" fill="#BB6BD9"/>
<path d="M150.231 45.6815H159.199C159.516 45.6815 159.82 45.5553 160.045 45.3306C160.27 45.1058 160.397 44.8006 160.399 44.4817C160.399 44.1613 160.273 43.8541 160.048 43.6276C159.823 43.4011 159.518 43.2738 159.199 43.2738H150.223C149.905 43.2738 149.6 43.4011 149.375 43.6276C149.15 43.8541 149.023 44.1613 149.023 44.4817C149.024 44.6403 149.057 44.7971 149.118 44.9433C149.179 45.0894 149.268 45.222 149.381 45.3334C149.493 45.4448 149.626 45.5329 149.772 45.5926C149.918 45.6523 150.074 45.6825 150.231 45.6815Z" fill="#BB6BD9"/>
<path d="M144.367 50.4645H159.199C159.516 50.4646 159.82 50.3384 160.045 50.1136C160.27 49.8888 160.397 49.5837 160.399 49.2647C160.399 48.9444 160.273 48.6372 160.048 48.4107C159.823 48.1841 159.518 48.0569 159.199 48.0569H144.359C144.043 48.059 143.739 48.1872 143.516 48.4135C143.293 48.6398 143.167 48.9458 143.167 49.2647C143.167 49.423 143.199 49.5797 143.259 49.7258C143.319 49.8719 143.408 50.0045 143.519 50.116C143.631 50.2275 143.763 50.3157 143.909 50.3755C144.054 50.4354 144.21 50.4656 144.367 50.4645Z" fill="#BB6BD9"/>
<path d="M137.551 55.2478H159.199C159.516 55.2478 159.82 55.1216 160.045 54.8968C160.27 54.6721 160.397 54.3669 160.399 54.0479C160.399 53.7276 160.273 53.4204 160.048 53.1939C159.823 52.9673 159.518 52.8401 159.199 52.8401H137.543C137.225 52.8401 136.92 52.9673 136.695 53.1939C136.47 53.4204 136.343 53.7276 136.343 54.0479C136.344 54.2066 136.377 54.3634 136.438 54.5096C136.499 54.6557 136.588 54.7883 136.701 54.8997C136.813 55.0111 136.946 55.0992 137.092 55.1589C137.238 55.2186 137.394 55.2488 137.551 55.2478Z" fill="#BB6BD9"/>
<path d="M137.552 60.0308H150.144C150.461 60.0308 150.765 59.9047 150.989 59.6799C151.214 59.4551 151.342 59.15 151.344 58.831C151.344 58.5107 151.217 58.2035 150.992 57.9769C150.767 57.7504 150.462 57.6232 150.144 57.6232H137.552C137.233 57.6232 136.928 57.7504 136.703 57.9769C136.478 58.2035 136.352 58.5107 136.352 58.831C136.354 59.15 136.481 59.4551 136.706 59.6799C136.931 59.9047 137.235 60.0308 137.552 60.0308Z" fill="#BB6BD9"/>
<path d="M155.919 60.0308H159.199C159.516 60.0308 159.82 59.9047 160.045 59.6799C160.27 59.4551 160.397 59.15 160.399 58.831C160.399 58.5107 160.273 58.2035 160.048 57.9769C159.823 57.7504 159.518 57.6232 159.199 57.6232H155.911C155.593 57.6232 155.288 57.7504 155.063 57.9769C154.838 58.2035 154.711 58.5107 154.711 58.831C154.712 58.9896 154.745 59.1465 154.806 59.2926C154.867 59.4388 154.956 59.5713 155.069 59.6828C155.181 59.7942 155.314 59.8823 155.46 59.942C155.606 60.0017 155.762 60.0319 155.919 60.0308Z" fill="#BB6BD9"/>
<path d="M137.551 64.8139H159.199C159.518 64.8139 159.823 64.6867 160.048 64.4601C160.273 64.2336 160.399 63.9264 160.399 63.6061C160.397 63.2871 160.27 62.9819 160.045 62.7572C159.82 62.5324 159.516 62.4062 159.199 62.4063H137.543C137.227 62.4062 136.923 62.5324 136.698 62.7572C136.473 62.9819 136.346 63.2871 136.343 63.6061C136.343 63.7654 136.375 63.9231 136.436 64.0702C136.496 64.2172 136.585 64.3507 136.698 64.463C136.81 64.5753 136.943 64.6641 137.09 64.7243C137.236 64.7845 137.393 64.815 137.551 64.8139Z" fill="#BB6BD9"/>
<path d="M145.911 69.5972H159.199C159.518 69.5972 159.823 69.47 160.048 69.2435C160.273 69.0169 160.399 68.7097 160.399 68.3894C160.397 68.0704 160.27 67.7653 160.045 67.5405C159.82 67.3157 159.516 67.1896 159.199 67.1896H145.903C145.587 67.1896 145.283 67.3157 145.058 67.5405C144.833 67.7653 144.706 68.0704 144.703 68.3894C144.703 68.5487 144.735 68.7064 144.796 68.8535C144.856 69.0005 144.945 69.1341 145.058 69.2463C145.17 69.3586 145.303 69.4474 145.45 69.5076C145.596 69.5678 145.753 69.5983 145.911 69.5972Z" fill="#BB6BD9"/>
<path d="M137.552 69.5972H141.104C141.421 69.5951 141.724 69.4669 141.947 69.2406C142.171 69.0143 142.296 68.7083 142.296 68.3894C142.296 68.0712 142.17 67.766 141.947 67.541C141.723 67.316 141.42 67.1896 141.104 67.1896H137.552C137.235 67.1896 136.931 67.3157 136.706 67.5405C136.481 67.7653 136.354 68.0704 136.352 68.3894C136.352 68.7097 136.478 69.0169 136.703 69.2435C136.928 69.47 137.234 69.5972 137.552 69.5972Z" fill="#BB6BD9"/>
<path d="M137.551 74.3803H159.199C159.518 74.3803 159.823 74.2531 160.048 74.0265C160.273 73.8 160.399 73.4928 160.399 73.1725C160.397 72.8535 160.27 72.5484 160.045 72.3236C159.82 72.0988 159.516 71.9726 159.199 71.9727H137.543C137.227 71.9726 136.923 72.0988 136.698 72.3236C136.473 72.5484 136.346 72.8535 136.343 73.1725C136.343 73.3318 136.375 73.4895 136.436 73.6366C136.496 73.7836 136.585 73.9171 136.698 74.0294C136.81 74.1417 136.943 74.2305 137.09 74.2907C137.236 74.3509 137.393 74.3814 137.551 74.3803Z" fill="#BB6BD9"/>
<g opacity="0.5">
<path d="M142.231 79.1634H159.199C159.518 79.1634 159.823 79.0361 160.048 78.8096C160.273 78.5831 160.399 78.2759 160.399 77.9555C160.397 77.6366 160.27 77.3314 160.045 77.1067C159.82 76.8819 159.516 76.7557 159.199 76.7557H142.223C141.907 76.7557 141.603 76.8819 141.378 77.1067C141.153 77.3314 141.026 77.6366 141.023 77.9555C141.026 78.2766 141.154 78.5838 141.38 78.8101C141.606 79.0364 141.912 79.1634 142.231 79.1634Z" fill="white"/>
</g>
<g opacity="0.5">
<path d="M150.231 45.6815H159.199C159.516 45.6815 159.82 45.5553 160.045 45.3306C160.27 45.1058 160.397 44.8006 160.399 44.4817C160.399 44.1613 160.273 43.8541 160.048 43.6276C159.823 43.4011 159.518 43.2738 159.199 43.2738H150.223C149.905 43.2738 149.6 43.4011 149.375 43.6276C149.15 43.8541 149.023 44.1613 149.023 44.4817C149.024 44.6403 149.057 44.7971 149.118 44.9433C149.179 45.0894 149.268 45.222 149.381 45.3334C149.493 45.4448 149.626 45.5329 149.772 45.5926C149.918 45.6523 150.074 45.6825 150.231 45.6815Z" fill="white"/>
</g>
<g opacity="0.5">
<path d="M144.367 50.4645H159.199C159.516 50.4646 159.82 50.3384 160.045 50.1136C160.27 49.8888 160.397 49.5837 160.399 49.2647C160.399 48.9444 160.273 48.6372 160.048 48.4107C159.823 48.1841 159.518 48.0569 159.199 48.0569H144.359C144.043 48.059 143.739 48.1872 143.516 48.4135C143.293 48.6398 143.167 48.9458 143.167 49.2647C143.167 49.423 143.199 49.5797 143.259 49.7258C143.319 49.8719 143.408 50.0045 143.519 50.116C143.631 50.2275 143.763 50.3157 143.909 50.3755C144.054 50.4354 144.21 50.4656 144.367 50.4645Z" fill="white"/>
</g>
<g opacity="0.5">
<path d="M137.551 55.2478H159.199C159.516 55.2478 159.82 55.1216 160.045 54.8968C160.27 54.6721 160.397 54.3669 160.399 54.0479C160.399 53.7276 160.273 53.4204 160.048 53.1939C159.823 52.9673 159.518 52.8401 159.199 52.8401H137.543C137.225 52.8401 136.92 52.9673 136.695 53.1939C136.47 53.4204 136.343 53.7276 136.343 54.0479C136.344 54.2066 136.377 54.3634 136.438 54.5096C136.499 54.6557 136.588 54.7883 136.701 54.8997C136.813 55.0111 136.946 55.0992 137.092 55.1589C137.238 55.2186 137.394 55.2488 137.551 55.2478Z" fill="white"/>
</g>
<g opacity="0.5">
<path d="M137.551 60.0308H150.143C150.46 60.0308 150.764 59.9047 150.989 59.6799C151.213 59.4551 151.341 59.15 151.343 58.831C151.343 58.5107 151.216 58.2035 150.991 57.9769C150.766 57.7504 150.461 57.6232 150.143 57.6232H137.551C137.233 57.6232 136.927 57.7504 136.702 57.9769C136.477 58.2035 136.351 58.5107 136.351 58.831C136.353 59.15 136.48 59.4551 136.705 59.6799C136.93 59.9047 137.234 60.0308 137.551 60.0308Z" fill="white"/>
</g>
<g opacity="0.5">
<path d="M155.919 60.0308H159.199C159.516 60.0308 159.82 59.9047 160.045 59.6799C160.27 59.4551 160.397 59.15 160.399 58.831C160.399 58.5107 160.273 58.2035 160.048 57.9769C159.823 57.7504 159.518 57.6232 159.199 57.6232H155.911C155.593 57.6232 155.288 57.7504 155.063 57.9769C154.838 58.2035 154.711 58.5107 154.711 58.831C154.712 58.9896 154.745 59.1465 154.806 59.2926C154.867 59.4388 154.956 59.5713 155.069 59.6828C155.181 59.7942 155.314 59.8823 155.46 59.942C155.606 60.0017 155.762 60.0319 155.919 60.0308Z" fill="white"/>
</g>
<g opacity="0.5">
<path d="M137.551 64.8139H159.199C159.518 64.8139 159.823 64.6867 160.048 64.4601C160.273 64.2336 160.399 63.9264 160.399 63.6061C160.397 63.2871 160.27 62.9819 160.045 62.7572C159.82 62.5324 159.516 62.4062 159.199 62.4063H137.543C137.227 62.4062 136.923 62.5324 136.698 62.7572C136.473 62.9819 136.346 63.2871 136.343 63.6061C136.343 63.7654 136.375 63.9231 136.436 64.0702C136.496 64.2172 136.585 64.3507 136.698 64.463C136.81 64.5753 136.943 64.6641 137.09 64.7243C137.236 64.7845 137.393 64.815 137.551 64.8139Z" fill="white"/>
</g>
<g opacity="0.5">
<path d="M145.911 69.5972H159.199C159.518 69.5972 159.823 69.47 160.048 69.2435C160.273 69.0169 160.399 68.7097 160.399 68.3894C160.397 68.0704 160.27 67.7653 160.045 67.5405C159.82 67.3157 159.516 67.1896 159.199 67.1896H145.903C145.587 67.1896 145.283 67.3157 145.058 67.5405C144.833 67.7653 144.706 68.0704 144.703 68.3894C144.703 68.5487 144.735 68.7064 144.796 68.8535C144.856 69.0005 144.945 69.1341 145.058 69.2463C145.17 69.3586 145.303 69.4474 145.45 69.5076C145.596 69.5678 145.753 69.5983 145.911 69.5972Z" fill="white"/>
</g>
<g opacity="0.5">
<path d="M137.551 69.5972H141.103C141.42 69.5951 141.723 69.4669 141.946 69.2406C142.17 69.0143 142.295 68.7083 142.295 68.3894C142.295 68.0712 142.169 67.766 141.946 67.541C141.722 67.316 141.419 67.1896 141.103 67.1896H137.551C137.234 67.1896 136.93 67.3157 136.705 67.5405C136.48 67.7653 136.353 68.0704 136.351 68.3894C136.351 68.7097 136.477 69.0169 136.702 69.2435C136.927 69.47 137.233 69.5972 137.551 69.5972Z" fill="white"/>
</g>
<g opacity="0.5">
<path d="M137.551 74.3803H159.199C159.518 74.3803 159.823 74.2531 160.048 74.0265C160.273 73.8 160.399 73.4928 160.399 73.1725C160.397 72.8535 160.27 72.5484 160.045 72.3236C159.82 72.0988 159.516 71.9726 159.199 71.9727H137.543C137.227 71.9726 136.923 72.0988 136.698 72.3236C136.473 72.5484 136.346 72.8535 136.343 73.1725C136.343 73.3318 136.375 73.4895 136.436 73.6366C136.496 73.7836 136.585 73.9171 136.698 74.0294C136.81 74.1417 136.943 74.2305 137.09 74.2907C137.236 74.3509 137.393 74.3814 137.551 74.3803Z" fill="white"/>
</g>
<path d="M141.031 39.4568V45.2062C141.032 45.5692 140.962 45.9288 140.825 46.2644C140.687 46.6 140.485 46.9049 140.23 47.1616C139.975 47.4183 139.672 47.6217 139.339 47.7601C139.005 47.8985 138.648 47.9692 138.287 47.9682H132.583L141.031 39.4568Z" fill="#BB6BD9"/>
<path opacity="0.5" d="M141.031 39.4568V45.2062C141.032 45.5692 140.962 45.9288 140.825 46.2644C140.687 46.6 140.485 46.9049 140.23 47.1616C139.975 47.4183 139.672 47.6217 139.339 47.7601C139.005 47.8985 138.648 47.9692 138.287 47.9682H132.583L141.031 39.4568Z" fill="white"/>
</svg>
