<svg width="350" height="240" viewBox="0 0 350 240" fill="none" xmlns="http://www.w3.org/2000/svg">
<path d="M314.928 221.601H291.744V221.762H314.928V221.601Z" fill="#EBEBEB"/>
<path d="M231.853 223.355H225.77V223.517H231.853V223.355Z" fill="#EBEBEB"/>
<path d="M291.044 215.614H277.611V215.775H291.044V215.614Z" fill="#EBEBEB"/>
<path d="M66.9557 216.697H36.7227V216.859H66.9557V216.697Z" fill="#EBEBEB"/>
<path d="M77.6224 216.697H73.1914V216.859H77.6224V216.697Z" fill="#EBEBEB"/>
<path d="M157.605 219.42H92.0293V219.581H157.605V219.42Z" fill="#EBEBEB"/>
<path d="M166.88 182.447H31.7099C30.6498 182.447 29.6332 182.059 28.8836 181.368C28.134 180.677 27.7129 179.74 27.7129 178.763V3.65151C27.7221 2.68012 28.1473 1.7514 28.8959 1.06752C29.6445 0.383643 30.6559 -3.72415e-05 31.7099 2.71125e-09H166.88C167.405 2.71125e-09 167.925 0.0952827 168.41 0.28041C168.894 0.465536 169.335 0.736882 169.706 1.07895C170.077 1.42102 170.372 1.82712 170.573 2.27405C170.774 2.72099 170.877 3.20001 170.877 3.68377V178.763C170.877 179.247 170.774 179.726 170.573 180.173C170.372 180.62 170.077 181.026 169.706 181.368C169.335 181.71 168.894 181.981 168.41 182.166C167.925 182.351 167.405 182.447 166.88 182.447ZM31.7099 0.129029C30.6968 0.130735 29.7257 0.5024 29.0094 1.16262C28.293 1.82285 27.8897 2.71782 27.8879 3.65151V178.763C27.8897 179.697 28.293 180.592 29.0094 181.252C29.7257 181.912 30.6968 182.284 31.7099 182.285H166.88C167.893 182.284 168.864 181.912 169.58 181.252C170.297 180.592 170.7 179.697 170.702 178.763V3.65151C170.7 2.71782 170.297 1.82285 169.58 1.16262C168.864 0.5024 167.893 0.130735 166.88 0.129029H31.7099Z" fill="#EBEBEB"/>
<path d="M318.288 182.447H183.118C182.058 182.447 181.041 182.059 180.292 181.368C179.542 180.677 179.121 179.74 179.121 178.763V3.65151C179.13 2.68012 179.555 1.7514 180.304 1.06752C181.053 0.383643 182.064 -3.72415e-05 183.118 2.71125e-09H318.288C319.348 2.71126e-09 320.365 0.388111 321.114 1.07895C321.864 1.76979 322.285 2.70677 322.285 3.68377V178.763C322.285 179.74 321.864 180.677 321.114 181.368C320.365 182.059 319.348 182.447 318.288 182.447ZM183.118 0.129029C182.105 0.130735 181.134 0.5024 180.418 1.16262C179.701 1.82285 179.298 2.71782 179.296 3.65151V178.763C179.298 179.697 179.701 180.592 180.418 181.252C181.134 181.912 182.105 182.284 183.118 182.285H318.288C319.301 182.284 320.272 181.912 320.989 181.252C321.705 180.592 322.108 179.697 322.11 178.763V3.65151C322.108 2.71782 321.705 1.82285 320.989 1.16262C320.272 0.5024 319.301 0.130735 318.288 0.129029H183.118Z" fill="#EBEBEB"/>
<path d="M350 211.22H0V211.381H350V211.22Z" fill="#EBEBEB"/>
<path d="M118.727 44.6956H67.8652V104.094H118.727V44.6956Z" fill="#F0F0F0"/>
<path d="M113.667 50.6051H72.9336V98.178H113.667V50.6051Z" fill="#FAFAFA"/>
<path d="M63.9371 104.094H67.8711L67.8711 44.6956H63.9371L63.9371 104.094Z" fill="#E0E0E0"/>
<path d="M99.2247 75.127C101.411 77.1418 102.639 79.8743 102.639 82.7236C102.639 85.5729 101.411 88.3054 99.2247 90.3202C97.0386 92.3349 94.0737 93.4668 90.9822 93.4668C87.8906 93.4668 84.9257 92.3349 82.7397 90.3202C78.1827 86.1203 94.6677 70.9271 99.2247 75.127Z" fill="#F5F5F5"/>
<path d="M87.0536 74.2948C86.2019 73.5099 85.5263 72.578 85.0654 71.5524C84.6044 70.5268 84.3672 69.4276 84.3672 68.3176C84.3672 67.2075 84.6044 66.1083 85.0654 65.0827C85.5263 64.0571 86.2019 63.1252 87.0536 62.3403C87.9053 61.5554 88.9164 60.9327 90.0291 60.5079C91.1419 60.0831 92.3346 59.8644 93.5391 59.8644C94.7435 59.8644 95.9362 60.0831 97.049 60.5079C98.1618 60.9327 99.1729 61.5554 100.025 62.3403C103.602 65.6434 90.6376 77.598 87.0536 74.2948Z" fill="#EBEBEB"/>
<path d="M273.336 128.203H267.295V211.607H273.336V128.203Z" fill="#F0F0F0"/>
<path d="M275.968 128.203H270.711V211.607H275.968V128.203Z" fill="#E6E6E6"/>
<path d="M212.43 128.203H206.389V211.607H212.43V128.203Z" fill="#F0F0F0"/>
<path d="M215.062 128.203H209.805V211.607H215.062V128.203Z" fill="#E6E6E6"/>
<path d="M296.24 128.203H290.199V211.607H296.24V128.203Z" fill="#F0F0F0"/>
<path d="M298.864 128.203H293.607V211.607H298.864V128.203Z" fill="#E6E6E6"/>
<path d="M235.332 128.203H229.291V211.607H235.332V128.203Z" fill="#F0F0F0"/>
<path d="M298.87 122.848H206.393V129.532H298.87V122.848Z" fill="#F0F0F0"/>
<path d="M232.706 122.848H206.393V129.532H232.706V122.848Z" fill="#E0E0E0"/>
<path d="M237.966 128.203H232.709V211.607H237.966V128.203Z" fill="#E6E6E6"/>
<path d="M85.7914 123.274H47.1094V211.607H85.7914V123.274Z" fill="#E6E6E6"/>
<path d="M158.149 123.274H77.3477V211.607H158.149V123.274Z" fill="#F5F5F5"/>
<path d="M130.619 128.848H143.814C145.193 128.848 146.558 129.098 147.832 129.585C149.106 130.071 150.263 130.784 151.238 131.683C152.213 132.581 152.987 133.648 153.515 134.822C154.042 135.996 154.314 137.254 154.314 138.525V207.22H120.133V138.512C120.137 135.95 121.242 133.494 123.208 131.683C125.174 129.871 127.839 128.852 130.619 128.848Z" fill="#EBEBEB"/>
<path d="M92.4704 128.848H105.7C107.079 128.848 108.445 129.098 109.719 129.585C110.992 130.071 112.15 130.784 113.125 131.683C114.1 132.581 114.873 133.648 115.401 134.822C115.929 135.996 116.2 137.254 116.2 138.525V207.22H81.9844V138.512C81.9881 135.95 83.094 133.494 85.0597 131.683C87.0254 129.871 89.6905 128.852 92.4704 128.848Z" fill="#EBEBEB"/>
<path d="M113.078 167.441C113.037 168.05 112.804 168.635 112.407 169.123C112.01 169.612 111.467 169.982 110.844 170.19C110.221 170.397 109.546 170.432 108.902 170.291C108.258 170.149 107.672 169.837 107.218 169.392C106.764 168.948 106.461 168.391 106.346 167.79C106.232 167.189 106.31 166.57 106.572 166.009C106.834 165.449 107.268 164.971 107.821 164.635C108.374 164.299 109.021 164.119 109.683 164.118C110.143 164.131 110.596 164.227 111.015 164.4C111.435 164.574 111.813 164.822 112.128 165.131C112.443 165.44 112.69 165.802 112.853 166.199C113.016 166.595 113.092 167.017 113.078 167.441Z" fill="#E0E0E0"/>
<path d="M130.557 167.441C130.516 168.05 130.282 168.635 129.885 169.124C129.488 169.612 128.944 169.983 128.321 170.19C127.697 170.398 127.022 170.432 126.378 170.29C125.733 170.148 125.148 169.835 124.695 169.39C124.241 168.945 123.938 168.387 123.824 167.786C123.71 167.184 123.789 166.565 124.052 166.005C124.316 165.444 124.751 164.967 125.305 164.632C125.858 164.297 126.506 164.118 127.169 164.118C128.096 164.145 128.974 164.51 129.609 165.133C130.244 165.756 130.585 166.586 130.557 167.441Z" fill="#E0E0E0"/>
<path d="M175 240C249.958 240 310.723 236.73 310.723 232.697C310.723 228.664 249.958 225.394 175 225.394C100.043 225.394 39.2773 228.664 39.2773 232.697C39.2773 236.73 100.043 240 175 240Z" fill="#F5F5F5"/>
<path d="M204.764 215.084C204.701 205.852 201.726 200.188 199.234 197.066C197.821 195.173 195.967 193.595 193.809 192.446L194.124 191.84C194.236 191.892 205.373 197.001 205.499 215.065L204.764 215.084Z" fill="#BB6BD9"/>
<path d="M207.656 213.452L206.956 213.394C209.826 183.434 188.056 172.905 187.867 172.802L188.196 172.202C188.392 172.305 210.575 183.04 207.656 213.452Z" fill="#BB6BD9"/>
<path d="M210.112 214.568C209.335 197.504 211.295 178.537 211.316 178.344L212.016 178.408C212.016 178.602 210.042 197.524 210.819 214.536L210.112 214.568Z" fill="#BB6BD9"/>
<path d="M211.562 215.562C212.829 208.285 215.93 204.149 218.303 201.962C219.671 200.626 221.345 199.588 223.203 198.924L223.035 198.407C222.937 198.407 213.48 201.207 210.988 215.478L211.562 215.562Z" fill="#BB6BD9"/>
<g opacity="0.3">
<path d="M204.766 215.085C204.703 205.853 201.728 200.188 199.236 197.066C197.823 195.173 195.969 193.595 193.811 192.446L194.126 191.84C194.238 191.892 205.375 197.001 205.501 215.065L204.766 215.085Z" fill="white"/>
<path d="M207.656 213.452L206.956 213.394C209.826 183.434 188.056 172.905 187.867 172.802L188.196 172.202C188.392 172.305 210.575 183.04 207.656 213.452Z" fill="white"/>
<path d="M210.114 214.568C209.337 197.504 211.297 178.537 211.318 178.344L212.018 178.408C212.018 178.602 210.044 197.524 210.821 214.536L210.114 214.568Z" fill="white"/>
<path d="M211.562 215.562C212.829 208.285 215.93 204.149 218.303 201.962C219.671 200.626 221.345 199.588 223.203 198.924L223.035 198.408C222.937 198.408 213.48 201.207 210.988 215.478L211.562 215.562Z" fill="white"/>
</g>
<path d="M190.288 173.544C190.288 173.544 185.451 162.196 178.5 170.628C172.858 177.473 178.5 184.969 178.5 184.969C178.5 184.969 208.761 185.672 203.35 175.027C199.997 168.447 190.288 173.544 190.288 173.544Z" fill="#BB6BD9"/>
<g opacity="0.5">
<path d="M189.299 174.06C189.299 174.06 180.381 172.769 180.332 173.415C180.283 174.06 188.151 174.35 187.416 175.247C186.681 176.144 179.1 176.918 179.016 177.776C178.932 178.634 186.121 176.544 185.799 177.305C185.477 178.066 180.675 181.621 180.598 182.563C180.521 183.505 185.106 178.55 185.652 179.111C186.198 179.672 186.478 184.163 186.94 183.13C187.402 182.098 186.842 177.569 187.948 176.679C189.054 175.789 195.543 181.447 197.013 180.685C198.483 179.924 189.817 176.769 189.299 174.06Z" fill="white"/>
<path d="M193.961 174.511C193.961 174.511 201.381 174.602 201.605 176.447C201.829 178.292 200.198 176.337 193.961 174.511Z" fill="white"/>
</g>
<path d="M192.92 214.517L196.364 231.761C196.539 232.641 197.043 233.437 197.789 234.01C198.534 234.582 199.474 234.896 200.445 234.897H213.85C214.82 234.896 215.76 234.582 216.506 234.01C217.251 233.437 217.755 232.641 217.931 231.761L221.382 214.517C221.445 214.196 221.432 213.866 221.342 213.551C221.252 213.236 221.088 212.943 220.862 212.692C220.635 212.442 220.352 212.24 220.032 212.102C219.712 211.963 219.362 211.891 219.009 211.891H195.3C194.945 211.889 194.594 211.96 194.273 212.097C193.951 212.235 193.666 212.437 193.439 212.687C193.212 212.938 193.047 213.232 192.957 213.549C192.868 213.865 192.855 214.195 192.92 214.517Z" fill="#BB6BD9"/>
<path d="M190.828 193.44C190.828 193.44 182.512 186.943 181.028 195.562C179.831 202.556 187.076 205.975 187.076 205.975C187.076 205.975 209.343 195.653 200.908 189.846C195.728 186.272 190.828 193.44 190.828 193.44Z" fill="#BB6BD9"/>
<path opacity="0.2" d="M190.828 193.44C190.828 193.44 182.512 186.943 181.028 195.562C179.831 202.556 187.076 205.975 187.076 205.975C187.076 205.975 209.343 195.653 200.908 189.846C195.728 186.272 190.828 193.44 190.828 193.44Z" fill="black"/>
<g opacity="0.5">
<path d="M190.336 194.188C190.336 194.188 183.336 196.466 183.56 196.95C183.784 197.433 189.629 194.821 189.475 195.737C189.321 196.653 184.148 199.937 184.456 200.588C184.764 201.24 189.09 197.143 189.181 197.808C189.272 198.472 187.284 202.782 187.627 203.498C187.97 204.214 189.202 198.982 189.832 199.175C190.462 199.369 192.576 202.543 192.471 201.627C192.366 200.711 190.042 197.627 190.476 196.588C190.91 195.55 198.008 197.324 198.75 196.24C199.492 195.156 191.848 195.95 190.336 194.188Z" fill="white"/>
<path d="M193.898 192.84C193.898 192.84 199.323 190.259 200.261 191.492C201.199 192.724 199.218 191.924 193.898 192.84Z" fill="white"/>
</g>
<path d="M219.434 175.866C219.434 175.866 229.087 168.318 230.809 178.337C232.209 186.466 223.774 190.433 223.774 190.433C223.774 190.433 197.874 178.402 207.674 171.673C213.736 167.537 219.434 175.866 219.434 175.866Z" fill="#BB6BD9"/>
<path opacity="0.3" d="M219.434 175.866C219.434 175.866 229.087 168.318 230.809 178.337C232.209 186.466 223.774 190.433 223.774 190.433C223.774 190.433 197.874 178.402 207.674 171.673C213.736 167.537 219.434 175.866 219.434 175.866Z" fill="black"/>
<g opacity="0.5">
<path d="M220.002 176.769C220.002 176.769 228.15 179.421 227.877 179.995C227.604 180.569 220.821 177.518 220.996 178.582C221.171 179.647 227.191 183.459 226.834 184.221C226.477 184.982 221.451 180.214 221.346 180.995C221.241 181.776 223.544 186.801 223.145 187.608C222.746 188.414 221.318 182.337 220.583 182.582C219.848 182.827 217.398 186.498 217.517 185.434C217.636 184.369 220.317 180.782 219.834 179.576C219.351 178.369 211.084 180.434 210.216 179.169C209.348 177.905 218.238 178.782 220.002 176.769Z" fill="white"/>
<path d="M215.845 175.169C215.845 175.169 209.545 172.15 208.446 173.608C207.347 175.066 209.678 174.105 215.845 175.169Z" fill="white"/>
</g>
<path d="M225.1 198.704C225.1 198.704 231.61 192.55 233.626 199.782C235.257 205.652 229.377 209.104 229.377 209.104C229.377 209.104 209.511 201.93 216.189 196.356C220.298 192.937 225.1 198.704 225.1 198.704Z" fill="#BB6BD9"/>
<path opacity="0.4" d="M225.1 198.704C225.1 198.704 231.61 192.55 233.626 199.782C235.257 205.652 229.377 209.104 229.377 209.104C229.377 209.104 209.511 201.93 216.189 196.356C220.298 192.937 225.1 198.704 225.1 198.704Z" fill="black"/>
<g opacity="0.5">
<path d="M225.58 199.285C225.58 199.285 231.747 200.704 231.593 201.136C231.439 201.569 226.238 199.769 226.441 200.543C226.644 201.317 231.341 203.724 231.145 204.298C230.949 204.872 226.896 201.717 226.882 202.278C226.868 202.84 228.926 206.382 228.695 207.014C228.464 207.646 226.959 203.265 226.441 203.491C225.923 203.717 224.397 206.569 224.404 205.782C224.411 204.994 226.126 202.188 225.671 201.336C225.216 200.485 219.315 202.524 218.587 201.653C217.859 200.782 224.439 200.898 225.58 199.285Z" fill="white"/>
<path d="M222.41 198.401C222.41 198.401 217.566 196.588 216.873 197.756C216.18 198.924 217.818 198.014 222.41 198.401Z" fill="white"/>
</g>
<path d="M267.03 132.5H217.113C216.542 132.509 215.975 132.407 215.451 132.198C214.926 131.99 214.456 131.681 214.071 131.293C213.686 130.904 213.395 130.444 213.219 129.943C213.042 129.443 212.983 128.913 213.046 128.39L215.734 100.055C215.857 98.9414 216.418 97.9075 217.312 97.1492C218.206 96.3908 219.37 95.9604 220.585 95.9393H270.502C271.074 95.9297 271.641 96.0326 272.167 96.241C272.692 96.4495 273.163 96.7588 273.549 97.1483C273.934 97.5377 274.225 97.9985 274.402 98.4998C274.579 99.001 274.639 99.5313 274.576 100.055L271.881 128.384C271.759 129.498 271.198 130.533 270.304 131.291C269.41 132.05 268.245 132.48 267.03 132.5Z" fill="#263238"/>
<path d="M237.616 111.932C237.392 113.965 236.367 115.851 234.735 117.234C233.103 118.617 230.977 119.4 228.761 119.435C227.718 119.453 226.683 119.266 225.726 118.886C224.768 118.506 223.909 117.942 223.206 117.232C222.503 116.522 221.973 115.682 221.65 114.768C221.327 113.854 221.219 112.888 221.334 111.932C221.568 109.904 222.597 108.024 224.227 106.644C225.856 105.264 227.976 104.479 230.189 104.436L230.553 100.597C227.205 100.652 223.995 101.836 221.53 103.925C219.065 106.014 217.516 108.862 217.176 111.932C217.004 113.374 217.167 114.833 217.653 116.212C218.14 117.592 218.94 118.86 219.999 119.932C221.058 121.005 222.353 121.858 223.797 122.434C225.242 123.01 226.802 123.296 228.376 123.274C231.725 123.219 234.936 122.034 237.401 119.944C239.866 117.854 241.414 115.004 241.753 111.932H237.616Z" fill="#BB6BD9"/>
<path d="M243.236 110.274C243.408 108.833 243.245 107.374 242.758 105.994C242.272 104.615 241.472 103.347 240.413 102.274C239.353 101.202 238.059 100.349 236.614 99.7729C235.17 99.1967 233.609 98.9104 232.036 98.9328L231.672 102.804C232.714 102.787 233.748 102.975 234.706 103.355C235.663 103.736 236.522 104.299 237.224 105.009C237.927 105.719 238.457 106.558 238.781 107.472C239.104 108.385 239.212 109.352 239.099 110.307L243.236 110.274Z" fill="#BB6BD9"/>
<path opacity="0.7" d="M243.236 110.274C243.408 108.833 243.245 107.374 242.758 105.994C242.272 104.615 241.472 103.347 240.413 102.274C239.353 101.202 238.059 100.349 236.614 99.7729C235.17 99.1967 233.609 98.9104 232.036 98.9328L231.672 102.804C232.714 102.787 233.748 102.975 234.706 103.355C235.663 103.736 236.522 104.299 237.224 105.009C237.927 105.719 238.457 106.558 238.781 107.472C239.104 108.385 239.212 109.352 239.099 110.307L243.236 110.274Z" fill="white"/>
<path d="M233.044 111.932C232.942 112.858 232.475 113.717 231.732 114.347C230.989 114.977 230.022 115.334 229.012 115.352C228.538 115.359 228.067 115.273 227.631 115.099C227.195 114.926 226.804 114.669 226.484 114.345C226.165 114.022 225.923 113.64 225.776 113.224C225.629 112.808 225.58 112.367 225.631 111.932C225.734 111.007 226.201 110.149 226.944 109.52C227.687 108.891 228.655 108.535 229.663 108.52L229.824 106.778C228.301 106.804 226.841 107.343 225.72 108.294C224.599 109.245 223.895 110.542 223.741 111.939C223.663 112.595 223.737 113.26 223.959 113.888C224.18 114.516 224.545 115.094 225.027 115.582C225.51 116.07 226.1 116.458 226.759 116.72C227.417 116.982 228.128 117.111 228.844 117.1C230.369 117.076 231.831 116.537 232.953 115.586C234.076 114.634 234.78 113.337 234.934 111.939L233.044 111.932Z" fill="#BB6BD9"/>
<path opacity="0.7" d="M233.044 111.932C232.942 112.858 232.475 113.717 231.732 114.347C230.989 114.977 230.022 115.334 229.012 115.352C228.538 115.359 228.067 115.273 227.631 115.099C227.195 114.926 226.804 114.669 226.484 114.345C226.165 114.022 225.923 113.64 225.776 113.224C225.629 112.808 225.58 112.367 225.631 111.932C225.734 111.007 226.201 110.149 226.944 109.52C227.687 108.891 228.655 108.535 229.663 108.52L229.824 106.778C228.301 106.804 226.841 107.343 225.72 108.294C224.599 109.245 223.895 110.542 223.741 111.939C223.663 112.595 223.737 113.26 223.959 113.888C224.18 114.516 224.545 115.094 225.027 115.582C225.51 116.07 226.1 116.458 226.759 116.72C227.417 116.982 228.128 117.111 228.844 117.1C230.369 117.076 231.831 116.537 232.953 115.586C234.076 114.634 234.78 113.337 234.934 111.939L233.044 111.932Z" fill="white"/>
<path d="M235.6 111.178C235.679 110.52 235.604 109.855 235.382 109.227C235.16 108.598 234.795 108.02 234.311 107.532C233.828 107.043 233.237 106.656 232.578 106.394C231.919 106.133 231.207 106.004 230.49 106.016L230.301 107.739C230.775 107.732 231.245 107.818 231.68 107.991C232.116 108.164 232.506 108.42 232.826 108.743C233.146 109.066 233.387 109.447 233.535 109.863C233.682 110.278 233.732 110.717 233.682 111.152L235.6 111.178Z" fill="#BB6BD9"/>
<path d="M259.596 100.597L259.232 104.436C260.274 104.418 261.308 104.605 262.265 104.985C263.223 105.364 264.081 105.928 264.784 106.637C265.487 107.346 266.017 108.185 266.341 109.098C266.664 110.012 266.772 110.978 266.659 111.932C266.435 113.964 265.411 115.849 263.78 117.232C262.15 118.615 260.026 119.399 257.811 119.435C256.768 119.454 255.733 119.268 254.774 118.888C253.816 118.509 252.956 117.945 252.253 117.235C251.55 116.524 251.02 115.684 250.697 114.77C250.375 113.855 250.268 112.888 250.384 111.932C250.595 109.896 251.624 108.005 253.268 106.629L250.587 103.92C248.1 105.997 246.543 108.854 246.219 111.932C246.047 113.374 246.21 114.833 246.696 116.212C247.183 117.592 247.983 118.86 249.042 119.932C250.101 121.005 251.396 121.858 252.84 122.434C254.285 123.01 255.845 123.297 257.419 123.274C260.767 123.217 263.977 122.032 266.442 119.943C268.907 117.853 270.456 115.003 270.796 111.932C270.967 110.491 270.803 109.033 270.316 107.654C269.829 106.276 269.029 105.009 267.97 103.937C266.911 102.865 265.616 102.013 264.172 101.437C262.729 100.861 261.169 100.575 259.596 100.597Z" fill="#BB6BD9"/>
<path opacity="0.7" d="M259.596 100.597L259.232 104.436C260.274 104.418 261.308 104.605 262.265 104.985C263.223 105.364 264.081 105.928 264.784 106.637C265.487 107.346 266.017 108.185 266.341 109.098C266.664 110.012 266.772 110.978 266.659 111.932C266.435 113.964 265.411 115.849 263.78 117.232C262.15 118.615 260.026 119.399 257.811 119.435C256.768 119.454 255.733 119.268 254.774 118.888C253.816 118.509 252.956 117.945 252.253 117.235C251.55 116.524 251.02 115.684 250.697 114.77C250.375 113.855 250.268 112.888 250.384 111.932C250.595 109.896 251.624 108.005 253.268 106.629L250.587 103.92C248.1 105.997 246.543 108.854 246.219 111.932C246.047 113.374 246.21 114.833 246.696 116.212C247.183 117.592 247.983 118.86 249.042 119.932C250.101 121.005 251.396 121.858 252.84 122.434C254.285 123.01 255.845 123.297 257.419 123.274C260.767 123.217 263.977 122.032 266.442 119.943C268.907 117.853 270.456 115.003 270.796 111.932C270.967 110.491 270.803 109.033 270.316 107.654C269.829 106.276 269.029 105.009 267.97 103.937C266.911 102.865 265.616 102.013 264.172 101.437C262.729 100.861 261.169 100.575 259.596 100.597Z" fill="white"/>
<path d="M249.781 101.817L252.469 104.533C254.087 103.135 256.216 102.35 258.433 102.333L258.797 98.5005C255.447 98.5264 252.23 99.7097 249.781 101.817Z" fill="#BB6BD9"/>
<path opacity="0.3" d="M249.781 101.817L252.469 104.533C254.087 103.135 256.216 102.35 258.433 102.333L258.797 98.5005C255.447 98.5264 252.23 99.7097 249.781 101.817Z" fill="black"/>
<path d="M259.042 106.449L258.867 108.281C259.366 108.272 259.861 108.361 260.319 108.542C260.778 108.723 261.189 108.993 261.525 109.333C261.861 109.672 262.114 110.074 262.268 110.511C262.422 110.949 262.472 111.411 262.416 111.868C262.309 112.834 261.824 113.73 261.05 114.39C260.277 115.049 259.269 115.425 258.216 115.449C257.718 115.458 257.224 115.369 256.766 115.188C256.309 115.007 255.898 114.738 255.562 114.399C255.226 114.06 254.972 113.659 254.818 113.223C254.664 112.786 254.612 112.324 254.667 111.868C254.772 110.891 255.272 109.986 256.067 109.333L254.786 108.042C253.593 109.034 252.844 110.4 252.686 111.874C252.604 112.564 252.681 113.262 252.914 113.921C253.148 114.581 253.531 115.187 254.038 115.699C254.546 116.212 255.166 116.618 255.857 116.892C256.549 117.166 257.296 117.301 258.048 117.287C259.648 117.262 261.181 116.697 262.359 115.699C263.537 114.702 264.277 113.341 264.439 111.874C264.524 111.181 264.446 110.48 264.211 109.817C263.977 109.154 263.591 108.545 263.079 108.031C262.568 107.517 261.943 107.11 261.247 106.837C260.55 106.564 259.799 106.432 259.042 106.449Z" fill="#BB6BD9"/>
<path d="M254.352 107.004L255.633 108.294C256.41 107.629 257.428 107.254 258.489 107.242L258.657 105.41C257.056 105.426 255.52 105.995 254.352 107.004Z" fill="#BB6BD9"/>
<path opacity="0.3" d="M254.352 107.004L255.633 108.294C256.41 107.629 257.428 107.254 258.489 107.242L258.657 105.41C257.056 105.426 255.52 105.995 254.352 107.004Z" fill="black"/>
<path d="M222.727 128.235C222.559 128.238 222.393 128.208 222.239 128.147C222.085 128.086 221.947 127.995 221.833 127.881C221.72 127.767 221.635 127.632 221.582 127.485C221.53 127.338 221.512 127.183 221.53 127.029C221.566 126.706 221.727 126.405 221.984 126.183C222.242 125.961 222.578 125.833 222.93 125.822C223.098 125.82 223.264 125.85 223.418 125.911C223.573 125.972 223.711 126.063 223.824 126.177C223.937 126.291 224.023 126.426 224.075 126.573C224.127 126.72 224.145 126.875 224.127 127.029C224.09 127.351 223.929 127.651 223.671 127.873C223.414 128.094 223.079 128.223 222.727 128.235Z" fill="white"/>
<path d="M236.151 127.642H226.351C226.266 127.644 226.181 127.629 226.102 127.599C226.023 127.568 225.952 127.522 225.894 127.464C225.837 127.406 225.793 127.337 225.767 127.262C225.741 127.187 225.732 127.107 225.742 127.029C225.742 126.858 225.816 126.694 225.947 126.573C226.079 126.452 226.257 126.384 226.442 126.384H236.242C236.331 126.38 236.42 126.396 236.502 126.428C236.584 126.461 236.656 126.51 236.715 126.572C236.773 126.634 236.816 126.707 236.84 126.786C236.863 126.865 236.867 126.948 236.851 127.029C236.842 127.194 236.765 127.35 236.634 127.464C236.504 127.578 236.331 127.642 236.151 127.642Z" fill="white"/>
<path d="M233.459 130.061H226.137C226.048 130.063 225.96 130.047 225.879 130.014C225.798 129.981 225.726 129.932 225.667 129.87C225.609 129.809 225.566 129.736 225.542 129.658C225.518 129.579 225.513 129.496 225.528 129.416C225.538 129.248 225.615 129.089 225.744 128.97C225.873 128.851 226.045 128.78 226.228 128.771H233.557C233.645 128.769 233.733 128.785 233.814 128.818C233.895 128.851 233.968 128.9 234.026 128.961C234.084 129.023 234.127 129.095 234.151 129.174C234.175 129.253 234.18 129.335 234.166 129.416C234.154 129.584 234.075 129.743 233.945 129.862C233.815 129.981 233.642 130.052 233.459 130.061Z" fill="white"/>
<path d="M251.105 128.235C250.937 128.239 250.77 128.209 250.615 128.149C250.46 128.088 250.321 127.998 250.207 127.883C250.093 127.769 250.007 127.634 249.954 127.486C249.901 127.339 249.883 127.183 249.901 127.029C249.937 126.706 250.098 126.405 250.356 126.183C250.613 125.961 250.949 125.833 251.301 125.822C251.469 125.82 251.635 125.85 251.79 125.911C251.944 125.972 252.082 126.063 252.195 126.177C252.308 126.291 252.394 126.426 252.446 126.573C252.498 126.72 252.516 126.875 252.498 127.029C252.462 127.35 252.301 127.649 252.045 127.871C251.789 128.092 251.456 128.222 251.105 128.235Z" fill="white"/>
<path d="M264.529 127.642H254.729C254.644 127.643 254.56 127.628 254.481 127.597C254.403 127.566 254.333 127.52 254.275 127.462C254.218 127.404 254.174 127.335 254.147 127.261C254.121 127.186 254.112 127.107 254.121 127.029C254.131 126.861 254.208 126.702 254.337 126.583C254.466 126.464 254.638 126.393 254.821 126.384H264.621C264.709 126.38 264.798 126.396 264.88 126.428C264.962 126.461 265.034 126.51 265.093 126.572C265.151 126.634 265.194 126.707 265.218 126.786C265.241 126.865 265.245 126.948 265.229 127.029C265.221 127.194 265.143 127.35 265.012 127.464C264.882 127.578 264.709 127.642 264.529 127.642Z" fill="white"/>
<path d="M261.836 130.061H254.514C254.425 130.063 254.337 130.047 254.256 130.014C254.175 129.981 254.102 129.932 254.044 129.87C253.986 129.809 253.943 129.736 253.919 129.658C253.895 129.579 253.89 129.496 253.905 129.416C253.915 129.248 253.992 129.089 254.121 128.97C254.25 128.851 254.422 128.78 254.605 128.771H261.934C262.022 128.769 262.11 128.785 262.191 128.818C262.272 128.851 262.345 128.9 262.403 128.961C262.461 129.023 262.504 129.095 262.528 129.174C262.552 129.253 262.557 129.335 262.543 129.416C262.531 129.584 262.452 129.743 262.322 129.862C262.192 129.981 262.019 130.052 261.836 130.061Z" fill="white"/>
<path d="M202.588 147.951H127.807C127.235 147.96 126.668 147.858 126.144 147.649C125.619 147.441 125.148 147.133 124.762 146.744C124.377 146.355 124.086 145.895 123.908 145.395C123.731 144.894 123.671 144.365 123.733 143.841L127.891 100.055C128.014 98.9413 128.575 97.9075 129.469 97.1491C130.363 96.3907 131.527 95.9603 132.742 95.9393H207.53C208.101 95.9306 208.668 96.0341 209.192 96.243C209.717 96.4519 210.187 96.7613 210.572 97.1507C210.956 97.54 211.247 98.0005 211.424 98.5013C211.6 99.0021 211.659 99.5318 211.597 100.055L207.446 143.867C207.314 144.976 206.748 146.003 205.854 146.755C204.96 147.507 203.798 147.932 202.588 147.951Z" fill="#BB6BD9"/>
<path opacity="0.7" d="M202.588 147.951H127.807C127.235 147.96 126.668 147.858 126.144 147.649C125.619 147.441 125.148 147.133 124.762 146.744C124.377 146.355 124.086 145.895 123.908 145.395C123.731 144.894 123.671 144.365 123.733 143.841L127.891 100.055C128.014 98.9413 128.575 97.9075 129.469 97.1491C130.363 96.3907 131.527 95.9603 132.742 95.9393H207.53C208.101 95.9306 208.668 96.0341 209.192 96.243C209.717 96.4519 210.187 96.7613 210.572 97.1507C210.956 97.54 211.247 98.0005 211.424 98.5013C211.6 99.0021 211.659 99.5318 211.597 100.055L207.446 143.867C207.314 144.976 206.748 146.003 205.854 146.755C204.96 147.507 203.798 147.932 202.588 147.951Z" fill="white"/>
<path d="M130.928 134.861H129.031L131.572 108.1H133.469L130.928 134.861Z" fill="#BB6BD9"/>
<path d="M133.625 134.861H131.721L133.59 115.177H135.494L133.625 134.861Z" fill="#263238"/>
<path d="M137.895 134.861H135.998L137.216 121.997H139.113L137.895 134.861Z" fill="#BB6BD9"/>
<path d="M140.581 134.861H138.684L140.14 119.519H142.037L140.581 134.861Z" fill="#263238"/>
<path d="M144.859 134.861H142.955L145.125 111.997H147.029L144.859 134.861Z" fill="#BB6BD9"/>
<path d="M147.545 134.861H145.641L147.517 115.177H149.414L147.545 134.861Z" fill="#263238"/>
<path d="M151.817 134.861H149.92L151.789 115.177H153.686L151.817 134.861Z" fill="#BB6BD9"/>
<path d="M154.504 134.861H152.607L154.945 110.216H156.842L154.504 134.861Z" fill="#263238"/>
<path d="M158.781 134.861H156.877L158.151 121.481H160.048L158.781 134.861Z" fill="#BB6BD9"/>
<path d="M161.469 134.861H159.572L161.441 115.177H163.338L161.469 134.861Z" fill="#263238"/>
<path d="M165.741 134.861H163.844L166.014 111.997H167.911L165.741 134.861Z" fill="#BB6BD9"/>
<path d="M168.435 134.861H166.531L169.163 107.12H171.067L168.435 134.861Z" fill="#263238"/>
<path d="M172.706 134.861H170.809L171.495 127.577H173.399L172.706 134.861Z" fill="#BB6BD9"/>
<path d="M175.393 134.861H173.496L174.777 121.377H176.674L175.393 134.861Z" fill="#263238"/>
<path d="M179.663 134.861H177.766L178.991 121.997H180.888L179.663 134.861Z" fill="#BB6BD9"/>
<path d="M182.357 134.861H180.453L182.854 109.597H184.751L182.357 134.861Z" fill="#263238"/>
<path d="M186.627 134.861H184.73L186.305 118.281H188.202L186.627 134.861Z" fill="#BB6BD9"/>
<path d="M189.317 134.861H187.42L190.465 102.778H192.362L189.317 134.861Z" fill="#263238"/>
<path d="M193.592 134.861H191.688L193.732 113.319H195.636L193.592 134.861Z" fill="#BB6BD9"/>
<path d="M196.28 134.861H194.383L196.252 115.177H198.149L196.28 134.861Z" fill="#263238"/>
<path d="M200.551 134.861H198.654L201.23 107.739H203.127L200.551 134.861Z" fill="#BB6BD9"/>
<path d="M203.239 134.861H201.342L202.861 118.9H204.758L203.239 134.861Z" fill="#263238"/>
<path d="M130.2 142.164C129.961 142.169 129.724 142.127 129.504 142.04C129.284 141.954 129.086 141.825 128.924 141.663C128.763 141.5 128.64 141.308 128.566 141.098C128.491 140.889 128.466 140.667 128.492 140.448C128.548 139.983 128.784 139.553 129.157 139.236C129.53 138.919 130.015 138.738 130.522 138.725C130.762 138.72 131 138.762 131.221 138.849C131.442 138.936 131.639 139.065 131.801 139.229C131.963 139.392 132.085 139.585 132.159 139.795C132.233 140.006 132.257 140.228 132.23 140.448C132.173 140.911 131.936 141.34 131.563 141.655C131.19 141.971 130.706 142.151 130.2 142.164Z" fill="#263238"/>
<path d="M149.304 141.319H135.381C135.259 141.321 135.139 141.3 135.027 141.256C134.915 141.212 134.815 141.147 134.733 141.064C134.651 140.982 134.589 140.884 134.551 140.778C134.513 140.672 134.5 140.559 134.513 140.448C134.54 140.21 134.66 139.99 134.851 139.829C135.042 139.667 135.29 139.575 135.549 139.57H149.472C149.593 139.569 149.714 139.591 149.826 139.636C149.938 139.68 150.038 139.746 150.12 139.829C150.202 139.912 150.264 140.01 150.302 140.117C150.34 140.223 150.353 140.336 150.34 140.448C150.312 140.685 150.192 140.904 150.001 141.064C149.81 141.225 149.562 141.315 149.304 141.319Z" fill="#263238"/>
<path d="M145.481 144.764H135.051C134.927 144.766 134.805 144.743 134.692 144.697C134.579 144.652 134.478 144.584 134.396 144.498C134.314 144.413 134.253 144.313 134.218 144.204C134.182 144.095 134.173 143.98 134.19 143.867C134.214 143.63 134.332 143.409 134.522 143.247C134.712 143.085 134.96 142.993 135.219 142.99H145.642C145.764 142.987 145.885 143.009 145.998 143.053C146.11 143.097 146.21 143.163 146.293 143.246C146.375 143.329 146.437 143.428 146.474 143.535C146.512 143.642 146.524 143.755 146.51 143.867C146.489 144.107 146.373 144.332 146.183 144.498C145.992 144.663 145.743 144.758 145.481 144.764Z" fill="#263238"/>
<path opacity="0.3" d="M149.304 141.319H135.381C135.259 141.321 135.139 141.3 135.027 141.256C134.915 141.212 134.815 141.147 134.733 141.064C134.651 140.982 134.589 140.884 134.551 140.778C134.513 140.672 134.5 140.559 134.513 140.448C134.54 140.21 134.66 139.99 134.851 139.829C135.042 139.667 135.29 139.575 135.549 139.57H149.472C149.593 139.569 149.714 139.591 149.826 139.636C149.938 139.68 150.038 139.746 150.12 139.829C150.202 139.912 150.264 140.01 150.302 140.117C150.34 140.223 150.353 140.336 150.34 140.448C150.312 140.685 150.192 140.904 150.001 141.064C149.81 141.225 149.562 141.315 149.304 141.319Z" fill="white"/>
<path opacity="0.3" d="M145.481 144.764H135.051C134.927 144.766 134.805 144.743 134.692 144.697C134.579 144.652 134.478 144.584 134.396 144.498C134.314 144.413 134.253 144.313 134.218 144.204C134.182 144.095 134.173 143.98 134.19 143.867C134.214 143.63 134.332 143.409 134.522 143.247C134.712 143.085 134.96 142.993 135.219 142.99H145.642C145.764 142.987 145.885 143.009 145.998 143.053C146.11 143.097 146.21 143.163 146.293 143.246C146.375 143.329 146.437 143.428 146.474 143.535C146.512 143.642 146.524 143.755 146.51 143.867C146.489 144.107 146.373 144.332 146.183 144.498C145.992 144.663 145.743 144.758 145.481 144.764Z" fill="white"/>
<path d="M157.737 142.164C157.498 142.168 157.261 142.125 157.041 142.038C156.822 141.951 156.625 141.823 156.463 141.66C156.302 141.498 156.18 141.306 156.105 141.097C156.03 140.888 156.004 140.667 156.029 140.448C156.084 139.983 156.32 139.553 156.694 139.236C157.067 138.919 157.552 138.738 158.059 138.725C158.298 138.72 158.537 138.762 158.757 138.849C158.978 138.936 159.176 139.065 159.338 139.229C159.499 139.392 159.621 139.585 159.695 139.795C159.769 140.006 159.794 140.228 159.767 140.448C159.709 140.911 159.473 141.34 159.1 141.655C158.727 141.971 158.243 142.151 157.737 142.164Z" fill="#BB6BD9"/>
<path opacity="0.3" d="M157.737 142.164C157.498 142.168 157.261 142.125 157.041 142.038C156.822 141.951 156.625 141.823 156.463 141.66C156.302 141.498 156.18 141.306 156.105 141.097C156.03 140.888 156.004 140.667 156.029 140.448C156.084 139.983 156.32 139.553 156.694 139.236C157.067 138.919 157.552 138.738 158.059 138.725C158.298 138.72 158.537 138.762 158.757 138.849C158.978 138.936 159.176 139.065 159.338 139.229C159.499 139.392 159.621 139.585 159.695 139.795C159.769 140.006 159.794 140.228 159.767 140.448C159.709 140.911 159.473 141.34 159.1 141.655C158.727 141.971 158.243 142.151 157.737 142.164Z" fill="black"/>
<path d="M176.835 141.319H162.912C162.791 141.321 162.67 141.3 162.558 141.256C162.447 141.212 162.346 141.147 162.264 141.064C162.182 140.982 162.12 140.884 162.082 140.778C162.044 140.672 162.031 140.559 162.044 140.448C162.071 140.21 162.191 139.99 162.382 139.829C162.573 139.667 162.821 139.575 163.08 139.57H177.003C177.125 139.569 177.245 139.591 177.357 139.636C177.469 139.68 177.569 139.746 177.651 139.829C177.733 139.912 177.795 140.01 177.833 140.117C177.871 140.223 177.884 140.336 177.871 140.448C177.844 140.685 177.723 140.904 177.532 141.064C177.341 141.225 177.093 141.315 176.835 141.319Z" fill="#263238"/>
<path d="M173.012 144.764H162.589C162.463 144.77 162.337 144.75 162.221 144.706C162.104 144.662 162 144.594 161.915 144.509C161.83 144.423 161.767 144.321 161.729 144.21C161.692 144.099 161.682 143.982 161.7 143.867C161.724 143.63 161.842 143.409 162.032 143.247C162.222 143.085 162.47 142.993 162.729 142.99H173.152C173.274 142.987 173.395 143.009 173.507 143.053C173.62 143.097 173.72 143.163 173.803 143.246C173.885 143.329 173.947 143.428 173.984 143.535C174.022 143.642 174.034 143.755 174.02 143.867C174.001 144.105 173.888 144.328 173.702 144.493C173.516 144.658 173.27 144.755 173.012 144.764Z" fill="#263238"/>
<path opacity="0.3" d="M176.835 141.319H162.912C162.791 141.321 162.67 141.3 162.558 141.256C162.447 141.212 162.346 141.147 162.264 141.064C162.182 140.982 162.12 140.884 162.082 140.778C162.044 140.672 162.031 140.559 162.044 140.448C162.071 140.21 162.191 139.99 162.382 139.829C162.573 139.667 162.821 139.575 163.08 139.57H177.003C177.125 139.569 177.245 139.591 177.357 139.636C177.469 139.68 177.569 139.746 177.651 139.829C177.733 139.912 177.795 140.01 177.833 140.117C177.871 140.223 177.884 140.336 177.871 140.448C177.844 140.685 177.723 140.904 177.532 141.064C177.341 141.225 177.093 141.315 176.835 141.319Z" fill="white"/>
<path opacity="0.3" d="M173.012 144.764H162.589C162.463 144.77 162.337 144.75 162.221 144.706C162.104 144.662 162 144.594 161.915 144.509C161.83 144.423 161.767 144.321 161.729 144.21C161.692 144.099 161.682 143.982 161.7 143.867C161.724 143.63 161.842 143.409 162.032 143.247C162.222 143.085 162.47 142.993 162.729 142.99H173.152C173.274 142.987 173.395 143.009 173.507 143.053C173.62 143.097 173.72 143.163 173.803 143.246C173.885 143.329 173.947 143.428 173.984 143.535C174.022 143.642 174.034 143.755 174.02 143.867C174.001 144.105 173.888 144.328 173.702 144.493C173.516 144.658 173.27 144.755 173.012 144.764Z" fill="white"/>
<path d="M185.271 142.164C185.033 142.168 184.796 142.125 184.577 142.038C184.358 141.951 184.161 141.822 184 141.66C183.839 141.498 183.718 141.306 183.644 141.097C183.57 140.888 183.545 140.666 183.57 140.448C183.626 139.983 183.862 139.553 184.235 139.236C184.609 138.919 185.093 138.738 185.6 138.725C185.84 138.721 186.077 138.764 186.297 138.851C186.517 138.939 186.714 139.068 186.875 139.231C187.036 139.394 187.157 139.587 187.231 139.797C187.304 140.007 187.328 140.229 187.301 140.448C187.244 140.911 187.007 141.34 186.634 141.655C186.261 141.971 185.777 142.151 185.271 142.164Z" fill="#BB6BD9"/>
<path d="M204.401 141.319H190.443C190.322 141.321 190.201 141.3 190.09 141.256C189.979 141.212 189.879 141.147 189.797 141.064C189.715 140.981 189.654 140.884 189.617 140.777C189.58 140.671 189.568 140.559 189.582 140.448C189.606 140.21 189.724 139.99 189.914 139.828C190.104 139.666 190.352 139.574 190.611 139.57H204.534C204.656 139.569 204.776 139.591 204.888 139.636C205 139.68 205.1 139.746 205.182 139.829C205.264 139.912 205.326 140.01 205.364 140.117C205.402 140.223 205.415 140.336 205.402 140.448C205.375 140.679 205.26 140.894 205.076 141.054C204.893 141.214 204.653 141.308 204.401 141.319Z" fill="#263238"/>
<path d="M200.545 144.764H190.122C190 144.766 189.878 144.745 189.766 144.701C189.654 144.656 189.553 144.59 189.471 144.507C189.389 144.424 189.327 144.326 189.289 144.219C189.252 144.111 189.24 143.998 189.254 143.886C189.278 143.649 189.396 143.428 189.586 143.266C189.776 143.104 190.024 143.013 190.283 143.009H200.713C200.835 143.004 200.956 143.023 201.069 143.065C201.183 143.107 201.285 143.17 201.369 143.252C201.453 143.333 201.518 143.43 201.558 143.536C201.598 143.642 201.613 143.755 201.602 143.867C201.582 144.112 201.462 144.342 201.266 144.508C201.069 144.675 200.812 144.766 200.545 144.764Z" fill="#263238"/>
<path opacity="0.3" d="M204.401 141.319H190.443C190.322 141.321 190.201 141.3 190.09 141.256C189.979 141.212 189.879 141.147 189.797 141.064C189.715 140.981 189.654 140.884 189.617 140.777C189.58 140.671 189.568 140.559 189.582 140.448C189.606 140.21 189.724 139.99 189.914 139.828C190.104 139.666 190.352 139.574 190.611 139.57H204.534C204.656 139.569 204.776 139.591 204.888 139.636C205 139.68 205.1 139.746 205.182 139.829C205.264 139.912 205.326 140.01 205.364 140.117C205.402 140.223 205.415 140.336 205.402 140.448C205.375 140.679 205.26 140.894 205.076 141.054C204.893 141.214 204.653 141.308 204.401 141.319Z" fill="white"/>
<path opacity="0.3" d="M200.545 144.764H190.122C190 144.766 189.878 144.745 189.766 144.701C189.654 144.656 189.553 144.59 189.471 144.507C189.389 144.424 189.327 144.326 189.289 144.219C189.252 144.111 189.24 143.998 189.254 143.886C189.278 143.649 189.396 143.428 189.586 143.266C189.776 143.104 190.024 143.013 190.283 143.009H200.713C200.835 143.004 200.956 143.023 201.069 143.065C201.183 143.107 201.285 143.17 201.369 143.252C201.453 143.333 201.518 143.43 201.558 143.536C201.598 143.642 201.613 143.755 201.602 143.867C201.582 144.112 201.462 144.342 201.266 144.508C201.069 144.675 200.812 144.766 200.545 144.764Z" fill="white"/>
<path d="M278.431 91.8234H234.947C234.376 91.8329 233.809 91.7302 233.284 91.5221C232.759 91.314 232.288 91.0054 231.903 90.6166C231.518 90.2279 231.227 89.7679 231.049 89.2674C230.871 88.7669 230.811 88.2373 230.873 87.7138L233.183 63.3726C233.306 62.2592 233.868 61.2261 234.762 60.4688C235.656 59.7115 236.82 59.2825 238.034 59.263H281.518C282.089 59.2535 282.656 59.3562 283.181 59.5643C283.706 59.7724 284.177 60.081 284.562 60.4698C284.948 60.8585 285.239 61.3185 285.416 61.819C285.594 62.3195 285.654 62.8491 285.592 63.3726L283.282 87.7396C283.153 88.8483 282.588 89.8752 281.695 90.6272C280.801 91.3793 279.641 91.8046 278.431 91.8234Z" fill="#F2C94C"/>
<path d="M253.739 73.9787C253.515 75.9858 252.503 77.8483 250.892 79.2149C249.282 80.5816 247.184 81.358 244.996 81.3979C243.965 81.4145 242.942 81.2287 241.996 80.8527C241.049 80.4768 240.2 79.9193 239.505 79.2174C238.811 78.5155 238.286 77.6853 237.967 76.782C237.647 75.8787 237.54 74.9231 237.653 73.9787C237.873 71.9705 238.885 70.1065 240.496 68.7393C242.107 67.3722 244.206 66.5966 246.396 66.5596C247.426 66.5429 248.449 66.7287 249.396 67.1047C250.342 67.4807 251.191 68.0382 251.886 68.7401C252.581 69.442 253.105 70.2722 253.425 71.1754C253.744 72.0787 253.851 73.0343 253.739 73.9787Z" fill="#F2C94C"/>
<path opacity="0.7" d="M253.739 73.9787C253.515 75.9858 252.503 77.8483 250.892 79.2149C249.282 80.5816 247.184 81.358 244.996 81.3979C243.965 81.4145 242.942 81.2287 241.996 80.8527C241.049 80.4768 240.2 79.9193 239.505 79.2174C238.811 78.5155 238.286 77.6853 237.967 76.782C237.647 75.8787 237.54 74.9231 237.653 73.9787C237.873 71.9705 238.885 70.1065 240.496 68.7393C242.107 67.3722 244.206 66.5966 246.396 66.5596C247.426 66.5429 248.449 66.7287 249.396 67.1047C250.342 67.4807 251.191 68.0382 251.886 68.7401C252.581 69.442 253.105 70.2722 253.425 71.1754C253.744 72.0787 253.851 73.0343 253.739 73.9787Z" fill="white"/>
<path d="M248.127 72.6626C247.973 74.2884 247.301 75.6045 245.537 75.6045C243.773 75.6045 243.346 74.3142 243.5 72.6626C243.654 71.0111 244.333 69.7208 246.097 69.7208C247.861 69.7208 248.281 71.0369 248.127 72.6626Z" fill="#263238"/>
<path d="M245.447 76.5206C241.758 76.5206 239.756 77.2754 238.811 78.385C239.482 79.3249 240.4 80.0936 241.479 80.6202C242.558 81.1468 243.764 81.4142 244.985 81.3979C246.28 81.3821 247.556 81.104 248.722 80.5834C249.888 80.0628 250.916 79.3123 251.733 78.385C250.998 77.2754 249.143 76.5206 245.447 76.5206Z" fill="#263238"/>
<path d="M272.704 65.6951H259.635C259.494 65.6978 259.353 65.6725 259.223 65.621C259.093 65.5694 258.976 65.4928 258.88 65.3963C258.785 65.2997 258.713 65.1855 258.669 65.0612C258.626 64.937 258.611 64.8055 258.627 64.6758C258.658 64.3996 258.798 64.1434 259.02 63.9555C259.241 63.7677 259.53 63.6613 259.831 63.6564H272.9C273.042 63.6538 273.183 63.679 273.313 63.7306C273.443 63.7821 273.56 63.8587 273.655 63.9553C273.751 64.0518 273.823 64.166 273.867 64.2903C273.91 64.4146 273.924 64.546 273.908 64.6758C273.879 64.9525 273.74 65.2095 273.518 65.3976C273.296 65.5857 273.006 65.6916 272.704 65.6951Z" fill="white"/>
<path d="M276.192 73.2239H258.923C258.781 73.2266 258.64 73.2013 258.51 73.1498C258.38 73.0982 258.263 73.0216 258.168 72.9251C258.072 72.8285 258 72.7143 257.956 72.59C257.913 72.4658 257.899 72.3343 257.915 72.2046C257.945 71.9277 258.084 71.6708 258.306 71.4819C258.528 71.293 258.817 71.1852 259.119 71.1788H276.388C276.53 71.1771 276.67 71.2032 276.801 71.2555C276.931 71.3077 277.047 71.3849 277.143 71.482C277.238 71.579 277.31 71.6936 277.354 71.8182C277.397 71.9428 277.411 72.0745 277.396 72.2046C277.366 72.4813 277.227 72.7383 277.005 72.9264C276.783 73.1145 276.493 73.2204 276.192 73.2239Z" fill="white"/>
<path d="M279.334 76.9851H258.565C258.423 76.9878 258.283 76.9625 258.153 76.9109C258.022 76.8594 257.906 76.7828 257.81 76.6863C257.715 76.5897 257.643 76.4755 257.599 76.3512C257.555 76.227 257.541 76.0955 257.557 75.9657C257.588 75.6896 257.727 75.4333 257.949 75.2455C258.171 75.0577 258.46 74.9513 258.761 74.9464H279.53C279.672 74.9437 279.812 74.969 279.943 75.0206C280.073 75.0721 280.19 75.1487 280.285 75.2452C280.381 75.3418 280.453 75.456 280.496 75.5803C280.54 75.7045 280.554 75.836 280.538 75.9657C280.509 76.2425 280.37 76.4995 280.148 76.6876C279.925 76.8757 279.636 76.9816 279.334 76.9851Z" fill="white"/>
<path d="M277.579 80.7527H258.21C258.068 80.7544 257.927 80.7283 257.797 80.676C257.666 80.6238 257.55 80.5465 257.454 80.4495C257.359 80.3525 257.287 80.2379 257.244 80.1133C257.2 79.9887 257.186 79.857 257.202 79.7269C257.234 79.4513 257.374 79.1958 257.595 79.0083C257.817 78.8207 258.105 78.7138 258.406 78.7076H277.775C277.916 78.7049 278.057 78.7302 278.187 78.7817C278.317 78.8333 278.434 78.9099 278.53 79.0064C278.625 79.1029 278.697 79.2172 278.741 79.3414C278.784 79.4657 278.799 79.5971 278.783 79.7269C278.753 80.0043 278.615 80.2621 278.393 80.4512C278.171 80.6404 277.881 80.7477 277.579 80.7527Z" fill="white"/>
<path d="M275.1 84.5139H257.852C257.711 84.5166 257.57 84.4913 257.44 84.4398C257.309 84.3883 257.193 84.3117 257.097 84.2151C257.002 84.1186 256.93 84.0044 256.886 83.8801C256.843 83.7558 256.828 83.6244 256.844 83.4946C256.873 83.2173 257.012 82.9595 257.234 82.7703C257.456 82.5812 257.746 82.4739 258.048 82.4688H275.317C275.459 82.4671 275.6 82.4932 275.73 82.5455C275.86 82.5978 275.977 82.675 276.072 82.772C276.168 82.869 276.24 82.9836 276.283 83.1082C276.327 83.2328 276.341 83.3645 276.325 83.4946C276.294 83.7741 276.152 84.033 275.925 84.2213C275.699 84.4095 275.405 84.5138 275.1 84.5139Z" fill="white"/>
<path d="M276.864 88.2751H257.495C257.353 88.2777 257.212 88.2524 257.082 88.2009C256.952 88.1494 256.835 88.0728 256.74 87.9762C256.644 87.8797 256.572 87.7655 256.529 87.6412C256.485 87.5169 256.471 87.3855 256.487 87.2557C256.516 86.979 256.655 86.722 256.877 86.5339C257.099 86.3458 257.389 86.2399 257.691 86.2364H277.06C277.201 86.2337 277.342 86.259 277.472 86.3105C277.603 86.3621 277.719 86.4387 277.815 86.5352C277.91 86.6318 277.982 86.746 278.026 86.8703C278.07 86.9945 278.084 87.1259 278.068 87.2557C278.036 87.5314 277.896 87.7868 277.674 87.9744C277.453 88.1619 277.165 88.2688 276.864 88.2751Z" fill="white"/>
<path d="M221.902 91.8233H147.107C146.536 91.8328 145.969 91.7301 145.444 91.522C144.919 91.314 144.449 91.0053 144.063 90.6165C143.678 90.2278 143.387 89.7679 143.209 89.2674C143.032 88.7669 142.972 88.2373 143.033 87.7138L147.191 43.9214C147.314 42.8081 147.876 41.775 148.77 41.0177C149.664 40.2603 150.828 39.8313 152.042 39.8118H226.802C227.373 39.8022 227.94 39.9049 228.465 40.1131C228.989 40.3212 229.459 40.63 229.844 41.0189C230.229 41.4077 230.52 41.8678 230.696 42.3683C230.873 42.8688 230.932 43.3983 230.869 43.9214L226.746 87.7396C226.615 88.8466 226.052 89.8719 225.16 90.6235C224.268 91.3751 223.11 91.8017 221.902 91.8233Z" fill="#BB6BD9"/>
<path opacity="0.7" d="M221.902 91.8233H147.107C146.536 91.8328 145.969 91.7301 145.444 91.522C144.919 91.314 144.449 91.0053 144.063 90.6165C143.678 90.2278 143.387 89.7679 143.209 89.2674C143.032 88.7669 142.972 88.2373 143.033 87.7138L147.191 43.9214C147.314 42.8081 147.876 41.775 148.77 41.0177C149.664 40.2603 150.828 39.8313 152.042 39.8118H226.802C227.373 39.8022 227.94 39.9049 228.465 40.1131C228.989 40.3212 229.459 40.63 229.844 41.0189C230.229 41.4077 230.52 41.8678 230.696 42.3683C230.873 42.8688 230.932 43.3983 230.869 43.9214L226.746 87.7396C226.615 88.8466 226.052 89.8719 225.16 90.6235C224.268 91.3751 223.11 91.8017 221.902 91.8233Z" fill="white"/>
<path d="M229.33 60.4629C227.881 55.6437 225.592 50.818 222.26 50.818C215.96 50.818 212.901 59.9016 209.66 69.5272C206.804 77.9786 203.85 86.7138 199.244 86.7138C193.399 86.7138 191.796 75.9077 190.249 65.4563C188.513 53.747 186.875 42.6827 179.343 42.6827C171.811 42.6827 168.08 53.747 164.118 65.4563C160.583 75.9077 156.936 86.7138 151.084 86.7138C148.354 86.7138 145.813 79.2688 144.476 72.6497L143.867 79.1011C145.323 83.8816 147.598 88.6363 150.902 88.6363C158.434 88.6363 162.172 77.5721 166.127 65.8628C169.627 55.4179 173.316 44.6053 179.161 44.6053C185.006 44.6053 186.609 55.4179 188.156 65.895C189.892 77.6044 191.53 88.6686 199.062 88.6686C205.362 88.6686 208.421 79.585 211.662 69.9594C214.518 61.508 217.472 52.7728 222.085 52.7728C224.836 52.7728 227.398 60.321 228.721 66.966L229.33 60.4629Z" fill="#BB6BD9"/>
<path d="M181.622 45.247C182.884 44.1333 183.01 42.3667 181.903 41.3012C180.796 40.2356 178.876 40.2746 177.614 41.3883C176.351 42.502 176.225 44.2686 177.332 45.3341C178.439 46.3997 180.359 46.3607 181.622 45.247Z" fill="#263238"/>
<path d="M180.604 44.2601C181.229 43.708 181.29 42.8308 180.739 42.3007C180.188 41.7706 179.234 41.7883 178.609 42.3403C177.984 42.8924 177.923 43.7696 178.474 44.2997C179.025 44.8298 179.978 44.8121 180.604 44.2601Z" fill="#BB6BD9"/>
<path d="M185.978 31.5153H175.478C174.929 31.525 174.403 31.7192 173.998 32.0613C173.593 32.4035 173.338 32.87 173.28 33.3733L173.112 35.141C173.084 35.3776 173.111 35.617 173.192 35.8432C173.272 36.0694 173.403 36.2773 173.578 36.453C173.752 36.6287 173.964 36.7683 174.202 36.8625C174.439 36.9566 174.695 37.0032 174.953 36.999H178.453L179.496 38.4506C179.565 38.536 179.655 38.6054 179.758 38.6532C179.862 38.701 179.976 38.7259 180.091 38.7259C180.207 38.7259 180.321 38.701 180.424 38.6532C180.527 38.6054 180.617 38.536 180.686 38.4506L182.002 36.999H185.502C186.05 36.9891 186.576 36.7947 186.98 36.4525C187.383 36.1102 187.637 35.6438 187.693 35.141L187.861 33.3733C187.89 33.1334 187.861 32.8906 187.779 32.6616C187.696 32.4326 187.561 32.2227 187.382 32.0463C187.203 31.8699 186.985 31.7312 186.743 31.6395C186.501 31.5479 186.24 31.5055 185.978 31.5153Z" fill="#BB6BD9"/>
<path d="M185.159 33.8507H175.618C175.551 33.8521 175.484 33.8401 175.422 33.8157C175.361 33.7912 175.305 33.7548 175.26 33.7089C175.215 33.663 175.181 33.6087 175.161 33.5497C175.14 33.4907 175.134 33.4283 175.142 33.3669C175.162 33.2413 175.228 33.126 175.331 33.0411C175.433 32.9562 175.564 32.9071 175.702 32.9023H185.236C185.303 32.902 185.369 32.9147 185.43 32.9395C185.491 32.9643 185.546 33.0007 185.591 33.0464C185.636 33.092 185.67 33.1459 185.691 33.2044C185.712 33.263 185.719 33.3249 185.712 33.3862C185.695 33.5118 185.63 33.6277 185.529 33.7129C185.427 33.7981 185.296 33.847 185.159 33.8507Z" fill="#263238"/>
<path d="M179.817 35.6055H175.456C175.389 35.6068 175.322 35.5948 175.26 35.5704C175.198 35.546 175.142 35.5097 175.096 35.4639C175.051 35.4182 175.016 35.364 174.995 35.305C174.974 35.246 174.966 35.1835 174.973 35.1217C174.987 34.9899 175.053 34.8675 175.159 34.7781C175.265 34.6888 175.404 34.6388 175.547 34.6378H179.901C179.968 34.6364 180.035 34.6484 180.097 34.6729C180.159 34.6973 180.214 34.7337 180.259 34.7796C180.304 34.8255 180.338 34.8798 180.358 34.9388C180.379 34.9978 180.385 35.0602 180.377 35.1217C180.362 35.2508 180.298 35.3706 180.195 35.4594C180.092 35.5482 179.958 35.6001 179.817 35.6055Z" fill="#263238"/>
<path d="M200.78 88.3724C202.042 87.2587 202.168 85.4921 201.061 84.4265C199.955 83.361 198.034 83.4 196.772 84.5137C195.51 85.6273 195.384 87.394 196.49 88.4595C197.597 89.5251 199.518 89.4861 200.78 88.3724Z" fill="#263238"/>
<path d="M200.278 86.4493C200.237 86.8242 200.049 87.1724 199.748 87.428C199.448 87.6835 199.056 87.8288 198.647 87.8364C198.452 87.8441 198.257 87.8127 198.077 87.7443C197.896 87.676 197.733 87.5723 197.6 87.4404C197.467 87.3086 197.367 87.1517 197.306 86.9806C197.245 86.8095 197.225 86.6282 197.247 86.4493C197.288 86.0743 197.477 85.7262 197.777 85.4706C198.078 85.2151 198.469 85.0698 198.878 85.0622C199.073 85.0545 199.268 85.0859 199.449 85.1543C199.63 85.2226 199.792 85.3263 199.925 85.4582C200.058 85.59 200.159 85.7469 200.22 85.918C200.281 86.0891 200.301 86.2704 200.278 86.4493Z" fill="#BB6BD9"/>
<path d="M205.144 74.6367H194.644C194.096 74.6466 193.57 74.841 193.167 75.1832C192.763 75.5255 192.509 75.9919 192.453 76.4947L192.285 78.2559C192.256 78.4931 192.282 78.7331 192.362 78.9601C192.442 79.1871 192.573 79.3958 192.747 79.5723C192.922 79.7487 193.135 79.8889 193.372 79.9834C193.61 80.078 193.867 80.1247 194.126 80.1204H197.591L198.634 81.572C198.704 81.6563 198.795 81.7246 198.899 81.7716C199.003 81.8186 199.117 81.8431 199.232 81.8431C199.348 81.8431 199.462 81.8186 199.566 81.7716C199.67 81.7246 199.76 81.6563 199.831 81.572L201.147 80.1204H204.612C205.162 80.1119 205.69 79.9173 206.096 79.5736C206.501 79.2298 206.755 78.761 206.81 78.2559L206.978 76.4947C207.006 76.2587 206.979 76.0199 206.899 75.7941C206.819 75.5684 206.688 75.3608 206.515 75.1852C206.341 75.0095 206.129 74.8698 205.893 74.7753C205.657 74.6807 205.401 74.6335 205.144 74.6367Z" fill="#263238"/>
<path d="M204.325 76.9721H194.784C194.717 76.9735 194.65 76.9615 194.588 76.9371C194.527 76.9126 194.471 76.8762 194.426 76.8303C194.381 76.7844 194.347 76.7301 194.327 76.6711C194.306 76.6121 194.3 76.5497 194.308 76.4883C194.322 76.3576 194.387 76.2361 194.492 76.1469C194.596 76.0577 194.733 76.007 194.875 76.0044H204.402C204.469 76.0041 204.535 76.0167 204.596 76.0415C204.657 76.0664 204.712 76.1028 204.757 76.1484C204.802 76.1941 204.836 76.2479 204.857 76.3065C204.878 76.365 204.885 76.427 204.878 76.4883C204.866 76.6173 204.803 76.7379 204.701 76.827C204.599 76.9162 204.466 76.9678 204.325 76.9721Z" fill="white"/>
<path d="M198.986 78.7076H194.604C194.537 78.7089 194.47 78.697 194.409 78.6725C194.347 78.648 194.292 78.6116 194.247 78.5657C194.201 78.5199 194.167 78.4656 194.147 78.4066C194.127 78.3475 194.12 78.2852 194.128 78.2237C194.144 78.0935 194.209 77.9728 194.314 77.8839C194.418 77.7949 194.553 77.7438 194.695 77.7398H199.063C199.131 77.7386 199.198 77.7506 199.26 77.775C199.322 77.7994 199.378 77.8357 199.423 77.8814C199.469 77.9272 199.503 77.9813 199.525 78.0404C199.546 78.0994 199.553 78.1619 199.546 78.2237C199.533 78.3533 199.468 78.4739 199.365 78.563C199.262 78.652 199.128 78.7034 198.986 78.7076Z" fill="white"/>
<path d="M225.234 51.6115C225.152 52.3676 224.771 53.0697 224.165 53.5846C223.559 54.0995 222.768 54.3914 221.944 54.405C221.556 54.4118 221.17 54.3421 220.814 54.2007C220.457 54.0593 220.137 53.8494 219.875 53.585C219.614 53.3207 219.416 53.0079 219.296 52.6675C219.176 52.3272 219.136 51.9672 219.179 51.6115C219.264 50.8571 219.645 50.1574 220.251 49.6441C220.857 49.1308 221.646 48.8393 222.469 48.8245C222.856 48.8178 223.241 48.8873 223.597 49.0283C223.953 49.1693 224.273 49.3786 224.535 49.6423C224.796 49.9059 224.994 50.2179 225.114 50.5575C225.235 50.897 225.276 51.2563 225.234 51.6115Z" fill="#263238"/>
<path d="M223.708 51.6115C223.667 51.9865 223.478 52.3346 223.178 52.5902C222.877 52.8457 222.486 52.991 222.077 52.9986C221.882 53.0063 221.687 52.9749 221.506 52.9066C221.325 52.8382 221.163 52.7345 221.03 52.6027C220.897 52.4708 220.796 52.3139 220.735 52.1428C220.674 51.9717 220.654 51.7904 220.677 51.6115C220.719 51.2377 220.909 50.8911 221.209 50.6369C221.509 50.3827 221.9 50.2383 222.308 50.2309C222.502 50.2233 222.697 50.2546 222.877 50.3226C223.057 50.3905 223.219 50.4936 223.352 50.6247C223.485 50.7559 223.586 50.9119 223.647 51.0823C223.709 51.2526 223.729 51.4331 223.708 51.6115Z" fill="#BB6BD9"/>
<path d="M228.572 39.8118H218.072C217.522 39.8202 216.995 40.0139 216.59 40.3563C216.185 40.6986 215.93 41.166 215.874 41.6698L215.706 43.4375C215.678 43.6741 215.705 43.9135 215.785 44.1397C215.866 44.3659 215.997 44.5738 216.171 44.7495C216.345 44.9253 216.558 45.0648 216.795 45.159C217.033 45.2531 217.289 45.2997 217.547 45.2955H221.047L222.09 46.7471C222.159 46.8325 222.249 46.9019 222.352 46.9497C222.455 46.9975 222.569 47.0224 222.685 47.0224C222.801 47.0224 222.915 46.9975 223.018 46.9497C223.121 46.9019 223.211 46.8325 223.28 46.7471L224.596 45.2955H228.061C228.61 45.2872 229.138 45.0935 229.543 44.7511C229.948 44.4087 230.203 43.9414 230.259 43.4375L230.427 41.6698C230.455 41.4321 230.428 41.1916 230.346 40.9645C230.265 40.7374 230.133 40.5288 229.957 40.3529C229.781 40.1769 229.567 40.0376 229.328 39.9443C229.089 39.851 228.831 39.8058 228.572 39.8118Z" fill="#BB6BD9"/>
<path d="M227.755 42.1472H218.214C218.147 42.1486 218.08 42.1366 218.018 42.1122C217.956 42.0877 217.901 42.0513 217.856 42.0054C217.811 41.9595 217.777 41.9052 217.756 41.8462C217.736 41.7872 217.73 41.7249 217.738 41.6634C217.751 41.5327 217.817 41.4112 217.921 41.322C218.026 41.2328 218.162 41.1821 218.305 41.1795H227.846C227.913 41.1792 227.979 41.1918 228.04 41.2167C228.101 41.2415 228.156 41.2779 228.201 41.3235C228.246 41.3692 228.28 41.423 228.301 41.4816C228.321 41.5401 228.329 41.6021 228.322 41.6634C228.31 41.7946 228.245 41.9169 228.14 42.0064C228.035 42.0959 227.898 42.1461 227.755 42.1472Z" fill="#263238"/>
<path d="M222.413 43.9021H218.045C217.978 43.9024 217.912 43.8897 217.851 43.8649C217.79 43.8401 217.735 43.8037 217.69 43.758C217.645 43.7124 217.611 43.6585 217.59 43.6C217.569 43.5414 217.562 43.4795 217.569 43.4182C217.583 43.2864 217.649 43.164 217.755 43.0747C217.861 42.9853 217.999 42.9353 218.143 42.9344H222.504C222.571 42.9331 222.638 42.9451 222.7 42.9695C222.762 42.9939 222.818 43.0302 222.864 43.0759C222.909 43.1217 222.944 43.1759 222.965 43.2349C222.987 43.2939 222.994 43.3564 222.987 43.4182C222.972 43.5495 222.905 43.671 222.799 43.7601C222.693 43.8492 222.556 43.8997 222.413 43.9021Z" fill="#263238"/>
<path d="M154.871 86.7589C154.787 87.5139 154.406 88.2144 153.8 88.7279C153.193 89.2415 152.404 89.5325 151.581 89.5459C151.194 89.5517 150.81 89.4815 150.454 89.3401C150.099 89.1987 149.78 88.9892 149.52 88.7257C149.259 88.4621 149.062 88.1505 148.942 87.8114C148.821 87.4723 148.781 87.1135 148.823 86.7589C148.905 86.0028 149.285 85.3007 149.891 84.7858C150.498 84.2709 151.288 83.979 152.113 83.9654C152.5 83.9596 152.885 84.0299 153.241 84.1717C153.596 84.3135 153.916 84.5235 154.176 84.7878C154.437 85.0521 154.634 85.3646 154.754 85.7044C154.874 86.0443 154.913 86.4038 154.871 86.7589Z" fill="#263238"/>
<path d="M153.352 86.759C153.309 87.1339 153.119 87.4813 152.817 87.7357C152.515 87.9901 152.123 88.1338 151.714 88.1396C151.52 88.1461 151.326 88.1141 151.147 88.0458C150.967 87.9774 150.805 87.8743 150.672 87.7434C150.54 87.6126 150.439 87.4569 150.377 87.2871C150.315 87.1173 150.294 86.9372 150.314 86.759C150.357 86.3835 150.547 86.0353 150.848 85.7798C151.15 85.5244 151.542 85.3793 151.952 85.3719C152.147 85.3653 152.341 85.3975 152.521 85.4662C152.701 85.5349 152.864 85.6386 152.996 85.7702C153.129 85.9018 153.23 86.0583 153.291 86.2289C153.352 86.3995 153.373 86.5803 153.352 86.759Z" fill="#BB6BD9"/>
<path d="M158.202 74.9528H147.702C147.153 74.9626 146.627 75.1568 146.222 75.4989C145.818 75.841 145.562 76.3075 145.504 76.8108L145.343 78.5785C145.314 78.8154 145.341 79.0551 145.421 79.2818C145.5 79.5085 145.632 79.7168 145.806 79.8928C145.981 80.0688 146.194 80.2083 146.432 80.3021C146.669 80.3959 146.926 80.4417 147.184 80.4366H150.684L151.727 81.8881C151.797 81.9736 151.886 82.0429 151.99 82.0907C152.093 82.1385 152.207 82.1634 152.322 82.1634C152.438 82.1634 152.552 82.1385 152.655 82.0907C152.759 82.0429 152.848 81.9736 152.917 81.8881L154.24 80.4366H157.74C158.29 80.4268 158.816 80.2326 159.221 79.8905C159.625 79.5484 159.881 79.0819 159.938 78.5785L160.099 76.8108C160.129 76.5696 160.102 76.3252 160.019 76.0947C159.936 75.8642 159.799 75.6532 159.619 75.4764C159.438 75.2995 159.218 75.161 158.973 75.0706C158.729 74.9802 158.466 74.94 158.202 74.9528Z" fill="#263238"/>
<path d="M157.391 77.2947H147.857C147.789 77.296 147.722 77.284 147.66 77.2596C147.598 77.2352 147.542 77.1989 147.497 77.1531C147.451 77.1074 147.417 77.0532 147.395 76.9942C147.374 76.9352 147.367 76.8727 147.374 76.8109C147.387 76.6791 147.454 76.5567 147.56 76.4673C147.666 76.378 147.804 76.328 147.948 76.327H157.503C157.57 76.3257 157.637 76.3377 157.699 76.3621C157.761 76.3865 157.817 76.4228 157.862 76.4686C157.908 76.5143 157.943 76.5685 157.964 76.6275C157.985 76.6865 157.993 76.749 157.986 76.8109C157.97 76.9454 157.9 77.0697 157.79 77.1592C157.68 77.2488 157.537 77.2971 157.391 77.2947Z" fill="white"/>
<path d="M152.055 79.0431H147.701C147.634 79.0434 147.568 79.0308 147.507 79.0059C147.446 78.9811 147.391 78.9447 147.346 78.899C147.301 78.8534 147.267 78.7996 147.246 78.741C147.226 78.6824 147.218 78.6205 147.225 78.5592C147.237 78.428 147.302 78.3057 147.407 78.2162C147.512 78.1267 147.649 78.0765 147.792 78.0754H152.16C152.227 78.074 152.294 78.0859 152.356 78.1104C152.418 78.1349 152.473 78.1713 152.518 78.2172C152.563 78.263 152.597 78.3173 152.617 78.3763C152.638 78.4354 152.644 78.4977 152.636 78.5592C152.622 78.6921 152.555 78.8154 152.447 78.9049C152.34 78.9944 152.2 79.0437 152.055 79.0431Z" fill="white"/>
<path d="M103.907 75.7851L101.891 79.0108L99.9096 82.3204C98.6076 84.5333 97.3616 86.759 96.2276 89.0041C95.6606 90.1267 95.1216 91.2428 94.6316 92.3718L94.5406 92.5718C94.5431 92.5889 94.5431 92.6062 94.5406 92.6234C94.5148 92.6504 94.4936 92.6808 94.4776 92.7137C94.4405 92.7708 94.41 92.8313 94.3866 92.8943C94.3348 93.1375 94.364 93.3894 94.4707 93.6169C94.8585 94.4969 95.4319 95.2973 96.1576 95.9717C97.0142 96.8198 97.9258 97.6191 98.8877 98.3652L97.2496 101.591C96.4783 101.395 95.7228 101.149 94.9886 100.855C94.2505 100.563 93.5349 100.225 92.8466 99.8425C91.2751 99.0043 89.9282 97.8512 88.9056 96.4684C88.2618 95.5888 87.8298 94.5923 87.6386 93.5459C87.558 92.9634 87.558 92.3737 87.6386 91.7911C87.6707 91.502 87.7245 91.2153 87.7996 90.9331L87.9116 90.5138L88.0026 90.2621C88.4506 88.9396 88.9196 87.6364 89.4656 86.3913C90.5215 83.8842 91.713 81.4274 93.0356 79.0302C93.6866 77.8367 94.3656 76.6561 95.0796 75.5013C95.7936 74.3464 96.4797 73.2045 97.3127 72.0239L103.907 75.7851Z" fill="#FFC3BD"/>
<path d="M97.1045 98.0167L100.786 97.1329L100.996 102.61C100.996 102.61 98.1195 103.004 96.3555 101.378L97.1045 98.0167Z" fill="#FFC3BD"/>
<path d="M105.997 96.2103L105.171 101.017L100.999 102.61L100.789 97.1329L105.997 96.2103Z" fill="#FFC3BD"/>
<path d="M121.214 49.9922C121.291 50.3664 121.578 50.6374 121.844 50.5793C122.11 50.5213 122.257 50.1858 122.173 49.8116C122.089 49.4374 121.809 49.1665 121.543 49.2245C121.277 49.2826 121.102 49.6181 121.214 49.9922Z" fill="#263238"/>
<path d="M121.535 50.6373C122.275 51.6903 123.168 52.6454 124.188 53.476C123.951 53.7115 123.661 53.8965 123.338 54.018C123.015 54.1395 122.667 54.1945 122.319 54.1792L121.535 50.6373Z" fill="#ED847E"/>
<path d="M119.267 48.1922C119.206 48.1925 119.146 48.1718 119.099 48.1341C119.054 48.0919 119.029 48.0352 119.029 47.9761C119.029 47.917 119.054 47.8602 119.099 47.818C119.357 47.5459 119.683 47.3356 120.049 47.2053C120.415 47.0749 120.81 47.0284 121.199 47.0697C121.263 47.0799 121.32 47.1132 121.358 47.1622C121.395 47.2112 121.41 47.2719 121.399 47.3309C121.388 47.39 121.352 47.4425 121.298 47.477C121.245 47.5115 121.179 47.5251 121.115 47.5148C120.811 47.4892 120.504 47.5309 120.22 47.6363C119.937 47.7418 119.684 47.908 119.484 48.1212C119.457 48.1481 119.423 48.1686 119.385 48.1809C119.347 48.1932 119.307 48.1971 119.267 48.1922Z" fill="#263238"/>
<path d="M109.635 55.2631C110.335 58.7275 111.105 65.0821 108.473 67.3982C108.473 67.3982 109.502 70.9142 116.495 70.9142C124.195 70.9142 120.163 67.3982 120.163 67.3982C115.963 66.4757 116.082 63.6048 116.81 60.9081L109.635 55.2631Z" fill="#FFC3BD"/>
<path d="M106.953 68.0369C106.393 67.0756 105.777 65.9724 107.058 65.6305C108.458 65.2499 117.509 64.5467 120.169 65.2563C119.35 66.5982 120.736 68.2433 120.736 68.2433L106.953 68.0369Z" fill="#263238"/>
<path d="M84.185 229.671C84.3924 229.739 84.6126 229.769 84.8325 229.758C85.0524 229.747 85.2678 229.695 85.466 229.607C85.5426 229.542 85.5953 229.457 85.6166 229.363C85.638 229.269 85.6269 229.172 85.585 229.084C85.5624 229.011 85.5224 228.944 85.4679 228.887C85.4134 228.83 85.3457 228.785 85.27 228.755C84.57 228.446 82.981 229.045 82.911 229.071C82.8901 229.081 82.8725 229.096 82.8601 229.114C82.8478 229.132 82.8411 229.153 82.841 229.175C82.8376 229.196 82.8419 229.217 82.8533 229.236C82.8647 229.255 82.8825 229.269 82.904 229.278C83.3148 229.45 83.7441 229.582 84.185 229.671ZM85.025 228.91L85.165 228.955C85.2101 228.972 85.2505 228.999 85.2832 229.032C85.3158 229.066 85.34 229.106 85.354 229.149C85.417 229.349 85.354 229.413 85.305 229.433C85.032 229.652 84.003 229.433 83.282 229.181C83.8356 228.979 84.4305 228.891 85.025 228.923V228.91Z" fill="#BB6BD9"/>
<path d="M82.9284 229.297H82.9914C83.5724 229.142 84.8184 228.323 84.8324 227.787C84.8329 227.703 84.8018 227.621 84.7445 227.555C84.6871 227.489 84.6069 227.444 84.5174 227.426C84.4293 227.399 84.3362 227.389 84.2437 227.396C84.1512 227.402 84.061 227.426 83.9784 227.465C83.2784 227.787 82.8584 229.103 82.8374 229.155C82.8262 229.172 82.8203 229.191 82.8203 229.21C82.8203 229.229 82.8262 229.248 82.8374 229.265C82.8482 229.277 82.8623 229.286 82.8783 229.292C82.8942 229.298 82.9115 229.299 82.9284 229.297ZM84.3844 227.62H84.4404C84.5874 227.665 84.5874 227.736 84.5874 227.762C84.5874 228.078 83.7544 228.716 83.1874 228.981C83.3489 228.46 83.6755 227.995 84.1254 227.645C84.207 227.613 84.2972 227.604 84.3844 227.62Z" fill="#BB6BD9"/>
<path d="M122.153 230.478C122.811 230.478 123.448 230.394 123.665 230.123C123.721 230.05 123.752 229.964 123.752 229.874C123.752 229.785 123.721 229.698 123.665 229.626C123.623 229.561 123.567 229.505 123.501 229.46C123.435 229.416 123.36 229.385 123.28 229.368C122.426 229.155 120.627 230.097 120.55 230.136C120.529 230.148 120.513 230.166 120.503 230.186C120.493 230.207 120.49 230.23 120.494 230.252C120.498 230.274 120.509 230.295 120.527 230.312C120.545 230.328 120.567 230.338 120.592 230.342C121.107 230.431 121.629 230.477 122.153 230.478ZM122.972 229.555C123.049 229.548 123.126 229.548 123.203 229.555C123.302 229.578 123.387 229.636 123.441 229.716C123.532 229.852 123.497 229.923 123.441 229.962C123.196 230.271 121.901 230.278 120.942 230.149C121.571 229.834 122.26 229.632 122.972 229.555Z" fill="#BB6BD9"/>
<path d="M120.599 230.349H120.648C121.271 230.091 122.503 229.058 122.405 228.529C122.405 228.407 122.286 228.252 121.95 228.22C121.825 228.202 121.698 228.21 121.577 228.244C121.456 228.277 121.344 228.335 121.25 228.413C120.592 228.904 120.459 230.181 120.452 230.239C120.449 230.258 120.452 230.277 120.461 230.294C120.47 230.311 120.484 230.326 120.501 230.336C120.531 230.35 120.566 230.355 120.599 230.349ZM121.852 228.413H121.929C122.146 228.413 122.16 228.516 122.167 228.542C122.223 228.865 121.383 229.671 120.767 230.02C120.831 229.477 121.076 228.965 121.467 228.555C121.577 228.474 121.712 228.429 121.852 228.426V228.413Z" fill="#BB6BD9"/>
<path d="M114.941 230.233H120.086L120.597 219.259H115.452L114.941 230.233Z" fill="#FFC3BD"/>
<path d="M77.1973 228.039L82.2233 229.039L87.2703 218.82L82.2443 217.82L77.1973 228.039Z" fill="#FFC3BD"/>
<path d="M82.7063 228.574L77.0643 227.452C76.964 227.429 76.8582 227.44 76.7658 227.482C76.6734 227.525 76.6006 227.597 76.5603 227.684L74.6003 231.6C74.5526 231.696 74.5291 231.8 74.5314 231.905C74.5337 232.011 74.5619 232.114 74.6138 232.208C74.6656 232.301 74.7398 232.383 74.8309 232.447C74.9219 232.51 75.0273 232.554 75.1393 232.574C77.1203 232.936 78.1003 233.02 80.5853 233.516C82.1113 233.819 85.5623 234.594 87.6693 235.013C89.7763 235.432 90.5113 233.568 89.6853 233.22C85.9963 231.665 84.4563 230.297 83.4553 229.026C83.2749 228.795 83.008 228.634 82.7063 228.574Z" fill="#263238"/>
<path d="M120.052 229.671H114.452C114.35 229.672 114.251 229.704 114.171 229.762C114.091 229.821 114.034 229.902 114.011 229.994L112.996 234.207C112.97 234.309 112.97 234.415 112.996 234.517C113.021 234.619 113.072 234.714 113.143 234.796C113.215 234.877 113.305 234.943 113.408 234.987C113.511 235.031 113.624 235.053 113.738 235.052C115.761 235.02 118.687 234.91 121.235 234.91C124.21 234.91 126.786 235.058 130.279 235.058C132.379 235.058 132.974 233.091 132.092 232.916C128.067 232.103 124.784 232.02 121.305 230.039C120.932 229.812 120.498 229.684 120.052 229.671Z" fill="#263238"/>
<path d="M99.2677 68.4692C94.4447 69.4885 90.4688 80.8237 90.4688 80.8237L100.15 87.6235C102.657 85.1662 104.426 82.1487 105.281 78.8689C106.94 72.9013 104.196 67.424 99.2677 68.4692Z" fill="#BB6BD9"/>
<path opacity="0.2" d="M103.4 76.8044C100.782 79.1914 99.8996 83.5397 99.7246 87.3202L100.152 87.6234C102.659 85.1626 104.429 82.1437 105.29 78.8624C105.388 78.5076 105.472 78.1527 105.542 77.8044L103.4 76.8044Z" fill="black"/>
<path d="M128.101 68.7143C128.101 68.7143 132.049 72.2755 130.558 91.2104C130.166 96.2168 128.087 102.3 127.009 109.674H102.978C102.782 105.804 103.335 86.8041 99.2676 68.4691C102.317 67.9285 105.401 67.5707 108.501 67.3982C112.394 67.1916 116.297 67.1916 120.191 67.3982C122.86 67.6461 125.505 68.0861 128.101 68.7143Z" fill="#263238"/>
<path opacity="0.6" d="M130.857 84.5655C130.402 81.8172 129.919 79.4043 129.457 77.3399L129.303 77.256L121.771 80.1656C122.135 84.4816 127.084 88.8363 130.528 91.3846C130.528 91.3266 130.528 91.2621 130.528 91.2104C130.724 88.7395 130.822 86.5396 130.857 84.5655Z" fill="black"/>
<path opacity="0.2" d="M120.595 219.259L120.329 224.917H115.184L115.45 219.259H120.595Z" fill="black"/>
<path opacity="0.2" d="M82.2446 217.82L87.2706 218.82L84.6666 224.091L79.6406 223.091L82.2446 217.82Z" fill="black"/>
<path d="M107.48 51.7406C108.803 56.2566 109.321 59.0049 112.38 60.8952C116.958 63.7338 122.649 60.4759 122.831 55.6566C122.992 51.3213 120.801 44.6182 115.516 43.7086C114.349 43.4978 113.143 43.5659 112.013 43.9066C110.884 44.2472 109.867 44.8489 109.061 45.6544C108.256 46.4598 107.687 47.4421 107.41 48.5076C107.133 49.573 107.157 50.6861 107.48 51.7406Z" fill="#FFC3BD"/>
<path d="M118.624 109.674C118.624 109.674 112.786 145.899 109.587 159.467C106.087 174.305 87.2636 223.491 87.2636 223.491L78.0586 221.652C78.0586 221.652 91.2116 181.589 94.1586 160.815C95.4676 151.557 95.6566 135.835 97.3436 124.261C98.1408 119.1 100.057 114.139 102.979 109.674H118.624Z" fill="#263238"/>
<path d="M89.4676 220.639L87.7526 223.704L77.3926 221.639L78.2676 218.768L89.4676 220.639Z" fill="#BB6BD9"/>
<path opacity="0.6" d="M114.933 122.577C108.185 123.797 108.899 146.99 109.711 158.918C111.657 150.486 114.506 134.261 116.452 122.745C115.981 122.531 115.446 122.472 114.933 122.577Z" fill="black"/>
<path d="M126.983 109.674C126.983 109.674 129.083 145.112 128.53 159.563C127.949 174.602 122.23 223.82 122.23 223.82H113.543C113.543 223.82 113.221 175.479 112.843 160.712C112.416 144.615 110.309 109.674 110.309 109.674H126.983Z" fill="#263238"/>
<path d="M123.902 220.639C123.937 220.639 123.405 223.968 123.405 223.968H112.835L112.555 220.994L123.902 220.639Z" fill="#BB6BD9"/>
<path d="M130.616 73.0367C131.407 74.1722 132.303 75.4431 133.206 76.6237C134.109 77.8044 135.04 78.9979 136.006 80.1398C137.835 82.4024 139.875 84.5136 142.103 86.4493C142.642 86.9073 143.195 87.3331 143.755 87.7396L144.175 88.0299C144.098 87.9924 144.015 87.9662 143.93 87.9525C143.748 87.9202 143.657 87.9525 143.706 87.9525C144.118 87.9803 144.531 87.9068 144.903 87.7396C145.514 87.4973 146.106 87.2149 146.674 86.8944C149.281 85.3102 151.752 83.5437 154.066 81.6107L157.069 83.8494C155.247 86.6662 152.98 89.2168 150.342 91.4169C149.593 92.0255 148.787 92.5717 147.934 93.0491C146.856 93.6674 145.654 94.0778 144.399 94.2555C142.996 94.4403 141.568 94.1614 140.367 93.4685L139.758 93.1136C138.96 92.6362 138.197 92.133 137.469 91.604C134.698 89.529 132.171 87.1915 129.93 84.63C128.831 83.3784 127.774 82.1139 126.787 80.8043C125.8 79.4946 124.848 78.2237 123.924 76.727L130.616 73.0367Z" fill="#FFC3BD"/>
<path d="M120.513 75.8819C118.868 82.2365 131.342 88.4557 131.342 88.4557L139.441 79.7076C137.009 76.3997 134.238 73.3146 131.167 70.4949C125.497 65.4821 121.759 71.0433 120.513 75.8819Z" fill="#BB6BD9"/>
<path d="M153.238 82.9075L155.149 77.2496L160.182 79.5592C160.182 79.5592 159.447 83.6881 155.786 84.4042L153.238 82.9075Z" fill="#FFC3BD"/>
<path d="M157.164 75.6819L161.707 76.8302L160.181 79.5592L155.148 77.2496L157.164 75.6819Z" fill="#FFC3BD"/>
<path d="M112.7 58.4371C114.007 58.1685 115.202 57.5602 116.145 56.6843C117.088 55.8084 117.739 54.7017 118.02 53.4953C118.02 53.4953 116.9 50.7728 119 48.9213C121.1 47.0697 120.064 45.0504 117.964 44.6698C115.864 44.2891 112.644 46.6052 112.644 46.6052L110.082 50.8373L111.125 55.1082L112.7 58.4371Z" fill="#263238"/>
<path opacity="0.3" d="M112.7 58.4371C114.007 58.1685 115.202 57.5602 116.145 56.6843C117.088 55.8084 117.739 54.7017 118.02 53.4953C118.02 53.4953 116.9 50.7728 119 48.9213C121.1 47.0697 120.064 45.0504 117.964 44.6698C115.864 44.2891 112.644 46.6052 112.644 46.6052L110.082 50.8373L111.125 55.1082L112.7 58.4371Z" fill="white"/>
<path d="M115.864 51.9277C116.205 53.0599 116.943 54.056 117.964 54.7599C119.301 55.676 120.302 54.7599 120.204 53.3793C120.12 52.089 119.322 50.1535 117.845 49.7535C116.368 49.3536 115.5 50.5664 115.864 51.9277Z" fill="#FFC3BD"/>
<path d="M113.401 57.1727C112.148 54.4179 109.838 47.2891 118 44.6698C118 44.6698 117.405 37.7926 121.374 40.5925C121.374 40.5925 117.58 36.1281 117.055 40.6957C117.055 40.6957 116.124 39.1409 117.524 38.1151C117.524 38.1151 110.055 35.8055 110.23 41.0183C110.024 40.4821 109.964 39.9075 110.056 39.3451C110.147 38.7826 110.388 38.2494 110.755 37.7926C110.755 37.7926 109.131 37.7022 108.487 40.0635C107.843 42.4247 101.501 41.9344 102.082 47.3084C102.082 47.3084 96.4821 53.7986 109.929 59.3404C109.929 59.3404 108.158 60.3468 109.166 61.9532C109.349 61.3897 109.657 60.8669 110.068 60.4174C110.48 59.968 110.988 59.6013 111.56 59.3404C111.56 59.3404 110.685 61.179 112.554 61.721C112.368 61.2458 112.321 60.7337 112.418 60.2364C112.515 59.7391 112.753 59.2742 113.107 58.8888C113.329 58.6584 113.474 58.3744 113.526 58.0703C113.578 57.7662 113.535 57.4548 113.401 57.1727Z" fill="#263238"/>
<path opacity="0.1" d="M118.211 59.9984C116.433 60.0758 116.538 61.6758 116.566 61.9338C118.107 61.7955 119.55 61.1738 120.654 60.1726C120.01 60.2758 119.324 59.9532 118.211 59.9984Z" fill="black"/>
<path d="M117.309 43.9795C117.309 43.9795 118.226 40.8635 119.955 41.4828C121.684 42.1022 120.459 44.6247 121.355 45.8053C120.939 45.6423 120.577 45.3822 120.305 45.0506C120.032 44.719 119.858 44.3276 119.801 43.915C119.549 42.4441 117.981 44.6698 117.981 44.6698L117.309 43.9795Z" fill="#263238"/>
<path d="M117.985 56.4566L119.651 54.6953L119.015 54.1792H116.95L116.312 54.6953L117.985 56.4566Z" fill="#BB6BD9"/>
<path opacity="0.2" d="M117.754 54.1792H116.95L116.312 54.6953L117.985 56.4566L117.117 54.6953L117.754 54.1792Z" fill="white"/>
</svg>
