<svg width="45" height="55" viewBox="0 0 45 55" fill="none" xmlns="http://www.w3.org/2000/svg">
<path d="M22.5 0C22.5 0 7.5 8.14815 7.5 26.4815C7.5 26.8051 7.53413 27.1292 7.55859 27.4523C4.97343 29.1553 0 32.8035 0 35.7397C0 39.445 4.5459 46.8519 4.5459 46.8519L12.7979 38.4451L15 42.7778H30L32.2021 38.4451L40.4541 46.8519C40.4541 46.8519 45 39.445 45 35.7397C45 32.8035 40.0266 29.1553 37.4414 27.4523C37.4659 27.1292 37.5 26.8051 37.5 26.4815C37.5 8.14815 22.5 0 22.5 0ZM22.5 14.2593C25.2625 14.2593 27.5 16.0824 27.5 18.3333C27.5 20.5843 25.2625 22.4074 22.5 22.4074C19.7375 22.4074 17.5 20.5843 17.5 18.3333C17.5 16.0824 19.7375 14.2593 22.5 14.2593ZM16.0449 44.8148C15.3974 45.4952 15 46.277 15 47.1224C15 50.9989 22.5 55 22.5 55C22.5 55 30 51.0518 30 47.1224C30 46.277 29.605 45.4972 28.96 44.8148H26.8457C26.8907 44.9717 27.002 45.1113 27.002 45.2763C27.002 48.0447 22.5 49.43 22.5 49.43C22.5 49.43 17.998 48.0447 17.998 45.2763C17.998 45.1134 18.1093 44.9717 18.1543 44.8148H16.0449Z" fill="#BB6BD9"/>
</svg>
