<svg width="45" height="55" viewBox="0 0 45 55" fill="none" xmlns="http://www.w3.org/2000/svg">
<path d="M45 48.6538C45 49.2149 44.8025 49.7529 44.4508 50.1496C44.0992 50.5464 43.6223 50.7692 43.125 50.7692C42.9554 50.7688 42.7866 50.7424 42.6233 50.6907C42.6196 50.6894 42.616 50.688 42.6123 50.6866L30 48.6538L26.25 55L22.5 10.5769L18.75 55L15 48.6538L2.38403 50.6866C2.21852 50.7404 2.04724 50.7682 1.875 50.7692C1.37772 50.7692 0.900803 50.5464 0.549171 50.1496C0.197544 49.7529 0 49.2149 0 48.6538C0.0013504 48.3726 0.0523949 48.0945 0.150146 47.8358L0.146484 47.8317L0.186768 47.7408L0.205078 47.6953C0.211071 47.6828 0.217175 47.6705 0.223389 47.6581L20.7715 1.28906L20.7788 1.28493C20.9228 0.90427 21.1627 0.579636 21.4686 0.351242C21.7745 0.122845 22.1331 0.000724792 22.5 0C22.8679 0.000259399 23.2276 0.122616 23.5343 0.35183C23.841 0.581039 24.0811 0.906982 24.2249 1.28906C24.2261 1.28906 24.2273 1.28906 24.2285 1.28906V1.2932L44.7693 47.6416C44.8002 47.7033 44.8283 47.7668 44.8535 47.8317C44.9505 48.0919 45.0003 48.3715 45 48.6538Z" fill="#BB6BD9"/>
</svg>
