<svg width="45" height="55" viewBox="0 0 45 55" fill="none" xmlns="http://www.w3.org/2000/svg">
<path d="M0 38.6833C0 39.8072 0.84 40.7193 1.875 40.7193H18.75V44.4333L13.7915 49.3403C13.5825 49.5316 13.4145 49.7703 13.2994 50.0396C13.1842 50.3088 13.1247 50.6022 13.125 50.8991C13.125 51.439 13.3225 51.9569 13.6742 52.3387C14.0258 52.7205 14.5027 52.935 15 52.935C15.1708 52.935 15.3409 52.9096 15.5054 52.8595L20.625 51.424V52.935C20.6215 53.2048 20.6674 53.4727 20.76 53.723C20.8527 53.9734 20.9902 54.2013 21.1647 54.3934C21.3392 54.5855 21.547 54.7381 21.7763 54.8422C22.0055 54.9464 22.2515 55 22.5 55C22.7485 55 22.9945 54.9464 23.2237 54.8422C23.453 54.7381 23.6608 54.5855 23.8353 54.3934C24.0098 54.2013 24.1473 53.9734 24.24 53.723C24.3326 53.4727 24.3785 53.2048 24.375 52.935V51.424L29.4946 52.8595C29.6591 52.9096 29.8292 52.935 30 52.935C30.4973 52.935 30.9742 52.7205 31.3258 52.3387C31.6775 51.9569 31.875 51.439 31.875 50.8991C31.8749 50.6152 31.8201 50.3344 31.7141 50.0749C31.6082 49.8153 31.4534 49.5827 31.2598 49.392L26.25 44.4333V40.7193H43.125C44.16 40.7193 45 39.8072 45 38.6833V36.6473L39.375 31.6489V26.4675C39.3785 26.1977 39.3326 25.9299 39.24 25.6795C39.1473 25.4292 39.0098 25.2013 38.8353 25.0092C38.6608 24.817 38.453 24.6645 38.2237 24.5603C37.9945 24.4562 37.7485 24.4026 37.5 24.4026C37.2515 24.4026 37.0055 24.4562 36.7763 24.5603C36.547 24.6645 36.3392 24.817 36.1647 25.0092C35.9902 25.2013 35.8527 25.4292 35.76 25.6795C35.6674 25.9299 35.6215 26.1977 35.625 26.4675V28.3206L26.25 19.9898V6.10789C26.25 4.10722 24.1236 0.995266 24.0491 0.886757C23.8768 0.613228 23.6457 0.389481 23.3757 0.234947C23.1058 0.0804138 22.8052 -0.000232697 22.5 0C22.2021 0.000217438 21.9085 0.0775223 21.6435 0.225506C21.3786 0.373493 21.15 0.587902 20.9766 0.850971C20.9766 0.850971 20.9282 0.924801 20.9216 0.934475C20.9216 0.935802 20.9216 0.937126 20.9216 0.938454C20.7554 1.1821 18.75 4.15442 18.75 6.10789V19.9898L9.375 28.3166V26.4675C9.37851 26.1977 9.33261 25.9299 9.23996 25.6795C9.14731 25.4292 9.00976 25.2013 8.8353 25.0092C8.66084 24.817 8.45296 24.6645 8.22372 24.5603C7.99449 24.4562 7.74848 24.4026 7.5 24.4026C7.25152 24.4026 7.00551 24.4562 6.77628 24.5603C6.54704 24.6645 6.33916 24.817 6.1647 25.0092C5.99024 25.2013 5.85269 25.4292 5.76004 25.6795C5.66739 25.9299 5.62149 26.1977 5.625 26.4675V31.6489L0 36.6473L0 38.6833Z" fill="#BB6BD9"/>
</svg>
