<svg xmlns="http://www.w3.org/2000/svg" width="18" height="18" viewBox="0 0 18 18">
  <path id="Reports" d="M15.25,1A2.75,2.75,0,0,1,18,3.746v12.5A2.75,2.75,0,0,1,15.25,19H2.75A2.75,2.75,0,0,1,0,16.246V3.746A2.75,2.75,0,0,1,2.75,1ZM4.75,7A.748.748,0,0,0,4,7.746v6.506a.75.75,0,0,0,1.5,0V7.746A.748.748,0,0,0,4.75,7Zm8.5-2a.74.74,0,0,0-.75.729V14.27a.75.75,0,0,0,1.5,0V5.729A.74.74,0,0,0,13.25,5ZM8.975,10a.729.729,0,0,0-.725.733l.035,3.547a.732.732,0,0,0,1.465-.014l-.035-3.547A.73.73,0,0,0,8.975,10Z" transform="translate(0 -0.996)" fill="#f2c94c"/>
</svg>
