<svg width="10" height="10" viewBox="0 0 10 10" fill="none" xmlns="http://www.w3.org/2000/svg">
<path d="M6.92306 0V1.36364H2.30771C1.03787 1.36364 3.84641e-05 2.59017 3.84641e-05 4.09091C-0.000682318 4.15114 0.0087335 4.21094 0.0277386 4.26684C0.0467438 4.32273 0.0749592 4.37361 0.110745 4.4165C0.146531 4.4594 0.189174 4.49346 0.236196 4.51671C0.283218 4.53996 0.33368 4.55193 0.384651 4.55193C0.435622 4.55193 0.486084 4.53996 0.533106 4.51671C0.580128 4.49346 0.622771 4.4594 0.658557 4.4165C0.694343 4.37361 0.722558 4.32273 0.741563 4.26684C0.760568 4.21094 0.769984 4.15114 0.769263 4.09091C0.769263 3.08165 1.45373 2.27273 2.30771 2.27273H6.92306V3.63636L9.61535 1.81818L6.92306 0ZM9.60934 5.44833C9.50747 5.45021 9.41039 5.49979 9.33941 5.58617C9.26842 5.67255 9.22934 5.78869 9.23074 5.90909C9.23074 6.91835 8.54627 7.72727 7.69229 7.72727H3.07694V6.36364L0.384651 8.18182L3.07694 10V8.63636H7.69229C8.96213 8.63636 9.99996 7.40983 9.99996 5.90909C10.0007 5.84828 9.99104 5.78792 9.97165 5.73158C9.95226 5.67524 9.9235 5.62408 9.88708 5.58111C9.85065 5.53815 9.8073 5.50426 9.7596 5.48145C9.71189 5.45864 9.6608 5.44738 9.60934 5.44833Z" fill="#828282"/>
</svg>
