<svg width="27" height="27" viewBox="0 0 27 27" fill="none" xmlns="http://www.w3.org/2000/svg">
<path d="M5.16667 0.8C2.76129 0.8 0.8 2.76129 0.8 5.16667V21.8333C0.8 24.2387 2.76129 26.2 5.16667 26.2H21.8333C24.2387 26.2 26.2 24.2387 26.2 21.8333V5.16667C26.2 2.76129 24.2387 0.8 21.8333 0.8H5.16667ZM5.16667 2.39048H21.8333C23.3737 2.39048 24.6095 3.62627 24.6095 5.16667V21.8333C24.6095 23.3737 23.3737 24.6095 21.8333 24.6095H5.16667C3.62627 24.6095 2.39048 23.3737 2.39048 21.8333V5.16667C2.39048 3.62627 3.62627 2.39048 5.16667 2.39048Z" fill="#A2925B" stroke="#A2925B" stroke-width="0.4"/>
<path d="M9.63472 5.16663C8.16393 5.16663 6.95887 6.51767 6.95887 8.16663V12.5H5.76961C5.69081 12.4987 5.61258 12.515 5.53946 12.548C5.46634 12.5809 5.39978 12.6298 5.34367 12.6919C5.28755 12.7539 5.24299 12.8278 5.21258 12.9093C5.18217 12.9908 5.1665 13.0783 5.1665 13.1666C5.1665 13.255 5.18217 13.3424 5.21258 13.4239C5.24299 13.5055 5.28755 13.5794 5.34367 13.6414C5.39978 13.7034 5.46634 13.7523 5.53946 13.7853C5.61258 13.8182 5.69081 13.8345 5.76961 13.8333H7.45363C7.51784 13.8452 7.58336 13.8452 7.64758 13.8333H21.2301C21.3089 13.8345 21.3871 13.8182 21.4602 13.7853C21.5333 13.7523 21.5999 13.7034 21.656 13.6414C21.7121 13.5794 21.7567 13.5055 21.7871 13.4239C21.8175 13.3424 21.8332 13.255 21.8332 13.1666C21.8332 13.0783 21.8175 12.9908 21.7871 12.9093C21.7567 12.8278 21.7121 12.7539 21.656 12.6919C21.5999 12.6298 21.5333 12.5809 21.4602 12.548C21.3871 12.515 21.3089 12.4987 21.2301 12.5H8.14814V8.16663C8.14814 7.23825 8.80666 6.49996 9.63472 6.49996C10.4003 6.49996 11.0134 7.13333 11.1027 7.9622C10.4208 8.24326 9.93204 8.97121 9.93204 9.83329H13.4998C13.4998 8.95587 12.993 8.21871 12.292 7.94918C12.1943 6.48868 11.1495 5.33723 9.84726 5.2148C9.77964 5.18428 9.7076 5.16795 9.63472 5.16663V5.16663ZM5.76961 15.1666L6.55006 19.2057C6.84678 20.739 8.0567 21.8333 9.45587 21.8333H17.5438C18.943 21.8333 20.1535 20.739 20.4496 19.2057L21.2301 15.1666H5.76961Z" fill="#A2925B"/>
</svg>
