<svg width="27" height="27" viewBox="0 0 27 27" fill="none" xmlns="http://www.w3.org/2000/svg">
<path d="M5.16667 0.8C2.76129 0.8 0.8 2.76129 0.8 5.16667V21.8333C0.8 24.2387 2.76129 26.2 5.16667 26.2H21.8333C24.2387 26.2 26.2 24.2387 26.2 21.8333V5.16667C26.2 2.76129 24.2387 0.8 21.8333 0.8H5.16667ZM5.16667 2.39048H21.8333C23.3737 2.39048 24.6095 3.62627 24.6095 5.16667V21.8333C24.6095 23.3737 23.3737 24.6095 21.8333 24.6095H5.16667C3.62627 24.6095 2.39048 23.3737 2.39048 21.8333V5.16667C2.39048 3.62627 3.62627 2.39048 5.16667 2.39048Z" fill="#2D9CDB" stroke="#2D9CDB" stroke-width="0.4"/>
<path d="M16.7218 5.16663C15.411 5.16663 14.1001 5.66532 13.1041 6.66277L6.66107 13.1148C4.66897 15.1097 4.66897 18.3655 6.66107 20.3604C6.72595 20.4252 6.80296 20.4764 6.88769 20.5113C6.88905 20.5117 6.8904 20.5122 6.89176 20.5126C8.89606 22.3083 11.9723 22.2874 13.8966 20.3604L20.3396 13.9084C22.3317 11.9135 22.3317 8.65767 20.3396 6.66277C19.3435 5.66529 18.0327 5.16663 16.7218 5.16663ZM16.7218 6.54998C17.6742 6.54998 18.6266 6.91511 19.3571 7.64661C20.8181 9.10961 20.8181 11.4616 19.3571 12.9246L17.8726 14.4112L16.6268 15.6587C16.3552 15.9307 15.9167 15.9314 15.6457 15.66C14.7251 14.7374 12.8286 12.8376 12.8286 12.8376H12.8273C12.5667 12.5767 12.2133 12.4301 11.8448 12.4301C11.4763 12.4301 11.1229 12.5767 10.8623 12.8376L8.645 15.0607C8.37334 15.3328 7.9335 15.3328 7.66253 15.0607C7.39328 14.7911 7.39263 14.3569 7.65711 14.0851L14.0865 7.64661C14.817 6.91511 15.7695 6.54998 16.7218 6.54998Z" fill="#2D9CDB"/>
</svg>
