<svg width="25" height="25" viewBox="0 0 25 25" fill="none" xmlns="http://www.w3.org/2000/svg">
<path d="M4.16667 0C1.87174 0 0 1.87174 0 4.16667V20.8333C0 23.1283 1.87174 25 4.16667 25H20.8333C23.1283 25 25 23.1283 25 20.8333V4.16667C25 1.87174 23.1283 0 20.8333 0H4.16667ZM4.16667 1.19048H20.8333C22.4842 1.19048 23.8095 2.51581 23.8095 4.16667V20.8333C23.8095 22.4842 22.4842 23.8095 20.8333 23.8095H4.16667C2.51581 23.8095 1.19048 22.4842 1.19048 20.8333V4.16667C1.19048 2.51581 2.51581 1.19048 4.16667 1.19048Z" fill="#089A05"/>
<path d="M12.4817 5.00013C12.1512 5.00498 11.8361 5.14084 11.6057 5.37788C11.3753 5.61492 11.2484 5.93373 11.253 6.26427V11.2526H6.2648C6.09955 11.2503 5.93549 11.2808 5.78214 11.3424C5.6288 11.4041 5.48923 11.4956 5.37154 11.6116C5.25386 11.7276 5.16041 11.8659 5.09663 12.0184C5.03285 12.1708 5 12.3344 5 12.4997C5 12.665 5.03285 12.8286 5.09663 12.9811C5.16041 13.1335 5.25386 13.2718 5.37154 13.3878C5.48923 13.5039 5.6288 13.5954 5.78214 13.657C5.93549 13.7186 6.09955 13.7491 6.2648 13.7468H11.253V18.7352C11.2506 18.9004 11.2812 19.0645 11.3428 19.2178C11.4044 19.3712 11.4959 19.5108 11.6119 19.6284C11.7279 19.7461 11.8662 19.8396 12.0187 19.9034C12.1711 19.9672 12.3347 20 12.5 20C12.6653 20 12.8289 19.9672 12.9813 19.9034C13.1338 19.8396 13.2721 19.7461 13.3881 19.6284C13.5041 19.5108 13.5956 19.3712 13.6572 19.2178C13.7188 19.0645 13.7494 18.9004 13.747 18.7352V13.7468H18.7352C18.9004 13.7491 19.0645 13.7186 19.2179 13.657C19.3712 13.5954 19.5108 13.5039 19.6285 13.3878C19.7461 13.2718 19.8396 13.1335 19.9034 12.9811C19.9672 12.8286 20 12.665 20 12.4997C20 12.3344 19.9672 12.1708 19.9034 12.0184C19.8396 11.8659 19.7461 11.7276 19.6285 11.6116C19.5108 11.4956 19.3712 11.4041 19.2179 11.3424C19.0645 11.2808 18.9004 11.2503 18.7352 11.2526H13.747V6.26427C13.7493 6.09753 13.7181 5.93202 13.6553 5.77754C13.5926 5.62306 13.4994 5.48274 13.3814 5.36488C13.2635 5.24702 13.1231 5.15401 12.9685 5.09136C12.814 5.02871 12.6485 4.99769 12.4817 5.00013Z" fill="#089A05"/>
</svg>
