<svg width="27" height="27" viewBox="0 0 27 27" fill="none" xmlns="http://www.w3.org/2000/svg">
<path d="M7.33901 5.16663C7.14695 5.16663 6.96275 5.24297 6.82694 5.37887C6.69114 5.51476 6.61484 5.69908 6.61484 5.89126C6.61505 5.94704 6.62169 6.0026 6.63464 6.05685L8.07449 13.9868C8.07615 13.9972 8.07804 14.0076 8.08015 14.018L8.08156 14.025C8.08204 14.025 8.08251 14.025 8.08298 14.025C8.11972 14.1845 8.20933 14.3269 8.33723 14.4289C8.46513 14.5309 8.62378 14.5866 8.78735 14.5869H16.7532C16.9453 14.5869 17.1295 14.5106 17.2653 14.3747C17.4011 14.2388 17.4774 14.0545 17.4774 13.8623C17.4772 13.7454 17.4489 13.6304 17.3947 13.5268C17.3405 13.4233 17.2621 13.3345 17.1662 13.2678L17.1648 13.2664C17.1583 13.2616 17.1517 13.2569 17.145 13.2523C17.0865 13.2031 15.2699 11.6884 13.1324 11.6884C12.4958 11.6884 11.8603 11.8152 11.2781 11.9912C11.2781 11.9912 11.1879 11.1615 11.0037 10.2391H13.0107C13.0889 10.252 13.1687 10.252 13.2469 10.2391H14.5807C14.6767 10.2404 14.7719 10.2227 14.861 10.1869C14.95 10.1511 15.0311 10.0979 15.0994 10.0305C15.1678 9.96309 15.222 9.88274 15.2591 9.79415C15.2961 9.70556 15.3152 9.61048 15.3152 9.51445C15.3152 9.41842 15.2961 9.32334 15.2591 9.23475C15.222 9.14616 15.1678 9.06582 15.0994 8.99839C15.0311 8.93097 14.95 8.87781 14.861 8.842C14.7719 8.8062 14.6767 8.78846 14.5807 8.78981H13.8565C13.8579 8.69287 13.8397 8.59664 13.8032 8.50682C13.7667 8.41701 13.7126 8.33544 13.644 8.26695C13.5754 8.19846 13.4938 8.14443 13.4039 8.10807C13.3141 8.07171 13.2179 8.05376 13.121 8.05527C12.9292 8.05827 12.7464 8.1373 12.6128 8.27501C12.4791 8.41272 12.4056 8.59787 12.4082 8.78981H10.6232C10.6146 8.76626 10.608 8.73932 10.5992 8.71622C10.0623 7.30582 9.15036 6.06507 8.66146 5.48224C8.65913 5.47939 8.65677 5.47656 8.65439 5.47375C8.65068 5.46933 8.64533 5.46111 8.64166 5.45676C8.57432 5.36683 8.48701 5.2938 8.38661 5.24344C8.28621 5.19309 8.17548 5.16679 8.06318 5.16663H7.33901ZM8.06318 16.0362C6.46349 16.0362 5.1665 17.334 5.1665 18.9347V19.2971C5.1665 20.6892 6.30986 21.8333 7.70109 21.8333C8.70273 21.8333 9.56778 21.2357 9.97826 20.384H14.8381C15.2486 21.2357 16.1136 21.8333 17.1153 21.8333C18.5065 21.8333 19.6499 20.6892 19.6499 19.2971V18.9347C19.6499 18.8679 19.6345 18.8052 19.6301 18.7394L21.3273 18.1733C21.4903 18.1217 21.6298 18.0141 21.7211 17.8695C21.8125 17.725 21.8497 17.5527 21.8264 17.3833C21.803 17.2138 21.7205 17.0581 21.5934 16.9437C21.4664 16.8293 21.303 16.7635 21.1322 16.758C21.0428 16.7548 20.9536 16.7683 20.8691 16.7976L19.1803 17.3609C18.6639 16.5651 17.772 16.0362 16.7532 16.0362H8.06318ZM7.70109 18.2101C8.30959 18.2101 8.78735 18.6882 8.78735 19.2971C8.78735 19.906 8.30959 20.384 7.70109 20.384C7.09259 20.384 6.61484 19.906 6.61484 19.2971C6.61484 18.6882 7.09259 18.2101 7.70109 18.2101ZM17.1153 18.2101C17.7238 18.2101 18.2015 18.6882 18.2015 19.2971C18.2015 19.906 17.7238 20.384 17.1153 20.384C16.5068 20.384 16.029 19.906 16.029 19.2971C16.029 18.6882 16.5068 18.2101 17.1153 18.2101Z" fill="#E2B017"/>
<path d="M5.16667 0.8C2.76129 0.8 0.8 2.76129 0.8 5.16667V21.8333C0.8 24.2387 2.76129 26.2 5.16667 26.2H21.8333C24.2387 26.2 26.2 24.2387 26.2 21.8333V5.16667C26.2 2.76129 24.2387 0.8 21.8333 0.8H5.16667ZM5.16667 2.39048H21.8333C23.3737 2.39048 24.6095 3.62627 24.6095 5.16667V21.8333C24.6095 23.3737 23.3737 24.6095 21.8333 24.6095H5.16667C3.62627 24.6095 2.39048 23.3737 2.39048 21.8333V5.16667C2.39048 3.62627 3.62627 2.39048 5.16667 2.39048Z" fill="#E2B017" stroke="#E2B017" stroke-width="0.4"/>
</svg>
