<svg width="25" height="25" viewBox="0 0 25 25" fill="none" xmlns="http://www.w3.org/2000/svg">
<path d="M4.16667 0C1.87174 0 0 1.87174 0 4.16667V20.8333C0 23.1283 1.87174 25 4.16667 25H20.8333C23.1283 25 25 23.1283 25 20.8333V4.16667C25 1.87174 23.1283 0 20.8333 0H4.16667ZM4.16667 1.19048H20.8333C22.4842 1.19048 23.8095 2.51581 23.8095 4.16667V20.8333C23.8095 22.4842 22.4842 23.8095 20.8333 23.8095H4.16667C2.51581 23.8095 1.19048 22.4842 1.19048 20.8333V4.16667C1.19048 2.51581 2.51581 1.19048 4.16667 1.19048Z" fill="#FB0BD4"/>
<path d="M12.508 4.16663C12.3332 4.16647 12.1572 4.22448 12.021 4.34147C11.7488 4.57545 11.7424 4.96452 12.0007 5.21086C12.0208 5.22999 12.4998 5.69592 12.4998 6.63371H13.8887C13.8887 5.18473 13.0832 4.42658 12.9908 4.34509C12.8565 4.22562 12.6827 4.16678 12.508 4.16663ZM12.4998 6.63371H10.4165C7.08734 6.63371 4.1665 9.18963 4.1665 12.8074C4.1665 17.8545 8.0071 19.2074 10.5481 20.1026C11.1918 20.3298 11.7476 20.5262 12.1309 20.7392C12.2448 20.8028 12.3721 20.8333 12.4998 20.8333C12.663 20.8333 12.8264 20.782 12.9556 20.6814C13.3396 20.385 14.0254 20.1435 14.8205 19.8638C17.215 19.0217 20.8332 17.7483 20.8332 12.8074C20.8332 9.26248 18.1777 6.82654 14.9562 6.65059C13.1944 6.65059 9.72206 8.52164 9.72206 12.1901C9.72206 13.9261 10.3275 14.9734 10.3338 14.9839C10.5157 15.284 10.3885 15.6596 10.0516 15.8208C9.94609 15.8708 9.83453 15.8943 9.72342 15.8943C9.47619 15.8943 9.23605 15.7774 9.11035 15.5699C9.0791 15.5175 8.33317 14.262 8.33317 12.1901C8.33317 7.25108 12.4998 6.63371 12.4998 6.63371Z" fill="#FB0BD4"/>
</svg>
