<svg width="27" height="27" viewBox="0 0 27 27" fill="none" xmlns="http://www.w3.org/2000/svg">
<path d="M9.08814 5.16663C8.30809 5.16663 7.56 5.37734 7.00842 5.75241C6.45685 6.12749 6.14697 6.63619 6.14697 7.16663C6.14697 7.69706 6.45685 8.20577 7.00842 8.58084C7.56 8.95591 8.30809 9.16663 9.08814 9.16663C9.86818 9.16663 10.6163 8.95591 11.1679 8.58084C11.7194 8.20577 12.0293 7.69706 12.0293 7.16663C12.0293 6.63619 11.7194 6.12749 11.1679 5.75241C10.6163 5.37734 9.86818 5.16663 9.08814 5.16663ZM17.9116 5.16663C17.1316 5.16663 16.3835 5.37734 15.8319 5.75241C15.2803 6.12749 14.9705 6.63619 14.9705 7.16663C14.9705 7.69706 15.2803 8.20577 15.8319 8.58084C16.3835 8.95591 17.1316 9.16663 17.9116 9.16663C18.6917 9.16663 19.4398 8.95591 19.9913 8.58084C20.5429 8.20577 20.8528 7.69706 20.8528 7.16663C20.8528 6.63619 20.5429 6.12749 19.9913 5.75241C19.4398 5.37734 18.6917 5.16663 17.9116 5.16663ZM8.10775 10.5C6.49504 10.5 5.16659 11.4033 5.16659 12.5V16.5C5.16329 16.6722 5.25814 16.8386 5.43126 16.9643C5.60438 17.0901 5.84233 17.1654 6.09527 17.1744V21.2343C6.09527 21.525 6.54939 21.8333 7.10821 21.8333C7.64154 21.8333 8.08394 21.5521 8.11924 21.1901L8.54816 16.8099C8.5658 16.6359 8.77859 16.5 9.03644 16.5C9.29428 16.5 9.50707 16.6365 9.52471 16.8112L9.95363 21.1901C9.98893 21.5514 10.4313 21.8333 10.9647 21.8333C11.5235 21.8333 11.9776 21.5245 11.9776 21.1445V11.8333H17.9116C18.0415 11.8345 18.1705 11.8182 18.2911 11.7853C18.4116 11.7523 18.5214 11.7034 18.6139 11.6414C18.7064 11.5794 18.7799 11.5055 18.83 11.4239C18.8801 11.3424 18.906 11.255 18.906 11.1666C18.906 11.0783 18.8801 10.9908 18.83 10.9093C18.7799 10.8278 18.7064 10.7539 18.6139 10.6919C18.5214 10.6298 18.4116 10.5809 18.2911 10.548C18.1705 10.515 18.0415 10.4987 17.9116 10.5H8.10775ZM20.8298 11.0065C20.8357 11.0605 20.8528 11.112 20.8528 11.1666C20.8528 12.2713 19.5361 13.1666 17.9116 13.1666H13.9901V16.5C13.9901 16.8686 14.4293 17.1666 14.9705 17.1666V21.1445C14.9705 21.5245 15.4246 21.8333 15.9834 21.8333C16.5167 21.8333 16.9591 21.5521 16.9944 21.1901L17.4233 16.8099C17.441 16.6359 17.6538 16.5 17.9116 16.5C18.1695 16.5 18.3823 16.6365 18.3999 16.8112L18.8288 21.1901C18.8641 21.5514 19.3065 21.8333 19.8398 21.8333C20.3987 21.8333 20.8528 21.5245 20.8528 21.1445V17.1666C21.394 17.1666 21.8332 16.8686 21.8332 16.5V12.5C21.8332 11.904 21.4406 11.3731 20.8298 11.0065Z" fill="#B44CF3"/>
<path d="M5.16667 0.8C2.76129 0.8 0.8 2.76129 0.8 5.16667V21.8333C0.8 24.2387 2.76129 26.2 5.16667 26.2H21.8333C24.2387 26.2 26.2 24.2387 26.2 21.8333V5.16667C26.2 2.76129 24.2387 0.8 21.8333 0.8H5.16667ZM5.16667 2.39048H21.8333C23.3737 2.39048 24.6095 3.62627 24.6095 5.16667V21.8333C24.6095 23.3737 23.3737 24.6095 21.8333 24.6095H5.16667C3.62627 24.6095 2.39048 23.3737 2.39048 21.8333V5.16667C2.39048 3.62627 3.62627 2.39048 5.16667 2.39048Z" fill="#B44CF3" stroke="#B44CF3" stroke-width="0.4"/>
</svg>
