<svg width="27" height="27" viewBox="0 0 27 27" fill="none" xmlns="http://www.w3.org/2000/svg">
<path d="M7.54769 5.16663C7.15519 5.16663 6.83317 5.47913 6.83317 5.86107C5.9165 5.86107 5.1665 6.48607 5.1665 7.24996V7.9444H21.8332V7.24996C21.8332 6.48607 21.0832 5.86107 20.1665 5.86107C20.1665 5.47913 19.8445 5.16663 19.452 5.16663H7.54769ZM5.99984 9.33329V10.7222L6.83317 11.4166V20.4444C6.83317 21.2118 7.579 21.8333 8.49984 21.8333H18.4998C19.4207 21.8333 20.1665 21.2118 20.1665 20.4444V11.4166L20.9998 10.7222V9.33329H5.99984ZM10.1665 10.7222H12.6665C14.0448 10.7222 15.1665 11.6569 15.1665 12.8055C15.1665 13.5437 14.7003 14.1891 14.0028 14.5593L15.0851 15.822L16.1398 14.5036C16.394 14.1842 16.9112 14.0992 17.2954 14.3124C17.6787 14.5256 17.7824 14.956 17.5265 15.2754L16.1219 17.0319L17.5119 18.6527C17.7794 18.9638 17.6907 19.3975 17.3166 19.6198C17.1699 19.7073 17.0023 19.75 16.8348 19.75C16.5748 19.75 16.3186 19.6479 16.1561 19.4583L15.134 18.2661L14.1932 19.4407C14.0332 19.6421 13.7674 19.75 13.4982 19.75C13.3399 19.75 13.1801 19.7118 13.0376 19.6333C12.6543 19.4201 12.5506 18.9898 12.8065 18.6703L14.0972 17.0563L12.2384 14.8888H10.9998V16.2777C10.9998 16.6618 10.6273 16.9722 10.1665 16.9722C9.70567 16.9722 9.33317 16.6618 9.33317 16.2777V11.4166C9.33317 11.0326 9.70567 10.7222 10.1665 10.7222ZM10.9998 12.1111V13.5H12.6665C13.1265 13.5 13.4998 13.1888 13.4998 12.8055C13.4998 12.4222 13.1265 12.1111 12.6665 12.1111H10.9998Z" fill="#2D9CDB"/>
<path d="M5.16667 0.8C2.76129 0.8 0.8 2.76129 0.8 5.16667V21.8333C0.8 24.2387 2.76129 26.2 5.16667 26.2H21.8333C24.2387 26.2 26.2 24.2387 26.2 21.8333V5.16667C26.2 2.76129 24.2387 0.8 21.8333 0.8H5.16667ZM5.16667 2.39048H21.8333C23.3737 2.39048 24.6095 3.62627 24.6095 5.16667V21.8333C24.6095 23.3737 23.3737 24.6095 21.8333 24.6095H5.16667C3.62627 24.6095 2.39048 23.3737 2.39048 21.8333V5.16667C2.39048 3.62627 3.62627 2.39048 5.16667 2.39048Z" fill="#2D9CDB" stroke="#2D9CDB" stroke-width="0.4"/>
</svg>
