<svg width="27" height="27" viewBox="0 0 27 27" fill="none" xmlns="http://www.w3.org/2000/svg">
<path d="M21.0998 5.17531C20.7916 5.1312 20.4733 5.25889 20.2832 5.52659L17.2368 9.81386L16.381 9.33509C15.7851 9.00176 15.0366 9.12916 14.5838 9.64026L13.7699 10.5598L20.602 14.4212L20.9736 13.2209C21.1771 12.5654 20.8934 11.8575 20.2941 11.5228L19.6634 11.1702L21.7617 6.36343C21.9367 5.96205 21.7808 5.49366 21.3995 5.27839C21.3044 5.2244 21.2025 5.19001 21.0998 5.17531ZM5.86096 7.94488C5.67678 7.94488 5.50014 8.01804 5.36991 8.14827C5.23967 8.2785 5.1665 8.45513 5.1665 8.63931C5.1665 8.82348 5.23967 9.00011 5.36991 9.13034C5.50014 9.26057 5.67678 9.33373 5.86096 9.33373C6.04515 9.33373 6.22179 9.26057 6.35202 9.13034C6.48226 9.00011 6.55542 8.82348 6.55542 8.63931C6.55542 8.45513 6.48226 8.2785 6.35202 8.14827C6.22179 8.01804 6.04515 7.94488 5.86096 7.94488ZM7.24989 10.0282C6.88152 10.0282 6.52824 10.1745 6.26777 10.4349C6.0073 10.6954 5.86096 11.0487 5.86096 11.417C5.86096 11.7854 6.0073 12.1386 6.26777 12.3991C6.52824 12.6595 6.88152 12.8059 7.24989 12.8059C7.61825 12.8059 7.97153 12.6595 8.232 12.3991C8.49247 12.1386 8.63881 11.7854 8.63881 11.417C8.63881 11.0487 8.49247 10.6954 8.232 10.4349C7.97153 10.1745 7.61825 10.0282 7.24989 10.0282ZM12.8137 11.7819C9.3796 15.279 5.1665 15.4154 5.1665 15.4154L8.57234 17.4756C8.57234 17.4756 10.1751 17.6434 10.9487 17.4865C10.2202 17.9802 9.76459 18.2297 9.76459 18.2297L11.6147 19.3622C11.6147 19.3622 13.5969 19.27 16.0622 17.7957C15.5782 18.8554 13.8852 20.6141 13.8852 20.6141L16.5207 21.8334C16.5207 21.8334 18.6916 20.26 20.1639 15.9226L12.8137 11.7819Z" fill="#9E6767"/>
<path d="M5.16667 0.8C2.76129 0.8 0.8 2.76129 0.8 5.16667V21.8333C0.8 24.2387 2.76129 26.2 5.16667 26.2H21.8333C24.2387 26.2 26.2 24.2387 26.2 21.8333V5.16667C26.2 2.76129 24.2387 0.8 21.8333 0.8H5.16667ZM5.16667 2.39048H21.8333C23.3737 2.39048 24.6095 3.62627 24.6095 5.16667V21.8333C24.6095 23.3737 23.3737 24.6095 21.8333 24.6095H5.16667C3.62627 24.6095 2.39048 23.3737 2.39048 21.8333V5.16667C2.39048 3.62627 3.62627 2.39048 5.16667 2.39048Z" fill="#9E6767" stroke="#9E6767" stroke-width="0.4"/>
</svg>
