<svg width="27" height="27" viewBox="0 0 27 27" fill="none" xmlns="http://www.w3.org/2000/svg">
<path d="M19.9302 5.16675C19.4284 5.16675 18.9472 5.36615 18.5923 5.7211C18.2375 6.07605 18.0381 6.55746 18.0381 7.05943C18.0381 7.5614 18.2375 8.04281 18.5923 8.39776C18.9472 8.7527 19.4284 8.95211 19.9302 8.95211C20.432 8.95211 20.9133 8.7527 21.2681 8.39776C21.623 8.04281 21.8223 7.5614 21.8223 7.05943C21.8223 6.55746 21.623 6.07605 21.2681 5.7211C20.9133 5.36615 20.432 5.16675 19.9302 5.16675ZM16.146 8.19504C15.7029 8.19539 15.2739 8.35134 14.9339 8.63568L11.3049 11.5486C11.2784 11.5662 11.2522 11.5844 11.2266 11.6033L8.75946 12.8558L6.60276 10.1188L6.57763 10.0774C6.51405 9.96749 6.42387 9.87537 6.31538 9.80948C6.20689 9.74359 6.08358 9.70605 5.95679 9.70031C5.81926 9.69424 5.68269 9.7258 5.56176 9.79159C5.44083 9.85739 5.34013 9.95493 5.27049 10.0737C5.20086 10.1925 5.16492 10.328 5.16656 10.4657C5.16819 10.6034 5.20734 10.738 5.27977 10.8551L7.55029 14.6405C7.63124 14.7758 7.75237 14.8824 7.89679 14.9454C8.04121 15.0085 8.20171 15.025 8.35591 14.9924L8.35887 14.9998L10.8304 14.469L10.1638 17.203L7.6582 20.5344L7.62568 20.5714C7.55859 20.6464 7.50712 20.734 7.47428 20.8292C7.44144 20.9243 7.4279 21.0251 7.43444 21.1255C7.44099 21.2259 7.46748 21.3241 7.51238 21.4141C7.55728 21.5042 7.61969 21.5844 7.69595 21.6501C7.7722 21.7158 7.86078 21.7656 7.95651 21.7966C8.05223 21.8276 8.15318 21.8392 8.25344 21.8307C8.35371 21.8223 8.45128 21.7939 8.54044 21.7472C8.62961 21.7006 8.70859 21.6367 8.77276 21.5591L11.8001 18.0488C11.8755 17.9607 11.9296 17.8565 11.9583 17.7442L13.5119 14.6568L15.5828 12.9785L15.5873 13.7089C15.5878 13.8194 15.6126 13.9284 15.6597 14.0283L17.3537 17.6037C17.3962 17.6937 17.456 17.7743 17.5297 17.8412C17.6034 17.908 17.6895 17.9596 17.7831 17.9931C17.8767 18.0267 17.976 18.0414 18.0753 18.0365C18.1747 18.0317 18.2721 18.0073 18.362 17.9647C18.4519 17.9222 18.5325 17.8624 18.5993 17.7886C18.666 17.7149 18.7176 17.6288 18.7511 17.5351C18.7846 17.4415 18.7993 17.3421 18.7944 17.2428C18.7895 17.1434 18.7651 17.046 18.7225 16.9561L17.0995 13.5315L17.0877 11.7571L17.2931 11.5915C17.3091 11.5794 17.3249 11.5671 17.3404 11.5545L18.2525 13.2106C18.2868 13.2725 18.3296 13.3292 18.3796 13.3792L20.5289 15.5425C20.5984 15.6153 20.6818 15.6735 20.7741 15.7137C20.8665 15.7539 20.9659 15.7753 21.0665 15.7766C21.1672 15.7779 21.2671 15.7591 21.3604 15.7213C21.4538 15.6835 21.5386 15.6274 21.61 15.5564C21.6814 15.4854 21.7379 15.4008 21.7762 15.3077C21.8145 15.2145 21.8339 15.1147 21.8331 15.014C21.8324 14.9133 21.8116 14.8137 21.7719 14.7211C21.7322 14.6286 21.6745 14.5449 21.6021 14.4749L19.5282 12.387L17.945 9.50956C17.8227 9.12826 17.5827 8.79558 17.2594 8.55938C16.9362 8.32317 16.5464 8.19561 16.146 8.19504ZM11.2266 20.3082C10.8088 20.3082 10.4697 20.6474 10.4697 21.0653C10.4697 21.4832 10.8088 21.8223 11.2266 21.8223H13.4971C13.9149 21.8223 14.2539 21.4832 14.2539 21.0653C14.2539 20.6474 13.9149 20.3082 13.4971 20.3082H11.2266Z" fill="#EB5757"/>
<path d="M5.16667 0.8C2.76129 0.8 0.8 2.76129 0.8 5.16667V21.8333C0.8 24.2387 2.76129 26.2 5.16667 26.2H21.8333C24.2387 26.2 26.2 24.2387 26.2 21.8333V5.16667C26.2 2.76129 24.2387 0.8 21.8333 0.8H5.16667ZM5.16667 2.39048H21.8333C23.3737 2.39048 24.6095 3.62627 24.6095 5.16667V21.8333C24.6095 23.3737 23.3737 24.6095 21.8333 24.6095H5.16667C3.62627 24.6095 2.39048 23.3737 2.39048 21.8333V5.16667C2.39048 3.62627 3.62627 2.39048 5.16667 2.39048Z" fill="#EB5757" stroke="#EB5757" stroke-width="0.4"/>
</svg>
