<svg width="27" height="27" viewBox="0 0 27 27" fill="none" xmlns="http://www.w3.org/2000/svg">
<path d="M5.16667 0.8C2.76129 0.8 0.8 2.76129 0.8 5.16667V21.8333C0.8 24.2387 2.76129 26.2 5.16667 26.2H21.8333C24.2387 26.2 26.2 24.2387 26.2 21.8333V5.16667C26.2 2.76129 24.2387 0.8 21.8333 0.8H5.16667ZM5.16667 2.39048H21.8333C23.3737 2.39048 24.6095 3.62627 24.6095 5.16667V21.8333C24.6095 23.3737 23.3737 24.6095 21.8333 24.6095H5.16667C3.62627 24.6095 2.39048 23.3737 2.39048 21.8333V5.16667C2.39048 3.62627 3.62627 2.39048 5.16667 2.39048Z" fill="#5BA29E" stroke="#5BA29E" stroke-width="0.4"/>
<path d="M13.5191 5.16702C13.4053 5.16304 13.2927 5.19493 13.1928 5.25942C13.0929 5.32391 13.0094 5.41868 12.9507 5.53397C12.9507 5.53397 12.2922 6.82836 11.6349 8.53765C11.5543 8.74715 11.4758 8.97721 11.3958 9.19758C10.8662 8.29318 10.2033 7.4587 9.36256 6.81387C9.254 6.7302 9.12654 6.68738 8.99698 6.69105C8.83302 6.69591 8.67686 6.77486 8.56065 6.91165C8.44444 7.04845 8.37702 7.23268 8.37225 7.42644C8.35963 7.94759 8.3095 8.46292 8.2458 8.97119C7.57921 8.18681 6.80565 7.59232 5.89334 7.44715C5.87218 7.44343 5.85087 7.44096 5.82949 7.43976C5.72343 7.43559 5.61816 7.4626 5.52311 7.51837C5.42806 7.57415 5.34621 7.65693 5.28491 7.7593C5.22361 7.86167 5.18476 7.98043 5.17187 8.10491C5.15897 8.2294 5.17242 8.35572 5.21102 8.47255C5.34592 8.88248 5.40212 9.63205 5.40758 10.4508C5.41303 11.2696 5.38139 12.155 5.45265 12.9633C5.54524 14.0176 6.00315 14.8781 6.57942 15.5112C6.85855 15.8179 7.16658 16.0774 7.4846 16.3014C7.15019 16.4653 6.74602 16.6813 6.33654 16.9835C6.07318 17.1778 5.81868 17.3955 5.60163 17.67C5.38459 17.9445 5.17789 18.303 5.1672 18.7842C5.16501 18.8861 5.18023 18.9874 5.21193 19.0821C5.24364 19.1768 5.29118 19.263 5.35173 19.3356C5.41227 19.4081 5.48456 19.4654 5.56429 19.5042C5.64401 19.5429 5.72953 19.5622 5.81572 19.561C6.60936 19.5497 7.18553 19.7162 7.82013 19.9073C8.45472 20.0983 9.15175 20.3171 10.0486 20.3171C10.4659 20.3171 10.9485 20.1732 11.417 19.8451C11.5851 20.1556 11.7721 20.439 11.9667 20.6693C12.4766 21.273 12.9614 21.6133 13.2274 21.7613C13.3128 21.8087 13.406 21.8334 13.5003 21.8334C13.5947 21.8334 13.6879 21.8087 13.7733 21.7613C14.0393 21.6133 14.5241 21.273 15.034 20.6693C15.2285 20.439 15.4155 20.1556 15.5836 19.8451C16.0522 20.1732 16.5348 20.3171 16.952 20.3171C17.8489 20.3171 18.5459 20.0983 19.1805 19.9073C19.8151 19.7162 20.3913 19.5497 21.1849 19.561C21.2711 19.5622 21.3566 19.5429 21.4364 19.5042C21.5161 19.4654 21.5884 19.4081 21.6489 19.3356C21.7095 19.263 21.757 19.1768 21.7887 19.0821C21.8204 18.9874 21.8356 18.8861 21.8335 18.7842C21.8228 18.303 21.6161 17.9445 21.399 17.67C21.182 17.3955 20.9275 17.1778 20.6641 16.9835C20.2546 16.6813 19.8505 16.4653 19.5161 16.3014C19.8341 16.0774 20.1421 15.8179 20.4212 15.5112C20.9975 14.8781 21.4554 14.0176 21.548 12.9633C21.6193 12.155 21.5876 11.2696 21.5931 10.4508C21.5985 9.63205 21.6547 8.88248 21.7896 8.47255C21.8268 8.36014 21.8407 8.23887 21.8302 8.11882C21.8197 7.99878 21.7851 7.88343 21.7292 7.7824C21.6734 7.68136 21.5979 7.59755 21.5091 7.53796C21.4203 7.47836 21.3208 7.44469 21.2187 7.43976C21.1815 7.43839 21.1442 7.44087 21.1073 7.44715C20.195 7.59232 19.4214 8.18681 18.7549 8.97119C18.6912 8.46294 18.641 7.94759 18.6284 7.42644C18.6238 7.23465 18.5577 7.05209 18.4436 6.9156C18.3296 6.77911 18.1759 6.69886 18.0137 6.69105C17.8809 6.6845 17.7496 6.7269 17.6381 6.81239C16.7972 7.45738 16.1333 8.29143 15.6036 9.1961C15.5238 8.97635 15.4461 8.74658 15.3658 8.53765C14.7085 6.82836 14.0499 5.53397 14.0499 5.53397C13.9946 5.42513 13.9169 5.33448 13.8242 5.27036C13.7314 5.20624 13.6265 5.1707 13.5191 5.16702ZM13.5003 7.56997C13.74 8.08411 13.8493 8.25572 14.1989 9.16502C14.8237 10.7896 15.4234 12.8273 15.4234 14.2225C15.4234 15.3288 15.0683 15.7926 14.6396 16.1164C14.211 16.4402 13.6362 16.5307 13.5003 16.5307C13.3644 16.5307 12.7897 16.4402 12.361 16.1164C11.9324 15.7926 11.5773 15.3288 11.5773 14.2225C11.5773 12.8273 12.177 10.7896 12.8017 9.16502C13.1514 8.25572 13.2607 8.08411 13.5003 7.56997ZM17.5204 8.949C17.6094 9.69927 17.6765 10.505 17.7783 11.1389C17.9489 12.201 18.0393 13.0758 17.9373 13.598C17.6704 14.9643 17.0539 15.621 16.3661 15.9966C16.5721 15.5015 16.7054 14.9131 16.7054 14.2225C16.7054 13.1817 16.4842 12.0695 16.182 10.9879C16.5349 10.2318 16.9947 9.55519 17.5204 8.949ZM9.48024 8.95048C10.0057 9.55641 10.4646 10.2336 10.8173 10.9894C10.5155 12.0704 10.2953 13.1823 10.2953 14.2225C10.2953 14.9131 10.4285 15.5015 10.6346 15.9966C9.94675 15.621 9.33022 14.9643 9.06334 13.598C8.96137 13.0758 9.05174 12.2008 9.22234 11.1389C9.32412 10.5053 9.39127 9.70045 9.48024 8.95048ZM6.57316 9.40621C7.04532 9.74383 7.51694 10.2094 7.9591 10.8799C7.78594 11.9576 7.62367 12.9641 7.81387 13.9384C7.88917 14.3238 7.99958 14.6643 8.12436 14.9845C7.87639 14.8086 7.64633 14.615 7.45205 14.4015C7.04126 13.9501 6.78485 13.4491 6.72841 12.8064C6.6721 12.1678 6.69536 11.3049 6.6896 10.439C6.68723 10.0837 6.59592 9.75644 6.57316 9.40621ZM20.4275 9.40621C20.4047 9.75644 20.3134 10.0837 20.3111 10.439C20.3053 11.3049 20.3285 12.1678 20.2722 12.8064C20.2158 13.4491 19.9594 13.9501 19.5486 14.4015C19.3543 14.615 19.1243 14.8086 18.8763 14.9845C19.0011 14.6643 19.1115 14.3238 19.1868 13.9384C19.377 12.9641 19.2147 11.9578 19.0416 10.8799C19.4837 10.2094 19.9553 9.74383 20.4275 9.40621ZM9.41639 17.2735C9.96209 17.4682 10.2872 17.5471 10.5983 17.6123C10.6074 17.6161 10.6167 17.622 10.6258 17.6256C10.7447 17.673 10.8611 17.7112 10.9763 17.747C10.953 17.8412 10.9363 17.9396 10.9363 18.0459C10.9363 18.1632 10.9458 18.2757 10.9563 18.3877C10.6175 18.711 10.3069 18.802 10.0486 18.802C9.32634 18.802 8.77856 18.6316 8.13562 18.438C7.83366 18.3471 7.39503 18.3284 7.0389 18.2545C7.44282 17.9609 7.9485 17.698 8.22827 17.5724C8.53568 17.4349 8.88236 17.3651 9.41639 17.2735ZM17.5843 17.2735C18.1177 17.365 18.464 17.4352 18.7711 17.5724C19.0508 17.6979 19.5575 17.9606 19.9618 18.2545C19.6056 18.3284 19.167 18.3471 18.865 18.438C18.2221 18.6316 17.6743 18.802 16.952 18.802C16.6937 18.802 16.3832 18.711 16.0443 18.3877C16.0549 18.2757 16.0644 18.1632 16.0644 18.0459C16.0644 17.9432 16.0468 17.8437 16.023 17.747C16.1387 17.7112 16.2555 17.6732 16.3749 17.6256C16.384 17.622 16.3933 17.6161 16.4024 17.6123C16.7135 17.5471 17.0386 17.4682 17.5843 17.2735ZM13.4891 18.0459C13.4928 18.0459 13.4966 18.0459 13.5003 18.0459C13.5003 18.0459 13.9443 18.049 14.3567 18.1302C14.5193 18.1622 14.6378 18.2109 14.7348 18.253C14.6753 18.7455 14.4531 19.2141 14.1276 19.5995C13.8681 19.9067 13.6817 20.0187 13.5003 20.1514C13.3189 20.0187 13.1325 19.9067 12.8731 19.5995C12.5439 19.2097 12.3177 18.7355 12.2621 18.2367C12.3558 18.1954 12.4754 18.1474 12.639 18.1169C13.0475 18.0406 13.4891 18.0459 13.4891 18.0459Z" fill="#5BA29E"/>
</svg>
