<svg width="571" height="306" viewBox="0 0 571 306" fill="none" xmlns="http://www.w3.org/2000/svg">
<path d="M378.574 46.0703C378.574 46.0703 379.821 41.0232 381.433 34.8093C383.045 28.5954 384.404 23.5483 384.404 23.555C384.404 23.5617 383.157 28.6021 381.536 34.8226C379.914 41.0432 378.602 46.0769 378.574 46.0703Z" fill="#E0E0E0"/>
<path d="M394.152 48.1237C394.152 48.1237 395.399 43.0699 397.02 36.856C398.642 30.6422 399.973 25.6017 400.001 25.6017C400.029 25.6017 398.754 30.6555 397.142 36.8694C395.53 43.0832 394.19 48.1237 394.152 48.1237Z" fill="#E0E0E0"/>
<path d="M361.543 20.3948C361.543 20.3948 363.258 20.5748 365.348 20.8481C367.438 21.1215 369.144 21.3682 369.097 21.3882C369.05 21.4082 367.382 21.2082 365.292 20.9348C363.202 20.6615 361.543 20.3948 361.543 20.3948Z" fill="#E0E0E0"/>
<path d="M348.311 30.9023C348.311 30.9023 349.407 31.0023 350.747 31.1756C351.562 31.2691 352.369 31.3915 353.166 31.5423C353.166 31.5423 352.069 31.4423 350.729 31.2623C349.914 31.1729 349.107 31.0527 348.311 30.9023Z" fill="#E0E0E0"/>
<path d="M347.346 24.675C347.346 24.675 348.892 24.8351 350.795 25.0818C352.697 25.3284 354.235 25.5551 354.225 25.5818C354.216 25.6085 352.679 25.4218 350.776 25.1684C348.873 24.9151 347.336 24.7017 347.346 24.675Z" fill="#E0E0E0"/>
<path d="M348.592 36.6961C348.592 36.6961 350.138 36.8561 352.041 37.1028C353.944 37.3495 355.481 37.5762 355.471 37.5962C355.462 37.6162 353.925 37.4428 352.022 37.1895C350.12 36.9361 348.582 36.7161 348.592 36.6961Z" fill="#E0E0E0"/>
<path d="M387.928 24.675C387.928 24.675 390.121 24.9217 392.801 25.2751C395.482 25.6285 397.656 25.9418 397.656 25.9418C397.656 25.9418 395.463 25.7018 392.783 25.3484C390.102 24.9951 387.928 24.7017 387.928 24.675Z" fill="white"/>
<path d="M346.52 28.5821C346.485 28.5432 346.46 28.5003 346.445 28.4554C346.397 28.3353 346.363 28.2127 346.342 28.0887C346.318 27.9046 346.318 27.7194 346.342 27.5353C346.377 27.3084 346.446 27.0849 346.548 26.8686C346.657 26.6537 346.798 26.4479 346.97 26.2552C347.109 26.1001 347.272 25.9569 347.457 25.8285C347.58 25.7388 347.715 25.6583 347.86 25.5885L348.02 25.5151C348.02 25.5151 347.814 25.6418 347.523 25.8685C347.35 26.0017 347.196 26.1469 347.064 26.3019C346.901 26.4883 346.769 26.6874 346.67 26.8953C346.565 27.1114 346.493 27.3349 346.455 27.562C346.431 27.7416 346.431 27.9224 346.455 28.102C346.464 28.3954 346.539 28.5754 346.52 28.5821Z" fill="white"/>
<path d="M345.696 22.575C345.561 22.4989 345.455 22.4004 345.386 22.2883C345.19 22.0281 345.09 21.7368 345.096 21.4416C345.11 21.147 345.222 20.859 345.424 20.6015C345.502 20.4934 345.614 20.3998 345.752 20.3281C345.752 20.3281 345.64 20.4415 345.508 20.6348C345.331 20.8865 345.235 21.163 345.227 21.4445C345.219 21.7259 345.299 22.005 345.461 22.2616C345.547 22.3632 345.625 22.4678 345.696 22.575Z" fill="white"/>
<path d="M347.682 35.0626C347.506 34.9955 347.355 34.8995 347.242 34.7825C346.949 34.5114 346.793 34.1777 346.801 33.8358C346.812 33.4958 346.98 33.1679 347.279 32.9024C347.513 32.7024 347.72 32.6224 347.729 32.6357C347.595 32.7298 347.47 32.83 347.354 32.9357C347.086 33.1995 346.941 33.5168 346.941 33.8425C346.941 34.1681 347.086 34.4854 347.354 34.7492C347.513 34.9359 347.691 35.0626 347.682 35.0626Z" fill="white"/>
<path d="M349.463 40.8032C349.333 40.72 349.231 40.6176 349.163 40.5031C348.977 40.2309 348.881 39.9323 348.881 39.6297C348.881 39.3272 348.977 39.0285 349.163 38.7563C349.234 38.6432 349.336 38.5413 349.463 38.4563C349.463 38.4563 349.36 38.583 349.238 38.783C349.08 39.0512 348.999 39.339 348.999 39.6297C348.999 39.9205 349.08 40.2083 349.238 40.4765C349.36 40.6832 349.482 40.7965 349.463 40.8032Z" fill="white"/>
<path d="M365.218 16.3544C365.171 16.2749 365.137 16.1923 365.115 16.1078C365.071 16.0094 365.037 15.9092 365.011 15.8077C365.011 15.6877 364.936 15.5544 364.908 15.401C364.834 15.0523 364.793 14.7003 364.786 14.3476C364.777 13.9018 364.815 13.456 364.899 13.0142C364.993 12.5853 365.13 12.1619 365.311 11.7474C365.459 11.4074 365.64 11.0754 365.855 10.754C365.939 10.6206 366.033 10.5006 366.108 10.3939L366.324 10.1272C366.385 10.0506 366.454 9.97713 366.53 9.90723C366.491 9.98944 366.437 10.0678 366.37 10.1406L366.174 10.4139C366.099 10.5206 366.014 10.6406 365.93 10.7806C365.761 11.054 365.583 11.394 365.414 11.7674C365.25 12.1818 365.119 12.6025 365.021 13.0275C364.941 13.4541 364.9 13.8839 364.899 14.3143C364.902 14.6642 364.934 15.0137 364.993 15.361C364.993 15.5144 365.049 15.6477 365.077 15.7611C365.105 15.8744 365.133 15.9811 365.161 16.0611C365.196 16.1569 365.215 16.2554 365.218 16.3544Z" fill="white"/>
<path d="M361.44 165.934L362.499 166.794L368.235 178.308C367.683 179.202 366.879 180.005 365.873 180.669C364.867 181.333 363.681 181.843 362.387 182.169L345.46 186.409C345.46 186.409 342.714 187.022 341.571 184.502C341.571 184.502 340.727 183.269 342.095 182.602C342.095 182.602 338.431 182.962 337.409 181.202C336.388 179.442 338.122 178.775 338.122 178.775C338.122 178.775 334.935 179.442 333.745 177.441C332.554 175.441 334.045 174.875 334.045 174.875C334.045 174.875 330.361 175.641 329.527 173.288C329.4 172.981 329.36 172.659 329.409 172.341C329.458 172.023 329.596 171.715 329.814 171.436C330.032 171.156 330.326 170.91 330.679 170.711C331.032 170.513 331.437 170.367 331.87 170.281L343.904 167.247L354.458 164.58C355.677 164.276 356.998 164.242 358.245 164.484C359.492 164.725 360.607 165.231 361.44 165.934Z" fill="#EBEBEB"/>
<path d="M356.596 164.407C356.596 164.407 351.497 163.627 348.414 161.74C346.925 160.791 345.66 159.679 344.665 158.446L343.727 156.706C343.577 156.416 343.274 156.178 342.883 156.043C342.492 155.907 342.042 155.885 341.628 155.98C340.377 156.34 339.354 157.014 338.752 157.873C338.15 158.732 338.009 159.719 338.357 160.647C339.622 164.287 342.425 165.98 343.231 166.901L344.037 167.834L356.596 164.407Z" fill="#EBEBEB"/>
<path d="M367.135 180.849L378.955 177.868L370.44 160.782L358.62 163.762L367.135 180.849Z" fill="#EBEBEB"/>
<path d="M367.139 180.828C367.139 180.828 365.19 177.015 362.837 172.294C360.485 167.574 358.601 163.74 358.629 163.74C358.657 163.74 360.579 167.554 362.931 172.274C365.284 176.995 367.168 180.822 367.139 180.828Z" fill="#E0E0E0"/>
<path d="M378.958 177.848C378.958 177.848 377.008 174.034 374.656 169.314C372.303 164.594 370.419 160.767 370.448 160.76C370.476 160.753 372.397 164.574 374.75 169.294C377.102 174.014 378.986 177.841 378.958 177.848Z" fill="#E0E0E0"/>
<path d="M364.721 166.6C364.877 166.911 365.159 167.181 365.53 167.377C365.902 167.573 366.347 167.687 366.81 167.703C367.272 167.72 367.731 167.638 368.129 167.469C368.526 167.3 368.844 167.051 369.043 166.754C369.242 166.456 369.312 166.123 369.245 165.797C369.178 165.471 368.977 165.167 368.667 164.922C368.357 164.678 367.952 164.504 367.503 164.423C367.054 164.342 366.582 164.357 366.145 164.467C365.559 164.616 365.08 164.925 364.813 165.324C364.546 165.724 364.513 166.183 364.721 166.6Z" fill="white"/>
<path d="M341.168 168.001C341.168 168.001 342.443 167.641 344.036 167.241C345.629 166.841 346.923 166.527 346.932 166.574C346.941 166.62 345.657 166.934 344.064 167.334C342.471 167.734 341.177 168.014 341.168 168.001Z" fill="#E0E0E0"/>
<path d="M337.953 178.942C337.953 178.942 338.759 178.701 339.781 178.448C340.393 178.278 341.019 178.134 341.655 178.015C341.058 178.203 340.448 178.37 339.828 178.515C339.214 178.681 338.588 178.823 337.953 178.942Z" fill="#E0E0E0"/>
<path d="M333.793 174.948C333.793 174.948 334.946 174.621 336.389 174.281C337.833 173.941 339.004 173.614 339.013 173.654C339.023 173.694 337.861 173.981 336.417 174.321C334.974 174.661 333.84 174.968 333.793 174.948Z" fill="#E0E0E0"/>
<path d="M341.365 182.835C341.365 182.835 342.518 182.509 343.961 182.168C345.405 181.828 346.576 181.502 346.586 181.548C346.595 181.595 345.433 181.875 343.99 182.215C342.546 182.555 341.375 182.855 341.365 182.835Z" fill="#E0E0E0"/>
<path d="M361.656 163.527C361.656 163.527 363.287 163.074 365.33 162.56C367.373 162.047 369.023 161.647 369.079 161.667C369.135 161.687 367.448 162.113 365.405 162.627C363.362 163.14 361.666 163.54 361.656 163.527Z" fill="white"/>
<path d="M335.433 177.855L335.311 177.788C335.212 177.72 335.121 177.647 335.039 177.568C334.917 177.45 334.813 177.323 334.73 177.188C334.624 177.024 334.545 176.852 334.496 176.675C334.45 176.499 334.431 176.32 334.439 176.141C334.455 175.995 334.489 175.85 334.542 175.708C334.576 175.612 334.623 175.518 334.683 175.428C334.683 175.368 334.749 175.335 334.758 175.335C334.767 175.335 334.683 175.481 334.608 175.715C334.566 175.855 334.541 175.998 334.533 176.141C334.53 176.316 334.548 176.49 334.589 176.661C334.64 176.832 334.712 177 334.805 177.162C334.89 177.293 334.987 177.42 335.095 177.542C335.292 177.742 335.442 177.848 335.433 177.855Z" fill="white"/>
<path d="M331.524 173.968C331.392 173.953 331.267 173.917 331.158 173.861C330.881 173.737 330.652 173.565 330.493 173.361C330.331 173.158 330.247 172.928 330.249 172.694C330.237 172.599 330.26 172.502 330.315 172.414C330.315 172.414 330.315 172.521 330.315 172.694C330.339 172.916 330.428 173.132 330.577 173.328C330.731 173.522 330.942 173.69 331.196 173.821C331.393 173.921 331.533 173.961 331.524 173.968Z" fill="white"/>
<path d="M339.828 181.962C339.669 181.964 339.511 181.939 339.368 181.888C339.017 181.786 338.724 181.603 338.534 181.368C338.354 181.13 338.289 180.856 338.347 180.588C338.363 180.478 338.418 180.373 338.506 180.282C338.506 180.282 338.45 180.402 338.422 180.595C338.38 180.851 338.452 181.11 338.628 181.335C338.806 181.557 339.074 181.736 339.397 181.848C339.65 181.928 339.828 181.948 339.828 181.962Z" fill="white"/>
<path d="M344.253 185.409C344.118 185.387 343.991 185.346 343.878 185.289C343.596 185.156 343.362 184.978 343.194 184.769C343.025 184.566 342.926 184.337 342.903 184.102C342.871 184.006 342.871 183.905 342.903 183.809C342.903 183.809 342.903 183.922 342.903 184.095C342.943 184.33 343.048 184.557 343.213 184.762C343.379 184.96 343.595 185.134 343.85 185.275C343.988 185.314 344.123 185.358 344.253 185.409Z" fill="white"/>
<path d="M341.459 164.214L341.243 164.067C341.161 164.012 341.082 163.954 341.009 163.894C340.915 163.82 340.812 163.74 340.709 163.647C340.467 163.435 340.244 163.213 340.043 162.98C339.798 162.684 339.582 162.377 339.397 162.06C339.22 161.74 339.079 161.41 338.975 161.073C338.886 160.799 338.826 160.52 338.797 160.24C338.797 160.127 338.797 160.013 338.797 159.92C338.797 159.826 338.797 159.746 338.797 159.68C338.789 159.611 338.789 159.542 338.797 159.473C338.811 159.542 338.811 159.611 338.797 159.68C338.797 159.746 338.797 159.826 338.797 159.92C338.797 160.013 338.797 160.12 338.797 160.24C338.797 160.473 338.9 160.753 338.994 161.06C339.306 161.994 339.887 162.873 340.7 163.64C340.803 163.74 340.896 163.82 340.981 163.894L341.206 164.08C341.296 164.118 341.381 164.163 341.459 164.214Z" fill="white"/>
<path d="M215.108 247.907H169.473C162.583 247.907 156.998 251.88 156.998 256.781V289.244C156.998 294.145 162.583 298.118 169.473 298.118H215.108C221.997 298.118 227.582 294.145 227.582 289.244V256.781C227.582 251.88 221.997 247.907 215.108 247.907Z" fill="#E0E0E0"/>
<path d="M202.428 247.907H156.793C149.904 247.907 144.318 251.88 144.318 256.781V289.244C144.318 294.145 149.904 298.118 156.793 298.118H202.428C209.317 298.118 214.903 294.145 214.903 289.244V256.781C214.903 251.88 209.317 247.907 202.428 247.907Z" fill="#EBEBEB"/>
<path d="M155.246 273.736L162.35 268.676L176.062 277.35L198.969 260.995L205.567 266.049L175.05 287.104L155.246 273.736Z" fill="white"/>
<path d="M52.1208 258.682H22.3068C15.4172 258.682 9.83203 262.655 9.83203 267.556V288.764C9.83203 293.665 15.4172 297.638 22.3068 297.638H52.1208C59.0104 297.638 64.5956 293.665 64.5956 288.764V267.556C64.5956 262.655 59.0104 258.682 52.1208 258.682Z" fill="#E0E0E0"/>
<path d="M42.2887 258.682H12.4748C5.58515 258.682 0 262.655 0 267.556V288.764C0 293.665 5.58515 297.638 12.4748 297.638H42.2887C49.1784 297.638 54.7635 293.665 54.7635 288.764V267.556C54.7635 262.655 49.1784 258.682 42.2887 258.682Z" fill="#EBEBEB"/>
<path d="M8.47266 278.723L13.9931 274.796L24.6308 281.524L42.3917 268.836L47.5185 272.763L23.8436 289.091L8.47266 278.723Z" fill="white"/>
<path d="M407.566 20.222L407.95 21.6354L404.014 36.8034C402.621 37.5312 401.034 38.0491 399.35 38.3254C397.666 38.6017 395.92 38.6305 394.22 38.4102L371.913 35.4766C371.913 35.4766 368.361 34.9099 369.354 31.6363C369.354 31.6363 369.523 29.9095 371.604 29.7961C371.604 29.7961 367.283 28.5427 367.761 26.1758C368.239 23.8089 370.695 23.8356 370.695 23.8356C370.695 23.8356 366.646 23.1089 367.067 20.442C367.489 17.7751 369.673 17.7751 369.673 17.7751C369.673 17.7751 364.987 16.9617 366.14 14.0081C366.273 13.6157 366.515 13.2461 366.851 12.9208C367.187 12.5955 367.611 12.321 368.098 12.1131C368.584 11.9053 369.124 11.7684 369.686 11.7103C370.247 11.6521 370.82 11.674 371.369 11.7746L387.237 13.8614L401.146 15.6883C402.729 15.9029 404.186 16.4491 405.33 17.2569C406.474 18.0647 407.253 19.0972 407.566 20.222Z" fill="#EBEBEB"/>
<path d="M403.592 16.3417C403.592 16.3417 398.709 13.1947 397.031 9.77445C396.253 8.06926 395.861 6.28685 395.869 4.494C395.869 4.36065 396.188 3.16055 396.422 2.18713C396.512 1.80193 396.389 1.40705 396.08 1.08432C395.771 0.7616 395.3 0.535777 394.763 0.453652C393.08 0.281265 391.367 0.552909 389.946 1.21736C388.525 1.88181 387.495 2.89314 387.05 4.06063C385.175 8.60768 386.778 11.7079 386.834 13.0881L386.881 14.4748L403.592 16.3417Z" fill="#EBEBEB"/>
<path d="M400.569 39.0831L416.145 41.1307L421.995 18.61L406.419 16.5625L400.569 39.0831Z" fill="#EBEBEB"/>
<path d="M410.584 22.4354C410.482 22.8452 410.554 23.2672 410.789 23.6483C411.024 24.0293 411.413 24.3522 411.906 24.5763C412.399 24.8004 412.974 24.9157 413.559 24.9076C414.144 24.8994 414.712 24.7683 415.192 24.5306C415.672 24.293 416.043 23.9595 416.257 23.5723C416.471 23.185 416.519 22.7613 416.395 22.3546C416.271 21.948 415.981 21.5765 415.56 21.2871C415.14 20.9977 414.609 20.8034 414.033 20.7286C413.649 20.6787 413.255 20.6833 412.873 20.7421C412.491 20.801 412.13 20.913 411.809 21.0716C411.489 21.2302 411.216 21.4324 411.005 21.6664C410.795 21.9005 410.652 22.1618 410.584 22.4354Z" fill="white"/>
<path d="M561 297.5C561 297.769 437.81 298 286.014 298C134.217 298 11 297.769 11 297.5C11 297.231 134.107 297 286.014 297C437.92 297 561 297.288 561 297.5Z" fill="#263238"/>
<path d="M349.389 277.39C349.389 277.39 345.481 258.288 345.809 247.167C346.137 236.046 345.809 223.545 345.809 223.545H347.608C347.608 223.545 346.39 245.614 347.721 258.922C349.051 272.229 352.538 277.39 352.538 277.39H349.408" fill="#263238"/>
<path d="M361.03 202.05C360.748 201.373 360.174 200.776 359.389 200.343C358.246 199.83 356.746 200.043 355.472 200.343C350.036 201.71 345.209 208.924 343.016 212.718L350.232 230.052C363.27 221.445 365.528 210.164 361.03 202.05Z" fill="#455A64"/>
<path d="M358.966 201.077C358.942 201.154 358.908 201.23 358.863 201.303L358.506 201.93C358.188 202.477 357.747 203.263 357.213 204.25C356.154 206.25 354.795 208.964 353.586 212.064C352.377 215.164 351.552 218.011 351.037 220.065C350.774 221.105 350.587 221.945 350.465 222.525C350.399 222.798 350.352 223.018 350.306 223.192C350.294 223.271 350.269 223.35 350.231 223.425C350.22 223.345 350.22 223.265 350.231 223.185C350.231 223.005 350.287 222.785 350.324 222.518C350.418 221.932 350.577 221.085 350.812 220.038C351.423 217.323 352.245 214.634 353.277 211.984C354.324 209.335 355.576 206.728 357.026 204.177C357.588 203.197 358.057 202.417 358.413 201.883C358.572 201.63 358.703 201.43 358.816 201.263C358.856 201.197 358.906 201.135 358.966 201.077Z" fill="#263238"/>
<path d="M347.025 234.199C343.739 232.869 340.989 230.959 339.039 228.655C337.089 226.35 336.005 223.727 335.891 221.038C335.638 217.198 337.297 213.431 339.171 209.824C339.286 209.497 339.558 209.209 339.94 209.011C340.25 208.927 340.586 208.902 340.914 208.937C341.242 208.972 341.552 209.066 341.814 209.211C346.725 211.211 349.706 215.004 351.299 218.871C352.431 221.434 352.807 224.135 352.405 226.805C351.786 229.615 349.909 232.208 347.054 234.199" fill="#455A64"/>
<path d="M347.025 234.199C347.013 234.122 347.013 234.043 347.025 233.966C347.025 233.793 347.025 233.573 347.025 233.299C347.025 232.726 347.025 231.892 346.922 230.859C346.731 228.177 346.312 225.505 345.666 222.858C344.916 219.758 344.007 216.984 343.333 214.978L342.536 212.597C342.451 212.337 342.377 212.124 342.33 211.931C342.286 211.871 342.252 211.809 342.227 211.744C342.275 211.814 342.312 211.888 342.339 211.964C342.405 212.131 342.489 212.344 342.601 212.597C342.826 213.157 343.126 213.931 343.539 214.958C344.26 216.958 345.207 219.731 345.966 222.845C346.611 225.49 347.003 228.163 347.138 230.846C347.138 231.872 347.138 232.712 347.138 233.286L347.091 233.953C347.083 234.036 347.061 234.119 347.025 234.199Z" fill="#263238"/>
<g opacity="0.3">
<path d="M347.027 234.199C343.741 232.869 340.991 230.959 339.041 228.655C337.091 226.35 336.007 223.727 335.893 221.038C335.64 217.198 337.299 213.431 339.173 209.824C339.288 209.497 339.56 209.209 339.942 209.011C340.252 208.927 340.587 208.902 340.916 208.937C341.244 208.972 341.554 209.066 341.816 209.211C346.727 211.211 349.708 215.004 351.301 218.871C352.433 221.434 352.809 224.135 352.407 226.805C351.788 229.615 349.911 232.208 347.055 234.199" fill="black"/>
</g>
<path d="M354.664 263.428C361.319 264.475 366.848 267.816 373.231 269.429C377.486 270.502 382.294 270.882 385.687 272.996C384.872 271.536 382.941 270.562 381.066 269.729C375.765 267.374 370.105 265.455 364.196 264.009C361.169 263.268 357.888 262.675 354.823 263.255" fill="#455A64"/>
<path d="M345.039 267.656C336.697 267.556 327.915 262.502 319.611 262.202C328.3 260.202 340.737 261.835 345.039 267.656Z" fill="#455A64"/>
<path d="M348.291 253.414C352.589 252.404 357.174 252.174 361.628 252.748C366.058 253.326 370.413 254.167 374.646 255.261C374.215 253.201 371.835 251.654 369.67 250.287C368.063 249.217 366.315 248.259 364.449 247.427C362.571 246.59 360.395 246.153 358.179 246.167C356.849 246.228 355.551 246.479 354.361 246.906C353.171 247.332 352.114 247.924 351.253 248.647C349.569 249.957 348.529 251.621 348.291 253.388" fill="#455A64"/>
<path d="M331.168 246.867C325.919 243.673 317.962 243.987 311.055 244.1C322.143 247.859 332.6 252.495 342.228 257.921C342.528 254.448 337.804 250.894 331.168 246.867Z" fill="#455A64"/>
<g opacity="0.3">
<path d="M331.168 246.867C325.919 243.673 317.962 243.987 311.055 244.1C322.143 247.859 332.6 252.495 342.228 257.921C342.528 254.448 337.804 250.894 331.168 246.867Z" fill="black"/>
</g>
<path d="M350.663 242.46C353.227 241.197 355.929 240.083 358.743 239.126C361.498 238.233 364.085 236.813 366.747 235.793C370.214 234.459 373.214 232.606 376.391 230.952C379.568 229.299 383.055 227.805 386.944 227.365C383.742 226.961 380.451 227.098 377.338 227.765C374.236 228.43 371.212 229.266 368.293 230.266C364.197 231.599 360.036 232.933 356.681 235.053C353.325 237.173 350.307 239.286 350.663 242.473" fill="#455A64"/>
<path d="M373.082 267.655L372.82 267.575L372.089 267.302C371.461 267.069 370.561 266.715 369.427 266.309C368.865 266.095 368.237 265.875 367.553 265.642C366.868 265.409 366.156 265.175 365.387 264.935C363.729 264.409 362.011 263.983 360.251 263.662C358.505 263.32 356.667 263.288 354.9 263.568C354.128 263.688 353.37 263.848 352.632 264.048C351.067 264.496 349.657 265.178 348.498 266.049C348.02 266.415 347.786 266.642 347.758 266.629C347.801 266.568 347.851 266.51 347.908 266.455C348.065 266.296 348.234 266.142 348.414 265.995C349.075 265.447 349.841 264.969 350.691 264.575C351.283 264.297 351.911 264.061 352.566 263.868C353.311 263.655 354.079 263.483 354.862 263.355C356.671 263.056 358.555 263.084 360.345 263.435C362.123 263.758 363.858 264.194 365.528 264.735C366.297 264.982 367.028 265.222 367.693 265.469C368.359 265.715 368.987 265.929 369.568 266.135C370.692 266.562 371.583 266.929 372.192 267.195L372.895 267.495C373.007 267.609 373.092 267.649 373.082 267.655Z" fill="#263238"/>
<path d="M338.807 264.715C338.989 264.73 339.167 264.766 339.332 264.822C339.797 264.941 340.251 265.082 340.691 265.242C343.625 266.304 346.052 267.96 347.664 270.002C347.906 270.31 348.119 270.628 348.301 270.956C348.384 271.072 348.443 271.195 348.479 271.323C348.433 271.323 348.123 270.836 347.477 270.082C346.637 269.106 345.626 268.21 344.468 267.416C343.301 266.633 341.997 265.96 340.588 265.415C339.51 264.949 338.788 264.749 338.807 264.715Z" fill="#263238"/>
<path d="M320.352 246.567L320.708 246.64L321.701 246.894L323.285 247.307C323.904 247.474 324.569 247.714 325.319 247.974C329.233 249.264 332.886 250.921 336.182 252.901C337.994 253.988 339.701 255.162 341.29 256.415C342.566 257.449 343.764 258.531 344.879 259.655C345.817 260.615 346.557 261.415 347.054 261.962L347.626 262.628C347.693 262.701 347.752 262.776 347.804 262.855C347.717 262.794 347.638 262.727 347.569 262.655C347.429 262.515 347.213 262.308 346.951 262.035C346.426 261.495 345.685 260.702 344.711 259.768C343.736 258.835 342.518 257.728 341.084 256.568C339.509 255.32 337.822 254.146 336.032 253.054C332.75 251.089 329.136 249.425 325.272 248.1C324.522 247.86 323.866 247.607 323.257 247.434L321.701 246.987L320.67 246.68C320.558 246.652 320.451 246.614 320.352 246.567Z" fill="#263238"/>
<path d="M360.804 250.081C360.579 250.079 360.356 250.059 360.138 250.021L359.379 249.921C359.079 249.881 358.732 249.874 358.348 249.847C356.371 249.727 354.386 250.007 352.622 250.654C351.653 251.013 350.77 251.479 350.007 252.034C349.369 252.478 348.806 252.972 348.329 253.508C347.896 254.005 347.514 254.524 347.186 255.061C347.21 254.903 347.266 254.748 347.354 254.601C347.565 254.192 347.832 253.799 348.151 253.428C348.615 252.871 349.172 252.356 349.81 251.894C350.584 251.318 351.487 250.836 352.481 250.467C354.29 249.796 356.341 249.528 358.367 249.701C358.751 249.741 359.107 249.747 359.407 249.801L360.166 249.941C360.386 249.97 360.599 250.017 360.804 250.081Z" fill="#263238"/>
<path d="M369.192 231.579C369.095 231.634 368.988 231.678 368.874 231.712L367.937 232.072C367.131 232.386 365.959 232.846 364.544 233.439C363.128 234.033 361.479 234.773 359.717 235.673C357.79 236.631 355.984 237.706 354.318 238.886C353.461 239.492 352.72 240.176 352.116 240.92C351.563 241.667 351.047 242.387 350.56 243.08C349.699 244.303 348.926 245.555 348.245 246.834C347.794 247.706 347.419 248.596 347.12 249.501C346.905 250.134 346.83 250.494 346.802 250.487C346.773 250.481 346.802 250.401 346.802 250.227C346.802 250.054 346.886 249.801 346.98 249.481C347.235 248.575 347.583 247.684 348.02 246.814C348.671 245.521 349.429 244.256 350.288 243.027C350.766 242.327 351.282 241.6 351.825 240.853C352.441 240.089 353.197 239.388 354.075 238.766C355.754 237.577 357.579 236.497 359.529 235.539C361.31 234.646 362.988 233.919 364.412 233.333C365.837 232.746 367.027 232.319 367.852 231.999L368.789 231.679C368.918 231.634 369.053 231.601 369.192 231.579Z" fill="#263238"/>
<path d="M345.798 249.547C345.722 249.384 345.665 249.217 345.629 249.047C345.535 248.681 345.413 248.221 345.263 247.674C344.869 246.168 344.343 244.68 343.689 243.22C343.013 241.766 342.219 240.341 341.308 238.953L340.493 237.68C340.381 237.529 340.293 237.37 340.23 237.206C340.377 237.342 340.5 237.49 340.596 237.646C340.821 237.933 341.13 238.36 341.533 238.886C343.498 241.64 344.842 244.597 345.517 247.647C345.648 248.234 345.741 248.707 345.788 249.034C345.815 249.204 345.818 249.376 345.798 249.547Z" fill="#263238"/>
<path d="M345.199 236.046C344.933 233.799 344.007 231.616 342.481 229.639C340.42 226.922 337.548 224.56 334.067 222.717C330.586 220.874 326.58 219.596 322.33 218.971L340.991 238.753L343.399 242.287C344.922 240.397 345.553 238.21 345.199 236.046Z" fill="#455A64"/>
<path d="M371.958 275.029H328.572V280.497H371.958V275.029Z" fill="#BB6BD9"/>
<path d="M331.814 279.417L335.507 296.385H364.309L368.714 279.417H331.814Z" fill="#BB6BD9"/>
<path d="M371.938 280.503C371.938 280.563 362.144 280.617 350.081 280.617C338.019 280.617 328.225 280.563 328.225 280.503C328.225 280.443 338.01 280.397 350.081 280.397C362.153 280.397 371.938 280.417 371.938 280.503Z" fill="#263238"/>
<path d="M102.423 251.361H63.9396C57.05 251.361 51.4648 255.334 51.4648 260.235V287.611C51.4648 292.512 57.05 296.485 63.9396 296.485H102.423C109.313 296.485 114.898 292.512 114.898 287.611V260.235C114.898 255.334 109.313 251.361 102.423 251.361Z" fill="#BB6BD9"/>
<g opacity="0.3">
<path d="M102.423 251.361H63.9396C57.05 251.361 51.4648 255.334 51.4648 260.235V287.611C51.4648 292.512 57.05 296.485 63.9396 296.485H102.423C109.313 296.485 114.898 292.512 114.898 287.611V260.235C114.898 255.334 109.313 251.361 102.423 251.361Z" fill="black"/>
</g>
<path d="M91.0364 251.361H52.5529C45.6633 251.361 40.0781 255.334 40.0781 260.235V287.611C40.0781 292.512 45.6633 296.485 52.5529 296.485H91.0364C97.9261 296.485 103.511 292.512 103.511 287.611V260.235C103.511 255.334 97.9261 251.361 91.0364 251.361Z" fill="#BB6BD9"/>
<path d="M49.8906 274.576L56.2827 270.029L68.6075 277.823L89.1801 263.129L95.1129 267.669L67.689 286.591L49.8906 274.576Z" fill="white"/>
<path d="M135.733 267.622H110.587C106.327 267.622 102.873 270.079 102.873 273.109V290.998C102.873 294.028 106.327 296.485 110.587 296.485H135.733C139.993 296.485 143.447 294.028 143.447 290.998V273.109C143.447 270.079 139.993 267.622 135.733 267.622Z" fill="#263238"/>
<path d="M128.452 267.622H103.305C99.0453 267.622 95.5918 270.079 95.5918 273.109V290.998C95.5918 294.028 99.0453 296.485 103.305 296.485H128.452C132.712 296.485 136.165 294.028 136.165 290.998V273.109C136.165 270.079 132.712 267.622 128.452 267.622Z" fill="#455A64"/>
<path d="M101.871 282.47L105.958 279.563L113.84 284.551L127.008 275.15L130.804 278.057L113.259 290.158L101.871 282.47Z" fill="white"/>
<path d="M236.027 6.16663H40.2169C36.49 6.16663 33.4688 8.31584 33.4688 10.967V205.237C33.4688 207.888 36.49 210.037 40.2169 210.037H236.027C239.754 210.037 242.775 207.888 242.775 205.237V10.967C242.775 8.31584 239.754 6.16663 236.027 6.16663Z" fill="white"/>
<path d="M236.027 210.037C236.872 210.027 237.707 209.907 238.492 209.684C239.46 209.408 240.321 208.971 241.004 208.411C241.96 207.647 242.551 206.688 242.691 205.67C242.738 201.003 242.691 194.176 242.691 185.355C242.691 167.714 242.644 142.185 242.616 110.642C242.616 94.8676 242.616 77.5928 242.616 59.0445C242.616 49.7726 242.616 40.1896 242.616 30.2954V11.4605C242.744 10.1966 242.165 8.948 241.004 7.98685C240.438 7.50661 239.741 7.11347 238.955 6.83147C238.168 6.54946 237.309 6.38452 236.43 6.34671C234.64 6.34671 232.794 6.34671 230.966 6.34671H40.2169C39.196 6.34904 38.19 6.52081 37.2788 6.84837C36.3676 7.17593 35.5765 7.65023 34.9683 8.23354C34.3506 8.82152 33.9451 9.50831 33.7874 10.2337C33.6852 10.9692 33.6539 11.7087 33.6936 12.4472V39.0628C33.6936 50.7838 33.6936 62.3248 33.6936 73.6858C33.6936 96.3544 33.6936 118.276 33.6936 139.131C33.6936 159.986 33.6936 179.801 33.6936 198.363V205.257C33.7085 206.369 34.2763 207.441 35.2963 208.284C36.3056 209.118 37.7025 209.667 39.2328 209.831C40.0011 209.893 40.7749 209.916 41.5478 209.897H57.6873H92.4873L197.516 209.951L226.074 209.984H197.516L92.4873 210.044H41.5197C40.7283 210.064 39.9359 210.044 39.1484 209.984C37.518 209.803 36.0313 209.216 34.9545 208.327C33.8777 207.437 33.2812 206.304 33.2719 205.13C33.2719 202.85 33.2719 200.552 33.2719 198.236C33.2719 179.681 33.2719 159.866 33.2719 139.005C33.2719 118.143 33.2719 96.2544 33.2719 73.5591V12.3939C33.232 11.6375 33.2665 10.88 33.375 10.127C33.5486 9.3557 33.9828 8.62586 34.6403 8.00019C35.293 7.37761 36.1416 6.87243 37.1182 6.52509C38.0947 6.17776 39.172 5.99793 40.2638 6.00002H231.013C232.887 6.00002 234.659 6.00002 236.505 6.00002C237.443 6.04346 238.359 6.22115 239.198 6.52246C240.037 6.82376 240.782 7.24248 241.388 7.7535C242.587 8.78173 243.176 10.102 243.028 11.4338V15.2608C243.028 20.3412 243.028 25.3506 243.028 30.2888C243.028 40.1696 243.028 49.7526 243.028 59.0379C243.028 77.5861 243.028 94.8609 243.028 110.636C243.028 142.178 242.963 167.707 242.944 185.349C242.944 194.176 242.944 201.017 242.869 205.67C242.725 206.703 242.117 207.676 241.135 208.444C240.437 208.998 239.563 209.426 238.586 209.691C237.986 209.86 237.354 209.963 236.711 209.997L236.027 210.037Z" fill="#263238"/>
<path d="M204.497 66.8053H111.709C108.448 66.8053 105.805 68.6859 105.805 71.0057V71.4124C105.805 73.7322 108.448 75.6127 111.709 75.6127H204.497C207.758 75.6127 210.402 73.7322 210.402 71.4124V71.0057C210.402 68.6859 207.758 66.8053 204.497 66.8053Z" fill="#E0E0E0"/>
<path d="M89.7042 61.5514H70.6593C67.9986 61.5514 65.8418 63.0857 65.8418 64.9784V78.5262C65.8418 80.4188 67.9986 81.9531 70.6593 81.9531H89.7042C92.3648 81.9531 94.5217 80.4188 94.5217 78.5262V64.9784C94.5217 63.0857 92.3648 61.5514 89.7042 61.5514Z" fill="#BB6BD9"/>
<path d="M70.2734 72.0457L73.1695 69.9922L78.7368 73.5192L88.0437 66.8719L90.7242 68.9255L78.3244 77.4795L70.2734 72.0457Z" fill="white"/>
<path d="M204.497 98.4547H111.709C108.448 98.4547 105.805 100.335 105.805 102.655V103.062C105.805 105.382 108.448 107.262 111.709 107.262H204.497C207.758 107.262 210.402 105.382 210.402 103.062V102.655C210.402 100.335 207.758 98.4547 204.497 98.4547Z" fill="#E0E0E0"/>
<path d="M89.7042 93.2074H70.6593C67.9986 93.2074 65.8418 94.7417 65.8418 96.6344V110.182C65.8418 112.075 67.9986 113.609 70.6593 113.609H89.7042C92.3648 113.609 94.5217 112.075 94.5217 110.182V96.6344C94.5217 94.7417 92.3648 93.2074 89.7042 93.2074Z" fill="#BB6BD9"/>
<path d="M70.2734 103.702L73.1695 101.648L78.7368 105.169L88.0437 98.528L90.7242 100.581L78.3244 109.136L70.2734 103.702Z" fill="white"/>
<path d="M204.497 130.111H111.709C108.448 130.111 105.805 131.991 105.805 134.311V134.718C105.805 137.037 108.448 138.918 111.709 138.918H204.497C207.758 138.918 210.402 137.037 210.402 134.718V134.311C210.402 131.991 207.758 130.111 204.497 130.111Z" fill="#E0E0E0"/>
<path d="M89.7042 124.857H70.6593C67.9986 124.857 65.8418 126.391 65.8418 128.284V141.832C65.8418 143.724 67.9986 145.259 70.6593 145.259H89.7042C92.3648 145.259 94.5217 143.724 94.5217 141.832V128.284C94.5217 126.391 92.3648 124.857 89.7042 124.857Z" fill="#BB6BD9"/>
<path d="M70.2734 135.351L73.1695 133.298L78.7368 136.824L88.0437 130.177L90.7242 132.231L78.3244 140.785L70.2734 135.351Z" fill="white"/>
<path d="M204.497 161.76H111.709C108.448 161.76 105.805 163.641 105.805 165.96V166.367C105.805 168.687 108.448 170.567 111.709 170.567H204.497C207.758 170.567 210.402 168.687 210.402 166.367V165.96C210.402 163.641 207.758 161.76 204.497 161.76Z" fill="#E0E0E0"/>
<path d="M89.7042 156.513H70.6593C67.9986 156.513 65.8418 158.047 65.8418 159.94V173.488C65.8418 175.38 67.9986 176.915 70.6593 176.915H89.7042C92.3648 176.915 94.5217 175.38 94.5217 173.488V159.94C94.5217 158.047 92.3648 156.513 89.7042 156.513Z" fill="#BB6BD9"/>
<path d="M70.2734 167.007L73.1695 164.954L78.7368 168.474L88.0437 161.827L90.7242 163.887L78.3244 172.441L70.2734 167.007Z" fill="white"/>
<path d="M92.0852 39.9697H87.5677L86.7242 41.4498H83.6406L88.3269 33.8425H91.3073L96.0404 41.4498H92.9194L92.0852 39.9697ZM91.2042 38.3962L89.8265 35.956L88.4487 38.3962H91.2042Z" fill="#263238"/>
<path d="M96.9297 33.8425H101.981C105.524 33.8425 107.952 35.3093 107.952 37.6495C107.952 39.9897 105.524 41.4498 101.981 41.4498H96.9297V33.8425ZM101.86 39.7296C102.638 39.7296 103.384 39.5098 103.934 39.1184C104.484 38.7271 104.793 38.1963 104.793 37.6428C104.793 37.0893 104.484 36.5585 103.934 36.1672C103.384 35.7758 102.638 35.5559 101.86 35.5559H99.9851V39.7296H101.86Z" fill="#263238"/>
<path d="M120.023 33.8425L115.412 41.4498H112.432L107.914 33.8425H111.176L114.081 38.7962L117.043 33.8425H120.023Z" fill="#263238"/>
<path d="M127.448 39.9697H122.911L122.077 41.4498H118.984L123.671 33.8425H126.66L131.394 41.4498H128.244L127.448 39.9697ZM126.51 38.3895L125.133 35.9493L123.849 38.3962L126.51 38.3895Z" fill="#263238"/>
<path d="M142.452 33.8425V41.4498H139.969L135.282 37.3961V41.4498H132.283V33.8425H134.776L139.463 37.8961V33.8425H142.452Z" fill="#263238"/>
<path d="M146.866 35.5493H143.586V33.8425H153.165V35.5493H149.894V41.4498H146.866V35.5493Z" fill="#263238"/>
<path d="M160.917 39.9697H156.4L155.556 41.4498H152.473L157.159 33.8425H160.139L164.872 41.4498H161.723L160.917 39.9697ZM160.036 38.3962L158.659 35.956L157.29 38.3962H160.036Z" fill="#263238"/>
<path d="M172.772 37.4827H175.443V40.6363C174.116 41.2699 172.552 41.6066 170.954 41.6031C167.552 41.6031 165.059 39.963 165.059 37.6494C165.059 35.3359 167.552 33.7291 171.01 33.7291C171.888 33.6945 172.765 33.8012 173.576 34.0413C174.388 34.2814 175.112 34.6488 175.696 35.1159L173.775 36.356C173.457 36.0873 173.059 35.8721 172.61 35.7257C172.161 35.5793 171.673 35.5054 171.179 35.5092C170.368 35.5092 169.591 35.7382 169.018 36.1458C168.445 36.5535 168.123 37.1063 168.123 37.6828C168.123 38.2592 168.445 38.8121 169.018 39.2197C169.591 39.6273 170.368 39.8563 171.179 39.8563C171.745 39.8584 172.305 39.7719 172.819 39.6029L172.772 37.4827Z" fill="#263238"/>
<path d="M185.95 39.7896V41.4498H177.365V33.8425H185.8V35.5093H180.364V36.7894H185.107V38.3962H180.364V39.7896H185.95Z" fill="#263238"/>
<path d="M186.879 40.7629L187.872 39.1828C188.932 39.6576 190.154 39.9159 191.406 39.9295C192.652 39.9295 193.149 39.6762 193.149 39.3095C193.149 38.1027 187.066 38.9828 187.066 36.1559C187.066 34.8224 188.622 33.6957 191.799 33.6957C193.151 33.6818 194.486 33.9111 195.68 34.3624L194.742 35.9559C193.834 35.5917 192.814 35.3904 191.771 35.3691C190.506 35.3691 190.047 35.6758 190.047 36.0359C190.047 37.2026 196.111 36.3292 196.111 39.1361C196.111 40.4696 194.555 41.5897 191.378 41.5897C189.799 41.6191 188.24 41.3327 186.879 40.7629Z" fill="#263238"/>
<path d="M270.551 272.943L269.849 287.991C269.849 287.991 288.344 293.631 288.557 296.418L252.757 296.358L252.676 272.87L270.551 272.943Z" fill="#263238"/>
<path d="M258.786 286.704C258.448 286.789 258.159 286.971 257.973 287.216C257.787 287.461 257.716 287.753 257.773 288.037C257.862 288.321 258.082 288.566 258.386 288.721C258.69 288.876 259.055 288.93 259.406 288.871C259.77 288.781 260.08 288.584 260.277 288.318C260.473 288.051 260.541 287.735 260.468 287.431C260.335 287.143 260.072 286.909 259.733 286.776C259.393 286.643 259.005 286.622 258.647 286.717" fill="#E0E0E0"/>
<path d="M252.758 296.358L252.864 293.991L287.161 294.938C287.161 294.938 288.794 295.505 288.573 296.418L252.758 296.358Z" fill="#455A64"/>
<path d="M270.43 287.844C270.43 287.984 269.548 288.051 268.69 288.511C267.833 288.971 267.368 289.564 267.204 289.504C267.041 289.444 267.31 288.624 268.364 288.091C269.417 287.558 270.471 287.711 270.43 287.844Z" fill="white"/>
<path d="M274.178 289.118C274.219 289.258 273.468 289.498 272.871 290.098C272.275 290.698 272.104 291.345 271.924 291.338C271.745 291.331 271.647 290.524 272.398 289.784C273.149 289.044 274.178 288.984 274.178 289.118Z" fill="white"/>
<path d="M276.3 292.791C276.145 292.791 275.9 292.124 276.357 291.324C276.814 290.524 277.623 290.238 277.696 290.358C277.77 290.478 277.263 290.891 276.88 291.538C276.496 292.184 276.48 292.778 276.3 292.791Z" fill="white"/>
<path d="M270.127 284.417C270.054 284.551 269.245 284.351 268.257 284.417C267.269 284.484 266.501 284.724 266.412 284.604C266.322 284.484 267.065 283.937 268.224 283.937C269.384 283.937 270.209 284.291 270.127 284.417Z" fill="white"/>
<path d="M226.733 270.889L224.798 289.084L228.334 303.752C228.395 304.003 228.391 304.262 228.324 304.513C228.257 304.763 228.127 304.999 227.944 305.207C227.76 305.415 227.525 305.589 227.255 305.72C226.985 305.85 226.685 305.934 226.374 305.966C226.012 306.004 225.645 305.971 225.302 305.869C224.96 305.767 224.652 305.599 224.406 305.379C221.221 302.539 209.544 292.044 209.781 290.711C210.05 289.178 210.271 271.449 210.271 271.449L226.733 270.889Z" fill="#263238"/>
<path d="M226.374 305.979L209.879 289.511L209.813 290.284C209.763 290.949 210 291.608 210.483 292.145C211.798 293.571 215.513 297.478 224.365 305.392C224.619 305.619 224.937 305.791 225.292 305.893C225.646 305.995 226.026 306.025 226.398 305.979H226.374Z" fill="#455A64"/>
<g opacity="0.6">
<path d="M214.909 283.884C215.169 284.063 215.34 284.314 215.388 284.59C215.436 284.865 215.358 285.145 215.17 285.377C214.96 285.596 214.655 285.742 214.318 285.784C213.982 285.826 213.638 285.761 213.357 285.604C213.082 285.412 212.903 285.144 212.855 284.851C212.807 284.558 212.892 284.261 213.096 284.017C213.343 283.808 213.68 283.684 214.036 283.673C214.393 283.662 214.74 283.764 215.007 283.957" fill="white"/>
</g>
<path d="M221.909 297.752C222.489 297.206 223.19 296.753 223.975 296.418C224.811 296.192 225.693 296.101 226.572 296.152C226.572 296.105 226.319 295.952 225.804 295.865C225.124 295.767 224.424 295.83 223.786 296.046C223.148 296.262 222.599 296.623 222.203 297.085C221.909 297.485 221.86 297.752 221.909 297.752Z" fill="white"/>
<path d="M223.303 300.285C223.965 300.033 224.644 299.81 225.336 299.618C226.066 299.548 226.799 299.51 227.533 299.505C227.203 299.314 226.823 299.189 226.422 299.141C226.022 299.094 225.613 299.125 225.23 299.232C223.891 299.465 223.189 300.232 223.303 300.285Z" fill="white"/>
<path d="M219.203 294.491C219.293 294.585 220.461 293.725 222.249 293.271C224.037 292.818 225.589 292.938 225.605 292.818C225.622 292.698 224.013 292.378 222.102 292.891C220.933 293.125 219.905 293.693 219.203 294.491Z" fill="white"/>
<path d="M219.229 288.931C219.278 289.044 220.535 288.691 222.144 288.724C223.752 288.758 224.994 289.144 225.051 289.031C224.182 288.586 223.182 288.342 222.157 288.325C221.131 288.307 220.12 288.517 219.229 288.931Z" fill="white"/>
<path d="M219.628 283.59C220.617 283.382 221.636 283.288 222.657 283.31C224.347 283.43 225.483 284.171 225.564 284.071C225.646 283.971 225.376 283.791 224.886 283.524C224.229 283.182 223.482 282.972 222.706 282.91C221.933 282.844 221.151 282.931 220.428 283.164C219.873 283.35 219.595 283.55 219.628 283.59Z" fill="white"/>
<path d="M222.699 282.29C222.79 282.076 222.821 281.849 222.789 281.624C222.762 280.99 222.582 280.367 222.259 279.79C222.067 279.349 221.703 278.971 221.221 278.717C221.054 278.647 220.864 278.621 220.677 278.641C220.491 278.661 220.316 278.727 220.176 278.83C219.922 279.049 219.774 279.335 219.76 279.637C219.77 280.249 220.038 280.839 220.518 281.309C220.998 281.779 221.662 282.099 222.397 282.217C223.129 282.317 223.88 282.237 224.556 281.987C225.232 281.738 225.802 281.331 226.195 280.817C226.293 280.687 226.355 280.54 226.378 280.389C226.4 280.237 226.382 280.083 226.325 279.937C226.25 279.795 226.122 279.676 225.959 279.597C225.797 279.518 225.607 279.483 225.419 279.497C224.862 279.566 224.338 279.755 223.9 280.043C223.262 280.404 222.709 280.856 222.267 281.377C222.085 281.554 221.952 281.761 221.875 281.984C222.511 281.33 223.259 280.756 224.096 280.277C224.486 280.039 224.944 279.885 225.427 279.83C225.53 279.819 225.634 279.836 225.724 279.878C225.814 279.92 225.885 279.985 225.925 280.063C225.953 280.161 225.957 280.262 225.936 280.36C225.915 280.459 225.869 280.553 225.803 280.637C225.447 281.073 224.946 281.417 224.358 281.628C223.77 281.838 223.121 281.906 222.487 281.824C221.863 281.726 221.298 281.459 220.885 281.065C220.471 280.671 220.233 280.175 220.209 279.657C220.212 279.449 220.304 279.248 220.47 279.09C220.544 279.028 220.641 278.988 220.745 278.975C220.85 278.961 220.957 278.976 221.05 279.017C221.454 279.233 221.767 279.545 221.948 279.91C222.369 280.661 222.624 281.467 222.699 282.29Z" fill="white"/>
<path d="M287.791 146.052C289.519 152.288 290.102 158.698 289.522 165.074C289.163 169.127 272.423 281.017 272.423 281.017H249.852L256.197 175.855L254.351 176.181C254.351 176.181 242.029 221.032 241.025 228.292C240.126 234.82 229.731 282.244 229.731 282.244L209.137 282.417L215.669 219.745L223.337 159.56L226.285 142.012L287.791 146.052Z" fill="#263238"/>
<path d="M255.381 168.721C255.381 168.721 255.422 168.774 255.528 168.847C255.691 168.946 255.877 169.016 256.075 169.054C256.447 169.119 256.832 169.116 257.202 169.044C257.572 168.973 257.918 168.835 258.214 168.641C258.641 168.344 258.99 167.98 259.241 167.572C259.492 167.163 259.64 166.717 259.676 166.26C259.839 165.26 259.864 164.187 259.954 163.047C260.109 160.767 260.223 158.707 260.28 157.213C260.35 156.407 260.35 155.599 260.28 154.793C260.097 155.587 259.991 156.392 259.962 157.2C259.823 158.693 259.66 160.747 259.505 163.027C259.415 164.16 259.398 165.26 259.268 166.214C259.22 167.06 258.772 167.858 258.018 168.441C257.758 168.624 257.453 168.761 257.125 168.844C256.796 168.927 256.449 168.953 256.108 168.921C255.858 168.873 255.615 168.806 255.381 168.721Z" fill="#455A64"/>
<path d="M222.203 157.9C222.398 157.992 222.61 158.055 222.832 158.087C223.423 158.212 224.027 158.295 224.637 158.333C226.662 158.475 228.699 158.226 230.586 157.608C232.472 156.99 234.154 156.019 235.497 154.773C235.901 154.398 236.267 153.996 236.591 153.573C236.726 153.42 236.831 153.252 236.902 153.073C236.836 153.073 236.33 153.699 235.269 154.593C233.904 155.755 232.251 156.667 230.42 157.267C228.59 157.867 226.624 158.142 224.653 158.073C223.118 158.033 222.203 157.84 222.203 157.9Z" fill="#455A64"/>
<path d="M278.801 153.219C278.795 153.846 278.91 154.469 279.144 155.066C280.097 158.019 282.222 160.632 285.187 162.494C285.775 162.9 286.436 163.231 287.147 163.474C287.245 163.374 284.133 161.927 281.782 158.993C279.43 156.06 278.948 153.179 278.801 153.219Z" fill="#455A64"/>
<path d="M347.744 121.563L352.922 122.897L362.329 118.65L367.669 130.791L354.865 133.278L345.164 132.404L347.744 121.563Z" fill="#FFBE9D"/>
<path d="M287.529 72.8259C287.529 72.8259 292.821 75.4195 297.206 84.2336C305.813 101.568 311.227 110.903 311.227 110.903L350.717 121.07L347.557 134.004C347.557 134.004 307.495 129.444 302.13 127.804C294.781 125.557 289.342 113.736 289.342 113.736L287.529 72.8259Z" fill="#E0E0E0"/>
<path d="M276.637 33.9891C277.651 34.0196 278.644 33.7475 279.43 33.2235C280.216 32.6995 280.741 31.9597 280.908 31.1424C281.074 30.3251 280.87 29.4864 280.333 28.7832C279.797 28.08 278.965 27.5605 277.993 27.3219C278.597 26.7639 278.969 26.0647 279.058 25.3237C279.147 24.5827 278.948 23.8377 278.489 23.1946C278.029 22.5514 277.333 22.0429 276.499 21.7414C275.666 21.4398 274.737 21.3605 273.845 21.5147C273.762 20.7849 273.449 20.0851 272.936 19.4834C272.424 18.8818 271.729 18.3989 270.919 18.082C270.11 17.765 269.214 17.6247 268.318 17.6748C267.423 17.7249 266.558 17.9636 265.809 18.3678C264.758 17.74 263.48 17.4168 262.179 17.4495C260.877 17.4821 259.626 17.8686 258.623 18.5478C257.745 18.4585 256.855 18.6011 256.082 18.9546C255.31 19.3081 254.697 19.854 254.332 20.5126C253.967 21.1711 253.869 21.9077 254.054 22.6146C254.238 23.3216 254.695 23.9618 255.357 24.4416" fill="#263238"/>
<path d="M257.935 21.9216H258.85C263.29 21.7385 267.652 22.9282 271.067 25.2537C274.481 27.5792 276.697 30.8696 277.272 34.4693C278.383 41.4166 279.501 49.0972 279.673 52.8376C280.032 60.5849 270.617 62.1717 270.617 62.1717L271.989 71.4391L248.936 71.7925L244.853 38.1363C243.506 30.1023 248.095 22.795 257.935 21.9216Z" fill="#FFBE9D"/>
<path d="M270.698 62.1315C266.307 62.3042 261.946 61.4483 258.131 59.6647C258.131 59.6647 261.397 65.1185 270.813 64.0384L270.698 62.1315Z" fill="#6F4439"/>
<path d="M273.859 41.5832C273.882 41.8707 273.765 42.1541 273.535 42.3723C273.304 42.5905 272.978 42.7261 272.626 42.7499C272.284 42.7798 271.941 42.6976 271.673 42.5213C271.405 42.3451 271.234 42.0892 271.197 41.8098C271.179 41.522 271.298 41.2396 271.529 41.022C271.761 40.8044 272.087 40.6686 272.438 40.6431C272.607 40.6283 272.778 40.6409 272.941 40.6802C273.104 40.7195 273.256 40.7847 273.388 40.8721C273.52 40.9594 273.63 41.0672 273.711 41.1892C273.791 41.3113 273.842 41.4451 273.859 41.5832Z" fill="#263238"/>
<path d="M275.469 38.3097C275.306 38.463 274.244 37.883 272.783 37.943C271.321 38.003 270.333 38.643 270.129 38.5097C269.925 38.3763 270.202 38.1763 270.651 37.883C271.26 37.501 271.999 37.2821 272.766 37.2562C273.525 37.223 274.276 37.3864 274.914 37.7229C275.379 37.9896 275.543 38.243 275.469 38.3097Z" fill="#263238"/>
<path d="M260.583 41.8832C260.596 42.0283 260.574 42.1741 260.518 42.3122C260.462 42.4502 260.372 42.5778 260.255 42.6876C260.138 42.7973 259.996 42.8871 259.836 42.9516C259.677 43.0161 259.503 43.0541 259.325 43.0633C259.153 43.0819 258.979 43.0721 258.812 43.0346C258.646 42.9971 258.49 42.9325 258.354 42.8448C258.219 42.7571 258.106 42.648 258.023 42.5241C257.94 42.4001 257.889 42.2638 257.871 42.1233C257.851 41.8361 257.968 41.5537 258.198 41.3359C258.429 41.1181 258.754 40.982 259.104 40.9565C259.277 40.935 259.452 40.9421 259.621 40.9775C259.79 41.0128 259.948 41.0757 260.086 41.1623C260.224 41.2489 260.339 41.3574 260.424 41.4813C260.51 41.6052 260.564 41.7419 260.583 41.8832Z" fill="#263238"/>
<path d="M261.153 39.1163C260.99 39.263 259.928 38.6829 258.475 38.7496C257.021 38.8163 255.984 39.4163 255.813 39.3097C255.641 39.203 255.886 38.983 256.335 38.6829C256.944 38.301 257.683 38.0821 258.45 38.0562C259.21 38.0236 259.962 38.1894 260.598 38.5296C261.063 38.7896 261.227 39.063 261.153 39.1163Z" fill="#263238"/>
<path d="M266.975 47.7303C267.733 47.5028 268.523 47.3528 269.327 47.2836C269.694 47.2369 270.046 47.1636 270.095 46.9569C270.104 46.6412 269.999 46.3303 269.792 46.0635C269.392 45.3434 268.976 44.5834 268.551 43.7966C266.82 40.563 265.546 37.8961 265.709 37.8428C265.873 37.7895 267.4 40.363 269.131 43.5966C269.547 44.39 269.948 45.1501 270.323 45.8768C270.581 46.2341 270.677 46.6544 270.593 47.0636C270.545 47.1731 270.468 47.2722 270.366 47.3532C270.264 47.4341 270.14 47.4948 270.005 47.5303C269.801 47.5855 269.59 47.6191 269.376 47.6303C268.584 47.7471 267.777 47.7807 266.975 47.7303Z" fill="#263238"/>
<path d="M262.14 34.4827C261.96 34.796 260.694 34.516 259.151 34.536C257.607 34.556 256.334 34.8227 256.17 34.536C256.105 34.3893 256.358 34.1026 256.897 33.8693C257.594 33.546 258.382 33.376 259.183 33.3759C259.972 33.366 260.75 33.527 261.437 33.8426C261.968 34.056 262.213 34.336 262.14 34.4827Z" fill="#263238"/>
<path d="M275.281 33.4025C274.987 33.6825 273.77 33.4491 272.316 33.4958C270.863 33.5425 269.662 33.7892 269.36 33.4958C269.23 33.3625 269.401 33.0824 269.924 32.8291C270.642 32.4785 271.463 32.292 272.3 32.289C273.132 32.2578 273.96 32.4123 274.693 32.7358C275.183 32.9891 275.362 33.2625 275.281 33.4025Z" fill="#263238"/>
<path d="M276.145 30.9222C276.145 30.9222 273.344 26.1751 270.429 25.1617C266.877 23.935 265.578 27.1019 262.263 26.4952C258.948 25.8885 255.518 24.695 252.268 26.9152C248.716 29.3487 250.545 30.8755 250.52 34.3225C250.447 48.2904 247.572 52.3574 246.282 45.8302C246.143 45.1168 243.661 44.6434 243.114 41.6231C242.412 37.7028 241.93 32.9557 242.836 30.0888C243.604 27.6953 245.147 26.0018 247.989 24.0883C252.472 21.068 258.866 20.7547 263.235 20.928C267.603 21.1014 276.169 24.835 276.145 30.9222Z" fill="#263238"/>
<path d="M246.83 45.5835C246.801 45.2995 246.701 45.0232 246.538 44.7714C246.374 44.5197 246.149 44.2976 245.878 44.1187C245.606 43.9398 245.293 43.8078 244.956 43.7307C244.62 43.6536 244.269 43.6329 243.923 43.67C242.159 43.8767 240.248 44.7768 240.542 47.757C241.073 53.0441 247.458 51.5173 247.458 51.3706C247.458 51.224 247.075 47.7903 246.83 45.5835Z" fill="#FFBE9D"/>
<path d="M245.884 49.4706C245.884 49.4706 245.778 49.544 245.598 49.6306C245.345 49.734 245.055 49.7577 244.782 49.6973C244.071 49.5373 243.41 48.6905 243.279 47.7438C243.219 47.2934 243.283 46.8379 243.467 46.4104C243.511 46.2409 243.604 46.0827 243.739 45.9492C243.874 45.8157 244.047 45.7109 244.243 45.6436C244.37 45.6081 244.508 45.6092 244.634 45.6468C244.761 45.6844 244.867 45.7563 244.937 45.8503C245.035 45.997 245.002 46.1037 245.043 46.1103C245.084 46.117 245.174 46.0103 245.1 45.797C245.043 45.6707 244.941 45.5614 244.806 45.4836C244.713 45.4334 244.609 45.3993 244.499 45.3832C244.39 45.3672 244.277 45.3696 244.169 45.3903C243.907 45.451 243.669 45.5657 243.478 45.7233C243.286 45.8809 243.147 46.0762 243.075 46.2903C242.845 46.7667 242.761 47.2816 242.83 47.7905C242.977 48.8506 243.744 49.7906 244.708 49.964C244.886 49.9941 245.069 49.9905 245.245 49.9535C245.42 49.9165 245.583 49.8471 245.721 49.7506C245.884 49.604 245.884 49.484 245.884 49.4706Z" fill="#6F4439"/>
<path d="M246.332 35.3227C247.162 35.817 248.13 36.1333 249.149 36.2428C249.661 36.2842 250.175 36.1716 250.592 35.9261C251.01 35.6806 251.304 35.3191 251.419 34.9093C251.476 34.536 251.337 34.1159 251.615 33.8159C251.893 33.5159 252.611 33.5426 253.158 33.5692C255.053 33.6559 257.152 31.8624 257.535 30.349C257.802 30.6237 258.185 30.806 258.61 30.8592C259.034 30.9124 259.467 30.8325 259.822 30.6357C260.401 30.3116 260.907 29.9078 261.316 29.4422C261.552 29.1442 261.873 28.8974 262.251 28.7232C262.629 28.549 263.054 28.4525 263.488 28.4421C263.951 28.5512 264.428 28.6161 264.909 28.6355C265.726 28.5421 266.126 27.7087 266.216 27.0153C266.306 26.3219 266.355 25.5085 267.032 25.1085C267.71 24.7085 268.559 24.8952 269.351 24.9618C270.144 25.0285 271.14 24.8352 271.303 24.1951C271.328 24.0261 271.309 23.8547 271.249 23.6917C271.188 23.5288 271.087 23.3778 270.952 23.2484C270.386 22.6315 269.581 22.1882 268.669 21.9898C267.756 21.7915 266.789 21.8496 265.922 22.1549C265.535 21.2951 264.847 20.5472 263.943 20.0045C263.04 19.4617 261.96 19.148 260.84 19.1025C259.719 19.057 258.607 19.2817 257.642 19.7486C256.677 20.2155 255.902 20.904 255.412 21.7282C254.692 21.2472 253.841 20.9149 252.93 20.7595C252.019 20.6042 251.076 20.6303 250.18 20.8357C249.285 21.0411 248.463 21.4197 247.784 21.9395C247.106 22.4593 246.591 23.1049 246.283 23.8217C245.478 23.685 244.642 23.7442 243.878 23.9919C243.114 24.2396 242.456 24.665 241.986 25.2152C241.515 25.7655 241.253 26.4164 241.232 27.0872C241.21 27.7581 241.43 28.4193 241.865 28.9888C241.278 29.2565 240.784 29.6417 240.43 30.1083C240.075 30.5749 239.872 31.1074 239.84 31.6557C239.84 32.7492 241.253 33.7893 242.535 33.4492C242.397 33.6725 242.315 33.9156 242.293 34.1648C242.271 34.414 242.309 34.6642 242.405 34.9014C242.502 35.1385 242.654 35.3578 242.854 35.5468C243.054 35.7358 243.298 35.8907 243.572 36.0028C243.845 36.1148 244.143 36.1818 244.448 36.1999C244.753 36.218 245.06 36.1869 245.35 36.1083C245.641 36.0296 245.909 35.9051 246.141 35.7417C246.372 35.5783 246.562 35.3793 246.699 35.156" fill="#263238"/>
<path d="M266.502 23.7284C266.502 23.7284 266.502 23.7617 266.502 23.8284C266.502 23.8951 266.502 23.9884 266.502 24.1151C266.433 24.475 266.295 24.8237 266.093 25.1485C265.771 25.6731 265.304 26.1296 264.73 26.482C263.978 26.9533 263.056 27.2088 262.108 27.2087L262.215 27.062C262.438 27.5363 262.423 28.0632 262.174 28.5288C261.907 29.0098 261.561 29.4585 261.145 29.8622C260.943 30.1042 260.711 30.3277 260.451 30.529C260.157 30.7133 259.812 30.8347 259.446 30.8823C259.067 30.9428 258.675 30.9264 258.305 30.8346C257.934 30.7428 257.597 30.5783 257.323 30.3556L257.56 30.289C257.503 30.8377 257.307 31.3708 256.983 31.8541C256.66 32.3374 256.217 32.7603 255.682 33.0959C255.088 33.4968 254.352 33.7306 253.583 33.7626C252.864 33.7645 252.149 33.6676 251.468 33.4759L251.632 33.4026C251.321 34.0467 250.819 34.6174 250.17 35.0627C249.875 35.2903 249.523 35.4617 249.137 35.5643C248.751 35.6669 248.343 35.6983 247.941 35.6561C247.259 35.5633 246.624 35.3112 246.114 34.9302C245.604 34.5492 245.24 34.0556 245.066 33.5092L245.213 33.5626C244.551 33.8863 243.771 34.0113 243.008 33.9159C242.436 33.8555 241.89 33.6841 241.416 33.4159C241.119 33.2464 240.859 33.0367 240.648 32.7958C240.573 32.7143 240.513 32.6245 240.469 32.5291C240.744 32.8474 241.087 33.1229 241.481 33.3425C241.945 33.5898 242.474 33.743 243.025 33.7892C243.75 33.8686 244.486 33.7389 245.107 33.4226L245.229 33.3625V33.4759C245.399 33.9885 245.747 34.4501 246.231 34.805C246.715 35.1599 247.314 35.3929 247.957 35.4761C248.324 35.5138 248.697 35.483 249.048 35.386C249.399 35.2889 249.718 35.1283 249.982 34.916C250.586 34.4792 251.049 33.9273 251.329 33.3092L251.37 33.2092H251.501C252.152 33.3958 252.836 33.4905 253.526 33.4892C254.236 33.462 254.915 33.2467 255.461 32.8758C255.972 32.5586 256.395 32.1572 256.703 31.6978C257.011 31.2383 257.197 30.731 257.25 30.2089V29.9623L257.47 30.1423C257.712 30.3386 258.008 30.4838 258.334 30.5651C258.66 30.6465 259.006 30.6615 259.34 30.609C259.666 30.5684 259.974 30.4631 260.238 30.3023C260.478 30.121 260.695 29.9199 260.884 29.7022C261.296 29.3159 261.637 28.8824 261.896 28.4155C262.015 28.2077 262.081 27.9826 262.091 27.7535C262.101 27.5244 262.054 27.296 261.953 27.082L261.896 26.9553H262.059C262.964 26.9631 263.848 26.7289 264.575 26.2886C265.147 25.9702 265.624 25.551 265.971 25.0618C266.241 24.6457 266.42 24.1946 266.502 23.7284Z" fill="#455A64"/>
<path d="M266.911 51.8107C266.862 51.6107 265.277 51.9508 263.808 51.0907C262.338 50.2306 262.06 48.8172 261.84 48.8572C261.619 48.8972 261.627 49.2239 261.799 49.8106C262.031 50.566 262.58 51.2312 263.35 51.6907C264.092 52.1315 265.014 52.3203 265.922 52.2174C266.6 52.1241 266.943 51.8974 266.911 51.8107Z" fill="#263238"/>
<path d="M305.396 100.762C305.249 100.342 296.805 81.5799 294.119 77.4729C290.893 72.5592 284.116 70.3857 279.91 70.139C275.705 69.8923 230.711 72.8592 230.711 72.8592C230.711 72.8592 217.269 75.3127 215.555 84.7535C213.578 95.6211 211.855 120.497 211.855 120.497L232.336 111.923L234.99 106.469L277.371 114.189L287.717 101.735L305.396 100.762Z" fill="#E0E0E0"/>
<path d="M227.74 73.9592L245.313 67.632L247.281 61.4448L267.802 69.3655L272.098 65.4852L273.902 69.8589L278.393 71.059L288.903 86.1469V118.296L291.026 146.032L288.715 150.406L269.893 152.673C267.835 152.919 265.744 152.919 263.687 152.673L225.47 147.586L224.49 138.405L228.573 113.143L227.74 73.9592Z" fill="#E0E0E0"/>
<path d="M247.279 61.4448C247.279 61.4448 249.573 61.9849 255.445 64.5518C261.218 67.0653 267.775 69.3655 267.775 69.3655L267.277 76.9261L245.441 67.9787" fill="#E0E0E0"/>
<path d="M272.096 65.4852L267.801 69.3656L270.095 77.4729L273.925 70.1456" fill="#E0E0E0"/>
<g opacity="0.3">
<path d="M267.882 70.199C268.069 70.319 269.262 79.5331 269.262 79.5331L247.377 68.7322L267.302 76.8995L267.882 70.199Z" fill="black"/>
</g>
<path d="M267.735 104.689C267.4 97.6214 268.763 79.5932 268.763 79.5932L271.622 79.2131C275.261 92.0484 277.717 105.088 278.971 118.223C279.787 126.891 279.787 136.991 279.787 136.991L274.071 147.032L267.735 137.031C267.735 137.031 268.135 113.283 267.735 104.689Z" fill="#455A64"/>
<path d="M226.432 75.066C226.391 75.0994 227.02 75.4994 227.91 76.2461C230.222 78.201 231.827 80.64 232.548 83.2934C232.817 84.3068 232.883 84.9536 232.932 84.9469C232.962 84.7968 232.962 84.6436 232.932 84.4935C232.901 84.0795 232.839 83.6675 232.744 83.2601C232.453 81.9067 231.901 80.5994 231.111 79.3864C230.313 78.1748 229.288 77.0725 228.073 76.1195C227.71 75.8308 227.322 75.5634 226.913 75.3194C226.765 75.2202 226.603 75.1352 226.432 75.066Z" fill="#263238"/>
<path d="M267.737 72.9792L269.689 72.3591L271.543 74.9527L271.878 79.213L269.265 79.5597L267.305 76.9262L267.737 72.9792Z" fill="#455A64"/>
<path d="M288.87 85.6603C288.788 85.6603 288.715 94.8877 288.715 106.262C288.715 117.636 288.788 126.87 288.87 126.87C288.952 126.87 289.025 117.65 289.025 106.262C289.025 94.8744 288.952 85.6603 288.87 85.6603Z" fill="#263238"/>
<path d="M267.596 69.2989C267.934 69.8271 268.305 70.3411 268.706 70.8391C269.6 72.0715 270.418 73.3398 271.156 74.6394C271.23 74.7661 271.303 74.8861 271.368 75.0061L271.507 75.2461L271.646 75.0061C272.359 73.7818 272.967 72.5186 273.467 71.2258C273.655 70.739 273.794 70.339 273.875 70.059C273.941 69.9186 273.974 69.7693 273.973 69.619C273.932 69.619 273.704 70.2123 273.271 71.1724C272.714 72.4401 272.079 73.684 271.368 74.8994H271.646L271.434 74.5327C270.683 73.224 269.823 71.9588 268.861 70.7457C268.486 70.2857 268.167 69.919 267.939 69.6656C267.71 69.4123 267.612 69.2856 267.596 69.2989Z" fill="#263238"/>
<path d="M245.311 67.6321C245.404 67.69 245.506 67.7392 245.613 67.7788L246.495 68.1588L249.761 69.5389C252.513 70.7057 256.294 72.3725 260.458 74.206C262.998 75.3127 265.407 76.3395 267.506 77.1929L267.701 77.2729V77.0662C267.701 74.846 267.75 72.9792 267.767 71.6258C267.767 70.959 267.767 70.479 267.767 70.0923C267.783 69.9103 267.783 69.7276 267.767 69.5456C267.728 69.7261 267.709 69.909 267.71 70.0923C267.71 70.4723 267.669 70.9857 267.636 71.6191C267.595 72.9525 267.538 74.846 267.465 77.0596L267.661 76.9662C265.578 76.0928 263.178 75.0594 260.63 73.9526C256.457 72.1325 252.668 70.4923 249.892 69.3589C248.503 68.7988 247.368 68.3521 246.584 68.0254L245.67 67.6921C245.554 67.6578 245.433 67.6375 245.311 67.6321Z" fill="#263238"/>
<path d="M286.231 73.466C286.182 73.466 286.525 73.9594 286.974 74.7995C287.543 75.8525 287.962 76.9554 288.224 78.0864C288.474 79.221 288.562 80.3755 288.485 81.5267C288.428 82.4134 288.314 82.9535 288.363 82.9602C288.431 82.8419 288.478 82.7161 288.501 82.5868C288.59 82.2411 288.655 81.8916 288.697 81.54C288.99 79.1957 288.458 76.8319 287.162 74.7261C286.974 74.4072 286.759 74.0997 286.517 73.806C286.346 73.566 286.248 73.4527 286.231 73.466Z" fill="#263238"/>
<path d="M269.744 79.833C269.744 79.893 270.283 79.6997 270.846 79.4063C271.41 79.113 271.843 78.833 271.794 78.7729C271.388 78.8435 271.008 78.9896 270.683 79.1997C270.12 79.493 269.695 79.773 269.744 79.833Z" fill="#263238"/>
<path d="M268.805 78.793C269.333 78.1109 269.776 77.3872 270.128 76.6328C270.571 75.918 270.929 75.17 271.197 74.3993C270.66 75.0757 270.213 75.7978 269.866 76.5528C269.418 77.2675 269.063 78.0183 268.805 78.793Z" fill="#263238"/>
<path d="M224.136 75.5461C224.136 75.5461 217.366 79.5465 216.517 81.7267C215.668 83.9069 212.075 119.657 211.438 123.91C210.801 128.164 210.164 136.105 214.19 138.698C218.215 141.292 226.888 143.239 226.888 143.239L234.898 129.737L230.652 122.477L234.898 95.3412L224.136 75.5461Z" fill="#E0E0E0"/>
<path d="M224.953 142.759C225.097 142.747 225.242 142.747 225.386 142.759C225.804 142.757 226.221 142.734 226.635 142.692C228.189 142.575 229.679 142.134 230.963 141.412C232.88 140.251 234.321 138.642 235.095 136.798C236.141 134.468 236.672 132.005 236.663 129.524L236.704 129.617L230.481 122.584L230.432 122.53V122.464C230.432 122.284 230.49 122.083 230.522 121.89C231.715 114.283 232.801 107.389 233.593 102.368C233.985 99.8949 234.303 97.8814 234.532 96.4546C234.638 95.7879 234.72 95.2412 234.785 94.8412C234.85 94.4411 234.875 94.2811 234.883 94.2811C234.897 94.3294 234.897 94.3796 234.883 94.4278C234.883 94.5211 234.883 94.6678 234.883 94.8478C234.834 95.2479 234.777 95.7879 234.703 96.468C234.532 97.8681 234.254 99.8949 233.887 102.395C233.168 107.402 232.131 114.309 230.939 121.937C230.939 122.13 230.882 122.324 230.849 122.504V122.384L237.047 129.424V129.471V129.517C237.045 132.037 236.492 134.537 235.414 136.898C234.592 138.776 233.088 140.404 231.102 141.565C230.354 141.983 229.526 142.296 228.652 142.492L228.097 142.619L227.574 142.692C227.273 142.742 226.967 142.771 226.66 142.779C226.241 142.808 225.821 142.808 225.402 142.779C225.252 142.784 225.102 142.778 224.953 142.759Z" fill="#263238"/>
<path d="M216.773 124.964C217.295 124.544 217.896 124.195 218.553 123.93C221.648 122.516 225.217 121.948 228.736 122.31C229.466 122.358 230.182 122.497 230.859 122.723C225.976 122.041 220.955 122.837 216.74 124.964H216.773Z" fill="#263238"/>
<path d="M269.907 89.3873C269.907 89.3873 270.299 90.5741 270.911 92.6676C272.303 91.0366 274.08 89.6493 276.137 88.5873C276.137 88.5873 286.59 80.1066 289.93 71.1925C292.379 64.7186 291.751 57.5446 291.751 57.5446C291.653 57.2046 290.836 54.1643 290.174 51.6775C289.913 50.6976 290.126 49.6732 290.768 48.8183C291.41 47.9635 292.432 47.3444 293.621 47.0904C298.79 45.9503 312.843 43.7301 316.109 51.4241C320.919 62.9251 313.137 75.3461 313.227 78.8998C313.227 79.5665 313.227 80.1199 313.227 80.5599C317.351 79.7799 320.576 79.2265 320.576 79.2798L347.638 74.126C347.638 74.126 356.58 71.9125 359.65 79.3998C362.72 86.8871 352.301 89.4007 352.301 89.4007C352.301 89.4007 357.2 89.2207 358.523 96.0279C359.846 102.835 350.904 105.042 350.904 105.042C350.904 105.042 356.384 104.755 357.805 110.789C359.185 116.663 350.243 120.203 349.761 120.39C350.471 120.245 351.191 120.134 351.917 120.057C351.384 120.216 350.839 120.346 350.284 120.443C354.457 120.877 355.061 124.93 355.061 124.93C357.747 133.244 349.908 134.991 349.908 134.991L300.472 144.405C295.547 145.343 290.406 145.191 285.577 143.965C286.051 145.685 286.304 146.632 286.288 146.632L251.77 153.213C251.697 153.213 247.973 140.418 243.449 124.617C238.925 108.816 235.324 95.9479 235.398 95.9479L269.907 89.3873Z" fill="#F2C94C"/>
<g opacity="0.3">
<path d="M269.909 89.3873C269.909 89.3873 270.301 90.5741 270.913 92.6676C272.305 91.0366 274.081 89.6493 276.139 88.5873C276.139 88.5873 286.592 80.1066 289.931 71.1925C292.381 64.7186 291.752 57.5446 291.752 57.5446C291.654 57.2046 290.838 54.1643 290.176 51.6775C289.915 50.6976 290.128 49.6732 290.77 48.8183C291.412 47.9635 292.434 47.3444 293.622 47.0904C298.791 45.9503 312.845 43.7301 316.111 51.4241C320.921 62.9251 313.139 75.3461 313.229 78.8998C313.229 79.5665 313.229 80.1199 313.229 80.5599C317.353 79.7799 320.578 79.2265 320.578 79.2798L347.64 74.126C347.64 74.126 356.582 71.9125 359.652 79.3998C362.722 86.8871 352.303 89.4007 352.303 89.4007C352.303 89.4007 357.202 89.2207 358.525 96.0279C359.848 102.835 350.906 105.042 350.906 105.042C350.906 105.042 356.386 104.755 357.807 110.789C359.187 116.663 350.245 120.203 349.763 120.39C350.473 120.245 351.193 120.134 351.919 120.057C351.386 120.216 350.84 120.346 350.286 120.443C354.459 120.877 355.063 124.93 355.063 124.93C357.749 133.244 349.91 134.991 349.91 134.991L300.474 144.405C295.549 145.343 290.408 145.191 285.579 143.965C286.053 145.685 286.306 146.632 286.289 146.632L251.772 153.213C251.699 153.213 247.975 140.418 243.451 124.617C238.927 108.816 235.326 95.9479 235.4 95.9479L269.909 89.3873Z" fill="black"/>
</g>
<path d="M276.578 97.4146L275.908 101.082L286.949 139.652C290.181 141.404 293.818 142.598 297.636 143.16C301.455 143.722 305.374 143.64 309.152 142.919L358.572 133.498C358.572 133.498 366.411 131.751 363.724 123.437C363.724 123.437 363.079 119.023 358.417 118.903C358.417 118.903 367.889 115.329 366.476 109.296C365.064 103.262 359.584 103.555 359.584 103.555C359.584 103.555 368.526 101.342 367.195 94.5344C365.864 87.7271 360.972 87.9072 360.972 87.9072C360.972 87.9072 371.384 85.4203 368.322 77.9063C365.26 70.3923 356.31 72.6325 356.31 72.6325L321.196 79.2998L290.395 85.1736C286.85 85.8415 283.635 87.3673 281.17 89.5513C278.705 91.7353 277.104 94.4759 276.578 97.4146Z" fill="#F2C94C"/>
<path d="M284.793 87.1271C284.793 87.1271 295.245 78.6464 298.585 69.7323C301.035 63.2584 300.406 56.0911 300.406 56.0911C300.308 55.7444 299.492 52.7042 298.83 50.2173C298.569 49.2374 298.782 48.213 299.424 47.3582C300.066 46.5034 301.088 45.8842 302.276 45.6303C307.47 44.4835 316.836 46.5903 320.062 54.2977C324.871 65.792 321.785 73.8793 321.866 77.433L321.948 80.9866L284.793 87.1271Z" fill="#F2C94C"/>
<path d="M278.593 87.8968L244.082 94.4797L260.464 151.73L294.974 145.147L278.593 87.8968Z" fill="#F2C94C"/>
<path d="M294.969 145.172C295.043 145.172 291.442 132.331 286.918 116.503C282.394 100.675 278.67 87.8871 278.597 87.9004C278.523 87.9137 282.124 100.741 286.648 116.57C291.172 132.398 294.88 145.185 294.969 145.172Z" fill="#263238"/>
<path d="M260.46 151.739C260.534 151.739 256.924 138.898 252.4 123.07C247.876 107.242 244.153 94.4543 244.079 94.4677C244.006 94.481 247.607 107.309 252.131 123.137C256.655 138.965 260.378 151.739 260.46 151.739Z" fill="#263238"/>
<path d="M270.16 103.349C270.458 104.391 270.371 105.482 269.91 106.484C269.448 107.486 268.633 108.354 267.568 108.978C266.502 109.602 265.234 109.954 263.924 109.99C262.613 110.026 261.319 109.743 260.205 109.179C259.091 108.614 258.208 107.792 257.665 106.817C257.123 105.843 256.947 104.758 257.16 103.702C257.372 102.646 257.964 101.664 258.859 100.882C259.754 100.1 260.914 99.5525 262.19 99.3082C263.903 98.9823 265.705 99.2247 267.199 99.9822C268.693 100.74 269.758 101.95 270.16 103.349Z" fill="white"/>
<path d="M329.241 77.8128C329.241 77.7528 325.444 78.4196 320.806 79.3063C316.168 80.193 312.411 80.9531 312.428 81.0131C312.444 81.0731 316.225 80.4064 320.863 79.5263C325.501 78.6462 329.258 77.8728 329.241 77.8128Z" fill="#263238"/>
<path d="M360.353 103.688C360.353 103.628 357.903 104.042 354.947 104.602C353.138 104.902 351.35 105.28 349.59 105.735C349.59 105.795 352.04 105.382 354.996 104.822C356.803 104.518 358.591 104.14 360.353 103.688Z" fill="#263238"/>
<path d="M361.611 87.6339C361.611 87.5739 358.165 88.1806 353.952 88.9673C349.738 89.754 346.341 90.4674 346.357 90.5341C346.374 90.6008 349.803 89.9874 354.017 89.2007C358.231 88.4139 361.628 87.7339 361.611 87.6339Z" fill="#263238"/>
<path d="M360.59 118.563C360.59 118.503 357.144 119.103 352.93 119.897C348.717 120.69 345.32 121.397 345.336 121.457C345.352 121.517 348.782 120.917 352.996 120.123C357.209 119.33 360.606 118.623 360.59 118.563Z" fill="#263238"/>
<g opacity="0.3">
<path d="M302.571 48.4637C302.081 48.9085 301.746 49.4526 301.603 50.0392C301.459 50.6257 301.511 51.233 301.754 51.7973C302.271 52.9206 302.902 54.0067 303.64 55.0443C305.058 57.4552 305.465 60.1797 304.8 62.7983C304.596 63.5917 304.326 64.5051 304.947 65.1385C305.829 66.0319 307.601 65.5385 308.72 64.8385C310.801 63.4738 312.367 61.6552 313.234 59.5936C314.101 57.532 314.235 55.3119 313.619 53.1908C313.133 51.3848 311.906 49.7686 310.14 48.6104C308.336 47.517 305.567 46.5302 302.505 48.4437" fill="white"/>
</g>
<g opacity="0.3">
<path d="M359.529 73.6525C358.299 73.5379 357.053 73.6448 355.879 73.9659L335.024 78.2863C332.753 78.7596 328.491 79.1797 328.442 81.0732C327.985 82.1066 328.948 83.28 330.189 83.7001C331.481 84.0404 332.863 84.0819 334.182 83.8201C336.967 83.46 339.719 82.9267 342.471 82.3933C347.991 81.3132 353.528 80.2064 358.803 78.3929C359.596 78.1588 360.335 77.8185 360.991 77.3862C361.318 77.1673 361.581 76.8914 361.761 76.5788C361.94 76.2661 362.031 75.9246 362.028 75.5794C361.916 75.0835 361.613 74.6296 361.164 74.2833C360.715 73.937 360.142 73.7161 359.529 73.6525Z" fill="white"/>
</g>
<path d="M270.921 91.0674C270.921 91.0074 266.021 91.8808 260.117 93.0142C254.213 94.1476 249.363 95.1144 249.379 95.1744C249.395 95.2344 254.23 94.3677 260.182 93.2342C266.135 92.1008 270.937 91.1607 270.921 91.0674Z" fill="white"/>
<path d="M364.026 97.5814C364.091 97.4767 364.135 97.3641 364.156 97.248C364.257 96.9386 364.318 96.6212 364.336 96.3013C364.376 95.8276 364.357 95.3517 364.279 94.8812C364.168 94.3043 363.982 93.7388 363.724 93.1944C363.452 92.6532 363.107 92.1388 362.695 91.6609C362.356 91.2725 361.967 90.9148 361.535 90.5941C361.249 90.3765 360.937 90.1822 360.604 90.0141C360.492 89.9412 360.365 89.8848 360.229 89.8474C360.229 89.8874 360.71 90.1541 361.404 90.7142C361.804 91.041 362.165 91.3982 362.482 91.7809C362.87 92.2501 363.199 92.7506 363.462 93.2744C363.713 93.803 363.902 94.35 364.026 94.9078C364.112 95.3666 364.15 95.8306 364.14 96.2946C364.115 97.068 363.968 97.5681 364.026 97.5814Z" fill="white"/>
<path d="M364.983 82.1067C365.268 81.8967 365.491 81.6369 365.636 81.3466C366.036 80.6638 366.21 79.9077 366.143 79.1531C366.093 78.3994 365.813 77.6679 365.326 77.0262C365.134 76.7602 364.872 76.5325 364.558 76.3595C364.518 76.3595 364.82 76.6395 365.155 77.1262C365.59 77.7559 365.844 78.4581 365.898 79.1797C365.956 79.9003 365.817 80.6224 365.489 81.2932C365.204 81.7933 364.942 82.08 364.983 82.1067Z" fill="white"/>
<path d="M362.378 114.249C362.753 114.063 363.069 113.807 363.3 113.503C363.926 112.786 364.231 111.916 364.166 111.037C364.1 110.159 363.668 109.325 362.941 108.676C362.668 108.39 362.315 108.161 361.912 108.009C361.912 108.009 362.304 108.269 362.794 108.762C363.432 109.412 363.813 110.205 363.888 111.036C363.941 111.869 363.678 112.695 363.137 113.403C362.729 113.956 362.337 114.223 362.378 114.249Z" fill="white"/>
<path d="M359.243 129.184C359.513 128.954 359.725 128.682 359.863 128.384C360.248 127.674 360.427 126.9 360.386 126.124C360.345 125.348 360.085 124.591 359.626 123.91C359.457 123.623 359.218 123.366 358.924 123.157C358.883 123.157 359.153 123.463 359.455 123.983C359.842 124.657 360.064 125.387 360.108 126.13C360.145 126.875 360.001 127.618 359.683 128.317C359.438 128.857 359.202 129.164 359.243 129.184Z" fill="white"/>
<path d="M320.447 67.8188C320.539 67.6018 320.607 67.3787 320.651 67.152C320.708 66.9454 320.774 66.6853 320.831 66.3786C320.888 66.0719 320.962 65.7119 320.994 65.3386C321.115 64.4354 321.156 63.5263 321.117 62.6183C321.036 60.3846 320.514 58.1762 319.573 56.0778C319.19 55.2238 318.735 54.3928 318.21 53.5909C317.997 53.2375 317.769 52.9242 317.581 52.6775C317.393 52.4308 317.213 52.1908 317.058 52.0107C316.918 51.8177 316.754 51.6368 316.568 51.4707C316.682 51.675 316.815 51.8712 316.968 52.0574C317.107 52.2441 317.271 52.4708 317.442 52.7241C317.614 52.9775 317.842 53.2975 318.038 53.6509C318.528 54.4582 318.959 55.2886 319.328 56.1378C319.772 57.1794 320.129 58.2441 320.398 59.3247C320.641 60.4109 320.796 61.5089 320.864 62.6117C320.909 63.5009 320.887 64.3915 320.798 65.2785C320.798 65.6652 320.717 66.0119 320.676 66.312C320.635 66.612 320.586 66.8787 320.545 67.092C320.479 67.3305 320.446 67.5743 320.447 67.8188Z" fill="white"/>
<path d="M241.644 135.371C241.644 135.371 244.355 133.651 246.372 133.584C248.389 133.518 251.01 134.151 251.533 133.938C252.056 133.724 253.289 132.784 254.073 133.578C254.857 134.371 255.828 137.225 251.623 138.011H248.732C248.732 138.011 249.083 140.372 249.786 141.298C250.488 142.225 260.295 152.306 260.295 152.306C260.295 152.306 261.52 153.313 260.907 154.306C260.295 155.3 257.641 154.733 257.641 154.733C257.641 154.733 255.804 156.066 253.705 155.446C252.662 155.159 251.662 154.777 250.725 154.306C250.046 154.729 249.215 154.959 248.361 154.959C247.506 154.959 246.676 154.729 245.997 154.306C243.547 152.806 235.381 144.439 235.381 144.439L238.304 135.104L241.644 135.371Z" fill="#FFBE9D"/>
<path d="M233.137 129.837L241.646 135.371L235.399 144.445L222.938 140.752C222.938 140.752 223.297 130.031 233.137 129.837Z" fill="#FFBE9D"/>
<path d="M365.858 117.476C365.858 117.476 365.588 114.99 363.881 115.476C362.175 115.963 361.432 118.917 361.432 118.917L365.858 117.476Z" fill="#FFBE9D"/>
<path d="M359.757 119.93C359.757 119.93 362.721 117.223 366.837 117.443C370.952 117.663 368.364 120.516 368.364 120.516C368.364 120.516 371.418 122.05 369.18 124.25L368.821 124.837C368.821 124.837 371.418 125.637 368.731 127.904C369.003 128.31 369.115 128.774 369.05 129.234C368.986 129.693 368.749 130.125 368.372 130.471C367.025 131.564 363.668 130.104 363.668 130.104C363.668 130.104 360.573 130.691 360.304 129.664C360.196 129.32 360.206 128.958 360.333 128.618C360.46 128.279 360.698 127.974 361.023 127.737C361.292 127.59 362.909 127.07 362.909 127.07C362.909 127.07 359.324 127.437 359.234 126.704C359.144 125.97 358.785 125.164 361.472 124.437L362.909 124.123C362.909 124.123 359.185 124.217 359.161 123.457C359.136 122.697 358.965 122.43 360.304 121.923C361.15 121.602 361.969 121.235 362.754 120.823C362.754 120.823 359.226 121.47 359.757 119.93Z" fill="#FFBE9D"/>
<path d="M359.104 122.79C360.447 121.977 361.945 121.351 363.538 120.937C365.16 120.611 366.837 120.503 368.502 120.617C368.038 120.459 367.543 120.374 367.041 120.363C364.595 120.191 362.156 120.753 360.181 121.943C359.757 122.165 359.391 122.452 359.104 122.79Z" fill="#6F4439"/>
<path d="M359.512 126.97C359.512 126.97 359.43 126.877 359.34 126.71C359.237 126.464 359.237 126.197 359.34 125.95C359.478 125.577 359.766 125.253 360.157 125.03C360.654 124.763 361.208 124.576 361.79 124.477C363.346 124.246 364.916 124.09 366.494 124.01C366.037 123.906 365.563 123.864 365.089 123.883C363.952 123.876 362.817 123.977 361.709 124.184C361.077 124.292 360.479 124.505 359.953 124.81C359.514 125.076 359.206 125.461 359.087 125.897C359.037 126.041 359.021 126.192 359.042 126.34C359.063 126.489 359.12 126.633 359.21 126.764C359.389 126.944 359.504 126.984 359.512 126.97Z" fill="#6F4439"/>
<path d="M361.023 130.191C361.023 130.191 360.893 130.124 360.713 129.984C360.561 129.864 360.441 129.719 360.362 129.558C360.283 129.398 360.246 129.225 360.253 129.052C360.261 128.879 360.313 128.71 360.406 128.554C360.5 128.399 360.632 128.261 360.795 128.15C361.333 127.854 361.926 127.629 362.55 127.484C363.731 127.284 364.943 127.232 366.143 127.33C366.653 127.385 367.171 127.362 367.67 127.264C367.171 127.187 366.667 127.138 366.16 127.117C364.926 126.954 363.666 126.981 362.444 127.197C361.773 127.354 361.14 127.604 360.574 127.937C360.318 128.11 360.133 128.343 360.043 128.604C359.988 128.824 359.988 129.051 360.043 129.271C360.075 129.431 360.146 129.585 360.251 129.724C360.356 129.862 360.494 129.982 360.656 130.077C360.86 130.204 361.023 130.204 361.023 130.191Z" fill="#6F4439"/>
<path d="M359.706 120.05C359.706 120.05 359.78 119.957 359.968 119.817C360.228 119.625 360.501 119.444 360.784 119.277C361.711 118.712 362.734 118.262 363.822 117.943C364.899 117.609 366.054 117.473 367.203 117.543C367.67 117.629 368.13 117.736 368.583 117.863C368.216 117.58 367.751 117.396 367.252 117.336C366.059 117.193 364.841 117.303 363.716 117.656C361.021 118.443 359.486 119.95 359.706 120.05Z" fill="#6F4439"/>
<path d="M369.502 41.5C368.727 41.5 360.855 45.5065 360.607 44.935C358.532 43.2699 356.281 41.687 353.867 40.1962C352.964 39.6006 349.74 36.5052 349.499 35.7124C349.259 34.9196 350.505 34.7489 351 34L354.247 33.0749C354.58 32.5657 355.111 32.1119 355.795 31.751C356.479 31.3901 357.297 31.1326 358.18 31L363.002 32.5L366.002 36.5L369.502 41.5Z" fill="#EB996E"/>
<path d="M371.305 44.177L371.214 38.5984C371.214 38.5984 364.393 37.2558 361.138 39.6392C357.883 42.0226 358.815 43.3964 358.815 43.3964C360.645 45.2876 363.464 46.808 366.88 47.747C373.115 49.6516 371.305 44.177 371.305 44.177Z" fill="#BB6BD9"/>
<path opacity="0.2" d="M371.305 44.177L371.214 38.5984C371.214 38.5984 364.393 37.2558 361.138 39.6392C357.883 42.0226 358.815 43.3964 358.815 43.3964C360.645 45.2876 363.464 46.808 366.88 47.747C373.115 49.6516 371.305 44.177 371.305 44.177Z" fill="black"/>
<path d="M434.503 82.3429C426.183 78.1797 410.054 71.1231 399.264 66.3563C394.29 64.1602 383.227 52.0974 377.32 47.2369C375.563 46.0692 373.54 45.0402 371.304 44.177L365.342 47.2057C364.696 47.7087 364.253 48.2867 364.045 48.8984C363.836 49.51 363.867 50.1403 364.135 50.7444C368.341 57.3847 381.837 72.778 386.555 75.4528C400.307 83.238 426.274 96.0085 431.541 95.7587C439.422 95.4048 440.903 85.5381 434.503 82.3429Z" fill="#BB6BD9"/>
<path opacity="0.2" d="M434.503 82.3429C426.183 78.1797 410.054 71.1231 399.264 66.3563C394.29 64.1602 383.227 52.0974 377.32 47.2369C375.563 46.0692 373.54 45.0402 371.304 44.177L365.342 47.2057C364.696 47.7087 364.253 48.2867 364.045 48.8984C363.836 49.51 363.867 50.1403 364.135 50.7444C368.341 57.3847 381.837 72.778 386.555 75.4528C400.307 83.238 426.274 96.0085 431.541 95.7587C439.422 95.4048 440.903 85.5381 434.503 82.3429Z" fill="white"/>
<path d="M518.569 299.369C519.523 298.169 520.82 297.068 522.41 296.111C522.41 296.111 528.901 290.023 524.366 279.25L533.18 275.004C535.545 275.04 537.793 275.596 539.453 276.555C540.538 277.258 541.523 278.01 542.397 278.803C545.487 281.925 552.217 289.128 552.217 289.128L550.9 289.533C544.5 291.5 548.5 290.533 545 291.5C541.5 293.157 538 293.5 542.397 291.5C543.403 294.279 539.471 294.602 531.132 297.36C521.44 300.597 517.179 301.628 518.569 299.369Z" fill="#263238"/>
<path d="M534.916 284.86C534.916 286.682 536.928 289.908 533.984 292.281C532.682 293.372 530.965 294.283 528.962 294.946C526.958 295.609 524.718 296.007 522.408 296.111C522.408 296.111 527.492 291.376 525.535 282.851C525.266 281.643 524.875 280.444 524.365 279.261C524.365 279.261 531.99 276.138 535.465 275.764L537.202 278.605C536.871 280.474 536.178 282.317 535.136 284.1C534.98 284.344 534.906 284.601 534.916 284.86Z" fill="#EB996E"/>
<path d="M537.204 278.605C536.872 280.475 536.179 282.318 535.137 284.1C534.982 284.344 534.907 284.601 534.918 284.86L527.768 286.494L525.537 282.852L517.637 269.862L530.127 266.99L535.466 275.764L537.204 278.605Z" fill="#EB996E"/>
<path opacity="0.2" d="M529.54 266.022L516.959 268.894L520.379 274.494C520.379 274.494 529.431 275.535 533.179 272.006L533.673 272.829L529.54 266.022Z" fill="black"/>
<path d="M424.081 294.352C426.018 293.637 428.15 293.109 430.39 292.791C430.39 292.791 441.637 289.669 448.019 279.198L459.704 277.981C460.716 278.272 461.613 278.678 462.339 279.174C463.066 279.669 463.607 280.245 463.928 280.864C463.983 282.02 463.91 283.178 463.709 284.329C463.38 287.941 462.002 297 462.002 297H460.502C459.502 297 458.002 297 458.002 297C458.002 297 457.002 297 455.502 297C452.502 297 446.263 296.725 436.589 296.538C425.252 296.246 420.698 295.789 424.081 294.352Z" fill="#263238"/>
<path d="M457.654 283.205C456.309 284.495 454.569 285.637 452.516 286.578C450.157 287.566 449.242 291.844 443.793 293.114C441.658 293.63 439.347 293.87 437.029 293.816C434.711 293.762 432.443 293.416 430.389 292.801C430.389 292.801 438.874 290.428 445.274 282.945C446.757 281.215 447.231 279.261 446.627 277.367L442.769 265.127L456.923 264.221L460.013 278.886C460.24 280.445 459.394 281.994 457.654 283.205Z" fill="#EB996E"/>
<path opacity="0.2" d="M441.289 259.257L444.38 270.227H445.44C447.567 270.516 449.777 270.548 451.926 270.318C454.075 270.088 456.115 269.603 457.912 268.895H457.692L455.626 258.487L441.289 259.257Z" fill="black"/>
<path d="M493.754 87.5363C493.885 87.0334 493.916 86.5236 493.845 86.0167C492.876 80.3236 494.248 73.7874 484.245 74.3494C480.032 75.8243 475.261 76.7056 470.329 76.9202H469.89C461.385 77.462 452.958 78.3454 444.672 79.5638C443.264 79.7616 441.82 80.0113 440.412 80.2611C438.473 80.615 436.571 80.9689 434.761 81.3019C426.148 82.9984 427.026 88.3377 425.215 93.4064C423.039 99.495 419.821 101.108 437.065 118.947C439.589 121.581 437.193 128.387 442.185 130.396C453.688 135.038 496.735 127.378 496.735 127.378C496.735 127.378 488.103 106.281 493.754 87.5363Z" fill="#BB6BD9"/>
<g opacity="0.2">
<path d="M493.756 87.5363C493.887 87.0334 493.918 86.5236 493.847 86.0167C492.878 80.3236 494.25 73.7874 484.247 74.3494C480.034 75.8243 475.263 76.7056 470.331 76.9202H469.892C461.387 77.462 452.96 78.3454 444.674 79.5638C443.266 79.7616 441.822 80.0113 440.414 80.2611C438.475 80.615 436.573 80.9689 434.763 81.3019C426.15 82.9984 427.028 88.3377 425.217 93.4064C423.041 99.495 419.823 101.108 437.067 118.947C439.591 121.581 437.195 128.387 442.187 130.396C453.69 135.038 496.737 127.378 496.737 127.378C496.737 127.378 488.105 106.281 493.756 87.5363Z" fill="white"/>
</g>
<path d="M442.184 130.469C442.184 130.469 437.814 170.644 434.102 201.503C431.139 226.035 438.216 268.051 438.216 268.051C445.814 269.243 453.93 268.69 460.819 266.511C460.819 266.511 465.372 227.929 462.775 204.511C479.398 170.477 503.226 138.379 486.804 125.619L442.184 130.469Z" fill="#263238"/>
<path opacity="0.3" d="M467.751 154.324L490.81 147.122C487.336 159.278 478.485 174.515 469.817 190.835C463.929 177.773 461.387 164.18 467.751 154.324Z" fill="black"/>
<path d="M452.957 129.282C452.957 129.282 466.178 162.848 474.901 192.771C478.467 214.274 517.162 273.359 517.162 273.359L524.166 272.662C527.494 272.337 530.597 271.49 533.126 270.216L535.522 269.009C535.522 269.009 524.842 226.336 513.724 209.684C515.114 175.088 518.095 136.443 495.62 124.589L452.957 129.282Z" fill="#263238"/>
<path d="M442.989 80.8025C441.836 82.7071 440.136 86.1313 441.58 87.5156C441.782 86.7558 444.506 84.2891 446.463 85.434C447.102 85.7836 447.667 86.1749 448.145 86.5997L451.803 89.9511C452.315 90.4298 452.991 90.9919 453.979 90.9919C454.966 90.9919 456.045 90.3882 456.667 89.8053L460.471 86.2042C461.232 85.3277 462.378 84.5783 463.799 84.0289C465.28 83.5502 470.602 84.6118 471.461 85.4548C471.662 83.2275 472.705 78.5127 472.412 77.2222C472.119 75.9316 467.621 74.0998 465.372 73.8396C463.837 73.7386 462.284 73.8865 460.891 74.2663C454.528 75.661 445.476 76.733 442.989 80.8025Z" fill="white"/>
<path d="M461.97 67.7614C462.628 71.4146 464.311 75.1199 468.114 76.577C468.114 76.577 472.119 79.512 458.532 84.997C456.283 85.9857 452.936 87.0265 450.943 85.8712C446.774 83.3837 446.792 81.1252 447.487 79.7097C447.915 78.9386 448.728 78.255 449.828 77.7426C452.827 76.1919 450.98 74.3393 448.31 68.719L454.6 66.5645C455.123 66.2188 455.809 65.9657 456.577 65.8352C457.344 65.7048 458.162 65.7024 458.932 65.8284C459.702 65.9544 460.392 66.2035 460.921 66.5461C461.45 66.8888 461.795 67.3106 461.915 67.7614H461.97Z" fill="#EB996E"/>
<path opacity="0.2" d="M454.619 66.5334C455.109 66.193 455.755 65.936 456.485 65.7908C457.214 65.6456 458.001 65.6177 458.756 65.7102C459.512 65.8027 460.209 66.012 460.769 66.3152C461.33 66.6183 461.733 67.0035 461.934 67.4284C459.61 70.3186 455.779 72.7316 450.962 74.3393C450.761 72.8718 448.804 71.373 447.89 69.9888C447.597 69.5308 448.658 69.1457 448.292 68.6982L454.619 66.5334Z" fill="black"/>
<path d="M455.222 41.8457C453.663 41.107 451.801 40.605 449.809 40.3866C447.816 40.1682 445.76 40.2405 443.83 40.5967C439.982 41.3345 436.523 42.6124 433.772 44.3123C428.657 47.1291 424.882 50.6386 422.8 54.5121C420.765 58.4038 421.12 62.5739 423.806 66.3355C425.026 68.1534 427.172 69.7226 429.968 70.8421C432.284 71.5998 434.904 72.0055 437.575 72.0201C440.246 72.0346 442.879 71.6577 445.22 70.9254C449.87 69.4181 453.674 67.1915 456.192 64.5037C459.703 61.0899 465.573 52.597 460.142 46.1129C458.986 44.5277 457.317 43.0803 455.222 41.8457Z" fill="#F2F2F2"/>
<path d="M464.111 67.1265C458.461 68.3963 455.388 69.5515 454.072 68.9167C452.408 68.0944 457.418 64.2019 457.821 62.9633C458.236 61.6555 459.136 60.413 460.46 59.3184C461.784 58.2238 463.503 57.3021 465.501 56.6145C467.533 55.9576 469.83 55.6122 472.167 55.6122C474.503 55.6122 476.8 55.9576 478.832 56.6145C480.016 57.0035 481.04 57.5314 481.838 58.163C482.636 58.7946 483.188 59.5156 483.459 60.2781C483.898 61.8497 481.502 62.8384 479.509 63.7439C475.156 65.711 469.414 65.94 464.111 67.1265Z" fill="#F2F2F2"/>
<path d="M466.725 54.3768C466.323 61.756 466.432 64.8784 460.215 68.8542C450.852 74.818 435.345 73.1319 431.87 65.8775C428.798 59.3518 429.95 48.3922 442.239 45.0617C454.528 41.7311 467.109 46.9976 466.725 54.3768Z" fill="#EB996E"/>
<path d="M462.097 54.5433C459.464 55.2822 459.775 62.2243 466.029 61.9745C472.283 61.7247 470.637 52.1286 462.097 54.5433Z" fill="#F2F2F2"/>
<path d="M469.964 61.1316C469.437 62.5284 467.991 63.7574 465.923 64.5662C463.161 65.607 460.839 64.3477 460.82 62.5575C460.802 60.7673 462.21 58.4568 465.356 58.1237C466.049 58.0575 466.761 58.0935 467.423 58.2284C468.085 58.3633 468.676 58.5925 469.138 58.8942C469.6 59.1958 469.919 59.5599 470.063 59.9516C470.208 60.3433 470.174 60.7496 469.964 61.1316Z" fill="#EB996E"/>
<path d="M453.778 41.0755C436.095 42.7928 437.32 49.4746 452.571 53.7523C461.02 56.1149 472.248 61.5374 465.061 70.1864C462.775 72.9445 491.668 62.724 483.567 56.6561C468.005 45.1241 467.402 38.5047 453.778 41.0755Z" fill="#F2F2F2"/>
<path d="M445.495 57.2701C445.495 57.8634 445.038 58.3734 444.325 58.3838C443.612 58.3942 443.081 57.9362 443.045 57.343C443.008 56.7497 443.52 56.2293 444.215 56.2189C444.91 56.2085 445.459 56.6665 445.495 57.2701Z" fill="#263238"/>
<path d="M433.792 57.6137C433.792 58.2069 433.335 58.7065 432.622 58.7273C431.909 58.7482 431.378 58.2902 431.342 57.6865C431.305 57.0829 431.817 56.5833 432.512 56.5625C433.207 56.5417 433.756 57.0204 433.792 57.6137Z" fill="#263238"/>
<path d="M432.839 56.5728L430.334 56.2294C430.334 56.2294 431.651 57.343 432.839 56.5728Z" fill="#263238"/>
<path d="M449.152 54.6994C449.049 54.6875 448.958 54.6541 448.896 54.6058C448.441 54.2698 447.852 54.0001 447.178 53.8192C446.504 53.6382 445.764 53.5511 445.019 53.565C444.86 53.5739 444.701 53.5476 444.575 53.4913C444.448 53.4351 444.365 53.3534 444.343 53.2632C444.327 53.1709 444.376 53.0788 444.479 53.0068C444.581 52.9348 444.729 52.8885 444.891 52.878C445.853 52.8425 446.815 52.9426 447.692 53.1696C448.57 53.3965 449.335 53.7433 449.92 54.179C450.018 54.2543 450.062 54.3483 450.041 54.4414C450.021 54.5344 449.938 54.6194 449.81 54.6786C449.717 54.7193 449.604 54.7431 449.487 54.7468C449.369 54.7505 449.253 54.734 449.152 54.6994Z" fill="#F2F2F2"/>
<path d="M429.035 54.5642V54.5017C428.992 54.4629 428.963 54.4196 428.95 54.3744C428.936 54.3291 428.939 54.2828 428.958 54.2382C428.977 54.1935 429.011 54.1515 429.059 54.1145C429.107 54.0776 429.167 54.0464 429.236 54.0229C430.046 53.731 430.969 53.5557 431.925 53.5122C432.881 53.4687 433.841 53.5582 434.722 53.7731C434.87 53.8159 434.982 53.8904 435.033 53.9802C435.085 54.07 435.072 54.1677 434.996 54.2519C434.921 54.3361 434.79 54.3998 434.633 54.4291C434.475 54.4584 434.303 54.4508 434.155 54.408C433.447 54.2352 432.674 54.1637 431.906 54.2C431.138 54.2363 430.397 54.3792 429.748 54.6162C429.635 54.6522 429.505 54.6666 429.376 54.6572C429.248 54.6479 429.128 54.6152 429.035 54.5642Z" fill="#F2F2F2"/>
<path d="M444.507 56.2398L442.002 55.8964C442.002 55.8964 443.337 56.9892 444.507 56.2398Z" fill="#263238"/>
<path d="M438.002 64.3063C442.568 63.5917 447.262 63.1536 452.002 63C451.762 64.0877 450.811 65.0908 449.325 65.8234C447.838 66.556 445.918 66.9684 443.92 66.9842C443.209 67.0247 442.491 66.9872 441.808 66.8741C441.124 66.7609 440.488 66.5742 439.937 66.325C439.386 66.0757 438.932 65.7689 438.599 65.4223C438.267 65.0757 438.064 64.6963 438.002 64.3063Z" fill="#263238"/>
<path d="M445.732 65.7214C443.812 65.7577 441.977 66.182 440.557 66.9183C441.506 67.254 442.631 67.3902 443.739 67.3034C445.659 67.2672 447.493 66.8429 448.914 66.1065C447.964 65.7709 446.839 65.6347 445.732 65.7214Z" fill="#FF5652"/>
<path d="M439.002 64.1579C439.123 64.3741 439.355 64.5678 439.673 64.7168C439.991 64.8657 440.382 64.9639 440.8 65C443.872 64.8379 446.909 64.5207 449.868 64.0526C450.368 63.9946 450.829 63.8664 451.204 63.6813C451.58 63.4962 451.855 63.2609 452.002 63C447.614 63.1837 443.264 63.5712 439.002 64.1579Z" fill="white"/>
<path d="M547.626 32.0518L552.875 31.7084C553.782 31.6626 554.695 31.7461 555.531 31.9513C556.368 32.1566 557.101 32.4771 557.665 32.884C558.23 33.2909 558.607 33.7713 558.764 34.282C558.92 34.7927 558.851 35.3175 558.562 35.8091L555.965 39.8682L546.127 38.9315L547.626 32.0518Z" fill="#BB6BD9"/>
<path opacity="0.2" d="M547.626 32.0518L553.204 31.6875C554.084 31.6288 554.975 31.6992 555.794 31.892C556.612 32.0847 557.331 32.3934 557.88 32.7887C558.43 33.184 558.793 33.6528 558.935 34.1505C559.077 34.6482 558.992 35.1582 558.69 35.6321L555.965 39.9202L546.127 38.9835L547.626 32.0518Z" fill="black"/>
<path d="M556.77 40.4405C556.77 40.4405 546.639 65.7214 495.015 88.8374C481.666 94.8324 469.743 78.7833 484.208 74.3183C494.942 70.9982 518.331 64.3267 527.438 55.7714C536.545 47.2161 536.453 41.0962 546.09 38.9002C555.728 36.7041 556.77 40.4405 556.77 40.4405Z" fill="#BB6BD9"/>
<path opacity="0.2" d="M556.77 40.4405C556.77 40.4405 546.639 65.7214 495.015 88.8374C481.666 94.8324 469.743 78.7833 484.208 74.3183C494.942 70.9982 518.331 64.3267 527.438 55.7714C536.545 47.2161 536.453 41.0962 546.09 38.9002C555.728 36.7041 556.77 40.4405 556.77 40.4405Z" fill="white"/>
<path d="M452.702 56.0199C452.796 56.117 452.323 56.5757 451.536 56.9021C450.748 57.2285 450.023 57.2373 450.002 57.1138C449.981 56.9903 450.58 56.7786 451.305 56.4875C452.029 56.1964 452.649 55.9229 452.702 56.0199Z" fill="#EB996E"/>
<path d="M354.929 38.4807C353.54 37.326 351.927 36.0827 351.927 36.0827L350.565 34.9179C350.506 35.0137 350.457 35.1137 350.419 35.2167C350.364 35.4168 350.247 35.6023 350.08 35.756C349.732 36.0092 349.148 35.9333 348.744 35.756C348.309 35.555 347.946 35.2659 347.69 34.9167C347.433 34.5674 347.292 34.17 347.28 33.7632C347.283 33.374 347.406 32.9917 347.638 32.6514C347.87 32.3112 348.203 32.0239 348.607 31.8159C348.68 31.6015 348.805 31.401 348.974 31.2259C350.111 30.0332 352.797 30.1877 352.797 30.1877L352.393 29.7243C352.393 29.7243 350.553 28.8051 347.519 30.3725C347.069 30.6151 346.524 30.7126 345.99 30.646C345.825 30.6334 345.665 30.591 345.523 30.5217C345.38 30.4525 345.259 30.3583 345.166 30.2459C344.716 29.6357 345.132 29.2204 347.006 28.2202C348.881 27.2199 351.103 26.7616 352.52 27.182C353.184 27.3655 353.831 27.5864 354.457 27.8429C354.457 27.8429 351.081 23.4925 350.892 23.2115C350.317 22.3961 350.27 21.5073 350.91 21.1426C351.317 20.9097 352.038 20.8616 352.747 21.7934C353.369 22.5987 360.928 30.2181 360.928 30.2181L364.036 33.748L366 36.9968L359.302 40L358.743 39.9569C357.298 39.8458 355.947 39.3231 354.929 38.4807Z" fill="#EB996E"/>
<path d="M560.308 28.9809C561.161 27.272 562.191 25.3909 562.191 25.3909L563.014 23.6811C563.108 23.7617 563.194 23.8504 563.27 23.9462C563.401 24.1387 563.583 24.2943 563.801 24.3985C564.228 24.5445 564.749 24.2594 565.06 23.9303C565.389 23.5654 565.618 23.1321 565.722 22.6726C565.826 22.2131 565.802 21.743 565.653 21.3081C565.497 20.8973 565.231 20.5358 564.878 20.2569C564.526 19.978 564.099 19.7906 563.637 19.7119C563.484 19.5106 563.287 19.342 563.059 19.2159C561.518 18.3519 559.05 19.4561 559.05 19.4561L559.248 18.8241C559.248 18.8241 560.619 17.2066 564.093 17.8031C564.613 17.9021 565.164 17.8143 565.641 17.5569C565.791 17.4857 565.925 17.3848 566.032 17.2616C566.139 17.1385 566.216 16.9961 566.259 16.8449C566.443 16.0411 565.887 15.7474 563.729 15.3452C561.57 14.943 559.297 15.2364 558.127 16.1777C557.575 16.6045 557.053 17.0648 556.564 17.5556C556.564 17.5556 558.03 11.7685 558.098 11.4046C558.318 10.3401 558.012 9.38301 557.266 9.22134C556.791 9.11738 556.093 9.31905 555.792 10.5536C555.524 11.6237 551.405 22.3365 551.405 22.3365L549.868 27.1615L549 31.8794L556.788 32.1209L557.298 31.8794C558.614 31.2556 559.68 30.2293 560.308 28.9809Z" fill="#EB996E"/>
</svg>
