<svg width="50" height="50" viewBox="0 0 50 50" fill="none" xmlns="http://www.w3.org/2000/svg">
<circle cx="25" cy="25" r="24" fill="white" stroke="#2D9CDB" stroke-width="2"/>
<path d="M32.8901 17.8072C32.8908 17.8847 32.8614 17.9595 32.8082 18.0158L18.0158 32.8082C17.9595 32.8614 17.8847 32.8908 17.8072 32.8901C17.7285 32.8894 17.6533 32.8579 17.5976 32.8022C17.542 32.7466 17.5105 32.6714 17.5098 32.5927C17.5091 32.5152 17.5385 32.4404 17.5917 32.3841L32.3841 17.5917C32.4404 17.5385 32.5152 17.5091 32.5927 17.5098C32.6714 17.5105 32.7466 17.542 32.8022 17.5976C32.8579 17.6533 32.8894 17.7285 32.8901 17.8072Z" fill="#2D9CDB" stroke="#2D9CDB"/>
<path d="M40.5 25C40.5 33.5607 33.5607 40.5 25 40.5C16.4393 40.5 9.5 33.5607 9.5 25C9.5 16.4393 16.4393 9.5 25 9.5C33.5607 9.5 40.5 16.4393 40.5 25ZM25 39.9C33.2289 39.9 39.9 33.2289 39.9 25C39.9 16.7711 33.2289 10.1 25 10.1C16.7711 10.1 10.1 16.7711 10.1 25C10.1 33.2289 16.7711 39.9 25 39.9Z" fill="#2D9CDB" stroke="#2D9CDB"/>
</svg>
