<svg width="50" height="50" viewBox="0 0 50 50" fill="none" xmlns="http://www.w3.org/2000/svg">
<circle cx="25" cy="25" r="24" fill="white" stroke="#2D9CDB" stroke-width="2"/>
<mask id="path-2-inside-1_1030_4685" fill="white">
<path d="M31.7347 10C29.1438 10 26.5529 10.8887 24.5302 12.5586C24.5217 12.5708 24.5131 12.5854 24.5075 12.5977C24.5103 12.5928 24.1978 12.8613 23.7802 13.2227C23.3626 13.584 22.7916 14.0698 22.1211 14.6484C20.7802 15.8057 19.0302 17.3047 17.2802 18.8086C15.5302 20.3125 13.7916 21.8237 12.4393 22.9883C11.7631 23.5718 11.1836 24.0625 10.7575 24.4336C10.3484 24.7876 10.1154 24.9927 9.98473 25.1172C9.97905 25.1221 9.96769 25.1514 9.96201 25.1562C6.01314 28.584 6.00462 34.0869 9.98473 37.4414C11.9393 39.1211 14.5302 40 17.1893 40C19.8484 40 22.3796 39.1064 24.3938 37.4414L39.0075 24.8828C42.9933 21.4575 43.0018 15.9229 39.0075 12.5586C36.9847 10.8887 34.3938 10 31.7347 10ZM31.7347 11.25C34.0217 11.25 36.2234 12.002 37.9847 13.457C41.3967 16.3428 41.4137 21.0571 37.9847 24.0039L31.8938 29.2383L19.5302 18.6328C20.8143 17.5269 22.1438 16.3892 23.1438 15.5273C23.8143 14.9487 24.3825 14.4653 24.8029 14.1016C25.1978 13.7573 25.4194 13.5864 25.5529 13.457C25.5614 13.4497 25.5898 13.4253 25.5984 13.418C27.3512 11.9897 29.5444 11.25 31.7347 11.25ZM18.5075 19.5117L30.8484 30.1367L23.3711 36.543C22.5813 37.1948 21.7177 37.7026 20.8029 38.0664C20.766 37.7515 20.4734 37.5 20.0984 37.5C19.6978 37.5 19.3711 37.7808 19.3711 38.125C19.3711 38.2568 19.4251 38.3765 19.5075 38.4766C18.7603 38.6548 17.9847 38.75 17.1893 38.75C16.8029 38.75 16.4109 38.7134 16.0302 38.6719C16.2773 38.5718 16.462 38.374 16.462 38.125C16.462 37.7808 16.1353 37.5 15.7347 37.5C15.3342 37.5 15.0075 37.7808 15.0075 38.125C15.0075 38.2886 15.07 38.4424 15.1893 38.5547C13.6353 38.2471 12.1921 37.5806 11.0075 36.5625C9.79155 35.5371 9.01882 34.2773 8.66655 32.9492C8.79723 33.0615 8.98757 33.125 9.18928 33.125C9.58985 33.125 9.91655 32.8442 9.91655 32.5C9.91655 32.1558 9.58985 31.875 9.18928 31.875C8.88814 31.875 8.64098 32.041 8.53019 32.2656C8.37678 31.2598 8.45348 30.2441 8.78019 29.2578C8.89666 29.3286 9.03587 29.375 9.18928 29.375C9.58985 29.375 9.91655 29.0942 9.91655 28.75C9.91655 28.4277 9.62394 28.1763 9.25746 28.1445C9.68075 27.3657 10.2575 26.6406 11.0075 25.9961C11.0217 25.9912 11.0387 25.9839 11.0529 25.9766C11.0728 25.957 11.3569 25.6812 11.7802 25.3125C12.2035 24.9438 12.7859 24.4482 13.462 23.8672C14.8114 22.7026 16.5529 21.2109 18.3029 19.707C18.3796 19.6411 18.4308 19.5776 18.5075 19.5117ZM17.9165 20.625C17.516 20.625 17.1893 20.9058 17.1893 21.25C17.1893 21.5942 17.516 21.875 17.9165 21.875C18.3171 21.875 18.6438 21.5942 18.6438 21.25C18.6438 20.9058 18.3171 20.625 17.9165 20.625ZM15.7347 22.5C15.3342 22.5 15.0075 22.7808 15.0075 23.125C15.0075 23.4692 15.3342 23.75 15.7347 23.75C16.1353 23.75 16.462 23.4692 16.462 23.125C16.462 22.7808 16.1353 22.5 15.7347 22.5ZM20.0984 22.5C19.6978 22.5 19.3711 22.7808 19.3711 23.125C19.3711 23.4692 19.6978 23.75 20.0984 23.75C20.4989 23.75 20.8256 23.4692 20.8256 23.125C20.8256 22.7808 20.4989 22.5 20.0984 22.5ZM13.5529 24.375C13.1523 24.375 12.8256 24.6558 12.8256 25C12.8256 25.3442 13.1523 25.625 13.5529 25.625C13.9535 25.625 14.2802 25.3442 14.2802 25C14.2802 24.6558 13.9535 24.375 13.5529 24.375ZM17.9165 24.375C17.516 24.375 17.1893 24.6558 17.1893 25C17.1893 25.3442 17.516 25.625 17.9165 25.625C18.3171 25.625 18.6438 25.3442 18.6438 25C18.6438 24.6558 18.3171 24.375 17.9165 24.375ZM22.2802 24.375C21.8796 24.375 21.5529 24.6558 21.5529 25C21.5529 25.3442 21.8796 25.625 22.2802 25.625C22.6808 25.625 23.0075 25.3442 23.0075 25C23.0075 24.6558 22.6808 24.375 22.2802 24.375ZM11.3711 26.25C10.9705 26.25 10.6438 26.5308 10.6438 26.875C10.6438 27.2192 10.9705 27.5 11.3711 27.5C11.7717 27.5 12.0984 27.2192 12.0984 26.875C12.0984 26.5308 11.7717 26.25 11.3711 26.25ZM15.7347 26.25C15.3342 26.25 15.0075 26.5308 15.0075 26.875C15.0075 27.2192 15.3342 27.5 15.7347 27.5C16.1353 27.5 16.462 27.2192 16.462 26.875C16.462 26.5308 16.1353 26.25 15.7347 26.25ZM20.0984 26.25C19.6978 26.25 19.3711 26.5308 19.3711 26.875C19.3711 27.2192 19.6978 27.5 20.0984 27.5C20.4989 27.5 20.8256 27.2192 20.8256 26.875C20.8256 26.5308 20.4989 26.25 20.0984 26.25ZM24.462 26.25C24.0614 26.25 23.7347 26.5308 23.7347 26.875C23.7347 27.2192 24.0614 27.5 24.462 27.5C24.8626 27.5 25.1893 27.2192 25.1893 26.875C25.1893 26.5308 24.8626 26.25 24.462 26.25ZM13.5529 28.125C13.1523 28.125 12.8256 28.4058 12.8256 28.75C12.8256 29.0942 13.1523 29.375 13.5529 29.375C13.9535 29.375 14.2802 29.0942 14.2802 28.75C14.2802 28.4058 13.9535 28.125 13.5529 28.125ZM17.9165 28.125C17.516 28.125 17.1893 28.4058 17.1893 28.75C17.1893 29.0942 17.516 29.375 17.9165 29.375C18.3171 29.375 18.6438 29.0942 18.6438 28.75C18.6438 28.4058 18.3171 28.125 17.9165 28.125ZM22.2802 28.125C21.8796 28.125 21.5529 28.4058 21.5529 28.75C21.5529 29.0942 21.8796 29.375 22.2802 29.375C22.6808 29.375 23.0075 29.0942 23.0075 28.75C23.0075 28.4058 22.6808 28.125 22.2802 28.125ZM26.6438 28.125C26.2433 28.125 25.9165 28.4058 25.9165 28.75C25.9165 29.0942 26.2433 29.375 26.6438 29.375C27.0444 29.375 27.3711 29.0942 27.3711 28.75C27.3711 28.4058 27.0444 28.125 26.6438 28.125ZM11.3711 30C10.9705 30 10.6438 30.2808 10.6438 30.625C10.6438 30.9692 10.9705 31.25 11.3711 31.25C11.7717 31.25 12.0984 30.9692 12.0984 30.625C12.0984 30.2808 11.7717 30 11.3711 30ZM15.7347 30C15.3342 30 15.0075 30.2808 15.0075 30.625C15.0075 30.9692 15.3342 31.25 15.7347 31.25C16.1353 31.25 16.462 30.9692 16.462 30.625C16.462 30.2808 16.1353 30 15.7347 30ZM20.0984 30C19.6978 30 19.3711 30.2808 19.3711 30.625C19.3711 30.9692 19.6978 31.25 20.0984 31.25C20.4989 31.25 20.8256 30.9692 20.8256 30.625C20.8256 30.2808 20.4989 30 20.0984 30ZM24.462 30C24.0614 30 23.7347 30.2808 23.7347 30.625C23.7347 30.9692 24.0614 31.25 24.462 31.25C24.8626 31.25 25.1893 30.9692 25.1893 30.625C25.1893 30.2808 24.8626 30 24.462 30ZM28.8256 30C28.4251 30 28.0984 30.2808 28.0984 30.625C28.0984 30.9692 28.4251 31.25 28.8256 31.25C29.2262 31.25 29.5529 30.9692 29.5529 30.625C29.5529 30.2808 29.2262 30 28.8256 30ZM13.5529 31.875C13.1523 31.875 12.8256 32.1558 12.8256 32.5C12.8256 32.8442 13.1523 33.125 13.5529 33.125C13.9535 33.125 14.2802 32.8442 14.2802 32.5C14.2802 32.1558 13.9535 31.875 13.5529 31.875ZM17.9165 31.875C17.516 31.875 17.1893 32.1558 17.1893 32.5C17.1893 32.8442 17.516 33.125 17.9165 33.125C18.3171 33.125 18.6438 32.8442 18.6438 32.5C18.6438 32.1558 18.3171 31.875 17.9165 31.875ZM22.2802 31.875C21.8796 31.875 21.5529 32.1558 21.5529 32.5C21.5529 32.8442 21.8796 33.125 22.2802 33.125C22.6808 33.125 23.0075 32.8442 23.0075 32.5C23.0075 32.1558 22.6808 31.875 22.2802 31.875ZM26.6438 31.875C26.2433 31.875 25.9165 32.1558 25.9165 32.5C25.9165 32.8442 26.2433 33.125 26.6438 33.125C27.0444 33.125 27.3711 32.8442 27.3711 32.5C27.3711 32.1558 27.0444 31.875 26.6438 31.875ZM11.3711 33.75C10.9705 33.75 10.6438 34.0308 10.6438 34.375C10.6438 34.7192 10.9705 35 11.3711 35C11.7717 35 12.0984 34.7192 12.0984 34.375C12.0984 34.0308 11.7717 33.75 11.3711 33.75ZM15.7347 33.75C15.3342 33.75 15.0075 34.0308 15.0075 34.375C15.0075 34.7192 15.3342 35 15.7347 35C16.1353 35 16.462 34.7192 16.462 34.375C16.462 34.0308 16.1353 33.75 15.7347 33.75ZM20.0984 33.75C19.6978 33.75 19.3711 34.0308 19.3711 34.375C19.3711 34.7192 19.6978 35 20.0984 35C20.4989 35 20.8256 34.7192 20.8256 34.375C20.8256 34.0308 20.4989 33.75 20.0984 33.75ZM24.462 33.75C24.0614 33.75 23.7347 34.0308 23.7347 34.375C23.7347 34.7192 24.0614 35 24.462 35C24.8626 35 25.1893 34.7192 25.1893 34.375C25.1893 34.0308 24.8626 33.75 24.462 33.75ZM13.5529 35.625C13.1523 35.625 12.8256 35.9058 12.8256 36.25C12.8256 36.5942 13.1523 36.875 13.5529 36.875C13.9535 36.875 14.2802 36.5942 14.2802 36.25C14.2802 35.9058 13.9535 35.625 13.5529 35.625ZM17.9165 35.625C17.516 35.625 17.1893 35.9058 17.1893 36.25C17.1893 36.5942 17.516 36.875 17.9165 36.875C18.3171 36.875 18.6438 36.5942 18.6438 36.25C18.6438 35.9058 18.3171 35.625 17.9165 35.625ZM22.2802 35.625C21.8796 35.625 21.5529 35.9058 21.5529 36.25C21.5529 36.5942 21.8796 36.875 22.2802 36.875C22.6808 36.875 23.0075 36.5942 23.0075 36.25C23.0075 35.9058 22.6808 35.625 22.2802 35.625Z"/>
</mask>
<path d="M31.7347 10C29.1438 10 26.5529 10.8887 24.5302 12.5586C24.5217 12.5708 24.5131 12.5854 24.5075 12.5977C24.5103 12.5928 24.1978 12.8613 23.7802 13.2227C23.3626 13.584 22.7916 14.0698 22.1211 14.6484C20.7802 15.8057 19.0302 17.3047 17.2802 18.8086C15.5302 20.3125 13.7916 21.8237 12.4393 22.9883C11.7631 23.5718 11.1836 24.0625 10.7575 24.4336C10.3484 24.7876 10.1154 24.9927 9.98473 25.1172C9.97905 25.1221 9.96769 25.1514 9.96201 25.1562C6.01314 28.584 6.00462 34.0869 9.98473 37.4414C11.9393 39.1211 14.5302 40 17.1893 40C19.8484 40 22.3796 39.1064 24.3938 37.4414L39.0075 24.8828C42.9933 21.4575 43.0018 15.9229 39.0075 12.5586C36.9847 10.8887 34.3938 10 31.7347 10ZM31.7347 11.25C34.0217 11.25 36.2234 12.002 37.9847 13.457C41.3967 16.3428 41.4137 21.0571 37.9847 24.0039L31.8938 29.2383L19.5302 18.6328C20.8143 17.5269 22.1438 16.3892 23.1438 15.5273C23.8143 14.9487 24.3825 14.4653 24.8029 14.1016C25.1978 13.7573 25.4194 13.5864 25.5529 13.457C25.5614 13.4497 25.5898 13.4253 25.5984 13.418C27.3512 11.9897 29.5444 11.25 31.7347 11.25ZM18.5075 19.5117L30.8484 30.1367L23.3711 36.543C22.5813 37.1948 21.7177 37.7026 20.8029 38.0664C20.766 37.7515 20.4734 37.5 20.0984 37.5C19.6978 37.5 19.3711 37.7808 19.3711 38.125C19.3711 38.2568 19.4251 38.3765 19.5075 38.4766C18.7603 38.6548 17.9847 38.75 17.1893 38.75C16.8029 38.75 16.4109 38.7134 16.0302 38.6719C16.2773 38.5718 16.462 38.374 16.462 38.125C16.462 37.7808 16.1353 37.5 15.7347 37.5C15.3342 37.5 15.0075 37.7808 15.0075 38.125C15.0075 38.2886 15.07 38.4424 15.1893 38.5547C13.6353 38.2471 12.1921 37.5806 11.0075 36.5625C9.79155 35.5371 9.01882 34.2773 8.66655 32.9492C8.79723 33.0615 8.98757 33.125 9.18928 33.125C9.58985 33.125 9.91655 32.8442 9.91655 32.5C9.91655 32.1558 9.58985 31.875 9.18928 31.875C8.88814 31.875 8.64098 32.041 8.53019 32.2656C8.37678 31.2598 8.45348 30.2441 8.78019 29.2578C8.89666 29.3286 9.03587 29.375 9.18928 29.375C9.58985 29.375 9.91655 29.0942 9.91655 28.75C9.91655 28.4277 9.62394 28.1763 9.25746 28.1445C9.68075 27.3657 10.2575 26.6406 11.0075 25.9961C11.0217 25.9912 11.0387 25.9839 11.0529 25.9766C11.0728 25.957 11.3569 25.6812 11.7802 25.3125C12.2035 24.9438 12.7859 24.4482 13.462 23.8672C14.8114 22.7026 16.5529 21.2109 18.3029 19.707C18.3796 19.6411 18.4308 19.5776 18.5075 19.5117ZM17.9165 20.625C17.516 20.625 17.1893 20.9058 17.1893 21.25C17.1893 21.5942 17.516 21.875 17.9165 21.875C18.3171 21.875 18.6438 21.5942 18.6438 21.25C18.6438 20.9058 18.3171 20.625 17.9165 20.625ZM15.7347 22.5C15.3342 22.5 15.0075 22.7808 15.0075 23.125C15.0075 23.4692 15.3342 23.75 15.7347 23.75C16.1353 23.75 16.462 23.4692 16.462 23.125C16.462 22.7808 16.1353 22.5 15.7347 22.5ZM20.0984 22.5C19.6978 22.5 19.3711 22.7808 19.3711 23.125C19.3711 23.4692 19.6978 23.75 20.0984 23.75C20.4989 23.75 20.8256 23.4692 20.8256 23.125C20.8256 22.7808 20.4989 22.5 20.0984 22.5ZM13.5529 24.375C13.1523 24.375 12.8256 24.6558 12.8256 25C12.8256 25.3442 13.1523 25.625 13.5529 25.625C13.9535 25.625 14.2802 25.3442 14.2802 25C14.2802 24.6558 13.9535 24.375 13.5529 24.375ZM17.9165 24.375C17.516 24.375 17.1893 24.6558 17.1893 25C17.1893 25.3442 17.516 25.625 17.9165 25.625C18.3171 25.625 18.6438 25.3442 18.6438 25C18.6438 24.6558 18.3171 24.375 17.9165 24.375ZM22.2802 24.375C21.8796 24.375 21.5529 24.6558 21.5529 25C21.5529 25.3442 21.8796 25.625 22.2802 25.625C22.6808 25.625 23.0075 25.3442 23.0075 25C23.0075 24.6558 22.6808 24.375 22.2802 24.375ZM11.3711 26.25C10.9705 26.25 10.6438 26.5308 10.6438 26.875C10.6438 27.2192 10.9705 27.5 11.3711 27.5C11.7717 27.5 12.0984 27.2192 12.0984 26.875C12.0984 26.5308 11.7717 26.25 11.3711 26.25ZM15.7347 26.25C15.3342 26.25 15.0075 26.5308 15.0075 26.875C15.0075 27.2192 15.3342 27.5 15.7347 27.5C16.1353 27.5 16.462 27.2192 16.462 26.875C16.462 26.5308 16.1353 26.25 15.7347 26.25ZM20.0984 26.25C19.6978 26.25 19.3711 26.5308 19.3711 26.875C19.3711 27.2192 19.6978 27.5 20.0984 27.5C20.4989 27.5 20.8256 27.2192 20.8256 26.875C20.8256 26.5308 20.4989 26.25 20.0984 26.25ZM24.462 26.25C24.0614 26.25 23.7347 26.5308 23.7347 26.875C23.7347 27.2192 24.0614 27.5 24.462 27.5C24.8626 27.5 25.1893 27.2192 25.1893 26.875C25.1893 26.5308 24.8626 26.25 24.462 26.25ZM13.5529 28.125C13.1523 28.125 12.8256 28.4058 12.8256 28.75C12.8256 29.0942 13.1523 29.375 13.5529 29.375C13.9535 29.375 14.2802 29.0942 14.2802 28.75C14.2802 28.4058 13.9535 28.125 13.5529 28.125ZM17.9165 28.125C17.516 28.125 17.1893 28.4058 17.1893 28.75C17.1893 29.0942 17.516 29.375 17.9165 29.375C18.3171 29.375 18.6438 29.0942 18.6438 28.75C18.6438 28.4058 18.3171 28.125 17.9165 28.125ZM22.2802 28.125C21.8796 28.125 21.5529 28.4058 21.5529 28.75C21.5529 29.0942 21.8796 29.375 22.2802 29.375C22.6808 29.375 23.0075 29.0942 23.0075 28.75C23.0075 28.4058 22.6808 28.125 22.2802 28.125ZM26.6438 28.125C26.2433 28.125 25.9165 28.4058 25.9165 28.75C25.9165 29.0942 26.2433 29.375 26.6438 29.375C27.0444 29.375 27.3711 29.0942 27.3711 28.75C27.3711 28.4058 27.0444 28.125 26.6438 28.125ZM11.3711 30C10.9705 30 10.6438 30.2808 10.6438 30.625C10.6438 30.9692 10.9705 31.25 11.3711 31.25C11.7717 31.25 12.0984 30.9692 12.0984 30.625C12.0984 30.2808 11.7717 30 11.3711 30ZM15.7347 30C15.3342 30 15.0075 30.2808 15.0075 30.625C15.0075 30.9692 15.3342 31.25 15.7347 31.25C16.1353 31.25 16.462 30.9692 16.462 30.625C16.462 30.2808 16.1353 30 15.7347 30ZM20.0984 30C19.6978 30 19.3711 30.2808 19.3711 30.625C19.3711 30.9692 19.6978 31.25 20.0984 31.25C20.4989 31.25 20.8256 30.9692 20.8256 30.625C20.8256 30.2808 20.4989 30 20.0984 30ZM24.462 30C24.0614 30 23.7347 30.2808 23.7347 30.625C23.7347 30.9692 24.0614 31.25 24.462 31.25C24.8626 31.25 25.1893 30.9692 25.1893 30.625C25.1893 30.2808 24.8626 30 24.462 30ZM28.8256 30C28.4251 30 28.0984 30.2808 28.0984 30.625C28.0984 30.9692 28.4251 31.25 28.8256 31.25C29.2262 31.25 29.5529 30.9692 29.5529 30.625C29.5529 30.2808 29.2262 30 28.8256 30ZM13.5529 31.875C13.1523 31.875 12.8256 32.1558 12.8256 32.5C12.8256 32.8442 13.1523 33.125 13.5529 33.125C13.9535 33.125 14.2802 32.8442 14.2802 32.5C14.2802 32.1558 13.9535 31.875 13.5529 31.875ZM17.9165 31.875C17.516 31.875 17.1893 32.1558 17.1893 32.5C17.1893 32.8442 17.516 33.125 17.9165 33.125C18.3171 33.125 18.6438 32.8442 18.6438 32.5C18.6438 32.1558 18.3171 31.875 17.9165 31.875ZM22.2802 31.875C21.8796 31.875 21.5529 32.1558 21.5529 32.5C21.5529 32.8442 21.8796 33.125 22.2802 33.125C22.6808 33.125 23.0075 32.8442 23.0075 32.5C23.0075 32.1558 22.6808 31.875 22.2802 31.875ZM26.6438 31.875C26.2433 31.875 25.9165 32.1558 25.9165 32.5C25.9165 32.8442 26.2433 33.125 26.6438 33.125C27.0444 33.125 27.3711 32.8442 27.3711 32.5C27.3711 32.1558 27.0444 31.875 26.6438 31.875ZM11.3711 33.75C10.9705 33.75 10.6438 34.0308 10.6438 34.375C10.6438 34.7192 10.9705 35 11.3711 35C11.7717 35 12.0984 34.7192 12.0984 34.375C12.0984 34.0308 11.7717 33.75 11.3711 33.75ZM15.7347 33.75C15.3342 33.75 15.0075 34.0308 15.0075 34.375C15.0075 34.7192 15.3342 35 15.7347 35C16.1353 35 16.462 34.7192 16.462 34.375C16.462 34.0308 16.1353 33.75 15.7347 33.75ZM20.0984 33.75C19.6978 33.75 19.3711 34.0308 19.3711 34.375C19.3711 34.7192 19.6978 35 20.0984 35C20.4989 35 20.8256 34.7192 20.8256 34.375C20.8256 34.0308 20.4989 33.75 20.0984 33.75ZM24.462 33.75C24.0614 33.75 23.7347 34.0308 23.7347 34.375C23.7347 34.7192 24.0614 35 24.462 35C24.8626 35 25.1893 34.7192 25.1893 34.375C25.1893 34.0308 24.8626 33.75 24.462 33.75ZM13.5529 35.625C13.1523 35.625 12.8256 35.9058 12.8256 36.25C12.8256 36.5942 13.1523 36.875 13.5529 36.875C13.9535 36.875 14.2802 36.5942 14.2802 36.25C14.2802 35.9058 13.9535 35.625 13.5529 35.625ZM17.9165 35.625C17.516 35.625 17.1893 35.9058 17.1893 36.25C17.1893 36.5942 17.516 36.875 17.9165 36.875C18.3171 36.875 18.6438 36.5942 18.6438 36.25C18.6438 35.9058 18.3171 35.625 17.9165 35.625ZM22.2802 35.625C21.8796 35.625 21.5529 35.9058 21.5529 36.25C21.5529 36.5942 21.8796 36.875 22.2802 36.875C22.6808 36.875 23.0075 36.5942 23.0075 36.25C23.0075 35.9058 22.6808 35.625 22.2802 35.625Z" fill="#2D9CDB" stroke="#2D9CDB" stroke-width="2" mask="url(#path-2-inside-1_1030_4685)"/>
</svg>
