<svg width="18" height="18" viewBox="0 0 18 18" fill="none" xmlns="http://www.w3.org/2000/svg">
<path d="M15.25 0C16.7688 0 18 1.23122 18 2.75V15.25C18 16.7688 16.7688 18 15.25 18H2.75C1.23122 18 0 16.7688 0 15.25V2.75C0 1.23122 1.23122 0 2.75 0H15.25ZM4.75 6.00331C4.33579 6.00331 4 6.33765 4 6.75009V13.2565C4 13.669 4.33579 14.0033 4.75 14.0033C5.16421 14.0033 5.5 13.669 5.5 13.2565V6.75009C5.5 6.33765 5.16421 6.00331 4.75 6.00331ZM13.25 4.00331C12.8358 4.00331 12.5 4.32988 12.5 4.73272V13.2739C12.5 13.6767 12.8358 14.0033 13.25 14.0033C13.6642 14.0033 14 13.6767 14 13.2739V4.73272C14 4.32988 13.6642 4.00331 13.25 4.00331ZM8.9751 9.00001C8.5707 9.00401 8.246 9.33241 8.25 9.73351L8.2854 13.2809C8.2894 13.682 8.6205 14.004 9.0249 14.0001C9.4293 13.996 9.754 13.6676 9.75 13.2665L9.7146 9.71921C9.7106 9.31811 9.3795 8.99611 8.9751 9.00001Z" fill="white"/>
</svg>
