<svg width="18" height="18" viewBox="0 0 18 18" fill="none" xmlns="http://www.w3.org/2000/svg">
<path d="M0 2.925C0 1.30956 1.30956 0 2.925 0H13.275C14.8904 0 16.2 1.30956 16.2 2.925V5.40852C16.1257 5.40288 16.0507 5.4 15.975 5.4H14.85V4.95H1.35V13.275C1.35 14.1448 2.05515 14.85 2.925 14.85H5.4V15.975C5.4 16.0507 5.40288 16.1257 5.40852 16.2H2.925C1.30956 16.2 0 14.8904 0 13.275V2.925ZM8.325 11.25H11.25V8.325C11.25 7.20666 12.1567 6.3 13.275 6.3H15.975C17.0933 6.3 18 7.20666 18 8.325V15.075C18 16.6904 16.6904 18 15.075 18H8.325C7.20666 18 6.3 17.0933 6.3 15.975V13.275C6.3 12.1567 7.20666 11.25 8.325 11.25ZM12.6 8.325V11.25H16.65V8.325C16.65 7.95222 16.3478 7.65 15.975 7.65H13.275C12.9022 7.65 12.6 7.95222 12.6 8.325ZM11.25 16.65V12.6H8.325C7.95222 12.6 7.65 12.9022 7.65 13.275V15.975C7.65 16.3478 7.95222 16.65 8.325 16.65H11.25ZM12.6 12.6V16.65H15.075C15.9448 16.65 16.65 15.9448 16.65 15.075V12.6H12.6Z" fill="white"/>
</svg>
