<svg width="18" height="18" viewBox="0 0 18 18" fill="none" xmlns="http://www.w3.org/2000/svg">
<path d="M7.50003 3C7.50003 4.65685 6.15689 6 4.50003 6C2.84316 6 1.50001 4.65685 1.50001 3C1.50001 1.34315 2.84316 0 4.50003 0C6.15689 0 7.50003 1.34315 7.50003 3ZM1.75001 7C0.783505 7 0 7.7835 0 8.75V13.5C0 15.9853 2.01472 18 4.50003 18C6.98533 18 9.00004 15.9853 9.00004 13.5V8.75C9.00004 7.7835 8.21654 7 7.25003 7H1.75001ZM7.86023 17.8544C9.16174 16.8486 9.99995 15.2722 9.99995 13.5V8.75C9.99995 8.0852 9.76405 7.4755 9.37134 7H11.75C12.7165 7 13.5 7.7835 13.5 8.75V13.5C13.5 15.9853 11.4853 18 8.99994 18C8.60614 18 8.22424 17.9494 7.86023 17.8544ZM8.49994 3C8.49994 3.99943 8.13334 4.91324 7.52743 5.61436C7.96243 5.85989 8.46484 6 8.99994 6C10.6568 6 12 4.65685 12 3C12 1.34315 10.6568 0 8.99994 0C8.46484 0 7.96243 0.14011 7.52743 0.38564C8.13334 1.08676 8.49994 2.00057 8.49994 3ZM12.3603 17.8544C13.6618 16.8486 14.5 15.2722 14.5 13.5V8.75C14.5 8.0852 14.2641 7.4755 13.8714 7H16.25C17.2165 7 18 7.7835 18 8.75V13.5C18 15.9853 15.9853 18 13.5 18C13.1062 18 12.7243 17.9494 12.3603 17.8544ZM13 3C13 3.99943 12.6334 4.91324 12.0275 5.61436C12.4625 5.85989 12.9649 6 13.5 6C15.1568 6 16.5 4.65685 16.5 3C16.5 1.34315 15.1568 0 13.5 0C12.9649 0 12.4625 0.14011 12.0275 0.38564C12.6334 1.08676 13 2.00057 13 3Z" fill="white"/>
</svg>
