<svg width="18" height="18" viewBox="0 0 18 18" fill="none" xmlns="http://www.w3.org/2000/svg">
<path d="M1.8 0C0.805887 0 0 1.00736 0 2.25V10.125C0 11.3677 0.805887 12.375 1.8 12.375H11.7C12.6941 12.375 13.5 11.3677 13.5 10.125V2.25C13.5 1.00736 12.6941 0 11.7 0H1.8ZM4.05001 15.1875C3.21128 15.1875 2.50654 14.4704 2.30672 13.5H12.15C13.3926 13.5 14.4 12.2408 14.4 10.6875V2.88336C15.1763 3.13314 15.75 4.01407 15.75 5.06248V10.6875C15.75 13.1727 14.1382 15.1875 12.15 15.1875H4.05001ZM6.30001 18C5.46128 18 4.75654 17.2829 4.55672 16.3125H12.825C14.9375 16.3125 16.65 14.1719 16.65 11.5312V5.69586C17.4263 5.94564 18 6.82661 18 7.875V11.5312C18 15.1038 15.683 18 12.825 18H6.30001Z" fill="white"/>
</svg>
