<svg width="18" height="15" viewBox="0 0 18 15" fill="none" xmlns="http://www.w3.org/2000/svg">
<path d="M5.39998 0.400024C4.69998 0.400024 3.79787 0.558726 3.03279 0.711743C2.2677 0.86476 1.65466 1.0176 1.65466 1.0176C1.52476 1.05004 1.40944 1.12499 1.32704 1.23053C1.24465 1.33607 1.19992 1.46613 1.19998 1.60002V2.36643C0.842595 2.57419 0.599976 2.95666 0.599976 3.40002V12.4C0.599976 13.063 1.13698 13.6 1.79998 13.6H7.96287C8.06801 13.7821 8.21916 13.9334 8.40118 14.0387C8.5832 14.144 8.78969 14.1997 8.99998 14.2C9.21046 14.1999 9.4172 14.1443 9.59944 14.039C9.78168 13.9337 9.93301 13.7823 10.0383 13.6H16.2C16.863 13.6 17.4 13.063 17.4 12.4V3.40002C17.4 2.95666 17.1574 2.57419 16.8 2.36643V1.60002C16.8 1.46613 16.7553 1.33607 16.6729 1.23053C16.5905 1.12499 16.4752 1.05004 16.3453 1.0176C16.3453 1.0176 15.7322 0.86476 14.9672 0.711743C14.2021 0.558726 13.3 0.400024 12.6 0.400024C11.9 0.400024 10.9979 0.558726 10.2328 0.711743C9.54844 0.848613 9.11107 0.957388 8.99998 0.98479C8.88888 0.957388 8.45151 0.848613 7.76716 0.711743C7.00208 0.558726 6.09998 0.400024 5.39998 0.400024ZM5.39998 1.60002C5.89998 1.60002 6.79787 1.74132 7.53279 1.88831C8.01496 1.98474 8.16916 2.02669 8.39998 2.08166V11.6524C8.18956 11.6041 8.1185 11.582 7.76716 11.5117C7.00208 11.3587 6.09998 11.2 5.39998 11.2C4.69998 11.2 3.79787 11.3587 3.03279 11.5117C2.68145 11.582 2.64248 11.5969 2.39998 11.6524V2.08166C2.63087 2.02681 2.78499 1.98474 3.26716 1.88831C4.00208 1.74132 4.89998 1.60002 5.39998 1.60002ZM12.6 1.60002C13.1 1.60002 13.9979 1.74132 14.7328 1.88831C15.215 1.98474 15.3691 2.02681 15.6 2.08166V11.6524C15.3575 11.5969 15.3185 11.582 14.9672 11.5117C14.2021 11.3587 13.3 11.2 12.6 11.2C11.9 11.2 10.9979 11.3587 10.2328 11.5117C9.88145 11.582 9.81039 11.6041 9.59997 11.6524V2.08166C9.83079 2.02669 9.98499 1.98474 10.4672 1.88831C11.2021 1.74132 12.1 1.60002 12.6 1.60002ZM12 2.80002V3.47151C11.169 3.65631 10.6476 4.21769 10.6476 5.00549C10.6476 5.78849 11.1073 6.27591 12.0433 6.47151L12.7125 6.61448C13.3425 6.75008 13.5984 6.93844 13.5984 7.26604C13.5984 7.65424 13.2031 7.92463 12.6445 7.92463C12.0391 7.92463 11.6185 7.65783 11.5687 7.24143H10.5304C10.5628 8.03403 11.1174 8.57583 12 8.74143V9.40002H13.2V8.73909C14.1192 8.56449 14.6695 7.98927 14.6695 7.13127C14.6695 6.33447 14.2255 5.88832 13.1929 5.67112L12.573 5.53987C11.9712 5.41207 11.7269 5.22971 11.7269 4.91291C11.7269 4.52111 12.0823 4.2719 12.6199 4.2719C13.1395 4.2719 13.517 4.54247 13.5668 4.94807H14.5781C14.5517 4.20227 14.01 3.65036 13.2 3.46916V2.80002H12ZM4.19998 3.40002C4.04085 3.40002 3.88823 3.46324 3.77571 3.57576C3.66319 3.68828 3.59998 3.84089 3.59998 4.00002C3.59998 4.15915 3.66319 4.31177 3.77571 4.42429C3.88823 4.53681 4.04085 4.60002 4.19998 4.60002C4.35911 4.60002 4.51172 4.53681 4.62424 4.42429C4.73676 4.31177 4.79998 4.15915 4.79998 4.00002C4.79998 3.84089 4.73676 3.68828 4.62424 3.57576C4.51172 3.46324 4.35911 3.40002 4.19998 3.40002ZM6.59998 3.40002C6.44085 3.40002 6.28823 3.46324 6.17571 3.57576C6.06319 3.68828 5.99998 3.84089 5.99998 4.00002C5.99998 4.15915 6.06319 4.31177 6.17571 4.42429C6.28823 4.53681 6.44085 4.60002 6.59998 4.60002C6.75911 4.60002 6.91172 4.53681 7.02424 4.42429C7.13676 4.31177 7.19998 4.15915 7.19998 4.00002C7.19998 3.84089 7.13676 3.68828 7.02424 3.57576C6.91172 3.46324 6.75911 3.40002 6.59998 3.40002ZM4.19998 5.80002C4.04085 5.80002 3.88823 5.86324 3.77571 5.97576C3.66319 6.08828 3.59998 6.24089 3.59998 6.40002C3.59998 6.55915 3.66319 6.71177 3.77571 6.82429C3.88823 6.93681 4.04085 7.00002 4.19998 7.00002C4.35911 7.00002 4.51172 6.93681 4.62424 6.82429C4.73676 6.71177 4.79998 6.55915 4.79998 6.40002C4.79998 6.24089 4.73676 6.08828 4.62424 5.97576C4.51172 5.86324 4.35911 5.80002 4.19998 5.80002ZM6.59998 5.80002C6.44085 5.80002 6.28823 5.86324 6.17571 5.97576C6.06319 6.08828 5.99998 6.24089 5.99998 6.40002C5.99998 6.55915 6.06319 6.71177 6.17571 6.82429C6.28823 6.93681 6.44085 7.00002 6.59998 7.00002C6.75911 7.00002 6.91172 6.93681 7.02424 6.82429C7.13676 6.71177 7.19998 6.55915 7.19998 6.40002C7.19998 6.24089 7.13676 6.08828 7.02424 5.97576C6.91172 5.86324 6.75911 5.80002 6.59998 5.80002ZM4.19998 8.20002C4.04085 8.20002 3.88823 8.26324 3.77571 8.37576C3.66319 8.48828 3.59998 8.64089 3.59998 8.80002C3.59998 8.95915 3.66319 9.11177 3.77571 9.22429C3.88823 9.33681 4.04085 9.40002 4.19998 9.40002C4.35911 9.40002 4.51172 9.33681 4.62424 9.22429C4.73676 9.11177 4.79998 8.95915 4.79998 8.80002C4.79998 8.64089 4.73676 8.48828 4.62424 8.37576C4.51172 8.26324 4.35911 8.20002 4.19998 8.20002Z" fill="white"/>
</svg>
