<svg width="18" height="18" viewBox="0 0 18 18" fill="none" xmlns="http://www.w3.org/2000/svg">
<path d="M2.925 0C1.30956 0 0 1.8708 0 4.17857V5.78571H18V4.17857C18 1.8708 16.6904 0 15.075 0H2.925ZM18 7.71429H0V13.8214C0 16.1292 1.30956 18 2.925 18H15.075C16.6904 18 18 16.1292 18 13.8214V7.71429ZM12.375 12.2143H14.625C14.9978 12.2143 15.3 12.646 15.3 13.1786C15.3 13.7111 14.9978 14.1429 14.625 14.1429H12.375C12.0022 14.1429 11.7 13.7111 11.7 13.1786C11.7 12.646 12.0022 12.2143 12.375 12.2143Z" fill="white"/>
</svg>
