<svg width="16" height="14" viewBox="0 0 16 14" fill="none" xmlns="http://www.w3.org/2000/svg">
<path d="M1.39998 0.400024C0.736977 0.400024 0.199977 0.937024 0.199977 1.60002V4.60002V5.20002V11.3031L1.39998 10.1031V5.20002H14.6V12.4H3.69685L2.49685 13.6H15.8V5.20002V4.60002V1.60002C15.8 0.937024 15.263 0.400024 14.6 0.400024H1.39998ZM1.99998 2.20002C2.33118 2.20002 2.59998 2.46882 2.59998 2.80002C2.59998 3.13122 2.33118 3.40002 1.99998 3.40002C1.66878 3.40002 1.39998 3.13122 1.39998 2.80002C1.39998 2.46882 1.66878 2.20002 1.99998 2.20002ZM4.39998 2.20002C4.73118 2.20002 4.99998 2.46882 4.99998 2.80002C4.99998 3.13122 4.73118 3.40002 4.39998 3.40002C4.06878 3.40002 3.79998 3.13122 3.79998 2.80002C3.79998 2.46882 4.06878 2.20002 4.39998 2.20002ZM6.19998 2.20002H14.6V3.40002H6.19998V2.20002ZM12.2 6.40002C12.0361 6.40017 11.8739 6.4339 11.7236 6.49913C11.5732 6.56435 11.4378 6.65969 11.3257 6.77927C11.2135 6.89884 11.1271 7.04012 11.0717 7.19438C11.0163 7.34864 10.9931 7.51262 11.0035 7.6762L9.13084 8.92424C8.96576 8.84265 8.78412 8.80015 8.59998 8.80002C8.30711 8.80047 8.02452 8.90801 7.80545 9.10237L6.1742 8.55862C6.11865 8.28813 5.97151 8.04507 5.7576 7.87045C5.5437 7.69582 5.27611 7.60031 4.99998 7.60002C4.81615 7.60027 4.63485 7.64275 4.47004 7.72417C4.30524 7.8056 4.16134 7.9238 4.04946 8.06966C3.93758 8.21551 3.8607 8.38512 3.82476 8.56539C3.78882 8.74567 3.79477 8.93179 3.84216 9.1094L0.375759 12.5758C0.318174 12.6311 0.272201 12.6973 0.24053 12.7706C0.208859 12.8439 0.192127 12.9227 0.191315 13.0026C0.190503 13.0824 0.205627 13.1616 0.2358 13.2355C0.265974 13.3094 0.31059 13.3765 0.367038 13.433C0.423485 13.4894 0.490628 13.534 0.564534 13.5642C0.638441 13.5944 0.717625 13.6095 0.797449 13.6087C0.877273 13.6079 0.956133 13.5911 1.02941 13.5595C1.10269 13.5278 1.16891 13.4818 1.2242 13.4242L4.6906 9.95784C4.79145 9.98531 4.89545 9.9995 4.99998 10C5.29284 9.99957 5.57543 9.89204 5.79451 9.69768L7.42576 10.2414C7.48131 10.5119 7.62845 10.755 7.84235 10.9296C8.05626 11.1042 8.32384 11.1997 8.59998 11.2C8.76389 11.1999 8.92603 11.1661 9.0764 11.1009C9.22678 11.0357 9.36219 10.9404 9.4743 10.8208C9.58641 10.7012 9.67283 10.5599 9.72824 10.4057C9.78365 10.2514 9.80687 10.0874 9.79646 9.92385L11.6691 8.67581C11.8342 8.75739 12.0158 8.7999 12.2 8.80002C12.5182 8.80002 12.8235 8.6736 13.0485 8.44855C13.2735 8.22351 13.4 7.91828 13.4 7.60002C13.4 7.28176 13.2735 6.97654 13.0485 6.7515C12.8235 6.52645 12.5182 6.40002 12.2 6.40002Z" fill="white"/>
</svg>
