<svg width="15" height="17" viewBox="0 0 15 17" fill="none" xmlns="http://www.w3.org/2000/svg">
<path d="M1.2 0.199951C0.537 0.199951 0 0.736951 0 1.39995V14.6C0 15.2629 0.537 15.8 1.2 15.8H10.6031L7.23633 12.4343C7.05753 12.2555 6.9402 12.0242 6.9 11.7746L6.61523 9.98862C6.55463 9.60882 6.67976 9.22391 6.95156 8.95151C7.17836 8.72531 7.4844 8.59995 7.8 8.59995C7.863 8.59995 7.92684 8.60499 7.98984 8.61518L9.77461 8.90112C10.0242 8.94132 10.2544 9.05865 10.4332 9.23745L12 10.8031V4.69995C12 4.54095 11.937 4.38853 11.8242 4.27573L7.92422 0.375732C7.81142 0.262932 7.659 0.199951 7.5 0.199951H1.2ZM7.2 1.34253L10.8574 4.99995H7.8C7.4688 4.99995 7.2 4.73115 7.2 4.39995V1.34253ZM7.8 9.79995L8.08476 11.5859L12.0258 15.5257L13.5258 14.0257L9.58476 10.0859L7.8 9.79995ZM14.3742 14.8742L12.8742 16.3742L13.1895 16.6894C13.6035 17.1034 14.2755 17.1034 14.6895 16.6894C15.1035 16.2754 15.1035 15.6034 14.6895 15.1894L14.3742 14.8742Z" fill="white"/>
</svg>
