<svg xmlns="http://www.w3.org/2000/svg" width="20" height="20" viewBox="0 0 20 20">
  <path id="sidebar-icon-4" d="M1.818,0A1.818,1.818,0,0,0,0,1.818V14.545a1.818,1.818,0,0,0,1.818,1.818H14.545a1.818,1.818,0,0,0,1.818-1.818V1.818A1.818,1.818,0,0,0,14.545,0ZM13.636,3.636a.909.909,0,0,1,.643,1.552L7.406,12.061a.909.909,0,0,1-1.286,0L2.981,8.922A.909.909,0,0,1,4.267,7.637l2.5,2.5,6.23-6.23A.906.906,0,0,1,13.636,3.636Zm4.545,0V14.545a3.637,3.637,0,0,1-3.636,3.636H3.636A1.818,1.818,0,0,0,5.455,20H18.182A1.818,1.818,0,0,0,20,18.182V5.455A1.818,1.818,0,0,0,18.182,3.636Z" fill="#f2c94c"/>
</svg>
