<svg xmlns="http://www.w3.org/2000/svg" width="20" height="16.443" viewBox="0 0 20 16.443">
  <path id="sidebar-icon-2" d="M10,0C7.879,0,7,1.766,7,3.894a4.8,4.8,0,0,0,.264,1.437.867.867,0,0,0-.238.779c.082.833.36,1.043.538,1.06A3.592,3.592,0,0,0,8.5,9.087v1.161C8,12.2,4,11.9,4,16.443H16c0-4.543-4-4.248-4.5-6.195V9.087a3.587,3.587,0,0,0,.936-1.917c.177-.017.456-.227.538-1.06a.866.866,0,0,0-.238-.779A4.246,4.246,0,0,0,13,3.894C13,2.318,12.523.974,11.5.974A1.591,1.591,0,0,0,10,0Zm5,1.729a2.23,2.23,0,0,0-.9.194,8.148,8.148,0,0,1,.232,1.971,6.322,6.322,0,0,1-.126,1.236,3.435,3.435,0,0,1,.089,1.2,3.51,3.51,0,0,1-.737,2.008,5.975,5.975,0,0,1-.4.933,3.091,3.091,0,0,0,.591,1.045v.01a6.434,6.434,0,0,1,3.583,6.119H20c0-4.291-3.333-3.675-3.75-5.514v-.617a3.572,3.572,0,0,0,.78-1.81c.147-.016.38-.214.448-1a.883.883,0,0,0-.2-.735,4.493,4.493,0,0,0,.22-1.357c0-1.489-.4-2.759-1.25-2.759A1.362,1.362,0,0,0,15,1.729Zm-10,0a1.361,1.361,0,0,0-1.25.92C2.9,2.65,2.5,3.922,2.5,5.411a4.468,4.468,0,0,0,.22,1.356.879.879,0,0,0-.2.735c.068.787.3.986.448,1a3.571,3.571,0,0,0,.78,1.81v.615C3.333,12.768,0,12.152,0,16.443H2.667A6.435,6.435,0,0,1,6.25,10.324v-.012A3.071,3.071,0,0,0,6.841,9.27a5.99,5.99,0,0,1-.4-.935A3.5,3.5,0,0,1,5.7,6.328,3.455,3.455,0,0,1,5.8,5.115a6.222,6.222,0,0,1-.129-1.22,8.565,8.565,0,0,1,.22-1.974A2.221,2.221,0,0,0,5,1.731Z" fill="#f2c94c"/>
</svg>
