<svg xmlns="http://www.w3.org/2000/svg" width="20" height="20" viewBox="0 0 20 20">
  <path id="sidebar-icon-3" d="M5,0A2.677,2.677,0,0,0,2.328,2.917a2.917,2.917,0,0,0,.256,1.077.566.566,0,0,0-.231.581c.08.623.35.781.522.794a2.547,2.547,0,0,0,.911,1.437v.972C3.3,9.236,0,8.263,0,11.667H10c0-3.4-3.3-2.432-3.786-3.89V6.805A2.541,2.541,0,0,0,7.126,5.37c.173-.013.442-.17.522-.794a.569.569,0,0,0-.231-.583,2.588,2.588,0,0,0,.256-1.077c0-1.18-.463-2.187-1.458-2.187A1.131,1.131,0,0,0,5,0Zm5,0a.833.833,0,1,0,0,1.667h7.083a1.237,1.237,0,0,1,1.25,1.25v3.75a.833.833,0,1,0,1.667,0V2.917A2.929,2.929,0,0,0,17.083,0Zm5.9,8.332a1.543,1.543,0,0,0-1.012.508c-3.267,0-1.452,5.556-2.412,6.354,0,0,.51.757,2.347.757V16.6c-.507,1.373-3.153.866-3.153,3.4H20c0-2.536-2.644-2.028-3.151-3.4v-.654c1.846,0,2.274-.731,2.274-.731C18.089,14.365,19.892,8.332,15.9,8.332ZM.82,13.322a.833.833,0,0,0-.82.845v2.917A2.929,2.929,0,0,0,2.917,20H8.333a.833.833,0,1,0,0-1.667H2.917a1.237,1.237,0,0,1-1.25-1.25V14.167a.833.833,0,0,0-.846-.845Z" fill="#f2c94c"/>
</svg>
