<svg xmlns="http://www.w3.org/2000/svg" width="20" height="20" viewBox="0 0 20 20">
  <path id="sidebar-icon-7" d="M10,20a3.811,3.811,0,0,1-2.571-.976,3.141,3.141,0,0,1,0-4.714,3.874,3.874,0,0,1,5.143,0,3.141,3.141,0,0,1,0,4.714A3.811,3.811,0,0,1,10,20ZM17.273,5H2.727A2.621,2.621,0,0,1,0,2.5,2.621,2.621,0,0,1,2.727,0H17.273A2.621,2.621,0,0,1,20,2.5,2.621,2.621,0,0,1,17.273,5Zm-4.545,6.667H7.273a2.621,2.621,0,0,1-2.727-2.5,2.621,2.621,0,0,1,2.727-2.5h5.455a2.621,2.621,0,0,1,2.727,2.5A2.621,2.621,0,0,1,12.727,11.667Z" fill="#f2c94c"/>
</svg>
