<svg xmlns="http://www.w3.org/2000/svg" width="20" height="20" viewBox="0 0 20 20">
  <path id="sidebar-icon-1" d="M1.818,0A1.818,1.818,0,0,0,0,1.818V7.273A1.818,1.818,0,0,0,1.818,9.091H7.273A1.818,1.818,0,0,0,9.091,7.273V1.818A1.818,1.818,0,0,0,7.273,0ZM12.727,0a1.818,1.818,0,0,0-1.818,1.818V7.273a1.818,1.818,0,0,0,1.818,1.818h5.455A1.818,1.818,0,0,0,20,7.273V1.818A1.818,1.818,0,0,0,18.182,0ZM1.818,10.909A1.818,1.818,0,0,0,0,12.727v5.455A1.818,1.818,0,0,0,1.818,20H7.273a1.818,1.818,0,0,0,1.818-1.818V12.727a1.818,1.818,0,0,0-1.818-1.818Zm10.909,0a1.818,1.818,0,0,0-1.818,1.818v5.455A1.818,1.818,0,0,0,12.727,20h5.455A1.818,1.818,0,0,0,20,18.182V12.727a1.818,1.818,0,0,0-1.818-1.818Z" fill="#f2c94c"/>
</svg>
