<svg xmlns="http://www.w3.org/2000/svg" width="20" height="20" viewBox="0 0 20 20">
  <path id="sidebar-icon-6" d="M1.667,0A1.582,1.582,0,0,0,0,1.481V16.3a1.582,1.582,0,0,0,1.667,1.481H7.456a6.058,6.058,0,0,1-.741-2.222H3.75A1.187,1.187,0,0,1,2.5,14.444a1.187,1.187,0,0,1,1.25-1.111H6.859a6.144,6.144,0,0,1,.635-1.551,1.126,1.126,0,0,1-.827-1.042A1.187,1.187,0,0,1,7.917,9.63a1.3,1.3,0,0,1,.988.438,7.975,7.975,0,0,1,5.262-1.92,8.369,8.369,0,0,1,1.667.171V1.481A1.582,1.582,0,0,0,14.167,0ZM2.5,2.222H13.333V4.444H2.5Zm1.25,3.7A1.187,1.187,0,0,1,5,7.037,1.187,1.187,0,0,1,3.75,8.148,1.187,1.187,0,0,1,2.5,7.037,1.187,1.187,0,0,1,3.75,5.926Zm4.167,0a1.187,1.187,0,0,1,1.25,1.111,1.187,1.187,0,0,1-1.25,1.111,1.187,1.187,0,0,1-1.25-1.111A1.187,1.187,0,0,1,7.917,5.926Zm4.167,0a1.187,1.187,0,0,1,1.25,1.111,1.187,1.187,0,0,1-1.25,1.111,1.187,1.187,0,0,1-1.25-1.111A1.187,1.187,0,0,1,12.083,5.926ZM3.75,9.63A1.187,1.187,0,0,1,5,10.741a1.187,1.187,0,0,1-1.25,1.111A1.187,1.187,0,0,1,2.5,10.741,1.187,1.187,0,0,1,3.75,9.63Zm10.417,0c-3.222,0-5.833,2.321-5.833,5.185S10.945,20,14.167,20,20,17.678,20,14.815,17.388,9.63,14.167,9.63Zm-.833,1.481H15v1.052a1.708,1.708,0,0,1,1.512,1.529H15.134c-.033-.369-.427-.626-.952-.626s-.871.221-.871.569c0,.286.26.451.879.56l.757.132c1.16.2,1.68.664,1.68,1.493,0,.868-.6,1.456-1.626,1.661v1.039H13.333V17.486c-1-.192-1.606-.744-1.626-1.547h1.424c.037.38.464.622,1.082.622.558,0,.939-.239.939-.583,0-.29-.257-.445-.928-.564l-.773-.137c-1.074-.181-1.628-.7-1.628-1.523a1.681,1.681,0,0,1,1.509-1.6Z" fill="#f2c94c"/>
</svg>
