<svg xmlns="http://www.w3.org/2000/svg" width="20" height="20" viewBox="0 0 20 20">
  <path id="sidebar-icon-5" d="M13.866,0A6.116,6.116,0,0,0,9.525,1.8L1.793,9.538a6.167,6.167,0,0,0,0,8.695.834.834,0,0,0,.272.181l0,0a6.111,6.111,0,0,0,8.406-.183l7.732-7.742A6.143,6.143,0,0,0,13.866,0Zm0,1.66A4.483,4.483,0,0,1,17.028,9.31l-1.781,1.784-1.495,1.5a.831.831,0,0,1-1.177,0L9.194,9.205h0a1.666,1.666,0,0,0-2.358,0L4.174,11.873A.833.833,0,0,1,2.988,10.7L10.7,2.976A4.454,4.454,0,0,1,13.866,1.66Z" fill="#f2c94c"/>
</svg>
