<svg width="300" height="240" viewBox="0 0 300 240" fill="none" xmlns="http://www.w3.org/2000/svg">
<path d="M300 0.466553H0V237.037H300V0.466553Z" fill="white"/>
<path d="M300 144.498H0V184.518H300V144.498Z" fill="white"/>
<path d="M300 98.7884H0V144.498H300V98.7884Z" fill="#F5F5F5"/>
<path d="M300 191.048H0V236.757H300V191.048Z" fill="#F5F5F5"/>
<path d="M130.041 113.02C130.041 113.155 104.639 113.262 73.3045 113.262C41.9704 113.262 16.5684 113.155 16.5684 113.02C16.5684 112.886 41.9632 112.788 73.3045 112.788C104.646 112.788 130.041 112.895 130.041 113.02Z" fill="#263238"/>
<path d="M64.4783 125.751C64.4783 125.877 53.7056 125.984 40.3691 125.984C27.0325 125.984 16.2598 125.877 16.2598 125.751C16.2598 125.626 27.0325 125.518 40.3691 125.518C53.7056 125.518 64.4783 125.626 64.4783 125.751Z" fill="#263238"/>
<path d="M130.041 158.134C130.041 158.259 104.639 158.366 73.3045 158.366C41.9704 158.366 16.5684 158.259 16.5684 158.134C16.5684 158.008 41.9632 157.901 73.3045 157.901C104.646 157.901 130.041 157.999 130.041 158.134Z" fill="#263238"/>
<path d="M64.4783 170.837C64.4783 170.972 53.7056 171.07 40.3691 171.07C27.0325 171.07 16.2598 170.972 16.2598 170.837C16.2598 170.703 27.0325 170.604 40.3691 170.604C53.7056 170.604 64.4783 170.73 64.4783 170.837Z" fill="#263238"/>
<path d="M130.041 203.238C130.041 203.363 104.639 203.47 73.3045 203.47C41.9704 203.47 16.5684 203.363 16.5684 203.238C16.5684 203.112 41.9632 203.005 73.3045 203.005C104.646 203.005 130.041 203.068 130.041 203.238Z" fill="#263238"/>
<path d="M64.4783 215.959C64.4783 216.094 53.7056 216.192 40.3691 216.192C27.0325 216.192 16.2598 216.094 16.2598 215.959C16.2598 215.825 27.0325 215.727 40.3691 215.727C53.7056 215.727 64.4783 215.834 64.4783 215.959Z" fill="#263238"/>
<path d="M300 0.186646H0V22.7616H300V0.186646Z" fill="#E0E0E0"/>
<path d="M300 20.6161H0V43.1911H300V20.6161Z" fill="#F5F5F5"/>
<path d="M12.9633 10.7613C12.9591 11.3219 12.8217 11.8683 12.5687 12.3316C12.3156 12.795 11.9582 13.1545 11.5414 13.3649C11.1246 13.5754 10.6672 13.6272 10.2268 13.514C9.78645 13.4007 9.38283 13.1274 9.06688 12.7286C8.75093 12.3298 8.53679 11.8232 8.4515 11.2728C8.3662 10.7225 8.41355 10.1529 8.58757 9.63609C8.7616 9.11922 9.05451 8.67818 9.42936 8.36858C9.80421 8.05898 10.2442 7.89469 10.6939 7.89644C10.9943 7.89641 11.2918 7.97075 11.569 8.11516C11.8463 8.25957 12.0977 8.47117 12.3088 8.73768C12.52 9.00419 12.6865 9.3203 12.7989 9.66769C12.9112 10.0151 12.9671 10.3868 12.9633 10.7613Z" fill="#263238"/>
<path d="M21.309 10.7615C21.3047 11.3232 21.1668 11.8706 20.9128 12.3345C20.6588 12.7984 20.3 13.1579 19.882 13.3675C19.464 13.5771 19.0055 13.6274 18.5645 13.5119C18.1236 13.3964 17.72 13.1205 17.405 12.7189C17.0899 12.3174 16.8775 11.8084 16.7947 11.2563C16.7118 10.7042 16.7623 10.1338 16.9396 9.61749C17.1169 9.10114 17.4132 8.662 17.7908 8.35567C18.1685 8.04933 18.6106 7.88959 19.0611 7.89665C19.6637 7.90609 20.2386 8.21296 20.66 8.74998C21.0814 9.28701 21.3148 10.0104 21.309 10.7615Z" fill="#263238"/>
<path d="M29.6459 10.7613C29.6417 11.3215 29.5046 11.8675 29.2518 12.3307C28.9991 12.7938 28.6421 13.1534 28.2257 13.3641C27.8094 13.5748 27.3523 13.6272 26.9121 13.5147C26.4719 13.4021 26.0683 13.1297 25.752 12.7318C25.4358 12.3338 25.2211 11.8281 25.135 11.2783C25.0489 10.7286 25.0952 10.1593 25.2681 9.64228C25.441 9.12526 25.7328 8.68359 26.1067 8.37292C26.4806 8.06224 26.9199 7.89645 27.3693 7.89642C27.6701 7.89641 27.9679 7.9707 28.2455 8.115C28.5232 8.2593 28.7751 8.47075 28.9868 8.73714C29.1985 9.00353 29.3657 9.31957 29.4789 9.667C29.592 10.0144 29.6488 10.3864 29.6459 10.7613Z" fill="#263238"/>
<path d="M299.81 237.102C299.81 235.598 299.75 144.883 299.66 0.232789L299.81 0.411852L0.169942 0.46557L0.349882 0.232789C0.349882 84.3135 0.349882 164.392 0.349882 237.102L0.17994 236.887L299.84 237.102L0.17994 237.317H0V237.102C0 164.392 0 84.3135 0 0.232789V0H0.209929L299.85 0.0447694H300V0.232789C299.86 144.883 299.81 235.553 299.81 237.102Z" fill="#263238"/>
<path d="M269.064 56.9971H218.087C215.799 56.9971 213.943 59.3099 213.943 62.1629V76.8187C213.943 79.6716 215.799 81.9844 218.087 81.9844H269.064C271.352 81.9844 273.208 79.6716 273.208 76.8187V62.1629C273.208 59.3099 271.352 56.9971 269.064 56.9971Z" fill="#BB6BD9"/>
<path d="M227.741 69.3519H226.455V70.9366H225.859V69.3519H224.566V68.6536H225.859V67.06H226.455V68.6536H227.741V69.3519Z" fill="white"/>
<path d="M234.067 70.5427H231.424L230.878 72.0915H230.16L232.408 65.9052H233.126L235.381 72.0915H234.663L234.067 70.5427ZM233.816 69.8354L232.767 66.8004L231.697 69.8354H233.816Z" fill="white"/>
<path d="M239.504 65.5289V72.0913H238.85V71.3483C238.697 71.607 238.495 71.8149 238.262 71.9538C238.029 72.0927 237.772 72.1584 237.514 72.1451C237.006 72.1451 236.518 71.8932 236.158 71.4449C235.799 70.9966 235.597 70.3886 235.597 69.7547C235.597 69.1207 235.799 68.5127 236.158 68.0644C236.518 67.6161 237.006 67.3643 237.514 67.3643C237.764 67.3509 238.013 67.4121 238.241 67.5429C238.468 67.6737 238.667 67.8703 238.821 68.1163V65.5289H239.504ZM238.828 69.7457C238.816 69.4376 238.731 69.1409 238.584 68.8924C238.438 68.644 238.236 68.4546 238.003 68.3479C237.771 68.2412 237.519 68.2218 237.278 68.2921C237.037 68.3624 236.818 68.5194 236.648 68.7435C236.478 68.9676 236.364 69.249 236.321 69.5528C236.278 69.8567 236.308 70.1695 236.406 70.4526C236.505 70.7357 236.668 70.9766 236.875 71.1453C237.082 71.3141 237.324 71.4033 237.572 71.402C237.744 71.4063 237.915 71.3658 238.074 71.2829C238.233 71.2 238.376 71.0766 238.494 70.9206C238.613 70.7647 238.703 70.5796 238.761 70.3772C238.819 70.1749 238.842 69.9598 238.828 69.7457Z" fill="white"/>
<path d="M244.344 65.5289V72.0913H243.69V71.3483C243.535 71.6066 243.331 71.814 243.097 71.9528C242.864 72.0916 242.606 72.1575 242.347 72.1451C241.839 72.1451 241.351 71.8932 240.991 71.4449C240.632 70.9966 240.43 70.3886 240.43 69.7547C240.43 69.1207 240.632 68.5127 240.991 68.0644C241.351 67.6161 241.839 67.3643 242.347 67.3643C242.598 67.3516 242.848 67.4132 243.077 67.5438C243.305 67.6745 243.505 67.8707 243.661 68.1163V65.5289H244.344ZM243.669 69.7457C243.682 69.5282 243.659 69.3096 243.601 69.1037C243.543 68.8978 243.452 68.709 243.333 68.5491C243.214 68.3891 243.07 68.2616 242.91 68.1743C242.749 68.0871 242.576 68.042 242.401 68.042C242.226 68.042 242.053 68.0871 241.893 68.1743C241.732 68.2616 241.588 68.3891 241.469 68.5491C241.35 68.709 241.259 68.8978 241.201 69.1037C241.143 69.3096 241.12 69.5282 241.133 69.7457C241.12 69.9632 241.143 70.1818 241.201 70.3877C241.259 70.5936 241.35 70.7824 241.469 70.9423C241.588 71.1023 241.732 71.2299 241.893 71.3171C242.053 71.4043 242.226 71.4494 242.401 71.4494C242.576 71.4494 242.749 71.4043 242.91 71.3171C243.07 71.2299 243.214 71.1023 243.333 70.9423C243.452 70.7824 243.543 70.5936 243.601 70.3877C243.659 70.1818 243.682 69.9632 243.669 69.7457Z" fill="white"/>
<path d="M248.632 66.6751H246.93V65.9052H251.03V66.6751H249.328V72.0468H248.61L248.632 66.6751Z" fill="white"/>
<path d="M254.485 69.2802V72.1093H253.845V71.4916C253.699 71.7209 253.51 71.902 253.295 72.0191C253.079 72.1362 252.844 72.1856 252.61 72.163C251.755 72.163 251.217 71.599 251.217 70.7843C251.217 69.9696 251.605 69.4145 252.732 69.4145H253.809V69.2444C253.809 68.5282 253.472 68.1164 252.797 68.1164C252.365 68.1094 251.945 68.2863 251.605 68.6177L251.325 67.9821C251.773 67.5699 252.319 67.3585 252.876 67.3822C253.903 67.3643 254.485 67.9821 254.485 69.2802ZM253.809 70.6769V70.0233H252.754C252.086 70.0233 251.892 70.3456 251.892 70.7485C251.892 71.1514 252.208 71.5095 252.725 71.5095C252.955 71.5283 253.183 71.4561 253.378 71.3034C253.573 71.1507 253.724 70.9251 253.809 70.6589V70.6769Z" fill="white"/>
<path d="M255.275 71.599L255.563 70.9276C255.954 71.2427 256.411 71.4106 256.877 71.411C257.509 71.411 257.775 71.1693 257.775 70.7754C257.775 69.719 255.397 70.6321 255.397 68.7699C255.397 67.9284 256.001 67.3644 256.963 67.3644C257.442 67.3521 257.915 67.4972 258.335 67.7851L258.04 68.4566C257.716 68.203 257.339 68.0752 256.956 68.0895C256.36 68.0895 256.073 68.3581 256.073 68.7341C256.073 69.8353 258.457 68.9311 258.457 70.7575C258.457 71.608 257.832 72.1452 256.827 72.1452C256.278 72.1592 255.737 71.9691 255.275 71.599Z" fill="white"/>
<path d="M260.776 69.9071L259.993 70.8024V72.0826H259.34V65.5202H260.022V69.728L262.069 67.4003H262.895L261.315 69.3341L263.053 72.0826H262.213L260.776 69.9071Z" fill="white"/>
<path d="M23.7717 66.8685H21.6172V65.2928H27.4632V66.8685H25.3086V73.6548H23.7574L23.7717 66.8685Z" fill="#263238"/>
<path d="M32.3822 71.8642H29.2653L28.6764 73.6548H27.082L30.0697 65.2928H31.6066L34.6014 73.6548H32.9783L32.3822 71.8642ZM31.8938 70.3959L30.8309 67.1908L29.768 70.3959H31.8938Z" fill="#263238"/>
<path d="M34.7734 72.8312L35.3049 71.3719C35.9534 71.9403 36.7242 72.2522 37.5169 72.2672C38.4361 72.2672 38.8096 71.8822 38.8096 71.3719C38.8096 69.8141 34.9099 70.8885 34.9099 67.7908C34.9099 66.3673 35.8292 65.1855 37.7323 65.1855C38.5479 65.1628 39.3529 65.4199 40.0592 65.9286L39.5852 67.3969C39.0205 66.9835 38.3799 66.7585 37.7252 66.7433C36.8059 66.7433 36.454 67.173 36.454 67.6923C36.454 69.2322 40.3465 68.1758 40.3465 71.2734C40.3465 72.6701 39.4201 73.8698 37.4738 73.8698C36.5103 73.8705 35.5691 73.5085 34.7734 72.8312Z" fill="#263238"/>
<path d="M43.852 70.3691L42.9542 71.5419V73.6548H41.4102V65.2928H42.9542V69.1963L45.9275 65.2928H47.6511L44.8718 69.0172L47.8091 73.6548H45.9993L43.852 70.3691Z" fill="#263238"/>
<path d="M47.8311 72.831L48.3553 71.3717C49.0045 71.9385 49.7748 72.2503 50.5673 72.2669C51.4866 72.2669 51.86 71.882 51.86 71.3717C51.86 69.8139 47.9675 70.8882 47.9675 67.7905C47.9675 66.367 48.8868 65.1853 50.79 65.1853C51.6053 65.1648 52.4098 65.4217 53.1169 65.9284L52.6357 67.3966C52.0734 66.9836 51.4352 66.7585 50.7828 66.7431C49.8635 66.7431 49.5044 67.1728 49.5044 67.692C49.5044 69.2319 53.4041 68.1755 53.4041 71.2732C53.4041 72.6698 52.4777 73.8695 50.5314 73.8695C49.5678 73.8714 48.6263 73.5093 47.8311 72.831Z" fill="#263238"/>
<path d="M260.069 116.233H228.606C225.096 116.233 222.25 119.781 222.25 124.156V124.165C222.25 128.541 225.096 132.089 228.606 132.089H260.069C263.58 132.089 266.425 128.541 266.425 124.165V124.156C266.425 119.781 263.58 116.233 260.069 116.233Z" fill="#E0E0E0"/>
<path d="M260.062 177.864H228.606C227.771 177.864 226.945 177.659 226.174 177.261C225.402 176.863 224.702 176.279 224.112 175.543C223.521 174.808 223.053 173.934 222.734 172.973C222.414 172.012 222.25 170.981 222.25 169.941C222.25 167.839 222.92 165.824 224.112 164.338C225.304 162.852 226.92 162.018 228.606 162.018H260.062C260.897 162.018 261.723 162.223 262.494 162.621C263.266 163.019 263.966 163.602 264.556 164.338C265.147 165.074 265.615 165.947 265.934 166.909C266.254 167.87 266.418 168.9 266.418 169.941C266.418 170.981 266.254 172.012 265.934 172.973C265.615 173.934 265.147 174.808 264.556 175.543C263.966 176.279 263.266 176.863 262.494 177.261C261.723 177.659 260.897 177.864 260.062 177.864Z" fill="#EBEBEB"/>
<path d="M260.069 206.863H228.606C225.096 206.863 222.25 210.41 222.25 214.786V214.795C222.25 219.171 225.096 222.718 228.606 222.718H260.069C263.58 222.718 266.425 219.171 266.425 214.795V214.786C266.425 210.41 263.58 206.863 260.069 206.863Z" fill="#E0E0E0"/>
<path d="M247.024 209.639C247.024 209.639 233.083 191.744 227.825 173.856C222.568 155.968 225.065 158.033 225.065 158.033C225.065 158.033 232.16 175.438 237.559 183.808C242.959 192.179 252.551 204.521 252.551 204.521L247.024 209.639Z" fill="#455A64"/>
<path d="M249.769 160.802C249.679 160.613 249.531 160.465 249.352 160.386C249.173 160.307 248.975 160.302 248.793 160.372C248.611 160.441 248.457 160.581 248.359 160.766C248.261 160.951 248.225 161.168 248.258 161.38C249.102 167.661 250.94 182.408 250.869 191.973C250.777 204.402 250.869 209.204 250.869 209.204H256.673C256.673 209.204 255.637 183.516 254.331 175.684C253.409 170.193 251.465 164.101 249.769 160.802Z" fill="#455A64"/>
<path d="M252.934 207.116C255.364 200.971 256.972 194.461 257.708 187.796C258.184 183.223 257.332 177.044 256.062 168.808C255.582 165.792 255.345 162.734 255.353 159.671C255.38 159.344 255.497 159.035 255.688 158.786C255.879 158.537 256.135 158.361 256.42 158.281C256.705 158.201 257.005 158.222 257.279 158.34C257.553 158.459 257.788 158.669 257.95 158.943C258.659 160.335 260.681 165.098 261.192 168.08C262.611 176.221 264.186 180.296 262.973 188.025C261.76 195.755 257.261 207.654 257.261 207.654L252.934 207.116Z" fill="#455A64"/>
<path d="M258.156 207.638C258.156 207.638 273.467 170.96 274.524 165.517C275.581 160.074 279.192 147.542 279.618 148.247C280.044 148.951 280.675 155.58 277.922 163.152C275.17 170.723 263.385 208.753 263.385 208.753H258.156" fill="#455A64"/>
<path d="M251.281 206C251.132 205.902 250.99 205.791 250.856 205.668C250.586 205.439 250.146 205.114 249.671 204.663C248.649 203.769 247.223 202.409 245.556 200.613C241.246 195.88 237.513 190.536 234.452 184.719C231.4 178.905 228.862 172.774 226.875 166.412C226.102 163.975 225.541 161.981 225.179 160.597C224.988 159.9 224.86 159.362 224.768 159.014C224.713 158.829 224.675 158.638 224.654 158.445C224.724 158.622 224.784 158.804 224.832 158.991C224.952 159.386 225.101 159.908 225.3 160.573C225.697 161.949 226.293 163.927 227.088 166.348C229.137 172.66 231.697 178.751 234.736 184.545C237.788 190.335 241.478 195.677 245.719 200.447C247.358 202.258 248.755 203.611 249.749 204.569C250.238 205.035 250.636 205.36 250.898 205.629C251.036 205.74 251.164 205.864 251.281 206Z" fill="#263238"/>
<path d="M252.927 188.405C252.859 188.05 252.814 187.691 252.793 187.329C252.722 186.538 252.622 185.581 252.509 184.386C252.268 181.902 251.892 178.484 251.352 174.726C250.813 170.968 250.203 167.606 249.735 165.137C249.508 163.966 249.323 162.993 249.181 162.25C249.094 161.9 249.035 161.543 249.004 161.182C249.131 161.517 249.23 161.863 249.302 162.218C249.472 162.89 249.699 163.871 249.962 165.082C250.487 167.511 251.125 170.897 251.672 174.663C252.218 178.429 252.558 181.87 252.743 184.362C252.835 185.604 252.892 186.617 252.92 187.313C252.956 187.676 252.959 188.042 252.927 188.405Z" fill="#263238"/>
<path d="M256.516 158.642C256.589 158.791 256.648 158.947 256.693 159.109C256.814 159.449 256.963 159.9 257.154 160.47C257.346 161.039 257.587 161.791 257.807 162.653C258.027 163.516 258.332 164.489 258.552 165.589C258.673 166.142 258.8 166.712 258.935 167.313C259.07 167.915 259.155 168.547 259.269 169.204C259.517 170.502 259.673 171.918 259.858 173.397C260.192 176.624 260.315 179.874 260.227 183.12C260.103 186.365 259.773 189.595 259.24 192.788C258.957 194.252 258.715 195.644 258.382 196.926C258.219 197.567 258.091 198.192 257.921 198.785L257.431 200.47C257.14 201.554 256.786 202.503 256.502 203.342C256.218 204.181 255.948 204.924 255.707 205.47L255.161 206.791C255.101 206.946 255.032 207.097 254.955 207.242C254.984 207.074 255.034 206.912 255.104 206.76C255.225 206.42 255.388 205.969 255.594 205.415C255.799 204.861 256.076 204.117 256.303 203.271C256.53 202.424 256.906 201.475 257.183 200.391L257.651 198.706C257.814 198.113 257.935 197.488 258.091 196.847C258.41 195.573 258.644 194.181 258.914 192.725C259.426 189.546 259.746 186.332 259.872 183.105C259.955 179.877 259.841 176.647 259.531 173.437C259.354 171.965 259.212 170.557 258.978 169.259C258.864 168.611 258.779 167.97 258.659 167.377C258.538 166.783 258.417 166.198 258.304 165.652C258.098 164.544 257.814 163.579 257.594 162.709C257.374 161.838 257.176 161.126 256.991 160.517C256.807 159.908 256.693 159.481 256.594 159.133C256.551 158.973 256.525 158.809 256.516 158.642Z" fill="#263238"/>
<path d="M279.44 148.983C279.448 149.038 279.448 149.094 279.44 149.149L279.376 149.623C279.305 150.043 279.22 150.668 279.071 151.451C278.78 153.033 278.283 155.304 277.517 158.057C276.751 160.81 275.708 164.046 274.473 167.59C273.239 171.135 271.799 175.011 270.443 179.125C269.088 183.239 268.003 187.25 267.002 190.897C266.002 194.545 265.073 197.812 264.165 200.51C263.462 202.649 262.654 204.744 261.745 206.784C261.433 207.512 261.149 208.05 260.972 208.421L260.759 208.841C260.737 208.893 260.708 208.941 260.674 208.983C260.674 208.983 260.674 208.928 260.731 208.825C260.787 208.722 260.837 208.564 260.915 208.39C261.078 208.01 261.341 207.456 261.625 206.72C262.242 205.265 263.044 203.129 263.937 200.391C264.831 197.654 265.732 194.418 266.704 190.763C267.676 187.108 268.748 183.097 270.131 178.975C271.515 174.853 272.934 170.976 274.182 167.44C275.431 163.904 276.502 160.684 277.29 157.946C278.077 155.209 278.61 152.954 278.943 151.388C279.106 150.596 279.213 149.995 279.305 149.584C279.34 149.394 279.376 149.236 279.404 149.109C279.411 149.065 279.423 149.023 279.44 148.983Z" fill="#263238"/>
<path d="M232.246 140.881C232.034 140.655 231.762 140.515 231.471 140.481C231.18 140.448 230.887 140.523 230.638 140.695C230.39 140.867 230.199 141.126 230.097 141.432C229.995 141.738 229.987 142.073 230.075 142.384C230.599 144.278 231.241 146.128 231.997 147.922C234.126 152.906 240.284 170.802 243.179 180.62C246.074 190.438 250.146 208.753 250.146 208.753L256.326 207.638C256.326 207.638 250.65 177.519 245.151 166.672C240.71 157.946 236.276 145.351 232.246 140.881Z" fill="#455A64"/>
<path d="M244.896 186.744C245.029 187.007 245.136 187.285 245.215 187.574C245.399 188.112 245.648 188.904 245.924 189.885C246.492 191.847 247.194 194.631 247.897 197.646C248.599 200.66 249.174 203.469 249.585 205.486C249.77 206.435 249.926 207.234 250.046 207.859C250.118 208.149 250.161 208.446 250.174 208.745C250.065 208.474 249.982 208.19 249.926 207.899C249.77 207.266 249.585 206.475 249.358 205.526C248.883 203.453 248.266 200.731 247.577 197.717C246.889 194.703 246.215 191.926 245.704 189.94L245.094 187.567C245.003 187.3 244.937 187.025 244.896 186.744Z" fill="#263238"/>
<path d="M253.253 208.199C253.243 208.137 253.243 208.072 253.253 208.01C253.253 207.867 253.21 207.693 253.182 207.472C253.118 206.997 253.054 206.285 252.926 205.383C252.699 203.571 252.295 200.968 251.635 197.788C250.844 194.063 249.878 190.387 248.74 186.775C247.47 182.701 245.902 178.286 244.079 173.721C240.446 164.607 236.814 156.514 234.43 150.541C233.224 147.558 232.302 145.121 231.677 143.42C231.365 142.574 231.138 141.909 230.968 141.466L230.798 140.952C230.755 140.833 230.741 140.77 230.748 140.77C230.779 140.823 230.805 140.878 230.826 140.936L231.025 141.435L231.777 143.365C232.429 145.042 233.394 147.463 234.615 150.43C237.048 156.379 240.709 164.441 244.356 173.579C246.158 178.144 247.74 182.574 248.996 186.672C250.125 190.303 251.073 194 251.834 197.748C252.472 200.953 252.841 203.571 253.033 205.391C253.146 206.301 253.182 206.973 253.224 207.487C253.224 207.709 253.224 207.891 253.224 208.033C253.224 208.176 253.253 208.199 253.253 208.199Z" fill="#263238"/>
<path d="M256.326 207.638C256.227 207.26 256.158 206.874 256.12 206.483C255.992 205.691 255.829 204.608 255.638 203.318C255.212 200.652 254.559 196.989 253.623 192.978C252.686 188.967 251.657 185.406 250.856 182.843L249.862 179.813C249.724 179.45 249.615 179.074 249.536 178.69C249.706 179.034 249.855 179.391 249.983 179.758C250.246 180.462 250.622 181.474 251.047 182.748C252.151 186.066 253.099 189.446 253.885 192.875C254.682 196.302 255.323 199.772 255.808 203.27C255.985 204.615 256.12 205.707 256.184 206.435C256.261 206.831 256.309 207.233 256.326 207.638Z" fill="#263238"/>
<path d="M269.004 206.649H244.889V239.41H269.004V206.649Z" fill="#F2C94C"/>
<g opacity="0.3">
<path d="M269.004 206.649H244.889V239.41H269.004V206.649Z" fill="black"/>
</g>
<path d="M261.312 206.649H239.914V239.41H261.312V206.649Z" fill="#F2C94C"/>
<path d="M121.544 115.564L113.208 112.13L81.3094 111.078L73.9023 113.325L74.8743 133.444L91.6182 145.351L107.851 144.987L118.061 134.615L120.331 124.338L121.544 115.564Z" fill="#FFBE9D"/>
<path d="M26.9283 146.379C28.9017 141.794 31.1316 137.352 33.6045 133.08C37.5114 126.227 43.6918 121.378 50.7953 119.591L77.5571 111.505C77.5571 111.505 79.3805 131.632 97.7845 131.632C116.188 131.632 116.565 113.024 116.565 113.024L150.265 126.758C151.329 127.217 158.516 129.994 166.874 149.979C174.834 168.982 178.318 178.689 178.318 178.689L146.526 188.183L144.398 220.929L145.107 239.204L48.2625 238.967L48.8017 218.073L48.3689 183.594L46.3398 187.859L16.1016 174.33C16.1016 174.33 19.0885 164.377 26.9283 146.379Z" fill="#9B51E0"/>
<path d="M47.8862 165.723C47.7443 165.723 47.8365 177.297 48.0848 191.562C48.3332 205.826 48.6453 217.4 48.7943 217.392C48.9433 217.385 48.8511 205.826 48.6028 191.554C48.3545 177.281 48.0281 165.715 47.8862 165.723Z" fill="#263238"/>
<g opacity="0.3">
<path d="M142.234 169.093C140.729 167.25 138.395 166.633 136.203 166.134C111.286 160.43 85.5884 162.843 60.3449 166.364C57.209 166.799 53.7538 167.535 51.8666 170.319C50.4973 172.361 51.3771 175.066 51.2423 177.606C50.5824 190.652 52.1078 204.552 54.4278 217.361L140.417 215.874C143.362 205.937 144.078 189.077 144.128 177.63C144.149 174.615 144.05 171.308 142.234 169.093Z" fill="black"/>
</g>
<path d="M164.526 145.675L164.249 145.952L163.398 146.743C162.949 147.179 162.475 147.58 161.979 147.945L161.021 148.65L160.496 149.037L159.9 149.393C159.013 149.965 158.093 150.473 157.147 150.912C156.029 151.451 154.885 151.919 153.72 152.313C150.857 153.213 147.897 153.671 144.923 153.673C141.31 153.67 137.726 152.966 134.33 151.593C134.096 151.498 133.862 151.419 133.62 151.316L132.946 150.983L131.584 150.295C131.13 150.066 130.697 149.757 130.25 149.504C129.803 149.251 129.342 148.974 128.917 148.634C128.079 147.961 127.178 147.344 126.362 146.577C125.547 145.809 124.724 145.042 123.901 144.251C122.276 142.572 120.458 141.143 118.494 140.002C117.463 139.469 116.376 139.081 115.259 138.847C114.114 138.648 112.952 138.595 111.797 138.689C109.415 138.94 107.087 139.63 104.908 140.73C102.651 141.834 100.486 143.158 98.4372 144.686C94.2654 147.756 90.2639 151.071 85.7516 152.89C82.4765 154.292 78.9046 154.592 75.4782 153.752C74.3924 153.496 73.3253 153.149 72.2856 152.716C68.4442 150.997 64.838 148.685 61.5724 145.849C58.4435 143.294 55.5914 140.841 52.7747 138.958C50.2806 137.193 47.5469 135.889 44.6795 135.097C42.5149 134.493 40.2713 134.322 38.053 134.591C36.6506 134.758 35.2809 135.172 33.9947 135.817C33.6578 135.974 33.3286 136.151 33.0085 136.347L32.668 136.537C32.7708 136.457 32.8774 136.383 32.9872 136.316C33.3004 136.097 33.6277 135.903 33.9663 135.738C35.2518 135.061 36.627 134.62 38.0388 134.433C40.2721 134.136 42.535 134.283 44.7221 134.868C47.6192 135.649 50.3839 136.948 52.9096 138.713C55.7475 140.596 58.5854 143.04 61.7497 145.58C64.9978 148.382 68.5795 150.666 72.392 152.368C73.418 152.792 74.471 153.131 75.5421 153.381C76.6334 153.648 77.7454 153.797 78.8625 153.824C81.1703 153.873 83.4652 153.43 85.6239 152.518C90.0652 150.722 94.0454 147.431 98.2314 144.354C100.295 142.797 102.479 141.449 104.759 140.327C106.974 139.211 109.341 138.513 111.761 138.262C112.946 138.165 114.136 138.224 115.309 138.436C116.456 138.672 117.572 139.07 118.629 139.623C120.62 140.783 122.462 142.236 124.106 143.942C124.929 144.733 125.738 145.525 126.554 146.268C127.37 147.012 128.25 147.637 129.08 148.301C129.498 148.642 129.96 148.879 130.392 149.172C130.825 149.464 131.258 149.741 131.712 149.963L133.06 150.635L133.727 150.976C133.947 151.078 134.181 151.158 134.436 151.245C137.79 152.627 141.333 153.347 144.908 153.373C147.861 153.387 150.801 152.953 153.649 152.083C154.812 151.704 155.954 151.25 157.069 150.722C158.011 150.296 158.928 149.805 159.815 149.251L160.411 148.903L160.943 148.523L161.886 147.835C162.381 147.481 162.855 147.092 163.305 146.672L164.178 145.92L164.526 145.675Z" fill="white"/>
<path d="M149.286 168.294C149.185 168.354 149.08 168.407 148.973 168.452L148.03 168.887C146.791 169.354 145.503 169.644 144.199 169.75C142.13 169.869 140.057 169.645 138.047 169.085C135.392 168.331 132.815 167.27 130.356 165.921C127.611 164.473 124.716 162.645 121.474 161.007C118.231 159.37 114.613 157.843 110.619 157.795C108.582 157.763 106.556 158.113 104.623 158.832C102.605 159.59 100.651 160.545 98.7844 161.688C96.8546 162.819 94.939 164.061 92.9241 165.216C90.8961 166.433 88.7549 167.398 86.5387 168.096C84.3075 168.754 81.9936 168.992 79.6922 168.8C77.4632 168.605 75.2627 168.116 73.1366 167.345C69.158 165.834 65.3656 163.771 61.8487 161.205C58.4503 158.832 55.3214 156.395 52.2777 154.33C49.4943 152.365 46.5396 150.719 43.4589 149.417C37.783 147.107 32.6747 147.091 29.404 147.961C28.1389 148.286 26.9073 148.755 25.7288 149.362L24.8278 149.884L24.5156 150.05C24.5156 150.05 24.615 149.971 24.8136 149.844L25.7005 149.283C26.8735 148.642 28.1058 148.145 29.3756 147.803C32.6605 146.878 37.7972 146.846 43.5653 149.148C46.6731 150.444 49.6542 152.09 52.4622 154.061C55.5201 156.118 58.656 158.539 62.0473 160.905C65.5513 163.455 69.3264 165.51 73.2856 167.02C75.3777 167.758 77.5395 168.222 79.7277 168.405C81.9915 168.588 84.267 168.35 86.4607 167.701C88.6469 167.011 90.7594 166.059 92.7609 164.86C94.7546 163.713 96.6773 162.487 98.6142 161.34C100.504 160.192 102.479 159.228 104.517 158.46C106.487 157.737 108.552 157.386 110.626 157.424C114.698 157.519 118.373 159.061 121.601 160.699C124.83 162.337 127.738 164.204 130.47 165.667C132.909 167.01 135.464 168.071 138.097 168.832C140.086 169.405 142.139 169.65 144.191 169.56C145.487 169.464 146.768 169.199 148.008 168.769L148.959 168.373C149.172 168.326 149.286 168.294 149.286 168.294Z" fill="white"/>
<path d="M171.975 162.258C171.763 162.547 171.525 162.812 171.265 163.049C171.024 163.302 170.726 163.603 170.35 163.935C169.974 164.267 169.577 164.655 169.087 165.034C167.955 165.953 166.77 166.788 165.54 167.535C162.536 169.366 159.292 170.656 155.926 171.356C154.558 171.646 153.174 171.831 151.783 171.91C151.187 171.957 150.648 171.91 150.179 171.949C149.711 171.989 149.3 171.949 148.966 171.91C148.621 171.904 148.277 171.867 147.938 171.799C148.278 171.743 148.623 171.727 148.966 171.751C149.3 171.751 149.676 171.751 150.172 171.751C150.669 171.751 151.173 171.751 151.762 171.648C153.139 171.528 154.508 171.317 155.862 171.016C157.52 170.637 159.153 170.135 160.751 169.512C162.338 168.866 163.886 168.105 165.384 167.234C166.606 166.518 167.79 165.726 168.931 164.86C169.421 164.496 169.839 164.125 170.215 163.816C170.591 163.508 170.925 163.223 171.166 163.025C171.418 162.747 171.688 162.49 171.975 162.258Z" fill="white"/>
<path d="M65.694 72.8501C65.694 72.8501 63.672 75.9356 63.7075 81.4973C63.7075 84.48 65.5451 90.5243 70.2915 90.825C69.0357 99.3535 73.9241 105.651 82.0689 105.667C90.2138 105.683 99.5435 90.0892 107.092 86.6794L129.001 80.2236C130.931 79.7252 131.719 77.1065 131.683 74.9071C131.648 72.7077 131.144 70.4134 131.839 68.3485C132.797 65.5241 135.734 64.013 136.735 61.2282C137.877 58.0636 136.11 54.4955 134.074 51.9164C132.038 49.3373 129.562 46.8847 128.916 43.5303C128.32 40.4369 129.384 36.9558 128.001 34.2026C126.298 30.8086 121.843 30.3893 119.771 27.2643C118.771 25.7453 118.458 23.7753 117.465 22.2484C115.777 19.6535 112.499 18.9731 109.661 19.3291C106.823 19.6851 104.056 20.8243 101.19 21.0617C97.2519 21.3782 93.1866 19.962 89.4121 21.2278C85.2474 22.6361 82.7075 26.7659 80.0043 30.7216L76.4569 35.3498C75.7388 36.1483 74.9522 36.8663 74.1085 37.4938C72.6186 38.5698 70.9229 39.3134 69.6459 40.6584C69.0017 41.4193 68.5018 42.3174 68.1763 43.2989C67.8507 44.2803 67.7061 45.325 67.7512 46.3702C67.7962 47.4154 68.03 48.4398 68.4384 49.3819C68.8469 50.324 69.4217 51.1645 70.1283 51.8531C68.6273 52.4421 67.335 53.552 66.4412 55.02C65.5474 56.488 65.099 58.2368 65.1619 60.0098C65.1619 60.0098 64.7717 64.0605 67.0704 65.8643C67.0704 65.8801 63.7713 68.6491 65.694 72.8501Z" fill="#263238"/>
<path d="M80.3733 81.1253C78.5641 74.9227 76.7833 68.6805 75.9603 62.2248C75.1373 55.769 75.3076 49.0522 77.3793 42.9446C77.6915 42.011 80.3237 35.8242 81.2034 35.8954C81.8349 35.9666 80.2102 41.7658 80.5294 42.3749C83.5731 48.1978 84.3961 55.1994 83.9137 61.9162C83.3857 68.444 82.2102 74.8864 80.4088 81.1253" fill="#263238"/>
<path d="M96.0176 129.773C86.9575 129.559 80.409 112.993 80.409 112.993L79.8201 56.2595C79.3377 39.9224 87.4684 25.9982 102.126 25.9191L103.481 25.9982C110.057 26.3892 116.26 29.5271 120.855 34.7872C125.45 40.0474 128.1 47.044 128.278 54.3845C128.618 68.546 128.838 84.2028 128.391 91.7583C127.462 107.415 113.301 109.005 113.301 109.005C113.301 109.005 113.216 112.637 113.173 117.241C113.081 127.581 99.6928 130.129 96.0389 129.773H96.0176Z" fill="#FFBE9D"/>
<path d="M113.279 109.006C113.279 109.006 104.396 109.061 95.2793 101.886C95.2793 101.886 99.1886 113.539 113.272 112.962L113.279 109.006Z" fill="#EB996E"/>
<path d="M121.119 67.8026C121.099 68.3873 120.873 68.9398 120.491 69.3409C120.109 69.7419 119.6 69.9595 119.076 69.9466C118.819 69.954 118.564 69.9039 118.326 69.7994C118.087 69.6949 117.87 69.538 117.686 69.3381C117.503 69.1381 117.358 68.8992 117.259 68.6354C117.16 68.3717 117.109 68.0885 117.11 67.8026C117.131 67.2192 117.355 66.6679 117.736 66.2671C118.117 65.8662 118.623 65.6478 119.147 65.6586C119.403 65.6512 119.659 65.7011 119.898 65.8056C120.137 65.91 120.355 66.0668 120.538 66.2666C120.722 66.4664 120.868 66.7053 120.968 66.9691C121.068 67.2329 121.119 67.5163 121.119 67.8026Z" fill="#263238"/>
<path d="M124.943 60.7061C124.681 60.9831 123.219 59.6381 121.062 59.5194C118.906 59.4008 117.267 60.5005 117.047 60.1919C116.933 60.0574 117.217 59.5432 117.934 59.0289C118.901 58.3596 120.032 58.0443 121.169 58.127C122.289 58.1875 123.363 58.6448 124.234 59.4324C124.872 60.0179 125.071 60.5875 124.943 60.7061Z" fill="#263238"/>
<path d="M101.821 67.233C101.797 67.8157 101.57 68.3649 101.189 68.7639C100.807 69.1629 100.301 69.38 99.778 69.3691C99.522 69.3764 99.2672 69.3267 99.0286 69.2228C98.7901 69.1188 98.5725 68.9628 98.3888 68.7638C98.2051 68.5648 98.0588 68.3269 97.9587 68.064C97.8586 67.8011 97.8065 67.5186 97.8057 67.233C97.8296 66.6496 98.0563 66.0995 98.4377 65.6992C98.8191 65.299 99.3253 65.0801 99.849 65.089C100.105 65.0827 100.36 65.1334 100.599 65.2382C100.838 65.343 101.055 65.4998 101.239 65.6994C101.422 65.8991 101.568 66.1375 101.668 66.4008C101.768 66.6641 101.82 66.947 101.821 67.233Z" fill="#263238"/>
<path d="M103.758 60.4132C103.495 60.6901 102.034 59.3451 99.8768 59.2265C97.72 59.1078 96.074 60.2154 95.8541 59.9069C95.7476 59.7644 96.0243 59.2581 96.7409 58.736C97.7109 58.0725 98.8403 57.7576 99.9762 57.8341C101.1 57.8946 102.176 58.3548 103.048 59.1473C103.708 59.7486 103.885 60.2945 103.758 60.4132Z" fill="#263238"/>
<path d="M110.612 79.3691C110.612 79.2346 111.96 79.0605 114.159 78.8786C114.72 78.8786 115.245 78.752 115.358 78.3406C115.432 77.7083 115.333 77.0657 115.074 76.4972L113.655 71.7503C111.711 64.9544 110.342 59.3768 110.583 59.2898C110.824 59.2028 112.605 64.6458 114.549 71.4497C115.017 73.1269 115.464 74.7171 115.883 76.2519C116.196 77.0135 116.256 77.8742 116.053 78.6808C115.964 78.8933 115.832 79.0797 115.667 79.2252C115.502 79.3708 115.309 79.4715 115.103 79.5194C114.793 79.5943 114.476 79.6262 114.159 79.6143C111.967 79.5827 110.612 79.5115 110.612 79.3691Z" fill="#263238"/>
<path d="M104.176 80.6587C104.531 80.6587 104.41 83.2695 106.305 85.2394C108.199 87.2094 110.725 87.0749 110.725 87.4467C110.725 87.6129 110.143 87.9214 109.093 87.8898C107.718 87.8289 106.407 87.2294 105.389 86.1967C104.415 85.203 103.823 83.8284 103.736 82.3596C103.708 81.2678 104.02 80.6349 104.176 80.6587Z" fill="#263238"/>
<path d="M104.106 50.6426C103.865 51.2835 101.722 50.8483 99.1751 51.0382C96.6281 51.2281 94.5422 51.8294 94.2087 51.2676C94.0739 50.9749 94.4641 50.3816 95.3155 49.7961C96.4549 49.0869 97.724 48.6756 99.0268 48.5934C100.33 48.5112 101.632 48.7601 102.836 49.3214C103.773 49.7961 104.212 50.342 104.106 50.6426Z" fill="#263238"/>
<path d="M124.44 52.6521C124.029 53.1743 122.574 52.5176 120.786 52.391C118.998 52.2644 117.466 52.5572 117.147 51.9638C117.005 51.679 117.267 51.1726 117.955 50.6663C118.873 50.0986 119.922 49.8481 120.968 49.9467C122.014 50.0453 123.01 50.4886 123.83 51.2201C124.44 51.8214 124.617 52.3989 124.44 52.6521Z" fill="#263238"/>
<path d="M80.3877 67.9292C80.1536 67.8026 70.8877 64.1712 70.6819 74.8992C70.4762 85.6271 80.1677 83.6414 80.1961 83.3328C80.2245 83.0243 80.3877 67.9292 80.3877 67.9292Z" fill="#FFBE9D"/>
<path d="M77.3369 79.1953C77.2943 79.1557 77.1666 79.3219 76.8757 79.4564C76.4754 79.6376 76.0274 79.6376 75.627 79.4564C74.6196 79.0133 73.7966 77.1937 73.7895 75.2633C73.7806 74.3425 73.9576 73.4313 74.3074 72.5971C74.4043 72.2642 74.5725 71.9627 74.7975 71.7187C75.0225 71.4747 75.2975 71.2955 75.5987 71.1968C75.7925 71.1444 75.9967 71.1695 76.1757 71.2678C76.3546 71.3661 76.4969 71.5314 76.5777 71.7348C76.6984 72.0354 76.6345 72.249 76.6842 72.2648C76.7338 72.2807 76.897 72.0908 76.8261 71.6478C76.7792 71.3794 76.6484 71.1383 76.4571 70.9674C76.1987 70.7383 75.8704 70.6305 75.5419 70.6667C75.1488 70.742 74.7789 70.9264 74.4665 71.2029C74.154 71.4794 73.909 71.8392 73.754 72.249C73.3263 73.1675 73.107 74.1889 73.1155 75.2237C73.1155 77.3915 74.0875 79.4326 75.471 79.9152C75.7277 80.0051 75.9993 80.0298 76.2657 79.9873C76.5321 79.9449 76.7866 79.8364 77.0105 79.67C77.3156 79.4485 77.3653 79.2111 77.3369 79.1953Z" fill="#EB996E"/>
<path d="M122.239 36.5288C123.807 35.5953 119.196 29.899 115.393 27.9133C109.646 24.9069 100.834 22.9765 95.4845 24.5904C89.0424 26.5208 83.6716 30.0098 80.3725 36.4576C77.0734 42.9055 75.7751 50.4926 75.8744 57.9372C75.8744 60.2078 76.0943 62.5734 77.1586 64.5117C78.4711 66.8851 81.0324 68.4279 80.8834 71.7032C80.8392 72.2946 80.9018 72.8899 81.0675 73.4538C81.2333 74.0178 81.4988 74.5389 81.8483 74.9865C83.5794 77.0988 85.7575 75.1684 86.7721 73.2222C88.936 69.0449 89.2269 64.037 89.4681 59.2268C89.6384 55.8012 89.8016 52.3122 88.9786 49.0131C88.5245 47.2172 87.7866 45.5163 87.4319 43.6966C87.0772 41.877 87.141 39.82 88.1414 38.3564C88.3813 38.0392 88.6473 37.7479 88.936 37.4861C90.2913 36.1981 91.9302 35.3365 93.6837 34.9902C95.4372 34.644 97.2418 34.8255 98.9114 35.5162C104.303 37.7235 113.52 41.0542 115.939 39.0368C119.444 36.1333 120.302 34.2266 120.302 34.2266L122.239 36.5288Z" fill="#263238"/>
<path d="M96.0038 23.1343C101.318 21.2435 107.356 21.4333 112.244 24.3606C114.855 25.9429 117.21 28.3796 117.962 31.5679C118.714 34.7562 117.466 38.6882 114.713 39.8512L114.521 39.9857C110.399 41.4651 107.739 40.7768 103.666 39.1946C100.239 37.8101 97.2028 35.3971 93.7689 34.0442C90.0904 32.5952 86.107 32.4079 82.332 33.5062C86.0639 28.878 90.6969 25.0331 96.0038 23.1343Z" fill="#263238"/>
<path d="M77.7133 33.7436C77.7985 33.8228 78.5718 32.8022 80.1327 31.5917C81.0374 30.8812 82.0167 30.2967 83.0486 29.8512C84.2882 29.2821 85.6266 29.0307 86.965 29.1154C89.4155 29.4209 91.7392 30.4902 93.6696 32.2009C95.1595 33.5142 95.8477 34.6218 95.94 34.5744C96.0322 34.5269 95.8336 34.25 95.5214 33.7832C95.0669 33.0843 94.5433 32.4447 93.9605 31.8765C92.0214 29.959 89.5925 28.7666 87.0147 28.4667C85.58 28.3697 84.1453 28.6545 82.8287 29.2974C81.7668 29.7959 80.7694 30.4504 79.8631 31.2436C78.3164 32.5411 77.6566 33.7041 77.7133 33.7436Z" fill="#455A64"/>
<path d="M107.021 22.1613C107.854 22.5655 108.704 22.922 109.569 23.2293C113.633 25.0318 117.086 28.2149 119.437 32.3275C119.871 33.2158 120.345 34.0792 120.856 34.9145C120.665 33.903 120.312 32.9382 119.813 32.0664C117.594 27.6833 113.993 24.376 109.71 22.7863C108.857 22.3919 107.945 22.1799 107.021 22.1613Z" fill="#455A64"/>
<path d="M65.2543 60.16C65.2543 60.16 65.6091 60.3341 66.2689 60.5397C67.1946 60.8086 68.1577 60.8784 69.1068 60.7454C70.5319 60.5394 71.9103 60.0405 73.1722 59.2739C74.6266 58.4828 76.1165 57.3435 77.7696 56.2992C79.3081 55.251 81.0138 54.5445 82.7928 54.2185C84.2729 53.9626 85.7872 54.2691 87.0922 55.0888C87.9784 55.631 88.6978 56.458 89.1568 57.4622C89.2776 57.729 89.3705 58.0103 89.4335 58.3008C89.469 58.5065 89.4832 58.6093 89.469 58.6173C89.4548 58.6252 89.3626 58.198 89.0291 57.5334C88.5388 56.6075 87.8229 55.8558 86.9645 55.3656C85.7011 54.6194 84.2524 54.3581 82.8424 54.622C81.1099 54.9612 79.4495 55.6589 77.947 56.679C76.3152 57.7154 74.8111 58.8309 73.3282 59.6378C72.0242 60.4048 70.6012 60.8881 69.1352 61.0619C68.145 61.1784 67.144 61.0597 66.1979 60.7138C65.9524 60.6188 65.715 60.4997 65.4884 60.3578C65.3324 60.2312 65.2472 60.1758 65.2543 60.16Z" fill="#455A64"/>
<path d="M65.9067 65.2315C67.0479 65.5076 68.2203 65.5876 69.3832 65.4689C70.6388 65.3042 71.8739 64.983 73.0654 64.5116C74.4205 64.0052 75.9033 63.3169 77.4571 62.6998C78.9351 62.0722 80.4901 61.6988 82.0687 61.5922C83.3708 61.5411 84.6669 61.8112 85.8645 62.3834C86.6809 62.7696 87.4084 63.3565 87.9929 64.1002C88.1468 64.3008 88.2823 64.5182 88.3973 64.7489C88.4825 64.8992 88.518 64.9862 88.5038 64.9942C88.4896 65.0021 88.298 64.6935 87.8865 64.203C87.2838 63.5158 86.5588 62.9768 85.7581 62.6207C84.5909 62.1028 83.3376 61.8707 82.0829 61.9403C80.5405 62.0656 79.0227 62.4415 77.5777 63.0559C76.0168 63.665 74.5553 64.3454 73.1718 64.8439C71.952 65.3047 70.6873 65.6021 69.4044 65.7299C68.5382 65.8103 67.6661 65.7517 66.8148 65.5559C66.5734 65.5035 66.3361 65.4294 66.1054 65.3344C65.9776 65.2869 65.8996 65.2473 65.9067 65.2315Z" fill="#455A64"/>
<path d="M133.578 53.6882C133.545 54.0457 133.428 54.387 133.238 54.6771C132.834 55.42 132.286 56.0526 131.634 56.5284C130.981 57.003 130.242 57.311 129.47 57.4303C129.155 57.5084 128.826 57.4892 128.52 57.3749C129.544 57.1672 130.528 56.763 131.428 56.1803C132.266 55.4908 132.993 54.6482 133.578 53.6882Z" fill="#455A64"/>
<path d="M136.281 59.0126C136.215 59.5381 136.046 60.0407 135.784 60.4842C135.206 61.5996 134.396 62.5438 133.422 63.2374C132.45 63.9367 131.339 64.3604 130.187 64.4715C129.712 64.5522 129.227 64.5144 128.768 64.3608C128.768 64.2896 129.307 64.3608 130.144 64.1867C131.234 63.9904 132.277 63.5489 133.209 62.8893C134.137 62.2265 134.932 61.3563 135.543 60.3338C136.026 59.5506 136.217 58.9889 136.281 59.0126Z" fill="#455A64"/>
<path d="M175.558 179.607L188.534 208.658C189.983 211.902 190.662 215.506 190.507 219.125C190.268 224.555 188.166 229.675 184.636 233.424C181.106 237.174 176.418 239.266 171.542 239.268L134.33 236.894L132.705 217.962L161.021 210.336L150.045 187.21L175.558 179.607Z" fill="#FFBE9D"/>
<path d="M161.021 210.336C161.021 210.462 162.305 210.225 164.362 210.241C167.033 210.301 169.68 210.822 172.209 211.783C174.744 212.725 177.12 214.131 179.24 215.945C180.851 217.361 181.603 218.532 181.695 218.453C181.787 218.374 181.567 218.113 181.227 217.575C180.721 216.843 180.153 216.168 179.531 215.557C177.446 213.578 175.036 212.068 172.436 211.111C169.847 210.111 167.116 209.645 164.376 209.734C163.549 209.767 162.726 209.875 161.914 210.059C161.604 210.089 161.301 210.183 161.021 210.336Z" fill="#EB996E"/>
<path d="M16.5912 174.615C16.5912 174.615 9.59567 196.395 0.833541 220.62C0.658841 221.111 0.518881 221.616 0.414945 222.131C-0.91179 228.682 3.56506 239.711 9.58148 239.711L59.9549 239.157V220.786L30.9015 213.666L42.1113 185.976L16.5912 174.615Z" fill="#FFBE9D"/>
<path d="M8.31096 218.714C8.38191 218.809 9.37519 217.923 11.1489 216.807C15.7403 213.869 21.0178 212.537 26.2964 212.986C28.3113 213.16 29.5458 213.469 29.5742 213.35C29.313 213.18 29.0273 213.062 28.7299 213.002C27.9457 212.762 27.1465 212.587 26.339 212.48C20.9479 211.733 15.4922 213.11 10.9148 216.372C10.2265 216.857 9.57192 217.399 8.9566 217.994C8.50962 218.421 8.28259 218.674 8.31096 218.714Z" fill="#EB996E"/>
<path d="M139.984 216.831H132.705C132.705 216.831 116.259 210.209 112.882 210.842C109.838 211.411 98.6922 219.671 96.507 221.301C96.2649 221.483 96.0811 221.746 95.982 222.052C95.768 222.699 95.7867 223.412 96.034 224.043C96.2813 224.674 96.7381 225.174 97.3087 225.438L97.5428 225.549L97.4435 225.921C97.3107 226.4 97.2531 226.9 97.2732 227.4C97.2986 227.781 97.4319 228.142 97.6537 228.432C97.8755 228.723 98.1744 228.926 98.5072 229.015C98.8399 229.103 99.1891 229.07 99.5042 228.922C99.8194 228.775 100.084 228.519 100.26 228.192L99.8416 229.022C99.6666 229.36 99.5851 229.748 99.6074 230.138L99.6429 230.889C99.6636 231.301 99.7952 231.695 100.021 232.021C100.246 232.347 100.555 232.59 100.906 232.717C101.239 232.838 101.596 232.85 101.934 232.75C102.273 232.651 102.579 232.444 102.814 232.155C104.233 230.423 107.284 226.949 109.349 226.57C111.587 226.265 113.842 226.138 116.096 226.19C116.557 226.191 117.006 226.347 117.386 226.637C117.766 226.928 118.058 227.34 118.224 227.82C116.997 227.915 108.455 232.883 105.454 234.663C104.986 234.924 104.583 235.307 104.278 235.779C103.972 236.252 103.775 236.8 103.701 237.377C103.588 238.429 104.063 239.537 105.936 239.046C109.952 238.002 117.181 234.299 117.181 234.299C117.181 234.299 120.906 233.105 123.326 235.011C126.724 237.677 128.292 238.658 131.194 237.583C132.968 236.924 134.67 236.043 136.266 234.956L142.013 234.315C142.013 234.315 147.42 219.157 139.984 216.831Z" fill="#FFBE9D"/>
<path d="M118.282 219.924C118.282 219.995 117.111 219.584 115.188 219.449C112.684 219.262 110.175 219.737 107.866 220.837C105.558 221.937 103.516 223.63 101.907 225.779C100.665 227.424 100.133 228.635 100.076 228.595C100.173 228.3 100.297 228.016 100.445 227.749C100.821 227.002 101.253 226.293 101.736 225.628C103.331 223.397 105.397 221.643 107.75 220.523C110.103 219.403 112.669 218.952 115.217 219.212C115.983 219.287 116.742 219.433 117.487 219.647C117.76 219.709 118.026 219.802 118.282 219.924Z" fill="#EB996E"/>
<path d="M116.536 215.478C115.492 215.122 114.412 214.912 113.322 214.853C110.679 214.845 108.087 215.667 105.844 217.226C103.62 218.818 101.595 220.731 99.8204 222.915L98.1673 224.869C97.9757 225.119 97.767 225.351 97.543 225.565C97.6965 225.28 97.8773 225.015 98.0822 224.774C98.444 224.283 98.9761 223.579 99.6643 222.741C101.406 220.484 103.436 218.525 105.688 216.926C107.977 215.33 110.638 214.526 113.336 214.616C114.146 214.661 114.947 214.823 115.72 215.098C115.93 215.176 116.136 215.266 116.337 215.367C116.479 215.423 116.543 215.462 116.536 215.478Z" fill="#EB996E"/>
<path d="M49.2915 217.409H56.5708C56.5708 217.409 73.0096 210.787 76.3938 211.412C79.4375 211.989 90.5835 220.241 92.7687 221.878C93.0168 222.071 93.2013 222.349 93.2937 222.67C93.5077 223.316 93.4891 224.029 93.2417 224.661C92.9944 225.292 92.5376 225.792 91.967 226.056L91.7328 226.159L91.8322 226.53C91.9645 227.009 92.0221 227.509 92.0025 228.01C91.9771 228.39 91.8439 228.752 91.622 229.042C91.4002 229.332 91.1013 229.536 90.7686 229.624C90.4359 229.712 90.0866 229.68 89.7715 229.532C89.4563 229.384 89.1915 229.128 89.0155 228.801L89.4341 229.632C89.6061 229.971 89.6873 230.358 89.6683 230.747L89.6328 231.538C89.6122 231.949 89.4805 232.344 89.2551 232.67C89.0297 232.996 88.7211 233.239 88.3699 233.366C88.0371 233.487 87.6799 233.499 87.3412 233.399C87.0026 233.3 86.6971 233.093 86.4614 232.804C85.0424 231.072 81.9916 227.598 79.927 227.211C77.6886 226.91 75.4341 226.783 73.1798 226.831C72.7193 226.833 72.2699 226.989 71.8902 227.28C71.5105 227.571 71.2182 227.982 71.0514 228.461C72.2788 228.564 80.821 233.524 83.8221 235.304C84.2886 235.566 84.6915 235.949 84.9966 236.422C85.3017 236.894 85.5 237.442 85.5745 238.018C85.6881 239.07 85.2127 240.178 83.3397 239.695C79.324 238.643 72.0943 234.948 72.0943 234.948C72.0943 234.948 68.3695 233.762 65.9502 235.66C62.5518 238.334 60.9838 239.315 58.082 238.231C56.3073 237.573 54.6055 236.692 53.0092 235.605L47.2624 234.972C47.2624 234.972 41.8561 219.727 49.2915 217.409Z" fill="#FFBE9D"/>
<path d="M70.9941 220.502C70.9941 220.573 72.1648 220.161 74.0804 220.027C76.5861 219.838 79.0965 220.313 81.4061 221.413C83.7157 222.513 85.7591 224.207 87.369 226.356C88.6106 227.994 89.1427 229.204 89.1995 229.173C89.1027 228.877 88.9791 228.594 88.8306 228.326C88.4554 227.577 88.0234 226.865 87.5393 226.198C85.9431 223.97 83.876 222.218 81.5234 221.1C79.1708 219.981 76.6061 219.531 74.0591 219.79C73.2927 219.859 72.5331 220.002 71.7888 220.217C71.5148 220.277 71.2482 220.373 70.9941 220.502Z" fill="#EB996E"/>
<path d="M72.7388 216.048C73.7837 215.696 74.8628 215.486 75.9528 215.423C78.5962 215.412 81.1886 216.234 83.4307 217.796C85.6527 219.387 87.6779 221.297 89.4543 223.476L91.1003 225.43C91.2927 225.682 91.5039 225.915 91.7317 226.127C91.5759 225.844 91.3953 225.579 91.1925 225.336C90.8307 224.845 90.2985 224.149 89.6103 223.302C87.8631 221.052 85.8345 219.093 83.5868 217.487C81.2968 215.895 78.6363 215.091 75.9386 215.177C75.1278 215.221 74.326 215.386 73.5547 215.668C73.278 215.755 73.0794 215.873 72.9375 215.929C72.7956 215.984 72.7317 216.04 72.7388 216.048Z" fill="#EB996E"/>
<path d="M59.1379 239.79H135.634C136.68 239.791 137.686 239.341 138.441 238.535C139.196 237.728 139.642 236.627 139.686 235.462L141.984 176.775C142.011 176.162 141.926 175.55 141.734 174.975C141.543 174.4 141.248 173.875 140.868 173.431C140.489 172.987 140.032 172.634 139.526 172.393C139.021 172.151 138.476 172.027 137.926 172.028H57.0449C56.498 172.028 55.9566 172.15 55.4533 172.389C54.9499 172.628 54.4951 172.978 54.116 173.417C53.737 173.857 53.4415 174.378 53.2475 174.948C53.0534 175.518 52.9647 176.126 52.9867 176.735L55.1151 235.423C55.1499 236.589 55.5882 237.695 56.3381 238.509C57.088 239.323 58.0913 239.782 59.1379 239.79Z" fill="#E0E0E0"/>
<path d="M59.1383 239.79H58.9538C58.7658 239.786 58.5783 239.765 58.3933 239.726C57.6677 239.588 56.9902 239.229 56.4352 238.69C55.9837 238.248 55.6232 237.703 55.3783 237.091C55.1334 236.479 55.0099 235.816 55.0162 235.146C54.9524 233.563 54.8814 231.775 54.8034 229.75C54.4912 221.617 54.0442 209.861 53.4908 195.343C53.3489 191.709 53.2047 187.909 53.058 183.943C52.9871 181.957 52.909 179.94 52.831 177.875C52.831 177.36 52.7813 176.854 52.7955 176.292C52.8243 175.747 52.9371 175.212 53.129 174.71C53.4255 173.948 53.896 173.286 54.4936 172.791C55.0912 172.295 55.7949 171.983 56.5345 171.886C57.0453 171.838 57.5207 171.886 58.0102 171.886H79.5856H135.67H137.536C138.178 171.852 138.82 171.963 139.424 172.21C140.026 172.471 140.567 172.882 141.006 173.411C141.445 173.94 141.77 174.574 141.956 175.264C142.128 175.945 142.181 176.657 142.112 177.36L142.034 179.402C141.978 180.762 141.928 182.115 141.871 183.468C141.658 188.864 141.45 194.178 141.247 199.41C140.835 209.861 140.438 219.94 140.055 229.544C140.012 230.747 139.963 231.918 139.913 233.12C139.913 233.714 139.871 234.307 139.842 234.893C139.85 235.496 139.781 236.099 139.636 236.681C139.31 237.85 138.59 238.834 137.629 239.426C137.157 239.717 136.639 239.902 136.103 239.972C135.564 240.035 135.067 239.972 134.549 239.972H122.673H101.346L70.4617 239.908L62.0685 239.869H70.4617L101.346 239.798H122.673H134.549C135.06 239.798 135.585 239.798 136.068 239.758C136.566 239.695 137.048 239.523 137.487 239.252C138.373 238.707 139.035 237.799 139.331 236.72C139.468 236.169 139.533 235.599 139.523 235.027C139.523 234.442 139.573 233.848 139.594 233.255C139.636 232.068 139.686 230.881 139.729 229.679C140.105 220.074 140.495 209.987 140.899 199.536C141.103 194.315 141.308 189.001 141.517 183.595C141.573 182.25 141.623 180.897 141.68 179.536L141.758 177.495C141.826 176.834 141.777 176.165 141.616 175.525C141.444 174.896 141.147 174.318 140.747 173.836C140.346 173.353 139.852 172.979 139.303 172.74C138.743 172.511 138.146 172.411 137.55 172.447H135.685H79.5998H58.0102C57.5278 172.447 57.024 172.447 56.5913 172.447C55.9031 172.532 55.2475 172.82 54.6916 173.28C54.1356 173.74 53.6992 174.356 53.427 175.066C53.2492 175.528 53.1436 176.02 53.1148 176.522C53.1148 177.02 53.1148 177.55 53.1148 178.065C53.1857 180.121 53.2567 182.147 53.3276 184.125C53.4695 188.086 53.6043 191.886 53.732 195.525C54.2429 210.051 54.6473 221.807 54.9311 229.94C55.002 231.973 55.0588 233.777 55.1155 235.336C55.091 236.402 55.4059 237.445 56.0046 238.277C56.6033 239.11 57.447 239.679 58.3863 239.885C58.8829 239.79 59.1383 239.766 59.1383 239.79Z" fill="#263238"/>
<path d="M93.2656 206.957C93.267 207.88 93.5137 208.782 93.9745 209.548C94.4354 210.315 95.0896 210.912 95.8546 211.264C96.6196 211.616 97.461 211.707 98.2726 211.526C99.0841 211.345 99.8293 210.9 100.414 210.247C100.999 209.594 101.397 208.762 101.558 207.857C101.719 206.952 101.635 206.014 101.318 205.161C101.001 204.309 100.465 203.58 99.7764 203.068C99.0882 202.555 98.2792 202.281 97.4516 202.281C96.9013 202.281 96.3564 202.402 95.8481 202.638C95.3397 202.873 94.878 203.217 94.4892 203.651C94.1004 204.086 93.7922 204.601 93.5822 205.168C93.3723 205.736 93.2647 206.344 93.2656 206.957Z" fill="white"/>
<path d="M147.831 154.038C147.848 154.201 147.848 154.365 147.831 154.528V155.936C147.831 157.155 147.831 158.919 147.753 161.103C147.654 165.462 147.448 171.49 147.115 178.136C146.781 184.782 146.405 190.794 146.086 195.154C145.923 197.29 145.788 199.03 145.696 200.304C145.639 200.874 145.596 201.332 145.561 201.696C145.558 201.863 145.534 202.028 145.49 202.187C145.476 202.024 145.476 201.859 145.49 201.696C145.49 201.332 145.49 200.866 145.547 200.288C145.618 199.022 145.71 197.274 145.83 195.13C146.065 190.731 146.391 184.734 146.746 178.112C147.1 171.49 147.327 165.454 147.491 161.095C147.569 158.951 147.64 157.202 147.689 155.929L147.753 154.528C147.762 154.362 147.788 154.197 147.831 154.038Z" fill="#263238"/>
<path d="M300 239.548C300 239.789 232.839 239.995 150.007 239.995C67.1737 239.995 0 239.789 0 239.548C0 239.308 67.1474 239.153 150.007 239.153C232.866 239.153 300 239.29 300 239.548Z" fill="#263238"/>
</svg>
